G04 #@! TF.GenerationSoftware,KiCad,Pcbnew,(5.1.8)-1*
G04 #@! TF.CreationDate,2021-02-01T15:09:39-08:00*
G04 #@! TF.ProjectId,Modular_single_driver_Driver,4d6f6475-6c61-4725-9f73-696e676c655f,rev?*
G04 #@! TF.SameCoordinates,Original*
G04 #@! TF.FileFunction,Paste,Top*
G04 #@! TF.FilePolarity,Positive*
%FSLAX46Y46*%
G04 Gerber Fmt 4.6, Leading zero omitted, Abs format (unit mm)*
G04 Created by KiCad (PCBNEW (5.1.8)-1) date 2021-02-01 15:09:39*
%MOMM*%
%LPD*%
G01*
G04 APERTURE LIST*
G04 APERTURE END LIST*
G36*
G01*
X178748500Y-124706500D02*
X178248500Y-124706500D01*
G75*
G02*
X178023500Y-124481500I0J225000D01*
G01*
X178023500Y-124031500D01*
G75*
G02*
X178248500Y-123806500I225000J0D01*
G01*
X178748500Y-123806500D01*
G75*
G02*
X178973500Y-124031500I0J-225000D01*
G01*
X178973500Y-124481500D01*
G75*
G02*
X178748500Y-124706500I-225000J0D01*
G01*
G37*
G36*
G01*
X178748500Y-126256500D02*
X178248500Y-126256500D01*
G75*
G02*
X178023500Y-126031500I0J225000D01*
G01*
X178023500Y-125581500D01*
G75*
G02*
X178248500Y-125356500I225000J0D01*
G01*
X178748500Y-125356500D01*
G75*
G02*
X178973500Y-125581500I0J-225000D01*
G01*
X178973500Y-126031500D01*
G75*
G02*
X178748500Y-126256500I-225000J0D01*
G01*
G37*
G36*
G01*
X163834000Y-113215000D02*
X164334000Y-113215000D01*
G75*
G02*
X164559000Y-113440000I0J-225000D01*
G01*
X164559000Y-113890000D01*
G75*
G02*
X164334000Y-114115000I-225000J0D01*
G01*
X163834000Y-114115000D01*
G75*
G02*
X163609000Y-113890000I0J225000D01*
G01*
X163609000Y-113440000D01*
G75*
G02*
X163834000Y-113215000I225000J0D01*
G01*
G37*
G36*
G01*
X163834000Y-111665000D02*
X164334000Y-111665000D01*
G75*
G02*
X164559000Y-111890000I0J-225000D01*
G01*
X164559000Y-112340000D01*
G75*
G02*
X164334000Y-112565000I-225000J0D01*
G01*
X163834000Y-112565000D01*
G75*
G02*
X163609000Y-112340000I0J225000D01*
G01*
X163609000Y-111890000D01*
G75*
G02*
X163834000Y-111665000I225000J0D01*
G01*
G37*
G36*
G01*
X182288000Y-118495000D02*
X182288000Y-118995000D01*
G75*
G02*
X182063000Y-119220000I-225000J0D01*
G01*
X181613000Y-119220000D01*
G75*
G02*
X181388000Y-118995000I0J225000D01*
G01*
X181388000Y-118495000D01*
G75*
G02*
X181613000Y-118270000I225000J0D01*
G01*
X182063000Y-118270000D01*
G75*
G02*
X182288000Y-118495000I0J-225000D01*
G01*
G37*
G36*
G01*
X183838000Y-118495000D02*
X183838000Y-118995000D01*
G75*
G02*
X183613000Y-119220000I-225000J0D01*
G01*
X183163000Y-119220000D01*
G75*
G02*
X182938000Y-118995000I0J225000D01*
G01*
X182938000Y-118495000D01*
G75*
G02*
X183163000Y-118270000I225000J0D01*
G01*
X183613000Y-118270000D01*
G75*
G02*
X183838000Y-118495000I0J-225000D01*
G01*
G37*
G36*
G01*
X157284000Y-125091000D02*
X157284000Y-124591000D01*
G75*
G02*
X157509000Y-124366000I225000J0D01*
G01*
X157959000Y-124366000D01*
G75*
G02*
X158184000Y-124591000I0J-225000D01*
G01*
X158184000Y-125091000D01*
G75*
G02*
X157959000Y-125316000I-225000J0D01*
G01*
X157509000Y-125316000D01*
G75*
G02*
X157284000Y-125091000I0J225000D01*
G01*
G37*
G36*
G01*
X158834000Y-125091000D02*
X158834000Y-124591000D01*
G75*
G02*
X159059000Y-124366000I225000J0D01*
G01*
X159509000Y-124366000D01*
G75*
G02*
X159734000Y-124591000I0J-225000D01*
G01*
X159734000Y-125091000D01*
G75*
G02*
X159509000Y-125316000I-225000J0D01*
G01*
X159059000Y-125316000D01*
G75*
G02*
X158834000Y-125091000I0J225000D01*
G01*
G37*
G36*
G01*
X164842000Y-125291000D02*
X164342000Y-125291000D01*
G75*
G02*
X164117000Y-125066000I0J225000D01*
G01*
X164117000Y-124616000D01*
G75*
G02*
X164342000Y-124391000I225000J0D01*
G01*
X164842000Y-124391000D01*
G75*
G02*
X165067000Y-124616000I0J-225000D01*
G01*
X165067000Y-125066000D01*
G75*
G02*
X164842000Y-125291000I-225000J0D01*
G01*
G37*
G36*
G01*
X164842000Y-123741000D02*
X164342000Y-123741000D01*
G75*
G02*
X164117000Y-123516000I0J225000D01*
G01*
X164117000Y-123066000D01*
G75*
G02*
X164342000Y-122841000I225000J0D01*
G01*
X164842000Y-122841000D01*
G75*
G02*
X165067000Y-123066000I0J-225000D01*
G01*
X165067000Y-123516000D01*
G75*
G02*
X164842000Y-123741000I-225000J0D01*
G01*
G37*
G36*
G01*
X158134000Y-118851000D02*
X158134000Y-119401000D01*
G75*
G02*
X157934000Y-119601000I-200000J0D01*
G01*
X157534000Y-119601000D01*
G75*
G02*
X157334000Y-119401000I0J200000D01*
G01*
X157334000Y-118851000D01*
G75*
G02*
X157534000Y-118651000I200000J0D01*
G01*
X157934000Y-118651000D01*
G75*
G02*
X158134000Y-118851000I0J-200000D01*
G01*
G37*
G36*
G01*
X159784000Y-118851000D02*
X159784000Y-119401000D01*
G75*
G02*
X159584000Y-119601000I-200000J0D01*
G01*
X159184000Y-119601000D01*
G75*
G02*
X158984000Y-119401000I0J200000D01*
G01*
X158984000Y-118851000D01*
G75*
G02*
X159184000Y-118651000I200000J0D01*
G01*
X159584000Y-118651000D01*
G75*
G02*
X159784000Y-118851000I0J-200000D01*
G01*
G37*
G36*
G01*
X154795000Y-121433000D02*
X154795000Y-120883000D01*
G75*
G02*
X154995000Y-120683000I200000J0D01*
G01*
X155395000Y-120683000D01*
G75*
G02*
X155595000Y-120883000I0J-200000D01*
G01*
X155595000Y-121433000D01*
G75*
G02*
X155395000Y-121633000I-200000J0D01*
G01*
X154995000Y-121633000D01*
G75*
G02*
X154795000Y-121433000I0J200000D01*
G01*
G37*
G36*
G01*
X156445000Y-121433000D02*
X156445000Y-120883000D01*
G75*
G02*
X156645000Y-120683000I200000J0D01*
G01*
X157045000Y-120683000D01*
G75*
G02*
X157245000Y-120883000I0J-200000D01*
G01*
X157245000Y-121433000D01*
G75*
G02*
X157045000Y-121633000I-200000J0D01*
G01*
X156645000Y-121633000D01*
G75*
G02*
X156445000Y-121433000I0J200000D01*
G01*
G37*
G36*
G01*
X181844000Y-123973000D02*
X181844000Y-123423000D01*
G75*
G02*
X182044000Y-123223000I200000J0D01*
G01*
X182444000Y-123223000D01*
G75*
G02*
X182644000Y-123423000I0J-200000D01*
G01*
X182644000Y-123973000D01*
G75*
G02*
X182444000Y-124173000I-200000J0D01*
G01*
X182044000Y-124173000D01*
G75*
G02*
X181844000Y-123973000I0J200000D01*
G01*
G37*
G36*
G01*
X180194000Y-123973000D02*
X180194000Y-123423000D01*
G75*
G02*
X180394000Y-123223000I200000J0D01*
G01*
X180794000Y-123223000D01*
G75*
G02*
X180994000Y-123423000I0J-200000D01*
G01*
X180994000Y-123973000D01*
G75*
G02*
X180794000Y-124173000I-200000J0D01*
G01*
X180394000Y-124173000D01*
G75*
G02*
X180194000Y-123973000I0J200000D01*
G01*
G37*
G36*
G01*
X178541000Y-113202000D02*
X179091000Y-113202000D01*
G75*
G02*
X179291000Y-113402000I0J-200000D01*
G01*
X179291000Y-113802000D01*
G75*
G02*
X179091000Y-114002000I-200000J0D01*
G01*
X178541000Y-114002000D01*
G75*
G02*
X178341000Y-113802000I0J200000D01*
G01*
X178341000Y-113402000D01*
G75*
G02*
X178541000Y-113202000I200000J0D01*
G01*
G37*
G36*
G01*
X178541000Y-114852000D02*
X179091000Y-114852000D01*
G75*
G02*
X179291000Y-115052000I0J-200000D01*
G01*
X179291000Y-115452000D01*
G75*
G02*
X179091000Y-115652000I-200000J0D01*
G01*
X178541000Y-115652000D01*
G75*
G02*
X178341000Y-115452000I0J200000D01*
G01*
X178341000Y-115052000D01*
G75*
G02*
X178541000Y-114852000I200000J0D01*
G01*
G37*
G36*
G01*
X182644000Y-121264000D02*
X182644000Y-121814000D01*
G75*
G02*
X182444000Y-122014000I-200000J0D01*
G01*
X182044000Y-122014000D01*
G75*
G02*
X181844000Y-121814000I0J200000D01*
G01*
X181844000Y-121264000D01*
G75*
G02*
X182044000Y-121064000I200000J0D01*
G01*
X182444000Y-121064000D01*
G75*
G02*
X182644000Y-121264000I0J-200000D01*
G01*
G37*
G36*
G01*
X180994000Y-121264000D02*
X180994000Y-121814000D01*
G75*
G02*
X180794000Y-122014000I-200000J0D01*
G01*
X180394000Y-122014000D01*
G75*
G02*
X180194000Y-121814000I0J200000D01*
G01*
X180194000Y-121264000D01*
G75*
G02*
X180394000Y-121064000I200000J0D01*
G01*
X180794000Y-121064000D01*
G75*
G02*
X180994000Y-121264000I0J-200000D01*
G01*
G37*
G36*
G01*
X161438000Y-114191000D02*
X160888000Y-114191000D01*
G75*
G02*
X160688000Y-113991000I0J200000D01*
G01*
X160688000Y-113591000D01*
G75*
G02*
X160888000Y-113391000I200000J0D01*
G01*
X161438000Y-113391000D01*
G75*
G02*
X161638000Y-113591000I0J-200000D01*
G01*
X161638000Y-113991000D01*
G75*
G02*
X161438000Y-114191000I-200000J0D01*
G01*
G37*
G36*
G01*
X161438000Y-112541000D02*
X160888000Y-112541000D01*
G75*
G02*
X160688000Y-112341000I0J200000D01*
G01*
X160688000Y-111941000D01*
G75*
G02*
X160888000Y-111741000I200000J0D01*
G01*
X161438000Y-111741000D01*
G75*
G02*
X161638000Y-111941000I0J-200000D01*
G01*
X161638000Y-112341000D01*
G75*
G02*
X161438000Y-112541000I-200000J0D01*
G01*
G37*
G36*
G01*
X156993000Y-112859000D02*
X156443000Y-112859000D01*
G75*
G02*
X156243000Y-112659000I0J200000D01*
G01*
X156243000Y-112259000D01*
G75*
G02*
X156443000Y-112059000I200000J0D01*
G01*
X156993000Y-112059000D01*
G75*
G02*
X157193000Y-112259000I0J-200000D01*
G01*
X157193000Y-112659000D01*
G75*
G02*
X156993000Y-112859000I-200000J0D01*
G01*
G37*
G36*
G01*
X156993000Y-114509000D02*
X156443000Y-114509000D01*
G75*
G02*
X156243000Y-114309000I0J200000D01*
G01*
X156243000Y-113909000D01*
G75*
G02*
X156443000Y-113709000I200000J0D01*
G01*
X156993000Y-113709000D01*
G75*
G02*
X157193000Y-113909000I0J-200000D01*
G01*
X157193000Y-114309000D01*
G75*
G02*
X156993000Y-114509000I-200000J0D01*
G01*
G37*
G36*
G01*
X159406000Y-123209000D02*
X158856000Y-123209000D01*
G75*
G02*
X158656000Y-123009000I0J200000D01*
G01*
X158656000Y-122609000D01*
G75*
G02*
X158856000Y-122409000I200000J0D01*
G01*
X159406000Y-122409000D01*
G75*
G02*
X159606000Y-122609000I0J-200000D01*
G01*
X159606000Y-123009000D01*
G75*
G02*
X159406000Y-123209000I-200000J0D01*
G01*
G37*
G36*
G01*
X159406000Y-121559000D02*
X158856000Y-121559000D01*
G75*
G02*
X158656000Y-121359000I0J200000D01*
G01*
X158656000Y-120959000D01*
G75*
G02*
X158856000Y-120759000I200000J0D01*
G01*
X159406000Y-120759000D01*
G75*
G02*
X159606000Y-120959000I0J-200000D01*
G01*
X159606000Y-121359000D01*
G75*
G02*
X159406000Y-121559000I-200000J0D01*
G01*
G37*
G36*
G01*
X190225000Y-114662000D02*
X190775000Y-114662000D01*
G75*
G02*
X190975000Y-114862000I0J-200000D01*
G01*
X190975000Y-115262000D01*
G75*
G02*
X190775000Y-115462000I-200000J0D01*
G01*
X190225000Y-115462000D01*
G75*
G02*
X190025000Y-115262000I0J200000D01*
G01*
X190025000Y-114862000D01*
G75*
G02*
X190225000Y-114662000I200000J0D01*
G01*
G37*
G36*
G01*
X190225000Y-113012000D02*
X190775000Y-113012000D01*
G75*
G02*
X190975000Y-113212000I0J-200000D01*
G01*
X190975000Y-113612000D01*
G75*
G02*
X190775000Y-113812000I-200000J0D01*
G01*
X190225000Y-113812000D01*
G75*
G02*
X190025000Y-113612000I0J200000D01*
G01*
X190025000Y-113212000D01*
G75*
G02*
X190225000Y-113012000I200000J0D01*
G01*
G37*
G36*
G01*
X193527000Y-113012000D02*
X194077000Y-113012000D01*
G75*
G02*
X194277000Y-113212000I0J-200000D01*
G01*
X194277000Y-113612000D01*
G75*
G02*
X194077000Y-113812000I-200000J0D01*
G01*
X193527000Y-113812000D01*
G75*
G02*
X193327000Y-113612000I0J200000D01*
G01*
X193327000Y-113212000D01*
G75*
G02*
X193527000Y-113012000I200000J0D01*
G01*
G37*
G36*
G01*
X193527000Y-114662000D02*
X194077000Y-114662000D01*
G75*
G02*
X194277000Y-114862000I0J-200000D01*
G01*
X194277000Y-115262000D01*
G75*
G02*
X194077000Y-115462000I-200000J0D01*
G01*
X193527000Y-115462000D01*
G75*
G02*
X193327000Y-115262000I0J200000D01*
G01*
X193327000Y-114862000D01*
G75*
G02*
X193527000Y-114662000I200000J0D01*
G01*
G37*
G36*
G01*
X195562000Y-115337000D02*
X195562000Y-114787000D01*
G75*
G02*
X195762000Y-114587000I200000J0D01*
G01*
X196162000Y-114587000D01*
G75*
G02*
X196362000Y-114787000I0J-200000D01*
G01*
X196362000Y-115337000D01*
G75*
G02*
X196162000Y-115537000I-200000J0D01*
G01*
X195762000Y-115537000D01*
G75*
G02*
X195562000Y-115337000I0J200000D01*
G01*
G37*
G36*
G01*
X197212000Y-115337000D02*
X197212000Y-114787000D01*
G75*
G02*
X197412000Y-114587000I200000J0D01*
G01*
X197812000Y-114587000D01*
G75*
G02*
X198012000Y-114787000I0J-200000D01*
G01*
X198012000Y-115337000D01*
G75*
G02*
X197812000Y-115537000I-200000J0D01*
G01*
X197412000Y-115537000D01*
G75*
G02*
X197212000Y-115337000I0J200000D01*
G01*
G37*
G36*
G01*
X202291000Y-115337000D02*
X202291000Y-114787000D01*
G75*
G02*
X202491000Y-114587000I200000J0D01*
G01*
X202891000Y-114587000D01*
G75*
G02*
X203091000Y-114787000I0J-200000D01*
G01*
X203091000Y-115337000D01*
G75*
G02*
X202891000Y-115537000I-200000J0D01*
G01*
X202491000Y-115537000D01*
G75*
G02*
X202291000Y-115337000I0J200000D01*
G01*
G37*
G36*
G01*
X200641000Y-115337000D02*
X200641000Y-114787000D01*
G75*
G02*
X200841000Y-114587000I200000J0D01*
G01*
X201241000Y-114587000D01*
G75*
G02*
X201441000Y-114787000I0J-200000D01*
G01*
X201441000Y-115337000D01*
G75*
G02*
X201241000Y-115537000I-200000J0D01*
G01*
X200841000Y-115537000D01*
G75*
G02*
X200641000Y-115337000I0J200000D01*
G01*
G37*
G36*
G01*
X168435000Y-117683000D02*
X168435000Y-117483000D01*
G75*
G02*
X168535000Y-117383000I100000J0D01*
G01*
X169910000Y-117383000D01*
G75*
G02*
X170010000Y-117483000I0J-100000D01*
G01*
X170010000Y-117683000D01*
G75*
G02*
X169910000Y-117783000I-100000J0D01*
G01*
X168535000Y-117783000D01*
G75*
G02*
X168435000Y-117683000I0J100000D01*
G01*
G37*
G36*
G01*
X168435000Y-118333000D02*
X168435000Y-118133000D01*
G75*
G02*
X168535000Y-118033000I100000J0D01*
G01*
X169910000Y-118033000D01*
G75*
G02*
X170010000Y-118133000I0J-100000D01*
G01*
X170010000Y-118333000D01*
G75*
G02*
X169910000Y-118433000I-100000J0D01*
G01*
X168535000Y-118433000D01*
G75*
G02*
X168435000Y-118333000I0J100000D01*
G01*
G37*
G36*
G01*
X168435000Y-118983000D02*
X168435000Y-118783000D01*
G75*
G02*
X168535000Y-118683000I100000J0D01*
G01*
X169910000Y-118683000D01*
G75*
G02*
X170010000Y-118783000I0J-100000D01*
G01*
X170010000Y-118983000D01*
G75*
G02*
X169910000Y-119083000I-100000J0D01*
G01*
X168535000Y-119083000D01*
G75*
G02*
X168435000Y-118983000I0J100000D01*
G01*
G37*
G36*
G01*
X168435000Y-119633000D02*
X168435000Y-119433000D01*
G75*
G02*
X168535000Y-119333000I100000J0D01*
G01*
X169910000Y-119333000D01*
G75*
G02*
X170010000Y-119433000I0J-100000D01*
G01*
X170010000Y-119633000D01*
G75*
G02*
X169910000Y-119733000I-100000J0D01*
G01*
X168535000Y-119733000D01*
G75*
G02*
X168435000Y-119633000I0J100000D01*
G01*
G37*
G36*
G01*
X168435000Y-120283000D02*
X168435000Y-120083000D01*
G75*
G02*
X168535000Y-119983000I100000J0D01*
G01*
X169910000Y-119983000D01*
G75*
G02*
X170010000Y-120083000I0J-100000D01*
G01*
X170010000Y-120283000D01*
G75*
G02*
X169910000Y-120383000I-100000J0D01*
G01*
X168535000Y-120383000D01*
G75*
G02*
X168435000Y-120283000I0J100000D01*
G01*
G37*
G36*
G01*
X168435000Y-120933000D02*
X168435000Y-120733000D01*
G75*
G02*
X168535000Y-120633000I100000J0D01*
G01*
X169910000Y-120633000D01*
G75*
G02*
X170010000Y-120733000I0J-100000D01*
G01*
X170010000Y-120933000D01*
G75*
G02*
X169910000Y-121033000I-100000J0D01*
G01*
X168535000Y-121033000D01*
G75*
G02*
X168435000Y-120933000I0J100000D01*
G01*
G37*
G36*
G01*
X168435000Y-121583000D02*
X168435000Y-121383000D01*
G75*
G02*
X168535000Y-121283000I100000J0D01*
G01*
X169910000Y-121283000D01*
G75*
G02*
X170010000Y-121383000I0J-100000D01*
G01*
X170010000Y-121583000D01*
G75*
G02*
X169910000Y-121683000I-100000J0D01*
G01*
X168535000Y-121683000D01*
G75*
G02*
X168435000Y-121583000I0J100000D01*
G01*
G37*
G36*
G01*
X168435000Y-122233000D02*
X168435000Y-122033000D01*
G75*
G02*
X168535000Y-121933000I100000J0D01*
G01*
X169910000Y-121933000D01*
G75*
G02*
X170010000Y-122033000I0J-100000D01*
G01*
X170010000Y-122233000D01*
G75*
G02*
X169910000Y-122333000I-100000J0D01*
G01*
X168535000Y-122333000D01*
G75*
G02*
X168435000Y-122233000I0J100000D01*
G01*
G37*
G36*
G01*
X168435000Y-122883000D02*
X168435000Y-122683000D01*
G75*
G02*
X168535000Y-122583000I100000J0D01*
G01*
X169910000Y-122583000D01*
G75*
G02*
X170010000Y-122683000I0J-100000D01*
G01*
X170010000Y-122883000D01*
G75*
G02*
X169910000Y-122983000I-100000J0D01*
G01*
X168535000Y-122983000D01*
G75*
G02*
X168435000Y-122883000I0J100000D01*
G01*
G37*
G36*
G01*
X168435000Y-123533000D02*
X168435000Y-123333000D01*
G75*
G02*
X168535000Y-123233000I100000J0D01*
G01*
X169910000Y-123233000D01*
G75*
G02*
X170010000Y-123333000I0J-100000D01*
G01*
X170010000Y-123533000D01*
G75*
G02*
X169910000Y-123633000I-100000J0D01*
G01*
X168535000Y-123633000D01*
G75*
G02*
X168435000Y-123533000I0J100000D01*
G01*
G37*
G36*
G01*
X168435000Y-124183000D02*
X168435000Y-123983000D01*
G75*
G02*
X168535000Y-123883000I100000J0D01*
G01*
X169910000Y-123883000D01*
G75*
G02*
X170010000Y-123983000I0J-100000D01*
G01*
X170010000Y-124183000D01*
G75*
G02*
X169910000Y-124283000I-100000J0D01*
G01*
X168535000Y-124283000D01*
G75*
G02*
X168435000Y-124183000I0J100000D01*
G01*
G37*
G36*
G01*
X168435000Y-124833000D02*
X168435000Y-124633000D01*
G75*
G02*
X168535000Y-124533000I100000J0D01*
G01*
X169910000Y-124533000D01*
G75*
G02*
X170010000Y-124633000I0J-100000D01*
G01*
X170010000Y-124833000D01*
G75*
G02*
X169910000Y-124933000I-100000J0D01*
G01*
X168535000Y-124933000D01*
G75*
G02*
X168435000Y-124833000I0J100000D01*
G01*
G37*
G36*
G01*
X174160000Y-124833000D02*
X174160000Y-124633000D01*
G75*
G02*
X174260000Y-124533000I100000J0D01*
G01*
X175635000Y-124533000D01*
G75*
G02*
X175735000Y-124633000I0J-100000D01*
G01*
X175735000Y-124833000D01*
G75*
G02*
X175635000Y-124933000I-100000J0D01*
G01*
X174260000Y-124933000D01*
G75*
G02*
X174160000Y-124833000I0J100000D01*
G01*
G37*
G36*
G01*
X174160000Y-124183000D02*
X174160000Y-123983000D01*
G75*
G02*
X174260000Y-123883000I100000J0D01*
G01*
X175635000Y-123883000D01*
G75*
G02*
X175735000Y-123983000I0J-100000D01*
G01*
X175735000Y-124183000D01*
G75*
G02*
X175635000Y-124283000I-100000J0D01*
G01*
X174260000Y-124283000D01*
G75*
G02*
X174160000Y-124183000I0J100000D01*
G01*
G37*
G36*
G01*
X174160000Y-123533000D02*
X174160000Y-123333000D01*
G75*
G02*
X174260000Y-123233000I100000J0D01*
G01*
X175635000Y-123233000D01*
G75*
G02*
X175735000Y-123333000I0J-100000D01*
G01*
X175735000Y-123533000D01*
G75*
G02*
X175635000Y-123633000I-100000J0D01*
G01*
X174260000Y-123633000D01*
G75*
G02*
X174160000Y-123533000I0J100000D01*
G01*
G37*
G36*
G01*
X174160000Y-122883000D02*
X174160000Y-122683000D01*
G75*
G02*
X174260000Y-122583000I100000J0D01*
G01*
X175635000Y-122583000D01*
G75*
G02*
X175735000Y-122683000I0J-100000D01*
G01*
X175735000Y-122883000D01*
G75*
G02*
X175635000Y-122983000I-100000J0D01*
G01*
X174260000Y-122983000D01*
G75*
G02*
X174160000Y-122883000I0J100000D01*
G01*
G37*
G36*
G01*
X174160000Y-122233000D02*
X174160000Y-122033000D01*
G75*
G02*
X174260000Y-121933000I100000J0D01*
G01*
X175635000Y-121933000D01*
G75*
G02*
X175735000Y-122033000I0J-100000D01*
G01*
X175735000Y-122233000D01*
G75*
G02*
X175635000Y-122333000I-100000J0D01*
G01*
X174260000Y-122333000D01*
G75*
G02*
X174160000Y-122233000I0J100000D01*
G01*
G37*
G36*
G01*
X174160000Y-121583000D02*
X174160000Y-121383000D01*
G75*
G02*
X174260000Y-121283000I100000J0D01*
G01*
X175635000Y-121283000D01*
G75*
G02*
X175735000Y-121383000I0J-100000D01*
G01*
X175735000Y-121583000D01*
G75*
G02*
X175635000Y-121683000I-100000J0D01*
G01*
X174260000Y-121683000D01*
G75*
G02*
X174160000Y-121583000I0J100000D01*
G01*
G37*
G36*
G01*
X174160000Y-120933000D02*
X174160000Y-120733000D01*
G75*
G02*
X174260000Y-120633000I100000J0D01*
G01*
X175635000Y-120633000D01*
G75*
G02*
X175735000Y-120733000I0J-100000D01*
G01*
X175735000Y-120933000D01*
G75*
G02*
X175635000Y-121033000I-100000J0D01*
G01*
X174260000Y-121033000D01*
G75*
G02*
X174160000Y-120933000I0J100000D01*
G01*
G37*
G36*
G01*
X174160000Y-120283000D02*
X174160000Y-120083000D01*
G75*
G02*
X174260000Y-119983000I100000J0D01*
G01*
X175635000Y-119983000D01*
G75*
G02*
X175735000Y-120083000I0J-100000D01*
G01*
X175735000Y-120283000D01*
G75*
G02*
X175635000Y-120383000I-100000J0D01*
G01*
X174260000Y-120383000D01*
G75*
G02*
X174160000Y-120283000I0J100000D01*
G01*
G37*
G36*
G01*
X174160000Y-119633000D02*
X174160000Y-119433000D01*
G75*
G02*
X174260000Y-119333000I100000J0D01*
G01*
X175635000Y-119333000D01*
G75*
G02*
X175735000Y-119433000I0J-100000D01*
G01*
X175735000Y-119633000D01*
G75*
G02*
X175635000Y-119733000I-100000J0D01*
G01*
X174260000Y-119733000D01*
G75*
G02*
X174160000Y-119633000I0J100000D01*
G01*
G37*
G36*
G01*
X174160000Y-118983000D02*
X174160000Y-118783000D01*
G75*
G02*
X174260000Y-118683000I100000J0D01*
G01*
X175635000Y-118683000D01*
G75*
G02*
X175735000Y-118783000I0J-100000D01*
G01*
X175735000Y-118983000D01*
G75*
G02*
X175635000Y-119083000I-100000J0D01*
G01*
X174260000Y-119083000D01*
G75*
G02*
X174160000Y-118983000I0J100000D01*
G01*
G37*
G36*
G01*
X174160000Y-118333000D02*
X174160000Y-118133000D01*
G75*
G02*
X174260000Y-118033000I100000J0D01*
G01*
X175635000Y-118033000D01*
G75*
G02*
X175735000Y-118133000I0J-100000D01*
G01*
X175735000Y-118333000D01*
G75*
G02*
X175635000Y-118433000I-100000J0D01*
G01*
X174260000Y-118433000D01*
G75*
G02*
X174160000Y-118333000I0J100000D01*
G01*
G37*
G36*
G01*
X174160000Y-117683000D02*
X174160000Y-117483000D01*
G75*
G02*
X174260000Y-117383000I100000J0D01*
G01*
X175635000Y-117383000D01*
G75*
G02*
X175735000Y-117483000I0J-100000D01*
G01*
X175735000Y-117683000D01*
G75*
G02*
X175635000Y-117783000I-100000J0D01*
G01*
X174260000Y-117783000D01*
G75*
G02*
X174160000Y-117683000I0J100000D01*
G01*
G37*
G36*
G01*
X171120000Y-120683001D02*
X171120000Y-119292999D01*
G75*
G02*
X171369999Y-119043000I249999J0D01*
G01*
X172800001Y-119043000D01*
G75*
G02*
X173050000Y-119292999I0J-249999D01*
G01*
X173050000Y-120683001D01*
G75*
G02*
X172800001Y-120933000I-249999J0D01*
G01*
X171369999Y-120933000D01*
G75*
G02*
X171120000Y-120683001I0J249999D01*
G01*
G37*
G36*
G01*
X171120000Y-123023001D02*
X171120000Y-121632999D01*
G75*
G02*
X171369999Y-121383000I249999J0D01*
G01*
X172800001Y-121383000D01*
G75*
G02*
X173050000Y-121632999I0J-249999D01*
G01*
X173050000Y-123023001D01*
G75*
G02*
X172800001Y-123273000I-249999J0D01*
G01*
X171369999Y-123273000D01*
G75*
G02*
X171120000Y-123023001I0J249999D01*
G01*
G37*
M02*
