G04 #@! TF.GenerationSoftware,KiCad,Pcbnew,(5.1.8)-1*
G04 #@! TF.CreationDate,2021-02-01T15:09:40-08:00*
G04 #@! TF.ProjectId,Modular_single_driver_Driver,4d6f6475-6c61-4725-9f73-696e676c655f,rev?*
G04 #@! TF.SameCoordinates,Original*
G04 #@! TF.FileFunction,Soldermask,Top*
G04 #@! TF.FilePolarity,Negative*
%FSLAX46Y46*%
G04 Gerber Fmt 4.6, Leading zero omitted, Abs format (unit mm)*
G04 Created by KiCad (PCBNEW (5.1.8)-1) date 2021-02-01 15:09:40*
%MOMM*%
%LPD*%
G01*
G04 APERTURE LIST*
%ADD10O,1.800000X1.800000*%
%ADD11C,1.320000*%
%ADD12R,2.400000X4.680000*%
G04 APERTURE END LIST*
D10*
X169291000Y-111379000D03*
X171831000Y-111379000D03*
G36*
G01*
X173521000Y-110479000D02*
X175221000Y-110479000D01*
G75*
G02*
X175271000Y-110529000I0J-50000D01*
G01*
X175271000Y-112229000D01*
G75*
G02*
X175221000Y-112279000I-50000J0D01*
G01*
X173521000Y-112279000D01*
G75*
G02*
X173471000Y-112229000I0J50000D01*
G01*
X173471000Y-110529000D01*
G75*
G02*
X173521000Y-110479000I50000J0D01*
G01*
G37*
G36*
G01*
X178773500Y-124756500D02*
X178223500Y-124756500D01*
G75*
G02*
X177973500Y-124506500I0J250000D01*
G01*
X177973500Y-124006500D01*
G75*
G02*
X178223500Y-123756500I250000J0D01*
G01*
X178773500Y-123756500D01*
G75*
G02*
X179023500Y-124006500I0J-250000D01*
G01*
X179023500Y-124506500D01*
G75*
G02*
X178773500Y-124756500I-250000J0D01*
G01*
G37*
G36*
G01*
X178773500Y-126306500D02*
X178223500Y-126306500D01*
G75*
G02*
X177973500Y-126056500I0J250000D01*
G01*
X177973500Y-125556500D01*
G75*
G02*
X178223500Y-125306500I250000J0D01*
G01*
X178773500Y-125306500D01*
G75*
G02*
X179023500Y-125556500I0J-250000D01*
G01*
X179023500Y-126056500D01*
G75*
G02*
X178773500Y-126306500I-250000J0D01*
G01*
G37*
G36*
G01*
X163809000Y-113165000D02*
X164359000Y-113165000D01*
G75*
G02*
X164609000Y-113415000I0J-250000D01*
G01*
X164609000Y-113915000D01*
G75*
G02*
X164359000Y-114165000I-250000J0D01*
G01*
X163809000Y-114165000D01*
G75*
G02*
X163559000Y-113915000I0J250000D01*
G01*
X163559000Y-113415000D01*
G75*
G02*
X163809000Y-113165000I250000J0D01*
G01*
G37*
G36*
G01*
X163809000Y-111615000D02*
X164359000Y-111615000D01*
G75*
G02*
X164609000Y-111865000I0J-250000D01*
G01*
X164609000Y-112365000D01*
G75*
G02*
X164359000Y-112615000I-250000J0D01*
G01*
X163809000Y-112615000D01*
G75*
G02*
X163559000Y-112365000I0J250000D01*
G01*
X163559000Y-111865000D01*
G75*
G02*
X163809000Y-111615000I250000J0D01*
G01*
G37*
G36*
G01*
X182338000Y-118470000D02*
X182338000Y-119020000D01*
G75*
G02*
X182088000Y-119270000I-250000J0D01*
G01*
X181588000Y-119270000D01*
G75*
G02*
X181338000Y-119020000I0J250000D01*
G01*
X181338000Y-118470000D01*
G75*
G02*
X181588000Y-118220000I250000J0D01*
G01*
X182088000Y-118220000D01*
G75*
G02*
X182338000Y-118470000I0J-250000D01*
G01*
G37*
G36*
G01*
X183888000Y-118470000D02*
X183888000Y-119020000D01*
G75*
G02*
X183638000Y-119270000I-250000J0D01*
G01*
X183138000Y-119270000D01*
G75*
G02*
X182888000Y-119020000I0J250000D01*
G01*
X182888000Y-118470000D01*
G75*
G02*
X183138000Y-118220000I250000J0D01*
G01*
X183638000Y-118220000D01*
G75*
G02*
X183888000Y-118470000I0J-250000D01*
G01*
G37*
G36*
G01*
X157234000Y-125116000D02*
X157234000Y-124566000D01*
G75*
G02*
X157484000Y-124316000I250000J0D01*
G01*
X157984000Y-124316000D01*
G75*
G02*
X158234000Y-124566000I0J-250000D01*
G01*
X158234000Y-125116000D01*
G75*
G02*
X157984000Y-125366000I-250000J0D01*
G01*
X157484000Y-125366000D01*
G75*
G02*
X157234000Y-125116000I0J250000D01*
G01*
G37*
G36*
G01*
X158784000Y-125116000D02*
X158784000Y-124566000D01*
G75*
G02*
X159034000Y-124316000I250000J0D01*
G01*
X159534000Y-124316000D01*
G75*
G02*
X159784000Y-124566000I0J-250000D01*
G01*
X159784000Y-125116000D01*
G75*
G02*
X159534000Y-125366000I-250000J0D01*
G01*
X159034000Y-125366000D01*
G75*
G02*
X158784000Y-125116000I0J250000D01*
G01*
G37*
G36*
G01*
X164867000Y-125341000D02*
X164317000Y-125341000D01*
G75*
G02*
X164067000Y-125091000I0J250000D01*
G01*
X164067000Y-124591000D01*
G75*
G02*
X164317000Y-124341000I250000J0D01*
G01*
X164867000Y-124341000D01*
G75*
G02*
X165117000Y-124591000I0J-250000D01*
G01*
X165117000Y-125091000D01*
G75*
G02*
X164867000Y-125341000I-250000J0D01*
G01*
G37*
G36*
G01*
X164867000Y-123791000D02*
X164317000Y-123791000D01*
G75*
G02*
X164067000Y-123541000I0J250000D01*
G01*
X164067000Y-123041000D01*
G75*
G02*
X164317000Y-122791000I250000J0D01*
G01*
X164867000Y-122791000D01*
G75*
G02*
X165117000Y-123041000I0J-250000D01*
G01*
X165117000Y-123541000D01*
G75*
G02*
X164867000Y-123791000I-250000J0D01*
G01*
G37*
G36*
G01*
X188711000Y-107704001D02*
X188711000Y-106004001D01*
G75*
G02*
X188761000Y-105954001I50000J0D01*
G01*
X190461000Y-105954001D01*
G75*
G02*
X190511000Y-106004001I0J-50000D01*
G01*
X190511000Y-107704001D01*
G75*
G02*
X190461000Y-107754001I-50000J0D01*
G01*
X188761000Y-107754001D01*
G75*
G02*
X188711000Y-107704001I0J50000D01*
G01*
G37*
X192151000Y-106854001D03*
X189611000Y-109394001D03*
X192151000Y-109394001D03*
G36*
G01*
X150992000Y-107784000D02*
X150992000Y-106084000D01*
G75*
G02*
X151042000Y-106034000I50000J0D01*
G01*
X152742000Y-106034000D01*
G75*
G02*
X152792000Y-106084000I0J-50000D01*
G01*
X152792000Y-107784000D01*
G75*
G02*
X152742000Y-107834000I-50000J0D01*
G01*
X151042000Y-107834000D01*
G75*
G02*
X150992000Y-107784000I0J50000D01*
G01*
G37*
X151892000Y-109474000D03*
X151892000Y-112014000D03*
X151892000Y-114554000D03*
X151892000Y-117094000D03*
X151892000Y-119634000D03*
X151892000Y-122174000D03*
X151892000Y-124714000D03*
G36*
G01*
X173521000Y-105907000D02*
X175221000Y-105907000D01*
G75*
G02*
X175271000Y-105957000I0J-50000D01*
G01*
X175271000Y-107657000D01*
G75*
G02*
X175221000Y-107707000I-50000J0D01*
G01*
X173521000Y-107707000D01*
G75*
G02*
X173471000Y-107657000I0J50000D01*
G01*
X173471000Y-105957000D01*
G75*
G02*
X173521000Y-105907000I50000J0D01*
G01*
G37*
X171831000Y-106807000D03*
X169291000Y-106807000D03*
G36*
G01*
X158184000Y-118826000D02*
X158184000Y-119426000D01*
G75*
G02*
X157959000Y-119651000I-225000J0D01*
G01*
X157509000Y-119651000D01*
G75*
G02*
X157284000Y-119426000I0J225000D01*
G01*
X157284000Y-118826000D01*
G75*
G02*
X157509000Y-118601000I225000J0D01*
G01*
X157959000Y-118601000D01*
G75*
G02*
X158184000Y-118826000I0J-225000D01*
G01*
G37*
G36*
G01*
X159834000Y-118826000D02*
X159834000Y-119426000D01*
G75*
G02*
X159609000Y-119651000I-225000J0D01*
G01*
X159159000Y-119651000D01*
G75*
G02*
X158934000Y-119426000I0J225000D01*
G01*
X158934000Y-118826000D01*
G75*
G02*
X159159000Y-118601000I225000J0D01*
G01*
X159609000Y-118601000D01*
G75*
G02*
X159834000Y-118826000I0J-225000D01*
G01*
G37*
G36*
G01*
X154745000Y-121458000D02*
X154745000Y-120858000D01*
G75*
G02*
X154970000Y-120633000I225000J0D01*
G01*
X155420000Y-120633000D01*
G75*
G02*
X155645000Y-120858000I0J-225000D01*
G01*
X155645000Y-121458000D01*
G75*
G02*
X155420000Y-121683000I-225000J0D01*
G01*
X154970000Y-121683000D01*
G75*
G02*
X154745000Y-121458000I0J225000D01*
G01*
G37*
G36*
G01*
X156395000Y-121458000D02*
X156395000Y-120858000D01*
G75*
G02*
X156620000Y-120633000I225000J0D01*
G01*
X157070000Y-120633000D01*
G75*
G02*
X157295000Y-120858000I0J-225000D01*
G01*
X157295000Y-121458000D01*
G75*
G02*
X157070000Y-121683000I-225000J0D01*
G01*
X156620000Y-121683000D01*
G75*
G02*
X156395000Y-121458000I0J225000D01*
G01*
G37*
G36*
G01*
X181794000Y-123998000D02*
X181794000Y-123398000D01*
G75*
G02*
X182019000Y-123173000I225000J0D01*
G01*
X182469000Y-123173000D01*
G75*
G02*
X182694000Y-123398000I0J-225000D01*
G01*
X182694000Y-123998000D01*
G75*
G02*
X182469000Y-124223000I-225000J0D01*
G01*
X182019000Y-124223000D01*
G75*
G02*
X181794000Y-123998000I0J225000D01*
G01*
G37*
G36*
G01*
X180144000Y-123998000D02*
X180144000Y-123398000D01*
G75*
G02*
X180369000Y-123173000I225000J0D01*
G01*
X180819000Y-123173000D01*
G75*
G02*
X181044000Y-123398000I0J-225000D01*
G01*
X181044000Y-123998000D01*
G75*
G02*
X180819000Y-124223000I-225000J0D01*
G01*
X180369000Y-124223000D01*
G75*
G02*
X180144000Y-123998000I0J225000D01*
G01*
G37*
G36*
G01*
X178516000Y-113152000D02*
X179116000Y-113152000D01*
G75*
G02*
X179341000Y-113377000I0J-225000D01*
G01*
X179341000Y-113827000D01*
G75*
G02*
X179116000Y-114052000I-225000J0D01*
G01*
X178516000Y-114052000D01*
G75*
G02*
X178291000Y-113827000I0J225000D01*
G01*
X178291000Y-113377000D01*
G75*
G02*
X178516000Y-113152000I225000J0D01*
G01*
G37*
G36*
G01*
X178516000Y-114802000D02*
X179116000Y-114802000D01*
G75*
G02*
X179341000Y-115027000I0J-225000D01*
G01*
X179341000Y-115477000D01*
G75*
G02*
X179116000Y-115702000I-225000J0D01*
G01*
X178516000Y-115702000D01*
G75*
G02*
X178291000Y-115477000I0J225000D01*
G01*
X178291000Y-115027000D01*
G75*
G02*
X178516000Y-114802000I225000J0D01*
G01*
G37*
G36*
G01*
X182694000Y-121239000D02*
X182694000Y-121839000D01*
G75*
G02*
X182469000Y-122064000I-225000J0D01*
G01*
X182019000Y-122064000D01*
G75*
G02*
X181794000Y-121839000I0J225000D01*
G01*
X181794000Y-121239000D01*
G75*
G02*
X182019000Y-121014000I225000J0D01*
G01*
X182469000Y-121014000D01*
G75*
G02*
X182694000Y-121239000I0J-225000D01*
G01*
G37*
G36*
G01*
X181044000Y-121239000D02*
X181044000Y-121839000D01*
G75*
G02*
X180819000Y-122064000I-225000J0D01*
G01*
X180369000Y-122064000D01*
G75*
G02*
X180144000Y-121839000I0J225000D01*
G01*
X180144000Y-121239000D01*
G75*
G02*
X180369000Y-121014000I225000J0D01*
G01*
X180819000Y-121014000D01*
G75*
G02*
X181044000Y-121239000I0J-225000D01*
G01*
G37*
G36*
G01*
X161463000Y-114241000D02*
X160863000Y-114241000D01*
G75*
G02*
X160638000Y-114016000I0J225000D01*
G01*
X160638000Y-113566000D01*
G75*
G02*
X160863000Y-113341000I225000J0D01*
G01*
X161463000Y-113341000D01*
G75*
G02*
X161688000Y-113566000I0J-225000D01*
G01*
X161688000Y-114016000D01*
G75*
G02*
X161463000Y-114241000I-225000J0D01*
G01*
G37*
G36*
G01*
X161463000Y-112591000D02*
X160863000Y-112591000D01*
G75*
G02*
X160638000Y-112366000I0J225000D01*
G01*
X160638000Y-111916000D01*
G75*
G02*
X160863000Y-111691000I225000J0D01*
G01*
X161463000Y-111691000D01*
G75*
G02*
X161688000Y-111916000I0J-225000D01*
G01*
X161688000Y-112366000D01*
G75*
G02*
X161463000Y-112591000I-225000J0D01*
G01*
G37*
G36*
G01*
X157018000Y-112909000D02*
X156418000Y-112909000D01*
G75*
G02*
X156193000Y-112684000I0J225000D01*
G01*
X156193000Y-112234000D01*
G75*
G02*
X156418000Y-112009000I225000J0D01*
G01*
X157018000Y-112009000D01*
G75*
G02*
X157243000Y-112234000I0J-225000D01*
G01*
X157243000Y-112684000D01*
G75*
G02*
X157018000Y-112909000I-225000J0D01*
G01*
G37*
G36*
G01*
X157018000Y-114559000D02*
X156418000Y-114559000D01*
G75*
G02*
X156193000Y-114334000I0J225000D01*
G01*
X156193000Y-113884000D01*
G75*
G02*
X156418000Y-113659000I225000J0D01*
G01*
X157018000Y-113659000D01*
G75*
G02*
X157243000Y-113884000I0J-225000D01*
G01*
X157243000Y-114334000D01*
G75*
G02*
X157018000Y-114559000I-225000J0D01*
G01*
G37*
G36*
G01*
X159431000Y-123259000D02*
X158831000Y-123259000D01*
G75*
G02*
X158606000Y-123034000I0J225000D01*
G01*
X158606000Y-122584000D01*
G75*
G02*
X158831000Y-122359000I225000J0D01*
G01*
X159431000Y-122359000D01*
G75*
G02*
X159656000Y-122584000I0J-225000D01*
G01*
X159656000Y-123034000D01*
G75*
G02*
X159431000Y-123259000I-225000J0D01*
G01*
G37*
G36*
G01*
X159431000Y-121609000D02*
X158831000Y-121609000D01*
G75*
G02*
X158606000Y-121384000I0J225000D01*
G01*
X158606000Y-120934000D01*
G75*
G02*
X158831000Y-120709000I225000J0D01*
G01*
X159431000Y-120709000D01*
G75*
G02*
X159656000Y-120934000I0J-225000D01*
G01*
X159656000Y-121384000D01*
G75*
G02*
X159431000Y-121609000I-225000J0D01*
G01*
G37*
G36*
G01*
X190200000Y-114612000D02*
X190800000Y-114612000D01*
G75*
G02*
X191025000Y-114837000I0J-225000D01*
G01*
X191025000Y-115287000D01*
G75*
G02*
X190800000Y-115512000I-225000J0D01*
G01*
X190200000Y-115512000D01*
G75*
G02*
X189975000Y-115287000I0J225000D01*
G01*
X189975000Y-114837000D01*
G75*
G02*
X190200000Y-114612000I225000J0D01*
G01*
G37*
G36*
G01*
X190200000Y-112962000D02*
X190800000Y-112962000D01*
G75*
G02*
X191025000Y-113187000I0J-225000D01*
G01*
X191025000Y-113637000D01*
G75*
G02*
X190800000Y-113862000I-225000J0D01*
G01*
X190200000Y-113862000D01*
G75*
G02*
X189975000Y-113637000I0J225000D01*
G01*
X189975000Y-113187000D01*
G75*
G02*
X190200000Y-112962000I225000J0D01*
G01*
G37*
G36*
G01*
X193502000Y-112962000D02*
X194102000Y-112962000D01*
G75*
G02*
X194327000Y-113187000I0J-225000D01*
G01*
X194327000Y-113637000D01*
G75*
G02*
X194102000Y-113862000I-225000J0D01*
G01*
X193502000Y-113862000D01*
G75*
G02*
X193277000Y-113637000I0J225000D01*
G01*
X193277000Y-113187000D01*
G75*
G02*
X193502000Y-112962000I225000J0D01*
G01*
G37*
G36*
G01*
X193502000Y-114612000D02*
X194102000Y-114612000D01*
G75*
G02*
X194327000Y-114837000I0J-225000D01*
G01*
X194327000Y-115287000D01*
G75*
G02*
X194102000Y-115512000I-225000J0D01*
G01*
X193502000Y-115512000D01*
G75*
G02*
X193277000Y-115287000I0J225000D01*
G01*
X193277000Y-114837000D01*
G75*
G02*
X193502000Y-114612000I225000J0D01*
G01*
G37*
G36*
G01*
X195512000Y-115362000D02*
X195512000Y-114762000D01*
G75*
G02*
X195737000Y-114537000I225000J0D01*
G01*
X196187000Y-114537000D01*
G75*
G02*
X196412000Y-114762000I0J-225000D01*
G01*
X196412000Y-115362000D01*
G75*
G02*
X196187000Y-115587000I-225000J0D01*
G01*
X195737000Y-115587000D01*
G75*
G02*
X195512000Y-115362000I0J225000D01*
G01*
G37*
G36*
G01*
X197162000Y-115362000D02*
X197162000Y-114762000D01*
G75*
G02*
X197387000Y-114537000I225000J0D01*
G01*
X197837000Y-114537000D01*
G75*
G02*
X198062000Y-114762000I0J-225000D01*
G01*
X198062000Y-115362000D01*
G75*
G02*
X197837000Y-115587000I-225000J0D01*
G01*
X197387000Y-115587000D01*
G75*
G02*
X197162000Y-115362000I0J225000D01*
G01*
G37*
G36*
G01*
X202241000Y-115362000D02*
X202241000Y-114762000D01*
G75*
G02*
X202466000Y-114537000I225000J0D01*
G01*
X202916000Y-114537000D01*
G75*
G02*
X203141000Y-114762000I0J-225000D01*
G01*
X203141000Y-115362000D01*
G75*
G02*
X202916000Y-115587000I-225000J0D01*
G01*
X202466000Y-115587000D01*
G75*
G02*
X202241000Y-115362000I0J225000D01*
G01*
G37*
G36*
G01*
X200591000Y-115362000D02*
X200591000Y-114762000D01*
G75*
G02*
X200816000Y-114537000I225000J0D01*
G01*
X201266000Y-114537000D01*
G75*
G02*
X201491000Y-114762000I0J-225000D01*
G01*
X201491000Y-115362000D01*
G75*
G02*
X201266000Y-115587000I-225000J0D01*
G01*
X200816000Y-115587000D01*
G75*
G02*
X200591000Y-115362000I0J225000D01*
G01*
G37*
G36*
G01*
X193142000Y-125628000D02*
X191922000Y-125628000D01*
G75*
G02*
X191872000Y-125578000I0J50000D01*
G01*
X191872000Y-124358000D01*
G75*
G02*
X191922000Y-124308000I50000J0D01*
G01*
X193142000Y-124308000D01*
G75*
G02*
X193192000Y-124358000I0J-50000D01*
G01*
X193192000Y-125578000D01*
G75*
G02*
X193142000Y-125628000I-50000J0D01*
G01*
G37*
D11*
X195072000Y-124968000D03*
X197612000Y-124968000D03*
X200152000Y-124968000D03*
X202692000Y-124968000D03*
X205232000Y-124968000D03*
X205232000Y-117348000D03*
X202692000Y-117348000D03*
X200152000Y-117348000D03*
X197612000Y-117348000D03*
X195072000Y-117348000D03*
X192532000Y-117348000D03*
G36*
G01*
X168385000Y-117708000D02*
X168385000Y-117458000D01*
G75*
G02*
X168510000Y-117333000I125000J0D01*
G01*
X169935000Y-117333000D01*
G75*
G02*
X170060000Y-117458000I0J-125000D01*
G01*
X170060000Y-117708000D01*
G75*
G02*
X169935000Y-117833000I-125000J0D01*
G01*
X168510000Y-117833000D01*
G75*
G02*
X168385000Y-117708000I0J125000D01*
G01*
G37*
G36*
G01*
X168385000Y-118358000D02*
X168385000Y-118108000D01*
G75*
G02*
X168510000Y-117983000I125000J0D01*
G01*
X169935000Y-117983000D01*
G75*
G02*
X170060000Y-118108000I0J-125000D01*
G01*
X170060000Y-118358000D01*
G75*
G02*
X169935000Y-118483000I-125000J0D01*
G01*
X168510000Y-118483000D01*
G75*
G02*
X168385000Y-118358000I0J125000D01*
G01*
G37*
G36*
G01*
X168385000Y-119008000D02*
X168385000Y-118758000D01*
G75*
G02*
X168510000Y-118633000I125000J0D01*
G01*
X169935000Y-118633000D01*
G75*
G02*
X170060000Y-118758000I0J-125000D01*
G01*
X170060000Y-119008000D01*
G75*
G02*
X169935000Y-119133000I-125000J0D01*
G01*
X168510000Y-119133000D01*
G75*
G02*
X168385000Y-119008000I0J125000D01*
G01*
G37*
G36*
G01*
X168385000Y-119658000D02*
X168385000Y-119408000D01*
G75*
G02*
X168510000Y-119283000I125000J0D01*
G01*
X169935000Y-119283000D01*
G75*
G02*
X170060000Y-119408000I0J-125000D01*
G01*
X170060000Y-119658000D01*
G75*
G02*
X169935000Y-119783000I-125000J0D01*
G01*
X168510000Y-119783000D01*
G75*
G02*
X168385000Y-119658000I0J125000D01*
G01*
G37*
G36*
G01*
X168385000Y-120308000D02*
X168385000Y-120058000D01*
G75*
G02*
X168510000Y-119933000I125000J0D01*
G01*
X169935000Y-119933000D01*
G75*
G02*
X170060000Y-120058000I0J-125000D01*
G01*
X170060000Y-120308000D01*
G75*
G02*
X169935000Y-120433000I-125000J0D01*
G01*
X168510000Y-120433000D01*
G75*
G02*
X168385000Y-120308000I0J125000D01*
G01*
G37*
G36*
G01*
X168385000Y-120958000D02*
X168385000Y-120708000D01*
G75*
G02*
X168510000Y-120583000I125000J0D01*
G01*
X169935000Y-120583000D01*
G75*
G02*
X170060000Y-120708000I0J-125000D01*
G01*
X170060000Y-120958000D01*
G75*
G02*
X169935000Y-121083000I-125000J0D01*
G01*
X168510000Y-121083000D01*
G75*
G02*
X168385000Y-120958000I0J125000D01*
G01*
G37*
G36*
G01*
X168385000Y-121608000D02*
X168385000Y-121358000D01*
G75*
G02*
X168510000Y-121233000I125000J0D01*
G01*
X169935000Y-121233000D01*
G75*
G02*
X170060000Y-121358000I0J-125000D01*
G01*
X170060000Y-121608000D01*
G75*
G02*
X169935000Y-121733000I-125000J0D01*
G01*
X168510000Y-121733000D01*
G75*
G02*
X168385000Y-121608000I0J125000D01*
G01*
G37*
G36*
G01*
X168385000Y-122258000D02*
X168385000Y-122008000D01*
G75*
G02*
X168510000Y-121883000I125000J0D01*
G01*
X169935000Y-121883000D01*
G75*
G02*
X170060000Y-122008000I0J-125000D01*
G01*
X170060000Y-122258000D01*
G75*
G02*
X169935000Y-122383000I-125000J0D01*
G01*
X168510000Y-122383000D01*
G75*
G02*
X168385000Y-122258000I0J125000D01*
G01*
G37*
G36*
G01*
X168385000Y-122908000D02*
X168385000Y-122658000D01*
G75*
G02*
X168510000Y-122533000I125000J0D01*
G01*
X169935000Y-122533000D01*
G75*
G02*
X170060000Y-122658000I0J-125000D01*
G01*
X170060000Y-122908000D01*
G75*
G02*
X169935000Y-123033000I-125000J0D01*
G01*
X168510000Y-123033000D01*
G75*
G02*
X168385000Y-122908000I0J125000D01*
G01*
G37*
G36*
G01*
X168385000Y-123558000D02*
X168385000Y-123308000D01*
G75*
G02*
X168510000Y-123183000I125000J0D01*
G01*
X169935000Y-123183000D01*
G75*
G02*
X170060000Y-123308000I0J-125000D01*
G01*
X170060000Y-123558000D01*
G75*
G02*
X169935000Y-123683000I-125000J0D01*
G01*
X168510000Y-123683000D01*
G75*
G02*
X168385000Y-123558000I0J125000D01*
G01*
G37*
G36*
G01*
X168385000Y-124208000D02*
X168385000Y-123958000D01*
G75*
G02*
X168510000Y-123833000I125000J0D01*
G01*
X169935000Y-123833000D01*
G75*
G02*
X170060000Y-123958000I0J-125000D01*
G01*
X170060000Y-124208000D01*
G75*
G02*
X169935000Y-124333000I-125000J0D01*
G01*
X168510000Y-124333000D01*
G75*
G02*
X168385000Y-124208000I0J125000D01*
G01*
G37*
G36*
G01*
X168385000Y-124858000D02*
X168385000Y-124608000D01*
G75*
G02*
X168510000Y-124483000I125000J0D01*
G01*
X169935000Y-124483000D01*
G75*
G02*
X170060000Y-124608000I0J-125000D01*
G01*
X170060000Y-124858000D01*
G75*
G02*
X169935000Y-124983000I-125000J0D01*
G01*
X168510000Y-124983000D01*
G75*
G02*
X168385000Y-124858000I0J125000D01*
G01*
G37*
G36*
G01*
X174110000Y-124858000D02*
X174110000Y-124608000D01*
G75*
G02*
X174235000Y-124483000I125000J0D01*
G01*
X175660000Y-124483000D01*
G75*
G02*
X175785000Y-124608000I0J-125000D01*
G01*
X175785000Y-124858000D01*
G75*
G02*
X175660000Y-124983000I-125000J0D01*
G01*
X174235000Y-124983000D01*
G75*
G02*
X174110000Y-124858000I0J125000D01*
G01*
G37*
G36*
G01*
X174110000Y-124208000D02*
X174110000Y-123958000D01*
G75*
G02*
X174235000Y-123833000I125000J0D01*
G01*
X175660000Y-123833000D01*
G75*
G02*
X175785000Y-123958000I0J-125000D01*
G01*
X175785000Y-124208000D01*
G75*
G02*
X175660000Y-124333000I-125000J0D01*
G01*
X174235000Y-124333000D01*
G75*
G02*
X174110000Y-124208000I0J125000D01*
G01*
G37*
G36*
G01*
X174110000Y-123558000D02*
X174110000Y-123308000D01*
G75*
G02*
X174235000Y-123183000I125000J0D01*
G01*
X175660000Y-123183000D01*
G75*
G02*
X175785000Y-123308000I0J-125000D01*
G01*
X175785000Y-123558000D01*
G75*
G02*
X175660000Y-123683000I-125000J0D01*
G01*
X174235000Y-123683000D01*
G75*
G02*
X174110000Y-123558000I0J125000D01*
G01*
G37*
G36*
G01*
X174110000Y-122908000D02*
X174110000Y-122658000D01*
G75*
G02*
X174235000Y-122533000I125000J0D01*
G01*
X175660000Y-122533000D01*
G75*
G02*
X175785000Y-122658000I0J-125000D01*
G01*
X175785000Y-122908000D01*
G75*
G02*
X175660000Y-123033000I-125000J0D01*
G01*
X174235000Y-123033000D01*
G75*
G02*
X174110000Y-122908000I0J125000D01*
G01*
G37*
G36*
G01*
X174110000Y-122258000D02*
X174110000Y-122008000D01*
G75*
G02*
X174235000Y-121883000I125000J0D01*
G01*
X175660000Y-121883000D01*
G75*
G02*
X175785000Y-122008000I0J-125000D01*
G01*
X175785000Y-122258000D01*
G75*
G02*
X175660000Y-122383000I-125000J0D01*
G01*
X174235000Y-122383000D01*
G75*
G02*
X174110000Y-122258000I0J125000D01*
G01*
G37*
G36*
G01*
X174110000Y-121608000D02*
X174110000Y-121358000D01*
G75*
G02*
X174235000Y-121233000I125000J0D01*
G01*
X175660000Y-121233000D01*
G75*
G02*
X175785000Y-121358000I0J-125000D01*
G01*
X175785000Y-121608000D01*
G75*
G02*
X175660000Y-121733000I-125000J0D01*
G01*
X174235000Y-121733000D01*
G75*
G02*
X174110000Y-121608000I0J125000D01*
G01*
G37*
G36*
G01*
X174110000Y-120958000D02*
X174110000Y-120708000D01*
G75*
G02*
X174235000Y-120583000I125000J0D01*
G01*
X175660000Y-120583000D01*
G75*
G02*
X175785000Y-120708000I0J-125000D01*
G01*
X175785000Y-120958000D01*
G75*
G02*
X175660000Y-121083000I-125000J0D01*
G01*
X174235000Y-121083000D01*
G75*
G02*
X174110000Y-120958000I0J125000D01*
G01*
G37*
G36*
G01*
X174110000Y-120308000D02*
X174110000Y-120058000D01*
G75*
G02*
X174235000Y-119933000I125000J0D01*
G01*
X175660000Y-119933000D01*
G75*
G02*
X175785000Y-120058000I0J-125000D01*
G01*
X175785000Y-120308000D01*
G75*
G02*
X175660000Y-120433000I-125000J0D01*
G01*
X174235000Y-120433000D01*
G75*
G02*
X174110000Y-120308000I0J125000D01*
G01*
G37*
G36*
G01*
X174110000Y-119658000D02*
X174110000Y-119408000D01*
G75*
G02*
X174235000Y-119283000I125000J0D01*
G01*
X175660000Y-119283000D01*
G75*
G02*
X175785000Y-119408000I0J-125000D01*
G01*
X175785000Y-119658000D01*
G75*
G02*
X175660000Y-119783000I-125000J0D01*
G01*
X174235000Y-119783000D01*
G75*
G02*
X174110000Y-119658000I0J125000D01*
G01*
G37*
G36*
G01*
X174110000Y-119008000D02*
X174110000Y-118758000D01*
G75*
G02*
X174235000Y-118633000I125000J0D01*
G01*
X175660000Y-118633000D01*
G75*
G02*
X175785000Y-118758000I0J-125000D01*
G01*
X175785000Y-119008000D01*
G75*
G02*
X175660000Y-119133000I-125000J0D01*
G01*
X174235000Y-119133000D01*
G75*
G02*
X174110000Y-119008000I0J125000D01*
G01*
G37*
G36*
G01*
X174110000Y-118358000D02*
X174110000Y-118108000D01*
G75*
G02*
X174235000Y-117983000I125000J0D01*
G01*
X175660000Y-117983000D01*
G75*
G02*
X175785000Y-118108000I0J-125000D01*
G01*
X175785000Y-118358000D01*
G75*
G02*
X175660000Y-118483000I-125000J0D01*
G01*
X174235000Y-118483000D01*
G75*
G02*
X174110000Y-118358000I0J125000D01*
G01*
G37*
G36*
G01*
X174110000Y-117708000D02*
X174110000Y-117458000D01*
G75*
G02*
X174235000Y-117333000I125000J0D01*
G01*
X175660000Y-117333000D01*
G75*
G02*
X175785000Y-117458000I0J-125000D01*
G01*
X175785000Y-117708000D01*
G75*
G02*
X175660000Y-117833000I-125000J0D01*
G01*
X174235000Y-117833000D01*
G75*
G02*
X174110000Y-117708000I0J125000D01*
G01*
G37*
D12*
X172085000Y-121158000D03*
M02*
