G04 #@! TF.GenerationSoftware,KiCad,Pcbnew,(5.1.8)-1*
G04 #@! TF.CreationDate,2021-02-01T15:09:39-08:00*
G04 #@! TF.ProjectId,Modular_single_driver_Driver,4d6f6475-6c61-4725-9f73-696e676c655f,rev?*
G04 #@! TF.SameCoordinates,Original*
G04 #@! TF.FileFunction,Copper,L1,Top*
G04 #@! TF.FilePolarity,Positive*
%FSLAX46Y46*%
G04 Gerber Fmt 4.6, Leading zero omitted, Abs format (unit mm)*
G04 Created by KiCad (PCBNEW (5.1.8)-1) date 2021-02-01 15:09:39*
%MOMM*%
%LPD*%
G01*
G04 APERTURE LIST*
G04 #@! TA.AperFunction,ComponentPad*
%ADD10O,1.700000X1.700000*%
G04 #@! TD*
G04 #@! TA.AperFunction,ComponentPad*
%ADD11R,1.700000X1.700000*%
G04 #@! TD*
G04 #@! TA.AperFunction,ComponentPad*
%ADD12R,1.220000X1.220000*%
G04 #@! TD*
G04 #@! TA.AperFunction,ComponentPad*
%ADD13C,1.220000*%
G04 #@! TD*
G04 #@! TA.AperFunction,SMDPad,CuDef*
%ADD14R,3.400000X7.800000*%
G04 #@! TD*
G04 #@! TA.AperFunction,ComponentPad*
%ADD15C,0.600000*%
G04 #@! TD*
G04 #@! TA.AperFunction,ViaPad*
%ADD16C,0.800000*%
G04 #@! TD*
G04 #@! TA.AperFunction,Conductor*
%ADD17C,0.250000*%
G04 #@! TD*
G04 #@! TA.AperFunction,Conductor*
%ADD18C,0.254000*%
G04 #@! TD*
G04 #@! TA.AperFunction,Conductor*
%ADD19C,0.100000*%
G04 #@! TD*
G04 APERTURE END LIST*
D10*
X169291000Y-111379000D03*
X171831000Y-111379000D03*
D11*
X174371000Y-111379000D03*
G04 #@! TA.AperFunction,SMDPad,CuDef*
G36*
G01*
X178748500Y-124706500D02*
X178248500Y-124706500D01*
G75*
G02*
X178023500Y-124481500I0J225000D01*
G01*
X178023500Y-124031500D01*
G75*
G02*
X178248500Y-123806500I225000J0D01*
G01*
X178748500Y-123806500D01*
G75*
G02*
X178973500Y-124031500I0J-225000D01*
G01*
X178973500Y-124481500D01*
G75*
G02*
X178748500Y-124706500I-225000J0D01*
G01*
G37*
G04 #@! TD.AperFunction*
G04 #@! TA.AperFunction,SMDPad,CuDef*
G36*
G01*
X178748500Y-126256500D02*
X178248500Y-126256500D01*
G75*
G02*
X178023500Y-126031500I0J225000D01*
G01*
X178023500Y-125581500D01*
G75*
G02*
X178248500Y-125356500I225000J0D01*
G01*
X178748500Y-125356500D01*
G75*
G02*
X178973500Y-125581500I0J-225000D01*
G01*
X178973500Y-126031500D01*
G75*
G02*
X178748500Y-126256500I-225000J0D01*
G01*
G37*
G04 #@! TD.AperFunction*
G04 #@! TA.AperFunction,SMDPad,CuDef*
G36*
G01*
X163834000Y-113215000D02*
X164334000Y-113215000D01*
G75*
G02*
X164559000Y-113440000I0J-225000D01*
G01*
X164559000Y-113890000D01*
G75*
G02*
X164334000Y-114115000I-225000J0D01*
G01*
X163834000Y-114115000D01*
G75*
G02*
X163609000Y-113890000I0J225000D01*
G01*
X163609000Y-113440000D01*
G75*
G02*
X163834000Y-113215000I225000J0D01*
G01*
G37*
G04 #@! TD.AperFunction*
G04 #@! TA.AperFunction,SMDPad,CuDef*
G36*
G01*
X163834000Y-111665000D02*
X164334000Y-111665000D01*
G75*
G02*
X164559000Y-111890000I0J-225000D01*
G01*
X164559000Y-112340000D01*
G75*
G02*
X164334000Y-112565000I-225000J0D01*
G01*
X163834000Y-112565000D01*
G75*
G02*
X163609000Y-112340000I0J225000D01*
G01*
X163609000Y-111890000D01*
G75*
G02*
X163834000Y-111665000I225000J0D01*
G01*
G37*
G04 #@! TD.AperFunction*
G04 #@! TA.AperFunction,SMDPad,CuDef*
G36*
G01*
X182288000Y-118495000D02*
X182288000Y-118995000D01*
G75*
G02*
X182063000Y-119220000I-225000J0D01*
G01*
X181613000Y-119220000D01*
G75*
G02*
X181388000Y-118995000I0J225000D01*
G01*
X181388000Y-118495000D01*
G75*
G02*
X181613000Y-118270000I225000J0D01*
G01*
X182063000Y-118270000D01*
G75*
G02*
X182288000Y-118495000I0J-225000D01*
G01*
G37*
G04 #@! TD.AperFunction*
G04 #@! TA.AperFunction,SMDPad,CuDef*
G36*
G01*
X183838000Y-118495000D02*
X183838000Y-118995000D01*
G75*
G02*
X183613000Y-119220000I-225000J0D01*
G01*
X183163000Y-119220000D01*
G75*
G02*
X182938000Y-118995000I0J225000D01*
G01*
X182938000Y-118495000D01*
G75*
G02*
X183163000Y-118270000I225000J0D01*
G01*
X183613000Y-118270000D01*
G75*
G02*
X183838000Y-118495000I0J-225000D01*
G01*
G37*
G04 #@! TD.AperFunction*
G04 #@! TA.AperFunction,SMDPad,CuDef*
G36*
G01*
X157284000Y-125091000D02*
X157284000Y-124591000D01*
G75*
G02*
X157509000Y-124366000I225000J0D01*
G01*
X157959000Y-124366000D01*
G75*
G02*
X158184000Y-124591000I0J-225000D01*
G01*
X158184000Y-125091000D01*
G75*
G02*
X157959000Y-125316000I-225000J0D01*
G01*
X157509000Y-125316000D01*
G75*
G02*
X157284000Y-125091000I0J225000D01*
G01*
G37*
G04 #@! TD.AperFunction*
G04 #@! TA.AperFunction,SMDPad,CuDef*
G36*
G01*
X158834000Y-125091000D02*
X158834000Y-124591000D01*
G75*
G02*
X159059000Y-124366000I225000J0D01*
G01*
X159509000Y-124366000D01*
G75*
G02*
X159734000Y-124591000I0J-225000D01*
G01*
X159734000Y-125091000D01*
G75*
G02*
X159509000Y-125316000I-225000J0D01*
G01*
X159059000Y-125316000D01*
G75*
G02*
X158834000Y-125091000I0J225000D01*
G01*
G37*
G04 #@! TD.AperFunction*
G04 #@! TA.AperFunction,SMDPad,CuDef*
G36*
G01*
X164842000Y-125291000D02*
X164342000Y-125291000D01*
G75*
G02*
X164117000Y-125066000I0J225000D01*
G01*
X164117000Y-124616000D01*
G75*
G02*
X164342000Y-124391000I225000J0D01*
G01*
X164842000Y-124391000D01*
G75*
G02*
X165067000Y-124616000I0J-225000D01*
G01*
X165067000Y-125066000D01*
G75*
G02*
X164842000Y-125291000I-225000J0D01*
G01*
G37*
G04 #@! TD.AperFunction*
G04 #@! TA.AperFunction,SMDPad,CuDef*
G36*
G01*
X164842000Y-123741000D02*
X164342000Y-123741000D01*
G75*
G02*
X164117000Y-123516000I0J225000D01*
G01*
X164117000Y-123066000D01*
G75*
G02*
X164342000Y-122841000I225000J0D01*
G01*
X164842000Y-122841000D01*
G75*
G02*
X165067000Y-123066000I0J-225000D01*
G01*
X165067000Y-123516000D01*
G75*
G02*
X164842000Y-123741000I-225000J0D01*
G01*
G37*
G04 #@! TD.AperFunction*
X189611000Y-106854001D03*
D10*
X192151000Y-106854001D03*
X189611000Y-109394001D03*
X192151000Y-109394001D03*
D11*
X151892000Y-106934000D03*
D10*
X151892000Y-109474000D03*
X151892000Y-112014000D03*
X151892000Y-114554000D03*
X151892000Y-117094000D03*
X151892000Y-119634000D03*
X151892000Y-122174000D03*
X151892000Y-124714000D03*
D11*
X174371000Y-106807000D03*
D10*
X171831000Y-106807000D03*
X169291000Y-106807000D03*
G04 #@! TA.AperFunction,SMDPad,CuDef*
G36*
G01*
X158134000Y-118851000D02*
X158134000Y-119401000D01*
G75*
G02*
X157934000Y-119601000I-200000J0D01*
G01*
X157534000Y-119601000D01*
G75*
G02*
X157334000Y-119401000I0J200000D01*
G01*
X157334000Y-118851000D01*
G75*
G02*
X157534000Y-118651000I200000J0D01*
G01*
X157934000Y-118651000D01*
G75*
G02*
X158134000Y-118851000I0J-200000D01*
G01*
G37*
G04 #@! TD.AperFunction*
G04 #@! TA.AperFunction,SMDPad,CuDef*
G36*
G01*
X159784000Y-118851000D02*
X159784000Y-119401000D01*
G75*
G02*
X159584000Y-119601000I-200000J0D01*
G01*
X159184000Y-119601000D01*
G75*
G02*
X158984000Y-119401000I0J200000D01*
G01*
X158984000Y-118851000D01*
G75*
G02*
X159184000Y-118651000I200000J0D01*
G01*
X159584000Y-118651000D01*
G75*
G02*
X159784000Y-118851000I0J-200000D01*
G01*
G37*
G04 #@! TD.AperFunction*
G04 #@! TA.AperFunction,SMDPad,CuDef*
G36*
G01*
X154795000Y-121433000D02*
X154795000Y-120883000D01*
G75*
G02*
X154995000Y-120683000I200000J0D01*
G01*
X155395000Y-120683000D01*
G75*
G02*
X155595000Y-120883000I0J-200000D01*
G01*
X155595000Y-121433000D01*
G75*
G02*
X155395000Y-121633000I-200000J0D01*
G01*
X154995000Y-121633000D01*
G75*
G02*
X154795000Y-121433000I0J200000D01*
G01*
G37*
G04 #@! TD.AperFunction*
G04 #@! TA.AperFunction,SMDPad,CuDef*
G36*
G01*
X156445000Y-121433000D02*
X156445000Y-120883000D01*
G75*
G02*
X156645000Y-120683000I200000J0D01*
G01*
X157045000Y-120683000D01*
G75*
G02*
X157245000Y-120883000I0J-200000D01*
G01*
X157245000Y-121433000D01*
G75*
G02*
X157045000Y-121633000I-200000J0D01*
G01*
X156645000Y-121633000D01*
G75*
G02*
X156445000Y-121433000I0J200000D01*
G01*
G37*
G04 #@! TD.AperFunction*
G04 #@! TA.AperFunction,SMDPad,CuDef*
G36*
G01*
X181844000Y-123973000D02*
X181844000Y-123423000D01*
G75*
G02*
X182044000Y-123223000I200000J0D01*
G01*
X182444000Y-123223000D01*
G75*
G02*
X182644000Y-123423000I0J-200000D01*
G01*
X182644000Y-123973000D01*
G75*
G02*
X182444000Y-124173000I-200000J0D01*
G01*
X182044000Y-124173000D01*
G75*
G02*
X181844000Y-123973000I0J200000D01*
G01*
G37*
G04 #@! TD.AperFunction*
G04 #@! TA.AperFunction,SMDPad,CuDef*
G36*
G01*
X180194000Y-123973000D02*
X180194000Y-123423000D01*
G75*
G02*
X180394000Y-123223000I200000J0D01*
G01*
X180794000Y-123223000D01*
G75*
G02*
X180994000Y-123423000I0J-200000D01*
G01*
X180994000Y-123973000D01*
G75*
G02*
X180794000Y-124173000I-200000J0D01*
G01*
X180394000Y-124173000D01*
G75*
G02*
X180194000Y-123973000I0J200000D01*
G01*
G37*
G04 #@! TD.AperFunction*
G04 #@! TA.AperFunction,SMDPad,CuDef*
G36*
G01*
X178541000Y-113202000D02*
X179091000Y-113202000D01*
G75*
G02*
X179291000Y-113402000I0J-200000D01*
G01*
X179291000Y-113802000D01*
G75*
G02*
X179091000Y-114002000I-200000J0D01*
G01*
X178541000Y-114002000D01*
G75*
G02*
X178341000Y-113802000I0J200000D01*
G01*
X178341000Y-113402000D01*
G75*
G02*
X178541000Y-113202000I200000J0D01*
G01*
G37*
G04 #@! TD.AperFunction*
G04 #@! TA.AperFunction,SMDPad,CuDef*
G36*
G01*
X178541000Y-114852000D02*
X179091000Y-114852000D01*
G75*
G02*
X179291000Y-115052000I0J-200000D01*
G01*
X179291000Y-115452000D01*
G75*
G02*
X179091000Y-115652000I-200000J0D01*
G01*
X178541000Y-115652000D01*
G75*
G02*
X178341000Y-115452000I0J200000D01*
G01*
X178341000Y-115052000D01*
G75*
G02*
X178541000Y-114852000I200000J0D01*
G01*
G37*
G04 #@! TD.AperFunction*
G04 #@! TA.AperFunction,SMDPad,CuDef*
G36*
G01*
X182644000Y-121264000D02*
X182644000Y-121814000D01*
G75*
G02*
X182444000Y-122014000I-200000J0D01*
G01*
X182044000Y-122014000D01*
G75*
G02*
X181844000Y-121814000I0J200000D01*
G01*
X181844000Y-121264000D01*
G75*
G02*
X182044000Y-121064000I200000J0D01*
G01*
X182444000Y-121064000D01*
G75*
G02*
X182644000Y-121264000I0J-200000D01*
G01*
G37*
G04 #@! TD.AperFunction*
G04 #@! TA.AperFunction,SMDPad,CuDef*
G36*
G01*
X180994000Y-121264000D02*
X180994000Y-121814000D01*
G75*
G02*
X180794000Y-122014000I-200000J0D01*
G01*
X180394000Y-122014000D01*
G75*
G02*
X180194000Y-121814000I0J200000D01*
G01*
X180194000Y-121264000D01*
G75*
G02*
X180394000Y-121064000I200000J0D01*
G01*
X180794000Y-121064000D01*
G75*
G02*
X180994000Y-121264000I0J-200000D01*
G01*
G37*
G04 #@! TD.AperFunction*
G04 #@! TA.AperFunction,SMDPad,CuDef*
G36*
G01*
X161438000Y-114191000D02*
X160888000Y-114191000D01*
G75*
G02*
X160688000Y-113991000I0J200000D01*
G01*
X160688000Y-113591000D01*
G75*
G02*
X160888000Y-113391000I200000J0D01*
G01*
X161438000Y-113391000D01*
G75*
G02*
X161638000Y-113591000I0J-200000D01*
G01*
X161638000Y-113991000D01*
G75*
G02*
X161438000Y-114191000I-200000J0D01*
G01*
G37*
G04 #@! TD.AperFunction*
G04 #@! TA.AperFunction,SMDPad,CuDef*
G36*
G01*
X161438000Y-112541000D02*
X160888000Y-112541000D01*
G75*
G02*
X160688000Y-112341000I0J200000D01*
G01*
X160688000Y-111941000D01*
G75*
G02*
X160888000Y-111741000I200000J0D01*
G01*
X161438000Y-111741000D01*
G75*
G02*
X161638000Y-111941000I0J-200000D01*
G01*
X161638000Y-112341000D01*
G75*
G02*
X161438000Y-112541000I-200000J0D01*
G01*
G37*
G04 #@! TD.AperFunction*
G04 #@! TA.AperFunction,SMDPad,CuDef*
G36*
G01*
X156993000Y-112859000D02*
X156443000Y-112859000D01*
G75*
G02*
X156243000Y-112659000I0J200000D01*
G01*
X156243000Y-112259000D01*
G75*
G02*
X156443000Y-112059000I200000J0D01*
G01*
X156993000Y-112059000D01*
G75*
G02*
X157193000Y-112259000I0J-200000D01*
G01*
X157193000Y-112659000D01*
G75*
G02*
X156993000Y-112859000I-200000J0D01*
G01*
G37*
G04 #@! TD.AperFunction*
G04 #@! TA.AperFunction,SMDPad,CuDef*
G36*
G01*
X156993000Y-114509000D02*
X156443000Y-114509000D01*
G75*
G02*
X156243000Y-114309000I0J200000D01*
G01*
X156243000Y-113909000D01*
G75*
G02*
X156443000Y-113709000I200000J0D01*
G01*
X156993000Y-113709000D01*
G75*
G02*
X157193000Y-113909000I0J-200000D01*
G01*
X157193000Y-114309000D01*
G75*
G02*
X156993000Y-114509000I-200000J0D01*
G01*
G37*
G04 #@! TD.AperFunction*
G04 #@! TA.AperFunction,SMDPad,CuDef*
G36*
G01*
X159406000Y-123209000D02*
X158856000Y-123209000D01*
G75*
G02*
X158656000Y-123009000I0J200000D01*
G01*
X158656000Y-122609000D01*
G75*
G02*
X158856000Y-122409000I200000J0D01*
G01*
X159406000Y-122409000D01*
G75*
G02*
X159606000Y-122609000I0J-200000D01*
G01*
X159606000Y-123009000D01*
G75*
G02*
X159406000Y-123209000I-200000J0D01*
G01*
G37*
G04 #@! TD.AperFunction*
G04 #@! TA.AperFunction,SMDPad,CuDef*
G36*
G01*
X159406000Y-121559000D02*
X158856000Y-121559000D01*
G75*
G02*
X158656000Y-121359000I0J200000D01*
G01*
X158656000Y-120959000D01*
G75*
G02*
X158856000Y-120759000I200000J0D01*
G01*
X159406000Y-120759000D01*
G75*
G02*
X159606000Y-120959000I0J-200000D01*
G01*
X159606000Y-121359000D01*
G75*
G02*
X159406000Y-121559000I-200000J0D01*
G01*
G37*
G04 #@! TD.AperFunction*
G04 #@! TA.AperFunction,SMDPad,CuDef*
G36*
G01*
X190225000Y-114662000D02*
X190775000Y-114662000D01*
G75*
G02*
X190975000Y-114862000I0J-200000D01*
G01*
X190975000Y-115262000D01*
G75*
G02*
X190775000Y-115462000I-200000J0D01*
G01*
X190225000Y-115462000D01*
G75*
G02*
X190025000Y-115262000I0J200000D01*
G01*
X190025000Y-114862000D01*
G75*
G02*
X190225000Y-114662000I200000J0D01*
G01*
G37*
G04 #@! TD.AperFunction*
G04 #@! TA.AperFunction,SMDPad,CuDef*
G36*
G01*
X190225000Y-113012000D02*
X190775000Y-113012000D01*
G75*
G02*
X190975000Y-113212000I0J-200000D01*
G01*
X190975000Y-113612000D01*
G75*
G02*
X190775000Y-113812000I-200000J0D01*
G01*
X190225000Y-113812000D01*
G75*
G02*
X190025000Y-113612000I0J200000D01*
G01*
X190025000Y-113212000D01*
G75*
G02*
X190225000Y-113012000I200000J0D01*
G01*
G37*
G04 #@! TD.AperFunction*
G04 #@! TA.AperFunction,SMDPad,CuDef*
G36*
G01*
X193527000Y-113012000D02*
X194077000Y-113012000D01*
G75*
G02*
X194277000Y-113212000I0J-200000D01*
G01*
X194277000Y-113612000D01*
G75*
G02*
X194077000Y-113812000I-200000J0D01*
G01*
X193527000Y-113812000D01*
G75*
G02*
X193327000Y-113612000I0J200000D01*
G01*
X193327000Y-113212000D01*
G75*
G02*
X193527000Y-113012000I200000J0D01*
G01*
G37*
G04 #@! TD.AperFunction*
G04 #@! TA.AperFunction,SMDPad,CuDef*
G36*
G01*
X193527000Y-114662000D02*
X194077000Y-114662000D01*
G75*
G02*
X194277000Y-114862000I0J-200000D01*
G01*
X194277000Y-115262000D01*
G75*
G02*
X194077000Y-115462000I-200000J0D01*
G01*
X193527000Y-115462000D01*
G75*
G02*
X193327000Y-115262000I0J200000D01*
G01*
X193327000Y-114862000D01*
G75*
G02*
X193527000Y-114662000I200000J0D01*
G01*
G37*
G04 #@! TD.AperFunction*
G04 #@! TA.AperFunction,SMDPad,CuDef*
G36*
G01*
X195562000Y-115337000D02*
X195562000Y-114787000D01*
G75*
G02*
X195762000Y-114587000I200000J0D01*
G01*
X196162000Y-114587000D01*
G75*
G02*
X196362000Y-114787000I0J-200000D01*
G01*
X196362000Y-115337000D01*
G75*
G02*
X196162000Y-115537000I-200000J0D01*
G01*
X195762000Y-115537000D01*
G75*
G02*
X195562000Y-115337000I0J200000D01*
G01*
G37*
G04 #@! TD.AperFunction*
G04 #@! TA.AperFunction,SMDPad,CuDef*
G36*
G01*
X197212000Y-115337000D02*
X197212000Y-114787000D01*
G75*
G02*
X197412000Y-114587000I200000J0D01*
G01*
X197812000Y-114587000D01*
G75*
G02*
X198012000Y-114787000I0J-200000D01*
G01*
X198012000Y-115337000D01*
G75*
G02*
X197812000Y-115537000I-200000J0D01*
G01*
X197412000Y-115537000D01*
G75*
G02*
X197212000Y-115337000I0J200000D01*
G01*
G37*
G04 #@! TD.AperFunction*
G04 #@! TA.AperFunction,SMDPad,CuDef*
G36*
G01*
X202291000Y-115337000D02*
X202291000Y-114787000D01*
G75*
G02*
X202491000Y-114587000I200000J0D01*
G01*
X202891000Y-114587000D01*
G75*
G02*
X203091000Y-114787000I0J-200000D01*
G01*
X203091000Y-115337000D01*
G75*
G02*
X202891000Y-115537000I-200000J0D01*
G01*
X202491000Y-115537000D01*
G75*
G02*
X202291000Y-115337000I0J200000D01*
G01*
G37*
G04 #@! TD.AperFunction*
G04 #@! TA.AperFunction,SMDPad,CuDef*
G36*
G01*
X200641000Y-115337000D02*
X200641000Y-114787000D01*
G75*
G02*
X200841000Y-114587000I200000J0D01*
G01*
X201241000Y-114587000D01*
G75*
G02*
X201441000Y-114787000I0J-200000D01*
G01*
X201441000Y-115337000D01*
G75*
G02*
X201241000Y-115537000I-200000J0D01*
G01*
X200841000Y-115537000D01*
G75*
G02*
X200641000Y-115337000I0J200000D01*
G01*
G37*
G04 #@! TD.AperFunction*
D12*
X192532000Y-124968000D03*
D13*
X195072000Y-124968000D03*
X197612000Y-124968000D03*
X200152000Y-124968000D03*
X202692000Y-124968000D03*
X205232000Y-124968000D03*
X205232000Y-117348000D03*
X202692000Y-117348000D03*
X200152000Y-117348000D03*
X197612000Y-117348000D03*
X195072000Y-117348000D03*
X192532000Y-117348000D03*
G04 #@! TA.AperFunction,SMDPad,CuDef*
G36*
G01*
X168435000Y-117683000D02*
X168435000Y-117483000D01*
G75*
G02*
X168535000Y-117383000I100000J0D01*
G01*
X169910000Y-117383000D01*
G75*
G02*
X170010000Y-117483000I0J-100000D01*
G01*
X170010000Y-117683000D01*
G75*
G02*
X169910000Y-117783000I-100000J0D01*
G01*
X168535000Y-117783000D01*
G75*
G02*
X168435000Y-117683000I0J100000D01*
G01*
G37*
G04 #@! TD.AperFunction*
G04 #@! TA.AperFunction,SMDPad,CuDef*
G36*
G01*
X168435000Y-118333000D02*
X168435000Y-118133000D01*
G75*
G02*
X168535000Y-118033000I100000J0D01*
G01*
X169910000Y-118033000D01*
G75*
G02*
X170010000Y-118133000I0J-100000D01*
G01*
X170010000Y-118333000D01*
G75*
G02*
X169910000Y-118433000I-100000J0D01*
G01*
X168535000Y-118433000D01*
G75*
G02*
X168435000Y-118333000I0J100000D01*
G01*
G37*
G04 #@! TD.AperFunction*
G04 #@! TA.AperFunction,SMDPad,CuDef*
G36*
G01*
X168435000Y-118983000D02*
X168435000Y-118783000D01*
G75*
G02*
X168535000Y-118683000I100000J0D01*
G01*
X169910000Y-118683000D01*
G75*
G02*
X170010000Y-118783000I0J-100000D01*
G01*
X170010000Y-118983000D01*
G75*
G02*
X169910000Y-119083000I-100000J0D01*
G01*
X168535000Y-119083000D01*
G75*
G02*
X168435000Y-118983000I0J100000D01*
G01*
G37*
G04 #@! TD.AperFunction*
G04 #@! TA.AperFunction,SMDPad,CuDef*
G36*
G01*
X168435000Y-119633000D02*
X168435000Y-119433000D01*
G75*
G02*
X168535000Y-119333000I100000J0D01*
G01*
X169910000Y-119333000D01*
G75*
G02*
X170010000Y-119433000I0J-100000D01*
G01*
X170010000Y-119633000D01*
G75*
G02*
X169910000Y-119733000I-100000J0D01*
G01*
X168535000Y-119733000D01*
G75*
G02*
X168435000Y-119633000I0J100000D01*
G01*
G37*
G04 #@! TD.AperFunction*
G04 #@! TA.AperFunction,SMDPad,CuDef*
G36*
G01*
X168435000Y-120283000D02*
X168435000Y-120083000D01*
G75*
G02*
X168535000Y-119983000I100000J0D01*
G01*
X169910000Y-119983000D01*
G75*
G02*
X170010000Y-120083000I0J-100000D01*
G01*
X170010000Y-120283000D01*
G75*
G02*
X169910000Y-120383000I-100000J0D01*
G01*
X168535000Y-120383000D01*
G75*
G02*
X168435000Y-120283000I0J100000D01*
G01*
G37*
G04 #@! TD.AperFunction*
G04 #@! TA.AperFunction,SMDPad,CuDef*
G36*
G01*
X168435000Y-120933000D02*
X168435000Y-120733000D01*
G75*
G02*
X168535000Y-120633000I100000J0D01*
G01*
X169910000Y-120633000D01*
G75*
G02*
X170010000Y-120733000I0J-100000D01*
G01*
X170010000Y-120933000D01*
G75*
G02*
X169910000Y-121033000I-100000J0D01*
G01*
X168535000Y-121033000D01*
G75*
G02*
X168435000Y-120933000I0J100000D01*
G01*
G37*
G04 #@! TD.AperFunction*
G04 #@! TA.AperFunction,SMDPad,CuDef*
G36*
G01*
X168435000Y-121583000D02*
X168435000Y-121383000D01*
G75*
G02*
X168535000Y-121283000I100000J0D01*
G01*
X169910000Y-121283000D01*
G75*
G02*
X170010000Y-121383000I0J-100000D01*
G01*
X170010000Y-121583000D01*
G75*
G02*
X169910000Y-121683000I-100000J0D01*
G01*
X168535000Y-121683000D01*
G75*
G02*
X168435000Y-121583000I0J100000D01*
G01*
G37*
G04 #@! TD.AperFunction*
G04 #@! TA.AperFunction,SMDPad,CuDef*
G36*
G01*
X168435000Y-122233000D02*
X168435000Y-122033000D01*
G75*
G02*
X168535000Y-121933000I100000J0D01*
G01*
X169910000Y-121933000D01*
G75*
G02*
X170010000Y-122033000I0J-100000D01*
G01*
X170010000Y-122233000D01*
G75*
G02*
X169910000Y-122333000I-100000J0D01*
G01*
X168535000Y-122333000D01*
G75*
G02*
X168435000Y-122233000I0J100000D01*
G01*
G37*
G04 #@! TD.AperFunction*
G04 #@! TA.AperFunction,SMDPad,CuDef*
G36*
G01*
X168435000Y-122883000D02*
X168435000Y-122683000D01*
G75*
G02*
X168535000Y-122583000I100000J0D01*
G01*
X169910000Y-122583000D01*
G75*
G02*
X170010000Y-122683000I0J-100000D01*
G01*
X170010000Y-122883000D01*
G75*
G02*
X169910000Y-122983000I-100000J0D01*
G01*
X168535000Y-122983000D01*
G75*
G02*
X168435000Y-122883000I0J100000D01*
G01*
G37*
G04 #@! TD.AperFunction*
G04 #@! TA.AperFunction,SMDPad,CuDef*
G36*
G01*
X168435000Y-123533000D02*
X168435000Y-123333000D01*
G75*
G02*
X168535000Y-123233000I100000J0D01*
G01*
X169910000Y-123233000D01*
G75*
G02*
X170010000Y-123333000I0J-100000D01*
G01*
X170010000Y-123533000D01*
G75*
G02*
X169910000Y-123633000I-100000J0D01*
G01*
X168535000Y-123633000D01*
G75*
G02*
X168435000Y-123533000I0J100000D01*
G01*
G37*
G04 #@! TD.AperFunction*
G04 #@! TA.AperFunction,SMDPad,CuDef*
G36*
G01*
X168435000Y-124183000D02*
X168435000Y-123983000D01*
G75*
G02*
X168535000Y-123883000I100000J0D01*
G01*
X169910000Y-123883000D01*
G75*
G02*
X170010000Y-123983000I0J-100000D01*
G01*
X170010000Y-124183000D01*
G75*
G02*
X169910000Y-124283000I-100000J0D01*
G01*
X168535000Y-124283000D01*
G75*
G02*
X168435000Y-124183000I0J100000D01*
G01*
G37*
G04 #@! TD.AperFunction*
G04 #@! TA.AperFunction,SMDPad,CuDef*
G36*
G01*
X168435000Y-124833000D02*
X168435000Y-124633000D01*
G75*
G02*
X168535000Y-124533000I100000J0D01*
G01*
X169910000Y-124533000D01*
G75*
G02*
X170010000Y-124633000I0J-100000D01*
G01*
X170010000Y-124833000D01*
G75*
G02*
X169910000Y-124933000I-100000J0D01*
G01*
X168535000Y-124933000D01*
G75*
G02*
X168435000Y-124833000I0J100000D01*
G01*
G37*
G04 #@! TD.AperFunction*
G04 #@! TA.AperFunction,SMDPad,CuDef*
G36*
G01*
X174160000Y-124833000D02*
X174160000Y-124633000D01*
G75*
G02*
X174260000Y-124533000I100000J0D01*
G01*
X175635000Y-124533000D01*
G75*
G02*
X175735000Y-124633000I0J-100000D01*
G01*
X175735000Y-124833000D01*
G75*
G02*
X175635000Y-124933000I-100000J0D01*
G01*
X174260000Y-124933000D01*
G75*
G02*
X174160000Y-124833000I0J100000D01*
G01*
G37*
G04 #@! TD.AperFunction*
G04 #@! TA.AperFunction,SMDPad,CuDef*
G36*
G01*
X174160000Y-124183000D02*
X174160000Y-123983000D01*
G75*
G02*
X174260000Y-123883000I100000J0D01*
G01*
X175635000Y-123883000D01*
G75*
G02*
X175735000Y-123983000I0J-100000D01*
G01*
X175735000Y-124183000D01*
G75*
G02*
X175635000Y-124283000I-100000J0D01*
G01*
X174260000Y-124283000D01*
G75*
G02*
X174160000Y-124183000I0J100000D01*
G01*
G37*
G04 #@! TD.AperFunction*
G04 #@! TA.AperFunction,SMDPad,CuDef*
G36*
G01*
X174160000Y-123533000D02*
X174160000Y-123333000D01*
G75*
G02*
X174260000Y-123233000I100000J0D01*
G01*
X175635000Y-123233000D01*
G75*
G02*
X175735000Y-123333000I0J-100000D01*
G01*
X175735000Y-123533000D01*
G75*
G02*
X175635000Y-123633000I-100000J0D01*
G01*
X174260000Y-123633000D01*
G75*
G02*
X174160000Y-123533000I0J100000D01*
G01*
G37*
G04 #@! TD.AperFunction*
G04 #@! TA.AperFunction,SMDPad,CuDef*
G36*
G01*
X174160000Y-122883000D02*
X174160000Y-122683000D01*
G75*
G02*
X174260000Y-122583000I100000J0D01*
G01*
X175635000Y-122583000D01*
G75*
G02*
X175735000Y-122683000I0J-100000D01*
G01*
X175735000Y-122883000D01*
G75*
G02*
X175635000Y-122983000I-100000J0D01*
G01*
X174260000Y-122983000D01*
G75*
G02*
X174160000Y-122883000I0J100000D01*
G01*
G37*
G04 #@! TD.AperFunction*
G04 #@! TA.AperFunction,SMDPad,CuDef*
G36*
G01*
X174160000Y-122233000D02*
X174160000Y-122033000D01*
G75*
G02*
X174260000Y-121933000I100000J0D01*
G01*
X175635000Y-121933000D01*
G75*
G02*
X175735000Y-122033000I0J-100000D01*
G01*
X175735000Y-122233000D01*
G75*
G02*
X175635000Y-122333000I-100000J0D01*
G01*
X174260000Y-122333000D01*
G75*
G02*
X174160000Y-122233000I0J100000D01*
G01*
G37*
G04 #@! TD.AperFunction*
G04 #@! TA.AperFunction,SMDPad,CuDef*
G36*
G01*
X174160000Y-121583000D02*
X174160000Y-121383000D01*
G75*
G02*
X174260000Y-121283000I100000J0D01*
G01*
X175635000Y-121283000D01*
G75*
G02*
X175735000Y-121383000I0J-100000D01*
G01*
X175735000Y-121583000D01*
G75*
G02*
X175635000Y-121683000I-100000J0D01*
G01*
X174260000Y-121683000D01*
G75*
G02*
X174160000Y-121583000I0J100000D01*
G01*
G37*
G04 #@! TD.AperFunction*
G04 #@! TA.AperFunction,SMDPad,CuDef*
G36*
G01*
X174160000Y-120933000D02*
X174160000Y-120733000D01*
G75*
G02*
X174260000Y-120633000I100000J0D01*
G01*
X175635000Y-120633000D01*
G75*
G02*
X175735000Y-120733000I0J-100000D01*
G01*
X175735000Y-120933000D01*
G75*
G02*
X175635000Y-121033000I-100000J0D01*
G01*
X174260000Y-121033000D01*
G75*
G02*
X174160000Y-120933000I0J100000D01*
G01*
G37*
G04 #@! TD.AperFunction*
G04 #@! TA.AperFunction,SMDPad,CuDef*
G36*
G01*
X174160000Y-120283000D02*
X174160000Y-120083000D01*
G75*
G02*
X174260000Y-119983000I100000J0D01*
G01*
X175635000Y-119983000D01*
G75*
G02*
X175735000Y-120083000I0J-100000D01*
G01*
X175735000Y-120283000D01*
G75*
G02*
X175635000Y-120383000I-100000J0D01*
G01*
X174260000Y-120383000D01*
G75*
G02*
X174160000Y-120283000I0J100000D01*
G01*
G37*
G04 #@! TD.AperFunction*
G04 #@! TA.AperFunction,SMDPad,CuDef*
G36*
G01*
X174160000Y-119633000D02*
X174160000Y-119433000D01*
G75*
G02*
X174260000Y-119333000I100000J0D01*
G01*
X175635000Y-119333000D01*
G75*
G02*
X175735000Y-119433000I0J-100000D01*
G01*
X175735000Y-119633000D01*
G75*
G02*
X175635000Y-119733000I-100000J0D01*
G01*
X174260000Y-119733000D01*
G75*
G02*
X174160000Y-119633000I0J100000D01*
G01*
G37*
G04 #@! TD.AperFunction*
G04 #@! TA.AperFunction,SMDPad,CuDef*
G36*
G01*
X174160000Y-118983000D02*
X174160000Y-118783000D01*
G75*
G02*
X174260000Y-118683000I100000J0D01*
G01*
X175635000Y-118683000D01*
G75*
G02*
X175735000Y-118783000I0J-100000D01*
G01*
X175735000Y-118983000D01*
G75*
G02*
X175635000Y-119083000I-100000J0D01*
G01*
X174260000Y-119083000D01*
G75*
G02*
X174160000Y-118983000I0J100000D01*
G01*
G37*
G04 #@! TD.AperFunction*
G04 #@! TA.AperFunction,SMDPad,CuDef*
G36*
G01*
X174160000Y-118333000D02*
X174160000Y-118133000D01*
G75*
G02*
X174260000Y-118033000I100000J0D01*
G01*
X175635000Y-118033000D01*
G75*
G02*
X175735000Y-118133000I0J-100000D01*
G01*
X175735000Y-118333000D01*
G75*
G02*
X175635000Y-118433000I-100000J0D01*
G01*
X174260000Y-118433000D01*
G75*
G02*
X174160000Y-118333000I0J100000D01*
G01*
G37*
G04 #@! TD.AperFunction*
G04 #@! TA.AperFunction,SMDPad,CuDef*
G36*
G01*
X174160000Y-117683000D02*
X174160000Y-117483000D01*
G75*
G02*
X174260000Y-117383000I100000J0D01*
G01*
X175635000Y-117383000D01*
G75*
G02*
X175735000Y-117483000I0J-100000D01*
G01*
X175735000Y-117683000D01*
G75*
G02*
X175635000Y-117783000I-100000J0D01*
G01*
X174260000Y-117783000D01*
G75*
G02*
X174160000Y-117683000I0J100000D01*
G01*
G37*
G04 #@! TD.AperFunction*
D14*
X172085000Y-121158000D03*
D15*
X170785000Y-117908000D03*
X172085000Y-117908000D03*
X173385000Y-117908000D03*
X170785000Y-119208000D03*
X172085000Y-119208000D03*
X173385000Y-119208000D03*
X170785000Y-120508000D03*
X172085000Y-120508000D03*
X173385000Y-120508000D03*
X170785000Y-121808000D03*
X172085000Y-121808000D03*
X173385000Y-121808000D03*
X170785000Y-123108000D03*
X172085000Y-123108000D03*
X173385000Y-123108000D03*
X170785000Y-124408000D03*
X172085000Y-124408000D03*
X173385000Y-124408000D03*
D16*
X155448000Y-124841000D03*
X184912000Y-122047000D03*
X187452000Y-122047000D03*
X155448000Y-127825500D03*
X180467000Y-114935000D03*
X180086000Y-111887000D03*
X154813000Y-122682000D03*
X165862000Y-110998000D03*
X195199000Y-111887000D03*
X184277000Y-123698000D03*
X180848000Y-113792000D03*
X176403000Y-125857000D03*
X180276500Y-125793500D03*
X157734000Y-117602000D03*
X183769000Y-124968000D03*
X180213000Y-115951000D03*
X182880000Y-115316000D03*
X174947500Y-126179500D03*
X184023000Y-121539000D03*
X188087000Y-118745000D03*
X184785000Y-119634000D03*
X179895500Y-118046500D03*
X184912000Y-120777000D03*
X175514000Y-114681000D03*
D17*
X182969001Y-122264001D02*
X182244000Y-121539000D01*
X184694999Y-122264001D02*
X182969001Y-122264001D01*
X184912000Y-122047000D02*
X184694999Y-122264001D01*
X157734000Y-124841000D02*
X155448000Y-124841000D01*
X180149000Y-114935000D02*
X178816000Y-113602000D01*
X180467000Y-114935000D02*
X180149000Y-114935000D01*
X186408000Y-108219000D02*
X185674000Y-108953000D01*
X192525003Y-108219000D02*
X186408000Y-108219000D01*
X192794003Y-107950000D02*
X192525003Y-108219000D01*
X197866000Y-107950000D02*
X192794003Y-107950000D01*
X150716999Y-111449999D02*
X151486498Y-110680500D01*
X150716999Y-115918999D02*
X150716999Y-111449999D01*
X151892000Y-117094000D02*
X150716999Y-115918999D01*
X151486498Y-110680500D02*
X155575000Y-110680500D01*
X177675000Y-123433000D02*
X178498500Y-124256500D01*
X174947500Y-123433000D02*
X177675000Y-123433000D01*
X177698490Y-125056510D02*
X177698490Y-127025490D01*
X178498500Y-124256500D02*
X177698490Y-125056510D01*
X184277000Y-123698000D02*
X182244000Y-123698000D01*
X182154999Y-117511999D02*
X182154999Y-115098999D01*
X183388000Y-118745000D02*
X182154999Y-117511999D01*
X182154999Y-115098999D02*
X180848000Y-113792000D01*
X180848000Y-113792000D02*
X180848000Y-113792000D01*
X195199000Y-112015000D02*
X193802000Y-113412000D01*
X195199000Y-111887000D02*
X195199000Y-112015000D01*
X193802000Y-113412000D02*
X190500000Y-113412000D01*
X194312000Y-113412000D02*
X195962000Y-115062000D01*
X193802000Y-113412000D02*
X194312000Y-113412000D01*
X196762010Y-114261990D02*
X200240990Y-114261990D01*
X200240990Y-114261990D02*
X201041000Y-115062000D01*
X195962000Y-115062000D02*
X196762010Y-114261990D01*
X175355499Y-126904501D02*
X176403000Y-125857000D01*
X174599499Y-126904501D02*
X175355499Y-126904501D01*
X172427998Y-124733000D02*
X174599499Y-126904501D01*
X169222500Y-124733000D02*
X172427998Y-124733000D01*
X164084000Y-112115000D02*
X164745000Y-112115000D01*
X164745000Y-112115000D02*
X165862000Y-110998000D01*
X155195000Y-122300000D02*
X154813000Y-122682000D01*
X155195000Y-121158000D02*
X155195000Y-122300000D01*
X178511500Y-125793500D02*
X178498500Y-125806500D01*
X180276500Y-125793500D02*
X178511500Y-125793500D01*
X183621990Y-112876990D02*
X186239001Y-115494001D01*
X186239001Y-125418999D02*
X185420000Y-126238000D01*
X175735000Y-122783000D02*
X174947500Y-122783000D01*
X162687000Y-113665000D02*
X161163000Y-112141000D01*
X164084000Y-113665000D02*
X162687000Y-113665000D01*
X157036000Y-112141000D02*
X156718000Y-112459000D01*
X161163000Y-112141000D02*
X157036000Y-112141000D01*
X186563000Y-124968000D02*
X186239001Y-125291999D01*
X192532000Y-124968000D02*
X186563000Y-124968000D01*
X186239001Y-125291999D02*
X186239001Y-125418999D01*
X186239001Y-115494001D02*
X186239001Y-125291999D01*
X195072000Y-124968000D02*
X192532000Y-124968000D01*
X196007001Y-124032999D02*
X195072000Y-124968000D01*
X199216999Y-124032999D02*
X196007001Y-124032999D01*
X200152000Y-124968000D02*
X199216999Y-124032999D01*
X201087001Y-124032999D02*
X200152000Y-124968000D01*
X204296999Y-124032999D02*
X201087001Y-124032999D01*
X205232000Y-124968000D02*
X204296999Y-124032999D01*
X185420000Y-126238000D02*
X185039000Y-126238000D01*
X185039000Y-126238000D02*
X183769000Y-124968000D01*
X179451000Y-123772478D02*
X179451000Y-123191410D01*
X180646522Y-124968000D02*
X179451000Y-123772478D01*
X183769000Y-124968000D02*
X180646522Y-124968000D01*
X179451000Y-123191410D02*
X178942295Y-122682705D01*
X178842000Y-122783000D02*
X174947500Y-122783000D01*
X178942295Y-122682705D02*
X178842000Y-122783000D01*
X179207478Y-112776000D02*
X178054000Y-112776000D01*
X179308468Y-112876990D02*
X179207478Y-112776000D01*
X183621990Y-112876990D02*
X179308468Y-112876990D01*
X178054000Y-112776000D02*
X176530000Y-114300000D01*
X175862001Y-113955999D02*
X172213091Y-113955999D01*
X176239001Y-115029001D02*
X176239001Y-114332999D01*
X176530000Y-114738002D02*
X176239001Y-115029001D01*
X176239001Y-114332999D02*
X175862001Y-113955999D01*
X176530000Y-114300000D02*
X176530000Y-114738002D01*
X172213091Y-113955999D02*
X169111100Y-117057990D01*
X167476990Y-117057990D02*
X164084000Y-113665000D01*
X169111100Y-117057990D02*
X167476990Y-117057990D01*
X157334000Y-119126000D02*
X157734000Y-119126000D01*
X156119990Y-120340010D02*
X157334000Y-119126000D01*
X156119990Y-121650468D02*
X156119990Y-120340010D01*
X156427532Y-121958010D02*
X156119990Y-121650468D01*
X158331990Y-121958010D02*
X156427532Y-121958010D01*
X159131000Y-121159000D02*
X158331990Y-121958010D01*
X157734000Y-119126000D02*
X157734000Y-117602000D01*
X157734000Y-117602000D02*
X157734000Y-117602000D01*
X181700000Y-118883000D02*
X174947500Y-118883000D01*
X181838000Y-118745000D02*
X181700000Y-118883000D01*
X161992000Y-122133000D02*
X169222500Y-122133000D01*
X159284000Y-124841000D02*
X161992000Y-122133000D01*
X166000000Y-123433000D02*
X169222500Y-123433000D01*
X164592000Y-124841000D02*
X166000000Y-123433000D01*
X164650000Y-122783000D02*
X169222500Y-122783000D01*
X164592000Y-122841000D02*
X164650000Y-122783000D01*
X164592000Y-123291000D02*
X164592000Y-122841000D01*
X177278500Y-115252000D02*
X174947500Y-117583000D01*
X178816000Y-115252000D02*
X177278500Y-115252000D01*
X178879000Y-115189000D02*
X178816000Y-115252000D01*
X179514000Y-115252000D02*
X180213000Y-115951000D01*
X178816000Y-115252000D02*
X179514000Y-115252000D01*
X175003500Y-121539000D02*
X174947500Y-121483000D01*
X180594000Y-121539000D02*
X175003500Y-121539000D01*
X180905002Y-121539000D02*
X180594000Y-121539000D01*
X183134000Y-115570000D02*
X182880000Y-115316000D01*
X180594000Y-121539000D02*
X180594000Y-122555000D01*
X180594000Y-122555000D02*
X180848000Y-122809000D01*
X185547000Y-122809000D02*
X185788991Y-122567009D01*
X180848000Y-122809000D02*
X185547000Y-122809000D01*
X185788991Y-122567009D02*
X185788991Y-116332000D01*
X183858011Y-116294011D02*
X182880000Y-115316000D01*
X184747011Y-116294011D02*
X183858011Y-116294011D01*
X184785000Y-116332000D02*
X184747011Y-116294011D01*
X185788991Y-116332000D02*
X184785000Y-116332000D01*
X177165000Y-124849410D02*
X176398590Y-124083000D01*
X177165000Y-126168002D02*
X177165000Y-124849410D01*
X174413099Y-127354511D02*
X175978491Y-127354511D01*
X175978491Y-127354511D02*
X177165000Y-126168002D01*
X173397599Y-126339011D02*
X174413099Y-127354511D01*
X176398590Y-124083000D02*
X174947500Y-124083000D01*
X151141599Y-126339011D02*
X173397599Y-126339011D01*
X150266990Y-125464402D02*
X151141599Y-126339011D01*
X150266990Y-108559010D02*
X150266990Y-125464402D01*
X151892000Y-106934000D02*
X150266990Y-108559010D01*
X174947500Y-124733000D02*
X174947500Y-126179500D01*
X174947500Y-126179500D02*
X174947500Y-126179500D01*
X166677941Y-125889001D02*
X168483942Y-124083000D01*
X151327999Y-125889001D02*
X166677941Y-125889001D01*
X150716999Y-125278001D02*
X151327999Y-125889001D01*
X168483942Y-124083000D02*
X169222500Y-124083000D01*
X150716999Y-119069999D02*
X150716999Y-125278001D01*
X152305001Y-118458999D02*
X151327999Y-118458999D01*
X153067001Y-117696999D02*
X152305001Y-118458999D01*
X153067001Y-113189001D02*
X153067001Y-117696999D01*
X151327999Y-118458999D02*
X150716999Y-119069999D01*
X151892000Y-112014000D02*
X153067001Y-113189001D01*
X165605000Y-118233000D02*
X169222500Y-118233000D01*
X161163000Y-113791000D02*
X165605000Y-118233000D01*
X160755990Y-113383990D02*
X154840010Y-113383990D01*
X161163000Y-113791000D02*
X160755990Y-113383990D01*
X154840010Y-116685990D02*
X151892000Y-119634000D01*
X154840010Y-113383990D02*
X154840010Y-116685990D01*
X156718000Y-117348000D02*
X151892000Y-122174000D01*
X156718000Y-115242522D02*
X156718000Y-115189000D01*
X161008478Y-119533000D02*
X156718000Y-115242522D01*
X169222500Y-119533000D02*
X161008478Y-119533000D01*
X156718000Y-115189000D02*
X156718000Y-117348000D01*
X156718000Y-114109000D02*
X156718000Y-115189000D01*
X162655590Y-120833000D02*
X169222500Y-120833000D01*
X152741999Y-123864001D02*
X159624589Y-123864001D01*
X151892000Y-124714000D02*
X152741999Y-123864001D01*
X160147000Y-122809000D02*
X160413295Y-123075295D01*
X159131000Y-122809000D02*
X160147000Y-122809000D01*
X160413295Y-123075295D02*
X162655590Y-120833000D01*
X159624589Y-123864001D02*
X160413295Y-123075295D01*
X174947500Y-120833000D02*
X177998000Y-120833000D01*
X169291000Y-106807000D02*
X169291000Y-111379000D01*
X183222990Y-120738990D02*
X184023000Y-121539000D01*
X178092010Y-120738990D02*
X183222990Y-120738990D01*
X177998000Y-120833000D02*
X178092010Y-120738990D01*
X169166500Y-121539000D02*
X169222500Y-121483000D01*
X157352000Y-121158000D02*
X159384000Y-119126000D01*
X156845000Y-121158000D02*
X157352000Y-121158000D01*
X160441000Y-120183000D02*
X169222500Y-120183000D01*
X159384000Y-119126000D02*
X160441000Y-120183000D01*
X179029000Y-122133000D02*
X174947500Y-122133000D01*
X180594000Y-123698000D02*
X179029000Y-122133000D01*
X190500000Y-115316000D02*
X190500000Y-115062000D01*
X192532000Y-117348000D02*
X190500000Y-115316000D01*
X181373166Y-119533000D02*
X181474166Y-119634000D01*
X174947500Y-119533000D02*
X181373166Y-119533000D01*
X181474166Y-119634000D02*
X184785000Y-119634000D01*
X184785000Y-119634000D02*
X184785000Y-119634000D01*
X188087000Y-117475000D02*
X190500000Y-115062000D01*
X188087000Y-118745000D02*
X188087000Y-117475000D01*
X195072000Y-116332000D02*
X193802000Y-115062000D01*
X195072000Y-117348000D02*
X195072000Y-116332000D01*
X174947500Y-118233000D02*
X179709000Y-118233000D01*
X179709000Y-118233000D02*
X179895500Y-118046500D01*
X179895500Y-118046500D02*
X179959000Y-117983000D01*
X197612000Y-117348000D02*
X197612000Y-115062000D01*
X200152000Y-117348000D02*
X197612000Y-117348000D01*
X202692000Y-115063000D02*
X202691000Y-115062000D01*
X202692000Y-117348000D02*
X202692000Y-115063000D01*
X205232000Y-117348000D02*
X202692000Y-117348000D01*
X175033500Y-120269000D02*
X174947500Y-120183000D01*
X175044990Y-120307990D02*
X175811048Y-120307990D01*
X174947500Y-120210500D02*
X175044990Y-120307990D01*
X175811048Y-120307990D02*
X175886048Y-120382990D01*
X174947500Y-120183000D02*
X174947500Y-120210500D01*
X177905610Y-120288980D02*
X183409391Y-120288981D01*
X177811600Y-120382990D02*
X177905610Y-120288980D01*
X175886048Y-120382990D02*
X177811600Y-120382990D01*
X183409391Y-120288981D02*
X183896705Y-120776295D01*
X183896705Y-120776295D02*
X185084276Y-120776295D01*
X169222500Y-117583000D02*
X169183000Y-117583000D01*
X172124500Y-114681000D02*
X169222500Y-117583000D01*
X175514000Y-114681000D02*
X172124500Y-114681000D01*
D18*
X208534000Y-129032000D02*
X149225000Y-129032000D01*
X149225000Y-108559010D01*
X149503314Y-108559010D01*
X149506990Y-108596332D01*
X149506991Y-125427069D01*
X149503314Y-125464402D01*
X149506991Y-125501735D01*
X149516968Y-125603026D01*
X149517988Y-125613387D01*
X149561444Y-125756648D01*
X149632016Y-125888678D01*
X149693197Y-125963226D01*
X149726990Y-126004403D01*
X149755988Y-126028201D01*
X150577799Y-126850013D01*
X150601598Y-126879012D01*
X150630596Y-126902810D01*
X150717322Y-126973985D01*
X150762251Y-126998000D01*
X150849352Y-127044557D01*
X150992613Y-127088014D01*
X151104266Y-127099011D01*
X151104276Y-127099011D01*
X151141599Y-127102687D01*
X151178922Y-127099011D01*
X173082798Y-127099011D01*
X173849300Y-127865514D01*
X173873098Y-127894512D01*
X173988823Y-127989485D01*
X174120852Y-128060057D01*
X174264113Y-128103514D01*
X174375766Y-128114511D01*
X174375776Y-128114511D01*
X174413099Y-128118187D01*
X174450422Y-128114511D01*
X175941169Y-128114511D01*
X175978491Y-128118187D01*
X176015813Y-128114511D01*
X176015824Y-128114511D01*
X176127477Y-128103514D01*
X176270738Y-128060057D01*
X176402767Y-127989485D01*
X176518492Y-127894512D01*
X176542295Y-127865508D01*
X177676004Y-126731800D01*
X177705001Y-126708003D01*
X177710596Y-126701185D01*
X177769003Y-126749118D01*
X177918217Y-126828875D01*
X178080123Y-126877988D01*
X178248500Y-126894572D01*
X178748500Y-126894572D01*
X178916877Y-126877988D01*
X179078783Y-126828875D01*
X179227997Y-126749118D01*
X179358784Y-126641784D01*
X179431237Y-126553500D01*
X179572789Y-126553500D01*
X179616726Y-126597437D01*
X179786244Y-126710705D01*
X179974602Y-126788726D01*
X180174561Y-126828500D01*
X180378439Y-126828500D01*
X180578398Y-126788726D01*
X180766756Y-126710705D01*
X180936274Y-126597437D01*
X181080437Y-126453274D01*
X181193705Y-126283756D01*
X181271726Y-126095398D01*
X181311500Y-125895439D01*
X181311500Y-125728000D01*
X183065289Y-125728000D01*
X183109226Y-125771937D01*
X183278744Y-125885205D01*
X183467102Y-125963226D01*
X183667061Y-126003000D01*
X183729199Y-126003000D01*
X184475201Y-126749003D01*
X184498999Y-126778001D01*
X184614724Y-126872974D01*
X184746753Y-126943546D01*
X184890014Y-126987003D01*
X185001667Y-126998000D01*
X185001676Y-126998000D01*
X185038999Y-127001676D01*
X185076322Y-126998000D01*
X185382678Y-126998000D01*
X185420000Y-127001676D01*
X185457322Y-126998000D01*
X185457333Y-126998000D01*
X185568986Y-126987003D01*
X185712247Y-126943546D01*
X185844276Y-126872974D01*
X185960001Y-126778001D01*
X185983803Y-126748998D01*
X186750003Y-125982798D01*
X186779002Y-125959000D01*
X186873975Y-125843275D01*
X186935591Y-125728000D01*
X191303929Y-125728000D01*
X191332498Y-125822180D01*
X191391463Y-125932494D01*
X191470815Y-126029185D01*
X191567506Y-126108537D01*
X191677820Y-126167502D01*
X191797518Y-126203812D01*
X191922000Y-126216072D01*
X193142000Y-126216072D01*
X193266482Y-126203812D01*
X193386180Y-126167502D01*
X193496494Y-126108537D01*
X193593185Y-126029185D01*
X193672537Y-125932494D01*
X193731502Y-125822180D01*
X193760071Y-125728000D01*
X194082467Y-125728000D01*
X194104945Y-125761641D01*
X194278359Y-125935055D01*
X194482271Y-126071305D01*
X194708847Y-126165155D01*
X194949378Y-126213000D01*
X195194622Y-126213000D01*
X195435153Y-126165155D01*
X195661729Y-126071305D01*
X195865641Y-125935055D01*
X196039055Y-125761641D01*
X196175305Y-125557729D01*
X196269155Y-125331153D01*
X196317000Y-125090622D01*
X196317000Y-124845378D01*
X196309107Y-124805695D01*
X196321803Y-124792999D01*
X196377419Y-124792999D01*
X196367000Y-124845378D01*
X196367000Y-125090622D01*
X196414845Y-125331153D01*
X196508695Y-125557729D01*
X196644945Y-125761641D01*
X196818359Y-125935055D01*
X197022271Y-126071305D01*
X197248847Y-126165155D01*
X197489378Y-126213000D01*
X197734622Y-126213000D01*
X197975153Y-126165155D01*
X198201729Y-126071305D01*
X198405641Y-125935055D01*
X198579055Y-125761641D01*
X198715305Y-125557729D01*
X198809155Y-125331153D01*
X198857000Y-125090622D01*
X198857000Y-124845378D01*
X198846581Y-124792999D01*
X198902198Y-124792999D01*
X198914894Y-124805695D01*
X198907000Y-124845378D01*
X198907000Y-125090622D01*
X198954845Y-125331153D01*
X199048695Y-125557729D01*
X199184945Y-125761641D01*
X199358359Y-125935055D01*
X199562271Y-126071305D01*
X199788847Y-126165155D01*
X200029378Y-126213000D01*
X200274622Y-126213000D01*
X200515153Y-126165155D01*
X200741729Y-126071305D01*
X200945641Y-125935055D01*
X201119055Y-125761641D01*
X201255305Y-125557729D01*
X201349155Y-125331153D01*
X201397000Y-125090622D01*
X201397000Y-124845378D01*
X201389107Y-124805695D01*
X201401803Y-124792999D01*
X201457419Y-124792999D01*
X201447000Y-124845378D01*
X201447000Y-125090622D01*
X201494845Y-125331153D01*
X201588695Y-125557729D01*
X201724945Y-125761641D01*
X201898359Y-125935055D01*
X202102271Y-126071305D01*
X202328847Y-126165155D01*
X202569378Y-126213000D01*
X202814622Y-126213000D01*
X203055153Y-126165155D01*
X203281729Y-126071305D01*
X203485641Y-125935055D01*
X203659055Y-125761641D01*
X203795305Y-125557729D01*
X203889155Y-125331153D01*
X203937000Y-125090622D01*
X203937000Y-124845378D01*
X203926581Y-124792999D01*
X203982198Y-124792999D01*
X203994894Y-124805695D01*
X203987000Y-124845378D01*
X203987000Y-125090622D01*
X204034845Y-125331153D01*
X204128695Y-125557729D01*
X204264945Y-125761641D01*
X204438359Y-125935055D01*
X204642271Y-126071305D01*
X204868847Y-126165155D01*
X205109378Y-126213000D01*
X205354622Y-126213000D01*
X205595153Y-126165155D01*
X205821729Y-126071305D01*
X206025641Y-125935055D01*
X206199055Y-125761641D01*
X206335305Y-125557729D01*
X206429155Y-125331153D01*
X206477000Y-125090622D01*
X206477000Y-124845378D01*
X206429155Y-124604847D01*
X206335305Y-124378271D01*
X206199055Y-124174359D01*
X206025641Y-124000945D01*
X205821729Y-123864695D01*
X205595153Y-123770845D01*
X205354622Y-123723000D01*
X205109378Y-123723000D01*
X205069695Y-123730894D01*
X204860803Y-123522001D01*
X204837000Y-123492998D01*
X204721275Y-123398025D01*
X204589246Y-123327453D01*
X204445985Y-123283996D01*
X204334332Y-123272999D01*
X204334321Y-123272999D01*
X204296999Y-123269323D01*
X204259677Y-123272999D01*
X201124323Y-123272999D01*
X201087000Y-123269323D01*
X201049677Y-123272999D01*
X201049668Y-123272999D01*
X200938015Y-123283996D01*
X200819317Y-123320002D01*
X200794754Y-123327453D01*
X200662724Y-123398025D01*
X200596949Y-123452006D01*
X200547000Y-123492998D01*
X200523202Y-123521996D01*
X200314305Y-123730893D01*
X200274622Y-123723000D01*
X200029378Y-123723000D01*
X199989695Y-123730894D01*
X199780803Y-123522001D01*
X199757000Y-123492998D01*
X199641275Y-123398025D01*
X199509246Y-123327453D01*
X199365985Y-123283996D01*
X199254332Y-123272999D01*
X199254321Y-123272999D01*
X199216999Y-123269323D01*
X199179677Y-123272999D01*
X196044323Y-123272999D01*
X196007000Y-123269323D01*
X195969677Y-123272999D01*
X195969668Y-123272999D01*
X195858015Y-123283996D01*
X195739317Y-123320002D01*
X195714754Y-123327453D01*
X195582724Y-123398025D01*
X195516949Y-123452006D01*
X195467000Y-123492998D01*
X195443202Y-123521996D01*
X195234305Y-123730893D01*
X195194622Y-123723000D01*
X194949378Y-123723000D01*
X194708847Y-123770845D01*
X194482271Y-123864695D01*
X194278359Y-124000945D01*
X194104945Y-124174359D01*
X194082467Y-124208000D01*
X193760071Y-124208000D01*
X193731502Y-124113820D01*
X193672537Y-124003506D01*
X193593185Y-123906815D01*
X193496494Y-123827463D01*
X193386180Y-123768498D01*
X193266482Y-123732188D01*
X193142000Y-123719928D01*
X191922000Y-123719928D01*
X191797518Y-123732188D01*
X191677820Y-123768498D01*
X191567506Y-123827463D01*
X191470815Y-123906815D01*
X191391463Y-124003506D01*
X191332498Y-124113820D01*
X191303929Y-124208000D01*
X186999001Y-124208000D01*
X186999001Y-118643061D01*
X187052000Y-118643061D01*
X187052000Y-118846939D01*
X187091774Y-119046898D01*
X187169795Y-119235256D01*
X187283063Y-119404774D01*
X187427226Y-119548937D01*
X187596744Y-119662205D01*
X187785102Y-119740226D01*
X187985061Y-119780000D01*
X188188939Y-119780000D01*
X188388898Y-119740226D01*
X188577256Y-119662205D01*
X188746774Y-119548937D01*
X188890937Y-119404774D01*
X189004205Y-119235256D01*
X189082226Y-119046898D01*
X189122000Y-118846939D01*
X189122000Y-118643061D01*
X189082226Y-118443102D01*
X189004205Y-118254744D01*
X188890937Y-118085226D01*
X188847000Y-118041289D01*
X188847000Y-117789801D01*
X190373000Y-116263801D01*
X191294893Y-117185695D01*
X191287000Y-117225378D01*
X191287000Y-117470622D01*
X191334845Y-117711153D01*
X191428695Y-117937729D01*
X191564945Y-118141641D01*
X191738359Y-118315055D01*
X191942271Y-118451305D01*
X192168847Y-118545155D01*
X192409378Y-118593000D01*
X192654622Y-118593000D01*
X192895153Y-118545155D01*
X193121729Y-118451305D01*
X193325641Y-118315055D01*
X193499055Y-118141641D01*
X193635305Y-117937729D01*
X193729155Y-117711153D01*
X193777000Y-117470622D01*
X193777000Y-117225378D01*
X193729155Y-116984847D01*
X193635305Y-116758271D01*
X193499055Y-116554359D01*
X193325641Y-116380945D01*
X193121729Y-116244695D01*
X192895153Y-116150845D01*
X192654622Y-116103000D01*
X192409378Y-116103000D01*
X192369695Y-116110893D01*
X191604799Y-115345998D01*
X191613072Y-115262000D01*
X191613072Y-114862000D01*
X191596969Y-114698500D01*
X191549278Y-114541284D01*
X191471831Y-114396392D01*
X191367606Y-114269394D01*
X191328134Y-114237000D01*
X191367606Y-114204606D01*
X191394365Y-114172000D01*
X192907635Y-114172000D01*
X192934394Y-114204606D01*
X192973866Y-114237000D01*
X192934394Y-114269394D01*
X192830169Y-114396392D01*
X192752722Y-114541284D01*
X192705031Y-114698500D01*
X192688928Y-114862000D01*
X192688928Y-115262000D01*
X192705031Y-115425500D01*
X192752722Y-115582716D01*
X192830169Y-115727608D01*
X192934394Y-115854606D01*
X193061392Y-115958831D01*
X193206284Y-116036278D01*
X193363500Y-116083969D01*
X193527000Y-116100072D01*
X193765271Y-116100072D01*
X194162251Y-116497053D01*
X194104945Y-116554359D01*
X193968695Y-116758271D01*
X193874845Y-116984847D01*
X193827000Y-117225378D01*
X193827000Y-117470622D01*
X193874845Y-117711153D01*
X193968695Y-117937729D01*
X194104945Y-118141641D01*
X194278359Y-118315055D01*
X194482271Y-118451305D01*
X194708847Y-118545155D01*
X194949378Y-118593000D01*
X195194622Y-118593000D01*
X195435153Y-118545155D01*
X195661729Y-118451305D01*
X195865641Y-118315055D01*
X196039055Y-118141641D01*
X196175305Y-117937729D01*
X196269155Y-117711153D01*
X196317000Y-117470622D01*
X196317000Y-117225378D01*
X196269155Y-116984847D01*
X196175305Y-116758271D01*
X196039055Y-116554359D01*
X195865641Y-116380945D01*
X195833003Y-116359137D01*
X195835676Y-116331999D01*
X195832000Y-116294676D01*
X195832000Y-116294667D01*
X195821003Y-116183014D01*
X195818594Y-116175072D01*
X196162000Y-116175072D01*
X196325500Y-116158969D01*
X196482716Y-116111278D01*
X196627608Y-116033831D01*
X196754606Y-115929606D01*
X196787000Y-115890134D01*
X196819394Y-115929606D01*
X196852001Y-115956366D01*
X196852000Y-116358466D01*
X196818359Y-116380945D01*
X196644945Y-116554359D01*
X196508695Y-116758271D01*
X196414845Y-116984847D01*
X196367000Y-117225378D01*
X196367000Y-117470622D01*
X196414845Y-117711153D01*
X196508695Y-117937729D01*
X196644945Y-118141641D01*
X196818359Y-118315055D01*
X197022271Y-118451305D01*
X197248847Y-118545155D01*
X197489378Y-118593000D01*
X197734622Y-118593000D01*
X197975153Y-118545155D01*
X198201729Y-118451305D01*
X198405641Y-118315055D01*
X198579055Y-118141641D01*
X198601533Y-118108000D01*
X199162467Y-118108000D01*
X199184945Y-118141641D01*
X199358359Y-118315055D01*
X199562271Y-118451305D01*
X199788847Y-118545155D01*
X200029378Y-118593000D01*
X200274622Y-118593000D01*
X200515153Y-118545155D01*
X200741729Y-118451305D01*
X200945641Y-118315055D01*
X201119055Y-118141641D01*
X201255305Y-117937729D01*
X201349155Y-117711153D01*
X201397000Y-117470622D01*
X201397000Y-117225378D01*
X201349155Y-116984847D01*
X201255305Y-116758271D01*
X201119055Y-116554359D01*
X200945641Y-116380945D01*
X200741729Y-116244695D01*
X200515153Y-116150845D01*
X200274622Y-116103000D01*
X200029378Y-116103000D01*
X199788847Y-116150845D01*
X199562271Y-116244695D01*
X199358359Y-116380945D01*
X199184945Y-116554359D01*
X199162467Y-116588000D01*
X198601533Y-116588000D01*
X198579055Y-116554359D01*
X198405641Y-116380945D01*
X198372000Y-116358467D01*
X198372000Y-115956365D01*
X198404606Y-115929606D01*
X198508831Y-115802608D01*
X198586278Y-115657716D01*
X198633969Y-115500500D01*
X198650072Y-115337000D01*
X198650072Y-115021990D01*
X199926189Y-115021990D01*
X200002928Y-115098729D01*
X200002928Y-115337000D01*
X200019031Y-115500500D01*
X200066722Y-115657716D01*
X200144169Y-115802608D01*
X200248394Y-115929606D01*
X200375392Y-116033831D01*
X200520284Y-116111278D01*
X200677500Y-116158969D01*
X200841000Y-116175072D01*
X201241000Y-116175072D01*
X201404500Y-116158969D01*
X201561716Y-116111278D01*
X201706608Y-116033831D01*
X201833606Y-115929606D01*
X201866000Y-115890134D01*
X201898394Y-115929606D01*
X201932001Y-115957186D01*
X201932000Y-116358466D01*
X201898359Y-116380945D01*
X201724945Y-116554359D01*
X201588695Y-116758271D01*
X201494845Y-116984847D01*
X201447000Y-117225378D01*
X201447000Y-117470622D01*
X201494845Y-117711153D01*
X201588695Y-117937729D01*
X201724945Y-118141641D01*
X201898359Y-118315055D01*
X202102271Y-118451305D01*
X202328847Y-118545155D01*
X202569378Y-118593000D01*
X202814622Y-118593000D01*
X203055153Y-118545155D01*
X203281729Y-118451305D01*
X203485641Y-118315055D01*
X203659055Y-118141641D01*
X203681533Y-118108000D01*
X204242467Y-118108000D01*
X204264945Y-118141641D01*
X204438359Y-118315055D01*
X204642271Y-118451305D01*
X204868847Y-118545155D01*
X205109378Y-118593000D01*
X205354622Y-118593000D01*
X205595153Y-118545155D01*
X205821729Y-118451305D01*
X206025641Y-118315055D01*
X206199055Y-118141641D01*
X206335305Y-117937729D01*
X206429155Y-117711153D01*
X206477000Y-117470622D01*
X206477000Y-117225378D01*
X206429155Y-116984847D01*
X206335305Y-116758271D01*
X206199055Y-116554359D01*
X206025641Y-116380945D01*
X205821729Y-116244695D01*
X205595153Y-116150845D01*
X205354622Y-116103000D01*
X205109378Y-116103000D01*
X204868847Y-116150845D01*
X204642271Y-116244695D01*
X204438359Y-116380945D01*
X204264945Y-116554359D01*
X204242467Y-116588000D01*
X203681533Y-116588000D01*
X203659055Y-116554359D01*
X203485641Y-116380945D01*
X203452000Y-116358467D01*
X203452000Y-115955544D01*
X203483606Y-115929606D01*
X203587831Y-115802608D01*
X203665278Y-115657716D01*
X203712969Y-115500500D01*
X203729072Y-115337000D01*
X203729072Y-114787000D01*
X203712969Y-114623500D01*
X203665278Y-114466284D01*
X203587831Y-114321392D01*
X203483606Y-114194394D01*
X203356608Y-114090169D01*
X203211716Y-114012722D01*
X203054500Y-113965031D01*
X202891000Y-113948928D01*
X202491000Y-113948928D01*
X202327500Y-113965031D01*
X202170284Y-114012722D01*
X202025392Y-114090169D01*
X201898394Y-114194394D01*
X201866000Y-114233866D01*
X201833606Y-114194394D01*
X201706608Y-114090169D01*
X201561716Y-114012722D01*
X201404500Y-113965031D01*
X201241000Y-113948928D01*
X201002729Y-113948928D01*
X200804793Y-113750992D01*
X200780991Y-113721989D01*
X200665266Y-113627016D01*
X200533237Y-113556444D01*
X200389976Y-113512987D01*
X200278323Y-113501990D01*
X200278312Y-113501990D01*
X200240990Y-113498314D01*
X200203668Y-113501990D01*
X196799332Y-113501990D01*
X196762010Y-113498314D01*
X196724687Y-113501990D01*
X196724677Y-113501990D01*
X196613024Y-113512987D01*
X196487720Y-113550997D01*
X196469763Y-113556444D01*
X196337733Y-113627016D01*
X196267415Y-113684725D01*
X196222009Y-113721989D01*
X196198211Y-113750988D01*
X196000270Y-113948928D01*
X195923730Y-113948928D01*
X195131801Y-113157000D01*
X195383155Y-112905646D01*
X195500898Y-112882226D01*
X195689256Y-112804205D01*
X195858774Y-112690937D01*
X196002937Y-112546774D01*
X196116205Y-112377256D01*
X196194226Y-112188898D01*
X196234000Y-111988939D01*
X196234000Y-111785061D01*
X196194226Y-111585102D01*
X196116205Y-111396744D01*
X196002937Y-111227226D01*
X195858774Y-111083063D01*
X195689256Y-110969795D01*
X195500898Y-110891774D01*
X195300939Y-110852000D01*
X195097061Y-110852000D01*
X194897102Y-110891774D01*
X194708744Y-110969795D01*
X194539226Y-111083063D01*
X194395063Y-111227226D01*
X194281795Y-111396744D01*
X194203774Y-111585102D01*
X194164000Y-111785061D01*
X194164000Y-111975198D01*
X193765271Y-112373928D01*
X193527000Y-112373928D01*
X193363500Y-112390031D01*
X193206284Y-112437722D01*
X193061392Y-112515169D01*
X192934394Y-112619394D01*
X192907635Y-112652000D01*
X191394365Y-112652000D01*
X191367606Y-112619394D01*
X191240608Y-112515169D01*
X191095716Y-112437722D01*
X190938500Y-112390031D01*
X190775000Y-112373928D01*
X190225000Y-112373928D01*
X190061500Y-112390031D01*
X189904284Y-112437722D01*
X189759392Y-112515169D01*
X189632394Y-112619394D01*
X189528169Y-112746392D01*
X189450722Y-112891284D01*
X189403031Y-113048500D01*
X189386928Y-113212000D01*
X189386928Y-113612000D01*
X189403031Y-113775500D01*
X189450722Y-113932716D01*
X189528169Y-114077608D01*
X189632394Y-114204606D01*
X189671866Y-114237000D01*
X189632394Y-114269394D01*
X189528169Y-114396392D01*
X189450722Y-114541284D01*
X189403031Y-114698500D01*
X189386928Y-114862000D01*
X189386928Y-115100270D01*
X187575998Y-116911201D01*
X187547000Y-116934999D01*
X187523202Y-116963997D01*
X187523201Y-116963998D01*
X187452026Y-117050724D01*
X187381454Y-117182754D01*
X187363312Y-117242563D01*
X187337998Y-117326014D01*
X187330243Y-117404753D01*
X187323324Y-117475000D01*
X187327001Y-117512332D01*
X187327001Y-118041288D01*
X187283063Y-118085226D01*
X187169795Y-118254744D01*
X187091774Y-118443102D01*
X187052000Y-118643061D01*
X186999001Y-118643061D01*
X186999001Y-115531323D01*
X187002677Y-115494000D01*
X186999001Y-115456677D01*
X186999001Y-115456668D01*
X186988004Y-115345015D01*
X186944547Y-115201754D01*
X186873975Y-115069725D01*
X186834800Y-115021990D01*
X186802800Y-114982997D01*
X186802796Y-114982993D01*
X186779002Y-114954000D01*
X186750010Y-114930207D01*
X184185794Y-112365993D01*
X184161991Y-112336989D01*
X184046266Y-112242016D01*
X183914237Y-112171444D01*
X183770976Y-112127987D01*
X183659323Y-112116990D01*
X183659312Y-112116990D01*
X183621990Y-112113314D01*
X183584668Y-112116990D01*
X179586786Y-112116990D01*
X179499725Y-112070454D01*
X179356464Y-112026997D01*
X179244811Y-112016000D01*
X179244800Y-112016000D01*
X179207478Y-112012324D01*
X179170156Y-112016000D01*
X178091322Y-112016000D01*
X178053999Y-112012324D01*
X178016676Y-112016000D01*
X178016667Y-112016000D01*
X177905014Y-112026997D01*
X177761753Y-112070454D01*
X177629724Y-112141026D01*
X177629722Y-112141027D01*
X177629723Y-112141027D01*
X177542996Y-112212201D01*
X177542992Y-112212205D01*
X177513999Y-112235999D01*
X177490205Y-112264992D01*
X176367509Y-113387690D01*
X176286277Y-113321025D01*
X176154248Y-113250453D01*
X176010987Y-113206996D01*
X175899334Y-113195999D01*
X175899323Y-113195999D01*
X175862001Y-113192323D01*
X175824679Y-113195999D01*
X172250416Y-113195999D01*
X172213091Y-113192323D01*
X172175766Y-113195999D01*
X172175758Y-113195999D01*
X172064105Y-113206996D01*
X171920844Y-113250453D01*
X171788815Y-113321025D01*
X171673090Y-113415998D01*
X171649292Y-113444996D01*
X168796299Y-116297990D01*
X167791793Y-116297990D01*
X165197072Y-113703271D01*
X165197072Y-113440000D01*
X165180488Y-113271623D01*
X165131375Y-113109717D01*
X165051618Y-112960503D01*
X164993758Y-112890000D01*
X165051618Y-112819497D01*
X165056581Y-112810211D01*
X165169276Y-112749974D01*
X165285001Y-112655001D01*
X165308804Y-112625998D01*
X165901802Y-112033000D01*
X165963939Y-112033000D01*
X166163898Y-111993226D01*
X166352256Y-111915205D01*
X166521774Y-111801937D01*
X166665937Y-111657774D01*
X166779205Y-111488256D01*
X166857226Y-111299898D01*
X166897000Y-111099939D01*
X166897000Y-110896061D01*
X166857226Y-110696102D01*
X166779205Y-110507744D01*
X166665937Y-110338226D01*
X166521774Y-110194063D01*
X166352256Y-110080795D01*
X166163898Y-110002774D01*
X165963939Y-109963000D01*
X165760061Y-109963000D01*
X165560102Y-110002774D01*
X165371744Y-110080795D01*
X165202226Y-110194063D01*
X165058063Y-110338226D01*
X164944795Y-110507744D01*
X164866774Y-110696102D01*
X164827000Y-110896061D01*
X164827000Y-110958198D01*
X164682719Y-111102479D01*
X164664283Y-111092625D01*
X164502377Y-111043512D01*
X164334000Y-111026928D01*
X163834000Y-111026928D01*
X163665623Y-111043512D01*
X163503717Y-111092625D01*
X163354503Y-111172382D01*
X163223716Y-111279716D01*
X163116382Y-111410503D01*
X163036625Y-111559717D01*
X162987512Y-111721623D01*
X162970928Y-111890000D01*
X162970928Y-112340000D01*
X162987512Y-112508377D01*
X163036625Y-112670283D01*
X163116382Y-112819497D01*
X163174242Y-112890000D01*
X163161932Y-112905000D01*
X163001803Y-112905000D01*
X162276072Y-112179270D01*
X162276072Y-111941000D01*
X162259969Y-111777500D01*
X162212278Y-111620284D01*
X162134831Y-111475392D01*
X162030606Y-111348394D01*
X161903608Y-111244169D01*
X161758716Y-111166722D01*
X161601500Y-111119031D01*
X161438000Y-111102928D01*
X160888000Y-111102928D01*
X160724500Y-111119031D01*
X160567284Y-111166722D01*
X160422392Y-111244169D01*
X160295394Y-111348394D01*
X160268635Y-111381000D01*
X157073323Y-111381000D01*
X157036000Y-111377324D01*
X156998677Y-111381000D01*
X156998667Y-111381000D01*
X156887014Y-111391997D01*
X156791640Y-111420928D01*
X156443000Y-111420928D01*
X156279500Y-111437031D01*
X156122284Y-111484722D01*
X155977392Y-111562169D01*
X155850394Y-111666394D01*
X155746169Y-111793392D01*
X155668722Y-111938284D01*
X155621031Y-112095500D01*
X155604928Y-112259000D01*
X155604928Y-112623990D01*
X154877343Y-112623990D01*
X154840010Y-112620313D01*
X154802677Y-112623990D01*
X154691024Y-112634987D01*
X154547763Y-112678444D01*
X154415734Y-112749016D01*
X154300009Y-112843989D01*
X154205036Y-112959714D01*
X154134464Y-113091743D01*
X154091007Y-113235004D01*
X154076333Y-113383990D01*
X154080010Y-113421323D01*
X154080011Y-116371187D01*
X153827001Y-116624197D01*
X153827001Y-113226323D01*
X153830677Y-113189000D01*
X153827001Y-113151677D01*
X153827001Y-113151668D01*
X153816004Y-113040015D01*
X153772547Y-112896754D01*
X153701975Y-112764725D01*
X153607002Y-112649000D01*
X153578005Y-112625203D01*
X153333210Y-112380408D01*
X153377000Y-112160260D01*
X153377000Y-111867740D01*
X153319932Y-111580842D01*
X153207990Y-111310589D01*
X153045475Y-111067368D01*
X152838632Y-110860525D01*
X152664240Y-110744000D01*
X152838632Y-110627475D01*
X153045475Y-110420632D01*
X153207990Y-110177411D01*
X153319932Y-109907158D01*
X153377000Y-109620260D01*
X153377000Y-109327740D01*
X153319932Y-109040842D01*
X153207990Y-108770589D01*
X153045475Y-108527368D01*
X152913620Y-108395513D01*
X152986180Y-108373502D01*
X153096494Y-108314537D01*
X153193185Y-108235185D01*
X153272537Y-108138494D01*
X153331502Y-108028180D01*
X153367812Y-107908482D01*
X153380072Y-107784000D01*
X153380072Y-106084000D01*
X153367812Y-105959518D01*
X153331502Y-105839820D01*
X153272537Y-105729506D01*
X153193185Y-105632815D01*
X153096494Y-105553463D01*
X152986180Y-105494498D01*
X152866482Y-105458188D01*
X152742000Y-105445928D01*
X151042000Y-105445928D01*
X150917518Y-105458188D01*
X150797820Y-105494498D01*
X150687506Y-105553463D01*
X150590815Y-105632815D01*
X150511463Y-105729506D01*
X150452498Y-105839820D01*
X150416188Y-105959518D01*
X150403928Y-106084000D01*
X150403928Y-107347271D01*
X149755993Y-107995206D01*
X149726989Y-108019009D01*
X149694584Y-108058495D01*
X149632016Y-108134734D01*
X149575469Y-108240526D01*
X149561444Y-108266764D01*
X149517987Y-108410025D01*
X149506990Y-108521678D01*
X149506990Y-108521688D01*
X149503314Y-108559010D01*
X149225000Y-108559010D01*
X149225000Y-105206277D01*
X155411566Y-105206277D01*
X155411566Y-105613723D01*
X155491055Y-106013340D01*
X155646978Y-106389771D01*
X155873343Y-106728550D01*
X156161450Y-107016657D01*
X156500229Y-107243022D01*
X156876660Y-107398945D01*
X157276277Y-107478434D01*
X157683723Y-107478434D01*
X158083340Y-107398945D01*
X158459771Y-107243022D01*
X158798550Y-107016657D01*
X159086657Y-106728550D01*
X159131966Y-106660740D01*
X167806000Y-106660740D01*
X167806000Y-106953260D01*
X167863068Y-107240158D01*
X167975010Y-107510411D01*
X168137525Y-107753632D01*
X168344368Y-107960475D01*
X168531000Y-108085179D01*
X168531001Y-110100821D01*
X168344368Y-110225525D01*
X168137525Y-110432368D01*
X167975010Y-110675589D01*
X167863068Y-110945842D01*
X167806000Y-111232740D01*
X167806000Y-111525260D01*
X167863068Y-111812158D01*
X167975010Y-112082411D01*
X168137525Y-112325632D01*
X168344368Y-112532475D01*
X168587589Y-112694990D01*
X168857842Y-112806932D01*
X169144740Y-112864000D01*
X169437260Y-112864000D01*
X169724158Y-112806932D01*
X169994411Y-112694990D01*
X170237632Y-112532475D01*
X170444475Y-112325632D01*
X170561000Y-112151240D01*
X170677525Y-112325632D01*
X170884368Y-112532475D01*
X171127589Y-112694990D01*
X171397842Y-112806932D01*
X171684740Y-112864000D01*
X171977260Y-112864000D01*
X172264158Y-112806932D01*
X172534411Y-112694990D01*
X172777632Y-112532475D01*
X172909487Y-112400620D01*
X172931498Y-112473180D01*
X172990463Y-112583494D01*
X173069815Y-112680185D01*
X173166506Y-112759537D01*
X173276820Y-112818502D01*
X173396518Y-112854812D01*
X173521000Y-112867072D01*
X174085250Y-112864000D01*
X174244000Y-112705250D01*
X174244000Y-111506000D01*
X174498000Y-111506000D01*
X174498000Y-112705250D01*
X174656750Y-112864000D01*
X175221000Y-112867072D01*
X175345482Y-112854812D01*
X175465180Y-112818502D01*
X175575494Y-112759537D01*
X175672185Y-112680185D01*
X175751537Y-112583494D01*
X175810502Y-112473180D01*
X175846812Y-112353482D01*
X175859072Y-112229000D01*
X175856000Y-111664750D01*
X175697250Y-111506000D01*
X174498000Y-111506000D01*
X174244000Y-111506000D01*
X174224000Y-111506000D01*
X174224000Y-111252000D01*
X174244000Y-111252000D01*
X174244000Y-110052750D01*
X174498000Y-110052750D01*
X174498000Y-111252000D01*
X175697250Y-111252000D01*
X175856000Y-111093250D01*
X175859072Y-110529000D01*
X175846812Y-110404518D01*
X175810502Y-110284820D01*
X175751537Y-110174506D01*
X175672185Y-110077815D01*
X175575494Y-109998463D01*
X175465180Y-109939498D01*
X175345482Y-109903188D01*
X175221000Y-109890928D01*
X174656750Y-109894000D01*
X174498000Y-110052750D01*
X174244000Y-110052750D01*
X174085250Y-109894000D01*
X173521000Y-109890928D01*
X173396518Y-109903188D01*
X173276820Y-109939498D01*
X173166506Y-109998463D01*
X173069815Y-110077815D01*
X172990463Y-110174506D01*
X172931498Y-110284820D01*
X172909487Y-110357380D01*
X172777632Y-110225525D01*
X172534411Y-110063010D01*
X172264158Y-109951068D01*
X171977260Y-109894000D01*
X171684740Y-109894000D01*
X171397842Y-109951068D01*
X171127589Y-110063010D01*
X170884368Y-110225525D01*
X170677525Y-110432368D01*
X170561000Y-110606760D01*
X170444475Y-110432368D01*
X170237632Y-110225525D01*
X170051000Y-110100822D01*
X170051000Y-108085178D01*
X170237632Y-107960475D01*
X170444475Y-107753632D01*
X170561000Y-107579240D01*
X170677525Y-107753632D01*
X170884368Y-107960475D01*
X171127589Y-108122990D01*
X171397842Y-108234932D01*
X171684740Y-108292000D01*
X171977260Y-108292000D01*
X172264158Y-108234932D01*
X172534411Y-108122990D01*
X172777632Y-107960475D01*
X172909487Y-107828620D01*
X172931498Y-107901180D01*
X172990463Y-108011494D01*
X173069815Y-108108185D01*
X173166506Y-108187537D01*
X173276820Y-108246502D01*
X173396518Y-108282812D01*
X173521000Y-108295072D01*
X174085250Y-108292000D01*
X174244000Y-108133250D01*
X174244000Y-106934000D01*
X174498000Y-106934000D01*
X174498000Y-108133250D01*
X174656750Y-108292000D01*
X175221000Y-108295072D01*
X175345482Y-108282812D01*
X175465180Y-108246502D01*
X175575494Y-108187537D01*
X175672185Y-108108185D01*
X175751537Y-108011494D01*
X175810502Y-107901180D01*
X175846812Y-107781482D01*
X175859072Y-107657000D01*
X175856000Y-107092750D01*
X175697250Y-106934000D01*
X174498000Y-106934000D01*
X174244000Y-106934000D01*
X174224000Y-106934000D01*
X174224000Y-106680000D01*
X174244000Y-106680000D01*
X174244000Y-105480750D01*
X174498000Y-105480750D01*
X174498000Y-106680000D01*
X175697250Y-106680000D01*
X175856000Y-106521250D01*
X175858816Y-106004001D01*
X188122928Y-106004001D01*
X188122928Y-107704001D01*
X188135188Y-107828483D01*
X188171498Y-107948181D01*
X188230463Y-108058495D01*
X188309815Y-108155186D01*
X188406506Y-108234538D01*
X188516820Y-108293503D01*
X188589380Y-108315514D01*
X188457525Y-108447369D01*
X188295010Y-108690590D01*
X188183068Y-108960843D01*
X188126000Y-109247741D01*
X188126000Y-109540261D01*
X188183068Y-109827159D01*
X188295010Y-110097412D01*
X188457525Y-110340633D01*
X188664368Y-110547476D01*
X188907589Y-110709991D01*
X189177842Y-110821933D01*
X189464740Y-110879001D01*
X189757260Y-110879001D01*
X190044158Y-110821933D01*
X190314411Y-110709991D01*
X190557632Y-110547476D01*
X190764475Y-110340633D01*
X190881000Y-110166241D01*
X190997525Y-110340633D01*
X191204368Y-110547476D01*
X191447589Y-110709991D01*
X191717842Y-110821933D01*
X192004740Y-110879001D01*
X192297260Y-110879001D01*
X192584158Y-110821933D01*
X192854411Y-110709991D01*
X193097632Y-110547476D01*
X193304475Y-110340633D01*
X193466990Y-110097412D01*
X193578932Y-109827159D01*
X193636000Y-109540261D01*
X193636000Y-109247741D01*
X193578932Y-108960843D01*
X193466990Y-108690590D01*
X193304475Y-108447369D01*
X193097632Y-108240526D01*
X192923240Y-108124001D01*
X193097632Y-108007476D01*
X193304475Y-107800633D01*
X193466990Y-107557412D01*
X193578932Y-107287159D01*
X193636000Y-107000261D01*
X193636000Y-106707741D01*
X193578932Y-106420843D01*
X193466990Y-106150590D01*
X193304475Y-105907369D01*
X193097632Y-105700526D01*
X192854411Y-105538011D01*
X192584158Y-105426069D01*
X192297260Y-105369001D01*
X192004740Y-105369001D01*
X191717842Y-105426069D01*
X191447589Y-105538011D01*
X191204368Y-105700526D01*
X191072513Y-105832381D01*
X191050502Y-105759821D01*
X190991537Y-105649507D01*
X190912185Y-105552816D01*
X190815494Y-105473464D01*
X190705180Y-105414499D01*
X190585482Y-105378189D01*
X190461000Y-105365929D01*
X188761000Y-105365929D01*
X188636518Y-105378189D01*
X188516820Y-105414499D01*
X188406506Y-105473464D01*
X188309815Y-105552816D01*
X188230463Y-105649507D01*
X188171498Y-105759821D01*
X188135188Y-105879519D01*
X188122928Y-106004001D01*
X175858816Y-106004001D01*
X175859072Y-105957000D01*
X175846812Y-105832518D01*
X175810502Y-105712820D01*
X175751537Y-105602506D01*
X175672185Y-105505815D01*
X175575494Y-105426463D01*
X175465180Y-105367498D01*
X175345482Y-105331188D01*
X175221000Y-105318928D01*
X174656750Y-105322000D01*
X174498000Y-105480750D01*
X174244000Y-105480750D01*
X174085250Y-105322000D01*
X173521000Y-105318928D01*
X173396518Y-105331188D01*
X173276820Y-105367498D01*
X173166506Y-105426463D01*
X173069815Y-105505815D01*
X172990463Y-105602506D01*
X172931498Y-105712820D01*
X172909487Y-105785380D01*
X172777632Y-105653525D01*
X172534411Y-105491010D01*
X172264158Y-105379068D01*
X171977260Y-105322000D01*
X171684740Y-105322000D01*
X171397842Y-105379068D01*
X171127589Y-105491010D01*
X170884368Y-105653525D01*
X170677525Y-105860368D01*
X170561000Y-106034760D01*
X170444475Y-105860368D01*
X170237632Y-105653525D01*
X169994411Y-105491010D01*
X169724158Y-105379068D01*
X169437260Y-105322000D01*
X169144740Y-105322000D01*
X168857842Y-105379068D01*
X168587589Y-105491010D01*
X168344368Y-105653525D01*
X168137525Y-105860368D01*
X167975010Y-106103589D01*
X167863068Y-106373842D01*
X167806000Y-106660740D01*
X159131966Y-106660740D01*
X159313022Y-106389771D01*
X159468945Y-106013340D01*
X159548434Y-105613723D01*
X159548434Y-105206277D01*
X201130124Y-105206277D01*
X201130124Y-105613723D01*
X201209613Y-106013340D01*
X201365536Y-106389771D01*
X201591901Y-106728550D01*
X201880008Y-107016657D01*
X202218787Y-107243022D01*
X202595218Y-107398945D01*
X202994835Y-107478434D01*
X203402281Y-107478434D01*
X203801898Y-107398945D01*
X204178329Y-107243022D01*
X204517108Y-107016657D01*
X204805215Y-106728550D01*
X205031580Y-106389771D01*
X205187503Y-106013340D01*
X205266992Y-105613723D01*
X205266992Y-105206277D01*
X205187503Y-104806660D01*
X205031580Y-104430229D01*
X204805215Y-104091450D01*
X204517108Y-103803343D01*
X204178329Y-103576978D01*
X203801898Y-103421055D01*
X203402281Y-103341566D01*
X202994835Y-103341566D01*
X202595218Y-103421055D01*
X202218787Y-103576978D01*
X201880008Y-103803343D01*
X201591901Y-104091450D01*
X201365536Y-104430229D01*
X201209613Y-104806660D01*
X201130124Y-105206277D01*
X159548434Y-105206277D01*
X159468945Y-104806660D01*
X159313022Y-104430229D01*
X159086657Y-104091450D01*
X158798550Y-103803343D01*
X158459771Y-103576978D01*
X158083340Y-103421055D01*
X157683723Y-103341566D01*
X157276277Y-103341566D01*
X156876660Y-103421055D01*
X156500229Y-103576978D01*
X156161450Y-103803343D01*
X155873343Y-104091450D01*
X155646978Y-104430229D01*
X155491055Y-104806660D01*
X155411566Y-105206277D01*
X149225000Y-105206277D01*
X149225000Y-102362000D01*
X208534000Y-102362000D01*
X208534000Y-129032000D01*
G04 #@! TA.AperFunction,Conductor*
D19*
G36*
X208534000Y-129032000D02*
G01*
X149225000Y-129032000D01*
X149225000Y-108559010D01*
X149503314Y-108559010D01*
X149506990Y-108596332D01*
X149506991Y-125427069D01*
X149503314Y-125464402D01*
X149506991Y-125501735D01*
X149516968Y-125603026D01*
X149517988Y-125613387D01*
X149561444Y-125756648D01*
X149632016Y-125888678D01*
X149693197Y-125963226D01*
X149726990Y-126004403D01*
X149755988Y-126028201D01*
X150577799Y-126850013D01*
X150601598Y-126879012D01*
X150630596Y-126902810D01*
X150717322Y-126973985D01*
X150762251Y-126998000D01*
X150849352Y-127044557D01*
X150992613Y-127088014D01*
X151104266Y-127099011D01*
X151104276Y-127099011D01*
X151141599Y-127102687D01*
X151178922Y-127099011D01*
X173082798Y-127099011D01*
X173849300Y-127865514D01*
X173873098Y-127894512D01*
X173988823Y-127989485D01*
X174120852Y-128060057D01*
X174264113Y-128103514D01*
X174375766Y-128114511D01*
X174375776Y-128114511D01*
X174413099Y-128118187D01*
X174450422Y-128114511D01*
X175941169Y-128114511D01*
X175978491Y-128118187D01*
X176015813Y-128114511D01*
X176015824Y-128114511D01*
X176127477Y-128103514D01*
X176270738Y-128060057D01*
X176402767Y-127989485D01*
X176518492Y-127894512D01*
X176542295Y-127865508D01*
X177676004Y-126731800D01*
X177705001Y-126708003D01*
X177710596Y-126701185D01*
X177769003Y-126749118D01*
X177918217Y-126828875D01*
X178080123Y-126877988D01*
X178248500Y-126894572D01*
X178748500Y-126894572D01*
X178916877Y-126877988D01*
X179078783Y-126828875D01*
X179227997Y-126749118D01*
X179358784Y-126641784D01*
X179431237Y-126553500D01*
X179572789Y-126553500D01*
X179616726Y-126597437D01*
X179786244Y-126710705D01*
X179974602Y-126788726D01*
X180174561Y-126828500D01*
X180378439Y-126828500D01*
X180578398Y-126788726D01*
X180766756Y-126710705D01*
X180936274Y-126597437D01*
X181080437Y-126453274D01*
X181193705Y-126283756D01*
X181271726Y-126095398D01*
X181311500Y-125895439D01*
X181311500Y-125728000D01*
X183065289Y-125728000D01*
X183109226Y-125771937D01*
X183278744Y-125885205D01*
X183467102Y-125963226D01*
X183667061Y-126003000D01*
X183729199Y-126003000D01*
X184475201Y-126749003D01*
X184498999Y-126778001D01*
X184614724Y-126872974D01*
X184746753Y-126943546D01*
X184890014Y-126987003D01*
X185001667Y-126998000D01*
X185001676Y-126998000D01*
X185038999Y-127001676D01*
X185076322Y-126998000D01*
X185382678Y-126998000D01*
X185420000Y-127001676D01*
X185457322Y-126998000D01*
X185457333Y-126998000D01*
X185568986Y-126987003D01*
X185712247Y-126943546D01*
X185844276Y-126872974D01*
X185960001Y-126778001D01*
X185983803Y-126748998D01*
X186750003Y-125982798D01*
X186779002Y-125959000D01*
X186873975Y-125843275D01*
X186935591Y-125728000D01*
X191303929Y-125728000D01*
X191332498Y-125822180D01*
X191391463Y-125932494D01*
X191470815Y-126029185D01*
X191567506Y-126108537D01*
X191677820Y-126167502D01*
X191797518Y-126203812D01*
X191922000Y-126216072D01*
X193142000Y-126216072D01*
X193266482Y-126203812D01*
X193386180Y-126167502D01*
X193496494Y-126108537D01*
X193593185Y-126029185D01*
X193672537Y-125932494D01*
X193731502Y-125822180D01*
X193760071Y-125728000D01*
X194082467Y-125728000D01*
X194104945Y-125761641D01*
X194278359Y-125935055D01*
X194482271Y-126071305D01*
X194708847Y-126165155D01*
X194949378Y-126213000D01*
X195194622Y-126213000D01*
X195435153Y-126165155D01*
X195661729Y-126071305D01*
X195865641Y-125935055D01*
X196039055Y-125761641D01*
X196175305Y-125557729D01*
X196269155Y-125331153D01*
X196317000Y-125090622D01*
X196317000Y-124845378D01*
X196309107Y-124805695D01*
X196321803Y-124792999D01*
X196377419Y-124792999D01*
X196367000Y-124845378D01*
X196367000Y-125090622D01*
X196414845Y-125331153D01*
X196508695Y-125557729D01*
X196644945Y-125761641D01*
X196818359Y-125935055D01*
X197022271Y-126071305D01*
X197248847Y-126165155D01*
X197489378Y-126213000D01*
X197734622Y-126213000D01*
X197975153Y-126165155D01*
X198201729Y-126071305D01*
X198405641Y-125935055D01*
X198579055Y-125761641D01*
X198715305Y-125557729D01*
X198809155Y-125331153D01*
X198857000Y-125090622D01*
X198857000Y-124845378D01*
X198846581Y-124792999D01*
X198902198Y-124792999D01*
X198914894Y-124805695D01*
X198907000Y-124845378D01*
X198907000Y-125090622D01*
X198954845Y-125331153D01*
X199048695Y-125557729D01*
X199184945Y-125761641D01*
X199358359Y-125935055D01*
X199562271Y-126071305D01*
X199788847Y-126165155D01*
X200029378Y-126213000D01*
X200274622Y-126213000D01*
X200515153Y-126165155D01*
X200741729Y-126071305D01*
X200945641Y-125935055D01*
X201119055Y-125761641D01*
X201255305Y-125557729D01*
X201349155Y-125331153D01*
X201397000Y-125090622D01*
X201397000Y-124845378D01*
X201389107Y-124805695D01*
X201401803Y-124792999D01*
X201457419Y-124792999D01*
X201447000Y-124845378D01*
X201447000Y-125090622D01*
X201494845Y-125331153D01*
X201588695Y-125557729D01*
X201724945Y-125761641D01*
X201898359Y-125935055D01*
X202102271Y-126071305D01*
X202328847Y-126165155D01*
X202569378Y-126213000D01*
X202814622Y-126213000D01*
X203055153Y-126165155D01*
X203281729Y-126071305D01*
X203485641Y-125935055D01*
X203659055Y-125761641D01*
X203795305Y-125557729D01*
X203889155Y-125331153D01*
X203937000Y-125090622D01*
X203937000Y-124845378D01*
X203926581Y-124792999D01*
X203982198Y-124792999D01*
X203994894Y-124805695D01*
X203987000Y-124845378D01*
X203987000Y-125090622D01*
X204034845Y-125331153D01*
X204128695Y-125557729D01*
X204264945Y-125761641D01*
X204438359Y-125935055D01*
X204642271Y-126071305D01*
X204868847Y-126165155D01*
X205109378Y-126213000D01*
X205354622Y-126213000D01*
X205595153Y-126165155D01*
X205821729Y-126071305D01*
X206025641Y-125935055D01*
X206199055Y-125761641D01*
X206335305Y-125557729D01*
X206429155Y-125331153D01*
X206477000Y-125090622D01*
X206477000Y-124845378D01*
X206429155Y-124604847D01*
X206335305Y-124378271D01*
X206199055Y-124174359D01*
X206025641Y-124000945D01*
X205821729Y-123864695D01*
X205595153Y-123770845D01*
X205354622Y-123723000D01*
X205109378Y-123723000D01*
X205069695Y-123730894D01*
X204860803Y-123522001D01*
X204837000Y-123492998D01*
X204721275Y-123398025D01*
X204589246Y-123327453D01*
X204445985Y-123283996D01*
X204334332Y-123272999D01*
X204334321Y-123272999D01*
X204296999Y-123269323D01*
X204259677Y-123272999D01*
X201124323Y-123272999D01*
X201087000Y-123269323D01*
X201049677Y-123272999D01*
X201049668Y-123272999D01*
X200938015Y-123283996D01*
X200819317Y-123320002D01*
X200794754Y-123327453D01*
X200662724Y-123398025D01*
X200596949Y-123452006D01*
X200547000Y-123492998D01*
X200523202Y-123521996D01*
X200314305Y-123730893D01*
X200274622Y-123723000D01*
X200029378Y-123723000D01*
X199989695Y-123730894D01*
X199780803Y-123522001D01*
X199757000Y-123492998D01*
X199641275Y-123398025D01*
X199509246Y-123327453D01*
X199365985Y-123283996D01*
X199254332Y-123272999D01*
X199254321Y-123272999D01*
X199216999Y-123269323D01*
X199179677Y-123272999D01*
X196044323Y-123272999D01*
X196007000Y-123269323D01*
X195969677Y-123272999D01*
X195969668Y-123272999D01*
X195858015Y-123283996D01*
X195739317Y-123320002D01*
X195714754Y-123327453D01*
X195582724Y-123398025D01*
X195516949Y-123452006D01*
X195467000Y-123492998D01*
X195443202Y-123521996D01*
X195234305Y-123730893D01*
X195194622Y-123723000D01*
X194949378Y-123723000D01*
X194708847Y-123770845D01*
X194482271Y-123864695D01*
X194278359Y-124000945D01*
X194104945Y-124174359D01*
X194082467Y-124208000D01*
X193760071Y-124208000D01*
X193731502Y-124113820D01*
X193672537Y-124003506D01*
X193593185Y-123906815D01*
X193496494Y-123827463D01*
X193386180Y-123768498D01*
X193266482Y-123732188D01*
X193142000Y-123719928D01*
X191922000Y-123719928D01*
X191797518Y-123732188D01*
X191677820Y-123768498D01*
X191567506Y-123827463D01*
X191470815Y-123906815D01*
X191391463Y-124003506D01*
X191332498Y-124113820D01*
X191303929Y-124208000D01*
X186999001Y-124208000D01*
X186999001Y-118643061D01*
X187052000Y-118643061D01*
X187052000Y-118846939D01*
X187091774Y-119046898D01*
X187169795Y-119235256D01*
X187283063Y-119404774D01*
X187427226Y-119548937D01*
X187596744Y-119662205D01*
X187785102Y-119740226D01*
X187985061Y-119780000D01*
X188188939Y-119780000D01*
X188388898Y-119740226D01*
X188577256Y-119662205D01*
X188746774Y-119548937D01*
X188890937Y-119404774D01*
X189004205Y-119235256D01*
X189082226Y-119046898D01*
X189122000Y-118846939D01*
X189122000Y-118643061D01*
X189082226Y-118443102D01*
X189004205Y-118254744D01*
X188890937Y-118085226D01*
X188847000Y-118041289D01*
X188847000Y-117789801D01*
X190373000Y-116263801D01*
X191294893Y-117185695D01*
X191287000Y-117225378D01*
X191287000Y-117470622D01*
X191334845Y-117711153D01*
X191428695Y-117937729D01*
X191564945Y-118141641D01*
X191738359Y-118315055D01*
X191942271Y-118451305D01*
X192168847Y-118545155D01*
X192409378Y-118593000D01*
X192654622Y-118593000D01*
X192895153Y-118545155D01*
X193121729Y-118451305D01*
X193325641Y-118315055D01*
X193499055Y-118141641D01*
X193635305Y-117937729D01*
X193729155Y-117711153D01*
X193777000Y-117470622D01*
X193777000Y-117225378D01*
X193729155Y-116984847D01*
X193635305Y-116758271D01*
X193499055Y-116554359D01*
X193325641Y-116380945D01*
X193121729Y-116244695D01*
X192895153Y-116150845D01*
X192654622Y-116103000D01*
X192409378Y-116103000D01*
X192369695Y-116110893D01*
X191604799Y-115345998D01*
X191613072Y-115262000D01*
X191613072Y-114862000D01*
X191596969Y-114698500D01*
X191549278Y-114541284D01*
X191471831Y-114396392D01*
X191367606Y-114269394D01*
X191328134Y-114237000D01*
X191367606Y-114204606D01*
X191394365Y-114172000D01*
X192907635Y-114172000D01*
X192934394Y-114204606D01*
X192973866Y-114237000D01*
X192934394Y-114269394D01*
X192830169Y-114396392D01*
X192752722Y-114541284D01*
X192705031Y-114698500D01*
X192688928Y-114862000D01*
X192688928Y-115262000D01*
X192705031Y-115425500D01*
X192752722Y-115582716D01*
X192830169Y-115727608D01*
X192934394Y-115854606D01*
X193061392Y-115958831D01*
X193206284Y-116036278D01*
X193363500Y-116083969D01*
X193527000Y-116100072D01*
X193765271Y-116100072D01*
X194162251Y-116497053D01*
X194104945Y-116554359D01*
X193968695Y-116758271D01*
X193874845Y-116984847D01*
X193827000Y-117225378D01*
X193827000Y-117470622D01*
X193874845Y-117711153D01*
X193968695Y-117937729D01*
X194104945Y-118141641D01*
X194278359Y-118315055D01*
X194482271Y-118451305D01*
X194708847Y-118545155D01*
X194949378Y-118593000D01*
X195194622Y-118593000D01*
X195435153Y-118545155D01*
X195661729Y-118451305D01*
X195865641Y-118315055D01*
X196039055Y-118141641D01*
X196175305Y-117937729D01*
X196269155Y-117711153D01*
X196317000Y-117470622D01*
X196317000Y-117225378D01*
X196269155Y-116984847D01*
X196175305Y-116758271D01*
X196039055Y-116554359D01*
X195865641Y-116380945D01*
X195833003Y-116359137D01*
X195835676Y-116331999D01*
X195832000Y-116294676D01*
X195832000Y-116294667D01*
X195821003Y-116183014D01*
X195818594Y-116175072D01*
X196162000Y-116175072D01*
X196325500Y-116158969D01*
X196482716Y-116111278D01*
X196627608Y-116033831D01*
X196754606Y-115929606D01*
X196787000Y-115890134D01*
X196819394Y-115929606D01*
X196852001Y-115956366D01*
X196852000Y-116358466D01*
X196818359Y-116380945D01*
X196644945Y-116554359D01*
X196508695Y-116758271D01*
X196414845Y-116984847D01*
X196367000Y-117225378D01*
X196367000Y-117470622D01*
X196414845Y-117711153D01*
X196508695Y-117937729D01*
X196644945Y-118141641D01*
X196818359Y-118315055D01*
X197022271Y-118451305D01*
X197248847Y-118545155D01*
X197489378Y-118593000D01*
X197734622Y-118593000D01*
X197975153Y-118545155D01*
X198201729Y-118451305D01*
X198405641Y-118315055D01*
X198579055Y-118141641D01*
X198601533Y-118108000D01*
X199162467Y-118108000D01*
X199184945Y-118141641D01*
X199358359Y-118315055D01*
X199562271Y-118451305D01*
X199788847Y-118545155D01*
X200029378Y-118593000D01*
X200274622Y-118593000D01*
X200515153Y-118545155D01*
X200741729Y-118451305D01*
X200945641Y-118315055D01*
X201119055Y-118141641D01*
X201255305Y-117937729D01*
X201349155Y-117711153D01*
X201397000Y-117470622D01*
X201397000Y-117225378D01*
X201349155Y-116984847D01*
X201255305Y-116758271D01*
X201119055Y-116554359D01*
X200945641Y-116380945D01*
X200741729Y-116244695D01*
X200515153Y-116150845D01*
X200274622Y-116103000D01*
X200029378Y-116103000D01*
X199788847Y-116150845D01*
X199562271Y-116244695D01*
X199358359Y-116380945D01*
X199184945Y-116554359D01*
X199162467Y-116588000D01*
X198601533Y-116588000D01*
X198579055Y-116554359D01*
X198405641Y-116380945D01*
X198372000Y-116358467D01*
X198372000Y-115956365D01*
X198404606Y-115929606D01*
X198508831Y-115802608D01*
X198586278Y-115657716D01*
X198633969Y-115500500D01*
X198650072Y-115337000D01*
X198650072Y-115021990D01*
X199926189Y-115021990D01*
X200002928Y-115098729D01*
X200002928Y-115337000D01*
X200019031Y-115500500D01*
X200066722Y-115657716D01*
X200144169Y-115802608D01*
X200248394Y-115929606D01*
X200375392Y-116033831D01*
X200520284Y-116111278D01*
X200677500Y-116158969D01*
X200841000Y-116175072D01*
X201241000Y-116175072D01*
X201404500Y-116158969D01*
X201561716Y-116111278D01*
X201706608Y-116033831D01*
X201833606Y-115929606D01*
X201866000Y-115890134D01*
X201898394Y-115929606D01*
X201932001Y-115957186D01*
X201932000Y-116358466D01*
X201898359Y-116380945D01*
X201724945Y-116554359D01*
X201588695Y-116758271D01*
X201494845Y-116984847D01*
X201447000Y-117225378D01*
X201447000Y-117470622D01*
X201494845Y-117711153D01*
X201588695Y-117937729D01*
X201724945Y-118141641D01*
X201898359Y-118315055D01*
X202102271Y-118451305D01*
X202328847Y-118545155D01*
X202569378Y-118593000D01*
X202814622Y-118593000D01*
X203055153Y-118545155D01*
X203281729Y-118451305D01*
X203485641Y-118315055D01*
X203659055Y-118141641D01*
X203681533Y-118108000D01*
X204242467Y-118108000D01*
X204264945Y-118141641D01*
X204438359Y-118315055D01*
X204642271Y-118451305D01*
X204868847Y-118545155D01*
X205109378Y-118593000D01*
X205354622Y-118593000D01*
X205595153Y-118545155D01*
X205821729Y-118451305D01*
X206025641Y-118315055D01*
X206199055Y-118141641D01*
X206335305Y-117937729D01*
X206429155Y-117711153D01*
X206477000Y-117470622D01*
X206477000Y-117225378D01*
X206429155Y-116984847D01*
X206335305Y-116758271D01*
X206199055Y-116554359D01*
X206025641Y-116380945D01*
X205821729Y-116244695D01*
X205595153Y-116150845D01*
X205354622Y-116103000D01*
X205109378Y-116103000D01*
X204868847Y-116150845D01*
X204642271Y-116244695D01*
X204438359Y-116380945D01*
X204264945Y-116554359D01*
X204242467Y-116588000D01*
X203681533Y-116588000D01*
X203659055Y-116554359D01*
X203485641Y-116380945D01*
X203452000Y-116358467D01*
X203452000Y-115955544D01*
X203483606Y-115929606D01*
X203587831Y-115802608D01*
X203665278Y-115657716D01*
X203712969Y-115500500D01*
X203729072Y-115337000D01*
X203729072Y-114787000D01*
X203712969Y-114623500D01*
X203665278Y-114466284D01*
X203587831Y-114321392D01*
X203483606Y-114194394D01*
X203356608Y-114090169D01*
X203211716Y-114012722D01*
X203054500Y-113965031D01*
X202891000Y-113948928D01*
X202491000Y-113948928D01*
X202327500Y-113965031D01*
X202170284Y-114012722D01*
X202025392Y-114090169D01*
X201898394Y-114194394D01*
X201866000Y-114233866D01*
X201833606Y-114194394D01*
X201706608Y-114090169D01*
X201561716Y-114012722D01*
X201404500Y-113965031D01*
X201241000Y-113948928D01*
X201002729Y-113948928D01*
X200804793Y-113750992D01*
X200780991Y-113721989D01*
X200665266Y-113627016D01*
X200533237Y-113556444D01*
X200389976Y-113512987D01*
X200278323Y-113501990D01*
X200278312Y-113501990D01*
X200240990Y-113498314D01*
X200203668Y-113501990D01*
X196799332Y-113501990D01*
X196762010Y-113498314D01*
X196724687Y-113501990D01*
X196724677Y-113501990D01*
X196613024Y-113512987D01*
X196487720Y-113550997D01*
X196469763Y-113556444D01*
X196337733Y-113627016D01*
X196267415Y-113684725D01*
X196222009Y-113721989D01*
X196198211Y-113750988D01*
X196000270Y-113948928D01*
X195923730Y-113948928D01*
X195131801Y-113157000D01*
X195383155Y-112905646D01*
X195500898Y-112882226D01*
X195689256Y-112804205D01*
X195858774Y-112690937D01*
X196002937Y-112546774D01*
X196116205Y-112377256D01*
X196194226Y-112188898D01*
X196234000Y-111988939D01*
X196234000Y-111785061D01*
X196194226Y-111585102D01*
X196116205Y-111396744D01*
X196002937Y-111227226D01*
X195858774Y-111083063D01*
X195689256Y-110969795D01*
X195500898Y-110891774D01*
X195300939Y-110852000D01*
X195097061Y-110852000D01*
X194897102Y-110891774D01*
X194708744Y-110969795D01*
X194539226Y-111083063D01*
X194395063Y-111227226D01*
X194281795Y-111396744D01*
X194203774Y-111585102D01*
X194164000Y-111785061D01*
X194164000Y-111975198D01*
X193765271Y-112373928D01*
X193527000Y-112373928D01*
X193363500Y-112390031D01*
X193206284Y-112437722D01*
X193061392Y-112515169D01*
X192934394Y-112619394D01*
X192907635Y-112652000D01*
X191394365Y-112652000D01*
X191367606Y-112619394D01*
X191240608Y-112515169D01*
X191095716Y-112437722D01*
X190938500Y-112390031D01*
X190775000Y-112373928D01*
X190225000Y-112373928D01*
X190061500Y-112390031D01*
X189904284Y-112437722D01*
X189759392Y-112515169D01*
X189632394Y-112619394D01*
X189528169Y-112746392D01*
X189450722Y-112891284D01*
X189403031Y-113048500D01*
X189386928Y-113212000D01*
X189386928Y-113612000D01*
X189403031Y-113775500D01*
X189450722Y-113932716D01*
X189528169Y-114077608D01*
X189632394Y-114204606D01*
X189671866Y-114237000D01*
X189632394Y-114269394D01*
X189528169Y-114396392D01*
X189450722Y-114541284D01*
X189403031Y-114698500D01*
X189386928Y-114862000D01*
X189386928Y-115100270D01*
X187575998Y-116911201D01*
X187547000Y-116934999D01*
X187523202Y-116963997D01*
X187523201Y-116963998D01*
X187452026Y-117050724D01*
X187381454Y-117182754D01*
X187363312Y-117242563D01*
X187337998Y-117326014D01*
X187330243Y-117404753D01*
X187323324Y-117475000D01*
X187327001Y-117512332D01*
X187327001Y-118041288D01*
X187283063Y-118085226D01*
X187169795Y-118254744D01*
X187091774Y-118443102D01*
X187052000Y-118643061D01*
X186999001Y-118643061D01*
X186999001Y-115531323D01*
X187002677Y-115494000D01*
X186999001Y-115456677D01*
X186999001Y-115456668D01*
X186988004Y-115345015D01*
X186944547Y-115201754D01*
X186873975Y-115069725D01*
X186834800Y-115021990D01*
X186802800Y-114982997D01*
X186802796Y-114982993D01*
X186779002Y-114954000D01*
X186750010Y-114930207D01*
X184185794Y-112365993D01*
X184161991Y-112336989D01*
X184046266Y-112242016D01*
X183914237Y-112171444D01*
X183770976Y-112127987D01*
X183659323Y-112116990D01*
X183659312Y-112116990D01*
X183621990Y-112113314D01*
X183584668Y-112116990D01*
X179586786Y-112116990D01*
X179499725Y-112070454D01*
X179356464Y-112026997D01*
X179244811Y-112016000D01*
X179244800Y-112016000D01*
X179207478Y-112012324D01*
X179170156Y-112016000D01*
X178091322Y-112016000D01*
X178053999Y-112012324D01*
X178016676Y-112016000D01*
X178016667Y-112016000D01*
X177905014Y-112026997D01*
X177761753Y-112070454D01*
X177629724Y-112141026D01*
X177629722Y-112141027D01*
X177629723Y-112141027D01*
X177542996Y-112212201D01*
X177542992Y-112212205D01*
X177513999Y-112235999D01*
X177490205Y-112264992D01*
X176367509Y-113387690D01*
X176286277Y-113321025D01*
X176154248Y-113250453D01*
X176010987Y-113206996D01*
X175899334Y-113195999D01*
X175899323Y-113195999D01*
X175862001Y-113192323D01*
X175824679Y-113195999D01*
X172250416Y-113195999D01*
X172213091Y-113192323D01*
X172175766Y-113195999D01*
X172175758Y-113195999D01*
X172064105Y-113206996D01*
X171920844Y-113250453D01*
X171788815Y-113321025D01*
X171673090Y-113415998D01*
X171649292Y-113444996D01*
X168796299Y-116297990D01*
X167791793Y-116297990D01*
X165197072Y-113703271D01*
X165197072Y-113440000D01*
X165180488Y-113271623D01*
X165131375Y-113109717D01*
X165051618Y-112960503D01*
X164993758Y-112890000D01*
X165051618Y-112819497D01*
X165056581Y-112810211D01*
X165169276Y-112749974D01*
X165285001Y-112655001D01*
X165308804Y-112625998D01*
X165901802Y-112033000D01*
X165963939Y-112033000D01*
X166163898Y-111993226D01*
X166352256Y-111915205D01*
X166521774Y-111801937D01*
X166665937Y-111657774D01*
X166779205Y-111488256D01*
X166857226Y-111299898D01*
X166897000Y-111099939D01*
X166897000Y-110896061D01*
X166857226Y-110696102D01*
X166779205Y-110507744D01*
X166665937Y-110338226D01*
X166521774Y-110194063D01*
X166352256Y-110080795D01*
X166163898Y-110002774D01*
X165963939Y-109963000D01*
X165760061Y-109963000D01*
X165560102Y-110002774D01*
X165371744Y-110080795D01*
X165202226Y-110194063D01*
X165058063Y-110338226D01*
X164944795Y-110507744D01*
X164866774Y-110696102D01*
X164827000Y-110896061D01*
X164827000Y-110958198D01*
X164682719Y-111102479D01*
X164664283Y-111092625D01*
X164502377Y-111043512D01*
X164334000Y-111026928D01*
X163834000Y-111026928D01*
X163665623Y-111043512D01*
X163503717Y-111092625D01*
X163354503Y-111172382D01*
X163223716Y-111279716D01*
X163116382Y-111410503D01*
X163036625Y-111559717D01*
X162987512Y-111721623D01*
X162970928Y-111890000D01*
X162970928Y-112340000D01*
X162987512Y-112508377D01*
X163036625Y-112670283D01*
X163116382Y-112819497D01*
X163174242Y-112890000D01*
X163161932Y-112905000D01*
X163001803Y-112905000D01*
X162276072Y-112179270D01*
X162276072Y-111941000D01*
X162259969Y-111777500D01*
X162212278Y-111620284D01*
X162134831Y-111475392D01*
X162030606Y-111348394D01*
X161903608Y-111244169D01*
X161758716Y-111166722D01*
X161601500Y-111119031D01*
X161438000Y-111102928D01*
X160888000Y-111102928D01*
X160724500Y-111119031D01*
X160567284Y-111166722D01*
X160422392Y-111244169D01*
X160295394Y-111348394D01*
X160268635Y-111381000D01*
X157073323Y-111381000D01*
X157036000Y-111377324D01*
X156998677Y-111381000D01*
X156998667Y-111381000D01*
X156887014Y-111391997D01*
X156791640Y-111420928D01*
X156443000Y-111420928D01*
X156279500Y-111437031D01*
X156122284Y-111484722D01*
X155977392Y-111562169D01*
X155850394Y-111666394D01*
X155746169Y-111793392D01*
X155668722Y-111938284D01*
X155621031Y-112095500D01*
X155604928Y-112259000D01*
X155604928Y-112623990D01*
X154877343Y-112623990D01*
X154840010Y-112620313D01*
X154802677Y-112623990D01*
X154691024Y-112634987D01*
X154547763Y-112678444D01*
X154415734Y-112749016D01*
X154300009Y-112843989D01*
X154205036Y-112959714D01*
X154134464Y-113091743D01*
X154091007Y-113235004D01*
X154076333Y-113383990D01*
X154080010Y-113421323D01*
X154080011Y-116371187D01*
X153827001Y-116624197D01*
X153827001Y-113226323D01*
X153830677Y-113189000D01*
X153827001Y-113151677D01*
X153827001Y-113151668D01*
X153816004Y-113040015D01*
X153772547Y-112896754D01*
X153701975Y-112764725D01*
X153607002Y-112649000D01*
X153578005Y-112625203D01*
X153333210Y-112380408D01*
X153377000Y-112160260D01*
X153377000Y-111867740D01*
X153319932Y-111580842D01*
X153207990Y-111310589D01*
X153045475Y-111067368D01*
X152838632Y-110860525D01*
X152664240Y-110744000D01*
X152838632Y-110627475D01*
X153045475Y-110420632D01*
X153207990Y-110177411D01*
X153319932Y-109907158D01*
X153377000Y-109620260D01*
X153377000Y-109327740D01*
X153319932Y-109040842D01*
X153207990Y-108770589D01*
X153045475Y-108527368D01*
X152913620Y-108395513D01*
X152986180Y-108373502D01*
X153096494Y-108314537D01*
X153193185Y-108235185D01*
X153272537Y-108138494D01*
X153331502Y-108028180D01*
X153367812Y-107908482D01*
X153380072Y-107784000D01*
X153380072Y-106084000D01*
X153367812Y-105959518D01*
X153331502Y-105839820D01*
X153272537Y-105729506D01*
X153193185Y-105632815D01*
X153096494Y-105553463D01*
X152986180Y-105494498D01*
X152866482Y-105458188D01*
X152742000Y-105445928D01*
X151042000Y-105445928D01*
X150917518Y-105458188D01*
X150797820Y-105494498D01*
X150687506Y-105553463D01*
X150590815Y-105632815D01*
X150511463Y-105729506D01*
X150452498Y-105839820D01*
X150416188Y-105959518D01*
X150403928Y-106084000D01*
X150403928Y-107347271D01*
X149755993Y-107995206D01*
X149726989Y-108019009D01*
X149694584Y-108058495D01*
X149632016Y-108134734D01*
X149575469Y-108240526D01*
X149561444Y-108266764D01*
X149517987Y-108410025D01*
X149506990Y-108521678D01*
X149506990Y-108521688D01*
X149503314Y-108559010D01*
X149225000Y-108559010D01*
X149225000Y-105206277D01*
X155411566Y-105206277D01*
X155411566Y-105613723D01*
X155491055Y-106013340D01*
X155646978Y-106389771D01*
X155873343Y-106728550D01*
X156161450Y-107016657D01*
X156500229Y-107243022D01*
X156876660Y-107398945D01*
X157276277Y-107478434D01*
X157683723Y-107478434D01*
X158083340Y-107398945D01*
X158459771Y-107243022D01*
X158798550Y-107016657D01*
X159086657Y-106728550D01*
X159131966Y-106660740D01*
X167806000Y-106660740D01*
X167806000Y-106953260D01*
X167863068Y-107240158D01*
X167975010Y-107510411D01*
X168137525Y-107753632D01*
X168344368Y-107960475D01*
X168531000Y-108085179D01*
X168531001Y-110100821D01*
X168344368Y-110225525D01*
X168137525Y-110432368D01*
X167975010Y-110675589D01*
X167863068Y-110945842D01*
X167806000Y-111232740D01*
X167806000Y-111525260D01*
X167863068Y-111812158D01*
X167975010Y-112082411D01*
X168137525Y-112325632D01*
X168344368Y-112532475D01*
X168587589Y-112694990D01*
X168857842Y-112806932D01*
X169144740Y-112864000D01*
X169437260Y-112864000D01*
X169724158Y-112806932D01*
X169994411Y-112694990D01*
X170237632Y-112532475D01*
X170444475Y-112325632D01*
X170561000Y-112151240D01*
X170677525Y-112325632D01*
X170884368Y-112532475D01*
X171127589Y-112694990D01*
X171397842Y-112806932D01*
X171684740Y-112864000D01*
X171977260Y-112864000D01*
X172264158Y-112806932D01*
X172534411Y-112694990D01*
X172777632Y-112532475D01*
X172909487Y-112400620D01*
X172931498Y-112473180D01*
X172990463Y-112583494D01*
X173069815Y-112680185D01*
X173166506Y-112759537D01*
X173276820Y-112818502D01*
X173396518Y-112854812D01*
X173521000Y-112867072D01*
X174085250Y-112864000D01*
X174244000Y-112705250D01*
X174244000Y-111506000D01*
X174498000Y-111506000D01*
X174498000Y-112705250D01*
X174656750Y-112864000D01*
X175221000Y-112867072D01*
X175345482Y-112854812D01*
X175465180Y-112818502D01*
X175575494Y-112759537D01*
X175672185Y-112680185D01*
X175751537Y-112583494D01*
X175810502Y-112473180D01*
X175846812Y-112353482D01*
X175859072Y-112229000D01*
X175856000Y-111664750D01*
X175697250Y-111506000D01*
X174498000Y-111506000D01*
X174244000Y-111506000D01*
X174224000Y-111506000D01*
X174224000Y-111252000D01*
X174244000Y-111252000D01*
X174244000Y-110052750D01*
X174498000Y-110052750D01*
X174498000Y-111252000D01*
X175697250Y-111252000D01*
X175856000Y-111093250D01*
X175859072Y-110529000D01*
X175846812Y-110404518D01*
X175810502Y-110284820D01*
X175751537Y-110174506D01*
X175672185Y-110077815D01*
X175575494Y-109998463D01*
X175465180Y-109939498D01*
X175345482Y-109903188D01*
X175221000Y-109890928D01*
X174656750Y-109894000D01*
X174498000Y-110052750D01*
X174244000Y-110052750D01*
X174085250Y-109894000D01*
X173521000Y-109890928D01*
X173396518Y-109903188D01*
X173276820Y-109939498D01*
X173166506Y-109998463D01*
X173069815Y-110077815D01*
X172990463Y-110174506D01*
X172931498Y-110284820D01*
X172909487Y-110357380D01*
X172777632Y-110225525D01*
X172534411Y-110063010D01*
X172264158Y-109951068D01*
X171977260Y-109894000D01*
X171684740Y-109894000D01*
X171397842Y-109951068D01*
X171127589Y-110063010D01*
X170884368Y-110225525D01*
X170677525Y-110432368D01*
X170561000Y-110606760D01*
X170444475Y-110432368D01*
X170237632Y-110225525D01*
X170051000Y-110100822D01*
X170051000Y-108085178D01*
X170237632Y-107960475D01*
X170444475Y-107753632D01*
X170561000Y-107579240D01*
X170677525Y-107753632D01*
X170884368Y-107960475D01*
X171127589Y-108122990D01*
X171397842Y-108234932D01*
X171684740Y-108292000D01*
X171977260Y-108292000D01*
X172264158Y-108234932D01*
X172534411Y-108122990D01*
X172777632Y-107960475D01*
X172909487Y-107828620D01*
X172931498Y-107901180D01*
X172990463Y-108011494D01*
X173069815Y-108108185D01*
X173166506Y-108187537D01*
X173276820Y-108246502D01*
X173396518Y-108282812D01*
X173521000Y-108295072D01*
X174085250Y-108292000D01*
X174244000Y-108133250D01*
X174244000Y-106934000D01*
X174498000Y-106934000D01*
X174498000Y-108133250D01*
X174656750Y-108292000D01*
X175221000Y-108295072D01*
X175345482Y-108282812D01*
X175465180Y-108246502D01*
X175575494Y-108187537D01*
X175672185Y-108108185D01*
X175751537Y-108011494D01*
X175810502Y-107901180D01*
X175846812Y-107781482D01*
X175859072Y-107657000D01*
X175856000Y-107092750D01*
X175697250Y-106934000D01*
X174498000Y-106934000D01*
X174244000Y-106934000D01*
X174224000Y-106934000D01*
X174224000Y-106680000D01*
X174244000Y-106680000D01*
X174244000Y-105480750D01*
X174498000Y-105480750D01*
X174498000Y-106680000D01*
X175697250Y-106680000D01*
X175856000Y-106521250D01*
X175858816Y-106004001D01*
X188122928Y-106004001D01*
X188122928Y-107704001D01*
X188135188Y-107828483D01*
X188171498Y-107948181D01*
X188230463Y-108058495D01*
X188309815Y-108155186D01*
X188406506Y-108234538D01*
X188516820Y-108293503D01*
X188589380Y-108315514D01*
X188457525Y-108447369D01*
X188295010Y-108690590D01*
X188183068Y-108960843D01*
X188126000Y-109247741D01*
X188126000Y-109540261D01*
X188183068Y-109827159D01*
X188295010Y-110097412D01*
X188457525Y-110340633D01*
X188664368Y-110547476D01*
X188907589Y-110709991D01*
X189177842Y-110821933D01*
X189464740Y-110879001D01*
X189757260Y-110879001D01*
X190044158Y-110821933D01*
X190314411Y-110709991D01*
X190557632Y-110547476D01*
X190764475Y-110340633D01*
X190881000Y-110166241D01*
X190997525Y-110340633D01*
X191204368Y-110547476D01*
X191447589Y-110709991D01*
X191717842Y-110821933D01*
X192004740Y-110879001D01*
X192297260Y-110879001D01*
X192584158Y-110821933D01*
X192854411Y-110709991D01*
X193097632Y-110547476D01*
X193304475Y-110340633D01*
X193466990Y-110097412D01*
X193578932Y-109827159D01*
X193636000Y-109540261D01*
X193636000Y-109247741D01*
X193578932Y-108960843D01*
X193466990Y-108690590D01*
X193304475Y-108447369D01*
X193097632Y-108240526D01*
X192923240Y-108124001D01*
X193097632Y-108007476D01*
X193304475Y-107800633D01*
X193466990Y-107557412D01*
X193578932Y-107287159D01*
X193636000Y-107000261D01*
X193636000Y-106707741D01*
X193578932Y-106420843D01*
X193466990Y-106150590D01*
X193304475Y-105907369D01*
X193097632Y-105700526D01*
X192854411Y-105538011D01*
X192584158Y-105426069D01*
X192297260Y-105369001D01*
X192004740Y-105369001D01*
X191717842Y-105426069D01*
X191447589Y-105538011D01*
X191204368Y-105700526D01*
X191072513Y-105832381D01*
X191050502Y-105759821D01*
X190991537Y-105649507D01*
X190912185Y-105552816D01*
X190815494Y-105473464D01*
X190705180Y-105414499D01*
X190585482Y-105378189D01*
X190461000Y-105365929D01*
X188761000Y-105365929D01*
X188636518Y-105378189D01*
X188516820Y-105414499D01*
X188406506Y-105473464D01*
X188309815Y-105552816D01*
X188230463Y-105649507D01*
X188171498Y-105759821D01*
X188135188Y-105879519D01*
X188122928Y-106004001D01*
X175858816Y-106004001D01*
X175859072Y-105957000D01*
X175846812Y-105832518D01*
X175810502Y-105712820D01*
X175751537Y-105602506D01*
X175672185Y-105505815D01*
X175575494Y-105426463D01*
X175465180Y-105367498D01*
X175345482Y-105331188D01*
X175221000Y-105318928D01*
X174656750Y-105322000D01*
X174498000Y-105480750D01*
X174244000Y-105480750D01*
X174085250Y-105322000D01*
X173521000Y-105318928D01*
X173396518Y-105331188D01*
X173276820Y-105367498D01*
X173166506Y-105426463D01*
X173069815Y-105505815D01*
X172990463Y-105602506D01*
X172931498Y-105712820D01*
X172909487Y-105785380D01*
X172777632Y-105653525D01*
X172534411Y-105491010D01*
X172264158Y-105379068D01*
X171977260Y-105322000D01*
X171684740Y-105322000D01*
X171397842Y-105379068D01*
X171127589Y-105491010D01*
X170884368Y-105653525D01*
X170677525Y-105860368D01*
X170561000Y-106034760D01*
X170444475Y-105860368D01*
X170237632Y-105653525D01*
X169994411Y-105491010D01*
X169724158Y-105379068D01*
X169437260Y-105322000D01*
X169144740Y-105322000D01*
X168857842Y-105379068D01*
X168587589Y-105491010D01*
X168344368Y-105653525D01*
X168137525Y-105860368D01*
X167975010Y-106103589D01*
X167863068Y-106373842D01*
X167806000Y-106660740D01*
X159131966Y-106660740D01*
X159313022Y-106389771D01*
X159468945Y-106013340D01*
X159548434Y-105613723D01*
X159548434Y-105206277D01*
X201130124Y-105206277D01*
X201130124Y-105613723D01*
X201209613Y-106013340D01*
X201365536Y-106389771D01*
X201591901Y-106728550D01*
X201880008Y-107016657D01*
X202218787Y-107243022D01*
X202595218Y-107398945D01*
X202994835Y-107478434D01*
X203402281Y-107478434D01*
X203801898Y-107398945D01*
X204178329Y-107243022D01*
X204517108Y-107016657D01*
X204805215Y-106728550D01*
X205031580Y-106389771D01*
X205187503Y-106013340D01*
X205266992Y-105613723D01*
X205266992Y-105206277D01*
X205187503Y-104806660D01*
X205031580Y-104430229D01*
X204805215Y-104091450D01*
X204517108Y-103803343D01*
X204178329Y-103576978D01*
X203801898Y-103421055D01*
X203402281Y-103341566D01*
X202994835Y-103341566D01*
X202595218Y-103421055D01*
X202218787Y-103576978D01*
X201880008Y-103803343D01*
X201591901Y-104091450D01*
X201365536Y-104430229D01*
X201209613Y-104806660D01*
X201130124Y-105206277D01*
X159548434Y-105206277D01*
X159468945Y-104806660D01*
X159313022Y-104430229D01*
X159086657Y-104091450D01*
X158798550Y-103803343D01*
X158459771Y-103576978D01*
X158083340Y-103421055D01*
X157683723Y-103341566D01*
X157276277Y-103341566D01*
X156876660Y-103421055D01*
X156500229Y-103576978D01*
X156161450Y-103803343D01*
X155873343Y-104091450D01*
X155646978Y-104430229D01*
X155491055Y-104806660D01*
X155411566Y-105206277D01*
X149225000Y-105206277D01*
X149225000Y-102362000D01*
X208534000Y-102362000D01*
X208534000Y-129032000D01*
G37*
G04 #@! TD.AperFunction*
D18*
X156807750Y-124714000D02*
X157607000Y-124714000D01*
X157607000Y-124694000D01*
X157861000Y-124694000D01*
X157861000Y-124714000D01*
X157881000Y-124714000D01*
X157881000Y-124968000D01*
X157861000Y-124968000D01*
X157861000Y-124988000D01*
X157607000Y-124988000D01*
X157607000Y-124968000D01*
X156807750Y-124968000D01*
X156649000Y-125126750D01*
X156648963Y-125129001D01*
X153323544Y-125129001D01*
X153377000Y-124860260D01*
X153377000Y-124624001D01*
X156717751Y-124624001D01*
X156807750Y-124714000D01*
G04 #@! TA.AperFunction,Conductor*
D19*
G36*
X156807750Y-124714000D02*
G01*
X157607000Y-124714000D01*
X157607000Y-124694000D01*
X157861000Y-124694000D01*
X157861000Y-124714000D01*
X157881000Y-124714000D01*
X157881000Y-124968000D01*
X157861000Y-124968000D01*
X157861000Y-124988000D01*
X157607000Y-124988000D01*
X157607000Y-124968000D01*
X156807750Y-124968000D01*
X156649000Y-125126750D01*
X156648963Y-125129001D01*
X153323544Y-125129001D01*
X153377000Y-124860260D01*
X153377000Y-124624001D01*
X156717751Y-124624001D01*
X156807750Y-124714000D01*
G37*
G04 #@! TD.AperFunction*
D18*
X178625500Y-124129500D02*
X178645500Y-124129500D01*
X178645500Y-124383500D01*
X178625500Y-124383500D01*
X178625500Y-124403500D01*
X178371500Y-124403500D01*
X178371500Y-124383500D01*
X178351500Y-124383500D01*
X178351500Y-124129500D01*
X178371500Y-124129500D01*
X178371500Y-124109500D01*
X178625500Y-124109500D01*
X178625500Y-124129500D01*
G04 #@! TA.AperFunction,Conductor*
D19*
G36*
X178625500Y-124129500D02*
G01*
X178645500Y-124129500D01*
X178645500Y-124383500D01*
X178625500Y-124383500D01*
X178625500Y-124403500D01*
X178371500Y-124403500D01*
X178371500Y-124383500D01*
X178351500Y-124383500D01*
X178351500Y-124129500D01*
X178371500Y-124129500D01*
X178371500Y-124109500D01*
X178625500Y-124109500D01*
X178625500Y-124129500D01*
G37*
G04 #@! TD.AperFunction*
D18*
X185028991Y-122049000D02*
X184927013Y-122049000D01*
X184940205Y-122029256D01*
X185018226Y-121840898D01*
X185024388Y-121809922D01*
X185028991Y-121809006D01*
X185028991Y-122049000D01*
G04 #@! TA.AperFunction,Conductor*
D19*
G36*
X185028991Y-122049000D02*
G01*
X184927013Y-122049000D01*
X184940205Y-122029256D01*
X185018226Y-121840898D01*
X185024388Y-121809922D01*
X185028991Y-121809006D01*
X185028991Y-122049000D01*
G37*
G04 #@! TD.AperFunction*
D18*
X182391000Y-121666000D02*
X182371000Y-121666000D01*
X182371000Y-121686000D01*
X182117000Y-121686000D01*
X182117000Y-121666000D01*
X182097000Y-121666000D01*
X182097000Y-121498990D01*
X182391000Y-121498990D01*
X182391000Y-121666000D01*
G04 #@! TA.AperFunction,Conductor*
D19*
G36*
X182391000Y-121666000D02*
G01*
X182371000Y-121666000D01*
X182371000Y-121686000D01*
X182117000Y-121686000D01*
X182117000Y-121666000D01*
X182097000Y-121666000D01*
X182097000Y-121498990D01*
X182391000Y-121498990D01*
X182391000Y-121666000D01*
G37*
G04 #@! TD.AperFunction*
D18*
X179930795Y-114282256D02*
X180044063Y-114451774D01*
X180188226Y-114595937D01*
X180357744Y-114709205D01*
X180546102Y-114787226D01*
X180746061Y-114827000D01*
X180808199Y-114827000D01*
X181395000Y-115413802D01*
X181394999Y-117474676D01*
X181391323Y-117511999D01*
X181394999Y-117549321D01*
X181394999Y-117549331D01*
X181405924Y-117660251D01*
X181282717Y-117697625D01*
X181133503Y-117777382D01*
X181002716Y-117884716D01*
X180930500Y-117972712D01*
X180930500Y-117944561D01*
X180890726Y-117744602D01*
X180812705Y-117556244D01*
X180699437Y-117386726D01*
X180555274Y-117242563D01*
X180385756Y-117129295D01*
X180197398Y-117051274D01*
X179997439Y-117011500D01*
X179793561Y-117011500D01*
X179593602Y-117051274D01*
X179405244Y-117129295D01*
X179235726Y-117242563D01*
X179091563Y-117386726D01*
X179033917Y-117473000D01*
X176372087Y-117473000D01*
X176358890Y-117339009D01*
X176337339Y-117267963D01*
X177593302Y-116012000D01*
X177921635Y-116012000D01*
X177948394Y-116044606D01*
X178075392Y-116148831D01*
X178220284Y-116226278D01*
X178377500Y-116273969D01*
X178541000Y-116290072D01*
X179091000Y-116290072D01*
X179227599Y-116276618D01*
X179295795Y-116441256D01*
X179409063Y-116610774D01*
X179553226Y-116754937D01*
X179722744Y-116868205D01*
X179911102Y-116946226D01*
X180111061Y-116986000D01*
X180314939Y-116986000D01*
X180514898Y-116946226D01*
X180703256Y-116868205D01*
X180872774Y-116754937D01*
X181016937Y-116610774D01*
X181130205Y-116441256D01*
X181208226Y-116252898D01*
X181248000Y-116052939D01*
X181248000Y-115849061D01*
X181208226Y-115649102D01*
X181130205Y-115460744D01*
X181016937Y-115291226D01*
X180872774Y-115147063D01*
X180703256Y-115033795D01*
X180514898Y-114955774D01*
X180314939Y-114916000D01*
X180252801Y-114916000D01*
X180077803Y-114741002D01*
X180054001Y-114711999D01*
X179938276Y-114617026D01*
X179806247Y-114546454D01*
X179738086Y-114525778D01*
X179704137Y-114484410D01*
X179742185Y-114453185D01*
X179821537Y-114356494D01*
X179880502Y-114246180D01*
X179895446Y-114196916D01*
X179930795Y-114282256D01*
G04 #@! TA.AperFunction,Conductor*
D19*
G36*
X179930795Y-114282256D02*
G01*
X180044063Y-114451774D01*
X180188226Y-114595937D01*
X180357744Y-114709205D01*
X180546102Y-114787226D01*
X180746061Y-114827000D01*
X180808199Y-114827000D01*
X181395000Y-115413802D01*
X181394999Y-117474676D01*
X181391323Y-117511999D01*
X181394999Y-117549321D01*
X181394999Y-117549331D01*
X181405924Y-117660251D01*
X181282717Y-117697625D01*
X181133503Y-117777382D01*
X181002716Y-117884716D01*
X180930500Y-117972712D01*
X180930500Y-117944561D01*
X180890726Y-117744602D01*
X180812705Y-117556244D01*
X180699437Y-117386726D01*
X180555274Y-117242563D01*
X180385756Y-117129295D01*
X180197398Y-117051274D01*
X179997439Y-117011500D01*
X179793561Y-117011500D01*
X179593602Y-117051274D01*
X179405244Y-117129295D01*
X179235726Y-117242563D01*
X179091563Y-117386726D01*
X179033917Y-117473000D01*
X176372087Y-117473000D01*
X176358890Y-117339009D01*
X176337339Y-117267963D01*
X177593302Y-116012000D01*
X177921635Y-116012000D01*
X177948394Y-116044606D01*
X178075392Y-116148831D01*
X178220284Y-116226278D01*
X178377500Y-116273969D01*
X178541000Y-116290072D01*
X179091000Y-116290072D01*
X179227599Y-116276618D01*
X179295795Y-116441256D01*
X179409063Y-116610774D01*
X179553226Y-116754937D01*
X179722744Y-116868205D01*
X179911102Y-116946226D01*
X180111061Y-116986000D01*
X180314939Y-116986000D01*
X180514898Y-116946226D01*
X180703256Y-116868205D01*
X180872774Y-116754937D01*
X181016937Y-116610774D01*
X181130205Y-116441256D01*
X181208226Y-116252898D01*
X181248000Y-116052939D01*
X181248000Y-115849061D01*
X181208226Y-115649102D01*
X181130205Y-115460744D01*
X181016937Y-115291226D01*
X180872774Y-115147063D01*
X180703256Y-115033795D01*
X180514898Y-114955774D01*
X180314939Y-114916000D01*
X180252801Y-114916000D01*
X180077803Y-114741002D01*
X180054001Y-114711999D01*
X179938276Y-114617026D01*
X179806247Y-114546454D01*
X179738086Y-114525778D01*
X179704137Y-114484410D01*
X179742185Y-114453185D01*
X179821537Y-114356494D01*
X179880502Y-114246180D01*
X179895446Y-114196916D01*
X179930795Y-114282256D01*
G37*
G04 #@! TD.AperFunction*
D18*
X152019000Y-116967000D02*
X152039000Y-116967000D01*
X152039000Y-117221000D01*
X152019000Y-117221000D01*
X152019000Y-117241000D01*
X151765000Y-117241000D01*
X151765000Y-117221000D01*
X151745000Y-117221000D01*
X151745000Y-116967000D01*
X151765000Y-116967000D01*
X151765000Y-116947000D01*
X152019000Y-116947000D01*
X152019000Y-116967000D01*
G04 #@! TA.AperFunction,Conductor*
D19*
G36*
X152019000Y-116967000D02*
G01*
X152039000Y-116967000D01*
X152039000Y-117221000D01*
X152019000Y-117221000D01*
X152019000Y-117241000D01*
X151765000Y-117241000D01*
X151765000Y-117221000D01*
X151745000Y-117221000D01*
X151745000Y-116967000D01*
X151765000Y-116967000D01*
X151765000Y-116947000D01*
X152019000Y-116947000D01*
X152019000Y-116967000D01*
G37*
G04 #@! TD.AperFunction*
D18*
X178963000Y-113554088D02*
X178963000Y-113729000D01*
X178943000Y-113729000D01*
X178943000Y-113749000D01*
X178689000Y-113749000D01*
X178689000Y-113729000D01*
X178669000Y-113729000D01*
X178669000Y-113536000D01*
X178929160Y-113536000D01*
X178963000Y-113554088D01*
G04 #@! TA.AperFunction,Conductor*
D19*
G36*
X178963000Y-113554088D02*
G01*
X178963000Y-113729000D01*
X178943000Y-113729000D01*
X178943000Y-113749000D01*
X178689000Y-113749000D01*
X178689000Y-113729000D01*
X178669000Y-113729000D01*
X178669000Y-113536000D01*
X178929160Y-113536000D01*
X178963000Y-113554088D01*
G37*
G04 #@! TD.AperFunction*
M02*
