M48
; DRILL file {KiCad (5.1.8)-1} date 02/01/21 15:09:43
; FORMAT={-:-/ absolute / metric / decimal}
; #@! TF.CreationDate,2021-02-01T15:09:43-08:00
; #@! TF.GenerationSoftware,Kicad,Pcbnew,(5.1.8)-1
; #@! TF.FileFunction,Plated,1,2,PTH
FMAT,2
METRIC
T1C0.300
T2C0.400
T3C0.810
T4C1.000
%
G90
G05
T1
X170.785Y-117.908
X170.785Y-119.208
X170.785Y-120.508
X170.785Y-121.808
X170.785Y-123.108
X170.785Y-124.408
X172.085Y-117.908
X172.085Y-119.208
X172.085Y-120.508
X172.085Y-121.808
X172.085Y-123.108
X172.085Y-124.408
X173.385Y-117.908
X173.385Y-119.208
X173.385Y-120.508
X173.385Y-121.808
X173.385Y-123.108
X173.385Y-124.408
T2
X154.813Y-122.682
X155.448Y-124.841
X155.448Y-127.825
X157.734Y-117.602
X165.862Y-110.998
X174.947Y-126.179
X175.514Y-114.681
X176.403Y-125.857
X179.895Y-118.046
X180.086Y-111.887
X180.213Y-115.951
X180.276Y-125.793
X180.467Y-114.935
X180.848Y-113.792
X182.88Y-115.316
X183.769Y-124.968
X184.023Y-121.539
X184.277Y-123.698
X184.785Y-119.634
X184.912Y-120.777
X184.912Y-122.047
X187.452Y-122.047
X188.087Y-118.745
X195.199Y-111.887
T3
X192.532Y-117.348
X192.532Y-124.968
X195.072Y-117.348
X195.072Y-124.968
X197.612Y-117.348
X197.612Y-124.968
X200.152Y-117.348
X200.152Y-124.968
X202.692Y-117.348
X202.692Y-124.968
X205.232Y-117.348
X205.232Y-124.968
T4
X189.611Y-106.854
X189.611Y-109.394
X192.151Y-106.854
X192.151Y-109.394
X169.291Y-111.379
X171.831Y-111.379
X174.371Y-111.379
X169.291Y-106.807
X171.831Y-106.807
X174.371Y-106.807
X151.892Y-106.934
X151.892Y-109.474
X151.892Y-112.014
X151.892Y-114.554
X151.892Y-117.094
X151.892Y-119.634
X151.892Y-122.174
X151.892Y-124.714
T0
M30
