G04 #@! TF.GenerationSoftware,KiCad,Pcbnew,(5.1.8)-1*
G04 #@! TF.CreationDate,2021-02-01T15:09:39-08:00*
G04 #@! TF.ProjectId,Modular_single_driver_Driver,4d6f6475-6c61-4725-9f73-696e676c655f,rev?*
G04 #@! TF.SameCoordinates,Original*
G04 #@! TF.FileFunction,Legend,Top*
G04 #@! TF.FilePolarity,Positive*
%FSLAX46Y46*%
G04 Gerber Fmt 4.6, Leading zero omitted, Abs format (unit mm)*
G04 Created by KiCad (PCBNEW (5.1.8)-1) date 2021-02-01 15:09:39*
%MOMM*%
%LPD*%
G01*
G04 APERTURE LIST*
%ADD10C,0.150000*%
%ADD11C,0.300000*%
%ADD12C,0.120000*%
%ADD13C,0.127000*%
%ADD14C,0.200000*%
%ADD15C,0.015000*%
G04 APERTURE END LIST*
D10*
X166997238Y-104909880D02*
X166997238Y-103909880D01*
X167378190Y-103909880D01*
X167473428Y-103957500D01*
X167521047Y-104005119D01*
X167568666Y-104100357D01*
X167568666Y-104243214D01*
X167521047Y-104338452D01*
X167473428Y-104386071D01*
X167378190Y-104433690D01*
X166997238Y-104433690D01*
X167902000Y-103909880D02*
X168140095Y-104909880D01*
X168330571Y-104195595D01*
X168521047Y-104909880D01*
X168759142Y-103909880D01*
X169140095Y-104909880D02*
X169140095Y-103909880D01*
X169473428Y-104624166D01*
X169806761Y-103909880D01*
X169806761Y-104909880D01*
X171069095Y-103894000D02*
X170973857Y-103846380D01*
X170831000Y-103846380D01*
X170688142Y-103894000D01*
X170592904Y-103989238D01*
X170545285Y-104084476D01*
X170497666Y-104274952D01*
X170497666Y-104417809D01*
X170545285Y-104608285D01*
X170592904Y-104703523D01*
X170688142Y-104798761D01*
X170831000Y-104846380D01*
X170926238Y-104846380D01*
X171069095Y-104798761D01*
X171116714Y-104751142D01*
X171116714Y-104417809D01*
X170926238Y-104417809D01*
X171545285Y-104846380D02*
X171545285Y-103846380D01*
X172116714Y-104846380D01*
X172116714Y-103846380D01*
X172592904Y-104846380D02*
X172592904Y-103846380D01*
X172831000Y-103846380D01*
X172973857Y-103894000D01*
X173069095Y-103989238D01*
X173116714Y-104084476D01*
X173164333Y-104274952D01*
X173164333Y-104417809D01*
X173116714Y-104608285D01*
X173069095Y-104703523D01*
X172973857Y-104798761D01*
X172831000Y-104846380D01*
X172592904Y-104846380D01*
X173466285Y-104338428D02*
X174228190Y-104338428D01*
X173847238Y-104719380D02*
X173847238Y-103957476D01*
X175180571Y-103719380D02*
X174704380Y-103719380D01*
X174656761Y-104195571D01*
X174704380Y-104147952D01*
X174799619Y-104100333D01*
X175037714Y-104100333D01*
X175132952Y-104147952D01*
X175180571Y-104195571D01*
X175228190Y-104290809D01*
X175228190Y-104528904D01*
X175180571Y-104624142D01*
X175132952Y-104671761D01*
X175037714Y-104719380D01*
X174799619Y-104719380D01*
X174704380Y-104671761D01*
X174656761Y-104624142D01*
X175513904Y-103719380D02*
X175847238Y-104719380D01*
X176180571Y-103719380D01*
X171100904Y-109323166D02*
X171577095Y-109323166D01*
X171005666Y-109608880D02*
X171339000Y-108608880D01*
X171672333Y-109608880D01*
X172005666Y-109608880D02*
X172005666Y-108608880D01*
X172243761Y-108608880D01*
X172386619Y-108656500D01*
X172481857Y-108751738D01*
X172529476Y-108846976D01*
X172577095Y-109037452D01*
X172577095Y-109180309D01*
X172529476Y-109370785D01*
X172481857Y-109466023D01*
X172386619Y-109561261D01*
X172243761Y-109608880D01*
X172005666Y-109608880D01*
X173577095Y-109513642D02*
X173529476Y-109561261D01*
X173386619Y-109608880D01*
X173291380Y-109608880D01*
X173148523Y-109561261D01*
X173053285Y-109466023D01*
X173005666Y-109370785D01*
X172958047Y-109180309D01*
X172958047Y-109037452D01*
X173005666Y-108846976D01*
X173053285Y-108751738D01*
X173148523Y-108656500D01*
X173291380Y-108608880D01*
X173386619Y-108608880D01*
X173529476Y-108656500D01*
X173577095Y-108704119D01*
X185483595Y-109037500D02*
X185388357Y-108989880D01*
X185245500Y-108989880D01*
X185102642Y-109037500D01*
X185007404Y-109132738D01*
X184959785Y-109227976D01*
X184912166Y-109418452D01*
X184912166Y-109561309D01*
X184959785Y-109751785D01*
X185007404Y-109847023D01*
X185102642Y-109942261D01*
X185245500Y-109989880D01*
X185340738Y-109989880D01*
X185483595Y-109942261D01*
X185531214Y-109894642D01*
X185531214Y-109561309D01*
X185340738Y-109561309D01*
X185959785Y-109989880D02*
X185959785Y-108989880D01*
X186531214Y-109989880D01*
X186531214Y-108989880D01*
X187007404Y-109989880D02*
X187007404Y-108989880D01*
X187245500Y-108989880D01*
X187388357Y-109037500D01*
X187483595Y-109132738D01*
X187531214Y-109227976D01*
X187578833Y-109418452D01*
X187578833Y-109561309D01*
X187531214Y-109751785D01*
X187483595Y-109847023D01*
X187388357Y-109942261D01*
X187245500Y-109989880D01*
X187007404Y-109989880D01*
D11*
X197040571Y-128059642D02*
X198183428Y-128059642D01*
X202247571Y-128123142D02*
X203390428Y-128123142D01*
X204787571Y-128059642D02*
X205930428Y-128059642D01*
X205359000Y-128631071D02*
X205359000Y-127488214D01*
X199644071Y-128123142D02*
X200786928Y-128123142D01*
X200215500Y-128694571D02*
X200215500Y-127551714D01*
D10*
X202779452Y-127198380D02*
X202779452Y-126198380D01*
X203017547Y-126198380D01*
X203160404Y-126246000D01*
X203255642Y-126341238D01*
X203303261Y-126436476D01*
X203350880Y-126626952D01*
X203350880Y-126769809D01*
X203303261Y-126960285D01*
X203255642Y-127055523D01*
X203160404Y-127150761D01*
X203017547Y-127198380D01*
X202779452Y-127198380D01*
X203731833Y-126912666D02*
X204208023Y-126912666D01*
X203636595Y-127198380D02*
X203969928Y-126198380D01*
X204303261Y-127198380D01*
X204588976Y-126912666D02*
X205065166Y-126912666D01*
X204493738Y-127198380D02*
X204827071Y-126198380D01*
X205160404Y-127198380D01*
X198112142Y-127039642D02*
X198064523Y-127087261D01*
X197921666Y-127134880D01*
X197826428Y-127134880D01*
X197683571Y-127087261D01*
X197588333Y-126992023D01*
X197540714Y-126896785D01*
X197493095Y-126706309D01*
X197493095Y-126563452D01*
X197540714Y-126372976D01*
X197588333Y-126277738D01*
X197683571Y-126182500D01*
X197826428Y-126134880D01*
X197921666Y-126134880D01*
X198064523Y-126182500D01*
X198112142Y-126230119D01*
X198540714Y-127134880D02*
X198540714Y-126134880D01*
X198874047Y-126849166D01*
X199207380Y-126134880D01*
X199207380Y-127134880D01*
X199540714Y-126134880D02*
X200112142Y-126134880D01*
X199826428Y-127134880D02*
X199826428Y-126134880D01*
X194587857Y-128960571D02*
X194254523Y-128960571D01*
X194254523Y-129484380D02*
X194254523Y-128484380D01*
X194730714Y-128484380D01*
X195683095Y-129484380D02*
X195349761Y-129008190D01*
X195111666Y-129484380D02*
X195111666Y-128484380D01*
X195492619Y-128484380D01*
X195587857Y-128532000D01*
X195635476Y-128579619D01*
X195683095Y-128674857D01*
X195683095Y-128817714D01*
X195635476Y-128912952D01*
X195587857Y-128960571D01*
X195492619Y-129008190D01*
X195111666Y-129008190D01*
X190904928Y-127119071D02*
X191047785Y-127166690D01*
X191095404Y-127214309D01*
X191143023Y-127309547D01*
X191143023Y-127452404D01*
X191095404Y-127547642D01*
X191047785Y-127595261D01*
X190952547Y-127642880D01*
X190571595Y-127642880D01*
X190571595Y-126642880D01*
X190904928Y-126642880D01*
X191000166Y-126690500D01*
X191047785Y-126738119D01*
X191095404Y-126833357D01*
X191095404Y-126928595D01*
X191047785Y-127023833D01*
X191000166Y-127071452D01*
X190904928Y-127119071D01*
X190571595Y-127119071D01*
X192143023Y-127642880D02*
X191809690Y-127166690D01*
X191571595Y-127642880D02*
X191571595Y-126642880D01*
X191952547Y-126642880D01*
X192047785Y-126690500D01*
X192095404Y-126738119D01*
X192143023Y-126833357D01*
X192143023Y-126976214D01*
X192095404Y-127071452D01*
X192047785Y-127119071D01*
X191952547Y-127166690D01*
X191571595Y-127166690D01*
X192571595Y-127642880D02*
X192571595Y-126642880D01*
X193143023Y-127642880D02*
X192714452Y-127071452D01*
X193143023Y-126642880D02*
X192571595Y-127214309D01*
X195135523Y-109735880D02*
X194802190Y-109259690D01*
X194564095Y-109735880D02*
X194564095Y-108735880D01*
X194945047Y-108735880D01*
X195040285Y-108783500D01*
X195087904Y-108831119D01*
X195135523Y-108926357D01*
X195135523Y-109069214D01*
X195087904Y-109164452D01*
X195040285Y-109212071D01*
X194945047Y-109259690D01*
X194564095Y-109259690D01*
X195564095Y-109735880D02*
X195564095Y-108735880D01*
X195802190Y-108735880D01*
X195945047Y-108783500D01*
X196040285Y-108878738D01*
X196087904Y-108973976D01*
X196135523Y-109164452D01*
X196135523Y-109307309D01*
X196087904Y-109497785D01*
X196040285Y-109593023D01*
X195945047Y-109688261D01*
X195802190Y-109735880D01*
X195564095Y-109735880D01*
X194945095Y-106180000D02*
X194849857Y-106132380D01*
X194707000Y-106132380D01*
X194564142Y-106180000D01*
X194468904Y-106275238D01*
X194421285Y-106370476D01*
X194373666Y-106560952D01*
X194373666Y-106703809D01*
X194421285Y-106894285D01*
X194468904Y-106989523D01*
X194564142Y-107084761D01*
X194707000Y-107132380D01*
X194802238Y-107132380D01*
X194945095Y-107084761D01*
X194992714Y-107037142D01*
X194992714Y-106703809D01*
X194802238Y-106703809D01*
X195421285Y-107132380D02*
X195421285Y-106132380D01*
X195992714Y-107132380D01*
X195992714Y-106132380D01*
X196468904Y-107132380D02*
X196468904Y-106132380D01*
X196707000Y-106132380D01*
X196849857Y-106180000D01*
X196945095Y-106275238D01*
X196992714Y-106370476D01*
X197040333Y-106560952D01*
X197040333Y-106703809D01*
X196992714Y-106894285D01*
X196945095Y-106989523D01*
X196849857Y-107084761D01*
X196707000Y-107132380D01*
X196468904Y-107132380D01*
X186586857Y-106799071D02*
X186253523Y-106799071D01*
X186253523Y-107322880D02*
X186253523Y-106322880D01*
X186729714Y-106322880D01*
X187634476Y-106370500D02*
X187539238Y-106322880D01*
X187396380Y-106322880D01*
X187253523Y-106370500D01*
X187158285Y-106465738D01*
X187110666Y-106560976D01*
X187063047Y-106751452D01*
X187063047Y-106894309D01*
X187110666Y-107084785D01*
X187158285Y-107180023D01*
X187253523Y-107275261D01*
X187396380Y-107322880D01*
X187491619Y-107322880D01*
X187634476Y-107275261D01*
X187682095Y-107227642D01*
X187682095Y-106894309D01*
X187491619Y-106894309D01*
D12*
X167961000Y-110049000D02*
X167961000Y-112709000D01*
X173101000Y-110049000D02*
X167961000Y-110049000D01*
X173101000Y-112709000D02*
X167961000Y-112709000D01*
X173101000Y-110049000D02*
X173101000Y-112709000D01*
X174371000Y-110049000D02*
X175701000Y-110049000D01*
X175701000Y-110049000D02*
X175701000Y-111379000D01*
X177988500Y-125172080D02*
X177988500Y-124890920D01*
X179008500Y-125172080D02*
X179008500Y-124890920D01*
X164594000Y-112749420D02*
X164594000Y-113030580D01*
X163574000Y-112749420D02*
X163574000Y-113030580D01*
X182753580Y-119255000D02*
X182472420Y-119255000D01*
X182753580Y-118235000D02*
X182472420Y-118235000D01*
X158368420Y-125351000D02*
X158649580Y-125351000D01*
X158368420Y-124331000D02*
X158649580Y-124331000D01*
X165102000Y-124206580D02*
X165102000Y-123925420D01*
X164082000Y-124206580D02*
X164082000Y-123925420D01*
X188281000Y-105524001D02*
X189611000Y-105524001D01*
X188281000Y-106854001D02*
X188281000Y-105524001D01*
X190881000Y-105524001D02*
X193481000Y-105524001D01*
X190881000Y-108124001D02*
X190881000Y-105524001D01*
X188281000Y-108124001D02*
X190881000Y-108124001D01*
X193481000Y-105524001D02*
X193481000Y-110724001D01*
X188281000Y-108124001D02*
X188281000Y-110724001D01*
X188281000Y-110724001D02*
X193481000Y-110724001D01*
X150562000Y-105604000D02*
X151892000Y-105604000D01*
X150562000Y-106934000D02*
X150562000Y-105604000D01*
X150562000Y-108204000D02*
X153222000Y-108204000D01*
X153222000Y-108204000D02*
X153222000Y-126044000D01*
X150562000Y-108204000D02*
X150562000Y-126044000D01*
X150562000Y-126044000D02*
X153222000Y-126044000D01*
X175701000Y-105477000D02*
X175701000Y-106807000D01*
X174371000Y-105477000D02*
X175701000Y-105477000D01*
X173101000Y-105477000D02*
X173101000Y-108137000D01*
X173101000Y-108137000D02*
X167961000Y-108137000D01*
X173101000Y-105477000D02*
X167961000Y-105477000D01*
X167961000Y-105477000D02*
X167961000Y-108137000D01*
X158796258Y-119648500D02*
X158321742Y-119648500D01*
X158796258Y-118603500D02*
X158321742Y-118603500D01*
X155782742Y-121680500D02*
X156257258Y-121680500D01*
X155782742Y-120635500D02*
X156257258Y-120635500D01*
X181181742Y-123175500D02*
X181656258Y-123175500D01*
X181181742Y-124220500D02*
X181656258Y-124220500D01*
X178293500Y-114189742D02*
X178293500Y-114664258D01*
X179338500Y-114189742D02*
X179338500Y-114664258D01*
X181656258Y-121016500D02*
X181181742Y-121016500D01*
X181656258Y-122061500D02*
X181181742Y-122061500D01*
X161685500Y-113203258D02*
X161685500Y-112728742D01*
X160640500Y-113203258D02*
X160640500Y-112728742D01*
X156195500Y-113521258D02*
X156195500Y-113046742D01*
X157240500Y-113521258D02*
X157240500Y-113046742D01*
X159653500Y-122221258D02*
X159653500Y-121746742D01*
X158608500Y-122221258D02*
X158608500Y-121746742D01*
X191022500Y-113999742D02*
X191022500Y-114474258D01*
X189977500Y-113999742D02*
X189977500Y-114474258D01*
X193279500Y-113999742D02*
X193279500Y-114474258D01*
X194324500Y-113999742D02*
X194324500Y-114474258D01*
X196549742Y-115584500D02*
X197024258Y-115584500D01*
X196549742Y-114539500D02*
X197024258Y-114539500D01*
X201628742Y-114539500D02*
X202103258Y-114539500D01*
X201628742Y-115584500D02*
X202103258Y-115584500D01*
D13*
X207492000Y-117408000D02*
X206382000Y-117408000D01*
X207492000Y-124908000D02*
X206382000Y-124908000D01*
X190272000Y-117408000D02*
X191382000Y-117408000D01*
X190272000Y-124908000D02*
X191382000Y-124908000D01*
X207492000Y-124908000D02*
X207492000Y-117408000D01*
X190272000Y-124908000D02*
X190272000Y-117408000D01*
D14*
X192632000Y-126068000D02*
G75*
G03*
X192632000Y-126068000I-100000J0D01*
G01*
D12*
X172085000Y-116998000D02*
X168435000Y-116998000D01*
X172085000Y-116998000D02*
X174285000Y-116998000D01*
X172085000Y-125318000D02*
X169885000Y-125318000D01*
X172085000Y-125318000D02*
X174285000Y-125318000D01*
D10*
X176153380Y-111712333D02*
X176867666Y-111712333D01*
X177010523Y-111759952D01*
X177105761Y-111855190D01*
X177153380Y-111998047D01*
X177153380Y-112093285D01*
X176486714Y-110807571D02*
X177153380Y-110807571D01*
X176105761Y-111045666D02*
X176820047Y-111283761D01*
X176820047Y-110664714D01*
X177425642Y-125198166D02*
X177473261Y-125245785D01*
X177520880Y-125388642D01*
X177520880Y-125483880D01*
X177473261Y-125626738D01*
X177378023Y-125721976D01*
X177282785Y-125769595D01*
X177092309Y-125817214D01*
X176949452Y-125817214D01*
X176758976Y-125769595D01*
X176663738Y-125721976D01*
X176568500Y-125626738D01*
X176520880Y-125483880D01*
X176520880Y-125388642D01*
X176568500Y-125245785D01*
X176616119Y-125198166D01*
X176520880Y-124293404D02*
X176520880Y-124769595D01*
X176997071Y-124817214D01*
X176949452Y-124769595D01*
X176901833Y-124674357D01*
X176901833Y-124436261D01*
X176949452Y-124341023D01*
X176997071Y-124293404D01*
X177092309Y-124245785D01*
X177330404Y-124245785D01*
X177425642Y-124293404D01*
X177473261Y-124341023D01*
X177520880Y-124436261D01*
X177520880Y-124674357D01*
X177473261Y-124769595D01*
X177425642Y-124817214D01*
X165871142Y-113056666D02*
X165918761Y-113104285D01*
X165966380Y-113247142D01*
X165966380Y-113342380D01*
X165918761Y-113485238D01*
X165823523Y-113580476D01*
X165728285Y-113628095D01*
X165537809Y-113675714D01*
X165394952Y-113675714D01*
X165204476Y-113628095D01*
X165109238Y-113580476D01*
X165014000Y-113485238D01*
X164966380Y-113342380D01*
X164966380Y-113247142D01*
X165014000Y-113104285D01*
X165061619Y-113056666D01*
X164966380Y-112199523D02*
X164966380Y-112390000D01*
X165014000Y-112485238D01*
X165061619Y-112532857D01*
X165204476Y-112628095D01*
X165394952Y-112675714D01*
X165775904Y-112675714D01*
X165871142Y-112628095D01*
X165918761Y-112580476D01*
X165966380Y-112485238D01*
X165966380Y-112294761D01*
X165918761Y-112199523D01*
X165871142Y-112151904D01*
X165775904Y-112104285D01*
X165537809Y-112104285D01*
X165442571Y-112151904D01*
X165394952Y-112199523D01*
X165347333Y-112294761D01*
X165347333Y-112485238D01*
X165394952Y-112580476D01*
X165442571Y-112628095D01*
X165537809Y-112675714D01*
X184872333Y-119102142D02*
X184824714Y-119149761D01*
X184681857Y-119197380D01*
X184586619Y-119197380D01*
X184443761Y-119149761D01*
X184348523Y-119054523D01*
X184300904Y-118959285D01*
X184253285Y-118768809D01*
X184253285Y-118625952D01*
X184300904Y-118435476D01*
X184348523Y-118340238D01*
X184443761Y-118245000D01*
X184586619Y-118197380D01*
X184681857Y-118197380D01*
X184824714Y-118245000D01*
X184872333Y-118292619D01*
X185205666Y-118197380D02*
X185872333Y-118197380D01*
X185443761Y-119197380D01*
X160742333Y-125198142D02*
X160694714Y-125245761D01*
X160551857Y-125293380D01*
X160456619Y-125293380D01*
X160313761Y-125245761D01*
X160218523Y-125150523D01*
X160170904Y-125055285D01*
X160123285Y-124864809D01*
X160123285Y-124721952D01*
X160170904Y-124531476D01*
X160218523Y-124436238D01*
X160313761Y-124341000D01*
X160456619Y-124293380D01*
X160551857Y-124293380D01*
X160694714Y-124341000D01*
X160742333Y-124388619D01*
X161313761Y-124721952D02*
X161218523Y-124674333D01*
X161170904Y-124626714D01*
X161123285Y-124531476D01*
X161123285Y-124483857D01*
X161170904Y-124388619D01*
X161218523Y-124341000D01*
X161313761Y-124293380D01*
X161504238Y-124293380D01*
X161599476Y-124341000D01*
X161647095Y-124388619D01*
X161694714Y-124483857D01*
X161694714Y-124531476D01*
X161647095Y-124626714D01*
X161599476Y-124674333D01*
X161504238Y-124721952D01*
X161313761Y-124721952D01*
X161218523Y-124769571D01*
X161170904Y-124817190D01*
X161123285Y-124912428D01*
X161123285Y-125102904D01*
X161170904Y-125198142D01*
X161218523Y-125245761D01*
X161313761Y-125293380D01*
X161504238Y-125293380D01*
X161599476Y-125245761D01*
X161647095Y-125198142D01*
X161694714Y-125102904D01*
X161694714Y-124912428D01*
X161647095Y-124817190D01*
X161599476Y-124769571D01*
X161504238Y-124721952D01*
X163519142Y-124232666D02*
X163566761Y-124280285D01*
X163614380Y-124423142D01*
X163614380Y-124518380D01*
X163566761Y-124661238D01*
X163471523Y-124756476D01*
X163376285Y-124804095D01*
X163185809Y-124851714D01*
X163042952Y-124851714D01*
X162852476Y-124804095D01*
X162757238Y-124756476D01*
X162662000Y-124661238D01*
X162614380Y-124518380D01*
X162614380Y-124423142D01*
X162662000Y-124280285D01*
X162709619Y-124232666D01*
X163614380Y-123756476D02*
X163614380Y-123566000D01*
X163566761Y-123470761D01*
X163519142Y-123423142D01*
X163376285Y-123327904D01*
X163185809Y-123280285D01*
X162804857Y-123280285D01*
X162709619Y-123327904D01*
X162662000Y-123375523D01*
X162614380Y-123470761D01*
X162614380Y-123661238D01*
X162662000Y-123756476D01*
X162709619Y-123804095D01*
X162804857Y-123851714D01*
X163042952Y-123851714D01*
X163138190Y-123804095D01*
X163185809Y-123756476D01*
X163233428Y-123661238D01*
X163233428Y-123470761D01*
X163185809Y-123375523D01*
X163138190Y-123327904D01*
X163042952Y-123280285D01*
X190547666Y-103976381D02*
X190547666Y-104690667D01*
X190500047Y-104833524D01*
X190404809Y-104928762D01*
X190261952Y-104976381D01*
X190166714Y-104976381D01*
X191547666Y-104976381D02*
X190976238Y-104976381D01*
X191261952Y-104976381D02*
X191261952Y-103976381D01*
X191166714Y-104119239D01*
X191071476Y-104214477D01*
X190976238Y-104262096D01*
X151558666Y-104056380D02*
X151558666Y-104770666D01*
X151511047Y-104913523D01*
X151415809Y-105008761D01*
X151272952Y-105056380D01*
X151177714Y-105056380D01*
X151939619Y-104056380D02*
X152558666Y-104056380D01*
X152225333Y-104437333D01*
X152368190Y-104437333D01*
X152463428Y-104484952D01*
X152511047Y-104532571D01*
X152558666Y-104627809D01*
X152558666Y-104865904D01*
X152511047Y-104961142D01*
X152463428Y-105008761D01*
X152368190Y-105056380D01*
X152082476Y-105056380D01*
X151987238Y-105008761D01*
X151939619Y-104961142D01*
X176153380Y-107140333D02*
X176867666Y-107140333D01*
X177010523Y-107187952D01*
X177105761Y-107283190D01*
X177153380Y-107426047D01*
X177153380Y-107521285D01*
X176486714Y-106235571D02*
X177153380Y-106235571D01*
X176105761Y-106473666D02*
X176820047Y-106711761D01*
X176820047Y-106092714D01*
X158329333Y-118054380D02*
X157996000Y-117578190D01*
X157757904Y-118054380D02*
X157757904Y-117054380D01*
X158138857Y-117054380D01*
X158234095Y-117102000D01*
X158281714Y-117149619D01*
X158329333Y-117244857D01*
X158329333Y-117387714D01*
X158281714Y-117482952D01*
X158234095Y-117530571D01*
X158138857Y-117578190D01*
X157757904Y-117578190D01*
X158710285Y-117149619D02*
X158757904Y-117102000D01*
X158853142Y-117054380D01*
X159091238Y-117054380D01*
X159186476Y-117102000D01*
X159234095Y-117149619D01*
X159281714Y-117244857D01*
X159281714Y-117340095D01*
X159234095Y-117482952D01*
X158662666Y-118054380D01*
X159281714Y-118054380D01*
X155853333Y-120180380D02*
X155520000Y-119704190D01*
X155281904Y-120180380D02*
X155281904Y-119180380D01*
X155662857Y-119180380D01*
X155758095Y-119228000D01*
X155805714Y-119275619D01*
X155853333Y-119370857D01*
X155853333Y-119513714D01*
X155805714Y-119608952D01*
X155758095Y-119656571D01*
X155662857Y-119704190D01*
X155281904Y-119704190D01*
X156186666Y-119180380D02*
X156805714Y-119180380D01*
X156472380Y-119561333D01*
X156615238Y-119561333D01*
X156710476Y-119608952D01*
X156758095Y-119656571D01*
X156805714Y-119751809D01*
X156805714Y-119989904D01*
X156758095Y-120085142D01*
X156710476Y-120132761D01*
X156615238Y-120180380D01*
X156329523Y-120180380D01*
X156234285Y-120132761D01*
X156186666Y-120085142D01*
X183729333Y-124150380D02*
X183396000Y-123674190D01*
X183157904Y-124150380D02*
X183157904Y-123150380D01*
X183538857Y-123150380D01*
X183634095Y-123198000D01*
X183681714Y-123245619D01*
X183729333Y-123340857D01*
X183729333Y-123483714D01*
X183681714Y-123578952D01*
X183634095Y-123626571D01*
X183538857Y-123674190D01*
X183157904Y-123674190D01*
X184586476Y-123150380D02*
X184396000Y-123150380D01*
X184300761Y-123198000D01*
X184253142Y-123245619D01*
X184157904Y-123388476D01*
X184110285Y-123578952D01*
X184110285Y-123959904D01*
X184157904Y-124055142D01*
X184205523Y-124102761D01*
X184300761Y-124150380D01*
X184491238Y-124150380D01*
X184586476Y-124102761D01*
X184634095Y-124055142D01*
X184681714Y-123959904D01*
X184681714Y-123721809D01*
X184634095Y-123626571D01*
X184586476Y-123578952D01*
X184491238Y-123531333D01*
X184300761Y-123531333D01*
X184205523Y-123578952D01*
X184157904Y-123626571D01*
X184110285Y-123721809D01*
X177998380Y-114466666D02*
X177522190Y-114800000D01*
X177998380Y-115038095D02*
X176998380Y-115038095D01*
X176998380Y-114657142D01*
X177046000Y-114561904D01*
X177093619Y-114514285D01*
X177188857Y-114466666D01*
X177331714Y-114466666D01*
X177426952Y-114514285D01*
X177474571Y-114561904D01*
X177522190Y-114657142D01*
X177522190Y-115038095D01*
X176998380Y-114133333D02*
X176998380Y-113466666D01*
X177998380Y-113895238D01*
X183792333Y-121991380D02*
X183459000Y-121515190D01*
X183220904Y-121991380D02*
X183220904Y-120991380D01*
X183601857Y-120991380D01*
X183697095Y-121039000D01*
X183744714Y-121086619D01*
X183792333Y-121181857D01*
X183792333Y-121324714D01*
X183744714Y-121419952D01*
X183697095Y-121467571D01*
X183601857Y-121515190D01*
X183220904Y-121515190D01*
X184363761Y-121419952D02*
X184268523Y-121372333D01*
X184220904Y-121324714D01*
X184173285Y-121229476D01*
X184173285Y-121181857D01*
X184220904Y-121086619D01*
X184268523Y-121039000D01*
X184363761Y-120991380D01*
X184554238Y-120991380D01*
X184649476Y-121039000D01*
X184697095Y-121086619D01*
X184744714Y-121181857D01*
X184744714Y-121229476D01*
X184697095Y-121324714D01*
X184649476Y-121372333D01*
X184554238Y-121419952D01*
X184363761Y-121419952D01*
X184268523Y-121467571D01*
X184220904Y-121515190D01*
X184173285Y-121610428D01*
X184173285Y-121800904D01*
X184220904Y-121896142D01*
X184268523Y-121943761D01*
X184363761Y-121991380D01*
X184554238Y-121991380D01*
X184649476Y-121943761D01*
X184697095Y-121896142D01*
X184744714Y-121800904D01*
X184744714Y-121610428D01*
X184697095Y-121515190D01*
X184649476Y-121467571D01*
X184554238Y-121419952D01*
X160185380Y-113132666D02*
X159709190Y-113466000D01*
X160185380Y-113704095D02*
X159185380Y-113704095D01*
X159185380Y-113323142D01*
X159233000Y-113227904D01*
X159280619Y-113180285D01*
X159375857Y-113132666D01*
X159518714Y-113132666D01*
X159613952Y-113180285D01*
X159661571Y-113227904D01*
X159709190Y-113323142D01*
X159709190Y-113704095D01*
X160185380Y-112656476D02*
X160185380Y-112466000D01*
X160137761Y-112370761D01*
X160090142Y-112323142D01*
X159947285Y-112227904D01*
X159756809Y-112180285D01*
X159375857Y-112180285D01*
X159280619Y-112227904D01*
X159233000Y-112275523D01*
X159185380Y-112370761D01*
X159185380Y-112561238D01*
X159233000Y-112656476D01*
X159280619Y-112704095D01*
X159375857Y-112751714D01*
X159613952Y-112751714D01*
X159709190Y-112704095D01*
X159756809Y-112656476D01*
X159804428Y-112561238D01*
X159804428Y-112370761D01*
X159756809Y-112275523D01*
X159709190Y-112227904D01*
X159613952Y-112180285D01*
X155740380Y-113926857D02*
X155264190Y-114260190D01*
X155740380Y-114498285D02*
X154740380Y-114498285D01*
X154740380Y-114117333D01*
X154788000Y-114022095D01*
X154835619Y-113974476D01*
X154930857Y-113926857D01*
X155073714Y-113926857D01*
X155168952Y-113974476D01*
X155216571Y-114022095D01*
X155264190Y-114117333D01*
X155264190Y-114498285D01*
X155740380Y-112974476D02*
X155740380Y-113545904D01*
X155740380Y-113260190D02*
X154740380Y-113260190D01*
X154883238Y-113355428D01*
X154978476Y-113450666D01*
X155026095Y-113545904D01*
X154740380Y-112355428D02*
X154740380Y-112260190D01*
X154788000Y-112164952D01*
X154835619Y-112117333D01*
X154930857Y-112069714D01*
X155121333Y-112022095D01*
X155359428Y-112022095D01*
X155549904Y-112069714D01*
X155645142Y-112117333D01*
X155692761Y-112164952D01*
X155740380Y-112260190D01*
X155740380Y-112355428D01*
X155692761Y-112450666D01*
X155645142Y-112498285D01*
X155549904Y-112545904D01*
X155359428Y-112593523D01*
X155121333Y-112593523D01*
X154930857Y-112545904D01*
X154835619Y-112498285D01*
X154788000Y-112450666D01*
X154740380Y-112355428D01*
X160774142Y-121737380D02*
X160440809Y-121261190D01*
X160202714Y-121737380D02*
X160202714Y-120737380D01*
X160583666Y-120737380D01*
X160678904Y-120785000D01*
X160726523Y-120832619D01*
X160774142Y-120927857D01*
X160774142Y-121070714D01*
X160726523Y-121165952D01*
X160678904Y-121213571D01*
X160583666Y-121261190D01*
X160202714Y-121261190D01*
X161726523Y-121737380D02*
X161155095Y-121737380D01*
X161440809Y-121737380D02*
X161440809Y-120737380D01*
X161345571Y-120880238D01*
X161250333Y-120975476D01*
X161155095Y-121023095D01*
X162678904Y-121737380D02*
X162107476Y-121737380D01*
X162393190Y-121737380D02*
X162393190Y-120737380D01*
X162297952Y-120880238D01*
X162202714Y-120975476D01*
X162107476Y-121023095D01*
X189809380Y-114816857D02*
X189333190Y-115150190D01*
X189809380Y-115388285D02*
X188809380Y-115388285D01*
X188809380Y-115007333D01*
X188857000Y-114912095D01*
X188904619Y-114864476D01*
X188999857Y-114816857D01*
X189142714Y-114816857D01*
X189237952Y-114864476D01*
X189285571Y-114912095D01*
X189333190Y-115007333D01*
X189333190Y-115388285D01*
X189809380Y-113864476D02*
X189809380Y-114435904D01*
X189809380Y-114150190D02*
X188809380Y-114150190D01*
X188952238Y-114245428D01*
X189047476Y-114340666D01*
X189095095Y-114435904D01*
X189237952Y-113293047D02*
X189190333Y-113388285D01*
X189142714Y-113435904D01*
X189047476Y-113483523D01*
X188999857Y-113483523D01*
X188904619Y-113435904D01*
X188857000Y-113388285D01*
X188809380Y-113293047D01*
X188809380Y-113102571D01*
X188857000Y-113007333D01*
X188904619Y-112959714D01*
X188999857Y-112912095D01*
X189047476Y-112912095D01*
X189142714Y-112959714D01*
X189190333Y-113007333D01*
X189237952Y-113102571D01*
X189237952Y-113293047D01*
X189285571Y-113388285D01*
X189333190Y-113435904D01*
X189428428Y-113483523D01*
X189618904Y-113483523D01*
X189714142Y-113435904D01*
X189761761Y-113388285D01*
X189809380Y-113293047D01*
X189809380Y-113102571D01*
X189761761Y-113007333D01*
X189714142Y-112959714D01*
X189618904Y-112912095D01*
X189428428Y-112912095D01*
X189333190Y-112959714D01*
X189285571Y-113007333D01*
X189237952Y-113102571D01*
X192857380Y-114816857D02*
X192381190Y-115150190D01*
X192857380Y-115388285D02*
X191857380Y-115388285D01*
X191857380Y-115007333D01*
X191905000Y-114912095D01*
X191952619Y-114864476D01*
X192047857Y-114816857D01*
X192190714Y-114816857D01*
X192285952Y-114864476D01*
X192333571Y-114912095D01*
X192381190Y-115007333D01*
X192381190Y-115388285D01*
X192857380Y-113864476D02*
X192857380Y-114435904D01*
X192857380Y-114150190D02*
X191857380Y-114150190D01*
X192000238Y-114245428D01*
X192095476Y-114340666D01*
X192143095Y-114435904D01*
X192857380Y-113388285D02*
X192857380Y-113197809D01*
X192809761Y-113102571D01*
X192762142Y-113054952D01*
X192619285Y-112959714D01*
X192428809Y-112912095D01*
X192047857Y-112912095D01*
X191952619Y-112959714D01*
X191905000Y-113007333D01*
X191857380Y-113102571D01*
X191857380Y-113293047D01*
X191905000Y-113388285D01*
X191952619Y-113435904D01*
X192047857Y-113483523D01*
X192285952Y-113483523D01*
X192381190Y-113435904D01*
X192428809Y-113388285D01*
X192476428Y-113293047D01*
X192476428Y-113102571D01*
X192428809Y-113007333D01*
X192381190Y-112959714D01*
X192285952Y-112912095D01*
X196144142Y-114084380D02*
X195810809Y-113608190D01*
X195572714Y-114084380D02*
X195572714Y-113084380D01*
X195953666Y-113084380D01*
X196048904Y-113132000D01*
X196096523Y-113179619D01*
X196144142Y-113274857D01*
X196144142Y-113417714D01*
X196096523Y-113512952D01*
X196048904Y-113560571D01*
X195953666Y-113608190D01*
X195572714Y-113608190D01*
X196525095Y-113179619D02*
X196572714Y-113132000D01*
X196667952Y-113084380D01*
X196906047Y-113084380D01*
X197001285Y-113132000D01*
X197048904Y-113179619D01*
X197096523Y-113274857D01*
X197096523Y-113370095D01*
X197048904Y-113512952D01*
X196477476Y-114084380D01*
X197096523Y-114084380D01*
X197715571Y-113084380D02*
X197810809Y-113084380D01*
X197906047Y-113132000D01*
X197953666Y-113179619D01*
X198001285Y-113274857D01*
X198048904Y-113465333D01*
X198048904Y-113703428D01*
X198001285Y-113893904D01*
X197953666Y-113989142D01*
X197906047Y-114036761D01*
X197810809Y-114084380D01*
X197715571Y-114084380D01*
X197620333Y-114036761D01*
X197572714Y-113989142D01*
X197525095Y-113893904D01*
X197477476Y-113703428D01*
X197477476Y-113465333D01*
X197525095Y-113274857D01*
X197572714Y-113179619D01*
X197620333Y-113132000D01*
X197715571Y-113084380D01*
X201223142Y-114084380D02*
X200889809Y-113608190D01*
X200651714Y-114084380D02*
X200651714Y-113084380D01*
X201032666Y-113084380D01*
X201127904Y-113132000D01*
X201175523Y-113179619D01*
X201223142Y-113274857D01*
X201223142Y-113417714D01*
X201175523Y-113512952D01*
X201127904Y-113560571D01*
X201032666Y-113608190D01*
X200651714Y-113608190D01*
X201604095Y-113179619D02*
X201651714Y-113132000D01*
X201746952Y-113084380D01*
X201985047Y-113084380D01*
X202080285Y-113132000D01*
X202127904Y-113179619D01*
X202175523Y-113274857D01*
X202175523Y-113370095D01*
X202127904Y-113512952D01*
X201556476Y-114084380D01*
X202175523Y-114084380D01*
X203127904Y-114084380D02*
X202556476Y-114084380D01*
X202842190Y-114084380D02*
X202842190Y-113084380D01*
X202746952Y-113227238D01*
X202651714Y-113322476D01*
X202556476Y-113370095D01*
D15*
X189401761Y-123566333D02*
X189449380Y-123423476D01*
X189449380Y-123185380D01*
X189401761Y-123090142D01*
X189354142Y-123042523D01*
X189258904Y-122994904D01*
X189163666Y-122994904D01*
X189068428Y-123042523D01*
X189020809Y-123090142D01*
X188973190Y-123185380D01*
X188925571Y-123375857D01*
X188877952Y-123471095D01*
X188830333Y-123518714D01*
X188735095Y-123566333D01*
X188639857Y-123566333D01*
X188544619Y-123518714D01*
X188497000Y-123471095D01*
X188449380Y-123375857D01*
X188449380Y-123137761D01*
X188497000Y-122994904D01*
X188449380Y-122661571D02*
X189449380Y-122423476D01*
X188735095Y-122233000D01*
X189449380Y-122042523D01*
X188449380Y-121804428D01*
X189449380Y-120899666D02*
X189449380Y-121471095D01*
X189449380Y-121185380D02*
X188449380Y-121185380D01*
X188592238Y-121280619D01*
X188687476Y-121375857D01*
X188735095Y-121471095D01*
D10*
X171323095Y-115760380D02*
X171323095Y-116569904D01*
X171370714Y-116665142D01*
X171418333Y-116712761D01*
X171513571Y-116760380D01*
X171704047Y-116760380D01*
X171799285Y-116712761D01*
X171846904Y-116665142D01*
X171894523Y-116569904D01*
X171894523Y-115760380D01*
X172275476Y-115760380D02*
X172894523Y-115760380D01*
X172561190Y-116141333D01*
X172704047Y-116141333D01*
X172799285Y-116188952D01*
X172846904Y-116236571D01*
X172894523Y-116331809D01*
X172894523Y-116569904D01*
X172846904Y-116665142D01*
X172799285Y-116712761D01*
X172704047Y-116760380D01*
X172418333Y-116760380D01*
X172323095Y-116712761D01*
X172275476Y-116665142D01*
M02*
