M48
; DRILL file {KiCad (5.1.6)-1} date 11/02/20 22:50:52
; FORMAT={-:-/ absolute / inch / decimal}
; #@! TF.CreationDate,2020-11-02T22:50:52-07:00
; #@! TF.GenerationSoftware,Kicad,Pcbnew,(5.1.6)-1
FMAT,2
INCH
T1C0.0098
T2C0.0118
T3C0.0157
T4C0.0300
T5C0.0394
T6C0.0433
T7C0.0472
%
G90
G05
T1
X5.5906Y-4.252
X5.6236Y-4.0488
X5.6299Y-3.8583
X5.6693Y-4.3701
X5.6777Y-3.7992
X5.689Y-3.7402
X5.6988Y-3.937
X5.6988Y-3.999
X5.7185Y-4.2224
X5.7382Y-4.2815
X5.7432Y-3.944
X5.748Y-4.3814
X5.7776Y-3.8681
X5.7874Y-4.2815
X5.8169Y-3.9567
X5.8366Y-4.2815
X5.85Y-3.9532
X5.8692Y-3.8996
X5.876Y-3.8484
X5.8764Y-3.9626
X5.8929Y-4.2797
X6.0039Y-4.2717
X6.0433Y-4.4291
X6.122Y-4.124
X6.2874Y-4.0551
X6.3273Y-4.4783
X6.3524Y-4.2734
X6.3943Y-4.1703
X6.4173Y-4.2717
X6.4665Y-3.8583
X6.4764Y-4.3898
X6.4862Y-4.3307
X6.4961Y-4.1339
X6.5059Y-4.0059
X6.5521Y-3.9899
X6.565Y-4.0846
X7.0276Y-4.1043
T2
X5.7579Y-4.063
X5.7579Y-4.1142
X5.7579Y-4.1654
X5.8091Y-4.063
X5.8091Y-4.1142
X5.8091Y-4.1654
X5.8602Y-4.063
X5.8602Y-4.1142
X5.8602Y-4.1654
X5.9114Y-4.063
X5.9114Y-4.1142
X5.9114Y-4.1654
X5.9626Y-4.063
X5.9626Y-4.1142
X5.9626Y-4.1654
X6.0138Y-4.063
X6.0138Y-4.1142
X6.0138Y-4.1654
T3
X5.8071Y-4.3194
X5.8661Y-4.3194
X6.0925Y-4.4783
X6.1082Y-3.934
X6.1722Y-3.9223
X6.3081Y-4.2858
X6.6535Y-4.3307
T4
X6.8898Y-4.2587
X6.8898Y-4.3587
X6.8898Y-4.4587
T5
X6.5437Y-3.7303
X6.5437Y-3.8303
X6.5437Y-3.9303
X6.6437Y-3.7303
X6.6437Y-3.8303
X6.6437Y-3.9303
X5.5118Y-3.7488
X5.5118Y-3.8488
X5.5118Y-3.9488
X5.5118Y-4.0488
X5.5118Y-4.1488
X5.5118Y-4.2488
X5.5118Y-4.3488
X5.5118Y-4.4488
T6
X6.1614Y-3.7795
X6.2614Y-3.7795
X6.3614Y-3.7795
T7
X6.9291Y-3.937
X6.9291Y-4.0748
T0
M30
