%TF.GenerationSoftware,KiCad,Pcbnew,(5.1.6)-1*%
%TF.CreationDate,2020-11-02T22:50:54-07:00*%
%TF.ProjectId,single_driver,73696e67-6c65-45f6-9472-697665722e6b,rev?*%
%TF.SameCoordinates,Original*%
%TF.FileFunction,Soldermask,Top*%
%TF.FilePolarity,Negative*%
%FSLAX46Y46*%
G04 Gerber Fmt 4.6, Leading zero omitted, Abs format (unit mm)*
G04 Created by KiCad (PCBNEW (5.1.6)-1) date 2020-11-02 22:50:54*
%MOMM*%
%LPD*%
G01*
G04 APERTURE LIST*
%ADD10O,1.800000X1.800000*%
%ADD11R,1.800000X1.800000*%
%ADD12C,1.624000*%
%ADD13R,4.680000X2.400000*%
%ADD14O,2.005000X2.100000*%
%ADD15R,2.005000X2.100000*%
%ADD16R,0.650000X1.700000*%
%ADD17R,1.700000X0.650000*%
%ADD18C,2.500000*%
%ADD19R,2.500000X2.500000*%
G04 APERTURE END LIST*
D10*
%TO.C,J1*%
X166210000Y-94750000D03*
X168750000Y-94750000D03*
X166210000Y-97290000D03*
X168750000Y-97290000D03*
X166210000Y-99830000D03*
D11*
X168750000Y-99830000D03*
%TD*%
D12*
%TO.C,RV1*%
X175000000Y-108170000D03*
X175000000Y-110710000D03*
X175000000Y-113250000D03*
%TD*%
D13*
%TO.C,U3*%
X149500000Y-104500000D03*
G36*
G01*
X146050000Y-102475000D02*
X145800000Y-102475000D01*
G75*
G02*
X145675000Y-102350000I0J125000D01*
G01*
X145675000Y-100925000D01*
G75*
G02*
X145800000Y-100800000I125000J0D01*
G01*
X146050000Y-100800000D01*
G75*
G02*
X146175000Y-100925000I0J-125000D01*
G01*
X146175000Y-102350000D01*
G75*
G02*
X146050000Y-102475000I-125000J0D01*
G01*
G37*
G36*
G01*
X146700000Y-102475000D02*
X146450000Y-102475000D01*
G75*
G02*
X146325000Y-102350000I0J125000D01*
G01*
X146325000Y-100925000D01*
G75*
G02*
X146450000Y-100800000I125000J0D01*
G01*
X146700000Y-100800000D01*
G75*
G02*
X146825000Y-100925000I0J-125000D01*
G01*
X146825000Y-102350000D01*
G75*
G02*
X146700000Y-102475000I-125000J0D01*
G01*
G37*
G36*
G01*
X147350000Y-102475000D02*
X147100000Y-102475000D01*
G75*
G02*
X146975000Y-102350000I0J125000D01*
G01*
X146975000Y-100925000D01*
G75*
G02*
X147100000Y-100800000I125000J0D01*
G01*
X147350000Y-100800000D01*
G75*
G02*
X147475000Y-100925000I0J-125000D01*
G01*
X147475000Y-102350000D01*
G75*
G02*
X147350000Y-102475000I-125000J0D01*
G01*
G37*
G36*
G01*
X148000000Y-102475000D02*
X147750000Y-102475000D01*
G75*
G02*
X147625000Y-102350000I0J125000D01*
G01*
X147625000Y-100925000D01*
G75*
G02*
X147750000Y-100800000I125000J0D01*
G01*
X148000000Y-100800000D01*
G75*
G02*
X148125000Y-100925000I0J-125000D01*
G01*
X148125000Y-102350000D01*
G75*
G02*
X148000000Y-102475000I-125000J0D01*
G01*
G37*
G36*
G01*
X148650000Y-102475000D02*
X148400000Y-102475000D01*
G75*
G02*
X148275000Y-102350000I0J125000D01*
G01*
X148275000Y-100925000D01*
G75*
G02*
X148400000Y-100800000I125000J0D01*
G01*
X148650000Y-100800000D01*
G75*
G02*
X148775000Y-100925000I0J-125000D01*
G01*
X148775000Y-102350000D01*
G75*
G02*
X148650000Y-102475000I-125000J0D01*
G01*
G37*
G36*
G01*
X149300000Y-102475000D02*
X149050000Y-102475000D01*
G75*
G02*
X148925000Y-102350000I0J125000D01*
G01*
X148925000Y-100925000D01*
G75*
G02*
X149050000Y-100800000I125000J0D01*
G01*
X149300000Y-100800000D01*
G75*
G02*
X149425000Y-100925000I0J-125000D01*
G01*
X149425000Y-102350000D01*
G75*
G02*
X149300000Y-102475000I-125000J0D01*
G01*
G37*
G36*
G01*
X149950000Y-102475000D02*
X149700000Y-102475000D01*
G75*
G02*
X149575000Y-102350000I0J125000D01*
G01*
X149575000Y-100925000D01*
G75*
G02*
X149700000Y-100800000I125000J0D01*
G01*
X149950000Y-100800000D01*
G75*
G02*
X150075000Y-100925000I0J-125000D01*
G01*
X150075000Y-102350000D01*
G75*
G02*
X149950000Y-102475000I-125000J0D01*
G01*
G37*
G36*
G01*
X150600000Y-102475000D02*
X150350000Y-102475000D01*
G75*
G02*
X150225000Y-102350000I0J125000D01*
G01*
X150225000Y-100925000D01*
G75*
G02*
X150350000Y-100800000I125000J0D01*
G01*
X150600000Y-100800000D01*
G75*
G02*
X150725000Y-100925000I0J-125000D01*
G01*
X150725000Y-102350000D01*
G75*
G02*
X150600000Y-102475000I-125000J0D01*
G01*
G37*
G36*
G01*
X151250000Y-102475000D02*
X151000000Y-102475000D01*
G75*
G02*
X150875000Y-102350000I0J125000D01*
G01*
X150875000Y-100925000D01*
G75*
G02*
X151000000Y-100800000I125000J0D01*
G01*
X151250000Y-100800000D01*
G75*
G02*
X151375000Y-100925000I0J-125000D01*
G01*
X151375000Y-102350000D01*
G75*
G02*
X151250000Y-102475000I-125000J0D01*
G01*
G37*
G36*
G01*
X151900000Y-102475000D02*
X151650000Y-102475000D01*
G75*
G02*
X151525000Y-102350000I0J125000D01*
G01*
X151525000Y-100925000D01*
G75*
G02*
X151650000Y-100800000I125000J0D01*
G01*
X151900000Y-100800000D01*
G75*
G02*
X152025000Y-100925000I0J-125000D01*
G01*
X152025000Y-102350000D01*
G75*
G02*
X151900000Y-102475000I-125000J0D01*
G01*
G37*
G36*
G01*
X152550000Y-102475000D02*
X152300000Y-102475000D01*
G75*
G02*
X152175000Y-102350000I0J125000D01*
G01*
X152175000Y-100925000D01*
G75*
G02*
X152300000Y-100800000I125000J0D01*
G01*
X152550000Y-100800000D01*
G75*
G02*
X152675000Y-100925000I0J-125000D01*
G01*
X152675000Y-102350000D01*
G75*
G02*
X152550000Y-102475000I-125000J0D01*
G01*
G37*
G36*
G01*
X153200000Y-102475000D02*
X152950000Y-102475000D01*
G75*
G02*
X152825000Y-102350000I0J125000D01*
G01*
X152825000Y-100925000D01*
G75*
G02*
X152950000Y-100800000I125000J0D01*
G01*
X153200000Y-100800000D01*
G75*
G02*
X153325000Y-100925000I0J-125000D01*
G01*
X153325000Y-102350000D01*
G75*
G02*
X153200000Y-102475000I-125000J0D01*
G01*
G37*
G36*
G01*
X153200000Y-108200000D02*
X152950000Y-108200000D01*
G75*
G02*
X152825000Y-108075000I0J125000D01*
G01*
X152825000Y-106650000D01*
G75*
G02*
X152950000Y-106525000I125000J0D01*
G01*
X153200000Y-106525000D01*
G75*
G02*
X153325000Y-106650000I0J-125000D01*
G01*
X153325000Y-108075000D01*
G75*
G02*
X153200000Y-108200000I-125000J0D01*
G01*
G37*
G36*
G01*
X152550000Y-108200000D02*
X152300000Y-108200000D01*
G75*
G02*
X152175000Y-108075000I0J125000D01*
G01*
X152175000Y-106650000D01*
G75*
G02*
X152300000Y-106525000I125000J0D01*
G01*
X152550000Y-106525000D01*
G75*
G02*
X152675000Y-106650000I0J-125000D01*
G01*
X152675000Y-108075000D01*
G75*
G02*
X152550000Y-108200000I-125000J0D01*
G01*
G37*
G36*
G01*
X151900000Y-108200000D02*
X151650000Y-108200000D01*
G75*
G02*
X151525000Y-108075000I0J125000D01*
G01*
X151525000Y-106650000D01*
G75*
G02*
X151650000Y-106525000I125000J0D01*
G01*
X151900000Y-106525000D01*
G75*
G02*
X152025000Y-106650000I0J-125000D01*
G01*
X152025000Y-108075000D01*
G75*
G02*
X151900000Y-108200000I-125000J0D01*
G01*
G37*
G36*
G01*
X151250000Y-108200000D02*
X151000000Y-108200000D01*
G75*
G02*
X150875000Y-108075000I0J125000D01*
G01*
X150875000Y-106650000D01*
G75*
G02*
X151000000Y-106525000I125000J0D01*
G01*
X151250000Y-106525000D01*
G75*
G02*
X151375000Y-106650000I0J-125000D01*
G01*
X151375000Y-108075000D01*
G75*
G02*
X151250000Y-108200000I-125000J0D01*
G01*
G37*
G36*
G01*
X150600000Y-108200000D02*
X150350000Y-108200000D01*
G75*
G02*
X150225000Y-108075000I0J125000D01*
G01*
X150225000Y-106650000D01*
G75*
G02*
X150350000Y-106525000I125000J0D01*
G01*
X150600000Y-106525000D01*
G75*
G02*
X150725000Y-106650000I0J-125000D01*
G01*
X150725000Y-108075000D01*
G75*
G02*
X150600000Y-108200000I-125000J0D01*
G01*
G37*
G36*
G01*
X149950000Y-108200000D02*
X149700000Y-108200000D01*
G75*
G02*
X149575000Y-108075000I0J125000D01*
G01*
X149575000Y-106650000D01*
G75*
G02*
X149700000Y-106525000I125000J0D01*
G01*
X149950000Y-106525000D01*
G75*
G02*
X150075000Y-106650000I0J-125000D01*
G01*
X150075000Y-108075000D01*
G75*
G02*
X149950000Y-108200000I-125000J0D01*
G01*
G37*
G36*
G01*
X149300000Y-108200000D02*
X149050000Y-108200000D01*
G75*
G02*
X148925000Y-108075000I0J125000D01*
G01*
X148925000Y-106650000D01*
G75*
G02*
X149050000Y-106525000I125000J0D01*
G01*
X149300000Y-106525000D01*
G75*
G02*
X149425000Y-106650000I0J-125000D01*
G01*
X149425000Y-108075000D01*
G75*
G02*
X149300000Y-108200000I-125000J0D01*
G01*
G37*
G36*
G01*
X148650000Y-108200000D02*
X148400000Y-108200000D01*
G75*
G02*
X148275000Y-108075000I0J125000D01*
G01*
X148275000Y-106650000D01*
G75*
G02*
X148400000Y-106525000I125000J0D01*
G01*
X148650000Y-106525000D01*
G75*
G02*
X148775000Y-106650000I0J-125000D01*
G01*
X148775000Y-108075000D01*
G75*
G02*
X148650000Y-108200000I-125000J0D01*
G01*
G37*
G36*
G01*
X148000000Y-108200000D02*
X147750000Y-108200000D01*
G75*
G02*
X147625000Y-108075000I0J125000D01*
G01*
X147625000Y-106650000D01*
G75*
G02*
X147750000Y-106525000I125000J0D01*
G01*
X148000000Y-106525000D01*
G75*
G02*
X148125000Y-106650000I0J-125000D01*
G01*
X148125000Y-108075000D01*
G75*
G02*
X148000000Y-108200000I-125000J0D01*
G01*
G37*
G36*
G01*
X147350000Y-108200000D02*
X147100000Y-108200000D01*
G75*
G02*
X146975000Y-108075000I0J125000D01*
G01*
X146975000Y-106650000D01*
G75*
G02*
X147100000Y-106525000I125000J0D01*
G01*
X147350000Y-106525000D01*
G75*
G02*
X147475000Y-106650000I0J-125000D01*
G01*
X147475000Y-108075000D01*
G75*
G02*
X147350000Y-108200000I-125000J0D01*
G01*
G37*
G36*
G01*
X146700000Y-108200000D02*
X146450000Y-108200000D01*
G75*
G02*
X146325000Y-108075000I0J125000D01*
G01*
X146325000Y-106650000D01*
G75*
G02*
X146450000Y-106525000I125000J0D01*
G01*
X146700000Y-106525000D01*
G75*
G02*
X146825000Y-106650000I0J-125000D01*
G01*
X146825000Y-108075000D01*
G75*
G02*
X146700000Y-108200000I-125000J0D01*
G01*
G37*
G36*
G01*
X146050000Y-108200000D02*
X145800000Y-108200000D01*
G75*
G02*
X145675000Y-108075000I0J125000D01*
G01*
X145675000Y-106650000D01*
G75*
G02*
X145800000Y-106525000I125000J0D01*
G01*
X146050000Y-106525000D01*
G75*
G02*
X146175000Y-106650000I0J-125000D01*
G01*
X146175000Y-108075000D01*
G75*
G02*
X146050000Y-108200000I-125000J0D01*
G01*
G37*
%TD*%
D14*
%TO.C,U2*%
X161580000Y-96000000D03*
X159040000Y-96000000D03*
D15*
X156500000Y-96000000D03*
%TD*%
D16*
%TO.C,U1*%
X159700000Y-111500000D03*
X160500000Y-111500000D03*
X161300000Y-111500000D03*
X162100000Y-111500000D03*
X162900000Y-111500000D03*
X163700000Y-111500000D03*
X164500000Y-111500000D03*
X165300000Y-111500000D03*
D17*
X166750000Y-110050000D03*
X166750000Y-109250000D03*
X166750000Y-108450000D03*
X166750000Y-107650000D03*
X166750000Y-106850000D03*
X166750000Y-106050000D03*
X166750000Y-105250000D03*
X166750000Y-104450000D03*
D16*
X165300000Y-103000000D03*
X164500000Y-103000000D03*
X163700000Y-103000000D03*
X162900000Y-103000000D03*
X162100000Y-103000000D03*
X161300000Y-103000000D03*
X160500000Y-103000000D03*
X159700000Y-103000000D03*
D17*
X158250000Y-104450000D03*
X158250000Y-105250000D03*
X158250000Y-106050000D03*
X158250000Y-106850000D03*
X158250000Y-107650000D03*
X158250000Y-108450000D03*
X158250000Y-109250000D03*
X158250000Y-110050000D03*
%TD*%
%TO.C,R11*%
G36*
G01*
X148718750Y-110800000D02*
X149281250Y-110800000D01*
G75*
G02*
X149525000Y-111043750I0J-243750D01*
G01*
X149525000Y-111531250D01*
G75*
G02*
X149281250Y-111775000I-243750J0D01*
G01*
X148718750Y-111775000D01*
G75*
G02*
X148475000Y-111531250I0J243750D01*
G01*
X148475000Y-111043750D01*
G75*
G02*
X148718750Y-110800000I243750J0D01*
G01*
G37*
G36*
G01*
X148718750Y-109225000D02*
X149281250Y-109225000D01*
G75*
G02*
X149525000Y-109468750I0J-243750D01*
G01*
X149525000Y-109956250D01*
G75*
G02*
X149281250Y-110200000I-243750J0D01*
G01*
X148718750Y-110200000D01*
G75*
G02*
X148475000Y-109956250I0J243750D01*
G01*
X148475000Y-109468750D01*
G75*
G02*
X148718750Y-109225000I243750J0D01*
G01*
G37*
%TD*%
%TO.C,R10*%
G36*
G01*
X147218750Y-110800000D02*
X147781250Y-110800000D01*
G75*
G02*
X148025000Y-111043750I0J-243750D01*
G01*
X148025000Y-111531250D01*
G75*
G02*
X147781250Y-111775000I-243750J0D01*
G01*
X147218750Y-111775000D01*
G75*
G02*
X146975000Y-111531250I0J243750D01*
G01*
X146975000Y-111043750D01*
G75*
G02*
X147218750Y-110800000I243750J0D01*
G01*
G37*
G36*
G01*
X147218750Y-109225000D02*
X147781250Y-109225000D01*
G75*
G02*
X148025000Y-109468750I0J-243750D01*
G01*
X148025000Y-109956250D01*
G75*
G02*
X147781250Y-110200000I-243750J0D01*
G01*
X147218750Y-110200000D01*
G75*
G02*
X146975000Y-109956250I0J243750D01*
G01*
X146975000Y-109468750D01*
G75*
G02*
X147218750Y-109225000I243750J0D01*
G01*
G37*
%TD*%
%TO.C,R9*%
G36*
G01*
X145718750Y-110800000D02*
X146281250Y-110800000D01*
G75*
G02*
X146525000Y-111043750I0J-243750D01*
G01*
X146525000Y-111531250D01*
G75*
G02*
X146281250Y-111775000I-243750J0D01*
G01*
X145718750Y-111775000D01*
G75*
G02*
X145475000Y-111531250I0J243750D01*
G01*
X145475000Y-111043750D01*
G75*
G02*
X145718750Y-110800000I243750J0D01*
G01*
G37*
G36*
G01*
X145718750Y-109225000D02*
X146281250Y-109225000D01*
G75*
G02*
X146525000Y-109468750I0J-243750D01*
G01*
X146525000Y-109956250D01*
G75*
G02*
X146281250Y-110200000I-243750J0D01*
G01*
X145718750Y-110200000D01*
G75*
G02*
X145475000Y-109956250I0J243750D01*
G01*
X145475000Y-109468750D01*
G75*
G02*
X145718750Y-109225000I243750J0D01*
G01*
G37*
%TD*%
%TO.C,R8*%
G36*
G01*
X148718750Y-99050000D02*
X149281250Y-99050000D01*
G75*
G02*
X149525000Y-99293750I0J-243750D01*
G01*
X149525000Y-99781250D01*
G75*
G02*
X149281250Y-100025000I-243750J0D01*
G01*
X148718750Y-100025000D01*
G75*
G02*
X148475000Y-99781250I0J243750D01*
G01*
X148475000Y-99293750D01*
G75*
G02*
X148718750Y-99050000I243750J0D01*
G01*
G37*
G36*
G01*
X148718750Y-97475000D02*
X149281250Y-97475000D01*
G75*
G02*
X149525000Y-97718750I0J-243750D01*
G01*
X149525000Y-98206250D01*
G75*
G02*
X149281250Y-98450000I-243750J0D01*
G01*
X148718750Y-98450000D01*
G75*
G02*
X148475000Y-98206250I0J243750D01*
G01*
X148475000Y-97718750D01*
G75*
G02*
X148718750Y-97475000I243750J0D01*
G01*
G37*
%TD*%
%TO.C,R7*%
G36*
G01*
X144218750Y-101087500D02*
X144781250Y-101087500D01*
G75*
G02*
X145025000Y-101331250I0J-243750D01*
G01*
X145025000Y-101818750D01*
G75*
G02*
X144781250Y-102062500I-243750J0D01*
G01*
X144218750Y-102062500D01*
G75*
G02*
X143975000Y-101818750I0J243750D01*
G01*
X143975000Y-101331250D01*
G75*
G02*
X144218750Y-101087500I243750J0D01*
G01*
G37*
G36*
G01*
X144218750Y-99512500D02*
X144781250Y-99512500D01*
G75*
G02*
X145025000Y-99756250I0J-243750D01*
G01*
X145025000Y-100243750D01*
G75*
G02*
X144781250Y-100487500I-243750J0D01*
G01*
X144218750Y-100487500D01*
G75*
G02*
X143975000Y-100243750I0J243750D01*
G01*
X143975000Y-99756250D01*
G75*
G02*
X144218750Y-99512500I243750J0D01*
G01*
G37*
%TD*%
%TO.C,R6*%
G36*
G01*
X150781250Y-98450000D02*
X150218750Y-98450000D01*
G75*
G02*
X149975000Y-98206250I0J243750D01*
G01*
X149975000Y-97718750D01*
G75*
G02*
X150218750Y-97475000I243750J0D01*
G01*
X150781250Y-97475000D01*
G75*
G02*
X151025000Y-97718750I0J-243750D01*
G01*
X151025000Y-98206250D01*
G75*
G02*
X150781250Y-98450000I-243750J0D01*
G01*
G37*
G36*
G01*
X150781250Y-100025000D02*
X150218750Y-100025000D01*
G75*
G02*
X149975000Y-99781250I0J243750D01*
G01*
X149975000Y-99293750D01*
G75*
G02*
X150218750Y-99050000I243750J0D01*
G01*
X150781250Y-99050000D01*
G75*
G02*
X151025000Y-99293750I0J-243750D01*
G01*
X151025000Y-99781250D01*
G75*
G02*
X150781250Y-100025000I-243750J0D01*
G01*
G37*
%TD*%
%TO.C,R5*%
G36*
G01*
X150987500Y-96218750D02*
X150987500Y-96781250D01*
G75*
G02*
X150743750Y-97025000I-243750J0D01*
G01*
X150256250Y-97025000D01*
G75*
G02*
X150012500Y-96781250I0J243750D01*
G01*
X150012500Y-96218750D01*
G75*
G02*
X150256250Y-95975000I243750J0D01*
G01*
X150743750Y-95975000D01*
G75*
G02*
X150987500Y-96218750I0J-243750D01*
G01*
G37*
G36*
G01*
X152562500Y-96218750D02*
X152562500Y-96781250D01*
G75*
G02*
X152318750Y-97025000I-243750J0D01*
G01*
X151831250Y-97025000D01*
G75*
G02*
X151587500Y-96781250I0J243750D01*
G01*
X151587500Y-96218750D01*
G75*
G02*
X151831250Y-95975000I243750J0D01*
G01*
X152318750Y-95975000D01*
G75*
G02*
X152562500Y-96218750I0J-243750D01*
G01*
G37*
%TD*%
%TO.C,R4*%
G36*
G01*
X172237500Y-96218750D02*
X172237500Y-96781250D01*
G75*
G02*
X171993750Y-97025000I-243750J0D01*
G01*
X171506250Y-97025000D01*
G75*
G02*
X171262500Y-96781250I0J243750D01*
G01*
X171262500Y-96218750D01*
G75*
G02*
X171506250Y-95975000I243750J0D01*
G01*
X171993750Y-95975000D01*
G75*
G02*
X172237500Y-96218750I0J-243750D01*
G01*
G37*
G36*
G01*
X173812500Y-96218750D02*
X173812500Y-96781250D01*
G75*
G02*
X173568750Y-97025000I-243750J0D01*
G01*
X173081250Y-97025000D01*
G75*
G02*
X172837500Y-96781250I0J243750D01*
G01*
X172837500Y-96218750D01*
G75*
G02*
X173081250Y-95975000I243750J0D01*
G01*
X173568750Y-95975000D01*
G75*
G02*
X173812500Y-96218750I0J-243750D01*
G01*
G37*
%TD*%
%TO.C,R3*%
G36*
G01*
X145300000Y-96781250D02*
X145300000Y-96218750D01*
G75*
G02*
X145543750Y-95975000I243750J0D01*
G01*
X146031250Y-95975000D01*
G75*
G02*
X146275000Y-96218750I0J-243750D01*
G01*
X146275000Y-96781250D01*
G75*
G02*
X146031250Y-97025000I-243750J0D01*
G01*
X145543750Y-97025000D01*
G75*
G02*
X145300000Y-96781250I0J243750D01*
G01*
G37*
G36*
G01*
X143725000Y-96781250D02*
X143725000Y-96218750D01*
G75*
G02*
X143968750Y-95975000I243750J0D01*
G01*
X144456250Y-95975000D01*
G75*
G02*
X144700000Y-96218750I0J-243750D01*
G01*
X144700000Y-96781250D01*
G75*
G02*
X144456250Y-97025000I-243750J0D01*
G01*
X143968750Y-97025000D01*
G75*
G02*
X143725000Y-96781250I0J243750D01*
G01*
G37*
%TD*%
%TO.C,R2*%
G36*
G01*
X148512500Y-96781250D02*
X148512500Y-96218750D01*
G75*
G02*
X148756250Y-95975000I243750J0D01*
G01*
X149243750Y-95975000D01*
G75*
G02*
X149487500Y-96218750I0J-243750D01*
G01*
X149487500Y-96781250D01*
G75*
G02*
X149243750Y-97025000I-243750J0D01*
G01*
X148756250Y-97025000D01*
G75*
G02*
X148512500Y-96781250I0J243750D01*
G01*
G37*
G36*
G01*
X146937500Y-96781250D02*
X146937500Y-96218750D01*
G75*
G02*
X147181250Y-95975000I243750J0D01*
G01*
X147668750Y-95975000D01*
G75*
G02*
X147912500Y-96218750I0J-243750D01*
G01*
X147912500Y-96781250D01*
G75*
G02*
X147668750Y-97025000I-243750J0D01*
G01*
X147181250Y-97025000D01*
G75*
G02*
X146937500Y-96781250I0J243750D01*
G01*
G37*
%TD*%
%TO.C,R1*%
G36*
G01*
X172237500Y-93718750D02*
X172237500Y-94281250D01*
G75*
G02*
X171993750Y-94525000I-243750J0D01*
G01*
X171506250Y-94525000D01*
G75*
G02*
X171262500Y-94281250I0J243750D01*
G01*
X171262500Y-93718750D01*
G75*
G02*
X171506250Y-93475000I243750J0D01*
G01*
X171993750Y-93475000D01*
G75*
G02*
X172237500Y-93718750I0J-243750D01*
G01*
G37*
G36*
G01*
X173812500Y-93718750D02*
X173812500Y-94281250D01*
G75*
G02*
X173568750Y-94525000I-243750J0D01*
G01*
X173081250Y-94525000D01*
G75*
G02*
X172837500Y-94281250I0J243750D01*
G01*
X172837500Y-93718750D01*
G75*
G02*
X173081250Y-93475000I243750J0D01*
G01*
X173568750Y-93475000D01*
G75*
G02*
X173812500Y-93718750I0J-243750D01*
G01*
G37*
%TD*%
D10*
%TO.C,J3*%
X140000000Y-113000000D03*
X140000000Y-110460000D03*
X140000000Y-107920000D03*
X140000000Y-105380000D03*
X140000000Y-102840000D03*
X140000000Y-100300000D03*
X140000000Y-97760000D03*
D11*
X140000000Y-95220000D03*
%TD*%
D18*
%TO.C,J2*%
X176000000Y-103500000D03*
D19*
X176000000Y-100000000D03*
%TD*%
%TO.C,D2*%
G36*
G01*
X177575000Y-97155000D02*
X177575000Y-95845000D01*
G75*
G02*
X177845000Y-95575000I270000J0D01*
G01*
X178655000Y-95575000D01*
G75*
G02*
X178925000Y-95845000I0J-270000D01*
G01*
X178925000Y-97155000D01*
G75*
G02*
X178655000Y-97425000I-270000J0D01*
G01*
X177845000Y-97425000D01*
G75*
G02*
X177575000Y-97155000I0J270000D01*
G01*
G37*
G36*
G01*
X174775000Y-97155000D02*
X174775000Y-95845000D01*
G75*
G02*
X175045000Y-95575000I270000J0D01*
G01*
X175855000Y-95575000D01*
G75*
G02*
X176125000Y-95845000I0J-270000D01*
G01*
X176125000Y-97155000D01*
G75*
G02*
X175855000Y-97425000I-270000J0D01*
G01*
X175045000Y-97425000D01*
G75*
G02*
X174775000Y-97155000I0J270000D01*
G01*
G37*
%TD*%
%TO.C,D1*%
G36*
G01*
X177575000Y-94655000D02*
X177575000Y-93345000D01*
G75*
G02*
X177845000Y-93075000I270000J0D01*
G01*
X178655000Y-93075000D01*
G75*
G02*
X178925000Y-93345000I0J-270000D01*
G01*
X178925000Y-94655000D01*
G75*
G02*
X178655000Y-94925000I-270000J0D01*
G01*
X177845000Y-94925000D01*
G75*
G02*
X177575000Y-94655000I0J270000D01*
G01*
G37*
G36*
G01*
X174775000Y-94655000D02*
X174775000Y-93345000D01*
G75*
G02*
X175045000Y-93075000I270000J0D01*
G01*
X175855000Y-93075000D01*
G75*
G02*
X176125000Y-93345000I0J-270000D01*
G01*
X176125000Y-94655000D01*
G75*
G02*
X175855000Y-94925000I-270000J0D01*
G01*
X175045000Y-94925000D01*
G75*
G02*
X174775000Y-94655000I0J270000D01*
G01*
G37*
%TD*%
%TO.C,C9*%
G36*
G01*
X151412500Y-109218750D02*
X151412500Y-109781250D01*
G75*
G02*
X151168750Y-110025000I-243750J0D01*
G01*
X150681250Y-110025000D01*
G75*
G02*
X150437500Y-109781250I0J243750D01*
G01*
X150437500Y-109218750D01*
G75*
G02*
X150681250Y-108975000I243750J0D01*
G01*
X151168750Y-108975000D01*
G75*
G02*
X151412500Y-109218750I0J-243750D01*
G01*
G37*
G36*
G01*
X152987500Y-109218750D02*
X152987500Y-109781250D01*
G75*
G02*
X152743750Y-110025000I-243750J0D01*
G01*
X152256250Y-110025000D01*
G75*
G02*
X152012500Y-109781250I0J243750D01*
G01*
X152012500Y-109218750D01*
G75*
G02*
X152256250Y-108975000I243750J0D01*
G01*
X152743750Y-108975000D01*
G75*
G02*
X152987500Y-109218750I0J-243750D01*
G01*
G37*
%TD*%
%TO.C,C8*%
G36*
G01*
X150781250Y-111487500D02*
X150218750Y-111487500D01*
G75*
G02*
X149975000Y-111243750I0J243750D01*
G01*
X149975000Y-110756250D01*
G75*
G02*
X150218750Y-110512500I243750J0D01*
G01*
X150781250Y-110512500D01*
G75*
G02*
X151025000Y-110756250I0J-243750D01*
G01*
X151025000Y-111243750D01*
G75*
G02*
X150781250Y-111487500I-243750J0D01*
G01*
G37*
G36*
G01*
X150781250Y-113062500D02*
X150218750Y-113062500D01*
G75*
G02*
X149975000Y-112818750I0J243750D01*
G01*
X149975000Y-112331250D01*
G75*
G02*
X150218750Y-112087500I243750J0D01*
G01*
X150781250Y-112087500D01*
G75*
G02*
X151025000Y-112331250I0J-243750D01*
G01*
X151025000Y-112818750D01*
G75*
G02*
X150781250Y-113062500I-243750J0D01*
G01*
G37*
%TD*%
%TO.C,C7*%
G36*
G01*
X146718750Y-99262500D02*
X147281250Y-99262500D01*
G75*
G02*
X147525000Y-99506250I0J-243750D01*
G01*
X147525000Y-99993750D01*
G75*
G02*
X147281250Y-100237500I-243750J0D01*
G01*
X146718750Y-100237500D01*
G75*
G02*
X146475000Y-99993750I0J243750D01*
G01*
X146475000Y-99506250D01*
G75*
G02*
X146718750Y-99262500I243750J0D01*
G01*
G37*
G36*
G01*
X146718750Y-97687500D02*
X147281250Y-97687500D01*
G75*
G02*
X147525000Y-97931250I0J-243750D01*
G01*
X147525000Y-98418750D01*
G75*
G02*
X147281250Y-98662500I-243750J0D01*
G01*
X146718750Y-98662500D01*
G75*
G02*
X146475000Y-98418750I0J243750D01*
G01*
X146475000Y-97931250D01*
G75*
G02*
X146718750Y-97687500I243750J0D01*
G01*
G37*
%TD*%
%TO.C,C6*%
G36*
G01*
X152412500Y-98218750D02*
X152412500Y-98781250D01*
G75*
G02*
X152168750Y-99025000I-243750J0D01*
G01*
X151681250Y-99025000D01*
G75*
G02*
X151437500Y-98781250I0J243750D01*
G01*
X151437500Y-98218750D01*
G75*
G02*
X151681250Y-97975000I243750J0D01*
G01*
X152168750Y-97975000D01*
G75*
G02*
X152412500Y-98218750I0J-243750D01*
G01*
G37*
G36*
G01*
X153987500Y-98218750D02*
X153987500Y-98781250D01*
G75*
G02*
X153743750Y-99025000I-243750J0D01*
G01*
X153256250Y-99025000D01*
G75*
G02*
X153012500Y-98781250I0J243750D01*
G01*
X153012500Y-98218750D01*
G75*
G02*
X153256250Y-97975000I243750J0D01*
G01*
X153743750Y-97975000D01*
G75*
G02*
X153987500Y-98218750I0J-243750D01*
G01*
G37*
%TD*%
%TO.C,C5*%
G36*
G01*
X152412500Y-112218750D02*
X152412500Y-112781250D01*
G75*
G02*
X152168750Y-113025000I-243750J0D01*
G01*
X151681250Y-113025000D01*
G75*
G02*
X151437500Y-112781250I0J243750D01*
G01*
X151437500Y-112218750D01*
G75*
G02*
X151681250Y-111975000I243750J0D01*
G01*
X152168750Y-111975000D01*
G75*
G02*
X152412500Y-112218750I0J-243750D01*
G01*
G37*
G36*
G01*
X153987500Y-112218750D02*
X153987500Y-112781250D01*
G75*
G02*
X153743750Y-113025000I-243750J0D01*
G01*
X153256250Y-113025000D01*
G75*
G02*
X153012500Y-112781250I0J243750D01*
G01*
X153012500Y-112218750D01*
G75*
G02*
X153256250Y-111975000I243750J0D01*
G01*
X153743750Y-111975000D01*
G75*
G02*
X153987500Y-112218750I0J-243750D01*
G01*
G37*
%TD*%
%TO.C,C4*%
G36*
G01*
X160487500Y-98218750D02*
X160487500Y-98781250D01*
G75*
G02*
X160243750Y-99025000I-243750J0D01*
G01*
X159756250Y-99025000D01*
G75*
G02*
X159512500Y-98781250I0J243750D01*
G01*
X159512500Y-98218750D01*
G75*
G02*
X159756250Y-97975000I243750J0D01*
G01*
X160243750Y-97975000D01*
G75*
G02*
X160487500Y-98218750I0J-243750D01*
G01*
G37*
G36*
G01*
X162062500Y-98218750D02*
X162062500Y-98781250D01*
G75*
G02*
X161818750Y-99025000I-243750J0D01*
G01*
X161331250Y-99025000D01*
G75*
G02*
X161087500Y-98781250I0J243750D01*
G01*
X161087500Y-98218750D01*
G75*
G02*
X161331250Y-97975000I243750J0D01*
G01*
X161818750Y-97975000D01*
G75*
G02*
X162062500Y-98218750I0J-243750D01*
G01*
G37*
%TD*%
%TO.C,C3*%
G36*
G01*
X158012500Y-98781250D02*
X158012500Y-98218750D01*
G75*
G02*
X158256250Y-97975000I243750J0D01*
G01*
X158743750Y-97975000D01*
G75*
G02*
X158987500Y-98218750I0J-243750D01*
G01*
X158987500Y-98781250D01*
G75*
G02*
X158743750Y-99025000I-243750J0D01*
G01*
X158256250Y-99025000D01*
G75*
G02*
X158012500Y-98781250I0J243750D01*
G01*
G37*
G36*
G01*
X156437500Y-98781250D02*
X156437500Y-98218750D01*
G75*
G02*
X156681250Y-97975000I243750J0D01*
G01*
X157168750Y-97975000D01*
G75*
G02*
X157412500Y-98218750I0J-243750D01*
G01*
X157412500Y-98781250D01*
G75*
G02*
X157168750Y-99025000I-243750J0D01*
G01*
X156681250Y-99025000D01*
G75*
G02*
X156437500Y-98781250I0J243750D01*
G01*
G37*
%TD*%
%TO.C,C2*%
G36*
G01*
X164062500Y-100468750D02*
X164062500Y-101031250D01*
G75*
G02*
X163818750Y-101275000I-243750J0D01*
G01*
X163331250Y-101275000D01*
G75*
G02*
X163087500Y-101031250I0J243750D01*
G01*
X163087500Y-100468750D01*
G75*
G02*
X163331250Y-100225000I243750J0D01*
G01*
X163818750Y-100225000D01*
G75*
G02*
X164062500Y-100468750I0J-243750D01*
G01*
G37*
G36*
G01*
X162487500Y-100468750D02*
X162487500Y-101031250D01*
G75*
G02*
X162243750Y-101275000I-243750J0D01*
G01*
X161756250Y-101275000D01*
G75*
G02*
X161512500Y-101031250I0J243750D01*
G01*
X161512500Y-100468750D01*
G75*
G02*
X161756250Y-100225000I243750J0D01*
G01*
X162243750Y-100225000D01*
G75*
G02*
X162487500Y-100468750I0J-243750D01*
G01*
G37*
%TD*%
%TO.C,C1*%
G36*
G01*
X162775000Y-113468750D02*
X162775000Y-114031250D01*
G75*
G02*
X162531250Y-114275000I-243750J0D01*
G01*
X162043750Y-114275000D01*
G75*
G02*
X161800000Y-114031250I0J243750D01*
G01*
X161800000Y-113468750D01*
G75*
G02*
X162043750Y-113225000I243750J0D01*
G01*
X162531250Y-113225000D01*
G75*
G02*
X162775000Y-113468750I0J-243750D01*
G01*
G37*
G36*
G01*
X161200000Y-113468750D02*
X161200000Y-114031250D01*
G75*
G02*
X160956250Y-114275000I-243750J0D01*
G01*
X160468750Y-114275000D01*
G75*
G02*
X160225000Y-114031250I0J243750D01*
G01*
X160225000Y-113468750D01*
G75*
G02*
X160468750Y-113225000I243750J0D01*
G01*
X160956250Y-113225000D01*
G75*
G02*
X161200000Y-113468750I0J-243750D01*
G01*
G37*
%TD*%
M02*
