%TF.GenerationSoftware,KiCad,Pcbnew,(5.1.6)-1*%
%TF.CreationDate,2020-11-02T22:50:54-07:00*%
%TF.ProjectId,single_driver,73696e67-6c65-45f6-9472-697665722e6b,rev?*%
%TF.SameCoordinates,Original*%
%TF.FileFunction,Copper,L2,Bot*%
%TF.FilePolarity,Positive*%
%FSLAX46Y46*%
G04 Gerber Fmt 4.6, Leading zero omitted, Abs format (unit mm)*
G04 Created by KiCad (PCBNEW (5.1.6)-1) date 2020-11-02 22:50:54*
%MOMM*%
%LPD*%
G01*
G04 APERTURE LIST*
%TA.AperFunction,ComponentPad*%
%ADD10O,1.700000X1.700000*%
%TD*%
%TA.AperFunction,ComponentPad*%
%ADD11R,1.700000X1.700000*%
%TD*%
%TA.AperFunction,ComponentPad*%
%ADD12C,1.524000*%
%TD*%
%TA.AperFunction,Conductor*%
%ADD13R,7.100000X3.200000*%
%TD*%
%TA.AperFunction,ViaPad*%
%ADD14C,0.600000*%
%TD*%
%TA.AperFunction,ComponentPad*%
%ADD15O,1.905000X2.000000*%
%TD*%
%TA.AperFunction,ComponentPad*%
%ADD16R,1.905000X2.000000*%
%TD*%
%TA.AperFunction,ComponentPad*%
%ADD17C,2.400000*%
%TD*%
%TA.AperFunction,ComponentPad*%
%ADD18R,2.400000X2.400000*%
%TD*%
%TA.AperFunction,ViaPad*%
%ADD19C,0.500000*%
%TD*%
%TA.AperFunction,ViaPad*%
%ADD20C,0.800000*%
%TD*%
%TA.AperFunction,Conductor*%
%ADD21C,0.400000*%
%TD*%
%TA.AperFunction,Conductor*%
%ADD22C,0.250000*%
%TD*%
%TA.AperFunction,Conductor*%
%ADD23C,0.254000*%
%TD*%
G04 APERTURE END LIST*
D10*
%TO.P,J1,6*%
%TO.N,GND*%
X166210000Y-94750000D03*
%TO.P,J1,5*%
%TO.N,/RST*%
X168750000Y-94750000D03*
%TO.P,J1,4*%
%TO.N,/MOSI*%
X166210000Y-97290000D03*
%TO.P,J1,3*%
%TO.N,/SCK*%
X168750000Y-97290000D03*
%TO.P,J1,2*%
%TO.N,+5V*%
X166210000Y-99830000D03*
D11*
%TO.P,J1,1*%
%TO.N,/MISO*%
X168750000Y-99830000D03*
%TD*%
D12*
%TO.P,RV1,3*%
%TO.N,+5V*%
X175000000Y-108170000D03*
%TO.P,RV1,2*%
%TO.N,Net-(RV1-Pad2)*%
X175000000Y-110710000D03*
%TO.P,RV1,1*%
%TO.N,GND*%
X175000000Y-113250000D03*
%TD*%
D13*
%TO.N,GND*%
%TO.C,U3*%
X149500000Y-104500000D03*
D14*
X152750000Y-103200000D03*
X152750000Y-104500000D03*
X152750000Y-105800000D03*
X151450000Y-103200000D03*
X151450000Y-104500000D03*
X151450000Y-105800000D03*
X150150000Y-103200000D03*
X150150000Y-104500000D03*
X150150000Y-105800000D03*
X148850000Y-103200000D03*
X148850000Y-104500000D03*
X148850000Y-105800000D03*
X147550000Y-103200000D03*
X147550000Y-104500000D03*
X147550000Y-105800000D03*
X146250000Y-103200000D03*
X146250000Y-104500000D03*
X146250000Y-105800000D03*
%TD*%
D15*
%TO.P,U2,3*%
%TO.N,+5V*%
X161580000Y-96000000D03*
%TO.P,U2,2*%
%TO.N,GND*%
X159040000Y-96000000D03*
D16*
%TO.P,U2,1*%
%TO.N,+12V*%
X156500000Y-96000000D03*
%TD*%
D10*
%TO.P,J3,8*%
%TO.N,/HW*%
X140000000Y-113000000D03*
%TO.P,J3,7*%
%TO.N,/HV*%
X140000000Y-110460000D03*
%TO.P,J3,6*%
%TO.N,/HU*%
X140000000Y-107920000D03*
%TO.P,J3,5*%
%TO.N,+5V*%
X140000000Y-105380000D03*
%TO.P,J3,4*%
%TO.N,GND*%
X140000000Y-102840000D03*
%TO.P,J3,3*%
%TO.N,Net-(J3-Pad3)*%
X140000000Y-100300000D03*
%TO.P,J3,2*%
%TO.N,Net-(J3-Pad2)*%
X140000000Y-97760000D03*
D11*
%TO.P,J3,1*%
%TO.N,Net-(J3-Pad1)*%
X140000000Y-95220000D03*
%TD*%
D17*
%TO.P,J2,2*%
%TO.N,GND*%
X176000000Y-103500000D03*
D18*
%TO.P,J2,1*%
%TO.N,+12V*%
X176000000Y-100000000D03*
%TD*%
D19*
%TO.N,+5V*%
X178500000Y-104250000D03*
X144749992Y-100000000D03*
X149250000Y-97750000D03*
%TO.N,/VINT*%
X144000000Y-111000000D03*
X146000000Y-111287500D03*
%TO.N,/RST*%
X164250000Y-98000000D03*
X164750000Y-110000000D03*
%TO.N,/MOSI*%
X166424516Y-101342297D03*
%TO.N,/SCK*%
X165250000Y-101750000D03*
%TO.N,/MISO*%
X166750000Y-103750000D03*
D20*
%TO.N,/HW*%
X149000000Y-109712500D03*
%TO.N,/HV*%
X147500000Y-109712500D03*
D19*
%TO.N,Net-(J3-Pad3)*%
X152500000Y-108500000D03*
X142000000Y-108000000D03*
D20*
%TO.N,Net-(J3-Pad2)*%
X156774990Y-99627334D03*
%TO.N,Net-(J3-Pad1)*%
X155147969Y-99923289D03*
D19*
%TO.N,/HBIAS*%
X145750000Y-108750000D03*
X149680587Y-108704814D03*
X148250000Y-108750000D03*
X147000000Y-108750000D03*
%TO.N,/FG*%
X144750000Y-101575000D03*
X155500000Y-104750000D03*
%TO.N,/RD*%
X159700000Y-103000000D03*
X149077804Y-99050011D03*
%TO.N,Net-(RV1-Pad2)*%
X165000000Y-105000000D03*
%TO.N,/CTD*%
X162415248Y-105924990D03*
X148590714Y-100412158D03*
%TO.N,/DAA*%
X145250000Y-107250000D03*
D20*
X160225010Y-108858422D03*
D19*
%TO.N,/BKD*%
X161352106Y-108544513D03*
X147750000Y-100500000D03*
%TO.N,/PWM*%
X163000000Y-108500000D03*
X149261509Y-100650033D03*
%TO.N,/FR*%
X145877554Y-100176886D03*
X164500000Y-111500000D03*
%TO.N,GND*%
X144500000Y-95000000D03*
X144212500Y-96500000D03*
X146750000Y-98250000D03*
X143000000Y-98000000D03*
X160712500Y-113750000D03*
X153500000Y-112500000D03*
X142840000Y-102840000D03*
D20*
X169000000Y-110000000D03*
X154750000Y-113750000D03*
%TD*%
D21*
%TO.N,+12V*%
X176000000Y-100000000D02*
X176000000Y-99750000D01*
X159000001Y-93499999D02*
X156500000Y-96000000D01*
X169749999Y-93499999D02*
X159000001Y-93499999D01*
X176000000Y-99750000D02*
X169749999Y-93499999D01*
%TO.N,+5V*%
X178500000Y-104670000D02*
X178500000Y-104250000D01*
X175000000Y-108170000D02*
X178500000Y-104670000D01*
D22*
X138750000Y-102350998D02*
X139600998Y-101500000D01*
X140000000Y-105380000D02*
X138750000Y-104130000D01*
X143249992Y-101500000D02*
X144749992Y-100000000D01*
X138750000Y-104130000D02*
X138750000Y-102350998D01*
X139600998Y-101500000D02*
X143249992Y-101500000D01*
X156049988Y-99975336D02*
X156426988Y-100352336D01*
X156049988Y-99799988D02*
X156049988Y-99975336D01*
X154000000Y-97750000D02*
X156049988Y-99799988D01*
X149250000Y-97750000D02*
X154000000Y-97750000D01*
X156426988Y-100352336D02*
X157227664Y-100352336D01*
X157227664Y-100352336D02*
X161580000Y-96000000D01*
%TO.N,/VINT*%
X144000000Y-111000000D02*
X145712500Y-111000000D01*
X145712500Y-111000000D02*
X146000000Y-111287500D01*
%TO.N,/RST*%
X164250000Y-98000000D02*
X164250000Y-109500000D01*
X164250000Y-109500000D02*
X164750000Y-110000000D01*
%TO.N,/MOSI*%
X167499999Y-100266814D02*
X166424516Y-101342297D01*
X167499999Y-98579999D02*
X167499999Y-100266814D01*
X166210000Y-97290000D02*
X167499999Y-98579999D01*
%TO.N,/SCK*%
X165000001Y-101500001D02*
X165250000Y-101750000D01*
X164825001Y-96935997D02*
X164825001Y-101325001D01*
X167500000Y-96040000D02*
X165720998Y-96040000D01*
X165720998Y-96040000D02*
X164825001Y-96935997D01*
X164825001Y-101325001D02*
X165000001Y-101500001D01*
X168750000Y-97290000D02*
X167500000Y-96040000D01*
%TO.N,/MISO*%
X166750000Y-101830000D02*
X168750000Y-99830000D01*
X166750000Y-103750000D02*
X166750000Y-101830000D01*
%TO.N,/HW*%
X140000000Y-113000000D02*
X145712500Y-113000000D01*
X145712500Y-113000000D02*
X149000000Y-109712500D01*
%TO.N,/HV*%
X140000000Y-110460000D02*
X140849999Y-109610001D01*
X140849999Y-109610001D02*
X147397501Y-109610001D01*
X147397501Y-109610001D02*
X147500000Y-109712500D01*
%TO.N,Net-(J3-Pad3)*%
X152000000Y-108000000D02*
X152500000Y-108500000D01*
X142000000Y-108000000D02*
X152000000Y-108000000D01*
D21*
%TO.N,Net-(J3-Pad2)*%
X140000000Y-97760000D02*
X140410002Y-97349998D01*
X144324506Y-97349998D02*
X144764503Y-96910001D01*
X140410002Y-97349998D02*
X144324506Y-97349998D01*
X144764503Y-96910001D02*
X154057657Y-96910001D01*
X154057657Y-96910001D02*
X156774990Y-99627334D01*
%TO.N,Net-(J3-Pad1)*%
X139399999Y-99010001D02*
X148037070Y-99010001D01*
X138500000Y-98110002D02*
X139399999Y-99010001D01*
X138500000Y-95470000D02*
X138500000Y-98110002D01*
X148037070Y-99010001D02*
X148647070Y-98400001D01*
X153624681Y-98400001D02*
X155147969Y-99923289D01*
X148647070Y-98400001D02*
X153624681Y-98400001D01*
X138750000Y-95220000D02*
X138500000Y-95470000D01*
X140000000Y-95220000D02*
X138750000Y-95220000D01*
D22*
%TO.N,/HBIAS*%
X149635401Y-108750000D02*
X149680587Y-108704814D01*
X148250000Y-108750000D02*
X149635401Y-108750000D01*
X147000000Y-108750000D02*
X148250000Y-108750000D01*
X145750000Y-108750000D02*
X147000000Y-108750000D01*
%TO.N,/FG*%
X144850045Y-101675045D02*
X152425045Y-101675045D01*
X155250001Y-104500001D02*
X155500000Y-104750000D01*
X144750000Y-101575000D02*
X144850045Y-101675045D01*
X152425045Y-101675045D02*
X155250001Y-104500001D01*
%TO.N,/RD*%
X159700000Y-103000000D02*
X157151676Y-103000000D01*
X157151676Y-103000000D02*
X153201687Y-99050011D01*
X153201687Y-99050011D02*
X149077804Y-99050011D01*
%TO.N,Net-(RV1-Pad2)*%
X169290000Y-105000000D02*
X175000000Y-110710000D01*
X165000000Y-105000000D02*
X169290000Y-105000000D01*
%TO.N,/CTD*%
X162415248Y-105924990D02*
X162165249Y-105674991D01*
X158553845Y-105674991D02*
X152953877Y-100075023D01*
X148927849Y-100075023D02*
X148590714Y-100412158D01*
X152953877Y-100075023D02*
X148927849Y-100075023D01*
X162165249Y-105674991D02*
X158553845Y-105674991D01*
%TO.N,/DAA*%
X158616588Y-107250000D02*
X160225010Y-108858422D01*
X145250000Y-107250000D02*
X158616588Y-107250000D01*
%TO.N,/BKD*%
X148447931Y-101225034D02*
X152831066Y-101225034D01*
X158406021Y-106799989D02*
X159607582Y-106799989D01*
X159607582Y-106799989D02*
X161352106Y-108544513D01*
X152831066Y-101225034D02*
X158406021Y-106799989D01*
X147931091Y-100708194D02*
X148447931Y-101225034D01*
X147931091Y-100681091D02*
X147750000Y-100500000D01*
X147931091Y-100708194D02*
X147931091Y-100681091D01*
%TO.N,/PWM*%
X163000000Y-108500000D02*
X160849978Y-106349978D01*
X160849978Y-106349978D02*
X158592421Y-106349978D01*
X152892476Y-100650033D02*
X149261509Y-100650033D01*
X158592421Y-106349978D02*
X152892476Y-100650033D01*
%TO.N,/FR*%
X145877554Y-100176886D02*
X146429428Y-99625012D01*
X163799989Y-110799989D02*
X164500000Y-111500000D01*
X161366995Y-104049989D02*
X163799989Y-106482983D01*
X157565254Y-104049989D02*
X161366995Y-104049989D01*
X163799989Y-106482983D02*
X163799989Y-110799989D01*
X153140277Y-99625012D02*
X157565254Y-104049989D01*
X146429428Y-99625012D02*
X153140277Y-99625012D01*
D21*
%TO.N,GND*%
X145890000Y-102840000D02*
X146250000Y-103200000D01*
D22*
X144500000Y-96212500D02*
X144212500Y-96500000D01*
X144500000Y-95000000D02*
X144500000Y-96212500D01*
X146500000Y-98000000D02*
X143000000Y-98000000D01*
X146750000Y-98250000D02*
X146500000Y-98000000D01*
X160712500Y-113750000D02*
X154750000Y-113750000D01*
X154750000Y-113750000D02*
X153500000Y-112500000D01*
D21*
X140000000Y-102840000D02*
X142840000Y-102840000D01*
X142840000Y-102840000D02*
X145890000Y-102840000D01*
D22*
X154750000Y-113750000D02*
X154750000Y-113750000D01*
%TD*%
D23*
%TO.N,GND*%
G36*
X179340001Y-115340000D02*
G01*
X138660000Y-115340000D01*
X138660000Y-113645445D01*
X138684010Y-113703411D01*
X138846525Y-113946632D01*
X139053368Y-114153475D01*
X139296589Y-114315990D01*
X139566842Y-114427932D01*
X139853740Y-114485000D01*
X140146260Y-114485000D01*
X140433158Y-114427932D01*
X140703411Y-114315990D01*
X140853707Y-114215565D01*
X174214040Y-114215565D01*
X174281020Y-114455656D01*
X174530048Y-114572756D01*
X174797135Y-114639023D01*
X175072017Y-114651910D01*
X175344133Y-114610922D01*
X175603023Y-114517636D01*
X175718980Y-114455656D01*
X175785960Y-114215565D01*
X175000000Y-113429605D01*
X174214040Y-114215565D01*
X140853707Y-114215565D01*
X140946632Y-114153475D01*
X141153475Y-113946632D01*
X141278178Y-113760000D01*
X145675178Y-113760000D01*
X145712500Y-113763676D01*
X145749822Y-113760000D01*
X145749833Y-113760000D01*
X145861486Y-113749003D01*
X146004747Y-113705546D01*
X146136776Y-113634974D01*
X146252501Y-113540001D01*
X146276304Y-113510997D01*
X146465284Y-113322017D01*
X173598090Y-113322017D01*
X173639078Y-113594133D01*
X173732364Y-113853023D01*
X173794344Y-113968980D01*
X174034435Y-114035960D01*
X174820395Y-113250000D01*
X175179605Y-113250000D01*
X175965565Y-114035960D01*
X176205656Y-113968980D01*
X176322756Y-113719952D01*
X176389023Y-113452865D01*
X176401910Y-113177983D01*
X176360922Y-112905867D01*
X176267636Y-112646977D01*
X176205656Y-112531020D01*
X175965565Y-112464040D01*
X175179605Y-113250000D01*
X174820395Y-113250000D01*
X174034435Y-112464040D01*
X173794344Y-112531020D01*
X173677244Y-112780048D01*
X173610977Y-113047135D01*
X173598090Y-113322017D01*
X146465284Y-113322017D01*
X149039802Y-110747500D01*
X149101939Y-110747500D01*
X149301898Y-110707726D01*
X149490256Y-110629705D01*
X149659774Y-110516437D01*
X149803937Y-110372274D01*
X149917205Y-110202756D01*
X149995226Y-110014398D01*
X150035000Y-109814439D01*
X150035000Y-109610561D01*
X150017609Y-109523132D01*
X150099792Y-109489091D01*
X150244742Y-109392238D01*
X150368011Y-109268969D01*
X150464864Y-109124019D01*
X150531577Y-108962959D01*
X150565587Y-108791979D01*
X150565587Y-108760000D01*
X151649778Y-108760000D01*
X151715723Y-108919205D01*
X151812576Y-109064155D01*
X151935845Y-109187424D01*
X152080795Y-109284277D01*
X152241855Y-109350990D01*
X152412835Y-109385000D01*
X152587165Y-109385000D01*
X152758145Y-109350990D01*
X152919205Y-109284277D01*
X153064155Y-109187424D01*
X153187424Y-109064155D01*
X153284277Y-108919205D01*
X153350990Y-108758145D01*
X153385000Y-108587165D01*
X153385000Y-108412835D01*
X153350990Y-108241855D01*
X153284277Y-108080795D01*
X153236973Y-108010000D01*
X158301787Y-108010000D01*
X159190010Y-108898224D01*
X159190010Y-108960361D01*
X159229784Y-109160320D01*
X159307805Y-109348678D01*
X159421073Y-109518196D01*
X159565236Y-109662359D01*
X159734754Y-109775627D01*
X159923112Y-109853648D01*
X160123071Y-109893422D01*
X160326949Y-109893422D01*
X160526908Y-109853648D01*
X160715266Y-109775627D01*
X160884784Y-109662359D01*
X161028947Y-109518196D01*
X161108937Y-109398482D01*
X161264941Y-109429513D01*
X161439271Y-109429513D01*
X161610251Y-109395503D01*
X161771311Y-109328790D01*
X161916261Y-109231937D01*
X162039530Y-109108668D01*
X162136383Y-108963718D01*
X162185272Y-108845689D01*
X162215723Y-108919205D01*
X162312576Y-109064155D01*
X162435845Y-109187424D01*
X162580795Y-109284277D01*
X162741855Y-109350990D01*
X162912835Y-109385000D01*
X163039990Y-109385000D01*
X163039990Y-110762657D01*
X163036313Y-110799989D01*
X163039990Y-110837322D01*
X163047428Y-110912835D01*
X163050987Y-110948974D01*
X163094443Y-111092235D01*
X163165015Y-111224265D01*
X163220807Y-111292247D01*
X163259989Y-111339990D01*
X163288987Y-111363788D01*
X163640485Y-111715286D01*
X163649010Y-111758145D01*
X163715723Y-111919205D01*
X163812576Y-112064155D01*
X163935845Y-112187424D01*
X164080795Y-112284277D01*
X164241855Y-112350990D01*
X164412835Y-112385000D01*
X164587165Y-112385000D01*
X164758145Y-112350990D01*
X164919205Y-112284277D01*
X165064155Y-112187424D01*
X165187424Y-112064155D01*
X165284277Y-111919205D01*
X165350990Y-111758145D01*
X165385000Y-111587165D01*
X165385000Y-111412835D01*
X165350990Y-111241855D01*
X165284277Y-111080795D01*
X165187424Y-110935845D01*
X165074913Y-110823334D01*
X165169205Y-110784277D01*
X165314155Y-110687424D01*
X165437424Y-110564155D01*
X165534277Y-110419205D01*
X165600990Y-110258145D01*
X165635000Y-110087165D01*
X165635000Y-109912835D01*
X165600990Y-109741855D01*
X165534277Y-109580795D01*
X165437424Y-109435845D01*
X165314155Y-109312576D01*
X165169205Y-109215723D01*
X165010000Y-109149778D01*
X165010000Y-105885000D01*
X165087165Y-105885000D01*
X165258145Y-105850990D01*
X165419205Y-105784277D01*
X165455538Y-105760000D01*
X168975199Y-105760000D01*
X173633628Y-110418431D01*
X173603000Y-110572408D01*
X173603000Y-110847592D01*
X173656686Y-111117490D01*
X173761995Y-111371727D01*
X173914880Y-111600535D01*
X174109465Y-111795120D01*
X174338273Y-111948005D01*
X174409943Y-111977692D01*
X174396977Y-111982364D01*
X174281020Y-112044344D01*
X174214040Y-112284435D01*
X175000000Y-113070395D01*
X175785960Y-112284435D01*
X175718980Y-112044344D01*
X175583240Y-111980515D01*
X175661727Y-111948005D01*
X175890535Y-111795120D01*
X176085120Y-111600535D01*
X176238005Y-111371727D01*
X176343314Y-111117490D01*
X176397000Y-110847592D01*
X176397000Y-110572408D01*
X176343314Y-110302510D01*
X176238005Y-110048273D01*
X176085120Y-109819465D01*
X175890535Y-109624880D01*
X175661727Y-109471995D01*
X175584485Y-109440000D01*
X175661727Y-109408005D01*
X175890535Y-109255120D01*
X176085120Y-109060535D01*
X176238005Y-108831727D01*
X176343314Y-108577490D01*
X176397000Y-108307592D01*
X176397000Y-108032408D01*
X176383969Y-107966898D01*
X179061428Y-105289440D01*
X179093291Y-105263291D01*
X179197636Y-105136146D01*
X179275172Y-104991087D01*
X179322918Y-104833689D01*
X179335000Y-104711019D01*
X179335000Y-104711009D01*
X179339039Y-104670001D01*
X179335000Y-104628993D01*
X179335000Y-104546748D01*
X179340001Y-104534676D01*
X179340001Y-115340000D01*
G37*
X179340001Y-115340000D02*
X138660000Y-115340000D01*
X138660000Y-113645445D01*
X138684010Y-113703411D01*
X138846525Y-113946632D01*
X139053368Y-114153475D01*
X139296589Y-114315990D01*
X139566842Y-114427932D01*
X139853740Y-114485000D01*
X140146260Y-114485000D01*
X140433158Y-114427932D01*
X140703411Y-114315990D01*
X140853707Y-114215565D01*
X174214040Y-114215565D01*
X174281020Y-114455656D01*
X174530048Y-114572756D01*
X174797135Y-114639023D01*
X175072017Y-114651910D01*
X175344133Y-114610922D01*
X175603023Y-114517636D01*
X175718980Y-114455656D01*
X175785960Y-114215565D01*
X175000000Y-113429605D01*
X174214040Y-114215565D01*
X140853707Y-114215565D01*
X140946632Y-114153475D01*
X141153475Y-113946632D01*
X141278178Y-113760000D01*
X145675178Y-113760000D01*
X145712500Y-113763676D01*
X145749822Y-113760000D01*
X145749833Y-113760000D01*
X145861486Y-113749003D01*
X146004747Y-113705546D01*
X146136776Y-113634974D01*
X146252501Y-113540001D01*
X146276304Y-113510997D01*
X146465284Y-113322017D01*
X173598090Y-113322017D01*
X173639078Y-113594133D01*
X173732364Y-113853023D01*
X173794344Y-113968980D01*
X174034435Y-114035960D01*
X174820395Y-113250000D01*
X175179605Y-113250000D01*
X175965565Y-114035960D01*
X176205656Y-113968980D01*
X176322756Y-113719952D01*
X176389023Y-113452865D01*
X176401910Y-113177983D01*
X176360922Y-112905867D01*
X176267636Y-112646977D01*
X176205656Y-112531020D01*
X175965565Y-112464040D01*
X175179605Y-113250000D01*
X174820395Y-113250000D01*
X174034435Y-112464040D01*
X173794344Y-112531020D01*
X173677244Y-112780048D01*
X173610977Y-113047135D01*
X173598090Y-113322017D01*
X146465284Y-113322017D01*
X149039802Y-110747500D01*
X149101939Y-110747500D01*
X149301898Y-110707726D01*
X149490256Y-110629705D01*
X149659774Y-110516437D01*
X149803937Y-110372274D01*
X149917205Y-110202756D01*
X149995226Y-110014398D01*
X150035000Y-109814439D01*
X150035000Y-109610561D01*
X150017609Y-109523132D01*
X150099792Y-109489091D01*
X150244742Y-109392238D01*
X150368011Y-109268969D01*
X150464864Y-109124019D01*
X150531577Y-108962959D01*
X150565587Y-108791979D01*
X150565587Y-108760000D01*
X151649778Y-108760000D01*
X151715723Y-108919205D01*
X151812576Y-109064155D01*
X151935845Y-109187424D01*
X152080795Y-109284277D01*
X152241855Y-109350990D01*
X152412835Y-109385000D01*
X152587165Y-109385000D01*
X152758145Y-109350990D01*
X152919205Y-109284277D01*
X153064155Y-109187424D01*
X153187424Y-109064155D01*
X153284277Y-108919205D01*
X153350990Y-108758145D01*
X153385000Y-108587165D01*
X153385000Y-108412835D01*
X153350990Y-108241855D01*
X153284277Y-108080795D01*
X153236973Y-108010000D01*
X158301787Y-108010000D01*
X159190010Y-108898224D01*
X159190010Y-108960361D01*
X159229784Y-109160320D01*
X159307805Y-109348678D01*
X159421073Y-109518196D01*
X159565236Y-109662359D01*
X159734754Y-109775627D01*
X159923112Y-109853648D01*
X160123071Y-109893422D01*
X160326949Y-109893422D01*
X160526908Y-109853648D01*
X160715266Y-109775627D01*
X160884784Y-109662359D01*
X161028947Y-109518196D01*
X161108937Y-109398482D01*
X161264941Y-109429513D01*
X161439271Y-109429513D01*
X161610251Y-109395503D01*
X161771311Y-109328790D01*
X161916261Y-109231937D01*
X162039530Y-109108668D01*
X162136383Y-108963718D01*
X162185272Y-108845689D01*
X162215723Y-108919205D01*
X162312576Y-109064155D01*
X162435845Y-109187424D01*
X162580795Y-109284277D01*
X162741855Y-109350990D01*
X162912835Y-109385000D01*
X163039990Y-109385000D01*
X163039990Y-110762657D01*
X163036313Y-110799989D01*
X163039990Y-110837322D01*
X163047428Y-110912835D01*
X163050987Y-110948974D01*
X163094443Y-111092235D01*
X163165015Y-111224265D01*
X163220807Y-111292247D01*
X163259989Y-111339990D01*
X163288987Y-111363788D01*
X163640485Y-111715286D01*
X163649010Y-111758145D01*
X163715723Y-111919205D01*
X163812576Y-112064155D01*
X163935845Y-112187424D01*
X164080795Y-112284277D01*
X164241855Y-112350990D01*
X164412835Y-112385000D01*
X164587165Y-112385000D01*
X164758145Y-112350990D01*
X164919205Y-112284277D01*
X165064155Y-112187424D01*
X165187424Y-112064155D01*
X165284277Y-111919205D01*
X165350990Y-111758145D01*
X165385000Y-111587165D01*
X165385000Y-111412835D01*
X165350990Y-111241855D01*
X165284277Y-111080795D01*
X165187424Y-110935845D01*
X165074913Y-110823334D01*
X165169205Y-110784277D01*
X165314155Y-110687424D01*
X165437424Y-110564155D01*
X165534277Y-110419205D01*
X165600990Y-110258145D01*
X165635000Y-110087165D01*
X165635000Y-109912835D01*
X165600990Y-109741855D01*
X165534277Y-109580795D01*
X165437424Y-109435845D01*
X165314155Y-109312576D01*
X165169205Y-109215723D01*
X165010000Y-109149778D01*
X165010000Y-105885000D01*
X165087165Y-105885000D01*
X165258145Y-105850990D01*
X165419205Y-105784277D01*
X165455538Y-105760000D01*
X168975199Y-105760000D01*
X173633628Y-110418431D01*
X173603000Y-110572408D01*
X173603000Y-110847592D01*
X173656686Y-111117490D01*
X173761995Y-111371727D01*
X173914880Y-111600535D01*
X174109465Y-111795120D01*
X174338273Y-111948005D01*
X174409943Y-111977692D01*
X174396977Y-111982364D01*
X174281020Y-112044344D01*
X174214040Y-112284435D01*
X175000000Y-113070395D01*
X175785960Y-112284435D01*
X175718980Y-112044344D01*
X175583240Y-111980515D01*
X175661727Y-111948005D01*
X175890535Y-111795120D01*
X176085120Y-111600535D01*
X176238005Y-111371727D01*
X176343314Y-111117490D01*
X176397000Y-110847592D01*
X176397000Y-110572408D01*
X176343314Y-110302510D01*
X176238005Y-110048273D01*
X176085120Y-109819465D01*
X175890535Y-109624880D01*
X175661727Y-109471995D01*
X175584485Y-109440000D01*
X175661727Y-109408005D01*
X175890535Y-109255120D01*
X176085120Y-109060535D01*
X176238005Y-108831727D01*
X176343314Y-108577490D01*
X176397000Y-108307592D01*
X176397000Y-108032408D01*
X176383969Y-107966898D01*
X179061428Y-105289440D01*
X179093291Y-105263291D01*
X179197636Y-105136146D01*
X179275172Y-104991087D01*
X179322918Y-104833689D01*
X179335000Y-104711019D01*
X179335000Y-104711009D01*
X179339039Y-104670001D01*
X179335000Y-104628993D01*
X179335000Y-104546748D01*
X179340001Y-104534676D01*
X179340001Y-115340000D01*
G36*
X179340000Y-103965324D02*
G01*
X179284277Y-103830795D01*
X179187424Y-103685845D01*
X179064155Y-103562576D01*
X178919205Y-103465723D01*
X178758145Y-103399010D01*
X178587165Y-103365000D01*
X178412835Y-103365000D01*
X178241855Y-103399010D01*
X178080795Y-103465723D01*
X177935845Y-103562576D01*
X177827593Y-103670828D01*
X177843067Y-103445316D01*
X177796985Y-103086802D01*
X177681846Y-102744167D01*
X177562836Y-102521514D01*
X177277980Y-102401626D01*
X176179605Y-103500000D01*
X176193748Y-103514142D01*
X176014142Y-103693748D01*
X176000000Y-103679605D01*
X174901626Y-104777980D01*
X175021514Y-105062836D01*
X175345210Y-105223699D01*
X175694069Y-105318322D01*
X176054684Y-105343067D01*
X176413198Y-105296985D01*
X176755833Y-105181846D01*
X176866369Y-105122764D01*
X175203102Y-106786031D01*
X175137592Y-106773000D01*
X174862408Y-106773000D01*
X174592510Y-106826686D01*
X174338273Y-106931995D01*
X174109465Y-107084880D01*
X173914880Y-107279465D01*
X173761995Y-107508273D01*
X173656686Y-107762510D01*
X173603000Y-108032408D01*
X173603000Y-108238198D01*
X169853804Y-104489003D01*
X169830001Y-104459999D01*
X169714276Y-104365026D01*
X169582247Y-104294454D01*
X169438986Y-104250997D01*
X169327333Y-104240000D01*
X169327322Y-104240000D01*
X169290000Y-104236324D01*
X169252678Y-104240000D01*
X167486973Y-104240000D01*
X167534277Y-104169205D01*
X167600990Y-104008145D01*
X167635000Y-103837165D01*
X167635000Y-103662835D01*
X167613488Y-103554684D01*
X174156933Y-103554684D01*
X174203015Y-103913198D01*
X174318154Y-104255833D01*
X174437164Y-104478486D01*
X174722020Y-104598374D01*
X175820395Y-103500000D01*
X174722020Y-102401626D01*
X174437164Y-102521514D01*
X174276301Y-102845210D01*
X174181678Y-103194069D01*
X174156933Y-103554684D01*
X167613488Y-103554684D01*
X167600990Y-103491855D01*
X167534277Y-103330795D01*
X167510000Y-103294462D01*
X167510000Y-102144801D01*
X168336730Y-101318072D01*
X169600000Y-101318072D01*
X169724482Y-101305812D01*
X169844180Y-101269502D01*
X169954494Y-101210537D01*
X170051185Y-101131185D01*
X170130537Y-101034494D01*
X170189502Y-100924180D01*
X170225812Y-100804482D01*
X170238072Y-100680000D01*
X170238072Y-98980000D01*
X170225812Y-98855518D01*
X170189502Y-98735820D01*
X170130537Y-98625506D01*
X170051185Y-98528815D01*
X169954494Y-98449463D01*
X169844180Y-98390498D01*
X169771620Y-98368487D01*
X169903475Y-98236632D01*
X170065990Y-97993411D01*
X170177932Y-97723158D01*
X170235000Y-97436260D01*
X170235000Y-97143740D01*
X170177932Y-96856842D01*
X170065990Y-96586589D01*
X169903475Y-96343368D01*
X169696632Y-96136525D01*
X169522240Y-96020000D01*
X169696632Y-95903475D01*
X169903475Y-95696632D01*
X170065990Y-95453411D01*
X170177932Y-95183158D01*
X170190269Y-95121136D01*
X174161928Y-99092796D01*
X174161928Y-101200000D01*
X174174188Y-101324482D01*
X174210498Y-101444180D01*
X174269463Y-101554494D01*
X174348815Y-101651185D01*
X174445506Y-101730537D01*
X174555820Y-101789502D01*
X174675518Y-101825812D01*
X174800000Y-101838072D01*
X175206903Y-101838072D01*
X175021514Y-101937164D01*
X174901626Y-102222020D01*
X176000000Y-103320395D01*
X177098374Y-102222020D01*
X176978486Y-101937164D01*
X176779088Y-101838072D01*
X177200000Y-101838072D01*
X177324482Y-101825812D01*
X177444180Y-101789502D01*
X177554494Y-101730537D01*
X177651185Y-101651185D01*
X177730537Y-101554494D01*
X177789502Y-101444180D01*
X177825812Y-101324482D01*
X177838072Y-101200000D01*
X177838072Y-98800000D01*
X177825812Y-98675518D01*
X177789502Y-98555820D01*
X177730537Y-98445506D01*
X177651185Y-98348815D01*
X177554494Y-98269463D01*
X177444180Y-98210498D01*
X177324482Y-98174188D01*
X177200000Y-98161928D01*
X175592796Y-98161928D01*
X170369445Y-92938578D01*
X170343290Y-92906708D01*
X170216145Y-92802363D01*
X170071086Y-92724827D01*
X169913688Y-92677081D01*
X169791018Y-92664999D01*
X169791017Y-92664999D01*
X169749999Y-92660959D01*
X169708981Y-92664999D01*
X159041008Y-92664999D01*
X159000000Y-92660960D01*
X158958992Y-92664999D01*
X158958982Y-92664999D01*
X158836312Y-92677081D01*
X158678914Y-92724827D01*
X158533855Y-92802363D01*
X158406710Y-92906708D01*
X158380560Y-92938572D01*
X156957205Y-94361928D01*
X155547500Y-94361928D01*
X155423018Y-94374188D01*
X155303320Y-94410498D01*
X155193006Y-94469463D01*
X155096315Y-94548815D01*
X155016963Y-94645506D01*
X154957998Y-94755820D01*
X154921688Y-94875518D01*
X154909428Y-95000000D01*
X154909428Y-96580905D01*
X154677103Y-96348580D01*
X154650948Y-96316710D01*
X154523803Y-96212365D01*
X154378744Y-96134829D01*
X154221346Y-96087083D01*
X154098676Y-96075001D01*
X154098675Y-96075001D01*
X154057657Y-96070961D01*
X154016639Y-96075001D01*
X144805521Y-96075001D01*
X144764503Y-96070961D01*
X144723485Y-96075001D01*
X144723484Y-96075001D01*
X144600814Y-96087083D01*
X144443416Y-96134829D01*
X144298357Y-96212365D01*
X144171212Y-96316710D01*
X144145061Y-96348575D01*
X143978638Y-96514998D01*
X141306263Y-96514998D01*
X141380537Y-96424494D01*
X141439502Y-96314180D01*
X141475812Y-96194482D01*
X141488072Y-96070000D01*
X141488072Y-94370000D01*
X141475812Y-94245518D01*
X141439502Y-94125820D01*
X141380537Y-94015506D01*
X141301185Y-93918815D01*
X141204494Y-93839463D01*
X141094180Y-93780498D01*
X140974482Y-93744188D01*
X140850000Y-93731928D01*
X139150000Y-93731928D01*
X139025518Y-93744188D01*
X138905820Y-93780498D01*
X138795506Y-93839463D01*
X138698815Y-93918815D01*
X138660000Y-93966111D01*
X138660000Y-92660000D01*
X179340000Y-92660000D01*
X179340000Y-103965324D01*
G37*
X179340000Y-103965324D02*
X179284277Y-103830795D01*
X179187424Y-103685845D01*
X179064155Y-103562576D01*
X178919205Y-103465723D01*
X178758145Y-103399010D01*
X178587165Y-103365000D01*
X178412835Y-103365000D01*
X178241855Y-103399010D01*
X178080795Y-103465723D01*
X177935845Y-103562576D01*
X177827593Y-103670828D01*
X177843067Y-103445316D01*
X177796985Y-103086802D01*
X177681846Y-102744167D01*
X177562836Y-102521514D01*
X177277980Y-102401626D01*
X176179605Y-103500000D01*
X176193748Y-103514142D01*
X176014142Y-103693748D01*
X176000000Y-103679605D01*
X174901626Y-104777980D01*
X175021514Y-105062836D01*
X175345210Y-105223699D01*
X175694069Y-105318322D01*
X176054684Y-105343067D01*
X176413198Y-105296985D01*
X176755833Y-105181846D01*
X176866369Y-105122764D01*
X175203102Y-106786031D01*
X175137592Y-106773000D01*
X174862408Y-106773000D01*
X174592510Y-106826686D01*
X174338273Y-106931995D01*
X174109465Y-107084880D01*
X173914880Y-107279465D01*
X173761995Y-107508273D01*
X173656686Y-107762510D01*
X173603000Y-108032408D01*
X173603000Y-108238198D01*
X169853804Y-104489003D01*
X169830001Y-104459999D01*
X169714276Y-104365026D01*
X169582247Y-104294454D01*
X169438986Y-104250997D01*
X169327333Y-104240000D01*
X169327322Y-104240000D01*
X169290000Y-104236324D01*
X169252678Y-104240000D01*
X167486973Y-104240000D01*
X167534277Y-104169205D01*
X167600990Y-104008145D01*
X167635000Y-103837165D01*
X167635000Y-103662835D01*
X167613488Y-103554684D01*
X174156933Y-103554684D01*
X174203015Y-103913198D01*
X174318154Y-104255833D01*
X174437164Y-104478486D01*
X174722020Y-104598374D01*
X175820395Y-103500000D01*
X174722020Y-102401626D01*
X174437164Y-102521514D01*
X174276301Y-102845210D01*
X174181678Y-103194069D01*
X174156933Y-103554684D01*
X167613488Y-103554684D01*
X167600990Y-103491855D01*
X167534277Y-103330795D01*
X167510000Y-103294462D01*
X167510000Y-102144801D01*
X168336730Y-101318072D01*
X169600000Y-101318072D01*
X169724482Y-101305812D01*
X169844180Y-101269502D01*
X169954494Y-101210537D01*
X170051185Y-101131185D01*
X170130537Y-101034494D01*
X170189502Y-100924180D01*
X170225812Y-100804482D01*
X170238072Y-100680000D01*
X170238072Y-98980000D01*
X170225812Y-98855518D01*
X170189502Y-98735820D01*
X170130537Y-98625506D01*
X170051185Y-98528815D01*
X169954494Y-98449463D01*
X169844180Y-98390498D01*
X169771620Y-98368487D01*
X169903475Y-98236632D01*
X170065990Y-97993411D01*
X170177932Y-97723158D01*
X170235000Y-97436260D01*
X170235000Y-97143740D01*
X170177932Y-96856842D01*
X170065990Y-96586589D01*
X169903475Y-96343368D01*
X169696632Y-96136525D01*
X169522240Y-96020000D01*
X169696632Y-95903475D01*
X169903475Y-95696632D01*
X170065990Y-95453411D01*
X170177932Y-95183158D01*
X170190269Y-95121136D01*
X174161928Y-99092796D01*
X174161928Y-101200000D01*
X174174188Y-101324482D01*
X174210498Y-101444180D01*
X174269463Y-101554494D01*
X174348815Y-101651185D01*
X174445506Y-101730537D01*
X174555820Y-101789502D01*
X174675518Y-101825812D01*
X174800000Y-101838072D01*
X175206903Y-101838072D01*
X175021514Y-101937164D01*
X174901626Y-102222020D01*
X176000000Y-103320395D01*
X177098374Y-102222020D01*
X176978486Y-101937164D01*
X176779088Y-101838072D01*
X177200000Y-101838072D01*
X177324482Y-101825812D01*
X177444180Y-101789502D01*
X177554494Y-101730537D01*
X177651185Y-101651185D01*
X177730537Y-101554494D01*
X177789502Y-101444180D01*
X177825812Y-101324482D01*
X177838072Y-101200000D01*
X177838072Y-98800000D01*
X177825812Y-98675518D01*
X177789502Y-98555820D01*
X177730537Y-98445506D01*
X177651185Y-98348815D01*
X177554494Y-98269463D01*
X177444180Y-98210498D01*
X177324482Y-98174188D01*
X177200000Y-98161928D01*
X175592796Y-98161928D01*
X170369445Y-92938578D01*
X170343290Y-92906708D01*
X170216145Y-92802363D01*
X170071086Y-92724827D01*
X169913688Y-92677081D01*
X169791018Y-92664999D01*
X169791017Y-92664999D01*
X169749999Y-92660959D01*
X169708981Y-92664999D01*
X159041008Y-92664999D01*
X159000000Y-92660960D01*
X158958992Y-92664999D01*
X158958982Y-92664999D01*
X158836312Y-92677081D01*
X158678914Y-92724827D01*
X158533855Y-92802363D01*
X158406710Y-92906708D01*
X158380560Y-92938572D01*
X156957205Y-94361928D01*
X155547500Y-94361928D01*
X155423018Y-94374188D01*
X155303320Y-94410498D01*
X155193006Y-94469463D01*
X155096315Y-94548815D01*
X155016963Y-94645506D01*
X154957998Y-94755820D01*
X154921688Y-94875518D01*
X154909428Y-95000000D01*
X154909428Y-96580905D01*
X154677103Y-96348580D01*
X154650948Y-96316710D01*
X154523803Y-96212365D01*
X154378744Y-96134829D01*
X154221346Y-96087083D01*
X154098676Y-96075001D01*
X154098675Y-96075001D01*
X154057657Y-96070961D01*
X154016639Y-96075001D01*
X144805521Y-96075001D01*
X144764503Y-96070961D01*
X144723485Y-96075001D01*
X144723484Y-96075001D01*
X144600814Y-96087083D01*
X144443416Y-96134829D01*
X144298357Y-96212365D01*
X144171212Y-96316710D01*
X144145061Y-96348575D01*
X143978638Y-96514998D01*
X141306263Y-96514998D01*
X141380537Y-96424494D01*
X141439502Y-96314180D01*
X141475812Y-96194482D01*
X141488072Y-96070000D01*
X141488072Y-94370000D01*
X141475812Y-94245518D01*
X141439502Y-94125820D01*
X141380537Y-94015506D01*
X141301185Y-93918815D01*
X141204494Y-93839463D01*
X141094180Y-93780498D01*
X140974482Y-93744188D01*
X140850000Y-93731928D01*
X139150000Y-93731928D01*
X139025518Y-93744188D01*
X138905820Y-93780498D01*
X138795506Y-93839463D01*
X138698815Y-93918815D01*
X138660000Y-93966111D01*
X138660000Y-92660000D01*
X179340000Y-92660000D01*
X179340000Y-103965324D01*
G36*
X143965723Y-101994205D02*
G01*
X144062576Y-102139155D01*
X144185845Y-102262424D01*
X144330795Y-102359277D01*
X144491855Y-102425990D01*
X144662835Y-102460000D01*
X144837165Y-102460000D01*
X144962622Y-102435045D01*
X145515594Y-102435045D01*
X145498815Y-102448815D01*
X145419463Y-102545506D01*
X145360498Y-102655820D01*
X145324188Y-102775518D01*
X145311928Y-102900000D01*
X145315000Y-104214250D01*
X145347243Y-104246493D01*
X145321836Y-104372998D01*
X145315000Y-104372998D01*
X145315000Y-104498534D01*
X145314829Y-104590355D01*
X145315000Y-104591223D01*
X145315000Y-104627002D01*
X145322048Y-104627002D01*
X145347013Y-104753737D01*
X145315000Y-104785750D01*
X145311928Y-106100000D01*
X145324188Y-106224482D01*
X145360498Y-106344180D01*
X145375727Y-106372670D01*
X145337165Y-106365000D01*
X145162835Y-106365000D01*
X144991855Y-106399010D01*
X144830795Y-106465723D01*
X144685845Y-106562576D01*
X144562576Y-106685845D01*
X144465723Y-106830795D01*
X144399010Y-106991855D01*
X144365000Y-107162835D01*
X144365000Y-107240000D01*
X142455538Y-107240000D01*
X142419205Y-107215723D01*
X142258145Y-107149010D01*
X142087165Y-107115000D01*
X141912835Y-107115000D01*
X141741855Y-107149010D01*
X141580795Y-107215723D01*
X141435845Y-107312576D01*
X141379208Y-107369213D01*
X141315990Y-107216589D01*
X141153475Y-106973368D01*
X140946632Y-106766525D01*
X140772240Y-106650000D01*
X140946632Y-106533475D01*
X141153475Y-106326632D01*
X141315990Y-106083411D01*
X141427932Y-105813158D01*
X141485000Y-105526260D01*
X141485000Y-105233740D01*
X141427932Y-104946842D01*
X141315990Y-104676589D01*
X141153475Y-104433368D01*
X140946632Y-104226525D01*
X140764466Y-104104805D01*
X140881355Y-104035178D01*
X141097588Y-103840269D01*
X141271641Y-103606920D01*
X141396825Y-103344099D01*
X141441476Y-103196890D01*
X141320155Y-102967000D01*
X140127000Y-102967000D01*
X140127000Y-102987000D01*
X139873000Y-102987000D01*
X139873000Y-102967000D01*
X139853000Y-102967000D01*
X139853000Y-102713000D01*
X139873000Y-102713000D01*
X139873000Y-102693000D01*
X140127000Y-102693000D01*
X140127000Y-102713000D01*
X141320155Y-102713000D01*
X141441476Y-102483110D01*
X141396825Y-102335901D01*
X141360673Y-102260000D01*
X143212670Y-102260000D01*
X143249992Y-102263676D01*
X143287314Y-102260000D01*
X143287325Y-102260000D01*
X143398978Y-102249003D01*
X143542239Y-102205546D01*
X143674268Y-102134974D01*
X143789993Y-102040001D01*
X143813796Y-102010997D01*
X143926143Y-101898650D01*
X143965723Y-101994205D01*
G37*
X143965723Y-101994205D02*
X144062576Y-102139155D01*
X144185845Y-102262424D01*
X144330795Y-102359277D01*
X144491855Y-102425990D01*
X144662835Y-102460000D01*
X144837165Y-102460000D01*
X144962622Y-102435045D01*
X145515594Y-102435045D01*
X145498815Y-102448815D01*
X145419463Y-102545506D01*
X145360498Y-102655820D01*
X145324188Y-102775518D01*
X145311928Y-102900000D01*
X145315000Y-104214250D01*
X145347243Y-104246493D01*
X145321836Y-104372998D01*
X145315000Y-104372998D01*
X145315000Y-104498534D01*
X145314829Y-104590355D01*
X145315000Y-104591223D01*
X145315000Y-104627002D01*
X145322048Y-104627002D01*
X145347013Y-104753737D01*
X145315000Y-104785750D01*
X145311928Y-106100000D01*
X145324188Y-106224482D01*
X145360498Y-106344180D01*
X145375727Y-106372670D01*
X145337165Y-106365000D01*
X145162835Y-106365000D01*
X144991855Y-106399010D01*
X144830795Y-106465723D01*
X144685845Y-106562576D01*
X144562576Y-106685845D01*
X144465723Y-106830795D01*
X144399010Y-106991855D01*
X144365000Y-107162835D01*
X144365000Y-107240000D01*
X142455538Y-107240000D01*
X142419205Y-107215723D01*
X142258145Y-107149010D01*
X142087165Y-107115000D01*
X141912835Y-107115000D01*
X141741855Y-107149010D01*
X141580795Y-107215723D01*
X141435845Y-107312576D01*
X141379208Y-107369213D01*
X141315990Y-107216589D01*
X141153475Y-106973368D01*
X140946632Y-106766525D01*
X140772240Y-106650000D01*
X140946632Y-106533475D01*
X141153475Y-106326632D01*
X141315990Y-106083411D01*
X141427932Y-105813158D01*
X141485000Y-105526260D01*
X141485000Y-105233740D01*
X141427932Y-104946842D01*
X141315990Y-104676589D01*
X141153475Y-104433368D01*
X140946632Y-104226525D01*
X140764466Y-104104805D01*
X140881355Y-104035178D01*
X141097588Y-103840269D01*
X141271641Y-103606920D01*
X141396825Y-103344099D01*
X141441476Y-103196890D01*
X141320155Y-102967000D01*
X140127000Y-102967000D01*
X140127000Y-102987000D01*
X139873000Y-102987000D01*
X139873000Y-102967000D01*
X139853000Y-102967000D01*
X139853000Y-102713000D01*
X139873000Y-102713000D01*
X139873000Y-102693000D01*
X140127000Y-102693000D01*
X140127000Y-102713000D01*
X141320155Y-102713000D01*
X141441476Y-102483110D01*
X141396825Y-102335901D01*
X141360673Y-102260000D01*
X143212670Y-102260000D01*
X143249992Y-102263676D01*
X143287314Y-102260000D01*
X143287325Y-102260000D01*
X143398978Y-102249003D01*
X143542239Y-102205546D01*
X143674268Y-102134974D01*
X143789993Y-102040001D01*
X143813796Y-102010997D01*
X143926143Y-101898650D01*
X143965723Y-101994205D01*
G36*
X164768524Y-94393110D02*
G01*
X164889845Y-94623000D01*
X166083000Y-94623000D01*
X166083000Y-94603000D01*
X166337000Y-94603000D01*
X166337000Y-94623000D01*
X166357000Y-94623000D01*
X166357000Y-94877000D01*
X166337000Y-94877000D01*
X166337000Y-94897000D01*
X166083000Y-94897000D01*
X166083000Y-94877000D01*
X164889845Y-94877000D01*
X164768524Y-95106890D01*
X164813175Y-95254099D01*
X164938359Y-95516920D01*
X165037013Y-95649183D01*
X164314003Y-96372194D01*
X164285000Y-96395996D01*
X164229872Y-96463171D01*
X164190027Y-96511721D01*
X164151150Y-96584454D01*
X164119455Y-96643751D01*
X164075998Y-96787012D01*
X164065001Y-96898665D01*
X164065001Y-96898675D01*
X164061325Y-96935997D01*
X164065001Y-96973320D01*
X164065001Y-97134460D01*
X163991855Y-97149010D01*
X163830795Y-97215723D01*
X163685845Y-97312576D01*
X163562576Y-97435845D01*
X163465723Y-97580795D01*
X163399010Y-97741855D01*
X163365000Y-97912835D01*
X163365000Y-98087165D01*
X163399010Y-98258145D01*
X163465723Y-98419205D01*
X163490000Y-98455538D01*
X163490001Y-105098193D01*
X161930799Y-103538992D01*
X161906996Y-103509988D01*
X161791271Y-103415015D01*
X161659242Y-103344443D01*
X161515981Y-103300986D01*
X161404328Y-103289989D01*
X161404317Y-103289989D01*
X161366995Y-103286313D01*
X161329673Y-103289989D01*
X160537800Y-103289989D01*
X160550990Y-103258145D01*
X160585000Y-103087165D01*
X160585000Y-102912835D01*
X160550990Y-102741855D01*
X160484277Y-102580795D01*
X160387424Y-102435845D01*
X160264155Y-102312576D01*
X160119205Y-102215723D01*
X159958145Y-102149010D01*
X159787165Y-102115000D01*
X159612835Y-102115000D01*
X159441855Y-102149010D01*
X159280795Y-102215723D01*
X159244462Y-102240000D01*
X157466478Y-102240000D01*
X156333259Y-101106781D01*
X156426988Y-101116013D01*
X156464321Y-101112336D01*
X157190342Y-101112336D01*
X157227664Y-101116012D01*
X157264986Y-101112336D01*
X157264997Y-101112336D01*
X157376650Y-101101339D01*
X157519911Y-101057882D01*
X157651940Y-100987310D01*
X157767665Y-100892337D01*
X157791468Y-100863333D01*
X161095378Y-97559424D01*
X161268797Y-97612030D01*
X161580000Y-97642681D01*
X161891204Y-97612030D01*
X162190449Y-97521255D01*
X162466235Y-97373845D01*
X162707963Y-97175463D01*
X162906345Y-96933734D01*
X163053755Y-96657948D01*
X163144530Y-96358703D01*
X163167500Y-96125485D01*
X163167500Y-95874514D01*
X163144530Y-95641296D01*
X163053755Y-95342051D01*
X162906345Y-95066265D01*
X162707963Y-94824537D01*
X162466234Y-94626155D01*
X162190448Y-94478745D01*
X161891203Y-94387970D01*
X161580000Y-94357319D01*
X161268796Y-94387970D01*
X160969551Y-94478745D01*
X160693765Y-94626155D01*
X160452037Y-94824537D01*
X160304838Y-95003900D01*
X160149437Y-94818685D01*
X159906923Y-94624031D01*
X159631094Y-94480429D01*
X159412980Y-94409437D01*
X159167002Y-94529405D01*
X159167002Y-94513866D01*
X159345869Y-94334999D01*
X164786150Y-94334999D01*
X164768524Y-94393110D01*
G37*
X164768524Y-94393110D02*
X164889845Y-94623000D01*
X166083000Y-94623000D01*
X166083000Y-94603000D01*
X166337000Y-94603000D01*
X166337000Y-94623000D01*
X166357000Y-94623000D01*
X166357000Y-94877000D01*
X166337000Y-94877000D01*
X166337000Y-94897000D01*
X166083000Y-94897000D01*
X166083000Y-94877000D01*
X164889845Y-94877000D01*
X164768524Y-95106890D01*
X164813175Y-95254099D01*
X164938359Y-95516920D01*
X165037013Y-95649183D01*
X164314003Y-96372194D01*
X164285000Y-96395996D01*
X164229872Y-96463171D01*
X164190027Y-96511721D01*
X164151150Y-96584454D01*
X164119455Y-96643751D01*
X164075998Y-96787012D01*
X164065001Y-96898665D01*
X164065001Y-96898675D01*
X164061325Y-96935997D01*
X164065001Y-96973320D01*
X164065001Y-97134460D01*
X163991855Y-97149010D01*
X163830795Y-97215723D01*
X163685845Y-97312576D01*
X163562576Y-97435845D01*
X163465723Y-97580795D01*
X163399010Y-97741855D01*
X163365000Y-97912835D01*
X163365000Y-98087165D01*
X163399010Y-98258145D01*
X163465723Y-98419205D01*
X163490000Y-98455538D01*
X163490001Y-105098193D01*
X161930799Y-103538992D01*
X161906996Y-103509988D01*
X161791271Y-103415015D01*
X161659242Y-103344443D01*
X161515981Y-103300986D01*
X161404328Y-103289989D01*
X161404317Y-103289989D01*
X161366995Y-103286313D01*
X161329673Y-103289989D01*
X160537800Y-103289989D01*
X160550990Y-103258145D01*
X160585000Y-103087165D01*
X160585000Y-102912835D01*
X160550990Y-102741855D01*
X160484277Y-102580795D01*
X160387424Y-102435845D01*
X160264155Y-102312576D01*
X160119205Y-102215723D01*
X159958145Y-102149010D01*
X159787165Y-102115000D01*
X159612835Y-102115000D01*
X159441855Y-102149010D01*
X159280795Y-102215723D01*
X159244462Y-102240000D01*
X157466478Y-102240000D01*
X156333259Y-101106781D01*
X156426988Y-101116013D01*
X156464321Y-101112336D01*
X157190342Y-101112336D01*
X157227664Y-101116012D01*
X157264986Y-101112336D01*
X157264997Y-101112336D01*
X157376650Y-101101339D01*
X157519911Y-101057882D01*
X157651940Y-100987310D01*
X157767665Y-100892337D01*
X157791468Y-100863333D01*
X161095378Y-97559424D01*
X161268797Y-97612030D01*
X161580000Y-97642681D01*
X161891204Y-97612030D01*
X162190449Y-97521255D01*
X162466235Y-97373845D01*
X162707963Y-97175463D01*
X162906345Y-96933734D01*
X163053755Y-96657948D01*
X163144530Y-96358703D01*
X163167500Y-96125485D01*
X163167500Y-95874514D01*
X163144530Y-95641296D01*
X163053755Y-95342051D01*
X162906345Y-95066265D01*
X162707963Y-94824537D01*
X162466234Y-94626155D01*
X162190448Y-94478745D01*
X161891203Y-94387970D01*
X161580000Y-94357319D01*
X161268796Y-94387970D01*
X160969551Y-94478745D01*
X160693765Y-94626155D01*
X160452037Y-94824537D01*
X160304838Y-95003900D01*
X160149437Y-94818685D01*
X159906923Y-94624031D01*
X159631094Y-94480429D01*
X159412980Y-94409437D01*
X159167002Y-94529405D01*
X159167002Y-94513866D01*
X159345869Y-94334999D01*
X164786150Y-94334999D01*
X164768524Y-94393110D01*
G36*
X148053779Y-97806710D02*
G01*
X148027628Y-97838575D01*
X147691203Y-98175001D01*
X144467026Y-98175001D01*
X144488195Y-98172916D01*
X144645593Y-98125170D01*
X144790652Y-98047634D01*
X144917797Y-97943289D01*
X144943951Y-97911420D01*
X145110370Y-97745001D01*
X148128972Y-97745001D01*
X148053779Y-97806710D01*
G37*
X148053779Y-97806710D02*
X148027628Y-97838575D01*
X147691203Y-98175001D01*
X144467026Y-98175001D01*
X144488195Y-98172916D01*
X144645593Y-98125170D01*
X144790652Y-98047634D01*
X144917797Y-97943289D01*
X144943951Y-97911420D01*
X145110370Y-97745001D01*
X148128972Y-97745001D01*
X148053779Y-97806710D01*
G36*
X159167000Y-95873000D02*
G01*
X159187000Y-95873000D01*
X159187000Y-96127000D01*
X159167000Y-96127000D01*
X159167000Y-96147000D01*
X158913000Y-96147000D01*
X158913000Y-96127000D01*
X158893000Y-96127000D01*
X158893000Y-95873000D01*
X158913000Y-95873000D01*
X158913000Y-95853000D01*
X159167000Y-95853000D01*
X159167000Y-95873000D01*
G37*
X159167000Y-95873000D02*
X159187000Y-95873000D01*
X159187000Y-96127000D01*
X159167000Y-96127000D01*
X159167000Y-96147000D01*
X158913000Y-96147000D01*
X158913000Y-96127000D01*
X158893000Y-96127000D01*
X158893000Y-95873000D01*
X158913000Y-95873000D01*
X158913000Y-95853000D01*
X159167000Y-95853000D01*
X159167000Y-95873000D01*
%TD*%
M02*
