M48
; DRILL file {KiCad (5.1.8)-1} date 02/01/21 15:12:04
; FORMAT={-:-/ absolute / metric / decimal}
; #@! TF.CreationDate,2021-02-01T15:12:04-08:00
; #@! TF.GenerationSoftware,Kicad,Pcbnew,(5.1.8)-1
; #@! TF.FileFunction,Plated,1,2,PTH
FMAT,2
METRIC
T1C0.400
T2C0.762
T3C1.000
T4C1.200
%
G90
G05
T1
X110.49Y-46.99
X116.078Y-40.64
X117.729Y-46.736
X118.872Y-44.196
X120.142Y-46.736
X121.285Y-40.64
X122.047Y-44.069
X122.428Y-41.783
X136.525Y-39.37
X136.652Y-46.228
T2
X126.746Y-44.069
X129.286Y-44.069
X131.826Y-44.069
T3
X153.289Y-41.656
X153.289Y-44.196
X153.289Y-46.736
X157.924Y-41.656
X157.924Y-44.196
X157.924Y-46.736
X148.59Y-41.656
X148.59Y-44.196
X148.59Y-46.736
T4
X139.192Y-43.307
X142.692Y-43.307
T0
M30
