G04 #@! TF.GenerationSoftware,KiCad,Pcbnew,(5.1.8)-1*
G04 #@! TF.CreationDate,2021-02-01T15:11:16-08:00*
G04 #@! TF.ProjectId,Modular_single_driver_Regulator,4d6f6475-6c61-4725-9f73-696e676c655f,rev?*
G04 #@! TF.SameCoordinates,Original*
G04 #@! TF.FileFunction,Paste,Top*
G04 #@! TF.FilePolarity,Positive*
%FSLAX46Y46*%
G04 Gerber Fmt 4.6, Leading zero omitted, Abs format (unit mm)*
G04 Created by KiCad (PCBNEW (5.1.8)-1) date 2021-02-01 15:11:16*
%MOMM*%
%LPD*%
G01*
G04 APERTURE LIST*
G04 APERTURE END LIST*
G36*
G01*
X156722000Y-113824000D02*
X157222000Y-113824000D01*
G75*
G02*
X157447000Y-114049000I0J-225000D01*
G01*
X157447000Y-114499000D01*
G75*
G02*
X157222000Y-114724000I-225000J0D01*
G01*
X156722000Y-114724000D01*
G75*
G02*
X156497000Y-114499000I0J225000D01*
G01*
X156497000Y-114049000D01*
G75*
G02*
X156722000Y-113824000I225000J0D01*
G01*
G37*
G36*
G01*
X156722000Y-115374000D02*
X157222000Y-115374000D01*
G75*
G02*
X157447000Y-115599000I0J-225000D01*
G01*
X157447000Y-116049000D01*
G75*
G02*
X157222000Y-116274000I-225000J0D01*
G01*
X156722000Y-116274000D01*
G75*
G02*
X156497000Y-116049000I0J225000D01*
G01*
X156497000Y-115599000D01*
G75*
G02*
X156722000Y-115374000I225000J0D01*
G01*
G37*
G36*
G01*
X161802000Y-115120000D02*
X162302000Y-115120000D01*
G75*
G02*
X162527000Y-115345000I0J-225000D01*
G01*
X162527000Y-115795000D01*
G75*
G02*
X162302000Y-116020000I-225000J0D01*
G01*
X161802000Y-116020000D01*
G75*
G02*
X161577000Y-115795000I0J225000D01*
G01*
X161577000Y-115345000D01*
G75*
G02*
X161802000Y-115120000I225000J0D01*
G01*
G37*
G36*
G01*
X161802000Y-113570000D02*
X162302000Y-113570000D01*
G75*
G02*
X162527000Y-113795000I0J-225000D01*
G01*
X162527000Y-114245000D01*
G75*
G02*
X162302000Y-114470000I-225000J0D01*
G01*
X161802000Y-114470000D01*
G75*
G02*
X161577000Y-114245000I0J225000D01*
G01*
X161577000Y-113795000D01*
G75*
G02*
X161802000Y-113570000I225000J0D01*
G01*
G37*
G36*
G01*
X166366000Y-114522000D02*
X165866000Y-114522000D01*
G75*
G02*
X165641000Y-114297000I0J225000D01*
G01*
X165641000Y-113847000D01*
G75*
G02*
X165866000Y-113622000I225000J0D01*
G01*
X166366000Y-113622000D01*
G75*
G02*
X166591000Y-113847000I0J-225000D01*
G01*
X166591000Y-114297000D01*
G75*
G02*
X166366000Y-114522000I-225000J0D01*
G01*
G37*
G36*
G01*
X166366000Y-112972000D02*
X165866000Y-112972000D01*
G75*
G02*
X165641000Y-112747000I0J225000D01*
G01*
X165641000Y-112297000D01*
G75*
G02*
X165866000Y-112072000I225000J0D01*
G01*
X166366000Y-112072000D01*
G75*
G02*
X166591000Y-112297000I0J-225000D01*
G01*
X166591000Y-112747000D01*
G75*
G02*
X166366000Y-112972000I-225000J0D01*
G01*
G37*
G36*
G01*
X168398000Y-112972000D02*
X167898000Y-112972000D01*
G75*
G02*
X167673000Y-112747000I0J225000D01*
G01*
X167673000Y-112297000D01*
G75*
G02*
X167898000Y-112072000I225000J0D01*
G01*
X168398000Y-112072000D01*
G75*
G02*
X168623000Y-112297000I0J-225000D01*
G01*
X168623000Y-112747000D01*
G75*
G02*
X168398000Y-112972000I-225000J0D01*
G01*
G37*
G36*
G01*
X168398000Y-114522000D02*
X167898000Y-114522000D01*
G75*
G02*
X167673000Y-114297000I0J225000D01*
G01*
X167673000Y-113847000D01*
G75*
G02*
X167898000Y-113622000I225000J0D01*
G01*
X168398000Y-113622000D01*
G75*
G02*
X168623000Y-113847000I0J-225000D01*
G01*
X168623000Y-114297000D01*
G75*
G02*
X168398000Y-114522000I-225000J0D01*
G01*
G37*
G36*
G01*
X163967000Y-117846000D02*
X163967000Y-116596000D01*
G75*
G02*
X164217000Y-116346000I250000J0D01*
G01*
X164967000Y-116346000D01*
G75*
G02*
X165217000Y-116596000I0J-250000D01*
G01*
X165217000Y-117846000D01*
G75*
G02*
X164967000Y-118096000I-250000J0D01*
G01*
X164217000Y-118096000D01*
G75*
G02*
X163967000Y-117846000I0J250000D01*
G01*
G37*
G36*
G01*
X166767000Y-117846000D02*
X166767000Y-116596000D01*
G75*
G02*
X167017000Y-116346000I250000J0D01*
G01*
X167767000Y-116346000D01*
G75*
G02*
X168017000Y-116596000I0J-250000D01*
G01*
X168017000Y-117846000D01*
G75*
G02*
X167767000Y-118096000I-250000J0D01*
G01*
X167017000Y-118096000D01*
G75*
G02*
X166767000Y-117846000I0J250000D01*
G01*
G37*
G36*
G01*
X161562000Y-117327000D02*
X161562000Y-117877000D01*
G75*
G02*
X161362000Y-118077000I-200000J0D01*
G01*
X160962000Y-118077000D01*
G75*
G02*
X160762000Y-117877000I0J200000D01*
G01*
X160762000Y-117327000D01*
G75*
G02*
X160962000Y-117127000I200000J0D01*
G01*
X161362000Y-117127000D01*
G75*
G02*
X161562000Y-117327000I0J-200000D01*
G01*
G37*
G36*
G01*
X159912000Y-117327000D02*
X159912000Y-117877000D01*
G75*
G02*
X159712000Y-118077000I-200000J0D01*
G01*
X159312000Y-118077000D01*
G75*
G02*
X159112000Y-117877000I0J200000D01*
G01*
X159112000Y-117327000D01*
G75*
G02*
X159312000Y-117127000I200000J0D01*
G01*
X159712000Y-117127000D01*
G75*
G02*
X159912000Y-117327000I0J-200000D01*
G01*
G37*
M02*
