G04 #@! TF.GenerationSoftware,KiCad,Pcbnew,(5.1.8)-1*
G04 #@! TF.CreationDate,2021-02-01T15:11:16-08:00*
G04 #@! TF.ProjectId,Modular_single_driver_Regulator,4d6f6475-6c61-4725-9f73-696e676c655f,rev?*
G04 #@! TF.SameCoordinates,Original*
G04 #@! TF.FileFunction,Soldermask,Top*
G04 #@! TF.FilePolarity,Negative*
%FSLAX46Y46*%
G04 Gerber Fmt 4.6, Leading zero omitted, Abs format (unit mm)*
G04 Created by KiCad (PCBNEW (5.1.8)-1) date 2021-02-01 15:11:16*
%MOMM*%
%LPD*%
G01*
G04 APERTURE LIST*
%ADD10C,2.500000*%
%ADD11O,1.800000X1.800000*%
%ADD12O,2.005000X2.100000*%
G04 APERTURE END LIST*
G36*
G01*
X156697000Y-113774000D02*
X157247000Y-113774000D01*
G75*
G02*
X157497000Y-114024000I0J-250000D01*
G01*
X157497000Y-114524000D01*
G75*
G02*
X157247000Y-114774000I-250000J0D01*
G01*
X156697000Y-114774000D01*
G75*
G02*
X156447000Y-114524000I0J250000D01*
G01*
X156447000Y-114024000D01*
G75*
G02*
X156697000Y-113774000I250000J0D01*
G01*
G37*
G36*
G01*
X156697000Y-115324000D02*
X157247000Y-115324000D01*
G75*
G02*
X157497000Y-115574000I0J-250000D01*
G01*
X157497000Y-116074000D01*
G75*
G02*
X157247000Y-116324000I-250000J0D01*
G01*
X156697000Y-116324000D01*
G75*
G02*
X156447000Y-116074000I0J250000D01*
G01*
X156447000Y-115574000D01*
G75*
G02*
X156697000Y-115324000I250000J0D01*
G01*
G37*
G36*
G01*
X161777000Y-115070000D02*
X162327000Y-115070000D01*
G75*
G02*
X162577000Y-115320000I0J-250000D01*
G01*
X162577000Y-115820000D01*
G75*
G02*
X162327000Y-116070000I-250000J0D01*
G01*
X161777000Y-116070000D01*
G75*
G02*
X161527000Y-115820000I0J250000D01*
G01*
X161527000Y-115320000D01*
G75*
G02*
X161777000Y-115070000I250000J0D01*
G01*
G37*
G36*
G01*
X161777000Y-113520000D02*
X162327000Y-113520000D01*
G75*
G02*
X162577000Y-113770000I0J-250000D01*
G01*
X162577000Y-114270000D01*
G75*
G02*
X162327000Y-114520000I-250000J0D01*
G01*
X161777000Y-114520000D01*
G75*
G02*
X161527000Y-114270000I0J250000D01*
G01*
X161527000Y-113770000D01*
G75*
G02*
X161777000Y-113520000I250000J0D01*
G01*
G37*
G36*
G01*
X166391000Y-114572000D02*
X165841000Y-114572000D01*
G75*
G02*
X165591000Y-114322000I0J250000D01*
G01*
X165591000Y-113822000D01*
G75*
G02*
X165841000Y-113572000I250000J0D01*
G01*
X166391000Y-113572000D01*
G75*
G02*
X166641000Y-113822000I0J-250000D01*
G01*
X166641000Y-114322000D01*
G75*
G02*
X166391000Y-114572000I-250000J0D01*
G01*
G37*
G36*
G01*
X166391000Y-113022000D02*
X165841000Y-113022000D01*
G75*
G02*
X165591000Y-112772000I0J250000D01*
G01*
X165591000Y-112272000D01*
G75*
G02*
X165841000Y-112022000I250000J0D01*
G01*
X166391000Y-112022000D01*
G75*
G02*
X166641000Y-112272000I0J-250000D01*
G01*
X166641000Y-112772000D01*
G75*
G02*
X166391000Y-113022000I-250000J0D01*
G01*
G37*
G36*
G01*
X168423000Y-113022000D02*
X167873000Y-113022000D01*
G75*
G02*
X167623000Y-112772000I0J250000D01*
G01*
X167623000Y-112272000D01*
G75*
G02*
X167873000Y-112022000I250000J0D01*
G01*
X168423000Y-112022000D01*
G75*
G02*
X168673000Y-112272000I0J-250000D01*
G01*
X168673000Y-112772000D01*
G75*
G02*
X168423000Y-113022000I-250000J0D01*
G01*
G37*
G36*
G01*
X168423000Y-114572000D02*
X167873000Y-114572000D01*
G75*
G02*
X167623000Y-114322000I0J250000D01*
G01*
X167623000Y-113822000D01*
G75*
G02*
X167873000Y-113572000I250000J0D01*
G01*
X168423000Y-113572000D01*
G75*
G02*
X168673000Y-113822000I0J-250000D01*
G01*
X168673000Y-114322000D01*
G75*
G02*
X168423000Y-114572000I-250000J0D01*
G01*
G37*
G36*
G01*
X163917000Y-117876000D02*
X163917000Y-116566000D01*
G75*
G02*
X164187000Y-116296000I270000J0D01*
G01*
X164997000Y-116296000D01*
G75*
G02*
X165267000Y-116566000I0J-270000D01*
G01*
X165267000Y-117876000D01*
G75*
G02*
X164997000Y-118146000I-270000J0D01*
G01*
X164187000Y-118146000D01*
G75*
G02*
X163917000Y-117876000I0J270000D01*
G01*
G37*
G36*
G01*
X166717000Y-117876000D02*
X166717000Y-116566000D01*
G75*
G02*
X166987000Y-116296000I270000J0D01*
G01*
X167797000Y-116296000D01*
G75*
G02*
X168067000Y-116566000I0J-270000D01*
G01*
X168067000Y-117876000D01*
G75*
G02*
X167797000Y-118146000I-270000J0D01*
G01*
X166987000Y-118146000D01*
G75*
G02*
X166717000Y-117876000I0J270000D01*
G01*
G37*
G36*
G01*
X181209000Y-112020500D02*
X181209000Y-114420500D01*
G75*
G02*
X181159000Y-114470500I-50000J0D01*
G01*
X178759000Y-114470500D01*
G75*
G02*
X178709000Y-114420500I0J50000D01*
G01*
X178709000Y-112020500D01*
G75*
G02*
X178759000Y-111970500I50000J0D01*
G01*
X181159000Y-111970500D01*
G75*
G02*
X181209000Y-112020500I0J-50000D01*
G01*
G37*
D10*
X176459000Y-113220500D03*
D11*
X172021500Y-114363500D03*
G36*
G01*
X171121500Y-112673500D02*
X171121500Y-110973500D01*
G75*
G02*
X171171500Y-110923500I50000J0D01*
G01*
X172871500Y-110923500D01*
G75*
G02*
X172921500Y-110973500I0J-50000D01*
G01*
X172921500Y-112673500D01*
G75*
G02*
X172871500Y-112723500I-50000J0D01*
G01*
X171171500Y-112723500D01*
G75*
G02*
X171121500Y-112673500I0J50000D01*
G01*
G37*
G36*
G01*
X161612000Y-117302000D02*
X161612000Y-117902000D01*
G75*
G02*
X161387000Y-118127000I-225000J0D01*
G01*
X160937000Y-118127000D01*
G75*
G02*
X160712000Y-117902000I0J225000D01*
G01*
X160712000Y-117302000D01*
G75*
G02*
X160937000Y-117077000I225000J0D01*
G01*
X161387000Y-117077000D01*
G75*
G02*
X161612000Y-117302000I0J-225000D01*
G01*
G37*
G36*
G01*
X159962000Y-117302000D02*
X159962000Y-117902000D01*
G75*
G02*
X159737000Y-118127000I-225000J0D01*
G01*
X159287000Y-118127000D01*
G75*
G02*
X159062000Y-117902000I0J225000D01*
G01*
X159062000Y-117302000D01*
G75*
G02*
X159287000Y-117077000I225000J0D01*
G01*
X159737000Y-117077000D01*
G75*
G02*
X159962000Y-117302000I0J-225000D01*
G01*
G37*
G36*
G01*
X155969500Y-112633000D02*
X155969500Y-110633000D01*
G75*
G02*
X156019500Y-110583000I50000J0D01*
G01*
X157924500Y-110583000D01*
G75*
G02*
X157974500Y-110633000I0J-50000D01*
G01*
X157974500Y-112633000D01*
G75*
G02*
X157924500Y-112683000I-50000J0D01*
G01*
X156019500Y-112683000D01*
G75*
G02*
X155969500Y-112633000I0J50000D01*
G01*
G37*
D12*
X159512000Y-111633000D03*
X162052000Y-111633000D03*
M02*
