G04 #@! TF.GenerationSoftware,KiCad,Pcbnew,(6.0.0)*
G04 #@! TF.CreationDate,2022-03-03T13:39:48-08:00*
G04 #@! TF.ProjectId,MSP430 Breakout,4d535034-3330-4204-9272-65616b6f7574,rev?*
G04 #@! TF.SameCoordinates,Original*
G04 #@! TF.FileFunction,Copper,L1,Top*
G04 #@! TF.FilePolarity,Positive*
%FSLAX46Y46*%
G04 Gerber Fmt 4.6, Leading zero omitted, Abs format (unit mm)*
G04 Created by KiCad (PCBNEW (6.0.0)) date 2022-03-03 13:39:48*
%MOMM*%
%LPD*%
G01*
G04 APERTURE LIST*
G04 Aperture macros list*
%AMRoundRect*
0 Rectangle with rounded corners*
0 $1 Rounding radius*
0 $2 $3 $4 $5 $6 $7 $8 $9 X,Y pos of 4 corners*
0 Add a 4 corners polygon primitive as box body*
4,1,4,$2,$3,$4,$5,$6,$7,$8,$9,$2,$3,0*
0 Add four circle primitives for the rounded corners*
1,1,$1+$1,$2,$3*
1,1,$1+$1,$4,$5*
1,1,$1+$1,$6,$7*
1,1,$1+$1,$8,$9*
0 Add four rect primitives between the rounded corners*
20,1,$1+$1,$2,$3,$4,$5,0*
20,1,$1+$1,$4,$5,$6,$7,0*
20,1,$1+$1,$6,$7,$8,$9,0*
20,1,$1+$1,$8,$9,$2,$3,0*%
G04 Aperture macros list end*
G04 #@! TA.AperFunction,SMDPad,CuDef*
%ADD10RoundRect,0.250000X-0.337500X-0.475000X0.337500X-0.475000X0.337500X0.475000X-0.337500X0.475000X0*%
G04 #@! TD*
G04 #@! TA.AperFunction,SMDPad,CuDef*
%ADD11RoundRect,0.250000X0.475000X-0.337500X0.475000X0.337500X-0.475000X0.337500X-0.475000X-0.337500X0*%
G04 #@! TD*
G04 #@! TA.AperFunction,SMDPad,CuDef*
%ADD12RoundRect,0.250000X0.337500X0.475000X-0.337500X0.475000X-0.337500X-0.475000X0.337500X-0.475000X0*%
G04 #@! TD*
G04 #@! TA.AperFunction,ComponentPad*
%ADD13R,1.700000X1.700000*%
G04 #@! TD*
G04 #@! TA.AperFunction,ComponentPad*
%ADD14O,1.700000X1.700000*%
G04 #@! TD*
G04 #@! TA.AperFunction,SMDPad,CuDef*
%ADD15RoundRect,0.249999X-0.350001X-0.450001X0.350001X-0.450001X0.350001X0.450001X-0.350001X0.450001X0*%
G04 #@! TD*
G04 #@! TA.AperFunction,SMDPad,CuDef*
%ADD16RoundRect,0.249999X0.350001X0.450001X-0.350001X0.450001X-0.350001X-0.450001X0.350001X-0.450001X0*%
G04 #@! TD*
G04 #@! TA.AperFunction,ComponentPad*
%ADD17C,2.000000*%
G04 #@! TD*
G04 #@! TA.AperFunction,SMDPad,CuDef*
%ADD18O,1.450000X0.299999*%
G04 #@! TD*
G04 #@! TA.AperFunction,SMDPad,CuDef*
%ADD19O,0.299999X1.450000*%
G04 #@! TD*
G04 #@! TA.AperFunction,SMDPad,CuDef*
%ADD20R,1.060000X0.650000*%
G04 #@! TD*
G04 #@! TA.AperFunction,SMDPad,CuDef*
%ADD21R,1.800000X2.100000*%
G04 #@! TD*
G04 #@! TA.AperFunction,SMDPad,CuDef*
%ADD22RoundRect,0.249999X0.325001X0.450001X-0.325001X0.450001X-0.325001X-0.450001X0.325001X-0.450001X0*%
G04 #@! TD*
G04 #@! TA.AperFunction,ComponentPad*
%ADD23C,0.800000*%
G04 #@! TD*
G04 #@! TA.AperFunction,ComponentPad*
%ADD24C,5.000000*%
G04 #@! TD*
G04 #@! TA.AperFunction,SMDPad,CuDef*
%ADD25R,1.100000X0.600000*%
G04 #@! TD*
G04 #@! TA.AperFunction,ViaPad*
%ADD26C,0.800000*%
G04 #@! TD*
G04 #@! TA.AperFunction,Conductor*
%ADD27C,0.250000*%
G04 #@! TD*
G04 #@! TA.AperFunction,Conductor*
%ADD28C,0.500000*%
G04 #@! TD*
G04 APERTURE END LIST*
D10*
X142599500Y-73279000D03*
X144674500Y-73279000D03*
X142726500Y-79248000D03*
X144801500Y-79248000D03*
D11*
X137541000Y-82063500D03*
X137541000Y-79988500D03*
D12*
X158644500Y-79756000D03*
X156569500Y-79756000D03*
D10*
X142726500Y-97536000D03*
X144801500Y-97536000D03*
D11*
X154559000Y-77491500D03*
X154559000Y-75416500D03*
D10*
X150219500Y-73152000D03*
X152294500Y-73152000D03*
D11*
X139954000Y-82063500D03*
X139954000Y-79988500D03*
D12*
X158666000Y-81915000D03*
X156591000Y-81915000D03*
D10*
X142726500Y-95377000D03*
X144801500Y-95377000D03*
X144123500Y-62484000D03*
X146198500Y-62484000D03*
X173333500Y-96964500D03*
X175408500Y-96964500D03*
X156696500Y-62484000D03*
X158771500Y-62484000D03*
X154537500Y-67437000D03*
X156612500Y-67437000D03*
D13*
X122047000Y-81026000D03*
D14*
X122047000Y-78486000D03*
X122047000Y-75946000D03*
X122047000Y-73406000D03*
X122047000Y-70866000D03*
X122047000Y-68326000D03*
D13*
X137287000Y-89916000D03*
D14*
X137287000Y-92456000D03*
X137287000Y-94996000D03*
X137287000Y-97536000D03*
X137287000Y-100076000D03*
X137287000Y-102616000D03*
D13*
X133477000Y-115316000D03*
D14*
X136017000Y-115316000D03*
X138557000Y-115316000D03*
D13*
X148717000Y-113728500D03*
D14*
X148717000Y-111188500D03*
X151257000Y-113728500D03*
X151257000Y-111188500D03*
X153797000Y-113728500D03*
X153797000Y-111188500D03*
X156337000Y-113728500D03*
X156337000Y-111188500D03*
X158877000Y-113728500D03*
X158877000Y-111188500D03*
X161417000Y-113728500D03*
X161417000Y-111188500D03*
X163957000Y-113728500D03*
X163957000Y-111188500D03*
D13*
X143637000Y-59436000D03*
D14*
X146177000Y-59436000D03*
D15*
X170069000Y-73406000D03*
X172069000Y-73406000D03*
X170069000Y-70993000D03*
X172069000Y-70993000D03*
X128794000Y-92710000D03*
X130794000Y-92710000D03*
X128794000Y-94869000D03*
X130794000Y-94869000D03*
D16*
X175307500Y-94488000D03*
X173307500Y-94488000D03*
D15*
X170958000Y-81534000D03*
X172958000Y-81534000D03*
D17*
X173418500Y-99989500D03*
X173418500Y-106489500D03*
X177918500Y-99989500D03*
X177918500Y-106489500D03*
D18*
X144008000Y-83753000D03*
X144008000Y-84252999D03*
X144008000Y-84753000D03*
X144008000Y-85252999D03*
X144008000Y-85753001D03*
X144008000Y-86253000D03*
X144008000Y-86752999D03*
X144008000Y-87253000D03*
X144008000Y-87753000D03*
X144008000Y-88253001D03*
X144008000Y-88753000D03*
X144008000Y-89252999D03*
X144008000Y-89753001D03*
X144008000Y-90253000D03*
X144008000Y-90753001D03*
X144008000Y-91253000D03*
D19*
X145983000Y-93228000D03*
X146482999Y-93228000D03*
X146983000Y-93228000D03*
X147482999Y-93228000D03*
X147983001Y-93228000D03*
X148483000Y-93228000D03*
X148982999Y-93228000D03*
X149483000Y-93228000D03*
X149983000Y-93228000D03*
X150483001Y-93228000D03*
X150983000Y-93228000D03*
X151482999Y-93228000D03*
X151983001Y-93228000D03*
X152483000Y-93228000D03*
X152983001Y-93228000D03*
X153483000Y-93228000D03*
D18*
X155458000Y-91253000D03*
X155458000Y-90753001D03*
X155458000Y-90253000D03*
X155458000Y-89753001D03*
X155458000Y-89252999D03*
X155458000Y-88753000D03*
X155458000Y-88253001D03*
X155458000Y-87753000D03*
X155458000Y-87253000D03*
X155458000Y-86752999D03*
X155458000Y-86253000D03*
X155458000Y-85753001D03*
X155458000Y-85252999D03*
X155458000Y-84753000D03*
X155458000Y-84252999D03*
X155458000Y-83753000D03*
D19*
X153483000Y-81778000D03*
X152983001Y-81778000D03*
X152483000Y-81778000D03*
X151983001Y-81778000D03*
X151482999Y-81778000D03*
X150983000Y-81778000D03*
X150483001Y-81778000D03*
X149983000Y-81778000D03*
X149483000Y-81778000D03*
X148982999Y-81778000D03*
X148483000Y-81778000D03*
X147983001Y-81778000D03*
X147482999Y-81778000D03*
X146983000Y-81778000D03*
X146482999Y-81778000D03*
X145983000Y-81778000D03*
D20*
X149903000Y-65471000D03*
X149903000Y-66421000D03*
X149903000Y-67371000D03*
X152103000Y-67371000D03*
X152103000Y-65471000D03*
D21*
X152026000Y-78793000D03*
X152026000Y-75893000D03*
X149726000Y-75893000D03*
X149726000Y-78793000D03*
D13*
X122047000Y-92456000D03*
D14*
X122047000Y-94996000D03*
X122047000Y-97536000D03*
X122047000Y-100076000D03*
D22*
X168411000Y-81534000D03*
X166361000Y-81534000D03*
D13*
X156337000Y-59436000D03*
D14*
X158877000Y-59436000D03*
D23*
X123261175Y-60650175D03*
X125912825Y-60650175D03*
X123261175Y-63301825D03*
X124587000Y-60101000D03*
D24*
X124587000Y-61976000D03*
D23*
X126462000Y-61976000D03*
X122712000Y-61976000D03*
X125912825Y-63301825D03*
X124587000Y-63851000D03*
D24*
X124587000Y-112776000D03*
D23*
X125912825Y-111450175D03*
X122712000Y-112776000D03*
X123261175Y-114101825D03*
X123261175Y-111450175D03*
X125912825Y-114101825D03*
X124587000Y-110901000D03*
X126462000Y-112776000D03*
X124587000Y-114651000D03*
X175387000Y-60101000D03*
X174061175Y-60650175D03*
X176712825Y-63301825D03*
X175387000Y-63851000D03*
X174061175Y-63301825D03*
X176712825Y-60650175D03*
D24*
X175387000Y-61976000D03*
D23*
X173512000Y-61976000D03*
X177262000Y-61976000D03*
X173512000Y-112776000D03*
X176712825Y-111450175D03*
X176712825Y-114101825D03*
X175387000Y-114651000D03*
X177262000Y-112776000D03*
X175387000Y-110901000D03*
X174061175Y-114101825D03*
X174061175Y-111450175D03*
D24*
X175387000Y-112776000D03*
D13*
X177927000Y-75946000D03*
D14*
X177927000Y-73406000D03*
X177927000Y-70866000D03*
X177927000Y-68326000D03*
D13*
X177927000Y-83566000D03*
D14*
X177927000Y-86106000D03*
X177927000Y-88646000D03*
X177927000Y-91186000D03*
D25*
X144843500Y-76900000D03*
X144843500Y-75500000D03*
D13*
X171983000Y-88666000D03*
D14*
X171983000Y-91206000D03*
D26*
X166751000Y-72771000D03*
X133731000Y-62738000D03*
X143637000Y-67437000D03*
X169799000Y-62738000D03*
X175768000Y-102997000D03*
X140462000Y-98806000D03*
X153797000Y-73787000D03*
X133731000Y-57912000D03*
X173736000Y-72136000D03*
X142367000Y-76200000D03*
X138557000Y-67437000D03*
X166751000Y-67818000D03*
X127127000Y-104394000D03*
X127000000Y-98933000D03*
X177419000Y-79248000D03*
X128651000Y-57912000D03*
X127000000Y-89281000D03*
X161671000Y-57912000D03*
X159766000Y-116205000D03*
X120269000Y-89281000D03*
X168148000Y-103505000D03*
X168148000Y-113030000D03*
X147574000Y-86614000D03*
X137033000Y-75692000D03*
X175133000Y-57912000D03*
X179451000Y-62738000D03*
X179451000Y-57912000D03*
X133223000Y-104394000D03*
X120269000Y-115824000D03*
X131318000Y-98806000D03*
X168148000Y-108585000D03*
X161798000Y-72771000D03*
X128651000Y-62738000D03*
X165481000Y-57912000D03*
X175514000Y-72136000D03*
X156591000Y-70104000D03*
X169799000Y-57912000D03*
X161671000Y-67818000D03*
X127127000Y-115824000D03*
X120396000Y-62738000D03*
X153416000Y-62738000D03*
X148844000Y-57912000D03*
X165608000Y-62738000D03*
X120269000Y-109728000D03*
X172085000Y-109093000D03*
X120269000Y-104394000D03*
X127127000Y-109728000D03*
X148844000Y-62738000D03*
X174117000Y-79248000D03*
X152019000Y-86614000D03*
X127000000Y-84582000D03*
X120269000Y-84582000D03*
X120396000Y-57912000D03*
X171958000Y-116078000D03*
X148336000Y-66421000D03*
X161798000Y-77343000D03*
X153797000Y-116205000D03*
X161671000Y-62738000D03*
X170561000Y-98933000D03*
X133223000Y-109728000D03*
X138430000Y-62738000D03*
X127000000Y-93599000D03*
X137033000Y-70231000D03*
X178943000Y-116078000D03*
X178943000Y-109093000D03*
X128778000Y-89281000D03*
X135509000Y-80518000D03*
X156845000Y-93980000D03*
X169926000Y-93726000D03*
X170942000Y-94742000D03*
X156845000Y-95123000D03*
D27*
X147983001Y-82524762D02*
X147983001Y-81778000D01*
X146304000Y-72009000D02*
X141859000Y-72009000D01*
X147983001Y-80165001D02*
X147983001Y-81778000D01*
X149483000Y-81031236D02*
X149896225Y-80618011D01*
X149483000Y-81778000D02*
X149483000Y-81031236D01*
X143033001Y-90753001D02*
X144008000Y-90753001D01*
X177918500Y-97527500D02*
X177918500Y-99989500D01*
X175408500Y-96964500D02*
X177355500Y-96964500D01*
X146482999Y-81778000D02*
X146482999Y-82524763D01*
X146179755Y-80727991D02*
X146482999Y-81031235D01*
D28*
X158877000Y-59436000D02*
X158877000Y-62378500D01*
D27*
X142599500Y-73279000D02*
X142599500Y-75967500D01*
X147983001Y-80165001D02*
X147983001Y-79911001D01*
X149726000Y-78643000D02*
X152026000Y-76343000D01*
X158666000Y-83269000D02*
X158666000Y-81915000D01*
X149200991Y-82828009D02*
X149483000Y-82546000D01*
D28*
X146198500Y-59457500D02*
X146177000Y-59436000D01*
D27*
X149896225Y-80618011D02*
X153058179Y-80618011D01*
X158182000Y-83753000D02*
X158666000Y-83269000D01*
X141478000Y-76200000D02*
X141478000Y-80264000D01*
X149643820Y-72101990D02*
X147983001Y-73762809D01*
X141859000Y-72009000D02*
X141478000Y-72390000D01*
X142367000Y-76200000D02*
X141478000Y-76200000D01*
X142726500Y-79248000D02*
X142726500Y-76559500D01*
X155458000Y-83753000D02*
X158182000Y-83753000D01*
D28*
X146198500Y-62484000D02*
X146198500Y-59457500D01*
D27*
X147983001Y-73762809D02*
X147983001Y-80165001D01*
D28*
X156591000Y-67458500D02*
X156612500Y-67437000D01*
D27*
X141478000Y-72390000D02*
X141478000Y-76200000D01*
X143280009Y-82828009D02*
X142515500Y-82063500D01*
X146786245Y-82828009D02*
X147679754Y-82828009D01*
X149726000Y-78793000D02*
X149726000Y-78643000D01*
X147983001Y-82524762D02*
X148286248Y-82828009D01*
X146482999Y-82524763D02*
X146786245Y-82828009D01*
X155702000Y-74549000D02*
X154368500Y-73215500D01*
X141941991Y-80727991D02*
X146179755Y-80727991D01*
D28*
X158877000Y-62378500D02*
X158771500Y-62484000D01*
D27*
X142515500Y-82063500D02*
X139954000Y-82063500D01*
X153162000Y-73152000D02*
X153797000Y-73787000D01*
X152026000Y-75558000D02*
X153797000Y-73787000D01*
X154559000Y-75416500D02*
X154559000Y-74549000D01*
X154368500Y-73215500D02*
X153254990Y-72101990D01*
X146179753Y-82828009D02*
X146482999Y-82524763D01*
X141478000Y-80264000D02*
X141941991Y-80727991D01*
X139954000Y-82063500D02*
X137541000Y-82063500D01*
X146482999Y-81031235D02*
X146482999Y-81778000D01*
X149483000Y-82546000D02*
X149483000Y-81778000D01*
X152026000Y-76343000D02*
X152026000Y-75893000D01*
X147983001Y-79911001D02*
X146812000Y-78740000D01*
X146179753Y-82828009D02*
X143280009Y-82828009D01*
X153254990Y-72101990D02*
X149643820Y-72101990D01*
D28*
X149903000Y-66421000D02*
X148336000Y-66421000D01*
D27*
X148286248Y-82828009D02*
X149200991Y-82828009D01*
X153058179Y-80618011D02*
X155702000Y-77974190D01*
X142599500Y-75967500D02*
X142367000Y-76200000D01*
X153797000Y-73787000D02*
X154368500Y-73215500D01*
X152294500Y-73152000D02*
X153162000Y-73152000D01*
X142726500Y-76559500D02*
X142367000Y-76200000D01*
X147679754Y-82828009D02*
X147983001Y-82524762D01*
X142726500Y-95377000D02*
X142726500Y-91059502D01*
X152026000Y-75893000D02*
X152026000Y-75558000D01*
X154559000Y-74549000D02*
X153797000Y-73787000D01*
X146812000Y-78740000D02*
X146812000Y-72517000D01*
X155702000Y-77974190D02*
X155702000Y-74549000D01*
X177355500Y-96964500D02*
X177918500Y-97527500D01*
X142726500Y-91059502D02*
X143033001Y-90753001D01*
X146812000Y-72517000D02*
X146304000Y-72009000D01*
D28*
X147127000Y-67371000D02*
X146746000Y-66990000D01*
X144123500Y-64748500D02*
X144123500Y-62484000D01*
X146746000Y-65471000D02*
X144846000Y-65471000D01*
X143637000Y-59436000D02*
X143637000Y-61997500D01*
X149903000Y-67371000D02*
X147127000Y-67371000D01*
X144846000Y-65471000D02*
X144123500Y-64748500D01*
X149903000Y-65471000D02*
X146746000Y-65471000D01*
X146746000Y-66990000D02*
X146746000Y-65471000D01*
X143637000Y-61997500D02*
X144123500Y-62484000D01*
D27*
X162115500Y-116205000D02*
X169291000Y-116205000D01*
X152983001Y-98119001D02*
X153860500Y-98996500D01*
X160241999Y-112553499D02*
X161417000Y-113728500D01*
X161417000Y-113728500D02*
X161417000Y-115506500D01*
X173333500Y-94514000D02*
X173307500Y-94488000D01*
X169291000Y-116205000D02*
X170307000Y-115189000D01*
X171069000Y-106489500D02*
X173418500Y-106489500D01*
X173418500Y-99989500D02*
X173418500Y-97049500D01*
X173333500Y-96964500D02*
X173333500Y-94514000D01*
X173418500Y-106489500D02*
X173418500Y-99989500D01*
X161417000Y-115506500D02*
X162115500Y-116205000D01*
X170307000Y-115189000D02*
X170307000Y-107251500D01*
X160241999Y-99726499D02*
X160241999Y-112553499D01*
X153860500Y-98996500D02*
X159512000Y-98996500D01*
X152983001Y-93228000D02*
X152983001Y-98119001D01*
X170307000Y-107251500D02*
X171069000Y-106489500D01*
X159512000Y-98996500D02*
X160241999Y-99726499D01*
X173418500Y-97049500D02*
X173333500Y-96964500D01*
D28*
X152169000Y-67437000D02*
X152103000Y-67371000D01*
X154537500Y-67437000D02*
X152169000Y-67437000D01*
D27*
X170958000Y-81534000D02*
X168411000Y-81534000D01*
X166361000Y-81534000D02*
X164719000Y-81534000D01*
X158500000Y-87753000D02*
X164719000Y-81534000D01*
X155458000Y-87753000D02*
X158500000Y-87753000D01*
X144008000Y-84252999D02*
X134544999Y-84252999D01*
X130048000Y-68326000D02*
X122047000Y-68326000D01*
X134544999Y-84252999D02*
X132334000Y-82042000D01*
X132334000Y-70612000D02*
X130048000Y-68326000D01*
X132334000Y-82042000D02*
X132334000Y-70612000D01*
X144008000Y-84753000D02*
X132886000Y-84753000D01*
X129286000Y-70866000D02*
X122047000Y-70866000D01*
X130937000Y-72517000D02*
X129286000Y-70866000D01*
X130937000Y-82804000D02*
X130937000Y-72517000D01*
X132886000Y-84753000D02*
X130937000Y-82804000D01*
X144008000Y-85252999D02*
X131480999Y-85252999D01*
X131480999Y-85252999D02*
X129540000Y-83312000D01*
X128270000Y-73406000D02*
X122047000Y-73406000D01*
X129540000Y-83312000D02*
X129540000Y-74676000D01*
X129540000Y-74676000D02*
X128270000Y-73406000D01*
X132715000Y-65405000D02*
X120650000Y-65405000D01*
X119634000Y-75311000D02*
X120269000Y-75946000D01*
X134112000Y-66802000D02*
X132715000Y-65405000D01*
X120269000Y-75946000D02*
X122047000Y-75946000D01*
X119634000Y-66421000D02*
X119634000Y-75311000D01*
X120650000Y-65405000D02*
X119634000Y-66421000D01*
X135315000Y-83753000D02*
X134112000Y-82550000D01*
X144008000Y-83753000D02*
X135315000Y-83753000D01*
X134112000Y-82550000D02*
X134112000Y-66802000D01*
X144008000Y-85753001D02*
X130584001Y-85753001D01*
X128397000Y-83566000D02*
X128397000Y-80264000D01*
X126619000Y-78486000D02*
X122047000Y-78486000D01*
X128397000Y-80264000D02*
X126619000Y-78486000D01*
X130584001Y-85753001D02*
X128397000Y-83566000D01*
X139192000Y-89916000D02*
X137287000Y-89916000D01*
X143608009Y-87277991D02*
X141830009Y-87277991D01*
X144008000Y-87253000D02*
X143633000Y-87253000D01*
X143633000Y-87253000D02*
X143608009Y-87277991D01*
X141830009Y-87277991D02*
X139192000Y-89916000D01*
X143641000Y-87753000D02*
X143616008Y-87777992D01*
X139954000Y-90170000D02*
X139954000Y-91694000D01*
X139954000Y-91694000D02*
X139192000Y-92456000D01*
X143616008Y-87777992D02*
X142346008Y-87777992D01*
X142346008Y-87777992D02*
X139954000Y-90170000D01*
X137287000Y-92456000D02*
X131048000Y-92456000D01*
X139192000Y-92456000D02*
X137287000Y-92456000D01*
X141351000Y-90163236D02*
X141351000Y-94234000D01*
X140589000Y-94996000D02*
X137287000Y-94996000D01*
X141351000Y-94234000D02*
X140589000Y-94996000D01*
X130794000Y-94869000D02*
X137160000Y-94869000D01*
X137160000Y-94869000D02*
X137287000Y-94996000D01*
X144008000Y-88253001D02*
X143261235Y-88253001D01*
X143261235Y-88253001D02*
X141351000Y-90163236D01*
X143807500Y-86253000D02*
X143782510Y-86277990D01*
X143782510Y-86277990D02*
X126891510Y-86277990D01*
X124333000Y-100076000D02*
X122047000Y-100076000D01*
X126891510Y-86277990D02*
X125095000Y-88074500D01*
X125095000Y-99314000D02*
X124333000Y-100076000D01*
X143998000Y-86253000D02*
X143973010Y-86277990D01*
X125095000Y-88074500D02*
X125095000Y-99314000D01*
X144008000Y-86253000D02*
X143807500Y-86253000D01*
X144008000Y-86253000D02*
X143998000Y-86253000D01*
X133477000Y-116967000D02*
X133477000Y-115316000D01*
X152432001Y-116680999D02*
X151765000Y-117348000D01*
X151257000Y-111188500D02*
X152432001Y-112363501D01*
X151765000Y-117348000D02*
X133858000Y-117348000D01*
X133858000Y-117348000D02*
X133477000Y-116967000D01*
X152432001Y-112363501D02*
X152432001Y-116680999D01*
X148717000Y-111188500D02*
X149892001Y-112363501D01*
X139128500Y-115887500D02*
X138557000Y-115316000D01*
X149892001Y-112363501D02*
X149892001Y-115410999D01*
X149892001Y-115410999D02*
X149415500Y-115887500D01*
X149415500Y-115887500D02*
X139128500Y-115887500D01*
X146875500Y-105283000D02*
X145983000Y-104390500D01*
X146875500Y-111887000D02*
X146875500Y-105283000D01*
X145983000Y-104390500D02*
X145983000Y-93228000D01*
X148717000Y-113728500D02*
X146875500Y-111887000D01*
X149892001Y-105696001D02*
X149892001Y-111562503D01*
X146482999Y-103556999D02*
X146482999Y-93228000D01*
X147701000Y-104775000D02*
X146482999Y-103556999D01*
X151257000Y-112927502D02*
X151257000Y-113728500D01*
X149892001Y-105696001D02*
X148971000Y-104775000D01*
X148971000Y-104775000D02*
X147701000Y-104775000D01*
X149892001Y-111562503D02*
X151257000Y-112927502D01*
X151574500Y-103886000D02*
X147955000Y-103886000D01*
X147955000Y-103886000D02*
X146983000Y-102914000D01*
X152621999Y-104933499D02*
X152621999Y-111752501D01*
X152621999Y-111752501D02*
X153518498Y-112649000D01*
X153518498Y-112649000D02*
X153518498Y-113449998D01*
X153518498Y-113449998D02*
X153797000Y-113728500D01*
X146983000Y-102914000D02*
X146983000Y-93228000D01*
X152621999Y-104933499D02*
X151574500Y-103886000D01*
X147482999Y-101889999D02*
X147482999Y-93228000D01*
X155161999Y-112553499D02*
X155161999Y-103409499D01*
X156337000Y-113728500D02*
X155161999Y-112553499D01*
X155161999Y-103409499D02*
X154622500Y-102870000D01*
X154622500Y-102870000D02*
X148463000Y-102870000D01*
X148463000Y-102870000D02*
X147482999Y-101889999D01*
X156337000Y-101790500D02*
X155130500Y-100584000D01*
X152483000Y-99968500D02*
X152483000Y-93228000D01*
X155130500Y-100584000D02*
X153098500Y-100584000D01*
X156337000Y-111188500D02*
X156337000Y-101790500D01*
X153098500Y-100584000D02*
X152483000Y-99968500D01*
X163957000Y-92583000D02*
X162627000Y-91253000D01*
X163957000Y-111188500D02*
X163957000Y-92583000D01*
X162627000Y-91253000D02*
X155458000Y-91253000D01*
X160401000Y-98171000D02*
X161417000Y-99187000D01*
X154178000Y-98171000D02*
X160401000Y-98171000D01*
X153483000Y-97476000D02*
X154178000Y-98171000D01*
X161417000Y-99187000D02*
X161417000Y-111188500D01*
X153483000Y-93228000D02*
X153483000Y-97476000D01*
X171143990Y-76252010D02*
X171143990Y-71918010D01*
X172069000Y-70993000D02*
X173482000Y-70993000D01*
X173482000Y-70993000D02*
X176149000Y-68326000D01*
X171143990Y-71918010D02*
X172069000Y-70993000D01*
X176149000Y-68326000D02*
X177927000Y-68326000D01*
X155458000Y-86752999D02*
X158227181Y-86752999D01*
X170053000Y-77343000D02*
X171143990Y-76252010D01*
X158227181Y-86752999D02*
X167637180Y-77343000D01*
X167637180Y-77343000D02*
X170053000Y-77343000D01*
X171069000Y-79121000D02*
X172069000Y-78121000D01*
X155458000Y-87253000D02*
X158363590Y-87253000D01*
X172069000Y-73406000D02*
X177927000Y-73406000D01*
X166495590Y-79121000D02*
X171069000Y-79121000D01*
X158363590Y-87253000D02*
X166495590Y-79121000D01*
X172069000Y-78121000D02*
X172069000Y-73406000D01*
X147482999Y-80047409D02*
X146361990Y-78926400D01*
X146361990Y-75749990D02*
X146112000Y-75500000D01*
X146112000Y-75500000D02*
X144843500Y-75500000D01*
X144674500Y-75331000D02*
X144843500Y-75500000D01*
X144674500Y-73279000D02*
X144674500Y-75331000D01*
X146361990Y-78926400D02*
X146361990Y-75749990D01*
X147482999Y-81778000D02*
X147482999Y-80047409D01*
X146983000Y-80183820D02*
X145911980Y-79112800D01*
X144843500Y-76900000D02*
X144843500Y-79206000D01*
X145670500Y-76900000D02*
X144843500Y-76900000D01*
X146983000Y-81778000D02*
X146983000Y-80183820D01*
X145911980Y-79112800D02*
X145911980Y-77141480D01*
X145911980Y-77141480D02*
X145670500Y-76900000D01*
D28*
X156337000Y-62124500D02*
X156696500Y-62484000D01*
D27*
X144801500Y-91334500D02*
X144720000Y-91253000D01*
D28*
X133858000Y-102616000D02*
X137287000Y-102616000D01*
X129413000Y-102616000D02*
X133858000Y-102616000D01*
D27*
X145983000Y-81778000D02*
X145818490Y-81613490D01*
D28*
X137541000Y-79988500D02*
X136038500Y-79988500D01*
X180086000Y-75946000D02*
X180213000Y-75819000D01*
X170241000Y-65471000D02*
X179263000Y-65471000D01*
X180213000Y-66421000D02*
X180213000Y-75819000D01*
X140716000Y-69977000D02*
X139954000Y-70739000D01*
X137287000Y-102616000D02*
X137287000Y-110871000D01*
X128778000Y-92694000D02*
X128794000Y-92710000D01*
X180213000Y-93916500D02*
X180213000Y-75819000D01*
X144801500Y-99927500D02*
X144801500Y-97536000D01*
X156591000Y-81915000D02*
X156591000Y-79777500D01*
X139954000Y-77724000D02*
X139954000Y-79988500D01*
X136017000Y-112141000D02*
X136017000Y-115316000D01*
X156569500Y-76094500D02*
X159959000Y-72705000D01*
D27*
X145818490Y-81613490D02*
X141578990Y-81613490D01*
D28*
X144801500Y-97536000D02*
X144801500Y-95377000D01*
X156591000Y-81915000D02*
X153720010Y-81915000D01*
X179263000Y-65471000D02*
X180213000Y-66421000D01*
D27*
X141578990Y-81613490D02*
X139954000Y-79988500D01*
D28*
X139954000Y-70739000D02*
X139954000Y-77724000D01*
X156652000Y-65471000D02*
X159959000Y-65471000D01*
X151445000Y-65471000D02*
X151003000Y-65913000D01*
X159959000Y-65471000D02*
X170241000Y-65471000D01*
X153720010Y-81915000D02*
X153583010Y-81778000D01*
X137287000Y-110871000D02*
X136017000Y-112141000D01*
X137287000Y-102616000D02*
X142113000Y-102616000D01*
X150114000Y-69977000D02*
X140716000Y-69977000D01*
X152103000Y-65471000D02*
X151445000Y-65471000D01*
X170069000Y-65643000D02*
X170241000Y-65471000D01*
D27*
X144801500Y-95377000D02*
X144801500Y-91334500D01*
D28*
X142113000Y-102616000D02*
X144801500Y-99927500D01*
X151003000Y-69088000D02*
X150114000Y-69977000D01*
X156696500Y-62484000D02*
X156696500Y-65426500D01*
X175307500Y-94488000D02*
X179641500Y-94488000D01*
X170069000Y-70993000D02*
X170069000Y-65643000D01*
X179641500Y-94488000D02*
X180213000Y-93916500D01*
X128794000Y-101997000D02*
X129413000Y-102616000D01*
X156591000Y-79777500D02*
X156569500Y-79756000D01*
X156696500Y-65426500D02*
X156652000Y-65471000D01*
D27*
X144720000Y-91253000D02*
X144008000Y-91253000D01*
D28*
X128794000Y-92710000D02*
X128794000Y-94869000D01*
X152103000Y-65471000D02*
X156652000Y-65471000D01*
X128778000Y-89281000D02*
X128778000Y-92694000D01*
X139954000Y-79988500D02*
X137541000Y-79988500D01*
X136038500Y-79988500D02*
X135509000Y-80518000D01*
X159959000Y-72705000D02*
X159959000Y-65471000D01*
X128794000Y-94869000D02*
X128794000Y-101997000D01*
X156569500Y-79756000D02*
X156569500Y-76094500D01*
X170069000Y-70993000D02*
X170069000Y-73406000D01*
X177927000Y-75946000D02*
X180086000Y-75946000D01*
X151003000Y-65913000D02*
X151003000Y-69088000D01*
X156337000Y-59436000D02*
X156337000Y-62124500D01*
D27*
X150886001Y-80168001D02*
X152026000Y-79028002D01*
X149617999Y-80168001D02*
X150886001Y-80168001D01*
X148982999Y-80803001D02*
X149617999Y-80168001D01*
X152026000Y-78793000D02*
X153257500Y-78793000D01*
X153257500Y-78793000D02*
X154559000Y-77491500D01*
X152026000Y-79028002D02*
X152026000Y-78793000D01*
X148982999Y-81778000D02*
X148982999Y-80803001D01*
X149726000Y-75893000D02*
X149726000Y-73645500D01*
X149726000Y-73645500D02*
X150219500Y-73152000D01*
X148483000Y-81778000D02*
X148483000Y-77500998D01*
X148483000Y-77500998D02*
X149726000Y-76257998D01*
X149726000Y-76257998D02*
X149726000Y-75893000D01*
X165492999Y-88253001D02*
X170180000Y-83566000D01*
X170180000Y-83566000D02*
X177927000Y-83566000D01*
X155458000Y-88253001D02*
X165492999Y-88253001D01*
X169164000Y-86106000D02*
X177927000Y-86106000D01*
X166517000Y-88753000D02*
X169164000Y-86106000D01*
X155458000Y-88753000D02*
X166517000Y-88753000D01*
X155458000Y-89252999D02*
X167795001Y-89252999D01*
X169926000Y-87122000D02*
X176403000Y-87122000D01*
X176403000Y-87122000D02*
X177927000Y-88646000D01*
X167795001Y-89252999D02*
X169926000Y-87122000D01*
X165572001Y-89753001D02*
X168021000Y-92202000D01*
X171958000Y-93472000D02*
X172466000Y-92964000D01*
X155458000Y-89753001D02*
X165572001Y-89753001D01*
X172466000Y-92964000D02*
X176149000Y-92964000D01*
X168021000Y-92202000D02*
X168021000Y-95123000D01*
X171450000Y-95758000D02*
X171958000Y-95250000D01*
X171958000Y-95250000D02*
X171958000Y-93472000D01*
X168656000Y-95758000D02*
X171450000Y-95758000D01*
X176149000Y-92964000D02*
X177927000Y-91186000D01*
X168021000Y-95123000D02*
X168656000Y-95758000D01*
X154754520Y-92396802D02*
X153733859Y-91376141D01*
X154754520Y-93794520D02*
X154754520Y-92396802D01*
X169926000Y-93726000D02*
X169926000Y-89662000D01*
X169926000Y-89662000D02*
X170922000Y-88666000D01*
X170922000Y-88666000D02*
X171983000Y-88666000D01*
X146240859Y-91376141D02*
X145991520Y-91126802D01*
X145991520Y-91126802D02*
X145991520Y-87952520D01*
X154940000Y-93980000D02*
X154754520Y-93794520D01*
X144008000Y-86752999D02*
X144791999Y-86752999D01*
X156845000Y-93980000D02*
X154940000Y-93980000D01*
X144791999Y-86752999D02*
X145991520Y-87952520D01*
X153733859Y-91376141D02*
X146240859Y-91376141D01*
X145542000Y-91313000D02*
X146177000Y-91948000D01*
X154813000Y-95123000D02*
X156845000Y-95123000D01*
X144008000Y-89252999D02*
X145005999Y-89252999D01*
X154305000Y-92583000D02*
X154305000Y-94615000D01*
X145542000Y-89789000D02*
X145542000Y-91313000D01*
X170942000Y-92247000D02*
X171983000Y-91206000D01*
X145005999Y-89252999D02*
X145542000Y-89789000D01*
X153670000Y-91948000D02*
X154305000Y-92583000D01*
X154305000Y-94615000D02*
X154813000Y-95123000D01*
X170942000Y-94742000D02*
X170942000Y-92247000D01*
X146177000Y-91948000D02*
X153670000Y-91948000D01*
G04 #@! TA.AperFunction,Conductor*
G36*
X181171121Y-56154002D02*
G01*
X181217614Y-56207658D01*
X181229000Y-56260000D01*
X181229000Y-118492000D01*
X181208998Y-118560121D01*
X181155342Y-118606614D01*
X181103000Y-118618000D01*
X118871000Y-118618000D01*
X118802879Y-118597998D01*
X118756386Y-118544342D01*
X118745000Y-118492000D01*
X118745000Y-112681341D01*
X121574888Y-112681341D01*
X121574983Y-112684971D01*
X121574983Y-112684972D01*
X121579755Y-112867217D01*
X121583970Y-113028171D01*
X121632856Y-113371660D01*
X121720897Y-113707253D01*
X121846927Y-114030503D01*
X121862204Y-114059357D01*
X121998012Y-114315853D01*
X122009275Y-114337126D01*
X122011325Y-114340109D01*
X122011327Y-114340112D01*
X122203733Y-114620064D01*
X122203739Y-114620071D01*
X122205790Y-114623056D01*
X122433866Y-114884505D01*
X122511096Y-114954779D01*
X122657881Y-115088342D01*
X122690481Y-115118006D01*
X122972233Y-115320466D01*
X123275388Y-115489200D01*
X123595928Y-115621972D01*
X123599422Y-115622967D01*
X123599424Y-115622968D01*
X123926103Y-115716025D01*
X123926108Y-115716026D01*
X123929604Y-115717022D01*
X124126304Y-115749233D01*
X124268412Y-115772504D01*
X124268419Y-115772505D01*
X124271993Y-115773090D01*
X124405178Y-115779371D01*
X124614931Y-115789263D01*
X124614932Y-115789263D01*
X124618558Y-115789434D01*
X124664236Y-115786320D01*
X124961073Y-115766084D01*
X124961081Y-115766083D01*
X124964704Y-115765836D01*
X124968279Y-115765173D01*
X124968282Y-115765173D01*
X125302279Y-115703270D01*
X125302283Y-115703269D01*
X125305844Y-115702609D01*
X125637456Y-115600592D01*
X125955145Y-115461136D01*
X125972382Y-115451064D01*
X126251560Y-115287926D01*
X126251562Y-115287925D01*
X126254700Y-115286091D01*
X126304399Y-115248776D01*
X126529244Y-115079958D01*
X126529248Y-115079955D01*
X126532151Y-115077775D01*
X126783819Y-114838950D01*
X127006370Y-114572783D01*
X127035007Y-114529188D01*
X127132305Y-114381064D01*
X127196853Y-114282799D01*
X127276894Y-114123655D01*
X127351117Y-113976080D01*
X127351120Y-113976072D01*
X127352744Y-113972844D01*
X127358848Y-113956165D01*
X127470729Y-113650437D01*
X127470730Y-113650433D01*
X127471977Y-113647026D01*
X127472822Y-113643504D01*
X127472825Y-113643496D01*
X127552124Y-113313191D01*
X127552125Y-113313187D01*
X127552971Y-113309662D01*
X127580238Y-113084340D01*
X127594316Y-112968004D01*
X127594316Y-112967997D01*
X127594652Y-112965225D01*
X127600599Y-112776000D01*
X127597873Y-112728715D01*
X127580836Y-112433246D01*
X127580835Y-112433241D01*
X127580627Y-112429626D01*
X127563626Y-112332214D01*
X127521600Y-112091415D01*
X127521598Y-112091408D01*
X127520976Y-112087842D01*
X127516281Y-112071989D01*
X127473290Y-111926856D01*
X127422437Y-111755180D01*
X127415841Y-111739716D01*
X127287740Y-111439386D01*
X127287738Y-111439383D01*
X127286316Y-111436048D01*
X127279403Y-111423927D01*
X127116208Y-111137816D01*
X127114417Y-111134676D01*
X127097797Y-111112050D01*
X126994071Y-110970845D01*
X126909018Y-110855060D01*
X126672842Y-110600904D01*
X126409019Y-110375578D01*
X126121047Y-110182069D01*
X125812741Y-110022940D01*
X125488189Y-109900302D01*
X125484668Y-109899418D01*
X125484663Y-109899416D01*
X125279197Y-109847807D01*
X125151692Y-109815780D01*
X125129476Y-109812855D01*
X124811315Y-109770968D01*
X124811307Y-109770967D01*
X124807711Y-109770494D01*
X124663045Y-109768221D01*
X124464446Y-109765101D01*
X124464442Y-109765101D01*
X124460804Y-109765044D01*
X124457190Y-109765405D01*
X124457184Y-109765405D01*
X124269396Y-109784149D01*
X124115569Y-109799503D01*
X123969593Y-109831331D01*
X123781711Y-109872296D01*
X123776583Y-109873414D01*
X123773156Y-109874587D01*
X123773150Y-109874589D01*
X123573137Y-109943069D01*
X123448339Y-109985797D01*
X123135188Y-110135163D01*
X122841279Y-110319532D01*
X122838443Y-110321804D01*
X122838436Y-110321809D01*
X122610239Y-110504629D01*
X122570509Y-110536459D01*
X122326466Y-110783071D01*
X122324225Y-110785929D01*
X122126225Y-111038449D01*
X122112386Y-111056098D01*
X122110493Y-111059187D01*
X122110491Y-111059190D01*
X122064233Y-111134676D01*
X121931105Y-111351921D01*
X121929580Y-111355206D01*
X121929578Y-111355210D01*
X121883364Y-111454770D01*
X121785027Y-111666620D01*
X121732016Y-111826909D01*
X121679108Y-111986889D01*
X121676087Y-111996023D01*
X121675351Y-111999578D01*
X121675350Y-111999581D01*
X121611538Y-112307717D01*
X121605730Y-112335764D01*
X121574888Y-112681341D01*
X118745000Y-112681341D01*
X118745000Y-81920669D01*
X120689001Y-81920669D01*
X120689371Y-81927490D01*
X120694895Y-81978352D01*
X120698521Y-81993604D01*
X120743676Y-82114054D01*
X120752214Y-82129649D01*
X120828715Y-82231724D01*
X120841276Y-82244285D01*
X120943351Y-82320786D01*
X120958946Y-82329324D01*
X121079394Y-82374478D01*
X121094649Y-82378105D01*
X121145514Y-82383631D01*
X121152328Y-82384000D01*
X121774885Y-82384000D01*
X121790124Y-82379525D01*
X121791329Y-82378135D01*
X121793000Y-82370452D01*
X121793000Y-82365884D01*
X122301000Y-82365884D01*
X122305475Y-82381123D01*
X122306865Y-82382328D01*
X122314548Y-82383999D01*
X122941669Y-82383999D01*
X122948490Y-82383629D01*
X122999352Y-82378105D01*
X123014604Y-82374479D01*
X123135054Y-82329324D01*
X123150649Y-82320786D01*
X123252724Y-82244285D01*
X123265285Y-82231724D01*
X123341786Y-82129649D01*
X123350324Y-82114054D01*
X123395478Y-81993606D01*
X123399105Y-81978351D01*
X123404631Y-81927486D01*
X123405000Y-81920672D01*
X123405000Y-81298115D01*
X123400525Y-81282876D01*
X123399135Y-81281671D01*
X123391452Y-81280000D01*
X122319115Y-81280000D01*
X122303876Y-81284475D01*
X122302671Y-81285865D01*
X122301000Y-81293548D01*
X122301000Y-82365884D01*
X121793000Y-82365884D01*
X121793000Y-81298115D01*
X121788525Y-81282876D01*
X121787135Y-81281671D01*
X121779452Y-81280000D01*
X120707116Y-81280000D01*
X120691877Y-81284475D01*
X120690672Y-81285865D01*
X120689001Y-81293548D01*
X120689001Y-81920669D01*
X118745000Y-81920669D01*
X118745000Y-66419794D01*
X118747496Y-66411295D01*
X118746205Y-66401191D01*
X118995144Y-66401191D01*
X118996441Y-66407936D01*
X118999941Y-66444961D01*
X119000500Y-66456819D01*
X119000500Y-75232233D01*
X118999973Y-75243416D01*
X118998298Y-75250909D01*
X118998547Y-75258835D01*
X118998547Y-75258836D01*
X119000438Y-75318986D01*
X119000500Y-75322945D01*
X119000500Y-75350856D01*
X119000997Y-75354790D01*
X119000997Y-75354791D01*
X119001005Y-75354856D01*
X119001938Y-75366693D01*
X119003327Y-75410889D01*
X119008978Y-75430339D01*
X119012987Y-75449700D01*
X119015526Y-75469797D01*
X119018445Y-75477168D01*
X119018445Y-75477170D01*
X119031804Y-75510912D01*
X119035649Y-75522142D01*
X119047982Y-75564593D01*
X119052015Y-75571412D01*
X119052017Y-75571417D01*
X119058293Y-75582028D01*
X119066988Y-75599776D01*
X119074448Y-75618617D01*
X119079110Y-75625033D01*
X119079110Y-75625034D01*
X119100436Y-75654387D01*
X119106952Y-75664307D01*
X119129458Y-75702362D01*
X119143779Y-75716683D01*
X119156619Y-75731716D01*
X119168528Y-75748107D01*
X119174634Y-75753158D01*
X119202605Y-75776298D01*
X119211384Y-75784288D01*
X119765343Y-76338247D01*
X119772887Y-76346537D01*
X119777000Y-76353018D01*
X119782777Y-76358443D01*
X119826667Y-76399658D01*
X119829509Y-76402413D01*
X119849231Y-76422135D01*
X119852355Y-76424558D01*
X119852359Y-76424562D01*
X119852424Y-76424612D01*
X119861445Y-76432317D01*
X119893679Y-76462586D01*
X119900627Y-76466405D01*
X119900629Y-76466407D01*
X119911432Y-76472346D01*
X119927959Y-76483202D01*
X119937698Y-76490757D01*
X119937700Y-76490758D01*
X119943960Y-76495614D01*
X119984540Y-76513174D01*
X119995188Y-76518391D01*
X120033940Y-76539695D01*
X120041616Y-76541666D01*
X120041619Y-76541667D01*
X120053562Y-76544733D01*
X120072267Y-76551137D01*
X120090855Y-76559181D01*
X120098678Y-76560420D01*
X120098688Y-76560423D01*
X120134524Y-76566099D01*
X120146144Y-76568505D01*
X120181289Y-76577528D01*
X120188970Y-76579500D01*
X120209224Y-76579500D01*
X120228934Y-76581051D01*
X120248943Y-76584220D01*
X120256835Y-76583474D01*
X120292961Y-76580059D01*
X120304819Y-76579500D01*
X120771274Y-76579500D01*
X120839395Y-76599502D01*
X120878707Y-76639665D01*
X120946987Y-76751088D01*
X121093250Y-76919938D01*
X121265126Y-77062632D01*
X121335595Y-77103811D01*
X121338445Y-77105476D01*
X121387169Y-77157114D01*
X121400240Y-77226897D01*
X121373509Y-77292669D01*
X121333055Y-77326027D01*
X121320607Y-77332507D01*
X121316474Y-77335610D01*
X121316471Y-77335612D01*
X121292247Y-77353800D01*
X121141965Y-77466635D01*
X120987629Y-77628138D01*
X120861743Y-77812680D01*
X120823299Y-77895501D01*
X120785701Y-77976500D01*
X120767688Y-78015305D01*
X120707989Y-78230570D01*
X120684251Y-78452695D01*
X120684548Y-78457848D01*
X120684548Y-78457851D01*
X120691997Y-78587037D01*
X120697110Y-78675715D01*
X120698247Y-78680761D01*
X120698248Y-78680767D01*
X120722304Y-78787508D01*
X120746222Y-78893639D01*
X120830266Y-79100616D01*
X120873694Y-79171484D01*
X120935077Y-79271652D01*
X120946987Y-79291088D01*
X120950367Y-79294990D01*
X120955659Y-79301099D01*
X121093250Y-79459938D01*
X121097225Y-79463238D01*
X121097231Y-79463244D01*
X121102425Y-79467556D01*
X121142059Y-79526460D01*
X121143555Y-79597441D01*
X121106439Y-79657962D01*
X121066168Y-79682480D01*
X120958946Y-79722676D01*
X120943351Y-79731214D01*
X120841276Y-79807715D01*
X120828715Y-79820276D01*
X120752214Y-79922351D01*
X120743676Y-79937946D01*
X120698522Y-80058394D01*
X120694895Y-80073649D01*
X120689369Y-80124514D01*
X120689000Y-80131328D01*
X120689000Y-80753885D01*
X120693475Y-80769124D01*
X120694865Y-80770329D01*
X120702548Y-80772000D01*
X123386884Y-80772000D01*
X123402123Y-80767525D01*
X123403328Y-80766135D01*
X123404999Y-80758452D01*
X123404999Y-80131331D01*
X123404629Y-80124510D01*
X123399105Y-80073648D01*
X123395479Y-80058396D01*
X123350324Y-79937946D01*
X123341786Y-79922351D01*
X123265285Y-79820276D01*
X123252724Y-79807715D01*
X123150649Y-79731214D01*
X123135054Y-79722676D01*
X123024813Y-79681348D01*
X122968049Y-79638706D01*
X122943349Y-79572145D01*
X122958557Y-79502796D01*
X122980104Y-79474115D01*
X123081430Y-79373144D01*
X123081440Y-79373132D01*
X123085096Y-79369489D01*
X123130957Y-79305667D01*
X123212435Y-79192277D01*
X123215453Y-79188077D01*
X123217746Y-79183437D01*
X123219446Y-79180608D01*
X123271674Y-79132518D01*
X123327451Y-79119500D01*
X126304406Y-79119500D01*
X126372527Y-79139502D01*
X126393501Y-79156405D01*
X127726595Y-80489499D01*
X127760621Y-80551811D01*
X127763500Y-80578594D01*
X127763500Y-83487233D01*
X127762973Y-83498416D01*
X127761298Y-83505909D01*
X127761547Y-83513835D01*
X127761547Y-83513836D01*
X127763438Y-83573986D01*
X127763500Y-83577945D01*
X127763500Y-83605856D01*
X127763997Y-83609790D01*
X127763997Y-83609791D01*
X127764005Y-83609856D01*
X127764938Y-83621693D01*
X127766327Y-83665889D01*
X127771978Y-83685339D01*
X127775987Y-83704700D01*
X127778526Y-83724797D01*
X127781445Y-83732168D01*
X127781445Y-83732170D01*
X127794804Y-83765912D01*
X127798649Y-83777142D01*
X127803743Y-83794676D01*
X127810982Y-83819593D01*
X127815015Y-83826412D01*
X127815017Y-83826417D01*
X127821293Y-83837028D01*
X127829988Y-83854776D01*
X127837448Y-83873617D01*
X127842110Y-83880033D01*
X127842110Y-83880034D01*
X127863436Y-83909387D01*
X127869952Y-83919307D01*
X127888197Y-83950157D01*
X127892458Y-83957362D01*
X127906779Y-83971683D01*
X127919619Y-83986716D01*
X127931528Y-84003107D01*
X127937634Y-84008158D01*
X127965605Y-84031298D01*
X127974384Y-84039288D01*
X129364491Y-85429395D01*
X129398517Y-85491707D01*
X129393452Y-85562522D01*
X129350905Y-85619358D01*
X129284385Y-85644169D01*
X129275396Y-85644490D01*
X126970277Y-85644490D01*
X126959094Y-85643963D01*
X126951601Y-85642288D01*
X126943675Y-85642537D01*
X126943674Y-85642537D01*
X126883511Y-85644428D01*
X126879553Y-85644490D01*
X126851654Y-85644490D01*
X126847664Y-85644994D01*
X126835830Y-85645926D01*
X126791621Y-85647316D01*
X126784007Y-85649528D01*
X126784002Y-85649529D01*
X126772169Y-85652967D01*
X126752806Y-85656978D01*
X126732713Y-85659516D01*
X126725346Y-85662433D01*
X126725341Y-85662434D01*
X126691602Y-85675792D01*
X126680375Y-85679636D01*
X126637917Y-85691972D01*
X126631091Y-85696009D01*
X126620482Y-85702283D01*
X126602734Y-85710978D01*
X126583893Y-85718438D01*
X126577477Y-85723100D01*
X126577476Y-85723100D01*
X126548123Y-85744426D01*
X126538203Y-85750942D01*
X126506975Y-85769410D01*
X126506972Y-85769412D01*
X126500148Y-85773448D01*
X126485827Y-85787769D01*
X126470794Y-85800609D01*
X126454403Y-85812518D01*
X126449352Y-85818624D01*
X126426212Y-85846595D01*
X126418222Y-85855374D01*
X124702747Y-87570848D01*
X124694461Y-87578388D01*
X124687982Y-87582500D01*
X124682557Y-87588277D01*
X124641357Y-87632151D01*
X124638602Y-87634993D01*
X124618865Y-87654730D01*
X124616385Y-87657927D01*
X124608682Y-87666947D01*
X124578414Y-87699179D01*
X124574595Y-87706125D01*
X124574593Y-87706128D01*
X124568652Y-87716934D01*
X124557801Y-87733453D01*
X124545386Y-87749459D01*
X124542241Y-87756728D01*
X124542238Y-87756732D01*
X124527826Y-87790037D01*
X124522609Y-87800687D01*
X124501305Y-87839440D01*
X124499334Y-87847115D01*
X124499334Y-87847116D01*
X124496267Y-87859062D01*
X124489863Y-87877766D01*
X124481819Y-87896355D01*
X124480580Y-87904178D01*
X124480577Y-87904188D01*
X124474901Y-87940024D01*
X124472495Y-87951644D01*
X124461500Y-87994470D01*
X124461500Y-88014724D01*
X124459949Y-88034434D01*
X124456780Y-88054443D01*
X124457526Y-88062335D01*
X124460941Y-88098461D01*
X124461500Y-88110319D01*
X124461500Y-98999405D01*
X124441498Y-99067526D01*
X124424595Y-99088501D01*
X124107499Y-99405596D01*
X124045187Y-99439621D01*
X124018404Y-99442500D01*
X123323805Y-99442500D01*
X123255684Y-99422498D01*
X123218013Y-99384940D01*
X123129822Y-99248617D01*
X123129820Y-99248614D01*
X123127014Y-99244277D01*
X122976670Y-99079051D01*
X122972619Y-99075852D01*
X122972615Y-99075848D01*
X122805414Y-98943800D01*
X122805410Y-98943798D01*
X122801359Y-98940598D01*
X122760053Y-98917796D01*
X122710084Y-98867364D01*
X122695312Y-98797921D01*
X122720428Y-98731516D01*
X122747780Y-98704909D01*
X122795860Y-98670614D01*
X122926860Y-98577173D01*
X122951353Y-98552766D01*
X123081435Y-98423137D01*
X123085096Y-98419489D01*
X123144594Y-98336689D01*
X123212435Y-98242277D01*
X123215453Y-98238077D01*
X123235508Y-98197500D01*
X123312136Y-98042453D01*
X123312137Y-98042451D01*
X123314430Y-98037811D01*
X123366121Y-97867676D01*
X123377865Y-97829023D01*
X123377865Y-97829021D01*
X123379370Y-97824069D01*
X123408529Y-97602590D01*
X123408611Y-97599240D01*
X123410074Y-97539365D01*
X123410074Y-97539361D01*
X123410156Y-97536000D01*
X123391852Y-97313361D01*
X123337431Y-97096702D01*
X123248354Y-96891840D01*
X123208906Y-96830862D01*
X123129822Y-96708617D01*
X123129820Y-96708614D01*
X123127014Y-96704277D01*
X122976670Y-96539051D01*
X122972619Y-96535852D01*
X122972615Y-96535848D01*
X122805414Y-96403800D01*
X122805410Y-96403798D01*
X122801359Y-96400598D01*
X122760053Y-96377796D01*
X122710084Y-96327364D01*
X122695312Y-96257921D01*
X122720428Y-96191516D01*
X122747780Y-96164909D01*
X122800652Y-96127196D01*
X122926860Y-96037173D01*
X122947910Y-96016197D01*
X123042290Y-95922146D01*
X123085096Y-95879489D01*
X123120129Y-95830736D01*
X123212435Y-95702277D01*
X123215453Y-95698077D01*
X123218195Y-95692530D01*
X123312136Y-95502453D01*
X123312137Y-95502451D01*
X123314430Y-95497811D01*
X123364157Y-95334142D01*
X123377865Y-95289023D01*
X123377865Y-95289021D01*
X123379370Y-95284069D01*
X123408529Y-95062590D01*
X123408978Y-95044233D01*
X123410074Y-94999365D01*
X123410074Y-94999361D01*
X123410156Y-94996000D01*
X123391852Y-94773361D01*
X123337431Y-94556702D01*
X123248354Y-94351840D01*
X123187394Y-94257610D01*
X123129822Y-94168617D01*
X123129820Y-94168614D01*
X123127014Y-94164277D01*
X123113033Y-94148912D01*
X122979798Y-94002488D01*
X122948746Y-93938642D01*
X122957141Y-93868143D01*
X123002317Y-93813375D01*
X123028761Y-93799706D01*
X123135297Y-93759767D01*
X123143705Y-93756615D01*
X123260261Y-93669261D01*
X123347615Y-93552705D01*
X123398745Y-93416316D01*
X123405500Y-93354134D01*
X123405500Y-91557866D01*
X123398745Y-91495684D01*
X123347615Y-91359295D01*
X123260261Y-91242739D01*
X123143705Y-91155385D01*
X123007316Y-91104255D01*
X122945134Y-91097500D01*
X121148866Y-91097500D01*
X121086684Y-91104255D01*
X120950295Y-91155385D01*
X120833739Y-91242739D01*
X120746385Y-91359295D01*
X120695255Y-91495684D01*
X120688500Y-91557866D01*
X120688500Y-93354134D01*
X120695255Y-93416316D01*
X120746385Y-93552705D01*
X120833739Y-93669261D01*
X120950295Y-93756615D01*
X120958704Y-93759767D01*
X120958705Y-93759768D01*
X121067451Y-93800535D01*
X121124216Y-93843176D01*
X121148916Y-93909738D01*
X121133709Y-93979087D01*
X121114316Y-94005568D01*
X120987629Y-94138138D01*
X120984720Y-94142403D01*
X120984714Y-94142411D01*
X120942616Y-94204125D01*
X120861743Y-94322680D01*
X120846003Y-94356590D01*
X120773290Y-94513237D01*
X120767688Y-94525305D01*
X120707989Y-94740570D01*
X120684251Y-94962695D01*
X120684548Y-94967848D01*
X120684548Y-94967851D01*
X120691668Y-95091328D01*
X120697110Y-95185715D01*
X120698247Y-95190761D01*
X120698248Y-95190767D01*
X120714234Y-95261700D01*
X120746222Y-95403639D01*
X120802057Y-95541146D01*
X120828087Y-95605249D01*
X120830266Y-95610616D01*
X120868258Y-95672613D01*
X120942245Y-95793349D01*
X120946987Y-95801088D01*
X121093250Y-95969938D01*
X121265126Y-96112632D01*
X121329497Y-96150247D01*
X121338445Y-96155476D01*
X121387169Y-96207114D01*
X121400240Y-96276897D01*
X121373509Y-96342669D01*
X121333055Y-96376027D01*
X121320607Y-96382507D01*
X121316474Y-96385610D01*
X121316471Y-96385612D01*
X121146100Y-96513530D01*
X121141965Y-96516635D01*
X120987629Y-96678138D01*
X120984715Y-96682410D01*
X120984714Y-96682411D01*
X120974795Y-96696952D01*
X120861743Y-96862680D01*
X120767688Y-97065305D01*
X120707989Y-97280570D01*
X120684251Y-97502695D01*
X120684548Y-97507848D01*
X120684548Y-97507851D01*
X120692999Y-97654414D01*
X120697110Y-97725715D01*
X120698247Y-97730761D01*
X120698248Y-97730767D01*
X120712449Y-97793778D01*
X120746222Y-97943639D01*
X120807673Y-98094976D01*
X120825972Y-98140040D01*
X120830266Y-98150616D01*
X120946987Y-98341088D01*
X121093250Y-98509938D01*
X121265126Y-98652632D01*
X121295899Y-98670614D01*
X121338445Y-98695476D01*
X121387169Y-98747114D01*
X121400240Y-98816897D01*
X121373509Y-98882669D01*
X121333055Y-98916027D01*
X121320607Y-98922507D01*
X121316474Y-98925610D01*
X121316471Y-98925612D01*
X121148676Y-99051596D01*
X121141965Y-99056635D01*
X121111513Y-99088501D01*
X121028812Y-99175043D01*
X120987629Y-99218138D01*
X120984715Y-99222410D01*
X120984714Y-99222411D01*
X120966838Y-99248617D01*
X120861743Y-99402680D01*
X120838433Y-99452898D01*
X120771219Y-99597699D01*
X120767688Y-99605305D01*
X120707989Y-99820570D01*
X120684251Y-100042695D01*
X120684548Y-100047848D01*
X120684548Y-100047851D01*
X120690011Y-100142590D01*
X120697110Y-100265715D01*
X120698247Y-100270761D01*
X120698248Y-100270767D01*
X120699454Y-100276117D01*
X120746222Y-100483639D01*
X120806014Y-100630890D01*
X120826233Y-100680683D01*
X120830266Y-100690616D01*
X120849816Y-100722518D01*
X120943074Y-100874702D01*
X120946987Y-100881088D01*
X121093250Y-101049938D01*
X121265126Y-101192632D01*
X121458000Y-101305338D01*
X121666692Y-101385030D01*
X121671760Y-101386061D01*
X121671763Y-101386062D01*
X121769580Y-101405963D01*
X121885597Y-101429567D01*
X121890772Y-101429757D01*
X121890774Y-101429757D01*
X122103673Y-101437564D01*
X122103677Y-101437564D01*
X122108837Y-101437753D01*
X122113957Y-101437097D01*
X122113959Y-101437097D01*
X122325288Y-101410025D01*
X122325289Y-101410025D01*
X122330416Y-101409368D01*
X122337096Y-101407364D01*
X122539429Y-101346661D01*
X122539434Y-101346659D01*
X122544384Y-101345174D01*
X122744994Y-101246896D01*
X122926860Y-101117173D01*
X122986911Y-101057332D01*
X123048013Y-100996443D01*
X123085096Y-100959489D01*
X123144594Y-100876689D01*
X123212435Y-100782277D01*
X123215453Y-100778077D01*
X123217746Y-100773437D01*
X123219446Y-100770608D01*
X123271674Y-100722518D01*
X123327451Y-100709500D01*
X124254233Y-100709500D01*
X124265416Y-100710027D01*
X124272909Y-100711702D01*
X124280835Y-100711453D01*
X124280836Y-100711453D01*
X124340986Y-100709562D01*
X124344945Y-100709500D01*
X124372856Y-100709500D01*
X124376791Y-100709003D01*
X124376856Y-100708995D01*
X124388693Y-100708062D01*
X124420951Y-100707048D01*
X124424970Y-100706922D01*
X124432889Y-100706673D01*
X124452343Y-100701021D01*
X124471700Y-100697013D01*
X124483930Y-100695468D01*
X124483931Y-100695468D01*
X124491797Y-100694474D01*
X124499168Y-100691555D01*
X124499170Y-100691555D01*
X124532912Y-100678196D01*
X124544142Y-100674351D01*
X124578983Y-100664229D01*
X124578984Y-100664229D01*
X124586593Y-100662018D01*
X124593412Y-100657985D01*
X124593417Y-100657983D01*
X124604028Y-100651707D01*
X124621776Y-100643012D01*
X124640617Y-100635552D01*
X124676387Y-100609564D01*
X124686307Y-100603048D01*
X124717535Y-100584580D01*
X124717538Y-100584578D01*
X124724362Y-100580542D01*
X124738683Y-100566221D01*
X124753717Y-100553380D01*
X124763693Y-100546132D01*
X124770107Y-100541472D01*
X124798288Y-100507407D01*
X124806278Y-100498626D01*
X125487258Y-99817647D01*
X125495537Y-99810113D01*
X125502018Y-99806000D01*
X125548644Y-99756348D01*
X125551398Y-99753507D01*
X125571135Y-99733770D01*
X125573615Y-99730573D01*
X125581320Y-99721551D01*
X125606159Y-99695100D01*
X125611586Y-99689321D01*
X125615405Y-99682375D01*
X125615407Y-99682372D01*
X125621348Y-99671566D01*
X125632199Y-99655047D01*
X125639758Y-99645301D01*
X125644614Y-99639041D01*
X125647759Y-99631772D01*
X125647762Y-99631768D01*
X125662174Y-99598463D01*
X125667391Y-99587813D01*
X125688695Y-99549060D01*
X125693733Y-99529437D01*
X125700137Y-99510734D01*
X125705033Y-99499420D01*
X125705033Y-99499419D01*
X125708181Y-99492145D01*
X125709420Y-99484322D01*
X125709423Y-99484312D01*
X125715099Y-99448476D01*
X125717505Y-99436856D01*
X125726528Y-99401711D01*
X125726528Y-99401710D01*
X125728500Y-99394030D01*
X125728500Y-99373776D01*
X125730051Y-99354065D01*
X125731980Y-99341886D01*
X125733220Y-99334057D01*
X125729059Y-99290038D01*
X125728500Y-99278181D01*
X125728500Y-88389094D01*
X125748502Y-88320973D01*
X125765405Y-88299999D01*
X127117010Y-86948395D01*
X127179322Y-86914369D01*
X127206105Y-86911490D01*
X140996416Y-86911490D01*
X141064537Y-86931492D01*
X141111030Y-86985148D01*
X141121134Y-87055422D01*
X141091640Y-87120002D01*
X141085512Y-87126584D01*
X140023475Y-88188620D01*
X138966500Y-89245595D01*
X138904188Y-89279621D01*
X138877405Y-89282500D01*
X138771500Y-89282500D01*
X138703379Y-89262498D01*
X138656886Y-89208842D01*
X138645500Y-89156500D01*
X138645500Y-89017866D01*
X138638745Y-88955684D01*
X138587615Y-88819295D01*
X138500261Y-88702739D01*
X138383705Y-88615385D01*
X138247316Y-88564255D01*
X138185134Y-88557500D01*
X136388866Y-88557500D01*
X136326684Y-88564255D01*
X136190295Y-88615385D01*
X136073739Y-88702739D01*
X135986385Y-88819295D01*
X135935255Y-88955684D01*
X135928500Y-89017866D01*
X135928500Y-90814134D01*
X135935255Y-90876316D01*
X135986385Y-91012705D01*
X136073739Y-91129261D01*
X136190295Y-91216615D01*
X136198704Y-91219767D01*
X136198705Y-91219768D01*
X136307451Y-91260535D01*
X136364216Y-91303176D01*
X136388916Y-91369738D01*
X136373709Y-91439087D01*
X136354316Y-91465568D01*
X136256000Y-91568450D01*
X136227629Y-91598138D01*
X136224715Y-91602410D01*
X136224714Y-91602411D01*
X136112095Y-91767504D01*
X136057184Y-91812507D01*
X136008007Y-91822500D01*
X131831513Y-91822500D01*
X131763392Y-91802498D01*
X131743692Y-91784436D01*
X131742479Y-91785651D01*
X131685440Y-91728712D01*
X131617303Y-91660694D01*
X131522751Y-91602411D01*
X131472969Y-91571725D01*
X131472967Y-91571724D01*
X131466739Y-91567885D01*
X131346679Y-91528063D01*
X131305390Y-91514368D01*
X131305388Y-91514368D01*
X131298862Y-91512203D01*
X131292026Y-91511503D01*
X131292023Y-91511502D01*
X131248970Y-91507091D01*
X131194401Y-91501500D01*
X130797088Y-91501500D01*
X130393600Y-91501501D01*
X130287833Y-91512474D01*
X130281286Y-91514658D01*
X130281287Y-91514658D01*
X130126998Y-91566133D01*
X130126996Y-91566134D01*
X130120054Y-91568450D01*
X129969651Y-91661521D01*
X129883214Y-91748110D01*
X129820934Y-91782188D01*
X129750114Y-91777185D01*
X129705029Y-91748267D01*
X129617303Y-91660694D01*
X129611074Y-91656854D01*
X129611071Y-91656852D01*
X129596383Y-91647798D01*
X129548890Y-91595025D01*
X129536500Y-91540539D01*
X129536500Y-89817999D01*
X129553381Y-89754999D01*
X129553787Y-89754297D01*
X129612527Y-89652556D01*
X129671542Y-89470928D01*
X129675359Y-89434616D01*
X129690814Y-89287565D01*
X129691504Y-89281000D01*
X129679269Y-89164593D01*
X129672232Y-89097635D01*
X129672232Y-89097633D01*
X129671542Y-89091072D01*
X129612527Y-88909444D01*
X129517040Y-88744056D01*
X129480558Y-88703538D01*
X129393675Y-88607045D01*
X129393674Y-88607044D01*
X129389253Y-88602134D01*
X129290157Y-88530136D01*
X129240094Y-88493763D01*
X129240093Y-88493762D01*
X129234752Y-88489882D01*
X129228724Y-88487198D01*
X129228722Y-88487197D01*
X129066319Y-88414891D01*
X129066318Y-88414891D01*
X129060288Y-88412206D01*
X128958499Y-88390570D01*
X128879944Y-88373872D01*
X128879939Y-88373872D01*
X128873487Y-88372500D01*
X128682513Y-88372500D01*
X128676061Y-88373872D01*
X128676056Y-88373872D01*
X128597501Y-88390570D01*
X128495712Y-88412206D01*
X128489682Y-88414891D01*
X128489681Y-88414891D01*
X128327278Y-88487197D01*
X128327276Y-88487198D01*
X128321248Y-88489882D01*
X128315907Y-88493762D01*
X128315906Y-88493763D01*
X128265843Y-88530136D01*
X128166747Y-88602134D01*
X128162326Y-88607044D01*
X128162325Y-88607045D01*
X128075443Y-88703538D01*
X128038960Y-88744056D01*
X127943473Y-88909444D01*
X127884458Y-89091072D01*
X127883768Y-89097633D01*
X127883768Y-89097635D01*
X127876731Y-89164593D01*
X127864496Y-89281000D01*
X127865186Y-89287565D01*
X127880642Y-89434616D01*
X127884458Y-89470928D01*
X127943473Y-89652556D01*
X128002214Y-89754297D01*
X128002619Y-89754999D01*
X128019500Y-89817999D01*
X128019500Y-91562183D01*
X127999498Y-91630304D01*
X127973238Y-91659301D01*
X127969651Y-91661521D01*
X127844694Y-91786697D01*
X127825730Y-91817463D01*
X127762789Y-91919572D01*
X127751885Y-91937261D01*
X127733553Y-91992530D01*
X127700184Y-92093137D01*
X127696203Y-92105138D01*
X127695503Y-92111974D01*
X127695502Y-92111977D01*
X127694089Y-92125768D01*
X127685500Y-92209599D01*
X127685501Y-93210400D01*
X127696474Y-93316167D01*
X127698658Y-93322713D01*
X127749730Y-93475792D01*
X127752450Y-93483946D01*
X127845521Y-93634349D01*
X127911610Y-93700322D01*
X127945688Y-93762602D01*
X127940685Y-93833422D01*
X127911767Y-93878507D01*
X127844694Y-93945697D01*
X127811806Y-93999051D01*
X127760800Y-94081799D01*
X127751885Y-94096261D01*
X127730595Y-94160450D01*
X127698496Y-94257226D01*
X127696203Y-94264138D01*
X127695503Y-94270974D01*
X127695502Y-94270977D01*
X127692563Y-94299668D01*
X127685500Y-94368599D01*
X127685501Y-95369400D01*
X127696474Y-95475167D01*
X127698658Y-95481713D01*
X127749730Y-95634792D01*
X127752450Y-95642946D01*
X127845521Y-95793349D01*
X127850703Y-95798522D01*
X127883130Y-95830892D01*
X127970697Y-95918306D01*
X127976927Y-95922146D01*
X127982675Y-95926686D01*
X127981625Y-95928016D01*
X128023108Y-95974108D01*
X128035500Y-96028598D01*
X128035500Y-101929930D01*
X128034067Y-101948880D01*
X128030801Y-101970349D01*
X128031394Y-101977641D01*
X128031394Y-101977644D01*
X128035085Y-102023018D01*
X128035500Y-102033233D01*
X128035500Y-102041293D01*
X128035925Y-102044937D01*
X128038789Y-102069507D01*
X128039222Y-102073882D01*
X128045140Y-102146637D01*
X128047396Y-102153601D01*
X128048587Y-102159560D01*
X128049971Y-102165415D01*
X128050818Y-102172681D01*
X128075735Y-102241327D01*
X128077152Y-102245455D01*
X128094974Y-102300467D01*
X128099649Y-102314899D01*
X128103445Y-102321154D01*
X128105951Y-102326628D01*
X128108670Y-102332058D01*
X128111167Y-102338937D01*
X128115180Y-102345057D01*
X128115180Y-102345058D01*
X128151186Y-102399976D01*
X128153523Y-102403680D01*
X128191405Y-102466107D01*
X128195121Y-102470315D01*
X128195122Y-102470316D01*
X128198803Y-102474484D01*
X128198776Y-102474508D01*
X128201429Y-102477500D01*
X128204132Y-102480733D01*
X128208144Y-102486852D01*
X128213456Y-102491884D01*
X128264383Y-102540128D01*
X128266825Y-102542506D01*
X128829230Y-103104911D01*
X128841616Y-103119323D01*
X128850149Y-103130918D01*
X128850154Y-103130923D01*
X128854492Y-103136818D01*
X128860070Y-103141557D01*
X128860073Y-103141560D01*
X128894768Y-103171035D01*
X128902284Y-103177965D01*
X128907979Y-103183660D01*
X128910861Y-103185940D01*
X128930251Y-103201281D01*
X128933655Y-103204072D01*
X128983703Y-103246591D01*
X128989285Y-103251333D01*
X128995801Y-103254661D01*
X129000850Y-103258028D01*
X129005979Y-103261195D01*
X129011716Y-103265734D01*
X129077875Y-103296655D01*
X129081769Y-103298558D01*
X129146808Y-103331769D01*
X129153916Y-103333508D01*
X129159559Y-103335607D01*
X129165322Y-103337524D01*
X129171950Y-103340622D01*
X129179112Y-103342112D01*
X129179113Y-103342112D01*
X129243412Y-103355486D01*
X129247696Y-103356456D01*
X129318610Y-103373808D01*
X129324212Y-103374156D01*
X129324215Y-103374156D01*
X129329764Y-103374500D01*
X129329762Y-103374536D01*
X129333755Y-103374775D01*
X129337947Y-103375149D01*
X129345115Y-103376640D01*
X129422520Y-103374546D01*
X129425928Y-103374500D01*
X136089491Y-103374500D01*
X136157612Y-103394502D01*
X136186402Y-103421595D01*
X136186987Y-103421088D01*
X136333250Y-103589938D01*
X136482985Y-103714250D01*
X136522620Y-103773152D01*
X136528500Y-103811194D01*
X136528500Y-110504629D01*
X136508498Y-110572750D01*
X136491595Y-110593724D01*
X135528089Y-111557230D01*
X135513677Y-111569616D01*
X135502082Y-111578149D01*
X135502077Y-111578154D01*
X135496182Y-111582492D01*
X135491443Y-111588070D01*
X135491440Y-111588073D01*
X135461965Y-111622768D01*
X135455035Y-111630284D01*
X135449340Y-111635979D01*
X135447060Y-111638861D01*
X135431719Y-111658251D01*
X135428928Y-111661655D01*
X135386409Y-111711703D01*
X135381667Y-111717285D01*
X135378339Y-111723801D01*
X135374972Y-111728850D01*
X135371805Y-111733979D01*
X135367266Y-111739716D01*
X135336345Y-111805875D01*
X135334442Y-111809769D01*
X135301231Y-111874808D01*
X135299492Y-111881916D01*
X135297393Y-111887559D01*
X135295476Y-111893322D01*
X135292378Y-111899950D01*
X135290888Y-111907112D01*
X135290888Y-111907113D01*
X135277514Y-111971412D01*
X135276544Y-111975696D01*
X135259192Y-112046610D01*
X135258500Y-112057764D01*
X135258464Y-112057762D01*
X135258225Y-112061755D01*
X135257851Y-112065947D01*
X135256360Y-112073115D01*
X135256558Y-112080432D01*
X135258454Y-112150521D01*
X135258500Y-112153928D01*
X135258500Y-114123655D01*
X135238498Y-114191776D01*
X135208153Y-114224415D01*
X135116100Y-114293530D01*
X135111965Y-114296635D01*
X135036462Y-114375645D01*
X135031283Y-114381064D01*
X134969759Y-114416494D01*
X134898846Y-114413037D01*
X134841060Y-114371791D01*
X134822207Y-114338243D01*
X134780767Y-114227703D01*
X134777615Y-114219295D01*
X134690261Y-114102739D01*
X134573705Y-114015385D01*
X134437316Y-113964255D01*
X134375134Y-113957500D01*
X132578866Y-113957500D01*
X132516684Y-113964255D01*
X132380295Y-114015385D01*
X132263739Y-114102739D01*
X132176385Y-114219295D01*
X132125255Y-114355684D01*
X132118500Y-114417866D01*
X132118500Y-116214134D01*
X132125255Y-116276316D01*
X132176385Y-116412705D01*
X132263739Y-116529261D01*
X132380295Y-116616615D01*
X132516684Y-116667745D01*
X132578866Y-116674500D01*
X132717500Y-116674500D01*
X132785621Y-116694502D01*
X132832114Y-116748158D01*
X132843500Y-116800500D01*
X132843500Y-116888233D01*
X132842973Y-116899416D01*
X132841298Y-116906909D01*
X132841547Y-116914835D01*
X132841547Y-116914836D01*
X132843438Y-116974986D01*
X132843500Y-116978945D01*
X132843500Y-117006856D01*
X132843997Y-117010790D01*
X132843997Y-117010791D01*
X132844005Y-117010856D01*
X132844938Y-117022693D01*
X132846327Y-117066889D01*
X132851978Y-117086339D01*
X132855987Y-117105700D01*
X132858526Y-117125797D01*
X132861445Y-117133168D01*
X132861445Y-117133170D01*
X132874804Y-117166912D01*
X132878649Y-117178142D01*
X132890982Y-117220593D01*
X132895015Y-117227412D01*
X132895017Y-117227417D01*
X132901293Y-117238028D01*
X132909988Y-117255776D01*
X132917448Y-117274617D01*
X132922110Y-117281033D01*
X132922110Y-117281034D01*
X132943436Y-117310387D01*
X132949952Y-117320307D01*
X132972458Y-117358362D01*
X132986779Y-117372683D01*
X132999619Y-117387716D01*
X133011528Y-117404107D01*
X133017634Y-117409158D01*
X133045605Y-117432298D01*
X133054384Y-117440288D01*
X133354343Y-117740247D01*
X133361887Y-117748537D01*
X133366000Y-117755018D01*
X133371777Y-117760443D01*
X133415667Y-117801658D01*
X133418509Y-117804413D01*
X133438230Y-117824134D01*
X133441425Y-117826612D01*
X133450447Y-117834318D01*
X133482679Y-117864586D01*
X133489628Y-117868406D01*
X133500432Y-117874346D01*
X133516956Y-117885199D01*
X133532959Y-117897613D01*
X133573543Y-117915176D01*
X133584173Y-117920383D01*
X133622940Y-117941695D01*
X133630617Y-117943666D01*
X133630622Y-117943668D01*
X133642558Y-117946732D01*
X133661266Y-117953137D01*
X133679855Y-117961181D01*
X133687680Y-117962420D01*
X133687682Y-117962421D01*
X133723519Y-117968097D01*
X133735140Y-117970504D01*
X133766959Y-117978673D01*
X133777970Y-117981500D01*
X133798231Y-117981500D01*
X133817940Y-117983051D01*
X133837943Y-117986219D01*
X133845835Y-117985473D01*
X133851062Y-117984979D01*
X133881954Y-117982059D01*
X133893811Y-117981500D01*
X151686233Y-117981500D01*
X151697416Y-117982027D01*
X151704909Y-117983702D01*
X151712835Y-117983453D01*
X151712836Y-117983453D01*
X151772986Y-117981562D01*
X151776945Y-117981500D01*
X151804856Y-117981500D01*
X151808791Y-117981003D01*
X151808856Y-117980995D01*
X151820693Y-117980062D01*
X151852951Y-117979048D01*
X151856970Y-117978922D01*
X151864889Y-117978673D01*
X151884343Y-117973021D01*
X151903700Y-117969013D01*
X151915930Y-117967468D01*
X151915931Y-117967468D01*
X151923797Y-117966474D01*
X151931168Y-117963555D01*
X151931170Y-117963555D01*
X151964912Y-117950196D01*
X151976142Y-117946351D01*
X152010983Y-117936229D01*
X152010984Y-117936229D01*
X152018593Y-117934018D01*
X152025412Y-117929985D01*
X152025417Y-117929983D01*
X152036028Y-117923707D01*
X152053776Y-117915012D01*
X152072617Y-117907552D01*
X152092987Y-117892753D01*
X152108387Y-117881564D01*
X152118307Y-117875048D01*
X152149535Y-117856580D01*
X152149538Y-117856578D01*
X152156362Y-117852542D01*
X152170683Y-117838221D01*
X152185717Y-117825380D01*
X152195693Y-117818132D01*
X152202107Y-117813472D01*
X152230288Y-117779407D01*
X152238278Y-117770626D01*
X152824259Y-117184646D01*
X152832538Y-117177112D01*
X152839019Y-117172999D01*
X152885645Y-117123347D01*
X152888399Y-117120506D01*
X152908136Y-117100769D01*
X152910616Y-117097572D01*
X152918321Y-117088550D01*
X152943160Y-117062099D01*
X152948587Y-117056320D01*
X152952406Y-117049374D01*
X152952408Y-117049371D01*
X152958349Y-117038565D01*
X152969200Y-117022046D01*
X152976759Y-117012300D01*
X152981615Y-117006040D01*
X152984760Y-116998771D01*
X152984763Y-116998767D01*
X152999175Y-116965462D01*
X153004392Y-116954812D01*
X153025696Y-116916059D01*
X153030734Y-116896436D01*
X153037138Y-116877733D01*
X153042034Y-116866419D01*
X153042034Y-116866418D01*
X153045182Y-116859144D01*
X153046421Y-116851321D01*
X153046424Y-116851311D01*
X153052100Y-116815475D01*
X153054506Y-116803855D01*
X153063529Y-116768710D01*
X153063529Y-116768709D01*
X153065501Y-116761029D01*
X153065501Y-116740775D01*
X153067052Y-116721064D01*
X153068981Y-116708885D01*
X153070221Y-116701056D01*
X153066060Y-116657037D01*
X153065501Y-116645180D01*
X153065501Y-115086412D01*
X153085503Y-115018291D01*
X153139159Y-114971798D01*
X153209433Y-114961694D01*
X153236450Y-114968702D01*
X153416692Y-115037530D01*
X153421760Y-115038561D01*
X153421763Y-115038562D01*
X153516862Y-115057910D01*
X153635597Y-115082067D01*
X153640772Y-115082257D01*
X153640774Y-115082257D01*
X153853673Y-115090064D01*
X153853677Y-115090064D01*
X153858837Y-115090253D01*
X153863957Y-115089597D01*
X153863959Y-115089597D01*
X154075288Y-115062525D01*
X154075289Y-115062525D01*
X154080416Y-115061868D01*
X154085376Y-115060380D01*
X154289429Y-114999161D01*
X154289434Y-114999159D01*
X154294384Y-114997674D01*
X154494994Y-114899396D01*
X154676860Y-114769673D01*
X154835096Y-114611989D01*
X154965453Y-114430577D01*
X154966776Y-114431528D01*
X155013645Y-114388357D01*
X155083580Y-114376125D01*
X155149026Y-114403644D01*
X155176875Y-114435494D01*
X155236987Y-114533588D01*
X155383250Y-114702438D01*
X155555126Y-114845132D01*
X155748000Y-114957838D01*
X155752825Y-114959680D01*
X155752826Y-114959681D01*
X155795721Y-114976061D01*
X155956692Y-115037530D01*
X155961760Y-115038561D01*
X155961763Y-115038562D01*
X156056862Y-115057910D01*
X156175597Y-115082067D01*
X156180772Y-115082257D01*
X156180774Y-115082257D01*
X156393673Y-115090064D01*
X156393677Y-115090064D01*
X156398837Y-115090253D01*
X156403957Y-115089597D01*
X156403959Y-115089597D01*
X156615288Y-115062525D01*
X156615289Y-115062525D01*
X156620416Y-115061868D01*
X156625376Y-115060380D01*
X156829429Y-114999161D01*
X156829434Y-114999159D01*
X156834384Y-114997674D01*
X157034994Y-114899396D01*
X157216860Y-114769673D01*
X157375096Y-114611989D01*
X157505453Y-114430577D01*
X157506640Y-114431430D01*
X157553960Y-114387862D01*
X157623897Y-114375645D01*
X157689338Y-114403178D01*
X157717166Y-114435011D01*
X157774694Y-114528888D01*
X157780777Y-114537199D01*
X157920213Y-114698167D01*
X157927580Y-114705383D01*
X158091434Y-114841416D01*
X158099881Y-114847331D01*
X158283756Y-114954779D01*
X158293042Y-114959229D01*
X158492001Y-115035203D01*
X158501899Y-115038079D01*
X158605250Y-115059106D01*
X158619299Y-115057910D01*
X158623000Y-115047565D01*
X158623000Y-113600500D01*
X158643002Y-113532379D01*
X158696658Y-113485886D01*
X158749000Y-113474500D01*
X159005000Y-113474500D01*
X159073121Y-113494502D01*
X159119614Y-113548158D01*
X159131000Y-113600500D01*
X159131000Y-115047017D01*
X159135064Y-115060859D01*
X159148478Y-115062893D01*
X159155184Y-115062034D01*
X159165262Y-115059892D01*
X159369255Y-114998691D01*
X159378842Y-114994933D01*
X159570095Y-114901239D01*
X159578945Y-114895964D01*
X159752328Y-114772292D01*
X159760200Y-114765639D01*
X159911052Y-114615312D01*
X159917730Y-114607465D01*
X160045022Y-114430319D01*
X160046279Y-114431222D01*
X160093373Y-114387862D01*
X160163311Y-114375645D01*
X160228751Y-114403178D01*
X160256579Y-114435011D01*
X160316987Y-114533588D01*
X160463250Y-114702438D01*
X160635126Y-114845132D01*
X160706686Y-114886948D01*
X160721070Y-114895353D01*
X160769794Y-114946991D01*
X160783500Y-115004141D01*
X160783500Y-115427733D01*
X160782973Y-115438916D01*
X160781298Y-115446409D01*
X160781547Y-115454335D01*
X160781547Y-115454336D01*
X160783438Y-115514486D01*
X160783500Y-115518445D01*
X160783500Y-115546356D01*
X160783997Y-115550290D01*
X160783997Y-115550291D01*
X160784005Y-115550356D01*
X160784938Y-115562193D01*
X160786327Y-115606389D01*
X160791144Y-115622968D01*
X160791978Y-115625839D01*
X160795987Y-115645200D01*
X160798526Y-115665297D01*
X160801445Y-115672668D01*
X160801445Y-115672670D01*
X160814804Y-115706412D01*
X160818649Y-115717642D01*
X160828771Y-115752483D01*
X160830982Y-115760093D01*
X160835015Y-115766912D01*
X160835017Y-115766917D01*
X160841293Y-115777528D01*
X160849988Y-115795276D01*
X160857448Y-115814117D01*
X160862110Y-115820533D01*
X160862110Y-115820534D01*
X160883436Y-115849887D01*
X160889952Y-115859807D01*
X160912458Y-115897862D01*
X160926779Y-115912183D01*
X160939619Y-115927216D01*
X160951528Y-115943607D01*
X160957634Y-115948658D01*
X160985605Y-115971798D01*
X160994384Y-115979788D01*
X161611843Y-116597247D01*
X161619387Y-116605537D01*
X161623500Y-116612018D01*
X161629277Y-116617443D01*
X161673167Y-116658658D01*
X161676009Y-116661413D01*
X161695730Y-116681134D01*
X161698925Y-116683612D01*
X161707947Y-116691318D01*
X161740179Y-116721586D01*
X161747128Y-116725406D01*
X161757932Y-116731346D01*
X161774456Y-116742199D01*
X161790459Y-116754613D01*
X161831043Y-116772176D01*
X161841673Y-116777383D01*
X161880440Y-116798695D01*
X161888117Y-116800666D01*
X161888122Y-116800668D01*
X161900058Y-116803732D01*
X161918766Y-116810137D01*
X161937355Y-116818181D01*
X161945183Y-116819421D01*
X161945190Y-116819423D01*
X161981024Y-116825099D01*
X161992644Y-116827505D01*
X162024459Y-116835673D01*
X162035470Y-116838500D01*
X162055724Y-116838500D01*
X162075434Y-116840051D01*
X162095443Y-116843220D01*
X162103335Y-116842474D01*
X162122080Y-116840702D01*
X162139462Y-116839059D01*
X162151319Y-116838500D01*
X169212233Y-116838500D01*
X169223416Y-116839027D01*
X169230909Y-116840702D01*
X169238835Y-116840453D01*
X169238836Y-116840453D01*
X169298986Y-116838562D01*
X169302945Y-116838500D01*
X169330856Y-116838500D01*
X169334791Y-116838003D01*
X169334856Y-116837995D01*
X169346693Y-116837062D01*
X169378951Y-116836048D01*
X169382970Y-116835922D01*
X169390889Y-116835673D01*
X169410343Y-116830021D01*
X169429700Y-116826013D01*
X169441930Y-116824468D01*
X169441931Y-116824468D01*
X169449797Y-116823474D01*
X169457168Y-116820555D01*
X169457170Y-116820555D01*
X169490912Y-116807196D01*
X169502142Y-116803351D01*
X169536983Y-116793229D01*
X169536984Y-116793229D01*
X169544593Y-116791018D01*
X169551412Y-116786985D01*
X169551417Y-116786983D01*
X169562028Y-116780707D01*
X169579776Y-116772012D01*
X169598617Y-116764552D01*
X169618987Y-116749753D01*
X169634387Y-116738564D01*
X169644307Y-116732048D01*
X169675535Y-116713580D01*
X169675538Y-116713578D01*
X169682362Y-116709542D01*
X169696683Y-116695221D01*
X169711717Y-116682380D01*
X169713432Y-116681134D01*
X169728107Y-116670472D01*
X169733157Y-116664368D01*
X169733162Y-116664363D01*
X169756293Y-116636402D01*
X169764283Y-116627621D01*
X170699258Y-115692647D01*
X170707537Y-115685113D01*
X170714018Y-115681000D01*
X170760644Y-115631348D01*
X170763398Y-115628507D01*
X170783135Y-115608770D01*
X170785615Y-115605573D01*
X170793320Y-115596551D01*
X170807633Y-115581309D01*
X170823586Y-115564321D01*
X170827405Y-115557375D01*
X170827407Y-115557372D01*
X170833348Y-115546566D01*
X170844199Y-115530047D01*
X170851758Y-115520301D01*
X170856614Y-115514041D01*
X170859759Y-115506772D01*
X170859762Y-115506768D01*
X170874174Y-115473463D01*
X170879391Y-115462813D01*
X170900695Y-115424060D01*
X170905733Y-115404437D01*
X170912137Y-115385734D01*
X170917033Y-115374420D01*
X170917033Y-115374419D01*
X170920181Y-115367145D01*
X170921420Y-115359322D01*
X170921423Y-115359312D01*
X170927099Y-115323476D01*
X170929505Y-115311856D01*
X170938528Y-115276711D01*
X170938528Y-115276710D01*
X170940500Y-115269030D01*
X170940500Y-115248776D01*
X170942051Y-115229065D01*
X170943980Y-115216886D01*
X170945220Y-115209057D01*
X170941059Y-115165038D01*
X170940500Y-115153181D01*
X170940500Y-112681341D01*
X172374888Y-112681341D01*
X172374983Y-112684971D01*
X172374983Y-112684972D01*
X172379755Y-112867217D01*
X172383970Y-113028171D01*
X172432856Y-113371660D01*
X172520897Y-113707253D01*
X172646927Y-114030503D01*
X172662204Y-114059357D01*
X172798012Y-114315853D01*
X172809275Y-114337126D01*
X172811325Y-114340109D01*
X172811327Y-114340112D01*
X173003733Y-114620064D01*
X173003739Y-114620071D01*
X173005790Y-114623056D01*
X173233866Y-114884505D01*
X173311096Y-114954779D01*
X173457881Y-115088342D01*
X173490481Y-115118006D01*
X173772233Y-115320466D01*
X174075388Y-115489200D01*
X174395928Y-115621972D01*
X174399422Y-115622967D01*
X174399424Y-115622968D01*
X174726103Y-115716025D01*
X174726108Y-115716026D01*
X174729604Y-115717022D01*
X174926304Y-115749233D01*
X175068412Y-115772504D01*
X175068419Y-115772505D01*
X175071993Y-115773090D01*
X175205178Y-115779371D01*
X175414931Y-115789263D01*
X175414932Y-115789263D01*
X175418558Y-115789434D01*
X175464236Y-115786320D01*
X175761073Y-115766084D01*
X175761081Y-115766083D01*
X175764704Y-115765836D01*
X175768279Y-115765173D01*
X175768282Y-115765173D01*
X176102279Y-115703270D01*
X176102283Y-115703269D01*
X176105844Y-115702609D01*
X176437456Y-115600592D01*
X176755145Y-115461136D01*
X176772382Y-115451064D01*
X177051560Y-115287926D01*
X177051562Y-115287925D01*
X177054700Y-115286091D01*
X177104399Y-115248776D01*
X177329244Y-115079958D01*
X177329248Y-115079955D01*
X177332151Y-115077775D01*
X177583819Y-114838950D01*
X177806370Y-114572783D01*
X177835007Y-114529188D01*
X177932305Y-114381064D01*
X177996853Y-114282799D01*
X178076894Y-114123655D01*
X178151117Y-113976080D01*
X178151120Y-113976072D01*
X178152744Y-113972844D01*
X178158848Y-113956165D01*
X178270729Y-113650437D01*
X178270730Y-113650433D01*
X178271977Y-113647026D01*
X178272822Y-113643504D01*
X178272825Y-113643496D01*
X178352124Y-113313191D01*
X178352125Y-113313187D01*
X178352971Y-113309662D01*
X178380238Y-113084340D01*
X178394316Y-112968004D01*
X178394316Y-112967997D01*
X178394652Y-112965225D01*
X178400599Y-112776000D01*
X178397873Y-112728715D01*
X178380836Y-112433246D01*
X178380835Y-112433241D01*
X178380627Y-112429626D01*
X178363626Y-112332214D01*
X178321600Y-112091415D01*
X178321598Y-112091408D01*
X178320976Y-112087842D01*
X178316281Y-112071989D01*
X178273290Y-111926856D01*
X178222437Y-111755180D01*
X178215841Y-111739716D01*
X178087740Y-111439386D01*
X178087738Y-111439383D01*
X178086316Y-111436048D01*
X178079403Y-111423927D01*
X177916208Y-111137816D01*
X177914417Y-111134676D01*
X177897797Y-111112050D01*
X177794071Y-110970845D01*
X177709018Y-110855060D01*
X177472842Y-110600904D01*
X177209019Y-110375578D01*
X176921047Y-110182069D01*
X176612741Y-110022940D01*
X176288189Y-109900302D01*
X176284668Y-109899418D01*
X176284663Y-109899416D01*
X176079197Y-109847807D01*
X175951692Y-109815780D01*
X175929476Y-109812855D01*
X175611315Y-109770968D01*
X175611307Y-109770967D01*
X175607711Y-109770494D01*
X175463045Y-109768221D01*
X175264446Y-109765101D01*
X175264442Y-109765101D01*
X175260804Y-109765044D01*
X175257190Y-109765405D01*
X175257184Y-109765405D01*
X175069396Y-109784149D01*
X174915569Y-109799503D01*
X174769593Y-109831331D01*
X174581711Y-109872296D01*
X174576583Y-109873414D01*
X174573156Y-109874587D01*
X174573150Y-109874589D01*
X174373137Y-109943069D01*
X174248339Y-109985797D01*
X173935188Y-110135163D01*
X173641279Y-110319532D01*
X173638443Y-110321804D01*
X173638436Y-110321809D01*
X173410239Y-110504629D01*
X173370509Y-110536459D01*
X173126466Y-110783071D01*
X173124225Y-110785929D01*
X172926225Y-111038449D01*
X172912386Y-111056098D01*
X172910493Y-111059187D01*
X172910491Y-111059190D01*
X172864233Y-111134676D01*
X172731105Y-111351921D01*
X172729580Y-111355206D01*
X172729578Y-111355210D01*
X172683364Y-111454770D01*
X172585027Y-111666620D01*
X172532016Y-111826909D01*
X172479108Y-111986889D01*
X172476087Y-111996023D01*
X172475351Y-111999578D01*
X172475350Y-111999581D01*
X172411538Y-112307717D01*
X172405730Y-112335764D01*
X172374888Y-112681341D01*
X170940500Y-112681341D01*
X170940500Y-107566095D01*
X170960502Y-107497974D01*
X170977405Y-107476999D01*
X171294501Y-107159904D01*
X171356813Y-107125879D01*
X171383596Y-107123000D01*
X171966934Y-107123000D01*
X172035055Y-107143002D01*
X172074367Y-107183165D01*
X172191741Y-107374702D01*
X172191745Y-107374708D01*
X172194324Y-107378916D01*
X172348531Y-107559469D01*
X172529084Y-107713676D01*
X172533292Y-107716255D01*
X172533298Y-107716259D01*
X172726584Y-107834705D01*
X172731537Y-107837740D01*
X172736107Y-107839633D01*
X172736111Y-107839635D01*
X172946333Y-107926711D01*
X172950906Y-107928605D01*
X173031109Y-107947860D01*
X173176976Y-107982880D01*
X173176982Y-107982881D01*
X173181789Y-107984035D01*
X173418500Y-108002665D01*
X173655211Y-107984035D01*
X173660018Y-107982881D01*
X173660024Y-107982880D01*
X173805891Y-107947860D01*
X173886094Y-107928605D01*
X173890667Y-107926711D01*
X174100889Y-107839635D01*
X174100893Y-107839633D01*
X174105463Y-107837740D01*
X174110416Y-107834705D01*
X174294056Y-107722170D01*
X177050660Y-107722170D01*
X177056387Y-107729820D01*
X177227542Y-107834705D01*
X177236337Y-107839187D01*
X177446488Y-107926234D01*
X177455873Y-107929283D01*
X177677054Y-107982385D01*
X177686801Y-107983928D01*
X177913570Y-108001775D01*
X177923430Y-108001775D01*
X178150199Y-107983928D01*
X178159946Y-107982385D01*
X178381127Y-107929283D01*
X178390512Y-107926234D01*
X178600663Y-107839187D01*
X178609458Y-107834705D01*
X178776945Y-107732068D01*
X178786407Y-107721610D01*
X178782624Y-107712834D01*
X177931312Y-106861522D01*
X177917368Y-106853908D01*
X177915535Y-106854039D01*
X177908920Y-106858290D01*
X177057420Y-107709790D01*
X177050660Y-107722170D01*
X174294056Y-107722170D01*
X174303702Y-107716259D01*
X174303708Y-107716255D01*
X174307916Y-107713676D01*
X174488469Y-107559469D01*
X174642676Y-107378916D01*
X174645255Y-107374708D01*
X174645259Y-107374702D01*
X174764154Y-107180683D01*
X174766740Y-107176463D01*
X174768729Y-107171663D01*
X174855711Y-106961667D01*
X174855712Y-106961665D01*
X174857605Y-106957094D01*
X174887702Y-106831730D01*
X174911880Y-106731024D01*
X174911881Y-106731018D01*
X174913035Y-106726211D01*
X174931277Y-106494430D01*
X176406225Y-106494430D01*
X176424072Y-106721199D01*
X176425615Y-106730946D01*
X176478717Y-106952127D01*
X176481766Y-106961512D01*
X176568813Y-107171663D01*
X176573295Y-107180458D01*
X176675932Y-107347945D01*
X176686390Y-107357407D01*
X176695166Y-107353624D01*
X177546478Y-106502312D01*
X177552856Y-106490632D01*
X178282908Y-106490632D01*
X178283039Y-106492465D01*
X178287290Y-106499080D01*
X179138790Y-107350580D01*
X179151170Y-107357340D01*
X179158820Y-107351613D01*
X179263705Y-107180458D01*
X179268187Y-107171663D01*
X179355234Y-106961512D01*
X179358283Y-106952127D01*
X179411385Y-106730946D01*
X179412928Y-106721199D01*
X179430775Y-106494430D01*
X179430775Y-106484570D01*
X179412928Y-106257801D01*
X179411385Y-106248054D01*
X179358283Y-106026873D01*
X179355234Y-106017488D01*
X179268187Y-105807337D01*
X179263705Y-105798542D01*
X179161068Y-105631055D01*
X179150610Y-105621593D01*
X179141834Y-105625376D01*
X178290522Y-106476688D01*
X178282908Y-106490632D01*
X177552856Y-106490632D01*
X177554092Y-106488368D01*
X177553961Y-106486535D01*
X177549710Y-106479920D01*
X176698210Y-105628420D01*
X176685830Y-105621660D01*
X176678180Y-105627387D01*
X176573295Y-105798542D01*
X176568813Y-105807337D01*
X176481766Y-106017488D01*
X176478717Y-106026873D01*
X176425615Y-106248054D01*
X176424072Y-106257801D01*
X176406225Y-106484570D01*
X176406225Y-106494430D01*
X174931277Y-106494430D01*
X174931665Y-106489500D01*
X174913035Y-106252789D01*
X174857605Y-106021906D01*
X174818307Y-105927031D01*
X174768635Y-105807111D01*
X174768633Y-105807107D01*
X174766740Y-105802537D01*
X174733421Y-105748165D01*
X174645259Y-105604298D01*
X174645255Y-105604292D01*
X174642676Y-105600084D01*
X174488469Y-105419531D01*
X174307916Y-105265324D01*
X174303708Y-105262745D01*
X174303702Y-105262741D01*
X174294970Y-105257390D01*
X177050593Y-105257390D01*
X177054376Y-105266166D01*
X177905688Y-106117478D01*
X177919632Y-106125092D01*
X177921465Y-106124961D01*
X177928080Y-106120710D01*
X178779580Y-105269210D01*
X178786340Y-105256830D01*
X178780613Y-105249180D01*
X178609458Y-105144295D01*
X178600663Y-105139813D01*
X178390512Y-105052766D01*
X178381127Y-105049717D01*
X178159946Y-104996615D01*
X178150199Y-104995072D01*
X177923430Y-104977225D01*
X177913570Y-104977225D01*
X177686801Y-104995072D01*
X177677054Y-104996615D01*
X177455873Y-105049717D01*
X177446488Y-105052766D01*
X177236337Y-105139813D01*
X177227542Y-105144295D01*
X177060055Y-105246932D01*
X177050593Y-105257390D01*
X174294970Y-105257390D01*
X174112165Y-105145367D01*
X174064534Y-105092719D01*
X174052000Y-105037934D01*
X174052000Y-101441066D01*
X174072002Y-101372945D01*
X174112165Y-101333633D01*
X174294056Y-101222170D01*
X177050660Y-101222170D01*
X177056387Y-101229820D01*
X177227542Y-101334705D01*
X177236337Y-101339187D01*
X177446488Y-101426234D01*
X177455873Y-101429283D01*
X177677054Y-101482385D01*
X177686801Y-101483928D01*
X177913570Y-101501775D01*
X177923430Y-101501775D01*
X178150199Y-101483928D01*
X178159946Y-101482385D01*
X178381127Y-101429283D01*
X178390512Y-101426234D01*
X178600663Y-101339187D01*
X178609458Y-101334705D01*
X178776945Y-101232068D01*
X178786407Y-101221610D01*
X178782624Y-101212834D01*
X177931312Y-100361522D01*
X177917368Y-100353908D01*
X177915535Y-100354039D01*
X177908920Y-100358290D01*
X177057420Y-101209790D01*
X177050660Y-101222170D01*
X174294056Y-101222170D01*
X174303702Y-101216259D01*
X174303708Y-101216255D01*
X174307916Y-101213676D01*
X174463882Y-101080468D01*
X174484713Y-101062677D01*
X174488469Y-101059469D01*
X174642676Y-100878916D01*
X174645255Y-100874708D01*
X174645259Y-100874702D01*
X174764154Y-100680683D01*
X174766740Y-100676463D01*
X174768729Y-100671663D01*
X174855711Y-100461667D01*
X174855712Y-100461665D01*
X174857605Y-100457094D01*
X174882587Y-100353035D01*
X174911880Y-100231024D01*
X174911881Y-100231018D01*
X174913035Y-100226211D01*
X174931277Y-99994430D01*
X176406225Y-99994430D01*
X176424072Y-100221199D01*
X176425615Y-100230946D01*
X176478717Y-100452127D01*
X176481766Y-100461512D01*
X176568813Y-100671663D01*
X176573295Y-100680458D01*
X176675932Y-100847945D01*
X176686390Y-100857407D01*
X176695166Y-100853624D01*
X177546478Y-100002312D01*
X177552856Y-99990632D01*
X178282908Y-99990632D01*
X178283039Y-99992465D01*
X178287290Y-99999080D01*
X179138790Y-100850580D01*
X179151170Y-100857340D01*
X179158820Y-100851613D01*
X179263705Y-100680458D01*
X179268187Y-100671663D01*
X179355234Y-100461512D01*
X179358283Y-100452127D01*
X179411385Y-100230946D01*
X179412928Y-100221199D01*
X179430775Y-99994430D01*
X179430775Y-99984570D01*
X179412928Y-99757801D01*
X179411385Y-99748054D01*
X179358283Y-99526873D01*
X179355234Y-99517488D01*
X179268187Y-99307337D01*
X179263705Y-99298542D01*
X179161068Y-99131055D01*
X179150610Y-99121593D01*
X179141834Y-99125376D01*
X178290522Y-99976688D01*
X178282908Y-99990632D01*
X177552856Y-99990632D01*
X177554092Y-99988368D01*
X177553961Y-99986535D01*
X177549710Y-99979920D01*
X176698210Y-99128420D01*
X176685830Y-99121660D01*
X176678180Y-99127387D01*
X176573295Y-99298542D01*
X176568813Y-99307337D01*
X176481766Y-99517488D01*
X176478717Y-99526873D01*
X176425615Y-99748054D01*
X176424072Y-99757801D01*
X176406225Y-99984570D01*
X176406225Y-99994430D01*
X174931277Y-99994430D01*
X174931665Y-99989500D01*
X174913035Y-99752789D01*
X174909143Y-99736574D01*
X174868199Y-99566033D01*
X174857605Y-99521906D01*
X174855711Y-99517333D01*
X174768635Y-99307111D01*
X174768633Y-99307107D01*
X174766740Y-99302537D01*
X174738799Y-99256942D01*
X174645259Y-99104298D01*
X174645255Y-99104292D01*
X174642676Y-99100084D01*
X174488469Y-98919531D01*
X174307916Y-98765324D01*
X174303708Y-98762745D01*
X174303702Y-98762741D01*
X174294970Y-98757390D01*
X177050593Y-98757390D01*
X177054376Y-98766166D01*
X177905688Y-99617478D01*
X177919632Y-99625092D01*
X177921465Y-99624961D01*
X177928080Y-99620710D01*
X178779580Y-98769210D01*
X178786340Y-98756830D01*
X178780613Y-98749180D01*
X178609458Y-98644295D01*
X178600663Y-98639813D01*
X178390512Y-98552766D01*
X178381127Y-98549717D01*
X178159946Y-98496615D01*
X178150199Y-98495072D01*
X177923430Y-98477225D01*
X177913570Y-98477225D01*
X177686801Y-98495072D01*
X177677054Y-98496615D01*
X177455873Y-98549717D01*
X177446488Y-98552766D01*
X177236337Y-98639813D01*
X177227542Y-98644295D01*
X177060055Y-98746932D01*
X177050593Y-98757390D01*
X174294970Y-98757390D01*
X174112165Y-98645367D01*
X174064534Y-98592719D01*
X174052000Y-98537934D01*
X174052000Y-98165946D01*
X174072002Y-98097825D01*
X174111697Y-98058802D01*
X174112840Y-98058095D01*
X174145348Y-98037978D01*
X174270305Y-97912803D01*
X174273102Y-97908265D01*
X174330353Y-97867676D01*
X174401276Y-97864446D01*
X174462687Y-97900072D01*
X174470062Y-97908568D01*
X174478098Y-97918707D01*
X174592829Y-98033239D01*
X174604240Y-98042251D01*
X174742243Y-98127316D01*
X174755424Y-98133463D01*
X174909710Y-98184638D01*
X174923086Y-98187505D01*
X175017438Y-98197172D01*
X175023854Y-98197500D01*
X175136385Y-98197500D01*
X175151624Y-98193025D01*
X175152829Y-98191635D01*
X175154500Y-98183952D01*
X175154500Y-98179384D01*
X175662500Y-98179384D01*
X175666975Y-98194623D01*
X175668365Y-98195828D01*
X175676048Y-98197499D01*
X175793095Y-98197499D01*
X175799614Y-98197162D01*
X175895206Y-98187243D01*
X175908600Y-98184351D01*
X176062784Y-98132912D01*
X176075962Y-98126739D01*
X176213807Y-98041437D01*
X176225208Y-98032401D01*
X176339739Y-97917671D01*
X176348751Y-97906260D01*
X176433816Y-97768257D01*
X176439963Y-97755076D01*
X176491138Y-97600790D01*
X176494005Y-97587414D01*
X176503672Y-97493062D01*
X176504000Y-97486646D01*
X176504000Y-97236615D01*
X176499525Y-97221376D01*
X176498135Y-97220171D01*
X176490452Y-97218500D01*
X175680615Y-97218500D01*
X175665376Y-97222975D01*
X175664171Y-97224365D01*
X175662500Y-97232048D01*
X175662500Y-98179384D01*
X175154500Y-98179384D01*
X175154500Y-96836500D01*
X175174502Y-96768379D01*
X175228158Y-96721886D01*
X175280500Y-96710500D01*
X176485884Y-96710500D01*
X176501123Y-96706025D01*
X176502328Y-96704635D01*
X176503999Y-96696952D01*
X176503999Y-96442405D01*
X176503662Y-96435886D01*
X176493743Y-96340294D01*
X176490851Y-96326900D01*
X176439412Y-96172716D01*
X176433239Y-96159538D01*
X176347937Y-96021693D01*
X176338901Y-96010292D01*
X176224171Y-95895761D01*
X176212760Y-95886749D01*
X176074752Y-95801680D01*
X176074331Y-95801484D01*
X176074092Y-95801273D01*
X176068525Y-95797842D01*
X176069113Y-95796889D01*
X176021047Y-95754565D01*
X176001588Y-95686287D01*
X176022132Y-95618328D01*
X176061280Y-95580148D01*
X176108561Y-95550890D01*
X176125625Y-95540331D01*
X176125629Y-95540328D01*
X176131849Y-95536479D01*
X176137845Y-95530473D01*
X176212823Y-95455363D01*
X176256806Y-95411303D01*
X176321479Y-95306384D01*
X176374251Y-95258891D01*
X176428739Y-95246500D01*
X179574430Y-95246500D01*
X179593380Y-95247933D01*
X179607615Y-95250099D01*
X179607619Y-95250099D01*
X179614849Y-95251199D01*
X179622141Y-95250606D01*
X179622144Y-95250606D01*
X179667518Y-95246915D01*
X179677733Y-95246500D01*
X179685793Y-95246500D01*
X179699083Y-95244951D01*
X179714007Y-95243211D01*
X179718382Y-95242778D01*
X179783839Y-95237454D01*
X179783842Y-95237453D01*
X179791137Y-95236860D01*
X179798101Y-95234604D01*
X179804060Y-95233413D01*
X179809915Y-95232029D01*
X179817181Y-95231182D01*
X179885827Y-95206265D01*
X179889955Y-95204848D01*
X179952436Y-95184607D01*
X179952438Y-95184606D01*
X179959399Y-95182351D01*
X179965654Y-95178555D01*
X179971128Y-95176049D01*
X179976558Y-95173330D01*
X179983437Y-95170833D01*
X180038175Y-95134945D01*
X180044476Y-95130814D01*
X180048180Y-95128477D01*
X180110607Y-95090595D01*
X180118984Y-95083197D01*
X180119008Y-95083224D01*
X180122000Y-95080571D01*
X180125233Y-95077868D01*
X180131352Y-95073856D01*
X180184628Y-95017617D01*
X180187006Y-95015175D01*
X180701911Y-94500270D01*
X180716323Y-94487884D01*
X180727918Y-94479351D01*
X180727923Y-94479346D01*
X180733818Y-94475008D01*
X180738557Y-94469430D01*
X180738560Y-94469427D01*
X180768035Y-94434732D01*
X180774965Y-94427216D01*
X180780660Y-94421521D01*
X180798281Y-94399249D01*
X180801072Y-94395845D01*
X180843591Y-94345797D01*
X180843592Y-94345795D01*
X180848333Y-94340215D01*
X180851661Y-94333699D01*
X180855028Y-94328650D01*
X180858195Y-94323521D01*
X180862734Y-94317784D01*
X180893655Y-94251625D01*
X180895561Y-94247725D01*
X180928769Y-94182692D01*
X180930509Y-94175579D01*
X180932611Y-94169928D01*
X180934523Y-94164179D01*
X180937622Y-94157550D01*
X180939221Y-94149865D01*
X180951666Y-94090031D01*
X180952487Y-94086083D01*
X180953457Y-94081799D01*
X180969473Y-94016345D01*
X180970808Y-94010890D01*
X180971500Y-93999736D01*
X180971536Y-93999738D01*
X180971775Y-93995745D01*
X180972149Y-93991553D01*
X180973640Y-93984385D01*
X180971546Y-93906979D01*
X180971500Y-93903572D01*
X180971500Y-75906941D01*
X180971999Y-75895740D01*
X180972150Y-75894050D01*
X180973640Y-75886885D01*
X180971546Y-75809479D01*
X180971500Y-75806072D01*
X180971500Y-66488070D01*
X180972933Y-66469120D01*
X180975099Y-66454885D01*
X180975099Y-66454881D01*
X180976199Y-66447651D01*
X180971915Y-66394982D01*
X180971500Y-66384767D01*
X180971500Y-66376707D01*
X180970871Y-66371305D01*
X180968211Y-66348497D01*
X180967778Y-66344121D01*
X180967522Y-66340970D01*
X180961860Y-66271364D01*
X180959605Y-66264403D01*
X180958418Y-66258463D01*
X180957029Y-66252588D01*
X180956182Y-66245319D01*
X180931264Y-66176670D01*
X180929847Y-66172542D01*
X180909607Y-66110064D01*
X180909606Y-66110062D01*
X180907351Y-66103101D01*
X180903555Y-66096846D01*
X180901049Y-66091372D01*
X180898330Y-66085942D01*
X180895833Y-66079063D01*
X180881794Y-66057650D01*
X180855814Y-66018024D01*
X180853467Y-66014305D01*
X180845533Y-66001230D01*
X180815595Y-65951893D01*
X180808197Y-65943516D01*
X180808224Y-65943492D01*
X180805571Y-65940500D01*
X180802868Y-65937267D01*
X180798856Y-65931148D01*
X180742617Y-65877872D01*
X180740175Y-65875494D01*
X179846770Y-64982089D01*
X179834384Y-64967677D01*
X179825851Y-64956082D01*
X179825846Y-64956077D01*
X179821508Y-64950182D01*
X179815930Y-64945443D01*
X179815927Y-64945440D01*
X179781232Y-64915965D01*
X179773716Y-64909035D01*
X179768021Y-64903340D01*
X179759274Y-64896420D01*
X179745749Y-64885719D01*
X179742345Y-64882928D01*
X179692297Y-64840409D01*
X179692295Y-64840408D01*
X179686715Y-64835667D01*
X179680199Y-64832339D01*
X179675150Y-64828972D01*
X179670021Y-64825805D01*
X179664284Y-64821266D01*
X179598125Y-64790345D01*
X179594225Y-64788439D01*
X179529192Y-64755231D01*
X179522084Y-64753492D01*
X179516441Y-64751393D01*
X179510678Y-64749476D01*
X179504050Y-64746378D01*
X179432583Y-64731513D01*
X179428299Y-64730543D01*
X179405074Y-64724860D01*
X179357390Y-64713192D01*
X179351788Y-64712844D01*
X179351785Y-64712844D01*
X179346236Y-64712500D01*
X179346238Y-64712464D01*
X179342245Y-64712225D01*
X179338053Y-64711851D01*
X179330885Y-64710360D01*
X179267120Y-64712085D01*
X179253479Y-64712454D01*
X179250072Y-64712500D01*
X177130820Y-64712500D01*
X177062699Y-64692498D01*
X177016206Y-64638842D01*
X177006102Y-64568568D01*
X177035596Y-64503988D01*
X177055167Y-64485740D01*
X177057248Y-64484178D01*
X177193164Y-64382129D01*
X177329244Y-64279958D01*
X177329248Y-64279955D01*
X177332151Y-64277775D01*
X177583819Y-64038950D01*
X177806370Y-63772783D01*
X177843013Y-63717000D01*
X177951462Y-63551901D01*
X177996853Y-63482799D01*
X178125446Y-63227121D01*
X178151117Y-63176080D01*
X178151120Y-63176072D01*
X178152744Y-63172844D01*
X178213747Y-63006146D01*
X178270729Y-62850437D01*
X178270730Y-62850433D01*
X178271977Y-62847026D01*
X178272822Y-62843504D01*
X178272825Y-62843496D01*
X178352124Y-62513191D01*
X178352125Y-62513187D01*
X178352971Y-62509662D01*
X178379931Y-62286876D01*
X178394316Y-62168004D01*
X178394316Y-62167997D01*
X178394652Y-62165225D01*
X178394815Y-62160060D01*
X178400511Y-61978797D01*
X178400599Y-61976000D01*
X178399596Y-61958600D01*
X178380836Y-61633246D01*
X178380835Y-61633241D01*
X178380627Y-61629626D01*
X178363149Y-61529479D01*
X178321600Y-61291415D01*
X178321598Y-61291408D01*
X178320976Y-61287842D01*
X178313727Y-61263368D01*
X178272745Y-61125016D01*
X178222437Y-60955180D01*
X178158758Y-60805886D01*
X178087740Y-60639386D01*
X178087738Y-60639383D01*
X178086316Y-60636048D01*
X178070740Y-60608739D01*
X177916208Y-60337816D01*
X177914417Y-60334676D01*
X177709018Y-60055060D01*
X177472842Y-59800904D01*
X177209019Y-59575578D01*
X176921047Y-59382069D01*
X176612741Y-59222940D01*
X176288189Y-59100302D01*
X176284668Y-59099418D01*
X176284663Y-59099416D01*
X176123378Y-59058904D01*
X175951692Y-59015780D01*
X175929476Y-59012855D01*
X175611315Y-58970968D01*
X175611307Y-58970967D01*
X175607711Y-58970494D01*
X175463045Y-58968221D01*
X175264446Y-58965101D01*
X175264442Y-58965101D01*
X175260804Y-58965044D01*
X175257190Y-58965405D01*
X175257184Y-58965405D01*
X175013843Y-58989694D01*
X174915569Y-58999503D01*
X174576583Y-59073414D01*
X174573156Y-59074587D01*
X174573150Y-59074589D01*
X174297554Y-59168947D01*
X174248339Y-59185797D01*
X173935188Y-59335163D01*
X173641279Y-59519532D01*
X173638443Y-59521804D01*
X173638436Y-59521809D01*
X173428499Y-59690000D01*
X173370509Y-59736459D01*
X173126466Y-59983071D01*
X173124225Y-59985929D01*
X173067732Y-60057978D01*
X172912386Y-60256098D01*
X172910493Y-60259187D01*
X172910491Y-60259190D01*
X172865025Y-60333384D01*
X172731105Y-60551921D01*
X172729580Y-60555206D01*
X172729578Y-60555210D01*
X172618675Y-60794131D01*
X172585027Y-60866620D01*
X172476087Y-61196023D01*
X172475351Y-61199578D01*
X172475350Y-61199581D01*
X172406967Y-61529792D01*
X172405730Y-61535764D01*
X172374888Y-61881341D01*
X172374983Y-61884971D01*
X172374983Y-61884972D01*
X172383663Y-62216452D01*
X172383970Y-62228171D01*
X172432856Y-62571660D01*
X172520897Y-62907253D01*
X172646927Y-63230503D01*
X172648624Y-63233708D01*
X172782113Y-63485825D01*
X172809275Y-63537126D01*
X172811325Y-63540109D01*
X172811327Y-63540112D01*
X173003733Y-63820064D01*
X173003739Y-63820071D01*
X173005790Y-63823056D01*
X173233866Y-64084505D01*
X173236551Y-64086948D01*
X173446268Y-64277775D01*
X173490481Y-64318006D01*
X173493433Y-64320127D01*
X173721733Y-64484178D01*
X173765381Y-64540172D01*
X173771827Y-64610876D01*
X173739024Y-64673840D01*
X173677388Y-64709074D01*
X173648207Y-64712500D01*
X170308070Y-64712500D01*
X170289120Y-64711067D01*
X170274885Y-64708901D01*
X170274881Y-64708901D01*
X170267651Y-64707801D01*
X170260359Y-64708394D01*
X170260356Y-64708394D01*
X170214982Y-64712085D01*
X170204767Y-64712500D01*
X159986835Y-64712500D01*
X159979033Y-64712258D01*
X159978501Y-64712225D01*
X159917702Y-64708453D01*
X159904740Y-64710680D01*
X159883404Y-64712500D01*
X157581000Y-64712500D01*
X157512879Y-64692498D01*
X157466386Y-64638842D01*
X157455000Y-64586500D01*
X157455000Y-63659590D01*
X157475002Y-63591469D01*
X157502518Y-63561086D01*
X157508348Y-63557478D01*
X157633305Y-63432303D01*
X157636102Y-63427765D01*
X157693353Y-63387176D01*
X157764276Y-63383946D01*
X157825687Y-63419572D01*
X157833062Y-63428068D01*
X157841098Y-63438207D01*
X157955829Y-63552739D01*
X157967240Y-63561751D01*
X158105243Y-63646816D01*
X158118424Y-63652963D01*
X158272710Y-63704138D01*
X158286086Y-63707005D01*
X158380438Y-63716672D01*
X158386854Y-63717000D01*
X158499385Y-63717000D01*
X158514624Y-63712525D01*
X158515829Y-63711135D01*
X158517500Y-63703452D01*
X158517500Y-63698884D01*
X159025500Y-63698884D01*
X159029975Y-63714123D01*
X159031365Y-63715328D01*
X159039048Y-63716999D01*
X159156095Y-63716999D01*
X159162614Y-63716662D01*
X159258206Y-63706743D01*
X159271600Y-63703851D01*
X159425784Y-63652412D01*
X159438962Y-63646239D01*
X159576807Y-63560937D01*
X159588208Y-63551901D01*
X159702739Y-63437171D01*
X159711751Y-63425760D01*
X159796816Y-63287757D01*
X159802963Y-63274576D01*
X159854138Y-63120290D01*
X159857005Y-63106914D01*
X159866672Y-63012562D01*
X159867000Y-63006146D01*
X159867000Y-62756115D01*
X159862525Y-62740876D01*
X159861135Y-62739671D01*
X159853452Y-62738000D01*
X159043615Y-62738000D01*
X159028376Y-62742475D01*
X159027171Y-62743865D01*
X159025500Y-62751548D01*
X159025500Y-63698884D01*
X158517500Y-63698884D01*
X158517500Y-62211885D01*
X159025500Y-62211885D01*
X159029975Y-62227124D01*
X159031365Y-62228329D01*
X159039048Y-62230000D01*
X159848884Y-62230000D01*
X159864123Y-62225525D01*
X159865328Y-62224135D01*
X159866999Y-62216452D01*
X159866999Y-61961905D01*
X159866662Y-61955386D01*
X159856743Y-61859794D01*
X159853851Y-61846400D01*
X159802412Y-61692216D01*
X159796239Y-61679038D01*
X159710937Y-61541193D01*
X159701901Y-61529792D01*
X159587171Y-61415261D01*
X159575760Y-61406249D01*
X159437757Y-61321184D01*
X159424576Y-61315037D01*
X159270290Y-61263862D01*
X159256914Y-61260995D01*
X159162562Y-61251328D01*
X159156145Y-61251000D01*
X159043615Y-61251000D01*
X159028376Y-61255475D01*
X159027171Y-61256865D01*
X159025500Y-61264548D01*
X159025500Y-62211885D01*
X158517500Y-62211885D01*
X158517500Y-61269116D01*
X158513025Y-61253877D01*
X158511635Y-61252672D01*
X158503952Y-61251001D01*
X158386905Y-61251001D01*
X158380386Y-61251338D01*
X158284794Y-61261257D01*
X158271400Y-61264149D01*
X158117216Y-61315588D01*
X158104038Y-61321761D01*
X157966193Y-61407063D01*
X157954792Y-61416099D01*
X157840262Y-61530828D01*
X157833206Y-61539762D01*
X157775288Y-61580823D01*
X157704365Y-61584053D01*
X157642954Y-61548426D01*
X157636154Y-61540593D01*
X157632478Y-61534652D01*
X157507303Y-61409695D01*
X157501072Y-61405854D01*
X157362968Y-61320725D01*
X157362966Y-61320724D01*
X157356738Y-61316885D01*
X157258678Y-61284360D01*
X157195392Y-61263369D01*
X157195390Y-61263369D01*
X157188861Y-61261203D01*
X157189219Y-61260124D01*
X157132670Y-61229463D01*
X157098460Y-61167252D01*
X157095500Y-61140103D01*
X157095500Y-60920500D01*
X157115502Y-60852379D01*
X157169158Y-60805886D01*
X157221500Y-60794500D01*
X157235134Y-60794500D01*
X157297316Y-60787745D01*
X157433705Y-60736615D01*
X157550261Y-60649261D01*
X157637615Y-60532705D01*
X157681798Y-60414848D01*
X157724440Y-60358084D01*
X157791001Y-60333384D01*
X157860350Y-60348592D01*
X157895017Y-60376580D01*
X157920218Y-60405673D01*
X157927580Y-60412883D01*
X158091434Y-60548916D01*
X158099881Y-60554831D01*
X158283756Y-60662279D01*
X158293042Y-60666729D01*
X158492001Y-60742703D01*
X158501899Y-60745579D01*
X158605250Y-60766606D01*
X158619299Y-60765410D01*
X158623000Y-60755065D01*
X158623000Y-60754517D01*
X159131000Y-60754517D01*
X159135064Y-60768359D01*
X159148478Y-60770393D01*
X159155184Y-60769534D01*
X159165262Y-60767392D01*
X159369255Y-60706191D01*
X159378842Y-60702433D01*
X159570095Y-60608739D01*
X159578945Y-60603464D01*
X159752328Y-60479792D01*
X159760200Y-60473139D01*
X159911052Y-60322812D01*
X159917730Y-60314965D01*
X160042003Y-60142020D01*
X160047313Y-60133183D01*
X160141670Y-59942267D01*
X160145469Y-59932672D01*
X160207377Y-59728910D01*
X160209555Y-59718837D01*
X160210986Y-59707962D01*
X160208775Y-59693778D01*
X160195617Y-59690000D01*
X159149115Y-59690000D01*
X159133876Y-59694475D01*
X159132671Y-59695865D01*
X159131000Y-59703548D01*
X159131000Y-60754517D01*
X158623000Y-60754517D01*
X158623000Y-59163885D01*
X159131000Y-59163885D01*
X159135475Y-59179124D01*
X159136865Y-59180329D01*
X159144548Y-59182000D01*
X160195344Y-59182000D01*
X160208875Y-59178027D01*
X160210180Y-59168947D01*
X160168214Y-59001875D01*
X160164894Y-58992124D01*
X160079972Y-58796814D01*
X160075105Y-58787739D01*
X159959426Y-58608926D01*
X159953136Y-58600757D01*
X159809806Y-58443240D01*
X159802273Y-58436215D01*
X159635139Y-58304222D01*
X159626552Y-58298517D01*
X159440117Y-58195599D01*
X159430705Y-58191369D01*
X159229959Y-58120280D01*
X159219988Y-58117646D01*
X159148837Y-58104972D01*
X159135540Y-58106432D01*
X159131000Y-58120989D01*
X159131000Y-59163885D01*
X158623000Y-59163885D01*
X158623000Y-58119102D01*
X158619082Y-58105758D01*
X158604806Y-58103771D01*
X158566324Y-58109660D01*
X158556288Y-58112051D01*
X158353868Y-58178212D01*
X158344359Y-58182209D01*
X158155463Y-58280542D01*
X158146738Y-58286036D01*
X157976433Y-58413905D01*
X157968726Y-58420748D01*
X157891478Y-58501584D01*
X157829954Y-58537014D01*
X157759042Y-58533557D01*
X157701255Y-58492311D01*
X157682402Y-58458763D01*
X157640767Y-58347703D01*
X157637615Y-58339295D01*
X157550261Y-58222739D01*
X157433705Y-58135385D01*
X157297316Y-58084255D01*
X157235134Y-58077500D01*
X155438866Y-58077500D01*
X155376684Y-58084255D01*
X155240295Y-58135385D01*
X155123739Y-58222739D01*
X155036385Y-58339295D01*
X154985255Y-58475684D01*
X154978500Y-58537866D01*
X154978500Y-60334134D01*
X154985255Y-60396316D01*
X155036385Y-60532705D01*
X155123739Y-60649261D01*
X155240295Y-60736615D01*
X155376684Y-60787745D01*
X155438866Y-60794500D01*
X155452500Y-60794500D01*
X155520621Y-60814502D01*
X155567114Y-60868158D01*
X155578500Y-60920500D01*
X155578500Y-62057430D01*
X155577067Y-62076380D01*
X155573801Y-62097849D01*
X155574394Y-62105141D01*
X155574394Y-62105144D01*
X155578085Y-62150518D01*
X155578500Y-62160733D01*
X155578500Y-62168793D01*
X155578925Y-62172437D01*
X155581789Y-62197007D01*
X155582222Y-62201382D01*
X155585848Y-62245955D01*
X155588140Y-62274137D01*
X155590396Y-62281101D01*
X155591583Y-62287040D01*
X155592970Y-62292908D01*
X155593818Y-62300181D01*
X155596317Y-62307066D01*
X155597120Y-62310462D01*
X155600500Y-62339451D01*
X155600500Y-63009400D01*
X155600837Y-63012646D01*
X155600837Y-63012650D01*
X155610618Y-63106914D01*
X155611474Y-63115166D01*
X155613655Y-63121702D01*
X155613655Y-63121704D01*
X155648825Y-63227121D01*
X155667450Y-63282946D01*
X155760522Y-63433348D01*
X155885697Y-63558305D01*
X155890493Y-63561261D01*
X155931155Y-63618614D01*
X155938000Y-63659578D01*
X155938000Y-64586500D01*
X155917998Y-64654621D01*
X155864342Y-64701114D01*
X155812000Y-64712500D01*
X152940550Y-64712500D01*
X152882842Y-64697736D01*
X152879705Y-64695385D01*
X152743316Y-64644255D01*
X152681134Y-64637500D01*
X151524866Y-64637500D01*
X151462684Y-64644255D01*
X151326295Y-64695385D01*
X151319119Y-64700763D01*
X151319112Y-64700767D01*
X151308652Y-64708607D01*
X151269070Y-64727129D01*
X151269320Y-64727818D01*
X151269319Y-64727818D01*
X151200673Y-64752735D01*
X151196545Y-64754152D01*
X151134064Y-64774393D01*
X151134062Y-64774394D01*
X151127101Y-64776649D01*
X151120846Y-64780445D01*
X151115372Y-64782951D01*
X151109942Y-64785670D01*
X151103063Y-64788167D01*
X151042016Y-64828191D01*
X151038327Y-64830518D01*
X150994220Y-64857283D01*
X150925608Y-64875522D01*
X150858025Y-64853770D01*
X150828032Y-64825131D01*
X150796261Y-64782739D01*
X150679705Y-64695385D01*
X150543316Y-64644255D01*
X150481134Y-64637500D01*
X149324866Y-64637500D01*
X149262684Y-64644255D01*
X149126295Y-64695385D01*
X149123158Y-64697736D01*
X149065450Y-64712500D01*
X146773835Y-64712500D01*
X146766033Y-64712258D01*
X146765501Y-64712225D01*
X146704702Y-64708453D01*
X146691740Y-64710680D01*
X146670404Y-64712500D01*
X145212371Y-64712500D01*
X145144250Y-64692498D01*
X145123276Y-64675595D01*
X144918905Y-64471224D01*
X144884879Y-64408912D01*
X144882000Y-64382129D01*
X144882000Y-63659590D01*
X144902002Y-63591469D01*
X144929518Y-63561086D01*
X144935348Y-63557478D01*
X145060305Y-63432303D01*
X145063102Y-63427765D01*
X145120353Y-63387176D01*
X145191276Y-63383946D01*
X145252687Y-63419572D01*
X145260062Y-63428068D01*
X145268098Y-63438207D01*
X145382829Y-63552739D01*
X145394240Y-63561751D01*
X145532243Y-63646816D01*
X145545424Y-63652963D01*
X145699710Y-63704138D01*
X145713086Y-63707005D01*
X145807438Y-63716672D01*
X145813854Y-63717000D01*
X145926385Y-63717000D01*
X145941624Y-63712525D01*
X145942829Y-63711135D01*
X145944500Y-63703452D01*
X145944500Y-63698884D01*
X146452500Y-63698884D01*
X146456975Y-63714123D01*
X146458365Y-63715328D01*
X146466048Y-63716999D01*
X146583095Y-63716999D01*
X146589614Y-63716662D01*
X146685206Y-63706743D01*
X146698600Y-63703851D01*
X146852784Y-63652412D01*
X146865962Y-63646239D01*
X147003807Y-63560937D01*
X147015208Y-63551901D01*
X147129739Y-63437171D01*
X147138751Y-63425760D01*
X147223816Y-63287757D01*
X147229963Y-63274576D01*
X147281138Y-63120290D01*
X147284005Y-63106914D01*
X147293672Y-63012562D01*
X147294000Y-63006146D01*
X147294000Y-62756115D01*
X147289525Y-62740876D01*
X147288135Y-62739671D01*
X147280452Y-62738000D01*
X146470615Y-62738000D01*
X146455376Y-62742475D01*
X146454171Y-62743865D01*
X146452500Y-62751548D01*
X146452500Y-63698884D01*
X145944500Y-63698884D01*
X145944500Y-62211885D01*
X146452500Y-62211885D01*
X146456975Y-62227124D01*
X146458365Y-62228329D01*
X146466048Y-62230000D01*
X147275884Y-62230000D01*
X147291123Y-62225525D01*
X147292328Y-62224135D01*
X147293999Y-62216452D01*
X147293999Y-61961905D01*
X147293662Y-61955386D01*
X147283743Y-61859794D01*
X147280851Y-61846400D01*
X147229412Y-61692216D01*
X147223239Y-61679038D01*
X147137937Y-61541193D01*
X147128901Y-61529792D01*
X147014171Y-61415261D01*
X147002760Y-61406249D01*
X146864757Y-61321184D01*
X146851576Y-61315037D01*
X146697290Y-61263862D01*
X146683914Y-61260995D01*
X146589562Y-61251328D01*
X146583145Y-61251000D01*
X146470615Y-61251000D01*
X146455376Y-61255475D01*
X146454171Y-61256865D01*
X146452500Y-61264548D01*
X146452500Y-62211885D01*
X145944500Y-62211885D01*
X145944500Y-61269116D01*
X145940025Y-61253877D01*
X145938635Y-61252672D01*
X145930952Y-61251001D01*
X145813905Y-61251001D01*
X145807386Y-61251338D01*
X145711794Y-61261257D01*
X145698400Y-61264149D01*
X145544216Y-61315588D01*
X145531038Y-61321761D01*
X145393193Y-61407063D01*
X145381792Y-61416099D01*
X145267262Y-61530828D01*
X145260206Y-61539762D01*
X145202288Y-61580823D01*
X145131365Y-61584053D01*
X145069954Y-61548426D01*
X145063154Y-61540593D01*
X145059478Y-61534652D01*
X144934303Y-61409695D01*
X144928072Y-61405854D01*
X144789968Y-61320725D01*
X144789966Y-61320724D01*
X144783738Y-61316885D01*
X144685678Y-61284360D01*
X144622389Y-61263368D01*
X144622387Y-61263368D01*
X144615861Y-61261203D01*
X144609025Y-61260503D01*
X144609022Y-61260502D01*
X144511400Y-61250500D01*
X144511492Y-61249598D01*
X144448065Y-61227404D01*
X144404367Y-61171448D01*
X144395500Y-61125016D01*
X144395500Y-60920500D01*
X144415502Y-60852379D01*
X144469158Y-60805886D01*
X144521500Y-60794500D01*
X144535134Y-60794500D01*
X144597316Y-60787745D01*
X144733705Y-60736615D01*
X144850261Y-60649261D01*
X144937615Y-60532705D01*
X144981798Y-60414848D01*
X145024440Y-60358084D01*
X145091001Y-60333384D01*
X145160350Y-60348592D01*
X145195017Y-60376580D01*
X145220218Y-60405673D01*
X145227580Y-60412883D01*
X145391434Y-60548916D01*
X145399881Y-60554831D01*
X145583756Y-60662279D01*
X145593042Y-60666729D01*
X145792001Y-60742703D01*
X145801899Y-60745579D01*
X145905250Y-60766606D01*
X145919299Y-60765410D01*
X145923000Y-60755065D01*
X145923000Y-60754517D01*
X146431000Y-60754517D01*
X146435064Y-60768359D01*
X146448478Y-60770393D01*
X146455184Y-60769534D01*
X146465262Y-60767392D01*
X146669255Y-60706191D01*
X146678842Y-60702433D01*
X146870095Y-60608739D01*
X146878945Y-60603464D01*
X147052328Y-60479792D01*
X147060200Y-60473139D01*
X147211052Y-60322812D01*
X147217730Y-60314965D01*
X147342003Y-60142020D01*
X147347313Y-60133183D01*
X147441670Y-59942267D01*
X147445469Y-59932672D01*
X147507377Y-59728910D01*
X147509555Y-59718837D01*
X147510986Y-59707962D01*
X147508775Y-59693778D01*
X147495617Y-59690000D01*
X146449115Y-59690000D01*
X146433876Y-59694475D01*
X146432671Y-59695865D01*
X146431000Y-59703548D01*
X146431000Y-60754517D01*
X145923000Y-60754517D01*
X145923000Y-59163885D01*
X146431000Y-59163885D01*
X146435475Y-59179124D01*
X146436865Y-59180329D01*
X146444548Y-59182000D01*
X147495344Y-59182000D01*
X147508875Y-59178027D01*
X147510180Y-59168947D01*
X147468214Y-59001875D01*
X147464894Y-58992124D01*
X147379972Y-58796814D01*
X147375105Y-58787739D01*
X147259426Y-58608926D01*
X147253136Y-58600757D01*
X147109806Y-58443240D01*
X147102273Y-58436215D01*
X146935139Y-58304222D01*
X146926552Y-58298517D01*
X146740117Y-58195599D01*
X146730705Y-58191369D01*
X146529959Y-58120280D01*
X146519988Y-58117646D01*
X146448837Y-58104972D01*
X146435540Y-58106432D01*
X146431000Y-58120989D01*
X146431000Y-59163885D01*
X145923000Y-59163885D01*
X145923000Y-58119102D01*
X145919082Y-58105758D01*
X145904806Y-58103771D01*
X145866324Y-58109660D01*
X145856288Y-58112051D01*
X145653868Y-58178212D01*
X145644359Y-58182209D01*
X145455463Y-58280542D01*
X145446738Y-58286036D01*
X145276433Y-58413905D01*
X145268726Y-58420748D01*
X145191478Y-58501584D01*
X145129954Y-58537014D01*
X145059042Y-58533557D01*
X145001255Y-58492311D01*
X144982402Y-58458763D01*
X144940767Y-58347703D01*
X144937615Y-58339295D01*
X144850261Y-58222739D01*
X144733705Y-58135385D01*
X144597316Y-58084255D01*
X144535134Y-58077500D01*
X142738866Y-58077500D01*
X142676684Y-58084255D01*
X142540295Y-58135385D01*
X142423739Y-58222739D01*
X142336385Y-58339295D01*
X142285255Y-58475684D01*
X142278500Y-58537866D01*
X142278500Y-60334134D01*
X142285255Y-60396316D01*
X142336385Y-60532705D01*
X142423739Y-60649261D01*
X142540295Y-60736615D01*
X142676684Y-60787745D01*
X142738866Y-60794500D01*
X142752500Y-60794500D01*
X142820621Y-60814502D01*
X142867114Y-60868158D01*
X142878500Y-60920500D01*
X142878500Y-61930430D01*
X142877067Y-61949380D01*
X142875162Y-61961905D01*
X142873801Y-61970849D01*
X142874394Y-61978141D01*
X142874394Y-61978144D01*
X142878085Y-62023518D01*
X142878500Y-62033733D01*
X142878500Y-62041793D01*
X142878925Y-62045437D01*
X142881789Y-62070007D01*
X142882222Y-62074382D01*
X142883543Y-62090615D01*
X142888140Y-62147137D01*
X142890396Y-62154101D01*
X142891587Y-62160060D01*
X142892971Y-62165915D01*
X142893818Y-62173181D01*
X142918735Y-62241827D01*
X142920152Y-62245955D01*
X142926918Y-62266839D01*
X142942649Y-62315399D01*
X142946445Y-62321654D01*
X142948951Y-62327128D01*
X142951670Y-62332558D01*
X142954167Y-62339437D01*
X142958180Y-62345557D01*
X142958180Y-62345558D01*
X142994186Y-62400476D01*
X142996533Y-62404196D01*
X143009219Y-62425102D01*
X143027500Y-62490467D01*
X143027500Y-63009400D01*
X143027837Y-63012646D01*
X143027837Y-63012650D01*
X143037618Y-63106914D01*
X143038474Y-63115166D01*
X143040655Y-63121702D01*
X143040655Y-63121704D01*
X143075825Y-63227121D01*
X143094450Y-63282946D01*
X143187522Y-63433348D01*
X143312697Y-63558305D01*
X143317493Y-63561261D01*
X143358155Y-63618614D01*
X143365000Y-63659578D01*
X143365000Y-64681430D01*
X143363567Y-64700380D01*
X143363476Y-64700978D01*
X143361415Y-64714527D01*
X143360301Y-64721849D01*
X143360894Y-64729141D01*
X143360894Y-64729144D01*
X143364585Y-64774518D01*
X143365000Y-64784733D01*
X143365000Y-64792793D01*
X143365425Y-64796437D01*
X143368289Y-64821007D01*
X143368722Y-64825382D01*
X143373519Y-64884350D01*
X143374640Y-64898137D01*
X143376896Y-64905101D01*
X143378087Y-64911060D01*
X143379471Y-64916915D01*
X143380318Y-64924181D01*
X143405235Y-64992827D01*
X143406652Y-64996955D01*
X143429149Y-65066399D01*
X143432945Y-65072654D01*
X143435451Y-65078128D01*
X143438170Y-65083558D01*
X143440667Y-65090437D01*
X143444680Y-65096557D01*
X143444680Y-65096558D01*
X143480686Y-65151476D01*
X143483023Y-65155180D01*
X143520905Y-65217607D01*
X143524621Y-65221815D01*
X143524622Y-65221816D01*
X143528303Y-65225984D01*
X143528276Y-65226008D01*
X143530929Y-65229000D01*
X143533632Y-65232233D01*
X143537644Y-65238352D01*
X143542956Y-65243384D01*
X143593883Y-65291628D01*
X143596325Y-65294006D01*
X144262230Y-65959911D01*
X144274616Y-65974323D01*
X144283149Y-65985918D01*
X144283154Y-65985923D01*
X144287492Y-65991818D01*
X144293070Y-65996557D01*
X144293073Y-65996560D01*
X144327768Y-66026035D01*
X144335284Y-66032965D01*
X144340979Y-66038660D01*
X144343861Y-66040940D01*
X144363251Y-66056281D01*
X144366655Y-66059072D01*
X144410074Y-66095959D01*
X144422285Y-66106333D01*
X144428801Y-66109661D01*
X144433850Y-66113028D01*
X144438979Y-66116195D01*
X144444716Y-66120734D01*
X144510875Y-66151655D01*
X144514769Y-66153558D01*
X144579808Y-66186769D01*
X144586916Y-66188508D01*
X144592559Y-66190607D01*
X144598322Y-66192524D01*
X144604950Y-66195622D01*
X144652739Y-66205562D01*
X144676412Y-66210486D01*
X144680696Y-66211456D01*
X144751610Y-66228808D01*
X144757212Y-66229156D01*
X144757215Y-66229156D01*
X144762764Y-66229500D01*
X144762762Y-66229536D01*
X144766755Y-66229775D01*
X144770947Y-66230149D01*
X144778115Y-66231640D01*
X144855520Y-66229546D01*
X144858928Y-66229500D01*
X145861500Y-66229500D01*
X145929621Y-66249502D01*
X145976114Y-66303158D01*
X145987500Y-66355500D01*
X145987500Y-66922930D01*
X145986067Y-66941880D01*
X145982801Y-66963349D01*
X145983394Y-66970641D01*
X145983394Y-66970644D01*
X145987085Y-67016018D01*
X145987500Y-67026233D01*
X145987500Y-67034293D01*
X145987925Y-67037937D01*
X145990789Y-67062507D01*
X145991222Y-67066882D01*
X145995266Y-67116594D01*
X145997140Y-67139637D01*
X145999396Y-67146601D01*
X146000587Y-67152560D01*
X146001971Y-67158415D01*
X146002818Y-67165681D01*
X146027735Y-67234327D01*
X146029152Y-67238455D01*
X146051649Y-67307899D01*
X146055445Y-67314154D01*
X146057951Y-67319628D01*
X146060670Y-67325058D01*
X146063167Y-67331937D01*
X146067180Y-67338057D01*
X146067180Y-67338058D01*
X146103186Y-67392976D01*
X146105523Y-67396680D01*
X146143405Y-67459107D01*
X146147121Y-67463315D01*
X146147122Y-67463316D01*
X146150803Y-67467484D01*
X146150776Y-67467508D01*
X146153429Y-67470500D01*
X146156132Y-67473733D01*
X146160144Y-67479852D01*
X146165456Y-67484884D01*
X146216383Y-67533128D01*
X146218825Y-67535506D01*
X146543230Y-67859911D01*
X146555616Y-67874323D01*
X146564149Y-67885918D01*
X146564154Y-67885923D01*
X146568492Y-67891818D01*
X146574070Y-67896557D01*
X146574073Y-67896560D01*
X146608768Y-67926035D01*
X146616284Y-67932965D01*
X146621979Y-67938660D01*
X146624861Y-67940940D01*
X146644251Y-67956281D01*
X146647655Y-67959072D01*
X146697703Y-68001591D01*
X146703285Y-68006333D01*
X146709801Y-68009661D01*
X146714850Y-68013028D01*
X146719979Y-68016195D01*
X146725716Y-68020734D01*
X146791875Y-68051655D01*
X146795769Y-68053558D01*
X146860808Y-68086769D01*
X146867916Y-68088508D01*
X146873559Y-68090607D01*
X146879322Y-68092524D01*
X146885950Y-68095622D01*
X146893112Y-68097112D01*
X146893113Y-68097112D01*
X146957412Y-68110486D01*
X146961696Y-68111456D01*
X147032610Y-68128808D01*
X147038212Y-68129156D01*
X147038215Y-68129156D01*
X147043764Y-68129500D01*
X147043762Y-68129536D01*
X147047755Y-68129775D01*
X147051947Y-68130149D01*
X147059115Y-68131640D01*
X147136520Y-68129546D01*
X147139928Y-68129500D01*
X149065450Y-68129500D01*
X149123158Y-68144264D01*
X149126295Y-68146615D01*
X149262684Y-68197745D01*
X149324866Y-68204500D01*
X150118500Y-68204500D01*
X150186621Y-68224502D01*
X150233114Y-68278158D01*
X150244500Y-68330500D01*
X150244500Y-68721629D01*
X150224498Y-68789750D01*
X150207595Y-68810724D01*
X149836724Y-69181595D01*
X149774412Y-69215621D01*
X149747629Y-69218500D01*
X140783070Y-69218500D01*
X140764120Y-69217067D01*
X140749885Y-69214901D01*
X140749881Y-69214901D01*
X140742651Y-69213801D01*
X140735359Y-69214394D01*
X140735356Y-69214394D01*
X140689982Y-69218085D01*
X140679767Y-69218500D01*
X140671707Y-69218500D01*
X140668073Y-69218924D01*
X140668067Y-69218924D01*
X140655042Y-69220443D01*
X140643480Y-69221791D01*
X140639132Y-69222221D01*
X140566364Y-69228140D01*
X140559403Y-69230395D01*
X140553463Y-69231582D01*
X140547588Y-69232971D01*
X140540319Y-69233818D01*
X140471670Y-69258736D01*
X140467542Y-69260153D01*
X140405064Y-69280393D01*
X140405062Y-69280394D01*
X140398101Y-69282649D01*
X140391846Y-69286445D01*
X140386372Y-69288951D01*
X140380942Y-69291670D01*
X140374063Y-69294167D01*
X140367943Y-69298180D01*
X140367942Y-69298180D01*
X140313024Y-69334186D01*
X140309320Y-69336523D01*
X140246893Y-69374405D01*
X140238516Y-69381803D01*
X140238492Y-69381776D01*
X140235500Y-69384429D01*
X140232267Y-69387132D01*
X140226148Y-69391144D01*
X140197708Y-69421166D01*
X140172872Y-69447383D01*
X140170494Y-69449825D01*
X139465089Y-70155230D01*
X139450677Y-70167616D01*
X139439082Y-70176149D01*
X139439077Y-70176154D01*
X139433182Y-70180492D01*
X139428443Y-70186070D01*
X139428440Y-70186073D01*
X139398965Y-70220768D01*
X139392035Y-70228284D01*
X139386340Y-70233979D01*
X139384060Y-70236861D01*
X139368719Y-70256251D01*
X139365928Y-70259655D01*
X139333379Y-70297968D01*
X139318667Y-70315285D01*
X139315339Y-70321801D01*
X139311972Y-70326850D01*
X139308805Y-70331979D01*
X139304266Y-70337716D01*
X139273345Y-70403875D01*
X139271442Y-70407769D01*
X139238231Y-70472808D01*
X139236492Y-70479916D01*
X139234393Y-70485559D01*
X139232476Y-70491322D01*
X139229378Y-70497950D01*
X139216983Y-70557544D01*
X139214514Y-70569412D01*
X139213544Y-70573696D01*
X139196192Y-70644610D01*
X139195500Y-70655764D01*
X139195464Y-70655762D01*
X139195225Y-70659755D01*
X139194851Y-70663947D01*
X139193360Y-70671115D01*
X139193558Y-70678432D01*
X139195454Y-70748521D01*
X139195500Y-70751928D01*
X139195500Y-78864219D01*
X139175498Y-78932340D01*
X139135803Y-78971363D01*
X139004652Y-79052522D01*
X138999479Y-79057704D01*
X138961420Y-79095829D01*
X138879695Y-79177697D01*
X138876739Y-79182493D01*
X138819386Y-79223155D01*
X138778422Y-79230000D01*
X138716590Y-79230000D01*
X138648469Y-79209998D01*
X138618086Y-79182482D01*
X138614478Y-79176652D01*
X138489303Y-79051695D01*
X138483072Y-79047854D01*
X138344968Y-78962725D01*
X138344966Y-78962724D01*
X138338738Y-78958885D01*
X138258707Y-78932340D01*
X138177389Y-78905368D01*
X138177387Y-78905368D01*
X138170861Y-78903203D01*
X138164025Y-78902503D01*
X138164022Y-78902502D01*
X138120969Y-78898091D01*
X138066400Y-78892500D01*
X137015600Y-78892500D01*
X137012354Y-78892837D01*
X137012350Y-78892837D01*
X136916692Y-78902762D01*
X136916688Y-78902763D01*
X136909834Y-78903474D01*
X136903298Y-78905655D01*
X136903296Y-78905655D01*
X136823312Y-78932340D01*
X136742054Y-78959450D01*
X136591652Y-79052522D01*
X136586479Y-79057704D01*
X136548420Y-79095829D01*
X136466695Y-79177697D01*
X136463739Y-79182493D01*
X136406386Y-79223155D01*
X136365422Y-79230000D01*
X136105570Y-79230000D01*
X136086620Y-79228567D01*
X136072385Y-79226401D01*
X136072381Y-79226401D01*
X136065151Y-79225301D01*
X136057859Y-79225894D01*
X136057856Y-79225894D01*
X136012482Y-79229585D01*
X136002267Y-79230000D01*
X135994207Y-79230000D01*
X135980917Y-79231549D01*
X135965993Y-79233289D01*
X135961618Y-79233722D01*
X135896161Y-79239046D01*
X135896158Y-79239047D01*
X135888863Y-79239640D01*
X135881899Y-79241896D01*
X135875940Y-79243087D01*
X135870085Y-79244471D01*
X135862819Y-79245318D01*
X135794173Y-79270235D01*
X135790045Y-79271652D01*
X135727564Y-79291893D01*
X135727562Y-79291894D01*
X135720601Y-79294149D01*
X135714346Y-79297945D01*
X135708872Y-79300451D01*
X135703442Y-79303170D01*
X135696563Y-79305667D01*
X135690443Y-79309680D01*
X135690442Y-79309680D01*
X135635524Y-79345686D01*
X135631820Y-79348023D01*
X135569393Y-79385905D01*
X135561016Y-79393303D01*
X135560992Y-79393276D01*
X135558000Y-79395929D01*
X135554767Y-79398632D01*
X135548648Y-79402644D01*
X135543616Y-79407956D01*
X135495372Y-79458883D01*
X135492994Y-79461325D01*
X135352669Y-79601650D01*
X135289772Y-79635801D01*
X135233176Y-79647831D01*
X135233167Y-79647834D01*
X135226712Y-79649206D01*
X135220682Y-79651891D01*
X135220681Y-79651891D01*
X135058278Y-79724197D01*
X135058276Y-79724198D01*
X135052248Y-79726882D01*
X135046907Y-79730762D01*
X135046906Y-79730763D01*
X134945561Y-79804395D01*
X134878693Y-79828253D01*
X134809542Y-79812173D01*
X134760062Y-79761259D01*
X134745500Y-79702459D01*
X134745500Y-66880763D01*
X134746027Y-66869579D01*
X134747701Y-66862091D01*
X134745562Y-66794032D01*
X134745500Y-66790075D01*
X134745500Y-66762144D01*
X134744994Y-66758138D01*
X134744061Y-66746292D01*
X134742922Y-66710037D01*
X134742673Y-66702110D01*
X134737022Y-66682658D01*
X134733014Y-66663306D01*
X134731467Y-66651063D01*
X134730474Y-66643203D01*
X134726054Y-66632038D01*
X134714200Y-66602097D01*
X134710355Y-66590870D01*
X134709721Y-66588687D01*
X134698018Y-66548407D01*
X134693984Y-66541585D01*
X134693981Y-66541579D01*
X134687706Y-66530968D01*
X134679010Y-66513218D01*
X134674472Y-66501756D01*
X134674469Y-66501751D01*
X134671552Y-66494383D01*
X134662903Y-66482479D01*
X134645573Y-66458625D01*
X134639057Y-66448707D01*
X134620575Y-66417457D01*
X134616542Y-66410637D01*
X134602218Y-66396313D01*
X134589376Y-66381278D01*
X134586055Y-66376707D01*
X134577472Y-66364893D01*
X134543406Y-66336711D01*
X134534627Y-66328722D01*
X133218652Y-65012747D01*
X133211112Y-65004461D01*
X133207000Y-64997982D01*
X133181034Y-64973598D01*
X133157349Y-64951357D01*
X133154507Y-64948602D01*
X133134770Y-64928865D01*
X133131573Y-64926385D01*
X133122551Y-64918680D01*
X133116136Y-64912656D01*
X133090321Y-64888414D01*
X133083375Y-64884595D01*
X133083372Y-64884593D01*
X133072566Y-64878652D01*
X133056047Y-64867801D01*
X133055583Y-64867441D01*
X133040041Y-64855386D01*
X133032772Y-64852241D01*
X133032768Y-64852238D01*
X132999463Y-64837826D01*
X132988813Y-64832609D01*
X132950060Y-64811305D01*
X132930437Y-64806267D01*
X132911734Y-64799863D01*
X132900420Y-64794967D01*
X132900419Y-64794967D01*
X132893145Y-64791819D01*
X132885322Y-64790580D01*
X132885312Y-64790577D01*
X132849476Y-64784901D01*
X132837856Y-64782495D01*
X132802711Y-64773472D01*
X132802710Y-64773472D01*
X132795030Y-64771500D01*
X132774776Y-64771500D01*
X132755065Y-64769949D01*
X132742886Y-64768020D01*
X132735057Y-64766780D01*
X132705786Y-64769547D01*
X132691039Y-64770941D01*
X132679181Y-64771500D01*
X126231642Y-64771500D01*
X126163521Y-64751498D01*
X126117028Y-64697842D01*
X126106924Y-64627568D01*
X126136418Y-64562988D01*
X126168072Y-64536712D01*
X126251560Y-64487926D01*
X126251562Y-64487925D01*
X126254700Y-64486091D01*
X126357493Y-64408912D01*
X126529244Y-64279958D01*
X126529248Y-64279955D01*
X126532151Y-64277775D01*
X126783819Y-64038950D01*
X127006370Y-63772783D01*
X127043013Y-63717000D01*
X127151462Y-63551901D01*
X127196853Y-63482799D01*
X127325446Y-63227121D01*
X127351117Y-63176080D01*
X127351120Y-63176072D01*
X127352744Y-63172844D01*
X127413747Y-63006146D01*
X127470729Y-62850437D01*
X127470730Y-62850433D01*
X127471977Y-62847026D01*
X127472822Y-62843504D01*
X127472825Y-62843496D01*
X127552124Y-62513191D01*
X127552125Y-62513187D01*
X127552971Y-62509662D01*
X127579931Y-62286876D01*
X127594316Y-62168004D01*
X127594316Y-62167997D01*
X127594652Y-62165225D01*
X127594815Y-62160060D01*
X127600511Y-61978797D01*
X127600599Y-61976000D01*
X127599596Y-61958600D01*
X127580836Y-61633246D01*
X127580835Y-61633241D01*
X127580627Y-61629626D01*
X127563149Y-61529479D01*
X127521600Y-61291415D01*
X127521598Y-61291408D01*
X127520976Y-61287842D01*
X127513727Y-61263368D01*
X127472745Y-61125016D01*
X127422437Y-60955180D01*
X127358758Y-60805886D01*
X127287740Y-60639386D01*
X127287738Y-60639383D01*
X127286316Y-60636048D01*
X127270740Y-60608739D01*
X127116208Y-60337816D01*
X127114417Y-60334676D01*
X126909018Y-60055060D01*
X126672842Y-59800904D01*
X126409019Y-59575578D01*
X126121047Y-59382069D01*
X125812741Y-59222940D01*
X125488189Y-59100302D01*
X125484668Y-59099418D01*
X125484663Y-59099416D01*
X125323378Y-59058904D01*
X125151692Y-59015780D01*
X125129476Y-59012855D01*
X124811315Y-58970968D01*
X124811307Y-58970967D01*
X124807711Y-58970494D01*
X124663045Y-58968221D01*
X124464446Y-58965101D01*
X124464442Y-58965101D01*
X124460804Y-58965044D01*
X124457190Y-58965405D01*
X124457184Y-58965405D01*
X124213843Y-58989694D01*
X124115569Y-58999503D01*
X123776583Y-59073414D01*
X123773156Y-59074587D01*
X123773150Y-59074589D01*
X123497554Y-59168947D01*
X123448339Y-59185797D01*
X123135188Y-59335163D01*
X122841279Y-59519532D01*
X122838443Y-59521804D01*
X122838436Y-59521809D01*
X122628499Y-59690000D01*
X122570509Y-59736459D01*
X122326466Y-59983071D01*
X122324225Y-59985929D01*
X122267732Y-60057978D01*
X122112386Y-60256098D01*
X122110493Y-60259187D01*
X122110491Y-60259190D01*
X122065025Y-60333384D01*
X121931105Y-60551921D01*
X121929580Y-60555206D01*
X121929578Y-60555210D01*
X121818675Y-60794131D01*
X121785027Y-60866620D01*
X121676087Y-61196023D01*
X121675351Y-61199578D01*
X121675350Y-61199581D01*
X121606967Y-61529792D01*
X121605730Y-61535764D01*
X121574888Y-61881341D01*
X121574983Y-61884971D01*
X121574983Y-61884972D01*
X121583663Y-62216452D01*
X121583970Y-62228171D01*
X121632856Y-62571660D01*
X121720897Y-62907253D01*
X121846927Y-63230503D01*
X121848624Y-63233708D01*
X121982113Y-63485825D01*
X122009275Y-63537126D01*
X122011325Y-63540109D01*
X122011327Y-63540112D01*
X122203733Y-63820064D01*
X122203739Y-63820071D01*
X122205790Y-63823056D01*
X122433866Y-64084505D01*
X122436551Y-64086948D01*
X122646268Y-64277775D01*
X122690481Y-64318006D01*
X122972233Y-64520466D01*
X122997410Y-64534479D01*
X122999073Y-64535405D01*
X123048868Y-64586012D01*
X123063397Y-64655506D01*
X123038049Y-64721823D01*
X122980871Y-64763908D01*
X122937795Y-64771500D01*
X120728767Y-64771500D01*
X120717584Y-64770973D01*
X120710091Y-64769298D01*
X120702165Y-64769547D01*
X120702164Y-64769547D01*
X120642001Y-64771438D01*
X120638043Y-64771500D01*
X120610144Y-64771500D01*
X120606154Y-64772004D01*
X120594320Y-64772936D01*
X120550111Y-64774326D01*
X120542497Y-64776538D01*
X120542492Y-64776539D01*
X120530659Y-64779977D01*
X120511296Y-64783988D01*
X120491203Y-64786526D01*
X120483836Y-64789443D01*
X120483831Y-64789444D01*
X120450092Y-64802802D01*
X120438865Y-64806646D01*
X120396407Y-64818982D01*
X120389581Y-64823019D01*
X120378972Y-64829293D01*
X120361224Y-64837988D01*
X120342383Y-64845448D01*
X120335967Y-64850110D01*
X120335966Y-64850110D01*
X120306613Y-64871436D01*
X120296693Y-64877952D01*
X120265465Y-64896420D01*
X120265462Y-64896422D01*
X120258638Y-64900458D01*
X120244317Y-64914779D01*
X120229284Y-64927619D01*
X120212893Y-64939528D01*
X120207843Y-64945632D01*
X120207838Y-64945637D01*
X120184707Y-64973598D01*
X120176717Y-64982379D01*
X119241742Y-65917353D01*
X119233463Y-65924887D01*
X119226982Y-65929000D01*
X119200980Y-65956690D01*
X119180357Y-65978651D01*
X119177602Y-65981493D01*
X119157865Y-66001230D01*
X119155385Y-66004427D01*
X119147682Y-66013447D01*
X119117414Y-66045679D01*
X119113595Y-66052625D01*
X119113593Y-66052628D01*
X119107652Y-66063434D01*
X119096801Y-66079953D01*
X119084386Y-66095959D01*
X119081241Y-66103228D01*
X119081238Y-66103232D01*
X119066826Y-66136537D01*
X119061609Y-66147187D01*
X119040305Y-66185940D01*
X119038334Y-66193615D01*
X119038334Y-66193616D01*
X119035267Y-66205562D01*
X119028863Y-66224266D01*
X119026583Y-66229536D01*
X119020819Y-66242855D01*
X119019580Y-66250678D01*
X119019577Y-66250688D01*
X119013901Y-66286524D01*
X119011495Y-66298144D01*
X119008048Y-66311570D01*
X119000500Y-66340970D01*
X119000500Y-66361224D01*
X118998949Y-66380934D01*
X118995780Y-66400943D01*
X118995253Y-66400860D01*
X118995144Y-66401191D01*
X118746205Y-66401191D01*
X118745000Y-66391766D01*
X118745000Y-56260000D01*
X118765002Y-56191879D01*
X118818658Y-56145386D01*
X118871000Y-56134000D01*
X181103000Y-56134000D01*
X181171121Y-56154002D01*
G37*
G04 #@! TD.AperFunction*
G04 #@! TA.AperFunction,Conductor*
G36*
X165325528Y-90406503D02*
G01*
X165346502Y-90423406D01*
X167350595Y-92427499D01*
X167384621Y-92489811D01*
X167387500Y-92516594D01*
X167387500Y-95044233D01*
X167386973Y-95055416D01*
X167385298Y-95062909D01*
X167385547Y-95070835D01*
X167385547Y-95070836D01*
X167387438Y-95130986D01*
X167387500Y-95134945D01*
X167387500Y-95162856D01*
X167387997Y-95166790D01*
X167387997Y-95166791D01*
X167388005Y-95166856D01*
X167388938Y-95178693D01*
X167390327Y-95222889D01*
X167395978Y-95242339D01*
X167399987Y-95261700D01*
X167402526Y-95281797D01*
X167405445Y-95289168D01*
X167405445Y-95289170D01*
X167418804Y-95322912D01*
X167422649Y-95334142D01*
X167434982Y-95376593D01*
X167439015Y-95383412D01*
X167439017Y-95383417D01*
X167445293Y-95394028D01*
X167453988Y-95411776D01*
X167461448Y-95430617D01*
X167466110Y-95437033D01*
X167466110Y-95437034D01*
X167487436Y-95466387D01*
X167493952Y-95476307D01*
X167510673Y-95504580D01*
X167516458Y-95514362D01*
X167530779Y-95528683D01*
X167543619Y-95543716D01*
X167555528Y-95560107D01*
X167589605Y-95588298D01*
X167598384Y-95596288D01*
X168152343Y-96150247D01*
X168159887Y-96158537D01*
X168164000Y-96165018D01*
X168169777Y-96170443D01*
X168213667Y-96211658D01*
X168216509Y-96214413D01*
X168236231Y-96234135D01*
X168239355Y-96236558D01*
X168239359Y-96236562D01*
X168239424Y-96236612D01*
X168248445Y-96244317D01*
X168280679Y-96274586D01*
X168287627Y-96278405D01*
X168287629Y-96278407D01*
X168298432Y-96284346D01*
X168314959Y-96295202D01*
X168324698Y-96302757D01*
X168324700Y-96302758D01*
X168330960Y-96307614D01*
X168371540Y-96325174D01*
X168382188Y-96330391D01*
X168406976Y-96344018D01*
X168420940Y-96351695D01*
X168428616Y-96353666D01*
X168428619Y-96353667D01*
X168440562Y-96356733D01*
X168459266Y-96363137D01*
X168469222Y-96367445D01*
X168477855Y-96371181D01*
X168485678Y-96372420D01*
X168485688Y-96372423D01*
X168521524Y-96378099D01*
X168533144Y-96380505D01*
X168564959Y-96388673D01*
X168575970Y-96391500D01*
X168596224Y-96391500D01*
X168615934Y-96393051D01*
X168635943Y-96396220D01*
X168643835Y-96395474D01*
X168662580Y-96393702D01*
X168679962Y-96392059D01*
X168691819Y-96391500D01*
X171371233Y-96391500D01*
X171382416Y-96392027D01*
X171389909Y-96393702D01*
X171397835Y-96393453D01*
X171397836Y-96393453D01*
X171457986Y-96391562D01*
X171461945Y-96391500D01*
X171489856Y-96391500D01*
X171493791Y-96391003D01*
X171493856Y-96390995D01*
X171505693Y-96390062D01*
X171537951Y-96389048D01*
X171541970Y-96388922D01*
X171549889Y-96388673D01*
X171569343Y-96383021D01*
X171588700Y-96379013D01*
X171600930Y-96377468D01*
X171600931Y-96377468D01*
X171608797Y-96376474D01*
X171616168Y-96373555D01*
X171616170Y-96373555D01*
X171649912Y-96360196D01*
X171661142Y-96356351D01*
X171695983Y-96346229D01*
X171695984Y-96346229D01*
X171703593Y-96344018D01*
X171710412Y-96339985D01*
X171710417Y-96339983D01*
X171721028Y-96333707D01*
X171738776Y-96325012D01*
X171757617Y-96317552D01*
X171793387Y-96291564D01*
X171803307Y-96285048D01*
X171834535Y-96266580D01*
X171834538Y-96266578D01*
X171841362Y-96262542D01*
X171855683Y-96248221D01*
X171870717Y-96235380D01*
X171872431Y-96234135D01*
X171887107Y-96223472D01*
X171915298Y-96189395D01*
X171923288Y-96180616D01*
X172131919Y-95971985D01*
X172194231Y-95937959D01*
X172265046Y-95943024D01*
X172321882Y-95985571D01*
X172346693Y-96052091D01*
X172328274Y-96127196D01*
X172308654Y-96159026D01*
X172303885Y-96166762D01*
X172281126Y-96235380D01*
X172250561Y-96327531D01*
X172248203Y-96334639D01*
X172247503Y-96341475D01*
X172247502Y-96341478D01*
X172245584Y-96360196D01*
X172237500Y-96439100D01*
X172237500Y-97489900D01*
X172237837Y-97493146D01*
X172237837Y-97493150D01*
X172247618Y-97587414D01*
X172248474Y-97595666D01*
X172250655Y-97602202D01*
X172250655Y-97602204D01*
X172282505Y-97697669D01*
X172304450Y-97763446D01*
X172397522Y-97913848D01*
X172522697Y-98038805D01*
X172528927Y-98042645D01*
X172528928Y-98042646D01*
X172666288Y-98127316D01*
X172673262Y-98131615D01*
X172698667Y-98140042D01*
X172757026Y-98180470D01*
X172784264Y-98246034D01*
X172785000Y-98259634D01*
X172785000Y-98537934D01*
X172764998Y-98606055D01*
X172724835Y-98645367D01*
X172533298Y-98762741D01*
X172533292Y-98762745D01*
X172529084Y-98765324D01*
X172348531Y-98919531D01*
X172194324Y-99100084D01*
X172191745Y-99104292D01*
X172191741Y-99104298D01*
X172098201Y-99256942D01*
X172070260Y-99302537D01*
X172068367Y-99307107D01*
X172068365Y-99307111D01*
X171981289Y-99517333D01*
X171979395Y-99521906D01*
X171968801Y-99566033D01*
X171927858Y-99736574D01*
X171923965Y-99752789D01*
X171905335Y-99989500D01*
X171923965Y-100226211D01*
X171925119Y-100231018D01*
X171925120Y-100231024D01*
X171954413Y-100353035D01*
X171979395Y-100457094D01*
X171981288Y-100461665D01*
X171981289Y-100461667D01*
X172068272Y-100671663D01*
X172070260Y-100676463D01*
X172072846Y-100680683D01*
X172191741Y-100874702D01*
X172191745Y-100874708D01*
X172194324Y-100878916D01*
X172348531Y-101059469D01*
X172352287Y-101062677D01*
X172373118Y-101080468D01*
X172529084Y-101213676D01*
X172533292Y-101216255D01*
X172533298Y-101216259D01*
X172724835Y-101333633D01*
X172772466Y-101386281D01*
X172785000Y-101441066D01*
X172785000Y-105037934D01*
X172764998Y-105106055D01*
X172724835Y-105145367D01*
X172533298Y-105262741D01*
X172533292Y-105262745D01*
X172529084Y-105265324D01*
X172348531Y-105419531D01*
X172194324Y-105600084D01*
X172191745Y-105604292D01*
X172191741Y-105604298D01*
X172074367Y-105795835D01*
X172021719Y-105843466D01*
X171966934Y-105856000D01*
X171147768Y-105856000D01*
X171136585Y-105855473D01*
X171129092Y-105853798D01*
X171121166Y-105854047D01*
X171121165Y-105854047D01*
X171061002Y-105855938D01*
X171057044Y-105856000D01*
X171029144Y-105856000D01*
X171025154Y-105856504D01*
X171013320Y-105857436D01*
X170969111Y-105858826D01*
X170961497Y-105861038D01*
X170961492Y-105861039D01*
X170949659Y-105864477D01*
X170930296Y-105868488D01*
X170910203Y-105871026D01*
X170902836Y-105873943D01*
X170902831Y-105873944D01*
X170869092Y-105887302D01*
X170857865Y-105891146D01*
X170815407Y-105903482D01*
X170808581Y-105907519D01*
X170797972Y-105913793D01*
X170780224Y-105922488D01*
X170761383Y-105929948D01*
X170754967Y-105934610D01*
X170754966Y-105934610D01*
X170725613Y-105955936D01*
X170715693Y-105962452D01*
X170684465Y-105980920D01*
X170684462Y-105980922D01*
X170677638Y-105984958D01*
X170663317Y-105999279D01*
X170648284Y-106012119D01*
X170631893Y-106024028D01*
X170605516Y-106055913D01*
X170603712Y-106058093D01*
X170595722Y-106066874D01*
X169914742Y-106747853D01*
X169906463Y-106755387D01*
X169899982Y-106759500D01*
X169853357Y-106809151D01*
X169850602Y-106811993D01*
X169830865Y-106831730D01*
X169828385Y-106834927D01*
X169820682Y-106843947D01*
X169790414Y-106876179D01*
X169786595Y-106883125D01*
X169786593Y-106883128D01*
X169780652Y-106893934D01*
X169769801Y-106910453D01*
X169757386Y-106926459D01*
X169754241Y-106933728D01*
X169754238Y-106933732D01*
X169739826Y-106967037D01*
X169734609Y-106977687D01*
X169713305Y-107016440D01*
X169711334Y-107024115D01*
X169711334Y-107024116D01*
X169708267Y-107036062D01*
X169701863Y-107054766D01*
X169693819Y-107073355D01*
X169692580Y-107081178D01*
X169692577Y-107081188D01*
X169686901Y-107117024D01*
X169684495Y-107128644D01*
X169675472Y-107163789D01*
X169673500Y-107171470D01*
X169673500Y-107191724D01*
X169671949Y-107211434D01*
X169668780Y-107231443D01*
X169669526Y-107239335D01*
X169672941Y-107275461D01*
X169673500Y-107287319D01*
X169673500Y-114874405D01*
X169653498Y-114942526D01*
X169636595Y-114963501D01*
X169065499Y-115534596D01*
X169003187Y-115568621D01*
X168976404Y-115571500D01*
X162430095Y-115571500D01*
X162361974Y-115551498D01*
X162341000Y-115534595D01*
X162087405Y-115281000D01*
X162053379Y-115218688D01*
X162050500Y-115191905D01*
X162050500Y-115008927D01*
X162070502Y-114940806D01*
X162111618Y-114901050D01*
X162114994Y-114899396D01*
X162296860Y-114769673D01*
X162455096Y-114611989D01*
X162585453Y-114430577D01*
X162586640Y-114431430D01*
X162633960Y-114387862D01*
X162703897Y-114375645D01*
X162769338Y-114403178D01*
X162797166Y-114435011D01*
X162854694Y-114528888D01*
X162860777Y-114537199D01*
X163000213Y-114698167D01*
X163007580Y-114705383D01*
X163171434Y-114841416D01*
X163179881Y-114847331D01*
X163363756Y-114954779D01*
X163373042Y-114959229D01*
X163572001Y-115035203D01*
X163581899Y-115038079D01*
X163685250Y-115059106D01*
X163699299Y-115057910D01*
X163703000Y-115047565D01*
X163703000Y-115047017D01*
X164211000Y-115047017D01*
X164215064Y-115060859D01*
X164228478Y-115062893D01*
X164235184Y-115062034D01*
X164245262Y-115059892D01*
X164449255Y-114998691D01*
X164458842Y-114994933D01*
X164650095Y-114901239D01*
X164658945Y-114895964D01*
X164832328Y-114772292D01*
X164840200Y-114765639D01*
X164991052Y-114615312D01*
X164997730Y-114607465D01*
X165122003Y-114434520D01*
X165127313Y-114425683D01*
X165221670Y-114234767D01*
X165225469Y-114225172D01*
X165287377Y-114021410D01*
X165289555Y-114011337D01*
X165290986Y-114000462D01*
X165288775Y-113986278D01*
X165275617Y-113982500D01*
X164229115Y-113982500D01*
X164213876Y-113986975D01*
X164212671Y-113988365D01*
X164211000Y-113996048D01*
X164211000Y-115047017D01*
X163703000Y-115047017D01*
X163703000Y-113600500D01*
X163723002Y-113532379D01*
X163776658Y-113485886D01*
X163829000Y-113474500D01*
X165275344Y-113474500D01*
X165288875Y-113470527D01*
X165290180Y-113461447D01*
X165248214Y-113294375D01*
X165244894Y-113284624D01*
X165159972Y-113089314D01*
X165155105Y-113080239D01*
X165039426Y-112901426D01*
X165033136Y-112893257D01*
X164889806Y-112735740D01*
X164882273Y-112728715D01*
X164715139Y-112596722D01*
X164706556Y-112591020D01*
X164669602Y-112570620D01*
X164619631Y-112520187D01*
X164604859Y-112450745D01*
X164629975Y-112384339D01*
X164657327Y-112357732D01*
X164697386Y-112329158D01*
X164836860Y-112229673D01*
X164995096Y-112071989D01*
X165065831Y-111973551D01*
X165122435Y-111894777D01*
X165125453Y-111890577D01*
X165133247Y-111874808D01*
X165222136Y-111694953D01*
X165222137Y-111694951D01*
X165224430Y-111690311D01*
X165289370Y-111476569D01*
X165318529Y-111255090D01*
X165320156Y-111188500D01*
X165301852Y-110965861D01*
X165247431Y-110749202D01*
X165158354Y-110544340D01*
X165049177Y-110375578D01*
X165039822Y-110361117D01*
X165039820Y-110361114D01*
X165037014Y-110356777D01*
X164886670Y-110191551D01*
X164882619Y-110188352D01*
X164882615Y-110188348D01*
X164715414Y-110056300D01*
X164715410Y-110056298D01*
X164711359Y-110053098D01*
X164706835Y-110050601D01*
X164706831Y-110050598D01*
X164655608Y-110022322D01*
X164605636Y-109971890D01*
X164590500Y-109912013D01*
X164590500Y-92661767D01*
X164591027Y-92650584D01*
X164592702Y-92643091D01*
X164590562Y-92575014D01*
X164590500Y-92571055D01*
X164590500Y-92543144D01*
X164589995Y-92539144D01*
X164589062Y-92527301D01*
X164588834Y-92520025D01*
X164587673Y-92483111D01*
X164582021Y-92463657D01*
X164578013Y-92444300D01*
X164576468Y-92432070D01*
X164576468Y-92432069D01*
X164575474Y-92424203D01*
X164572555Y-92416830D01*
X164559196Y-92383088D01*
X164555351Y-92371858D01*
X164545229Y-92337017D01*
X164545229Y-92337016D01*
X164543018Y-92329407D01*
X164538985Y-92322588D01*
X164538983Y-92322583D01*
X164532707Y-92311972D01*
X164524012Y-92294224D01*
X164516552Y-92275383D01*
X164501137Y-92254165D01*
X164490564Y-92239613D01*
X164484048Y-92229693D01*
X164465580Y-92198465D01*
X164465578Y-92198462D01*
X164461542Y-92191638D01*
X164447221Y-92177317D01*
X164434380Y-92162283D01*
X164434279Y-92162144D01*
X164422472Y-92145893D01*
X164388395Y-92117702D01*
X164379616Y-92109712D01*
X163130652Y-90860747D01*
X163123112Y-90852461D01*
X163119000Y-90845982D01*
X163069348Y-90799356D01*
X163066507Y-90796602D01*
X163046770Y-90776865D01*
X163043573Y-90774385D01*
X163034551Y-90766680D01*
X163023223Y-90756042D01*
X163002321Y-90736414D01*
X162995375Y-90732595D01*
X162995372Y-90732593D01*
X162984566Y-90726652D01*
X162968047Y-90715801D01*
X162967583Y-90715441D01*
X162952041Y-90703386D01*
X162944772Y-90700241D01*
X162944768Y-90700238D01*
X162911463Y-90685826D01*
X162900813Y-90680609D01*
X162862060Y-90659305D01*
X162842437Y-90654267D01*
X162823734Y-90647863D01*
X162812420Y-90642967D01*
X162812419Y-90642967D01*
X162805145Y-90639819D01*
X162797322Y-90638580D01*
X162797319Y-90638579D01*
X162787032Y-90636950D01*
X162722879Y-90606537D01*
X162685353Y-90546268D01*
X162686367Y-90475279D01*
X162725601Y-90416107D01*
X162790596Y-90387540D01*
X162806744Y-90386501D01*
X165257407Y-90386501D01*
X165325528Y-90406503D01*
G37*
G04 #@! TD.AperFunction*
G04 #@! TA.AperFunction,Conductor*
G36*
X142707879Y-89806427D02*
G01*
X142764715Y-89848974D01*
X142783677Y-89885540D01*
X142806962Y-89957206D01*
X142806963Y-90035069D01*
X142805127Y-90040720D01*
X142801751Y-90047895D01*
X142795981Y-90078143D01*
X142775286Y-90186635D01*
X142770576Y-90211324D01*
X142771074Y-90219235D01*
X142779453Y-90352411D01*
X142781023Y-90377371D01*
X142806962Y-90457203D01*
X142807227Y-90458019D01*
X142807228Y-90535890D01*
X142800744Y-90555846D01*
X142795143Y-90585208D01*
X142796413Y-90598247D01*
X142830000Y-90608948D01*
X142829674Y-90609971D01*
X142874059Y-90623004D01*
X142912321Y-90661485D01*
X142917334Y-90669383D01*
X142917336Y-90669386D01*
X142921584Y-90676079D01*
X142923698Y-90678064D01*
X142950826Y-90741247D01*
X142939120Y-90811272D01*
X142922817Y-90836641D01*
X142905714Y-90857315D01*
X142846880Y-90897054D01*
X142808629Y-90903000D01*
X142807990Y-90903000D01*
X142794459Y-90906973D01*
X142793449Y-90913999D01*
X142807224Y-90956393D01*
X142807225Y-91034265D01*
X142805128Y-91040718D01*
X142801751Y-91047895D01*
X142800265Y-91055687D01*
X142800264Y-91055689D01*
X142772231Y-91202646D01*
X142770576Y-91211324D01*
X142772214Y-91237358D01*
X142779434Y-91352109D01*
X142781023Y-91377371D01*
X142832435Y-91535604D01*
X142921584Y-91676079D01*
X143042867Y-91789971D01*
X143188663Y-91870123D01*
X143349811Y-91911499D01*
X144042000Y-91911499D01*
X144110121Y-91931501D01*
X144156614Y-91985157D01*
X144168000Y-92037499D01*
X144168000Y-94122954D01*
X144147998Y-94191075D01*
X144108303Y-94230098D01*
X144006253Y-94293249D01*
X143989652Y-94303522D01*
X143864695Y-94428697D01*
X143861898Y-94433235D01*
X143804647Y-94473824D01*
X143733724Y-94477054D01*
X143672313Y-94441428D01*
X143664938Y-94432932D01*
X143656902Y-94422793D01*
X143542171Y-94308261D01*
X143530760Y-94299249D01*
X143392757Y-94214184D01*
X143379576Y-94208037D01*
X143225290Y-94156862D01*
X143211914Y-94153995D01*
X143117562Y-94144328D01*
X143111145Y-94144000D01*
X142998615Y-94144000D01*
X142983376Y-94148475D01*
X142982171Y-94149865D01*
X142980500Y-94157548D01*
X142980500Y-98750884D01*
X142984975Y-98766123D01*
X142986365Y-98767328D01*
X142994048Y-98768999D01*
X143111095Y-98768999D01*
X143117614Y-98768662D01*
X143213206Y-98758743D01*
X143226600Y-98755851D01*
X143380784Y-98704412D01*
X143393962Y-98698239D01*
X143531807Y-98612937D01*
X143543208Y-98603901D01*
X143657738Y-98489172D01*
X143664794Y-98480238D01*
X143722712Y-98439177D01*
X143793635Y-98435947D01*
X143855046Y-98471574D01*
X143861846Y-98479407D01*
X143865522Y-98485348D01*
X143990697Y-98610305D01*
X143995493Y-98613261D01*
X144036155Y-98670614D01*
X144043000Y-98711578D01*
X144043000Y-99561129D01*
X144022998Y-99629250D01*
X144006095Y-99650224D01*
X141835724Y-101820595D01*
X141773412Y-101854621D01*
X141746629Y-101857500D01*
X138482939Y-101857500D01*
X138414818Y-101837498D01*
X138377147Y-101799941D01*
X138369818Y-101788612D01*
X138367014Y-101784277D01*
X138216670Y-101619051D01*
X138212619Y-101615852D01*
X138212615Y-101615848D01*
X138045414Y-101483800D01*
X138045410Y-101483798D01*
X138041359Y-101480598D01*
X138000053Y-101457796D01*
X137950084Y-101407364D01*
X137935312Y-101337921D01*
X137960428Y-101271516D01*
X137987780Y-101244909D01*
X138054692Y-101197181D01*
X138166860Y-101117173D01*
X138226911Y-101057332D01*
X138288013Y-100996443D01*
X138325096Y-100959489D01*
X138384594Y-100876689D01*
X138452435Y-100782277D01*
X138455453Y-100778077D01*
X138459145Y-100770608D01*
X138552136Y-100582453D01*
X138552137Y-100582451D01*
X138554430Y-100577811D01*
X138595757Y-100441788D01*
X138617865Y-100369023D01*
X138617865Y-100369021D01*
X138619370Y-100364069D01*
X138648529Y-100142590D01*
X138649309Y-100110669D01*
X138650074Y-100079365D01*
X138650074Y-100079361D01*
X138650156Y-100076000D01*
X138631852Y-99853361D01*
X138577431Y-99636702D01*
X138488354Y-99431840D01*
X138419990Y-99326165D01*
X138369822Y-99248617D01*
X138369820Y-99248614D01*
X138367014Y-99244277D01*
X138216670Y-99079051D01*
X138212619Y-99075852D01*
X138212615Y-99075848D01*
X138045414Y-98943800D01*
X138045410Y-98943798D01*
X138041359Y-98940598D01*
X138028333Y-98933407D01*
X138003196Y-98919531D01*
X137999569Y-98917529D01*
X137949598Y-98867097D01*
X137934826Y-98797654D01*
X137959942Y-98731248D01*
X137987294Y-98704641D01*
X138162328Y-98579792D01*
X138170200Y-98573139D01*
X138321052Y-98422812D01*
X138327730Y-98414965D01*
X138452003Y-98242020D01*
X138457313Y-98233183D01*
X138543847Y-98058095D01*
X141631001Y-98058095D01*
X141631338Y-98064614D01*
X141641257Y-98160206D01*
X141644149Y-98173600D01*
X141695588Y-98327784D01*
X141701761Y-98340962D01*
X141787063Y-98478807D01*
X141796099Y-98490208D01*
X141910829Y-98604739D01*
X141922240Y-98613751D01*
X142060243Y-98698816D01*
X142073424Y-98704963D01*
X142227710Y-98756138D01*
X142241086Y-98759005D01*
X142335438Y-98768672D01*
X142341854Y-98769000D01*
X142454385Y-98769000D01*
X142469624Y-98764525D01*
X142470829Y-98763135D01*
X142472500Y-98755452D01*
X142472500Y-97808115D01*
X142468025Y-97792876D01*
X142466635Y-97791671D01*
X142458952Y-97790000D01*
X141649116Y-97790000D01*
X141633877Y-97794475D01*
X141632672Y-97795865D01*
X141631001Y-97803548D01*
X141631001Y-98058095D01*
X138543847Y-98058095D01*
X138551670Y-98042267D01*
X138555469Y-98032672D01*
X138617377Y-97828910D01*
X138619555Y-97818837D01*
X138620986Y-97807962D01*
X138618775Y-97793778D01*
X138605617Y-97790000D01*
X135970225Y-97790000D01*
X135956694Y-97793973D01*
X135955257Y-97803966D01*
X135985565Y-97938446D01*
X135988645Y-97948275D01*
X136068770Y-98145603D01*
X136073413Y-98154794D01*
X136184694Y-98336388D01*
X136190777Y-98344699D01*
X136330213Y-98505667D01*
X136337580Y-98512883D01*
X136501434Y-98648916D01*
X136509881Y-98654831D01*
X136578969Y-98695203D01*
X136627693Y-98746842D01*
X136640764Y-98816625D01*
X136614033Y-98882396D01*
X136573584Y-98915752D01*
X136560607Y-98922507D01*
X136556474Y-98925610D01*
X136556471Y-98925612D01*
X136388676Y-99051596D01*
X136381965Y-99056635D01*
X136351513Y-99088501D01*
X136268812Y-99175043D01*
X136227629Y-99218138D01*
X136224715Y-99222410D01*
X136224714Y-99222411D01*
X136206838Y-99248617D01*
X136101743Y-99402680D01*
X136078433Y-99452898D01*
X136011219Y-99597699D01*
X136007688Y-99605305D01*
X135947989Y-99820570D01*
X135924251Y-100042695D01*
X135924548Y-100047848D01*
X135924548Y-100047851D01*
X135930011Y-100142590D01*
X135937110Y-100265715D01*
X135938247Y-100270761D01*
X135938248Y-100270767D01*
X135939454Y-100276117D01*
X135986222Y-100483639D01*
X136046014Y-100630890D01*
X136066233Y-100680683D01*
X136070266Y-100690616D01*
X136089816Y-100722518D01*
X136183074Y-100874702D01*
X136186987Y-100881088D01*
X136333250Y-101049938D01*
X136505126Y-101192632D01*
X136555758Y-101222219D01*
X136578445Y-101235476D01*
X136627169Y-101287114D01*
X136640240Y-101356897D01*
X136613509Y-101422669D01*
X136573055Y-101456027D01*
X136560607Y-101462507D01*
X136556474Y-101465610D01*
X136556471Y-101465612D01*
X136386100Y-101593530D01*
X136381965Y-101596635D01*
X136227629Y-101758138D01*
X136197363Y-101802507D01*
X136142455Y-101847507D01*
X136093277Y-101857500D01*
X129779371Y-101857500D01*
X129711250Y-101837498D01*
X129690276Y-101820595D01*
X129589405Y-101719724D01*
X129555379Y-101657412D01*
X129552500Y-101630629D01*
X129552500Y-96028430D01*
X129572502Y-95960309D01*
X129606885Y-95926510D01*
X129606385Y-95925880D01*
X129612125Y-95921331D01*
X129618349Y-95917479D01*
X129704786Y-95830890D01*
X129767066Y-95796812D01*
X129837886Y-95801815D01*
X129882971Y-95830733D01*
X129970697Y-95918306D01*
X129984292Y-95926686D01*
X130105186Y-96001206D01*
X130121261Y-96011115D01*
X130173971Y-96028598D01*
X130282610Y-96064632D01*
X130282612Y-96064632D01*
X130289138Y-96066797D01*
X130295974Y-96067497D01*
X130295977Y-96067498D01*
X130339030Y-96071909D01*
X130393599Y-96077500D01*
X130790912Y-96077500D01*
X131194400Y-96077499D01*
X131300167Y-96066526D01*
X131388148Y-96037173D01*
X131461002Y-96012867D01*
X131461004Y-96012866D01*
X131467946Y-96010550D01*
X131618349Y-95917479D01*
X131639193Y-95896599D01*
X131681597Y-95854121D01*
X131743306Y-95792303D01*
X131802360Y-95696500D01*
X131832275Y-95647969D01*
X131832276Y-95647967D01*
X131836115Y-95641739D01*
X131853663Y-95588833D01*
X131894093Y-95530473D01*
X131959658Y-95503236D01*
X131973256Y-95502500D01*
X135941536Y-95502500D01*
X136009657Y-95522502D01*
X136058278Y-95581095D01*
X136068319Y-95605823D01*
X136068322Y-95605829D01*
X136070266Y-95610616D01*
X136108258Y-95672613D01*
X136182245Y-95793349D01*
X136186987Y-95801088D01*
X136333250Y-95969938D01*
X136505126Y-96112632D01*
X136569497Y-96150247D01*
X136578955Y-96155774D01*
X136627679Y-96207412D01*
X136640750Y-96277195D01*
X136614019Y-96342967D01*
X136573562Y-96376327D01*
X136565457Y-96380546D01*
X136556738Y-96386036D01*
X136386433Y-96513905D01*
X136378726Y-96520748D01*
X136231590Y-96674717D01*
X136225104Y-96682727D01*
X136105098Y-96858649D01*
X136100000Y-96867623D01*
X136010338Y-97060783D01*
X136006775Y-97070470D01*
X135951389Y-97270183D01*
X135952912Y-97278607D01*
X135965292Y-97282000D01*
X138605344Y-97282000D01*
X138618875Y-97278027D01*
X138620180Y-97268947D01*
X138618909Y-97263885D01*
X141631000Y-97263885D01*
X141635475Y-97279124D01*
X141636865Y-97280329D01*
X141644548Y-97282000D01*
X142454385Y-97282000D01*
X142469624Y-97277525D01*
X142470829Y-97276135D01*
X142472500Y-97268452D01*
X142472500Y-95649115D01*
X142468025Y-95633876D01*
X142466635Y-95632671D01*
X142458952Y-95631000D01*
X141649116Y-95631000D01*
X141633877Y-95635475D01*
X141632672Y-95636865D01*
X141631001Y-95644548D01*
X141631001Y-95899095D01*
X141631338Y-95905614D01*
X141641257Y-96001206D01*
X141644149Y-96014600D01*
X141695588Y-96168784D01*
X141701761Y-96181962D01*
X141787063Y-96319807D01*
X141796099Y-96331208D01*
X141832317Y-96367363D01*
X141866396Y-96429646D01*
X141861393Y-96500466D01*
X141832471Y-96545555D01*
X141795261Y-96582829D01*
X141786249Y-96594240D01*
X141701184Y-96732243D01*
X141695037Y-96745424D01*
X141643862Y-96899710D01*
X141640995Y-96913086D01*
X141631328Y-97007438D01*
X141631000Y-97013855D01*
X141631000Y-97263885D01*
X138618909Y-97263885D01*
X138578214Y-97101875D01*
X138574894Y-97092124D01*
X138489972Y-96896814D01*
X138485105Y-96887739D01*
X138369426Y-96708926D01*
X138363136Y-96700757D01*
X138219806Y-96543240D01*
X138212273Y-96536215D01*
X138045139Y-96404222D01*
X138036556Y-96398520D01*
X137999602Y-96378120D01*
X137949631Y-96327687D01*
X137934859Y-96258245D01*
X137959975Y-96191839D01*
X137987327Y-96165232D01*
X138010797Y-96148491D01*
X138166860Y-96037173D01*
X138187910Y-96016197D01*
X138282290Y-95922146D01*
X138325096Y-95879489D01*
X138360129Y-95830736D01*
X138452435Y-95702277D01*
X138455453Y-95698077D01*
X138457746Y-95693437D01*
X138459446Y-95690608D01*
X138511674Y-95642518D01*
X138567451Y-95629500D01*
X140510233Y-95629500D01*
X140521416Y-95630027D01*
X140528909Y-95631702D01*
X140536835Y-95631453D01*
X140536836Y-95631453D01*
X140596986Y-95629562D01*
X140600945Y-95629500D01*
X140628856Y-95629500D01*
X140632791Y-95629003D01*
X140632856Y-95628995D01*
X140644693Y-95628062D01*
X140676951Y-95627048D01*
X140680970Y-95626922D01*
X140688889Y-95626673D01*
X140708343Y-95621021D01*
X140727700Y-95617013D01*
X140739930Y-95615468D01*
X140739931Y-95615468D01*
X140747797Y-95614474D01*
X140755168Y-95611555D01*
X140755170Y-95611555D01*
X140788912Y-95598196D01*
X140800142Y-95594351D01*
X140834983Y-95584229D01*
X140834984Y-95584229D01*
X140842593Y-95582018D01*
X140849412Y-95577985D01*
X140849417Y-95577983D01*
X140860028Y-95571707D01*
X140877776Y-95563012D01*
X140896617Y-95555552D01*
X140916446Y-95541146D01*
X140932387Y-95529564D01*
X140942307Y-95523048D01*
X140973535Y-95504580D01*
X140973538Y-95504578D01*
X140980362Y-95500542D01*
X140994683Y-95486221D01*
X141009717Y-95473380D01*
X141019693Y-95466132D01*
X141026107Y-95461472D01*
X141054288Y-95427407D01*
X141062278Y-95418626D01*
X141422963Y-95057942D01*
X141485275Y-95023917D01*
X141556091Y-95028982D01*
X141612926Y-95071529D01*
X141632954Y-95111540D01*
X141635474Y-95120124D01*
X141636865Y-95121329D01*
X141644548Y-95123000D01*
X142454385Y-95123000D01*
X142469624Y-95118525D01*
X142470829Y-95117135D01*
X142472500Y-95109452D01*
X142472500Y-94162116D01*
X142468025Y-94146877D01*
X142466635Y-94145672D01*
X142458952Y-94144001D01*
X142341905Y-94144001D01*
X142335386Y-94144338D01*
X142239794Y-94154257D01*
X142226400Y-94157149D01*
X142150376Y-94182512D01*
X142079426Y-94185096D01*
X142018342Y-94148912D01*
X141986518Y-94085448D01*
X141984500Y-94062988D01*
X141984500Y-90477830D01*
X142004502Y-90409709D01*
X142021405Y-90388735D01*
X142574752Y-89835388D01*
X142637064Y-89801362D01*
X142707879Y-89806427D01*
G37*
G04 #@! TD.AperFunction*
G04 #@! TA.AperFunction,Conductor*
G36*
X141344332Y-82207288D02*
G01*
X141363552Y-82212223D01*
X141382257Y-82218627D01*
X141400845Y-82226671D01*
X141408668Y-82227910D01*
X141408678Y-82227913D01*
X141444514Y-82233589D01*
X141456134Y-82235995D01*
X141488424Y-82244285D01*
X141498960Y-82246990D01*
X141519214Y-82246990D01*
X141538924Y-82248541D01*
X141558933Y-82251710D01*
X141566825Y-82250964D01*
X141602951Y-82247549D01*
X141614809Y-82246990D01*
X145198501Y-82246990D01*
X145266622Y-82266992D01*
X145313115Y-82320648D01*
X145324501Y-82372990D01*
X145324501Y-82394433D01*
X145324998Y-82398365D01*
X145338905Y-82508452D01*
X145340119Y-82518065D01*
X145343036Y-82525432D01*
X145343036Y-82525433D01*
X145353274Y-82551290D01*
X145401366Y-82672757D01*
X145406024Y-82679168D01*
X145406025Y-82679170D01*
X145451791Y-82742161D01*
X145499159Y-82807358D01*
X145627354Y-82913409D01*
X145777895Y-82984249D01*
X145836048Y-82995342D01*
X145933538Y-83013939D01*
X145933540Y-83013939D01*
X145941324Y-83015424D01*
X146043089Y-83009021D01*
X146112330Y-83024706D01*
X146162101Y-83075336D01*
X146177000Y-83134772D01*
X146177000Y-83185000D01*
X149987000Y-83185000D01*
X149987000Y-83130872D01*
X150007002Y-83062751D01*
X150060658Y-83016258D01*
X150091950Y-83008411D01*
X150091673Y-83006960D01*
X150099459Y-83005475D01*
X150107371Y-83004977D01*
X150114911Y-83002527D01*
X150114912Y-83002527D01*
X150187203Y-82979039D01*
X150265070Y-82979037D01*
X150270722Y-82980873D01*
X150277896Y-82984249D01*
X150355194Y-82998994D01*
X150433539Y-83013939D01*
X150433541Y-83013939D01*
X150441325Y-83015424D01*
X150543096Y-83009021D01*
X150599460Y-83005475D01*
X150599462Y-83005475D01*
X150607372Y-83004977D01*
X150687203Y-82979039D01*
X150765069Y-82979037D01*
X150770720Y-82980873D01*
X150777895Y-82984249D01*
X150855193Y-82998994D01*
X150933538Y-83013939D01*
X150933540Y-83013939D01*
X150941324Y-83015424D01*
X151043095Y-83009021D01*
X151099459Y-83005475D01*
X151099461Y-83005475D01*
X151107371Y-83004977D01*
X151187202Y-82979039D01*
X151265068Y-82979037D01*
X151270719Y-82980873D01*
X151277894Y-82984249D01*
X151355192Y-82998994D01*
X151433537Y-83013939D01*
X151433539Y-83013939D01*
X151441323Y-83015424D01*
X151524346Y-83010201D01*
X151599459Y-83005475D01*
X151599461Y-83005475D01*
X151607370Y-83004977D01*
X151614906Y-83002528D01*
X151614908Y-83002528D01*
X151646288Y-82992332D01*
X151687203Y-82979038D01*
X151765074Y-82979038D01*
X151770722Y-82980873D01*
X151777896Y-82984249D01*
X151785683Y-82985735D01*
X151785685Y-82985735D01*
X151933539Y-83013939D01*
X151933541Y-83013939D01*
X151941325Y-83015424D01*
X152043096Y-83009021D01*
X152099460Y-83005475D01*
X152099462Y-83005475D01*
X152107372Y-83004977D01*
X152187203Y-82979039D01*
X152265069Y-82979037D01*
X152270720Y-82980873D01*
X152277895Y-82984249D01*
X152355193Y-82998994D01*
X152433538Y-83013939D01*
X152433540Y-83013939D01*
X152441324Y-83015424D01*
X152524347Y-83010201D01*
X152599460Y-83005475D01*
X152599462Y-83005475D01*
X152607371Y-83004977D01*
X152614911Y-83002527D01*
X152614912Y-83002527D01*
X152687203Y-82979039D01*
X152765070Y-82979037D01*
X152770722Y-82980873D01*
X152777896Y-82984249D01*
X152855194Y-82998994D01*
X152933539Y-83013939D01*
X152933541Y-83013939D01*
X152941325Y-83015424D01*
X153043096Y-83009021D01*
X153099460Y-83005475D01*
X153099462Y-83005475D01*
X153107372Y-83004977D01*
X153187203Y-82979039D01*
X153265069Y-82979037D01*
X153270720Y-82980873D01*
X153277895Y-82984249D01*
X153355193Y-82998994D01*
X153433538Y-83013939D01*
X153433540Y-83013939D01*
X153441324Y-83015424D01*
X153543095Y-83009021D01*
X153599459Y-83005475D01*
X153599461Y-83005475D01*
X153607371Y-83004977D01*
X153614911Y-83002527D01*
X153614912Y-83002527D01*
X153737190Y-82962797D01*
X153765604Y-82953565D01*
X153906079Y-82864416D01*
X154019971Y-82743133D01*
X154023788Y-82736190D01*
X154028451Y-82729772D01*
X154030173Y-82731023D01*
X154072707Y-82688737D01*
X154132769Y-82673500D01*
X155466719Y-82673500D01*
X155534840Y-82693502D01*
X155573863Y-82733197D01*
X155655022Y-82864348D01*
X155660205Y-82869522D01*
X155676550Y-82885839D01*
X155710628Y-82948122D01*
X155705624Y-83018942D01*
X155663127Y-83075814D01*
X155623029Y-83095907D01*
X155610875Y-83099476D01*
X155609670Y-83100866D01*
X155607999Y-83108549D01*
X155607999Y-83468500D01*
X155587997Y-83536621D01*
X155534341Y-83583114D01*
X155481999Y-83594500D01*
X155434001Y-83594500D01*
X155365880Y-83574498D01*
X155319387Y-83520842D01*
X155308001Y-83468500D01*
X155308001Y-83113116D01*
X155303526Y-83097877D01*
X155302136Y-83096672D01*
X155294453Y-83095001D01*
X154845559Y-83095001D01*
X154837669Y-83095498D01*
X154725929Y-83109614D01*
X154710689Y-83113527D01*
X154570860Y-83168888D01*
X154557070Y-83176470D01*
X154435402Y-83264867D01*
X154423935Y-83275636D01*
X154328068Y-83391517D01*
X154319641Y-83404796D01*
X154255606Y-83540879D01*
X154250746Y-83555837D01*
X154245143Y-83585207D01*
X154246413Y-83598246D01*
X154261338Y-83603001D01*
X154298336Y-83603001D01*
X154366457Y-83623003D01*
X154412950Y-83676659D01*
X154423054Y-83746933D01*
X154395421Y-83809315D01*
X154386919Y-83819593D01*
X154355714Y-83857314D01*
X154296881Y-83897052D01*
X154258629Y-83902999D01*
X154257990Y-83902999D01*
X154244459Y-83906972D01*
X154243449Y-83913998D01*
X154257224Y-83956392D01*
X154257225Y-84034264D01*
X154255128Y-84040717D01*
X154251751Y-84047894D01*
X154250265Y-84055686D01*
X154250264Y-84055688D01*
X154234841Y-84136540D01*
X154220576Y-84211323D01*
X154221074Y-84219234D01*
X154227760Y-84325500D01*
X154231023Y-84377370D01*
X154233473Y-84384910D01*
X154233473Y-84384911D01*
X154256961Y-84457202D01*
X154256963Y-84535069D01*
X154255127Y-84540721D01*
X154251751Y-84547895D01*
X154234695Y-84637309D01*
X154228480Y-84669891D01*
X154220576Y-84711324D01*
X154231023Y-84877371D01*
X154256961Y-84957202D01*
X154256963Y-85035068D01*
X154255127Y-85040719D01*
X154251751Y-85047894D01*
X154220576Y-85211323D01*
X154224296Y-85270450D01*
X154227953Y-85328568D01*
X154231023Y-85377370D01*
X154233472Y-85384906D01*
X154233472Y-85384908D01*
X154240707Y-85407175D01*
X154255434Y-85452498D01*
X154256962Y-85457202D01*
X154256962Y-85535074D01*
X154255127Y-85540722D01*
X154251751Y-85547896D01*
X154250265Y-85555683D01*
X154250265Y-85555685D01*
X154223498Y-85696009D01*
X154220576Y-85711325D01*
X154231023Y-85877372D01*
X154256961Y-85957203D01*
X154256963Y-86035069D01*
X154255127Y-86040720D01*
X154251751Y-86047895D01*
X154220576Y-86211324D01*
X154231023Y-86377371D01*
X154256961Y-86457202D01*
X154256963Y-86535068D01*
X154255127Y-86540719D01*
X154251751Y-86547894D01*
X154220576Y-86711323D01*
X154221074Y-86719234D01*
X154226372Y-86803438D01*
X154231023Y-86877370D01*
X154233473Y-86884910D01*
X154233473Y-86884911D01*
X154256961Y-86957202D01*
X154256963Y-87035069D01*
X154255127Y-87040721D01*
X154251751Y-87047895D01*
X154220576Y-87211324D01*
X154221074Y-87219235D01*
X154226251Y-87301516D01*
X154231023Y-87377371D01*
X154233472Y-87384907D01*
X154233472Y-87384909D01*
X154256961Y-87457201D01*
X154256963Y-87535069D01*
X154255127Y-87540721D01*
X154251751Y-87547895D01*
X154245849Y-87578837D01*
X154226267Y-87681492D01*
X154220576Y-87711324D01*
X154223433Y-87756732D01*
X154228637Y-87839440D01*
X154231023Y-87877371D01*
X154233473Y-87884911D01*
X154233473Y-87884912D01*
X154256961Y-87957203D01*
X154256963Y-88035070D01*
X154255127Y-88040722D01*
X154251751Y-88047896D01*
X154236351Y-88128630D01*
X154222636Y-88200528D01*
X154220576Y-88211325D01*
X154231023Y-88377372D01*
X154256961Y-88457203D01*
X154256963Y-88535069D01*
X154255127Y-88540720D01*
X154251751Y-88547895D01*
X154236351Y-88628629D01*
X154222214Y-88702739D01*
X154220576Y-88711324D01*
X154231023Y-88877371D01*
X154256961Y-88957202D01*
X154256963Y-89035068D01*
X154255127Y-89040719D01*
X154251751Y-89047894D01*
X154246992Y-89072842D01*
X154229157Y-89166341D01*
X154220576Y-89211323D01*
X154224547Y-89274435D01*
X154228481Y-89336959D01*
X154231023Y-89377370D01*
X154253505Y-89446562D01*
X154256962Y-89457202D01*
X154256962Y-89535074D01*
X154255127Y-89540722D01*
X154251751Y-89547896D01*
X154250265Y-89555683D01*
X154250265Y-89555685D01*
X154226585Y-89679826D01*
X154220576Y-89711325D01*
X154225310Y-89786563D01*
X154229676Y-89855957D01*
X154231023Y-89877372D01*
X154256961Y-89957202D01*
X154256963Y-90035069D01*
X154255127Y-90040720D01*
X154251751Y-90047895D01*
X154245981Y-90078143D01*
X154225286Y-90186635D01*
X154220576Y-90211324D01*
X154221074Y-90219235D01*
X154229453Y-90352411D01*
X154231023Y-90377371D01*
X154233472Y-90384909D01*
X154233473Y-90384912D01*
X154256961Y-90457203D01*
X154256963Y-90535070D01*
X154255127Y-90540722D01*
X154251751Y-90547896D01*
X154242146Y-90598247D01*
X154227313Y-90676010D01*
X154220576Y-90711325D01*
X154220801Y-90714896D01*
X154197221Y-90779808D01*
X154140751Y-90822840D01*
X154069981Y-90828510D01*
X154045668Y-90820801D01*
X154018320Y-90808966D01*
X154007672Y-90803750D01*
X153968919Y-90782446D01*
X153958104Y-90779669D01*
X153949297Y-90777408D01*
X153930593Y-90771004D01*
X153919279Y-90766108D01*
X153919278Y-90766108D01*
X153912004Y-90762960D01*
X153904181Y-90761721D01*
X153904171Y-90761718D01*
X153868335Y-90756042D01*
X153856715Y-90753636D01*
X153821570Y-90744613D01*
X153821569Y-90744613D01*
X153813889Y-90742641D01*
X153793635Y-90742641D01*
X153773924Y-90741090D01*
X153761745Y-90739161D01*
X153753916Y-90737921D01*
X153746024Y-90738667D01*
X153709898Y-90742082D01*
X153698040Y-90742641D01*
X146751020Y-90742641D01*
X146682899Y-90722639D01*
X146636406Y-90668983D01*
X146625020Y-90616641D01*
X146625020Y-88031287D01*
X146625547Y-88020104D01*
X146627222Y-88012611D01*
X146626884Y-88001840D01*
X146625082Y-87944521D01*
X146625020Y-87940563D01*
X146625020Y-87912664D01*
X146624516Y-87908673D01*
X146623583Y-87896831D01*
X146623340Y-87889080D01*
X146622194Y-87852631D01*
X146619982Y-87845017D01*
X146619981Y-87845012D01*
X146616543Y-87833179D01*
X146612532Y-87813815D01*
X146610987Y-87801584D01*
X146609994Y-87793723D01*
X146607077Y-87786356D01*
X146607076Y-87786351D01*
X146593718Y-87752612D01*
X146589874Y-87741385D01*
X146587569Y-87733453D01*
X146577538Y-87698927D01*
X146567227Y-87681492D01*
X146558532Y-87663744D01*
X146551072Y-87644903D01*
X146525084Y-87609133D01*
X146518568Y-87599213D01*
X146500100Y-87567985D01*
X146500098Y-87567982D01*
X146496062Y-87561158D01*
X146481741Y-87546837D01*
X146468900Y-87531803D01*
X146461651Y-87521826D01*
X146456992Y-87515413D01*
X146422915Y-87487222D01*
X146414136Y-87479232D01*
X145295651Y-86360746D01*
X145288113Y-86352463D01*
X145283999Y-86345981D01*
X145278218Y-86340552D01*
X145273167Y-86334447D01*
X145275533Y-86332490D01*
X145246831Y-86283634D01*
X145243300Y-86260915D01*
X145235475Y-86136542D01*
X145235475Y-86136541D01*
X145234977Y-86128629D01*
X145209039Y-86048798D01*
X145209037Y-85970932D01*
X145210873Y-85965281D01*
X145214249Y-85958106D01*
X145242021Y-85812518D01*
X145243939Y-85802463D01*
X145243939Y-85802461D01*
X145245424Y-85794677D01*
X145237849Y-85674277D01*
X145235475Y-85636541D01*
X145235475Y-85636539D01*
X145234977Y-85628630D01*
X145231965Y-85619358D01*
X145225293Y-85598825D01*
X145209038Y-85548797D01*
X145209038Y-85470926D01*
X145210873Y-85465278D01*
X145214249Y-85458104D01*
X145219099Y-85432680D01*
X145243939Y-85302461D01*
X145243939Y-85302459D01*
X145245424Y-85294675D01*
X145234977Y-85128628D01*
X145209039Y-85048797D01*
X145209037Y-84970931D01*
X145210873Y-84965280D01*
X145214249Y-84958105D01*
X145245424Y-84794676D01*
X145234977Y-84628629D01*
X145229732Y-84612485D01*
X145209039Y-84548797D01*
X145209037Y-84470930D01*
X145210873Y-84465278D01*
X145214249Y-84458104D01*
X145245424Y-84294675D01*
X145234977Y-84128628D01*
X145209039Y-84048797D01*
X145209037Y-83970931D01*
X145210873Y-83965280D01*
X145214249Y-83958105D01*
X145233475Y-83857314D01*
X145243939Y-83802462D01*
X145243939Y-83802460D01*
X145245424Y-83794676D01*
X145234977Y-83628629D01*
X145228878Y-83609856D01*
X145191903Y-83496058D01*
X145183565Y-83470396D01*
X145094416Y-83329921D01*
X144973133Y-83216029D01*
X144827337Y-83135877D01*
X144666189Y-83094501D01*
X143391567Y-83094501D01*
X143341182Y-83100866D01*
X143275802Y-83109125D01*
X143275801Y-83109125D01*
X143267935Y-83110119D01*
X143260564Y-83113037D01*
X143252885Y-83115009D01*
X143252458Y-83113346D01*
X143220206Y-83119500D01*
X141086645Y-83119500D01*
X141018524Y-83099498D01*
X140972031Y-83045842D01*
X140961927Y-82975568D01*
X140991421Y-82910988D01*
X140997472Y-82904482D01*
X141022739Y-82879171D01*
X141031751Y-82867760D01*
X141116816Y-82729757D01*
X141122963Y-82716576D01*
X141174138Y-82562290D01*
X141177005Y-82548914D01*
X141186672Y-82454562D01*
X141187000Y-82448146D01*
X141187000Y-82329330D01*
X141207002Y-82261209D01*
X141260658Y-82214716D01*
X141330932Y-82204612D01*
X141344332Y-82207288D01*
G37*
G04 #@! TD.AperFunction*
G04 #@! TA.AperFunction,Conductor*
G36*
X169252621Y-66249502D02*
G01*
X169299114Y-66303158D01*
X169310500Y-66355500D01*
X169310500Y-69833570D01*
X169290498Y-69901691D01*
X169256115Y-69935490D01*
X169256615Y-69936120D01*
X169250875Y-69940669D01*
X169244651Y-69944521D01*
X169119694Y-70069697D01*
X169115854Y-70075927D01*
X169035483Y-70206313D01*
X169026885Y-70220261D01*
X169010277Y-70270334D01*
X168986849Y-70340968D01*
X168971203Y-70388138D01*
X168970503Y-70394974D01*
X168970502Y-70394977D01*
X168968179Y-70417652D01*
X168960500Y-70492599D01*
X168960501Y-71493400D01*
X168971474Y-71599167D01*
X168973658Y-71605713D01*
X169024730Y-71758792D01*
X169027450Y-71766946D01*
X169120521Y-71917349D01*
X169245697Y-72042306D01*
X169251927Y-72046146D01*
X169257675Y-72050686D01*
X169256625Y-72052016D01*
X169298108Y-72098108D01*
X169310500Y-72152598D01*
X169310500Y-72246570D01*
X169290498Y-72314691D01*
X169256115Y-72348490D01*
X169256615Y-72349120D01*
X169250875Y-72353669D01*
X169244651Y-72357521D01*
X169239478Y-72362703D01*
X169215588Y-72386635D01*
X169119694Y-72482697D01*
X169026885Y-72633261D01*
X169024581Y-72640208D01*
X168976565Y-72784973D01*
X168971203Y-72801138D01*
X168970503Y-72807974D01*
X168970502Y-72807977D01*
X168966091Y-72851030D01*
X168960500Y-72905599D01*
X168960501Y-73906400D01*
X168971474Y-74012167D01*
X168973658Y-74018713D01*
X169024730Y-74171792D01*
X169027450Y-74179946D01*
X169120521Y-74330349D01*
X169245697Y-74455306D01*
X169396261Y-74548115D01*
X169435241Y-74561044D01*
X169557610Y-74601632D01*
X169557612Y-74601632D01*
X169564138Y-74603797D01*
X169570974Y-74604497D01*
X169570977Y-74604498D01*
X169614030Y-74608909D01*
X169668599Y-74614500D01*
X169697832Y-74614500D01*
X170384490Y-74614499D01*
X170452611Y-74634501D01*
X170499104Y-74688157D01*
X170510490Y-74740499D01*
X170510490Y-75937415D01*
X170490488Y-76005536D01*
X170473585Y-76026511D01*
X169827499Y-76672596D01*
X169765187Y-76706621D01*
X169738404Y-76709500D01*
X167715947Y-76709500D01*
X167704764Y-76708973D01*
X167697271Y-76707298D01*
X167689345Y-76707547D01*
X167689344Y-76707547D01*
X167629194Y-76709438D01*
X167625235Y-76709500D01*
X167597324Y-76709500D01*
X167593390Y-76709997D01*
X167593389Y-76709997D01*
X167593324Y-76710005D01*
X167581487Y-76710938D01*
X167549670Y-76711938D01*
X167545209Y-76712078D01*
X167537290Y-76712327D01*
X167519634Y-76717456D01*
X167517838Y-76717978D01*
X167498486Y-76721986D01*
X167491415Y-76722880D01*
X167478383Y-76724526D01*
X167471014Y-76727443D01*
X167471012Y-76727444D01*
X167437277Y-76740800D01*
X167426049Y-76744645D01*
X167383587Y-76756982D01*
X167376765Y-76761016D01*
X167376759Y-76761019D01*
X167366148Y-76767294D01*
X167348398Y-76775990D01*
X167336936Y-76780528D01*
X167336931Y-76780531D01*
X167329563Y-76783448D01*
X167323148Y-76788109D01*
X167293805Y-76809427D01*
X167283887Y-76815943D01*
X167265199Y-76826995D01*
X167245817Y-76838458D01*
X167231493Y-76852782D01*
X167216461Y-76865621D01*
X167200073Y-76877528D01*
X167171892Y-76911593D01*
X167163902Y-76920373D01*
X158001681Y-86082594D01*
X157939369Y-86116620D01*
X157912586Y-86119499D01*
X156784189Y-86119499D01*
X156716068Y-86099497D01*
X156669575Y-86045841D01*
X156659471Y-85975567D01*
X156662830Y-85961122D01*
X156664249Y-85958106D01*
X156665736Y-85950314D01*
X156693939Y-85802463D01*
X156693939Y-85802461D01*
X156695424Y-85794677D01*
X156687849Y-85674277D01*
X156685475Y-85636541D01*
X156685475Y-85636539D01*
X156684977Y-85628630D01*
X156681965Y-85619358D01*
X156675293Y-85598825D01*
X156659038Y-85548797D01*
X156659038Y-85470926D01*
X156660873Y-85465278D01*
X156664249Y-85458104D01*
X156669099Y-85432680D01*
X156693939Y-85302461D01*
X156693939Y-85302459D01*
X156695424Y-85294675D01*
X156684977Y-85128628D01*
X156659039Y-85048797D01*
X156659037Y-84970931D01*
X156660873Y-84965280D01*
X156664249Y-84958105D01*
X156695424Y-84794676D01*
X156684977Y-84628629D01*
X156679732Y-84612485D01*
X156659039Y-84548797D01*
X156659037Y-84470930D01*
X156660873Y-84465278D01*
X156664249Y-84458104D01*
X156695424Y-84294675D01*
X156684977Y-84128628D01*
X156658773Y-84047979D01*
X156656746Y-83977012D01*
X156658773Y-83970107D01*
X156665255Y-83950157D01*
X156670857Y-83920793D01*
X156669587Y-83907754D01*
X156636000Y-83897053D01*
X156636326Y-83896029D01*
X156591942Y-83882997D01*
X156553679Y-83844515D01*
X156548664Y-83836614D01*
X156544416Y-83829920D01*
X156534759Y-83820852D01*
X156498793Y-83759641D01*
X156501629Y-83688702D01*
X156542368Y-83630556D01*
X156608076Y-83603667D01*
X156621011Y-83603001D01*
X156658010Y-83603001D01*
X156671541Y-83599028D01*
X156672551Y-83592001D01*
X156635560Y-83478153D01*
X156628859Y-83463915D01*
X156551499Y-83342014D01*
X156531886Y-83273780D01*
X156552277Y-83205775D01*
X156606197Y-83159589D01*
X156657884Y-83148500D01*
X156978900Y-83148500D01*
X156982146Y-83148163D01*
X156982150Y-83148163D01*
X157077808Y-83138238D01*
X157077812Y-83138237D01*
X157084666Y-83137526D01*
X157091202Y-83135345D01*
X157091204Y-83135345D01*
X157245498Y-83083868D01*
X157252446Y-83081550D01*
X157402848Y-82988478D01*
X157527805Y-82863303D01*
X157530602Y-82858765D01*
X157587853Y-82818176D01*
X157658776Y-82814946D01*
X157720187Y-82850572D01*
X157727562Y-82859068D01*
X157735598Y-82869207D01*
X157850329Y-82983739D01*
X157861740Y-82992751D01*
X157999743Y-83077816D01*
X158012924Y-83083963D01*
X158167210Y-83135138D01*
X158180586Y-83138005D01*
X158274938Y-83147672D01*
X158281354Y-83148000D01*
X158393885Y-83148000D01*
X158409124Y-83143525D01*
X158410329Y-83142135D01*
X158412000Y-83134452D01*
X158412000Y-83129884D01*
X158920000Y-83129884D01*
X158924475Y-83145123D01*
X158925865Y-83146328D01*
X158933548Y-83147999D01*
X159050595Y-83147999D01*
X159057114Y-83147662D01*
X159152706Y-83137743D01*
X159166100Y-83134851D01*
X159320284Y-83083412D01*
X159333462Y-83077239D01*
X159471307Y-82991937D01*
X159482708Y-82982901D01*
X159597239Y-82868171D01*
X159606251Y-82856760D01*
X159691316Y-82718757D01*
X159697463Y-82705576D01*
X159748638Y-82551290D01*
X159751505Y-82537914D01*
X159761172Y-82443562D01*
X159761500Y-82437146D01*
X159761500Y-82187115D01*
X159757025Y-82171876D01*
X159755635Y-82170671D01*
X159747952Y-82169000D01*
X158938115Y-82169000D01*
X158922876Y-82173475D01*
X158921671Y-82174865D01*
X158920000Y-82182548D01*
X158920000Y-83129884D01*
X158412000Y-83129884D01*
X158412000Y-81047115D01*
X158397661Y-80998281D01*
X158395604Y-80995080D01*
X158390500Y-80959581D01*
X158390500Y-80623885D01*
X158898500Y-80623885D01*
X158912839Y-80672719D01*
X158914896Y-80675920D01*
X158920000Y-80711419D01*
X158920000Y-81642885D01*
X158924475Y-81658124D01*
X158925865Y-81659329D01*
X158933548Y-81661000D01*
X159743384Y-81661000D01*
X159758623Y-81656525D01*
X159759828Y-81655135D01*
X159761499Y-81647452D01*
X159761499Y-81392905D01*
X159761162Y-81386386D01*
X159751243Y-81290794D01*
X159748351Y-81277400D01*
X159696912Y-81123216D01*
X159690739Y-81110038D01*
X159605437Y-80972193D01*
X159596401Y-80960791D01*
X159549414Y-80913886D01*
X159515336Y-80851604D01*
X159520339Y-80780783D01*
X159549260Y-80735696D01*
X159575739Y-80709171D01*
X159584751Y-80697760D01*
X159669816Y-80559757D01*
X159675963Y-80546576D01*
X159727138Y-80392290D01*
X159730005Y-80378914D01*
X159739672Y-80284562D01*
X159740000Y-80278146D01*
X159740000Y-80028115D01*
X159735525Y-80012876D01*
X159734135Y-80011671D01*
X159726452Y-80010000D01*
X158916615Y-80010000D01*
X158901376Y-80014475D01*
X158900171Y-80015865D01*
X158898500Y-80023548D01*
X158898500Y-80623885D01*
X158390500Y-80623885D01*
X158390500Y-79483885D01*
X158898500Y-79483885D01*
X158902975Y-79499124D01*
X158904365Y-79500329D01*
X158912048Y-79502000D01*
X159721884Y-79502000D01*
X159737123Y-79497525D01*
X159738328Y-79496135D01*
X159739999Y-79488452D01*
X159739999Y-79233905D01*
X159739662Y-79227386D01*
X159729743Y-79131794D01*
X159726851Y-79118400D01*
X159675412Y-78964216D01*
X159669239Y-78951038D01*
X159583937Y-78813193D01*
X159574901Y-78801792D01*
X159460171Y-78687261D01*
X159448760Y-78678249D01*
X159310757Y-78593184D01*
X159297576Y-78587037D01*
X159143290Y-78535862D01*
X159129914Y-78532995D01*
X159035562Y-78523328D01*
X159029145Y-78523000D01*
X158916615Y-78523000D01*
X158901376Y-78527475D01*
X158900171Y-78528865D01*
X158898500Y-78536548D01*
X158898500Y-79483885D01*
X158390500Y-79483885D01*
X158390500Y-78541116D01*
X158386025Y-78525877D01*
X158384635Y-78524672D01*
X158376952Y-78523001D01*
X158259905Y-78523001D01*
X158253386Y-78523338D01*
X158157794Y-78533257D01*
X158144400Y-78536149D01*
X157990216Y-78587588D01*
X157977038Y-78593761D01*
X157839193Y-78679063D01*
X157827792Y-78688099D01*
X157713262Y-78802828D01*
X157706206Y-78811762D01*
X157648288Y-78852823D01*
X157577365Y-78856053D01*
X157515954Y-78820426D01*
X157509154Y-78812593D01*
X157505478Y-78806652D01*
X157380303Y-78681695D01*
X157375507Y-78678739D01*
X157334845Y-78621386D01*
X157328000Y-78580422D01*
X157328000Y-76460871D01*
X157348002Y-76392750D01*
X157364905Y-76371776D01*
X160447911Y-73288770D01*
X160462323Y-73276384D01*
X160473918Y-73267851D01*
X160473923Y-73267846D01*
X160479818Y-73263508D01*
X160484557Y-73257930D01*
X160484560Y-73257927D01*
X160514035Y-73223232D01*
X160520965Y-73215716D01*
X160526660Y-73210021D01*
X160544281Y-73187749D01*
X160547072Y-73184345D01*
X160589591Y-73134297D01*
X160589592Y-73134295D01*
X160594333Y-73128715D01*
X160597661Y-73122199D01*
X160601028Y-73117150D01*
X160604195Y-73112021D01*
X160608734Y-73106284D01*
X160639655Y-73040125D01*
X160641561Y-73036225D01*
X160674769Y-72971192D01*
X160676508Y-72964083D01*
X160678604Y-72958449D01*
X160680523Y-72952679D01*
X160683622Y-72946050D01*
X160686406Y-72932669D01*
X160698490Y-72874571D01*
X160699461Y-72870282D01*
X160716808Y-72799390D01*
X160717500Y-72788236D01*
X160717535Y-72788238D01*
X160717775Y-72784266D01*
X160718152Y-72780045D01*
X160719641Y-72772885D01*
X160717546Y-72695458D01*
X160717500Y-72692050D01*
X160717500Y-66355500D01*
X160737502Y-66287379D01*
X160791158Y-66240886D01*
X160843500Y-66229500D01*
X169184500Y-66229500D01*
X169252621Y-66249502D01*
G37*
G04 #@! TD.AperFunction*
G04 #@! TA.AperFunction,Conductor*
G36*
X136526513Y-80860477D02*
G01*
X136537643Y-80870347D01*
X136592697Y-80925305D01*
X136597235Y-80928102D01*
X136637824Y-80985353D01*
X136641054Y-81056276D01*
X136605428Y-81117687D01*
X136596932Y-81125062D01*
X136586793Y-81133098D01*
X136472261Y-81247829D01*
X136463249Y-81259240D01*
X136378184Y-81397243D01*
X136372037Y-81410424D01*
X136320862Y-81564710D01*
X136317995Y-81578086D01*
X136308328Y-81672438D01*
X136308000Y-81678855D01*
X136308000Y-81791385D01*
X136312475Y-81806624D01*
X136313865Y-81807829D01*
X136321548Y-81809500D01*
X140082000Y-81809500D01*
X140150121Y-81829502D01*
X140196614Y-81883158D01*
X140208000Y-81935500D01*
X140208000Y-82191500D01*
X140187998Y-82259621D01*
X140134342Y-82306114D01*
X140082000Y-82317500D01*
X136326116Y-82317500D01*
X136310877Y-82321975D01*
X136309672Y-82323365D01*
X136308001Y-82331048D01*
X136308001Y-82448095D01*
X136308338Y-82454614D01*
X136318257Y-82550206D01*
X136321149Y-82563600D01*
X136372588Y-82717784D01*
X136378761Y-82730962D01*
X136464063Y-82868807D01*
X136473099Y-82880208D01*
X136497260Y-82904327D01*
X136531339Y-82966610D01*
X136526336Y-83037430D01*
X136483839Y-83094302D01*
X136417340Y-83119171D01*
X136408242Y-83119500D01*
X135629595Y-83119500D01*
X135561474Y-83099498D01*
X135540499Y-83082595D01*
X134782404Y-82324499D01*
X134748379Y-82262187D01*
X134745500Y-82235404D01*
X134745500Y-81333541D01*
X134765502Y-81265420D01*
X134819158Y-81218927D01*
X134889432Y-81208823D01*
X134945561Y-81231605D01*
X135037104Y-81298115D01*
X135052248Y-81309118D01*
X135058276Y-81311802D01*
X135058278Y-81311803D01*
X135220681Y-81384109D01*
X135226712Y-81386794D01*
X135320112Y-81406647D01*
X135407056Y-81425128D01*
X135407061Y-81425128D01*
X135413513Y-81426500D01*
X135604487Y-81426500D01*
X135610939Y-81425128D01*
X135610944Y-81425128D01*
X135697888Y-81406647D01*
X135791288Y-81386794D01*
X135797319Y-81384109D01*
X135959722Y-81311803D01*
X135959724Y-81311802D01*
X135965752Y-81309118D01*
X135986072Y-81294355D01*
X136072439Y-81231605D01*
X136120253Y-81196866D01*
X136191929Y-81117262D01*
X136243621Y-81059852D01*
X136243622Y-81059851D01*
X136248040Y-81054944D01*
X136339507Y-80896519D01*
X136390888Y-80847527D01*
X136460602Y-80834091D01*
X136526513Y-80860477D01*
G37*
G04 #@! TD.AperFunction*
G04 #@! TA.AperFunction,Conductor*
G36*
X176719395Y-74059502D02*
G01*
X176758707Y-74099665D01*
X176826987Y-74211088D01*
X176973250Y-74379938D01*
X176977230Y-74383242D01*
X176981981Y-74387187D01*
X177021616Y-74446090D01*
X177023113Y-74517071D01*
X176985997Y-74577593D01*
X176945725Y-74602112D01*
X176881364Y-74626240D01*
X176830295Y-74645385D01*
X176713739Y-74732739D01*
X176626385Y-74849295D01*
X176575255Y-74985684D01*
X176568500Y-75047866D01*
X176568500Y-76844134D01*
X176575255Y-76906316D01*
X176626385Y-77042705D01*
X176713739Y-77159261D01*
X176830295Y-77246615D01*
X176966684Y-77297745D01*
X177028866Y-77304500D01*
X178825134Y-77304500D01*
X178887316Y-77297745D01*
X179023705Y-77246615D01*
X179140261Y-77159261D01*
X179227615Y-77042705D01*
X179230681Y-77045003D01*
X179268136Y-77007563D01*
X179337513Y-76992485D01*
X179404029Y-77017309D01*
X179446564Y-77074153D01*
X179454500Y-77118162D01*
X179454500Y-82393838D01*
X179434498Y-82461959D01*
X179380842Y-82508452D01*
X179310568Y-82518556D01*
X179245988Y-82489062D01*
X179229136Y-82468155D01*
X179227615Y-82469295D01*
X179213958Y-82451073D01*
X179140261Y-82352739D01*
X179023705Y-82265385D01*
X178887316Y-82214255D01*
X178825134Y-82207500D01*
X177028866Y-82207500D01*
X176966684Y-82214255D01*
X176830295Y-82265385D01*
X176713739Y-82352739D01*
X176626385Y-82469295D01*
X176575255Y-82605684D01*
X176568500Y-82667866D01*
X176568500Y-82806500D01*
X176548498Y-82874621D01*
X176494842Y-82921114D01*
X176442500Y-82932500D01*
X173635994Y-82932500D01*
X173567873Y-82912498D01*
X173521380Y-82858842D01*
X173511276Y-82788568D01*
X173540770Y-82723988D01*
X173596118Y-82686976D01*
X173624785Y-82677412D01*
X173637964Y-82671238D01*
X173775810Y-82585937D01*
X173787209Y-82576901D01*
X173901738Y-82462172D01*
X173910750Y-82450761D01*
X173995816Y-82312758D01*
X174001963Y-82299577D01*
X174053138Y-82145291D01*
X174056005Y-82131915D01*
X174065672Y-82037563D01*
X174066000Y-82031147D01*
X174066000Y-81806115D01*
X174061525Y-81790876D01*
X174060135Y-81789671D01*
X174052452Y-81788000D01*
X172830000Y-81788000D01*
X172761879Y-81767998D01*
X172715386Y-81714342D01*
X172704000Y-81662000D01*
X172704000Y-81261885D01*
X173212000Y-81261885D01*
X173216475Y-81277124D01*
X173217865Y-81278329D01*
X173225548Y-81280000D01*
X174047885Y-81280000D01*
X174063124Y-81275525D01*
X174064329Y-81274135D01*
X174066000Y-81266452D01*
X174066000Y-81036902D01*
X174065663Y-81030387D01*
X174055744Y-80934795D01*
X174052850Y-80921396D01*
X174001412Y-80767215D01*
X173995238Y-80754036D01*
X173909937Y-80616190D01*
X173900901Y-80604791D01*
X173786172Y-80490262D01*
X173774761Y-80481250D01*
X173636758Y-80396184D01*
X173623577Y-80390037D01*
X173469291Y-80338862D01*
X173455915Y-80335995D01*
X173361563Y-80326328D01*
X173355146Y-80326000D01*
X173230115Y-80326000D01*
X173214876Y-80330475D01*
X173213671Y-80331865D01*
X173212000Y-80339548D01*
X173212000Y-81261885D01*
X172704000Y-81261885D01*
X172704000Y-80344115D01*
X172699525Y-80328876D01*
X172698135Y-80327671D01*
X172690452Y-80326000D01*
X172560902Y-80326000D01*
X172554387Y-80326337D01*
X172458795Y-80336256D01*
X172445396Y-80339150D01*
X172291215Y-80390588D01*
X172278036Y-80396762D01*
X172140190Y-80482063D01*
X172128795Y-80491095D01*
X172047570Y-80572462D01*
X171985288Y-80606541D01*
X171914468Y-80601538D01*
X171869380Y-80572617D01*
X171856498Y-80559757D01*
X171781303Y-80484694D01*
X171637903Y-80396301D01*
X171636969Y-80395725D01*
X171636967Y-80395724D01*
X171630739Y-80391885D01*
X171550996Y-80365436D01*
X171469390Y-80338368D01*
X171469388Y-80338368D01*
X171462862Y-80336203D01*
X171456026Y-80335503D01*
X171456023Y-80335502D01*
X171412970Y-80331091D01*
X171358401Y-80325500D01*
X170961088Y-80325500D01*
X170557600Y-80325501D01*
X170451833Y-80336474D01*
X170443812Y-80339150D01*
X170290998Y-80390133D01*
X170290996Y-80390134D01*
X170284054Y-80392450D01*
X170133651Y-80485521D01*
X170008694Y-80610697D01*
X169978811Y-80659176D01*
X169920339Y-80754036D01*
X169915885Y-80761261D01*
X169913581Y-80768208D01*
X169898337Y-80814167D01*
X169857907Y-80872527D01*
X169792342Y-80899764D01*
X169778744Y-80900500D01*
X169565197Y-80900500D01*
X169497076Y-80880498D01*
X169450583Y-80826842D01*
X169445674Y-80814377D01*
X169429867Y-80766998D01*
X169429866Y-80766996D01*
X169427550Y-80760054D01*
X169334479Y-80609651D01*
X169209303Y-80484694D01*
X169065903Y-80396301D01*
X169064969Y-80395725D01*
X169064967Y-80395724D01*
X169058739Y-80391885D01*
X168978996Y-80365436D01*
X168897390Y-80338368D01*
X168897388Y-80338368D01*
X168890862Y-80336203D01*
X168884026Y-80335503D01*
X168884023Y-80335502D01*
X168840970Y-80331091D01*
X168786401Y-80325500D01*
X168413895Y-80325500D01*
X168035600Y-80325501D01*
X167929833Y-80336474D01*
X167921812Y-80339150D01*
X167768998Y-80390133D01*
X167768996Y-80390134D01*
X167762054Y-80392450D01*
X167611651Y-80485521D01*
X167486694Y-80610697D01*
X167484092Y-80614918D01*
X167426963Y-80655417D01*
X167356040Y-80658645D01*
X167294630Y-80623016D01*
X167288079Y-80615468D01*
X167284479Y-80609651D01*
X167159303Y-80484694D01*
X167015903Y-80396301D01*
X167014969Y-80395725D01*
X167014967Y-80395724D01*
X167008739Y-80391885D01*
X166928996Y-80365436D01*
X166847390Y-80338368D01*
X166847388Y-80338368D01*
X166840862Y-80336203D01*
X166834026Y-80335503D01*
X166834023Y-80335502D01*
X166790970Y-80331091D01*
X166736401Y-80325500D01*
X166491184Y-80325500D01*
X166423063Y-80305498D01*
X166376570Y-80251842D01*
X166366466Y-80181568D01*
X166395960Y-80116988D01*
X166402089Y-80110405D01*
X166721089Y-79791405D01*
X166783401Y-79757379D01*
X166810184Y-79754500D01*
X170990233Y-79754500D01*
X171001416Y-79755027D01*
X171008909Y-79756702D01*
X171016835Y-79756453D01*
X171016836Y-79756453D01*
X171076986Y-79754562D01*
X171080945Y-79754500D01*
X171108856Y-79754500D01*
X171112791Y-79754003D01*
X171112856Y-79753995D01*
X171124693Y-79753062D01*
X171156951Y-79752048D01*
X171160970Y-79751922D01*
X171168889Y-79751673D01*
X171188343Y-79746021D01*
X171207700Y-79742013D01*
X171219930Y-79740468D01*
X171219931Y-79740468D01*
X171227797Y-79739474D01*
X171235168Y-79736555D01*
X171235170Y-79736555D01*
X171268912Y-79723196D01*
X171280142Y-79719351D01*
X171314983Y-79709229D01*
X171314984Y-79709229D01*
X171322593Y-79707018D01*
X171329412Y-79702985D01*
X171329417Y-79702983D01*
X171340028Y-79696707D01*
X171357776Y-79688012D01*
X171376617Y-79680552D01*
X171393027Y-79668630D01*
X171412387Y-79654564D01*
X171422307Y-79648048D01*
X171453535Y-79629580D01*
X171453538Y-79629578D01*
X171460362Y-79625542D01*
X171474683Y-79611221D01*
X171489717Y-79598380D01*
X171506107Y-79586472D01*
X171534298Y-79552395D01*
X171542288Y-79543616D01*
X172461247Y-78624657D01*
X172469537Y-78617113D01*
X172476018Y-78613000D01*
X172494085Y-78593761D01*
X172522658Y-78563333D01*
X172525413Y-78560491D01*
X172545135Y-78540769D01*
X172547612Y-78537576D01*
X172555317Y-78528555D01*
X172580159Y-78502100D01*
X172585586Y-78496321D01*
X172589407Y-78489371D01*
X172595346Y-78478568D01*
X172606202Y-78462041D01*
X172613757Y-78452302D01*
X172613758Y-78452300D01*
X172618614Y-78446040D01*
X172636174Y-78405460D01*
X172641391Y-78394812D01*
X172658875Y-78363009D01*
X172658876Y-78363007D01*
X172662695Y-78356060D01*
X172665903Y-78343568D01*
X172667733Y-78336438D01*
X172674137Y-78317734D01*
X172679033Y-78306420D01*
X172679033Y-78306419D01*
X172682181Y-78299145D01*
X172683420Y-78291322D01*
X172683423Y-78291312D01*
X172689099Y-78255476D01*
X172691505Y-78243856D01*
X172700528Y-78208711D01*
X172700528Y-78208710D01*
X172702500Y-78201030D01*
X172702500Y-78180776D01*
X172704051Y-78161065D01*
X172705980Y-78148886D01*
X172707220Y-78141057D01*
X172703059Y-78097038D01*
X172702500Y-78085181D01*
X172702500Y-74642782D01*
X172722502Y-74574661D01*
X172762197Y-74535637D01*
X172893349Y-74454479D01*
X173018306Y-74329303D01*
X173093739Y-74206928D01*
X173107275Y-74184969D01*
X173107276Y-74184967D01*
X173111115Y-74178739D01*
X173128663Y-74125833D01*
X173169093Y-74067473D01*
X173234658Y-74040236D01*
X173248256Y-74039500D01*
X176651274Y-74039500D01*
X176719395Y-74059502D01*
G37*
G04 #@! TD.AperFunction*
G04 #@! TA.AperFunction,Conductor*
G36*
X159142621Y-66249502D02*
G01*
X159189114Y-66303158D01*
X159200500Y-66355500D01*
X159200500Y-72338629D01*
X159180498Y-72406750D01*
X159163595Y-72427724D01*
X156171095Y-75420224D01*
X156108783Y-75454250D01*
X156037968Y-75449185D01*
X155981132Y-75406638D01*
X155956321Y-75340118D01*
X155956000Y-75331129D01*
X155956000Y-71755000D01*
X141097000Y-71755000D01*
X141097000Y-78946473D01*
X141076998Y-79014594D01*
X141023342Y-79061087D01*
X140953068Y-79071191D01*
X140903426Y-79049874D01*
X140902303Y-79051695D01*
X140772384Y-78971611D01*
X140724890Y-78918838D01*
X140712500Y-78864351D01*
X140712500Y-71105371D01*
X140732502Y-71037250D01*
X140749405Y-71016276D01*
X140993276Y-70772405D01*
X141055588Y-70738379D01*
X141082371Y-70735500D01*
X150046930Y-70735500D01*
X150065880Y-70736933D01*
X150080115Y-70739099D01*
X150080119Y-70739099D01*
X150087349Y-70740199D01*
X150094641Y-70739606D01*
X150094644Y-70739606D01*
X150140018Y-70735915D01*
X150150233Y-70735500D01*
X150158293Y-70735500D01*
X150171583Y-70733951D01*
X150186507Y-70732211D01*
X150190882Y-70731778D01*
X150256339Y-70726454D01*
X150256342Y-70726453D01*
X150263637Y-70725860D01*
X150270601Y-70723604D01*
X150276560Y-70722413D01*
X150282415Y-70721029D01*
X150289681Y-70720182D01*
X150358327Y-70695265D01*
X150362455Y-70693848D01*
X150424936Y-70673607D01*
X150424938Y-70673606D01*
X150431899Y-70671351D01*
X150438154Y-70667555D01*
X150443628Y-70665049D01*
X150449058Y-70662330D01*
X150455937Y-70659833D01*
X150516976Y-70619814D01*
X150520680Y-70617477D01*
X150583107Y-70579595D01*
X150591484Y-70572197D01*
X150591508Y-70572224D01*
X150594500Y-70569571D01*
X150597733Y-70566868D01*
X150603852Y-70562856D01*
X150657128Y-70506617D01*
X150659506Y-70504175D01*
X151491911Y-69671770D01*
X151506323Y-69659384D01*
X151517918Y-69650851D01*
X151517923Y-69650846D01*
X151523818Y-69646508D01*
X151528557Y-69640930D01*
X151528560Y-69640927D01*
X151558035Y-69606232D01*
X151564965Y-69598716D01*
X151570660Y-69593021D01*
X151588281Y-69570749D01*
X151591072Y-69567345D01*
X151633591Y-69517297D01*
X151633592Y-69517295D01*
X151638333Y-69511715D01*
X151641661Y-69505199D01*
X151645028Y-69500150D01*
X151648195Y-69495021D01*
X151652734Y-69489284D01*
X151683655Y-69423125D01*
X151685561Y-69419225D01*
X151718769Y-69354192D01*
X151720508Y-69347083D01*
X151722604Y-69341449D01*
X151724523Y-69335679D01*
X151727622Y-69329050D01*
X151733678Y-69299938D01*
X151742490Y-69257571D01*
X151743461Y-69253282D01*
X151748224Y-69233818D01*
X151760808Y-69182390D01*
X151761500Y-69171236D01*
X151761535Y-69171238D01*
X151761775Y-69167266D01*
X151762152Y-69163045D01*
X151763641Y-69155885D01*
X151761546Y-69078458D01*
X151761500Y-69075050D01*
X151761500Y-68330500D01*
X151781502Y-68262379D01*
X151835158Y-68215886D01*
X151887500Y-68204500D01*
X152681134Y-68204500D01*
X152743316Y-68197745D01*
X152743326Y-68197838D01*
X152763266Y-68195500D01*
X153413219Y-68195500D01*
X153481340Y-68215502D01*
X153520363Y-68255197D01*
X153601522Y-68386348D01*
X153726697Y-68511305D01*
X153732927Y-68515145D01*
X153732928Y-68515146D01*
X153870288Y-68599816D01*
X153877262Y-68604115D01*
X153907273Y-68614069D01*
X154038611Y-68657632D01*
X154038613Y-68657632D01*
X154045139Y-68659797D01*
X154051975Y-68660497D01*
X154051978Y-68660498D01*
X154095031Y-68664909D01*
X154149600Y-68670500D01*
X154925400Y-68670500D01*
X154928646Y-68670163D01*
X154928650Y-68670163D01*
X155024308Y-68660238D01*
X155024312Y-68660237D01*
X155031166Y-68659526D01*
X155037702Y-68657345D01*
X155037704Y-68657345D01*
X155169806Y-68613272D01*
X155198946Y-68603550D01*
X155349348Y-68510478D01*
X155474305Y-68385303D01*
X155477102Y-68380765D01*
X155534353Y-68340176D01*
X155605276Y-68336946D01*
X155666687Y-68372572D01*
X155674062Y-68381068D01*
X155682098Y-68391207D01*
X155796829Y-68505739D01*
X155808240Y-68514751D01*
X155946243Y-68599816D01*
X155959424Y-68605963D01*
X156113710Y-68657138D01*
X156127086Y-68660005D01*
X156221438Y-68669672D01*
X156227854Y-68670000D01*
X156340385Y-68670000D01*
X156355624Y-68665525D01*
X156356829Y-68664135D01*
X156358500Y-68656452D01*
X156358500Y-68651884D01*
X156866500Y-68651884D01*
X156870975Y-68667123D01*
X156872365Y-68668328D01*
X156880048Y-68669999D01*
X156997095Y-68669999D01*
X157003614Y-68669662D01*
X157099206Y-68659743D01*
X157112600Y-68656851D01*
X157266784Y-68605412D01*
X157279962Y-68599239D01*
X157417807Y-68513937D01*
X157429208Y-68504901D01*
X157543739Y-68390171D01*
X157552751Y-68378760D01*
X157637816Y-68240757D01*
X157643963Y-68227576D01*
X157695138Y-68073290D01*
X157698005Y-68059914D01*
X157707672Y-67965562D01*
X157708000Y-67959146D01*
X157708000Y-67709115D01*
X157703525Y-67693876D01*
X157702135Y-67692671D01*
X157694452Y-67691000D01*
X156884615Y-67691000D01*
X156869376Y-67695475D01*
X156868171Y-67696865D01*
X156866500Y-67704548D01*
X156866500Y-68651884D01*
X156358500Y-68651884D01*
X156358500Y-67309000D01*
X156378502Y-67240879D01*
X156432158Y-67194386D01*
X156484500Y-67183000D01*
X157689884Y-67183000D01*
X157705123Y-67178525D01*
X157706328Y-67177135D01*
X157707999Y-67169452D01*
X157707999Y-66914905D01*
X157707662Y-66908386D01*
X157697743Y-66812794D01*
X157694851Y-66799400D01*
X157643412Y-66645216D01*
X157637239Y-66632038D01*
X157551937Y-66494193D01*
X157542901Y-66482792D01*
X157504716Y-66444673D01*
X157470637Y-66382390D01*
X157475640Y-66311570D01*
X157518138Y-66254697D01*
X157584636Y-66229829D01*
X157593734Y-66229500D01*
X159074500Y-66229500D01*
X159142621Y-66249502D01*
G37*
G04 #@! TD.AperFunction*
G04 #@! TA.AperFunction,Conductor*
G36*
X176719395Y-68979502D02*
G01*
X176758707Y-69019665D01*
X176826987Y-69131088D01*
X176973250Y-69299938D01*
X177145126Y-69442632D01*
X177213624Y-69482659D01*
X177218955Y-69485774D01*
X177267679Y-69537412D01*
X177280750Y-69607195D01*
X177254019Y-69672967D01*
X177213562Y-69706327D01*
X177205457Y-69710546D01*
X177196738Y-69716036D01*
X177026433Y-69843905D01*
X177018726Y-69850748D01*
X176871590Y-70004717D01*
X176865104Y-70012727D01*
X176745098Y-70188649D01*
X176740000Y-70197623D01*
X176650338Y-70390783D01*
X176646775Y-70400470D01*
X176591389Y-70600183D01*
X176592912Y-70608607D01*
X176605292Y-70612000D01*
X178055000Y-70612000D01*
X178123121Y-70632002D01*
X178169614Y-70685658D01*
X178181000Y-70738000D01*
X178181000Y-70994000D01*
X178160998Y-71062121D01*
X178107342Y-71108614D01*
X178055000Y-71120000D01*
X176610225Y-71120000D01*
X176596694Y-71123973D01*
X176595257Y-71133966D01*
X176625565Y-71268446D01*
X176628645Y-71278275D01*
X176708770Y-71475603D01*
X176713413Y-71484794D01*
X176824694Y-71666388D01*
X176830777Y-71674699D01*
X176970213Y-71835667D01*
X176977580Y-71842883D01*
X177141434Y-71978916D01*
X177149881Y-71984831D01*
X177218969Y-72025203D01*
X177267693Y-72076842D01*
X177280764Y-72146625D01*
X177254033Y-72212396D01*
X177213584Y-72245752D01*
X177200607Y-72252507D01*
X177196474Y-72255610D01*
X177196471Y-72255612D01*
X177054954Y-72361866D01*
X177021965Y-72386635D01*
X176982699Y-72427724D01*
X176931166Y-72481651D01*
X176867629Y-72548138D01*
X176864715Y-72552410D01*
X176864714Y-72552411D01*
X176752095Y-72717504D01*
X176697184Y-72762507D01*
X176648007Y-72772500D01*
X173248197Y-72772500D01*
X173180076Y-72752498D01*
X173133583Y-72698842D01*
X173128674Y-72686377D01*
X173112867Y-72638998D01*
X173112866Y-72638996D01*
X173110550Y-72632054D01*
X173017479Y-72481651D01*
X172892303Y-72356694D01*
X172856026Y-72334333D01*
X172811307Y-72306767D01*
X172763813Y-72253994D01*
X172752390Y-72183923D01*
X172780664Y-72118799D01*
X172811119Y-72092364D01*
X172861402Y-72061248D01*
X172887125Y-72045331D01*
X172887128Y-72045329D01*
X172893349Y-72041479D01*
X173018306Y-71916303D01*
X173106535Y-71773169D01*
X173107275Y-71771969D01*
X173107276Y-71771967D01*
X173111115Y-71765739D01*
X173128663Y-71712833D01*
X173169093Y-71654473D01*
X173234658Y-71627236D01*
X173248256Y-71626500D01*
X173403233Y-71626500D01*
X173414416Y-71627027D01*
X173421909Y-71628702D01*
X173429835Y-71628453D01*
X173429836Y-71628453D01*
X173489986Y-71626562D01*
X173493945Y-71626500D01*
X173521856Y-71626500D01*
X173525791Y-71626003D01*
X173525856Y-71625995D01*
X173537693Y-71625062D01*
X173569951Y-71624048D01*
X173573970Y-71623922D01*
X173581889Y-71623673D01*
X173601343Y-71618021D01*
X173620700Y-71614013D01*
X173632930Y-71612468D01*
X173632931Y-71612468D01*
X173640797Y-71611474D01*
X173648168Y-71608555D01*
X173648170Y-71608555D01*
X173681912Y-71595196D01*
X173693142Y-71591351D01*
X173727983Y-71581229D01*
X173727984Y-71581229D01*
X173735593Y-71579018D01*
X173742412Y-71574985D01*
X173742417Y-71574983D01*
X173753028Y-71568707D01*
X173770776Y-71560012D01*
X173789617Y-71552552D01*
X173825387Y-71526564D01*
X173835307Y-71520048D01*
X173866535Y-71501580D01*
X173866538Y-71501578D01*
X173873362Y-71497542D01*
X173887683Y-71483221D01*
X173902717Y-71470380D01*
X173912694Y-71463131D01*
X173919107Y-71458472D01*
X173947298Y-71424395D01*
X173955288Y-71415616D01*
X176374499Y-68996405D01*
X176436811Y-68962379D01*
X176463594Y-68959500D01*
X176651274Y-68959500D01*
X176719395Y-68979502D01*
G37*
G04 #@! TD.AperFunction*
G04 #@! TA.AperFunction,Conductor*
G36*
X149123158Y-66244264D02*
G01*
X149126295Y-66246615D01*
X149262684Y-66297745D01*
X149269990Y-66298539D01*
X149331424Y-66333635D01*
X149364244Y-66396590D01*
X149357818Y-66467295D01*
X149314186Y-66523302D01*
X149270060Y-66543454D01*
X149262684Y-66544255D01*
X149126295Y-66595385D01*
X149123158Y-66597736D01*
X149065450Y-66612500D01*
X147630500Y-66612500D01*
X147562379Y-66592498D01*
X147515886Y-66538842D01*
X147504500Y-66486500D01*
X147504500Y-66355500D01*
X147524502Y-66287379D01*
X147578158Y-66240886D01*
X147630500Y-66229500D01*
X149065450Y-66229500D01*
X149123158Y-66244264D01*
G37*
G04 #@! TD.AperFunction*
M02*
