G04 #@! TF.GenerationSoftware,KiCad,Pcbnew,(6.0.0)*
G04 #@! TF.CreationDate,2022-03-03T13:39:48-08:00*
G04 #@! TF.ProjectId,MSP430 Breakout,4d535034-3330-4204-9272-65616b6f7574,rev?*
G04 #@! TF.SameCoordinates,Original*
G04 #@! TF.FileFunction,Soldermask,Top*
G04 #@! TF.FilePolarity,Negative*
%FSLAX46Y46*%
G04 Gerber Fmt 4.6, Leading zero omitted, Abs format (unit mm)*
G04 Created by KiCad (PCBNEW (6.0.0)) date 2022-03-03 13:39:48*
%MOMM*%
%LPD*%
G01*
G04 APERTURE LIST*
G04 Aperture macros list*
%AMRoundRect*
0 Rectangle with rounded corners*
0 $1 Rounding radius*
0 $2 $3 $4 $5 $6 $7 $8 $9 X,Y pos of 4 corners*
0 Add a 4 corners polygon primitive as box body*
4,1,4,$2,$3,$4,$5,$6,$7,$8,$9,$2,$3,0*
0 Add four circle primitives for the rounded corners*
1,1,$1+$1,$2,$3*
1,1,$1+$1,$4,$5*
1,1,$1+$1,$6,$7*
1,1,$1+$1,$8,$9*
0 Add four rect primitives between the rounded corners*
20,1,$1+$1,$2,$3,$4,$5,0*
20,1,$1+$1,$4,$5,$6,$7,0*
20,1,$1+$1,$6,$7,$8,$9,0*
20,1,$1+$1,$8,$9,$2,$3,0*%
G04 Aperture macros list end*
%ADD10RoundRect,0.250000X-0.337500X-0.475000X0.337500X-0.475000X0.337500X0.475000X-0.337500X0.475000X0*%
%ADD11RoundRect,0.250000X0.475000X-0.337500X0.475000X0.337500X-0.475000X0.337500X-0.475000X-0.337500X0*%
%ADD12RoundRect,0.250000X0.337500X0.475000X-0.337500X0.475000X-0.337500X-0.475000X0.337500X-0.475000X0*%
%ADD13R,1.700000X1.700000*%
%ADD14O,1.700000X1.700000*%
%ADD15RoundRect,0.249999X-0.350001X-0.450001X0.350001X-0.450001X0.350001X0.450001X-0.350001X0.450001X0*%
%ADD16RoundRect,0.249999X0.350001X0.450001X-0.350001X0.450001X-0.350001X-0.450001X0.350001X-0.450001X0*%
%ADD17C,2.000000*%
%ADD18O,1.450000X0.299999*%
%ADD19O,0.299999X1.450000*%
%ADD20R,1.060000X0.650000*%
%ADD21R,1.800000X2.100000*%
%ADD22RoundRect,0.249999X0.325001X0.450001X-0.325001X0.450001X-0.325001X-0.450001X0.325001X-0.450001X0*%
%ADD23C,0.800000*%
%ADD24C,5.000000*%
%ADD25R,1.100000X0.600000*%
G04 APERTURE END LIST*
D10*
X142599500Y-73279000D03*
X144674500Y-73279000D03*
X142726500Y-79248000D03*
X144801500Y-79248000D03*
D11*
X137541000Y-82063500D03*
X137541000Y-79988500D03*
D12*
X158644500Y-79756000D03*
X156569500Y-79756000D03*
D10*
X142726500Y-97536000D03*
X144801500Y-97536000D03*
D11*
X154559000Y-77491500D03*
X154559000Y-75416500D03*
D10*
X150219500Y-73152000D03*
X152294500Y-73152000D03*
D11*
X139954000Y-82063500D03*
X139954000Y-79988500D03*
D12*
X158666000Y-81915000D03*
X156591000Y-81915000D03*
D10*
X142726500Y-95377000D03*
X144801500Y-95377000D03*
X144123500Y-62484000D03*
X146198500Y-62484000D03*
X173333500Y-96964500D03*
X175408500Y-96964500D03*
X156696500Y-62484000D03*
X158771500Y-62484000D03*
X154537500Y-67437000D03*
X156612500Y-67437000D03*
D13*
X122047000Y-81026000D03*
D14*
X122047000Y-78486000D03*
X122047000Y-75946000D03*
X122047000Y-73406000D03*
X122047000Y-70866000D03*
X122047000Y-68326000D03*
D13*
X137287000Y-89916000D03*
D14*
X137287000Y-92456000D03*
X137287000Y-94996000D03*
X137287000Y-97536000D03*
X137287000Y-100076000D03*
X137287000Y-102616000D03*
D13*
X133477000Y-115316000D03*
D14*
X136017000Y-115316000D03*
X138557000Y-115316000D03*
D13*
X148717000Y-113728500D03*
D14*
X148717000Y-111188500D03*
X151257000Y-113728500D03*
X151257000Y-111188500D03*
X153797000Y-113728500D03*
X153797000Y-111188500D03*
X156337000Y-113728500D03*
X156337000Y-111188500D03*
X158877000Y-113728500D03*
X158877000Y-111188500D03*
X161417000Y-113728500D03*
X161417000Y-111188500D03*
X163957000Y-113728500D03*
X163957000Y-111188500D03*
D13*
X143637000Y-59436000D03*
D14*
X146177000Y-59436000D03*
D15*
X170069000Y-73406000D03*
X172069000Y-73406000D03*
X170069000Y-70993000D03*
X172069000Y-70993000D03*
X128794000Y-92710000D03*
X130794000Y-92710000D03*
X128794000Y-94869000D03*
X130794000Y-94869000D03*
D16*
X175307500Y-94488000D03*
X173307500Y-94488000D03*
D15*
X170958000Y-81534000D03*
X172958000Y-81534000D03*
D17*
X173418500Y-99989500D03*
X173418500Y-106489500D03*
X177918500Y-99989500D03*
X177918500Y-106489500D03*
D18*
X144008000Y-83753000D03*
X144008000Y-84252999D03*
X144008000Y-84753000D03*
X144008000Y-85252999D03*
X144008000Y-85753001D03*
X144008000Y-86253000D03*
X144008000Y-86752999D03*
X144008000Y-87253000D03*
X144008000Y-87753000D03*
X144008000Y-88253001D03*
X144008000Y-88753000D03*
X144008000Y-89252999D03*
X144008000Y-89753001D03*
X144008000Y-90253000D03*
X144008000Y-90753001D03*
X144008000Y-91253000D03*
D19*
X145983000Y-93228000D03*
X146482999Y-93228000D03*
X146983000Y-93228000D03*
X147482999Y-93228000D03*
X147983001Y-93228000D03*
X148483000Y-93228000D03*
X148982999Y-93228000D03*
X149483000Y-93228000D03*
X149983000Y-93228000D03*
X150483001Y-93228000D03*
X150983000Y-93228000D03*
X151482999Y-93228000D03*
X151983001Y-93228000D03*
X152483000Y-93228000D03*
X152983001Y-93228000D03*
X153483000Y-93228000D03*
D18*
X155458000Y-91253000D03*
X155458000Y-90753001D03*
X155458000Y-90253000D03*
X155458000Y-89753001D03*
X155458000Y-89252999D03*
X155458000Y-88753000D03*
X155458000Y-88253001D03*
X155458000Y-87753000D03*
X155458000Y-87253000D03*
X155458000Y-86752999D03*
X155458000Y-86253000D03*
X155458000Y-85753001D03*
X155458000Y-85252999D03*
X155458000Y-84753000D03*
X155458000Y-84252999D03*
X155458000Y-83753000D03*
D19*
X153483000Y-81778000D03*
X152983001Y-81778000D03*
X152483000Y-81778000D03*
X151983001Y-81778000D03*
X151482999Y-81778000D03*
X150983000Y-81778000D03*
X150483001Y-81778000D03*
X149983000Y-81778000D03*
X149483000Y-81778000D03*
X148982999Y-81778000D03*
X148483000Y-81778000D03*
X147983001Y-81778000D03*
X147482999Y-81778000D03*
X146983000Y-81778000D03*
X146482999Y-81778000D03*
X145983000Y-81778000D03*
D20*
X149903000Y-65471000D03*
X149903000Y-66421000D03*
X149903000Y-67371000D03*
X152103000Y-67371000D03*
X152103000Y-65471000D03*
D21*
X152026000Y-78793000D03*
X152026000Y-75893000D03*
X149726000Y-75893000D03*
X149726000Y-78793000D03*
D13*
X122047000Y-92456000D03*
D14*
X122047000Y-94996000D03*
X122047000Y-97536000D03*
X122047000Y-100076000D03*
D22*
X168411000Y-81534000D03*
X166361000Y-81534000D03*
D13*
X156337000Y-59436000D03*
D14*
X158877000Y-59436000D03*
D23*
X123261175Y-60650175D03*
X125912825Y-60650175D03*
X123261175Y-63301825D03*
X124587000Y-60101000D03*
D24*
X124587000Y-61976000D03*
D23*
X126462000Y-61976000D03*
X122712000Y-61976000D03*
X125912825Y-63301825D03*
X124587000Y-63851000D03*
D24*
X124587000Y-112776000D03*
D23*
X125912825Y-111450175D03*
X122712000Y-112776000D03*
X123261175Y-114101825D03*
X123261175Y-111450175D03*
X125912825Y-114101825D03*
X124587000Y-110901000D03*
X126462000Y-112776000D03*
X124587000Y-114651000D03*
X175387000Y-60101000D03*
X174061175Y-60650175D03*
X176712825Y-63301825D03*
X175387000Y-63851000D03*
X174061175Y-63301825D03*
X176712825Y-60650175D03*
D24*
X175387000Y-61976000D03*
D23*
X173512000Y-61976000D03*
X177262000Y-61976000D03*
X173512000Y-112776000D03*
X176712825Y-111450175D03*
X176712825Y-114101825D03*
X175387000Y-114651000D03*
X177262000Y-112776000D03*
X175387000Y-110901000D03*
X174061175Y-114101825D03*
X174061175Y-111450175D03*
D24*
X175387000Y-112776000D03*
D13*
X177927000Y-75946000D03*
D14*
X177927000Y-73406000D03*
X177927000Y-70866000D03*
X177927000Y-68326000D03*
D13*
X177927000Y-83566000D03*
D14*
X177927000Y-86106000D03*
X177927000Y-88646000D03*
X177927000Y-91186000D03*
D25*
X144843500Y-76900000D03*
X144843500Y-75500000D03*
D13*
X171983000Y-88666000D03*
D14*
X171983000Y-91206000D03*
M02*
