M48
; DRILL file {KiCad (6.0.0)} date Thu Mar  3 13:38:32 2022
; FORMAT={-:-/ absolute / inch / decimal}
; #@! TF.CreationDate,2022-03-03T13:38:32-08:00
; #@! TF.GenerationSoftware,Kicad,Pcbnew,(6.0.0)
; #@! TF.FileFunction,Plated,1,2,PTH
FMAT,2
INCH
; #@! TA.AperFunction,Plated,PTH,ViaDrill
T1C0.0157
; #@! TA.AperFunction,Plated,PTH,ComponentDrill
T2C0.0197
; #@! TA.AperFunction,Plated,PTH,ComponentDrill
T3C0.0394
; #@! TA.AperFunction,Plated,PTH,ComponentDrill
T4C0.0433
; #@! TA.AperFunction,Plated,PTH,ComponentDrill
T5C0.0984
%
G90
G05
T1
X4.735Y-3.33
X4.735Y-3.515
X4.735Y-4.11
X4.735Y-4.32
X4.735Y-4.56
X4.74Y-2.28
X4.74Y-2.47
X5.0Y-3.33
X5.0Y-3.515
X5.0Y-3.685
X5.0Y-3.895
X5.005Y-4.11
X5.005Y-4.32
X5.005Y-4.56
X5.065Y-2.28
X5.065Y-2.47
X5.07Y-3.515
X5.17Y-3.89
X5.245Y-4.11
X5.245Y-4.32
X5.265Y-2.28
X5.265Y-2.47
X5.335Y-3.17
X5.395Y-2.765
X5.395Y-2.98
X5.45Y-2.47
X5.455Y-2.655
X5.53Y-3.89
X5.605Y-3.0
X5.655Y-2.655
X5.81Y-3.41
X5.84Y-2.615
X5.86Y-2.28
X5.86Y-2.47
X5.985Y-3.41
X6.04Y-2.47
X6.055Y-2.905
X6.055Y-4.575
X6.165Y-2.76
X6.175Y-3.7
X6.175Y-3.745
X6.29Y-4.575
X6.365Y-2.28
X6.365Y-2.47
X6.365Y-2.67
X6.37Y-2.865
X6.37Y-3.045
X6.515Y-2.28
X6.52Y-2.47
X6.565Y-2.67
X6.565Y-2.865
X6.62Y-4.075
X6.62Y-4.275
X6.62Y-4.45
X6.685Y-2.28
X6.685Y-2.47
X6.69Y-3.69
X6.715Y-3.895
X6.73Y-3.73
X6.77Y-4.57
X6.775Y-4.295
X6.84Y-2.84
X6.855Y-3.12
X6.895Y-2.28
X6.91Y-2.84
X6.92Y-4.055
X6.985Y-3.12
X7.045Y-4.295
X7.045Y-4.57
X7.065Y-2.28
X7.065Y-2.47
T2
X4.8312Y-2.44
X4.8312Y-4.44
X4.8528Y-2.3878
X4.8528Y-2.4922
X4.8528Y-4.3878
X4.8528Y-4.4922
X4.905Y-2.3662
X4.905Y-2.5138
X4.905Y-4.3662
X4.905Y-4.5138
X4.9572Y-2.3878
X4.9572Y-2.4922
X4.9572Y-4.3878
X4.9572Y-4.4922
X4.9788Y-2.44
X4.9788Y-4.44
X6.8312Y-2.44
X6.8312Y-4.44
X6.8528Y-2.3878
X6.8528Y-2.4922
X6.8528Y-4.3878
X6.8528Y-4.4922
X6.905Y-2.3662
X6.905Y-2.5138
X6.905Y-4.3662
X6.905Y-4.5138
X6.9572Y-2.3878
X6.9572Y-2.4922
X6.9572Y-4.3878
X6.9572Y-4.4922
X6.9788Y-2.44
X6.9788Y-4.44
T3
X4.805Y-2.69
X4.805Y-2.79
X4.805Y-2.89
X4.805Y-2.99
X4.805Y-3.09
X4.805Y-3.19
X4.805Y-3.64
X4.805Y-3.74
X4.805Y-3.84
X4.805Y-3.94
X5.255Y-4.54
X5.355Y-4.54
X5.405Y-3.54
X5.405Y-3.64
X5.405Y-3.74
X5.405Y-3.84
X5.405Y-3.94
X5.405Y-4.04
X5.455Y-4.54
X5.655Y-2.34
X5.755Y-2.34
X5.855Y-4.3775
X5.855Y-4.4775
X5.955Y-4.3775
X5.955Y-4.4775
X6.055Y-4.3775
X6.055Y-4.4775
X6.155Y-2.34
X6.155Y-4.3775
X6.155Y-4.4775
X6.255Y-2.34
X6.255Y-4.3775
X6.255Y-4.4775
X6.355Y-4.3775
X6.355Y-4.4775
X6.455Y-4.3775
X6.455Y-4.4775
X6.771Y-3.4908
X6.771Y-3.5908
X7.005Y-2.69
X7.005Y-2.79
X7.005Y-2.89
X7.005Y-2.99
X7.005Y-3.29
X7.005Y-3.39
X7.005Y-3.49
X7.005Y-3.59
T4
X6.8275Y-3.9366
X6.8275Y-4.1925
X7.0047Y-3.9366
X7.0047Y-4.1925
T5
X4.905Y-2.44
X4.905Y-4.44
X6.905Y-2.44
X6.905Y-4.44
T0
M30
