G04 #@! TF.GenerationSoftware,KiCad,Pcbnew,(6.0.0)*
G04 #@! TF.CreationDate,2022-03-03T13:39:48-08:00*
G04 #@! TF.ProjectId,MSP430 Breakout,4d535034-3330-4204-9272-65616b6f7574,rev?*
G04 #@! TF.SameCoordinates,Original*
G04 #@! TF.FileFunction,Copper,L2,Bot*
G04 #@! TF.FilePolarity,Positive*
%FSLAX46Y46*%
G04 Gerber Fmt 4.6, Leading zero omitted, Abs format (unit mm)*
G04 Created by KiCad (PCBNEW (6.0.0)) date 2022-03-03 13:39:48*
%MOMM*%
%LPD*%
G01*
G04 APERTURE LIST*
G04 #@! TA.AperFunction,ComponentPad*
%ADD10R,1.700000X1.700000*%
G04 #@! TD*
G04 #@! TA.AperFunction,ComponentPad*
%ADD11O,1.700000X1.700000*%
G04 #@! TD*
G04 #@! TA.AperFunction,ComponentPad*
%ADD12C,2.000000*%
G04 #@! TD*
G04 #@! TA.AperFunction,ComponentPad*
%ADD13C,0.800000*%
G04 #@! TD*
G04 #@! TA.AperFunction,ComponentPad*
%ADD14C,5.000000*%
G04 #@! TD*
G04 #@! TA.AperFunction,ViaPad*
%ADD15C,0.800000*%
G04 #@! TD*
G04 #@! TA.AperFunction,Conductor*
%ADD16C,0.500000*%
G04 #@! TD*
G04 #@! TA.AperFunction,Conductor*
%ADD17C,0.250000*%
G04 #@! TD*
G04 APERTURE END LIST*
D10*
X122047000Y-81026000D03*
D11*
X122047000Y-78486000D03*
X122047000Y-75946000D03*
X122047000Y-73406000D03*
X122047000Y-70866000D03*
X122047000Y-68326000D03*
D10*
X137287000Y-89916000D03*
D11*
X137287000Y-92456000D03*
X137287000Y-94996000D03*
X137287000Y-97536000D03*
X137287000Y-100076000D03*
X137287000Y-102616000D03*
D10*
X133477000Y-115316000D03*
D11*
X136017000Y-115316000D03*
X138557000Y-115316000D03*
D10*
X148717000Y-113728500D03*
D11*
X148717000Y-111188500D03*
X151257000Y-113728500D03*
X151257000Y-111188500D03*
X153797000Y-113728500D03*
X153797000Y-111188500D03*
X156337000Y-113728500D03*
X156337000Y-111188500D03*
X158877000Y-113728500D03*
X158877000Y-111188500D03*
X161417000Y-113728500D03*
X161417000Y-111188500D03*
X163957000Y-113728500D03*
X163957000Y-111188500D03*
D10*
X143637000Y-59436000D03*
D11*
X146177000Y-59436000D03*
D12*
X173418500Y-99989500D03*
X173418500Y-106489500D03*
X177918500Y-99989500D03*
X177918500Y-106489500D03*
D10*
X122047000Y-92456000D03*
D11*
X122047000Y-94996000D03*
X122047000Y-97536000D03*
X122047000Y-100076000D03*
D10*
X156337000Y-59436000D03*
D11*
X158877000Y-59436000D03*
D13*
X123261175Y-60650175D03*
X125912825Y-60650175D03*
X123261175Y-63301825D03*
X124587000Y-60101000D03*
D14*
X124587000Y-61976000D03*
D13*
X126462000Y-61976000D03*
X122712000Y-61976000D03*
X125912825Y-63301825D03*
X124587000Y-63851000D03*
D14*
X124587000Y-112776000D03*
D13*
X125912825Y-111450175D03*
X122712000Y-112776000D03*
X123261175Y-114101825D03*
X123261175Y-111450175D03*
X125912825Y-114101825D03*
X124587000Y-110901000D03*
X126462000Y-112776000D03*
X124587000Y-114651000D03*
X175387000Y-60101000D03*
X174061175Y-60650175D03*
X176712825Y-63301825D03*
X175387000Y-63851000D03*
X174061175Y-63301825D03*
X176712825Y-60650175D03*
D14*
X175387000Y-61976000D03*
D13*
X173512000Y-61976000D03*
X177262000Y-61976000D03*
X173512000Y-112776000D03*
X176712825Y-111450175D03*
X176712825Y-114101825D03*
X175387000Y-114651000D03*
X177262000Y-112776000D03*
X175387000Y-110901000D03*
X174061175Y-114101825D03*
X174061175Y-111450175D03*
D14*
X175387000Y-112776000D03*
D10*
X177927000Y-75946000D03*
D11*
X177927000Y-73406000D03*
X177927000Y-70866000D03*
X177927000Y-68326000D03*
D10*
X177927000Y-83566000D03*
D11*
X177927000Y-86106000D03*
X177927000Y-88646000D03*
X177927000Y-91186000D03*
D10*
X171983000Y-88666000D03*
D11*
X171983000Y-91206000D03*
D15*
X166751000Y-72771000D03*
X133731000Y-62738000D03*
X143637000Y-67437000D03*
X169799000Y-62738000D03*
X175768000Y-102997000D03*
X140462000Y-98806000D03*
X153797000Y-73787000D03*
X133731000Y-57912000D03*
X173736000Y-72136000D03*
X142367000Y-76200000D03*
X138557000Y-67437000D03*
X166751000Y-67818000D03*
X127127000Y-104394000D03*
X127000000Y-98933000D03*
X177419000Y-79248000D03*
X128651000Y-57912000D03*
X127000000Y-89281000D03*
X161671000Y-57912000D03*
X159766000Y-116205000D03*
X120269000Y-89281000D03*
X168148000Y-103505000D03*
X168148000Y-113030000D03*
X147574000Y-86614000D03*
X137033000Y-75692000D03*
X175133000Y-57912000D03*
X179451000Y-62738000D03*
X179451000Y-57912000D03*
X133223000Y-104394000D03*
X120269000Y-115824000D03*
X131318000Y-98806000D03*
X168148000Y-108585000D03*
X161798000Y-72771000D03*
X128651000Y-62738000D03*
X165481000Y-57912000D03*
X175514000Y-72136000D03*
X156591000Y-70104000D03*
X169799000Y-57912000D03*
X161671000Y-67818000D03*
X127127000Y-115824000D03*
X120396000Y-62738000D03*
X153416000Y-62738000D03*
X148844000Y-57912000D03*
X165608000Y-62738000D03*
X120269000Y-109728000D03*
X172085000Y-109093000D03*
X120269000Y-104394000D03*
X127127000Y-109728000D03*
X148844000Y-62738000D03*
X174117000Y-79248000D03*
X152019000Y-86614000D03*
X127000000Y-84582000D03*
X120269000Y-84582000D03*
X120396000Y-57912000D03*
X171958000Y-116078000D03*
X148336000Y-66421000D03*
X161798000Y-77343000D03*
X153797000Y-116205000D03*
X161671000Y-62738000D03*
X170561000Y-98933000D03*
X133223000Y-109728000D03*
X138430000Y-62738000D03*
X127000000Y-93599000D03*
X137033000Y-70231000D03*
X178943000Y-116078000D03*
X178943000Y-109093000D03*
X128778000Y-89281000D03*
X135509000Y-80518000D03*
X156845000Y-93980000D03*
X169926000Y-93726000D03*
X170942000Y-94742000D03*
X156845000Y-95123000D03*
D16*
X142367000Y-76200000D02*
X139700000Y-76200000D01*
X153797000Y-73787000D02*
X156464000Y-71120000D01*
X128778000Y-87249000D02*
X135509000Y-80518000D01*
X128778000Y-89281000D02*
X128778000Y-87249000D01*
D17*
X156845000Y-93980000D02*
X169672000Y-93980000D01*
X169672000Y-93980000D02*
X169926000Y-93726000D01*
X156845000Y-95123000D02*
X170561000Y-95123000D01*
X170561000Y-95123000D02*
X170942000Y-94742000D01*
G04 #@! TA.AperFunction,Conductor*
G36*
X181171121Y-56154002D02*
G01*
X181217614Y-56207658D01*
X181229000Y-56260000D01*
X181229000Y-118492000D01*
X181208998Y-118560121D01*
X181155342Y-118606614D01*
X181103000Y-118618000D01*
X118871000Y-118618000D01*
X118802879Y-118597998D01*
X118756386Y-118544342D01*
X118745000Y-118492000D01*
X118745000Y-116214134D01*
X132118500Y-116214134D01*
X132125255Y-116276316D01*
X132176385Y-116412705D01*
X132263739Y-116529261D01*
X132380295Y-116616615D01*
X132516684Y-116667745D01*
X132578866Y-116674500D01*
X134375134Y-116674500D01*
X134437316Y-116667745D01*
X134573705Y-116616615D01*
X134690261Y-116529261D01*
X134777615Y-116412705D01*
X134799799Y-116353529D01*
X134821598Y-116295382D01*
X134864240Y-116238618D01*
X134930802Y-116213918D01*
X135000150Y-116229126D01*
X135034817Y-116257114D01*
X135063250Y-116289938D01*
X135235126Y-116432632D01*
X135428000Y-116545338D01*
X135636692Y-116625030D01*
X135641760Y-116626061D01*
X135641763Y-116626062D01*
X135749017Y-116647883D01*
X135855597Y-116669567D01*
X135860772Y-116669757D01*
X135860774Y-116669757D01*
X136073673Y-116677564D01*
X136073677Y-116677564D01*
X136078837Y-116677753D01*
X136083957Y-116677097D01*
X136083959Y-116677097D01*
X136295288Y-116650025D01*
X136295289Y-116650025D01*
X136300416Y-116649368D01*
X136305366Y-116647883D01*
X136509429Y-116586661D01*
X136509434Y-116586659D01*
X136514384Y-116585174D01*
X136714994Y-116486896D01*
X136896860Y-116357173D01*
X137055096Y-116199489D01*
X137185453Y-116018077D01*
X137186776Y-116019028D01*
X137233645Y-115975857D01*
X137303580Y-115963625D01*
X137369026Y-115991144D01*
X137396875Y-116022994D01*
X137456987Y-116121088D01*
X137603250Y-116289938D01*
X137775126Y-116432632D01*
X137968000Y-116545338D01*
X138176692Y-116625030D01*
X138181760Y-116626061D01*
X138181763Y-116626062D01*
X138289017Y-116647883D01*
X138395597Y-116669567D01*
X138400772Y-116669757D01*
X138400774Y-116669757D01*
X138613673Y-116677564D01*
X138613677Y-116677564D01*
X138618837Y-116677753D01*
X138623957Y-116677097D01*
X138623959Y-116677097D01*
X138835288Y-116650025D01*
X138835289Y-116650025D01*
X138840416Y-116649368D01*
X138845366Y-116647883D01*
X139049429Y-116586661D01*
X139049434Y-116586659D01*
X139054384Y-116585174D01*
X139254994Y-116486896D01*
X139436860Y-116357173D01*
X139595096Y-116199489D01*
X139725453Y-116018077D01*
X139746320Y-115975857D01*
X139822136Y-115822453D01*
X139822137Y-115822451D01*
X139824430Y-115817811D01*
X139889370Y-115604069D01*
X139918529Y-115382590D01*
X139920156Y-115316000D01*
X139901852Y-115093361D01*
X139847431Y-114876702D01*
X139758354Y-114671840D01*
X139637014Y-114484277D01*
X139486670Y-114319051D01*
X139482619Y-114315852D01*
X139482615Y-114315848D01*
X139315414Y-114183800D01*
X139315410Y-114183798D01*
X139311359Y-114180598D01*
X139115789Y-114072638D01*
X139110920Y-114070914D01*
X139110916Y-114070912D01*
X138910087Y-113999795D01*
X138910083Y-113999794D01*
X138905212Y-113998069D01*
X138900119Y-113997162D01*
X138900116Y-113997161D01*
X138690373Y-113959800D01*
X138690367Y-113959799D01*
X138685284Y-113958894D01*
X138611452Y-113957992D01*
X138467081Y-113956228D01*
X138467079Y-113956228D01*
X138461911Y-113956165D01*
X138241091Y-113989955D01*
X138028756Y-114059357D01*
X137830607Y-114162507D01*
X137826474Y-114165610D01*
X137826471Y-114165612D01*
X137656100Y-114293530D01*
X137651965Y-114296635D01*
X137648393Y-114300373D01*
X137523351Y-114431222D01*
X137497629Y-114458138D01*
X137390201Y-114615621D01*
X137335293Y-114660621D01*
X137264768Y-114668792D01*
X137201021Y-114637538D01*
X137180324Y-114613054D01*
X137099822Y-114488617D01*
X137099820Y-114488614D01*
X137097014Y-114484277D01*
X136946670Y-114319051D01*
X136942619Y-114315852D01*
X136942615Y-114315848D01*
X136775414Y-114183800D01*
X136775410Y-114183798D01*
X136771359Y-114180598D01*
X136575789Y-114072638D01*
X136570920Y-114070914D01*
X136570916Y-114070912D01*
X136370087Y-113999795D01*
X136370083Y-113999794D01*
X136365212Y-113998069D01*
X136360119Y-113997162D01*
X136360116Y-113997161D01*
X136150373Y-113959800D01*
X136150367Y-113959799D01*
X136145284Y-113958894D01*
X136071452Y-113957992D01*
X135927081Y-113956228D01*
X135927079Y-113956228D01*
X135921911Y-113956165D01*
X135701091Y-113989955D01*
X135488756Y-114059357D01*
X135290607Y-114162507D01*
X135286474Y-114165610D01*
X135286471Y-114165612D01*
X135116100Y-114293530D01*
X135111965Y-114296635D01*
X135036462Y-114375645D01*
X135031283Y-114381064D01*
X134969759Y-114416494D01*
X134898846Y-114413037D01*
X134841060Y-114371791D01*
X134822207Y-114338243D01*
X134780767Y-114227703D01*
X134777615Y-114219295D01*
X134690261Y-114102739D01*
X134573705Y-114015385D01*
X134437316Y-113964255D01*
X134375134Y-113957500D01*
X132578866Y-113957500D01*
X132516684Y-113964255D01*
X132380295Y-114015385D01*
X132263739Y-114102739D01*
X132176385Y-114219295D01*
X132125255Y-114355684D01*
X132118500Y-114417866D01*
X132118500Y-116214134D01*
X118745000Y-116214134D01*
X118745000Y-112681341D01*
X121574888Y-112681341D01*
X121574983Y-112684971D01*
X121574983Y-112684972D01*
X121579957Y-112874911D01*
X121583970Y-113028171D01*
X121632856Y-113371660D01*
X121720897Y-113707253D01*
X121846927Y-114030503D01*
X121862204Y-114059357D01*
X121982113Y-114285825D01*
X122009275Y-114337126D01*
X122011325Y-114340109D01*
X122011327Y-114340112D01*
X122203733Y-114620064D01*
X122203739Y-114620071D01*
X122205790Y-114623056D01*
X122433866Y-114884505D01*
X122488899Y-114934581D01*
X122657881Y-115088342D01*
X122690481Y-115118006D01*
X122972233Y-115320466D01*
X123275388Y-115489200D01*
X123595928Y-115621972D01*
X123599422Y-115622967D01*
X123599424Y-115622968D01*
X123926103Y-115716025D01*
X123926108Y-115716026D01*
X123929604Y-115717022D01*
X124126304Y-115749233D01*
X124268412Y-115772504D01*
X124268419Y-115772505D01*
X124271993Y-115773090D01*
X124445276Y-115781262D01*
X124614931Y-115789263D01*
X124614932Y-115789263D01*
X124618558Y-115789434D01*
X124627415Y-115788830D01*
X124961073Y-115766084D01*
X124961081Y-115766083D01*
X124964704Y-115765836D01*
X124968279Y-115765173D01*
X124968282Y-115765173D01*
X125302279Y-115703270D01*
X125302283Y-115703269D01*
X125305844Y-115702609D01*
X125637456Y-115600592D01*
X125955145Y-115461136D01*
X126199511Y-115318341D01*
X126251560Y-115287926D01*
X126251562Y-115287925D01*
X126254700Y-115286091D01*
X126257609Y-115283907D01*
X126529244Y-115079958D01*
X126529248Y-115079955D01*
X126532151Y-115077775D01*
X126783819Y-114838950D01*
X127006370Y-114572783D01*
X127035007Y-114529188D01*
X127132305Y-114381064D01*
X127196853Y-114282799D01*
X127303421Y-114070912D01*
X127351117Y-113976080D01*
X127351120Y-113976072D01*
X127352744Y-113972844D01*
X127358848Y-113956165D01*
X127470729Y-113650437D01*
X127470730Y-113650433D01*
X127471977Y-113647026D01*
X127472822Y-113643504D01*
X127472825Y-113643496D01*
X127552124Y-113313191D01*
X127552125Y-113313187D01*
X127552971Y-113309662D01*
X127580238Y-113084340D01*
X127594316Y-112968004D01*
X127594316Y-112967997D01*
X127594652Y-112965225D01*
X127597491Y-112874911D01*
X127600511Y-112778797D01*
X127600599Y-112776000D01*
X127600438Y-112773204D01*
X127580836Y-112433246D01*
X127580835Y-112433241D01*
X127580627Y-112429626D01*
X127566377Y-112347976D01*
X127521600Y-112091415D01*
X127521598Y-112091408D01*
X127520976Y-112087842D01*
X127516281Y-112071989D01*
X127464000Y-111895494D01*
X127422437Y-111755180D01*
X127356642Y-111600925D01*
X127287740Y-111439386D01*
X127287738Y-111439383D01*
X127286316Y-111436048D01*
X127256211Y-111383267D01*
X127126121Y-111155195D01*
X147354251Y-111155195D01*
X147354548Y-111160348D01*
X147354548Y-111160351D01*
X147360011Y-111255090D01*
X147367110Y-111378215D01*
X147368247Y-111383261D01*
X147368248Y-111383267D01*
X147388119Y-111471439D01*
X147416222Y-111596139D01*
X147500266Y-111803116D01*
X147551019Y-111885938D01*
X147614291Y-111989188D01*
X147616987Y-111993588D01*
X147763250Y-112162438D01*
X147767230Y-112165742D01*
X147771981Y-112169687D01*
X147811616Y-112228590D01*
X147813113Y-112299571D01*
X147775997Y-112360093D01*
X147735725Y-112384612D01*
X147694913Y-112399912D01*
X147620295Y-112427885D01*
X147503739Y-112515239D01*
X147416385Y-112631795D01*
X147365255Y-112768184D01*
X147358500Y-112830366D01*
X147358500Y-114626634D01*
X147365255Y-114688816D01*
X147416385Y-114825205D01*
X147503739Y-114941761D01*
X147620295Y-115029115D01*
X147756684Y-115080245D01*
X147818866Y-115087000D01*
X149615134Y-115087000D01*
X149677316Y-115080245D01*
X149813705Y-115029115D01*
X149930261Y-114941761D01*
X150017615Y-114825205D01*
X150039799Y-114766029D01*
X150061598Y-114707882D01*
X150104240Y-114651118D01*
X150170802Y-114626418D01*
X150240150Y-114641626D01*
X150274817Y-114669614D01*
X150303250Y-114702438D01*
X150475126Y-114845132D01*
X150668000Y-114957838D01*
X150876692Y-115037530D01*
X150881760Y-115038561D01*
X150881763Y-115038562D01*
X150976862Y-115057910D01*
X151095597Y-115082067D01*
X151100772Y-115082257D01*
X151100774Y-115082257D01*
X151313673Y-115090064D01*
X151313677Y-115090064D01*
X151318837Y-115090253D01*
X151323957Y-115089597D01*
X151323959Y-115089597D01*
X151535288Y-115062525D01*
X151535289Y-115062525D01*
X151540416Y-115061868D01*
X151545366Y-115060383D01*
X151749429Y-114999161D01*
X151749434Y-114999159D01*
X151754384Y-114997674D01*
X151954994Y-114899396D01*
X152136860Y-114769673D01*
X152295096Y-114611989D01*
X152425453Y-114430577D01*
X152426776Y-114431528D01*
X152473645Y-114388357D01*
X152543580Y-114376125D01*
X152609026Y-114403644D01*
X152636875Y-114435494D01*
X152696987Y-114533588D01*
X152843250Y-114702438D01*
X153015126Y-114845132D01*
X153208000Y-114957838D01*
X153416692Y-115037530D01*
X153421760Y-115038561D01*
X153421763Y-115038562D01*
X153516862Y-115057910D01*
X153635597Y-115082067D01*
X153640772Y-115082257D01*
X153640774Y-115082257D01*
X153853673Y-115090064D01*
X153853677Y-115090064D01*
X153858837Y-115090253D01*
X153863957Y-115089597D01*
X153863959Y-115089597D01*
X154075288Y-115062525D01*
X154075289Y-115062525D01*
X154080416Y-115061868D01*
X154085366Y-115060383D01*
X154289429Y-114999161D01*
X154289434Y-114999159D01*
X154294384Y-114997674D01*
X154494994Y-114899396D01*
X154676860Y-114769673D01*
X154835096Y-114611989D01*
X154965453Y-114430577D01*
X154966776Y-114431528D01*
X155013645Y-114388357D01*
X155083580Y-114376125D01*
X155149026Y-114403644D01*
X155176875Y-114435494D01*
X155236987Y-114533588D01*
X155383250Y-114702438D01*
X155555126Y-114845132D01*
X155748000Y-114957838D01*
X155956692Y-115037530D01*
X155961760Y-115038561D01*
X155961763Y-115038562D01*
X156056862Y-115057910D01*
X156175597Y-115082067D01*
X156180772Y-115082257D01*
X156180774Y-115082257D01*
X156393673Y-115090064D01*
X156393677Y-115090064D01*
X156398837Y-115090253D01*
X156403957Y-115089597D01*
X156403959Y-115089597D01*
X156615288Y-115062525D01*
X156615289Y-115062525D01*
X156620416Y-115061868D01*
X156625366Y-115060383D01*
X156829429Y-114999161D01*
X156829434Y-114999159D01*
X156834384Y-114997674D01*
X157034994Y-114899396D01*
X157216860Y-114769673D01*
X157375096Y-114611989D01*
X157505453Y-114430577D01*
X157506640Y-114431430D01*
X157553960Y-114387862D01*
X157623897Y-114375645D01*
X157689338Y-114403178D01*
X157717166Y-114435011D01*
X157774694Y-114528888D01*
X157780777Y-114537199D01*
X157920213Y-114698167D01*
X157927580Y-114705383D01*
X158091434Y-114841416D01*
X158099881Y-114847331D01*
X158283756Y-114954779D01*
X158293042Y-114959229D01*
X158492001Y-115035203D01*
X158501899Y-115038079D01*
X158605250Y-115059106D01*
X158619299Y-115057910D01*
X158623000Y-115047565D01*
X158623000Y-113600500D01*
X158643002Y-113532379D01*
X158696658Y-113485886D01*
X158749000Y-113474500D01*
X159005000Y-113474500D01*
X159073121Y-113494502D01*
X159119614Y-113548158D01*
X159131000Y-113600500D01*
X159131000Y-115047017D01*
X159135064Y-115060859D01*
X159148478Y-115062893D01*
X159155184Y-115062034D01*
X159165262Y-115059892D01*
X159369255Y-114998691D01*
X159378842Y-114994933D01*
X159570095Y-114901239D01*
X159578945Y-114895964D01*
X159752328Y-114772292D01*
X159760200Y-114765639D01*
X159911052Y-114615312D01*
X159917730Y-114607465D01*
X160045022Y-114430319D01*
X160046279Y-114431222D01*
X160093373Y-114387862D01*
X160163311Y-114375645D01*
X160228751Y-114403178D01*
X160256579Y-114435011D01*
X160316987Y-114533588D01*
X160463250Y-114702438D01*
X160635126Y-114845132D01*
X160828000Y-114957838D01*
X161036692Y-115037530D01*
X161041760Y-115038561D01*
X161041763Y-115038562D01*
X161136862Y-115057910D01*
X161255597Y-115082067D01*
X161260772Y-115082257D01*
X161260774Y-115082257D01*
X161473673Y-115090064D01*
X161473677Y-115090064D01*
X161478837Y-115090253D01*
X161483957Y-115089597D01*
X161483959Y-115089597D01*
X161695288Y-115062525D01*
X161695289Y-115062525D01*
X161700416Y-115061868D01*
X161705366Y-115060383D01*
X161909429Y-114999161D01*
X161909434Y-114999159D01*
X161914384Y-114997674D01*
X162114994Y-114899396D01*
X162296860Y-114769673D01*
X162455096Y-114611989D01*
X162585453Y-114430577D01*
X162586640Y-114431430D01*
X162633960Y-114387862D01*
X162703897Y-114375645D01*
X162769338Y-114403178D01*
X162797166Y-114435011D01*
X162854694Y-114528888D01*
X162860777Y-114537199D01*
X163000213Y-114698167D01*
X163007580Y-114705383D01*
X163171434Y-114841416D01*
X163179881Y-114847331D01*
X163363756Y-114954779D01*
X163373042Y-114959229D01*
X163572001Y-115035203D01*
X163581899Y-115038079D01*
X163685250Y-115059106D01*
X163699299Y-115057910D01*
X163703000Y-115047565D01*
X163703000Y-115047017D01*
X164211000Y-115047017D01*
X164215064Y-115060859D01*
X164228478Y-115062893D01*
X164235184Y-115062034D01*
X164245262Y-115059892D01*
X164449255Y-114998691D01*
X164458842Y-114994933D01*
X164650095Y-114901239D01*
X164658945Y-114895964D01*
X164832328Y-114772292D01*
X164840200Y-114765639D01*
X164991052Y-114615312D01*
X164997730Y-114607465D01*
X165122003Y-114434520D01*
X165127313Y-114425683D01*
X165221670Y-114234767D01*
X165225469Y-114225172D01*
X165287377Y-114021410D01*
X165289555Y-114011337D01*
X165290986Y-114000462D01*
X165288775Y-113986278D01*
X165275617Y-113982500D01*
X164229115Y-113982500D01*
X164213876Y-113986975D01*
X164212671Y-113988365D01*
X164211000Y-113996048D01*
X164211000Y-115047017D01*
X163703000Y-115047017D01*
X163703000Y-113600500D01*
X163723002Y-113532379D01*
X163776658Y-113485886D01*
X163829000Y-113474500D01*
X165275344Y-113474500D01*
X165288875Y-113470527D01*
X165290180Y-113461447D01*
X165248214Y-113294375D01*
X165244894Y-113284624D01*
X165159972Y-113089314D01*
X165155105Y-113080239D01*
X165039426Y-112901426D01*
X165033136Y-112893257D01*
X164889806Y-112735740D01*
X164882273Y-112728715D01*
X164822286Y-112681341D01*
X172374888Y-112681341D01*
X172374983Y-112684971D01*
X172374983Y-112684972D01*
X172379957Y-112874911D01*
X172383970Y-113028171D01*
X172432856Y-113371660D01*
X172520897Y-113707253D01*
X172646927Y-114030503D01*
X172662204Y-114059357D01*
X172782113Y-114285825D01*
X172809275Y-114337126D01*
X172811325Y-114340109D01*
X172811327Y-114340112D01*
X173003733Y-114620064D01*
X173003739Y-114620071D01*
X173005790Y-114623056D01*
X173233866Y-114884505D01*
X173288899Y-114934581D01*
X173457881Y-115088342D01*
X173490481Y-115118006D01*
X173772233Y-115320466D01*
X174075388Y-115489200D01*
X174395928Y-115621972D01*
X174399422Y-115622967D01*
X174399424Y-115622968D01*
X174726103Y-115716025D01*
X174726108Y-115716026D01*
X174729604Y-115717022D01*
X174926304Y-115749233D01*
X175068412Y-115772504D01*
X175068419Y-115772505D01*
X175071993Y-115773090D01*
X175245276Y-115781262D01*
X175414931Y-115789263D01*
X175414932Y-115789263D01*
X175418558Y-115789434D01*
X175427415Y-115788830D01*
X175761073Y-115766084D01*
X175761081Y-115766083D01*
X175764704Y-115765836D01*
X175768279Y-115765173D01*
X175768282Y-115765173D01*
X176102279Y-115703270D01*
X176102283Y-115703269D01*
X176105844Y-115702609D01*
X176437456Y-115600592D01*
X176755145Y-115461136D01*
X176999511Y-115318341D01*
X177051560Y-115287926D01*
X177051562Y-115287925D01*
X177054700Y-115286091D01*
X177057609Y-115283907D01*
X177329244Y-115079958D01*
X177329248Y-115079955D01*
X177332151Y-115077775D01*
X177583819Y-114838950D01*
X177806370Y-114572783D01*
X177835007Y-114529188D01*
X177932305Y-114381064D01*
X177996853Y-114282799D01*
X178103421Y-114070912D01*
X178151117Y-113976080D01*
X178151120Y-113976072D01*
X178152744Y-113972844D01*
X178158848Y-113956165D01*
X178270729Y-113650437D01*
X178270730Y-113650433D01*
X178271977Y-113647026D01*
X178272822Y-113643504D01*
X178272825Y-113643496D01*
X178352124Y-113313191D01*
X178352125Y-113313187D01*
X178352971Y-113309662D01*
X178380238Y-113084340D01*
X178394316Y-112968004D01*
X178394316Y-112967997D01*
X178394652Y-112965225D01*
X178397491Y-112874911D01*
X178400511Y-112778797D01*
X178400599Y-112776000D01*
X178400438Y-112773204D01*
X178380836Y-112433246D01*
X178380835Y-112433241D01*
X178380627Y-112429626D01*
X178366377Y-112347976D01*
X178321600Y-112091415D01*
X178321598Y-112091408D01*
X178320976Y-112087842D01*
X178316281Y-112071989D01*
X178264000Y-111895494D01*
X178222437Y-111755180D01*
X178156642Y-111600925D01*
X178087740Y-111439386D01*
X178087738Y-111439383D01*
X178086316Y-111436048D01*
X178056211Y-111383267D01*
X177916208Y-111137816D01*
X177914417Y-111134676D01*
X177709018Y-110855060D01*
X177472842Y-110600904D01*
X177209019Y-110375578D01*
X176921047Y-110182069D01*
X176612741Y-110022940D01*
X176288189Y-109900302D01*
X176284668Y-109899418D01*
X176284663Y-109899416D01*
X176123378Y-109858904D01*
X175951692Y-109815780D01*
X175929476Y-109812855D01*
X175611315Y-109770968D01*
X175611307Y-109770967D01*
X175607711Y-109770494D01*
X175463045Y-109768221D01*
X175264446Y-109765101D01*
X175264442Y-109765101D01*
X175260804Y-109765044D01*
X175257190Y-109765405D01*
X175257184Y-109765405D01*
X175013843Y-109789694D01*
X174915569Y-109799503D01*
X174576583Y-109873414D01*
X174573156Y-109874587D01*
X174573150Y-109874589D01*
X174398904Y-109934247D01*
X174248339Y-109985797D01*
X173935188Y-110135163D01*
X173641279Y-110319532D01*
X173638443Y-110321804D01*
X173638436Y-110321809D01*
X173403488Y-110510038D01*
X173370509Y-110536459D01*
X173126466Y-110783071D01*
X173124225Y-110785929D01*
X173067732Y-110857978D01*
X172912386Y-111056098D01*
X172910493Y-111059187D01*
X172910491Y-111059190D01*
X172864233Y-111134676D01*
X172731105Y-111351921D01*
X172729580Y-111355206D01*
X172729578Y-111355210D01*
X172690505Y-111439386D01*
X172585027Y-111666620D01*
X172554586Y-111758666D01*
X172510646Y-111891528D01*
X172476087Y-111996023D01*
X172475351Y-111999578D01*
X172475350Y-111999581D01*
X172411533Y-112307742D01*
X172405730Y-112335764D01*
X172374888Y-112681341D01*
X164822286Y-112681341D01*
X164715139Y-112596722D01*
X164706556Y-112591020D01*
X164669602Y-112570620D01*
X164619631Y-112520187D01*
X164604859Y-112450745D01*
X164629975Y-112384339D01*
X164657327Y-112357732D01*
X164693102Y-112332214D01*
X164836860Y-112229673D01*
X164995096Y-112071989D01*
X165054594Y-111989189D01*
X165122435Y-111894777D01*
X165125453Y-111890577D01*
X165146320Y-111848357D01*
X165222136Y-111694953D01*
X165222137Y-111694951D01*
X165224430Y-111690311D01*
X165289370Y-111476569D01*
X165318529Y-111255090D01*
X165320156Y-111188500D01*
X165301852Y-110965861D01*
X165247431Y-110749202D01*
X165158354Y-110544340D01*
X165049177Y-110375578D01*
X165039822Y-110361117D01*
X165039820Y-110361114D01*
X165037014Y-110356777D01*
X164886670Y-110191551D01*
X164882619Y-110188352D01*
X164882615Y-110188348D01*
X164715414Y-110056300D01*
X164715410Y-110056298D01*
X164711359Y-110053098D01*
X164515789Y-109945138D01*
X164510920Y-109943414D01*
X164510916Y-109943412D01*
X164310087Y-109872295D01*
X164310083Y-109872294D01*
X164305212Y-109870569D01*
X164300119Y-109869662D01*
X164300116Y-109869661D01*
X164090373Y-109832300D01*
X164090367Y-109832299D01*
X164085284Y-109831394D01*
X164011452Y-109830492D01*
X163867081Y-109828728D01*
X163867079Y-109828728D01*
X163861911Y-109828665D01*
X163641091Y-109862455D01*
X163428756Y-109931857D01*
X163230607Y-110035007D01*
X163226474Y-110038110D01*
X163226471Y-110038112D01*
X163094638Y-110137095D01*
X163051965Y-110169135D01*
X162897629Y-110330638D01*
X162790201Y-110488121D01*
X162735293Y-110533121D01*
X162664768Y-110541292D01*
X162601021Y-110510038D01*
X162580324Y-110485554D01*
X162499822Y-110361117D01*
X162499820Y-110361114D01*
X162497014Y-110356777D01*
X162346670Y-110191551D01*
X162342619Y-110188352D01*
X162342615Y-110188348D01*
X162175414Y-110056300D01*
X162175410Y-110056298D01*
X162171359Y-110053098D01*
X161975789Y-109945138D01*
X161970920Y-109943414D01*
X161970916Y-109943412D01*
X161770087Y-109872295D01*
X161770083Y-109872294D01*
X161765212Y-109870569D01*
X161760119Y-109869662D01*
X161760116Y-109869661D01*
X161550373Y-109832300D01*
X161550367Y-109832299D01*
X161545284Y-109831394D01*
X161471452Y-109830492D01*
X161327081Y-109828728D01*
X161327079Y-109828728D01*
X161321911Y-109828665D01*
X161101091Y-109862455D01*
X160888756Y-109931857D01*
X160690607Y-110035007D01*
X160686474Y-110038110D01*
X160686471Y-110038112D01*
X160554638Y-110137095D01*
X160511965Y-110169135D01*
X160357629Y-110330638D01*
X160250201Y-110488121D01*
X160195293Y-110533121D01*
X160124768Y-110541292D01*
X160061021Y-110510038D01*
X160040324Y-110485554D01*
X159959822Y-110361117D01*
X159959820Y-110361114D01*
X159957014Y-110356777D01*
X159806670Y-110191551D01*
X159802619Y-110188352D01*
X159802615Y-110188348D01*
X159635414Y-110056300D01*
X159635410Y-110056298D01*
X159631359Y-110053098D01*
X159435789Y-109945138D01*
X159430920Y-109943414D01*
X159430916Y-109943412D01*
X159230087Y-109872295D01*
X159230083Y-109872294D01*
X159225212Y-109870569D01*
X159220119Y-109869662D01*
X159220116Y-109869661D01*
X159010373Y-109832300D01*
X159010367Y-109832299D01*
X159005284Y-109831394D01*
X158931452Y-109830492D01*
X158787081Y-109828728D01*
X158787079Y-109828728D01*
X158781911Y-109828665D01*
X158561091Y-109862455D01*
X158348756Y-109931857D01*
X158150607Y-110035007D01*
X158146474Y-110038110D01*
X158146471Y-110038112D01*
X158014638Y-110137095D01*
X157971965Y-110169135D01*
X157817629Y-110330638D01*
X157710201Y-110488121D01*
X157655293Y-110533121D01*
X157584768Y-110541292D01*
X157521021Y-110510038D01*
X157500324Y-110485554D01*
X157419822Y-110361117D01*
X157419820Y-110361114D01*
X157417014Y-110356777D01*
X157266670Y-110191551D01*
X157262619Y-110188352D01*
X157262615Y-110188348D01*
X157095414Y-110056300D01*
X157095410Y-110056298D01*
X157091359Y-110053098D01*
X156895789Y-109945138D01*
X156890920Y-109943414D01*
X156890916Y-109943412D01*
X156690087Y-109872295D01*
X156690083Y-109872294D01*
X156685212Y-109870569D01*
X156680119Y-109869662D01*
X156680116Y-109869661D01*
X156470373Y-109832300D01*
X156470367Y-109832299D01*
X156465284Y-109831394D01*
X156391452Y-109830492D01*
X156247081Y-109828728D01*
X156247079Y-109828728D01*
X156241911Y-109828665D01*
X156021091Y-109862455D01*
X155808756Y-109931857D01*
X155610607Y-110035007D01*
X155606474Y-110038110D01*
X155606471Y-110038112D01*
X155474638Y-110137095D01*
X155431965Y-110169135D01*
X155277629Y-110330638D01*
X155170201Y-110488121D01*
X155115293Y-110533121D01*
X155044768Y-110541292D01*
X154981021Y-110510038D01*
X154960324Y-110485554D01*
X154879822Y-110361117D01*
X154879820Y-110361114D01*
X154877014Y-110356777D01*
X154726670Y-110191551D01*
X154722619Y-110188352D01*
X154722615Y-110188348D01*
X154555414Y-110056300D01*
X154555410Y-110056298D01*
X154551359Y-110053098D01*
X154355789Y-109945138D01*
X154350920Y-109943414D01*
X154350916Y-109943412D01*
X154150087Y-109872295D01*
X154150083Y-109872294D01*
X154145212Y-109870569D01*
X154140119Y-109869662D01*
X154140116Y-109869661D01*
X153930373Y-109832300D01*
X153930367Y-109832299D01*
X153925284Y-109831394D01*
X153851452Y-109830492D01*
X153707081Y-109828728D01*
X153707079Y-109828728D01*
X153701911Y-109828665D01*
X153481091Y-109862455D01*
X153268756Y-109931857D01*
X153070607Y-110035007D01*
X153066474Y-110038110D01*
X153066471Y-110038112D01*
X152934638Y-110137095D01*
X152891965Y-110169135D01*
X152737629Y-110330638D01*
X152630201Y-110488121D01*
X152575293Y-110533121D01*
X152504768Y-110541292D01*
X152441021Y-110510038D01*
X152420324Y-110485554D01*
X152339822Y-110361117D01*
X152339820Y-110361114D01*
X152337014Y-110356777D01*
X152186670Y-110191551D01*
X152182619Y-110188352D01*
X152182615Y-110188348D01*
X152015414Y-110056300D01*
X152015410Y-110056298D01*
X152011359Y-110053098D01*
X151815789Y-109945138D01*
X151810920Y-109943414D01*
X151810916Y-109943412D01*
X151610087Y-109872295D01*
X151610083Y-109872294D01*
X151605212Y-109870569D01*
X151600119Y-109869662D01*
X151600116Y-109869661D01*
X151390373Y-109832300D01*
X151390367Y-109832299D01*
X151385284Y-109831394D01*
X151311452Y-109830492D01*
X151167081Y-109828728D01*
X151167079Y-109828728D01*
X151161911Y-109828665D01*
X150941091Y-109862455D01*
X150728756Y-109931857D01*
X150530607Y-110035007D01*
X150526474Y-110038110D01*
X150526471Y-110038112D01*
X150394638Y-110137095D01*
X150351965Y-110169135D01*
X150197629Y-110330638D01*
X150090201Y-110488121D01*
X150035293Y-110533121D01*
X149964768Y-110541292D01*
X149901021Y-110510038D01*
X149880324Y-110485554D01*
X149799822Y-110361117D01*
X149799820Y-110361114D01*
X149797014Y-110356777D01*
X149646670Y-110191551D01*
X149642619Y-110188352D01*
X149642615Y-110188348D01*
X149475414Y-110056300D01*
X149475410Y-110056298D01*
X149471359Y-110053098D01*
X149275789Y-109945138D01*
X149270920Y-109943414D01*
X149270916Y-109943412D01*
X149070087Y-109872295D01*
X149070083Y-109872294D01*
X149065212Y-109870569D01*
X149060119Y-109869662D01*
X149060116Y-109869661D01*
X148850373Y-109832300D01*
X148850367Y-109832299D01*
X148845284Y-109831394D01*
X148771452Y-109830492D01*
X148627081Y-109828728D01*
X148627079Y-109828728D01*
X148621911Y-109828665D01*
X148401091Y-109862455D01*
X148188756Y-109931857D01*
X147990607Y-110035007D01*
X147986474Y-110038110D01*
X147986471Y-110038112D01*
X147854638Y-110137095D01*
X147811965Y-110169135D01*
X147657629Y-110330638D01*
X147654720Y-110334903D01*
X147654714Y-110334911D01*
X147626973Y-110375578D01*
X147531743Y-110515180D01*
X147437688Y-110717805D01*
X147377989Y-110933070D01*
X147354251Y-111155195D01*
X127126121Y-111155195D01*
X127116208Y-111137816D01*
X127114417Y-111134676D01*
X126909018Y-110855060D01*
X126672842Y-110600904D01*
X126409019Y-110375578D01*
X126121047Y-110182069D01*
X125812741Y-110022940D01*
X125488189Y-109900302D01*
X125484668Y-109899418D01*
X125484663Y-109899416D01*
X125323378Y-109858904D01*
X125151692Y-109815780D01*
X125129476Y-109812855D01*
X124811315Y-109770968D01*
X124811307Y-109770967D01*
X124807711Y-109770494D01*
X124663045Y-109768221D01*
X124464446Y-109765101D01*
X124464442Y-109765101D01*
X124460804Y-109765044D01*
X124457190Y-109765405D01*
X124457184Y-109765405D01*
X124213843Y-109789694D01*
X124115569Y-109799503D01*
X123776583Y-109873414D01*
X123773156Y-109874587D01*
X123773150Y-109874589D01*
X123598904Y-109934247D01*
X123448339Y-109985797D01*
X123135188Y-110135163D01*
X122841279Y-110319532D01*
X122838443Y-110321804D01*
X122838436Y-110321809D01*
X122603488Y-110510038D01*
X122570509Y-110536459D01*
X122326466Y-110783071D01*
X122324225Y-110785929D01*
X122267732Y-110857978D01*
X122112386Y-111056098D01*
X122110493Y-111059187D01*
X122110491Y-111059190D01*
X122064233Y-111134676D01*
X121931105Y-111351921D01*
X121929580Y-111355206D01*
X121929578Y-111355210D01*
X121890505Y-111439386D01*
X121785027Y-111666620D01*
X121754586Y-111758666D01*
X121710646Y-111891528D01*
X121676087Y-111996023D01*
X121675351Y-111999578D01*
X121675350Y-111999581D01*
X121611533Y-112307742D01*
X121605730Y-112335764D01*
X121574888Y-112681341D01*
X118745000Y-112681341D01*
X118745000Y-106489500D01*
X171905335Y-106489500D01*
X171923965Y-106726211D01*
X171979395Y-106957094D01*
X171981288Y-106961665D01*
X171981289Y-106961667D01*
X172068272Y-107171663D01*
X172070260Y-107176463D01*
X172072846Y-107180683D01*
X172191741Y-107374702D01*
X172191745Y-107374708D01*
X172194324Y-107378916D01*
X172348531Y-107559469D01*
X172529084Y-107713676D01*
X172533292Y-107716255D01*
X172533298Y-107716259D01*
X172726584Y-107834705D01*
X172731537Y-107837740D01*
X172736107Y-107839633D01*
X172736111Y-107839635D01*
X172946333Y-107926711D01*
X172950906Y-107928605D01*
X173031109Y-107947860D01*
X173176976Y-107982880D01*
X173176982Y-107982881D01*
X173181789Y-107984035D01*
X173418500Y-108002665D01*
X173655211Y-107984035D01*
X173660018Y-107982881D01*
X173660024Y-107982880D01*
X173805891Y-107947860D01*
X173886094Y-107928605D01*
X173890667Y-107926711D01*
X174100889Y-107839635D01*
X174100893Y-107839633D01*
X174105463Y-107837740D01*
X174110416Y-107834705D01*
X174294056Y-107722170D01*
X177050660Y-107722170D01*
X177056387Y-107729820D01*
X177227542Y-107834705D01*
X177236337Y-107839187D01*
X177446488Y-107926234D01*
X177455873Y-107929283D01*
X177677054Y-107982385D01*
X177686801Y-107983928D01*
X177913570Y-108001775D01*
X177923430Y-108001775D01*
X178150199Y-107983928D01*
X178159946Y-107982385D01*
X178381127Y-107929283D01*
X178390512Y-107926234D01*
X178600663Y-107839187D01*
X178609458Y-107834705D01*
X178776945Y-107732068D01*
X178786407Y-107721610D01*
X178782624Y-107712834D01*
X177931312Y-106861522D01*
X177917368Y-106853908D01*
X177915535Y-106854039D01*
X177908920Y-106858290D01*
X177057420Y-107709790D01*
X177050660Y-107722170D01*
X174294056Y-107722170D01*
X174303702Y-107716259D01*
X174303708Y-107716255D01*
X174307916Y-107713676D01*
X174488469Y-107559469D01*
X174642676Y-107378916D01*
X174645255Y-107374708D01*
X174645259Y-107374702D01*
X174764154Y-107180683D01*
X174766740Y-107176463D01*
X174768729Y-107171663D01*
X174855711Y-106961667D01*
X174855712Y-106961665D01*
X174857605Y-106957094D01*
X174913035Y-106726211D01*
X174931277Y-106494430D01*
X176406225Y-106494430D01*
X176424072Y-106721199D01*
X176425615Y-106730946D01*
X176478717Y-106952127D01*
X176481766Y-106961512D01*
X176568813Y-107171663D01*
X176573295Y-107180458D01*
X176675932Y-107347945D01*
X176686390Y-107357407D01*
X176695166Y-107353624D01*
X177546478Y-106502312D01*
X177552856Y-106490632D01*
X178282908Y-106490632D01*
X178283039Y-106492465D01*
X178287290Y-106499080D01*
X179138790Y-107350580D01*
X179151170Y-107357340D01*
X179158820Y-107351613D01*
X179263705Y-107180458D01*
X179268187Y-107171663D01*
X179355234Y-106961512D01*
X179358283Y-106952127D01*
X179411385Y-106730946D01*
X179412928Y-106721199D01*
X179430775Y-106494430D01*
X179430775Y-106484570D01*
X179412928Y-106257801D01*
X179411385Y-106248054D01*
X179358283Y-106026873D01*
X179355234Y-106017488D01*
X179268187Y-105807337D01*
X179263705Y-105798542D01*
X179161068Y-105631055D01*
X179150610Y-105621593D01*
X179141834Y-105625376D01*
X178290522Y-106476688D01*
X178282908Y-106490632D01*
X177552856Y-106490632D01*
X177554092Y-106488368D01*
X177553961Y-106486535D01*
X177549710Y-106479920D01*
X176698210Y-105628420D01*
X176685830Y-105621660D01*
X176678180Y-105627387D01*
X176573295Y-105798542D01*
X176568813Y-105807337D01*
X176481766Y-106017488D01*
X176478717Y-106026873D01*
X176425615Y-106248054D01*
X176424072Y-106257801D01*
X176406225Y-106484570D01*
X176406225Y-106494430D01*
X174931277Y-106494430D01*
X174931665Y-106489500D01*
X174913035Y-106252789D01*
X174857605Y-106021906D01*
X174855711Y-106017333D01*
X174768635Y-105807111D01*
X174768633Y-105807107D01*
X174766740Y-105802537D01*
X174764154Y-105798317D01*
X174645259Y-105604298D01*
X174645255Y-105604292D01*
X174642676Y-105600084D01*
X174488469Y-105419531D01*
X174307916Y-105265324D01*
X174303708Y-105262745D01*
X174303702Y-105262741D01*
X174294970Y-105257390D01*
X177050593Y-105257390D01*
X177054376Y-105266166D01*
X177905688Y-106117478D01*
X177919632Y-106125092D01*
X177921465Y-106124961D01*
X177928080Y-106120710D01*
X178779580Y-105269210D01*
X178786340Y-105256830D01*
X178780613Y-105249180D01*
X178609458Y-105144295D01*
X178600663Y-105139813D01*
X178390512Y-105052766D01*
X178381127Y-105049717D01*
X178159946Y-104996615D01*
X178150199Y-104995072D01*
X177923430Y-104977225D01*
X177913570Y-104977225D01*
X177686801Y-104995072D01*
X177677054Y-104996615D01*
X177455873Y-105049717D01*
X177446488Y-105052766D01*
X177236337Y-105139813D01*
X177227542Y-105144295D01*
X177060055Y-105246932D01*
X177050593Y-105257390D01*
X174294970Y-105257390D01*
X174109683Y-105143846D01*
X174105463Y-105141260D01*
X174100893Y-105139367D01*
X174100889Y-105139365D01*
X173890667Y-105052289D01*
X173890665Y-105052288D01*
X173886094Y-105050395D01*
X173805891Y-105031140D01*
X173660024Y-104996120D01*
X173660018Y-104996119D01*
X173655211Y-104994965D01*
X173418500Y-104976335D01*
X173181789Y-104994965D01*
X173176982Y-104996119D01*
X173176976Y-104996120D01*
X173031109Y-105031140D01*
X172950906Y-105050395D01*
X172946335Y-105052288D01*
X172946333Y-105052289D01*
X172736111Y-105139365D01*
X172736107Y-105139367D01*
X172731537Y-105141260D01*
X172727317Y-105143846D01*
X172533298Y-105262741D01*
X172533292Y-105262745D01*
X172529084Y-105265324D01*
X172348531Y-105419531D01*
X172194324Y-105600084D01*
X172191745Y-105604292D01*
X172191741Y-105604298D01*
X172072846Y-105798317D01*
X172070260Y-105802537D01*
X172068367Y-105807107D01*
X172068365Y-105807111D01*
X171981289Y-106017333D01*
X171979395Y-106021906D01*
X171923965Y-106252789D01*
X171905335Y-106489500D01*
X118745000Y-106489500D01*
X118745000Y-102582695D01*
X135924251Y-102582695D01*
X135924548Y-102587848D01*
X135924548Y-102587851D01*
X135930011Y-102682590D01*
X135937110Y-102805715D01*
X135938247Y-102810761D01*
X135938248Y-102810767D01*
X135958119Y-102898939D01*
X135986222Y-103023639D01*
X136070266Y-103230616D01*
X136186987Y-103421088D01*
X136333250Y-103589938D01*
X136505126Y-103732632D01*
X136698000Y-103845338D01*
X136906692Y-103925030D01*
X136911760Y-103926061D01*
X136911763Y-103926062D01*
X137019017Y-103947883D01*
X137125597Y-103969567D01*
X137130772Y-103969757D01*
X137130774Y-103969757D01*
X137343673Y-103977564D01*
X137343677Y-103977564D01*
X137348837Y-103977753D01*
X137353957Y-103977097D01*
X137353959Y-103977097D01*
X137565288Y-103950025D01*
X137565289Y-103950025D01*
X137570416Y-103949368D01*
X137575366Y-103947883D01*
X137779429Y-103886661D01*
X137779434Y-103886659D01*
X137784384Y-103885174D01*
X137984994Y-103786896D01*
X138166860Y-103657173D01*
X138325096Y-103499489D01*
X138384594Y-103416689D01*
X138452435Y-103322277D01*
X138455453Y-103318077D01*
X138554430Y-103117811D01*
X138619370Y-102904069D01*
X138648529Y-102682590D01*
X138650156Y-102616000D01*
X138631852Y-102393361D01*
X138577431Y-102176702D01*
X138488354Y-101971840D01*
X138367014Y-101784277D01*
X138216670Y-101619051D01*
X138212619Y-101615852D01*
X138212615Y-101615848D01*
X138045414Y-101483800D01*
X138045410Y-101483798D01*
X138041359Y-101480598D01*
X138000053Y-101457796D01*
X137950084Y-101407364D01*
X137935312Y-101337921D01*
X137960428Y-101271516D01*
X137987780Y-101244909D01*
X138037015Y-101209790D01*
X138166860Y-101117173D01*
X138325096Y-100959489D01*
X138384594Y-100876689D01*
X138452435Y-100782277D01*
X138455453Y-100778077D01*
X138505674Y-100676463D01*
X138552136Y-100582453D01*
X138552137Y-100582451D01*
X138554430Y-100577811D01*
X138619370Y-100364069D01*
X138648529Y-100142590D01*
X138650156Y-100076000D01*
X138643045Y-99989500D01*
X171905335Y-99989500D01*
X171923965Y-100226211D01*
X171979395Y-100457094D01*
X171981288Y-100461665D01*
X171981289Y-100461667D01*
X172068272Y-100671663D01*
X172070260Y-100676463D01*
X172072846Y-100680683D01*
X172191741Y-100874702D01*
X172191745Y-100874708D01*
X172194324Y-100878916D01*
X172348531Y-101059469D01*
X172529084Y-101213676D01*
X172533292Y-101216255D01*
X172533298Y-101216259D01*
X172726584Y-101334705D01*
X172731537Y-101337740D01*
X172736107Y-101339633D01*
X172736111Y-101339635D01*
X172946333Y-101426711D01*
X172950906Y-101428605D01*
X173031109Y-101447860D01*
X173176976Y-101482880D01*
X173176982Y-101482881D01*
X173181789Y-101484035D01*
X173418500Y-101502665D01*
X173655211Y-101484035D01*
X173660018Y-101482881D01*
X173660024Y-101482880D01*
X173805891Y-101447860D01*
X173886094Y-101428605D01*
X173890667Y-101426711D01*
X174100889Y-101339635D01*
X174100893Y-101339633D01*
X174105463Y-101337740D01*
X174110416Y-101334705D01*
X174294056Y-101222170D01*
X177050660Y-101222170D01*
X177056387Y-101229820D01*
X177227542Y-101334705D01*
X177236337Y-101339187D01*
X177446488Y-101426234D01*
X177455873Y-101429283D01*
X177677054Y-101482385D01*
X177686801Y-101483928D01*
X177913570Y-101501775D01*
X177923430Y-101501775D01*
X178150199Y-101483928D01*
X178159946Y-101482385D01*
X178381127Y-101429283D01*
X178390512Y-101426234D01*
X178600663Y-101339187D01*
X178609458Y-101334705D01*
X178776945Y-101232068D01*
X178786407Y-101221610D01*
X178782624Y-101212834D01*
X177931312Y-100361522D01*
X177917368Y-100353908D01*
X177915535Y-100354039D01*
X177908920Y-100358290D01*
X177057420Y-101209790D01*
X177050660Y-101222170D01*
X174294056Y-101222170D01*
X174303702Y-101216259D01*
X174303708Y-101216255D01*
X174307916Y-101213676D01*
X174488469Y-101059469D01*
X174642676Y-100878916D01*
X174645255Y-100874708D01*
X174645259Y-100874702D01*
X174764154Y-100680683D01*
X174766740Y-100676463D01*
X174768729Y-100671663D01*
X174855711Y-100461667D01*
X174855712Y-100461665D01*
X174857605Y-100457094D01*
X174913035Y-100226211D01*
X174931277Y-99994430D01*
X176406225Y-99994430D01*
X176424072Y-100221199D01*
X176425615Y-100230946D01*
X176478717Y-100452127D01*
X176481766Y-100461512D01*
X176568813Y-100671663D01*
X176573295Y-100680458D01*
X176675932Y-100847945D01*
X176686390Y-100857407D01*
X176695166Y-100853624D01*
X177546478Y-100002312D01*
X177552856Y-99990632D01*
X178282908Y-99990632D01*
X178283039Y-99992465D01*
X178287290Y-99999080D01*
X179138790Y-100850580D01*
X179151170Y-100857340D01*
X179158820Y-100851613D01*
X179263705Y-100680458D01*
X179268187Y-100671663D01*
X179355234Y-100461512D01*
X179358283Y-100452127D01*
X179411385Y-100230946D01*
X179412928Y-100221199D01*
X179430775Y-99994430D01*
X179430775Y-99984570D01*
X179412928Y-99757801D01*
X179411385Y-99748054D01*
X179358283Y-99526873D01*
X179355234Y-99517488D01*
X179268187Y-99307337D01*
X179263705Y-99298542D01*
X179161068Y-99131055D01*
X179150610Y-99121593D01*
X179141834Y-99125376D01*
X178290522Y-99976688D01*
X178282908Y-99990632D01*
X177552856Y-99990632D01*
X177554092Y-99988368D01*
X177553961Y-99986535D01*
X177549710Y-99979920D01*
X176698210Y-99128420D01*
X176685830Y-99121660D01*
X176678180Y-99127387D01*
X176573295Y-99298542D01*
X176568813Y-99307337D01*
X176481766Y-99517488D01*
X176478717Y-99526873D01*
X176425615Y-99748054D01*
X176424072Y-99757801D01*
X176406225Y-99984570D01*
X176406225Y-99994430D01*
X174931277Y-99994430D01*
X174931665Y-99989500D01*
X174913035Y-99752789D01*
X174857605Y-99521906D01*
X174810165Y-99407375D01*
X174768635Y-99307111D01*
X174768633Y-99307107D01*
X174766740Y-99302537D01*
X174728697Y-99240457D01*
X174645259Y-99104298D01*
X174645255Y-99104292D01*
X174642676Y-99100084D01*
X174488469Y-98919531D01*
X174307916Y-98765324D01*
X174303708Y-98762745D01*
X174303702Y-98762741D01*
X174294970Y-98757390D01*
X177050593Y-98757390D01*
X177054376Y-98766166D01*
X177905688Y-99617478D01*
X177919632Y-99625092D01*
X177921465Y-99624961D01*
X177928080Y-99620710D01*
X178779580Y-98769210D01*
X178786340Y-98756830D01*
X178780613Y-98749180D01*
X178609458Y-98644295D01*
X178600663Y-98639813D01*
X178390512Y-98552766D01*
X178381127Y-98549717D01*
X178159946Y-98496615D01*
X178150199Y-98495072D01*
X177923430Y-98477225D01*
X177913570Y-98477225D01*
X177686801Y-98495072D01*
X177677054Y-98496615D01*
X177455873Y-98549717D01*
X177446488Y-98552766D01*
X177236337Y-98639813D01*
X177227542Y-98644295D01*
X177060055Y-98746932D01*
X177050593Y-98757390D01*
X174294970Y-98757390D01*
X174109683Y-98643846D01*
X174105463Y-98641260D01*
X174100893Y-98639367D01*
X174100889Y-98639365D01*
X173890667Y-98552289D01*
X173890665Y-98552288D01*
X173886094Y-98550395D01*
X173805891Y-98531140D01*
X173660024Y-98496120D01*
X173660018Y-98496119D01*
X173655211Y-98494965D01*
X173418500Y-98476335D01*
X173181789Y-98494965D01*
X173176982Y-98496119D01*
X173176976Y-98496120D01*
X173031109Y-98531140D01*
X172950906Y-98550395D01*
X172946335Y-98552288D01*
X172946333Y-98552289D01*
X172736111Y-98639365D01*
X172736107Y-98639367D01*
X172731537Y-98641260D01*
X172727317Y-98643846D01*
X172533298Y-98762741D01*
X172533292Y-98762745D01*
X172529084Y-98765324D01*
X172348531Y-98919531D01*
X172194324Y-99100084D01*
X172191745Y-99104292D01*
X172191741Y-99104298D01*
X172108303Y-99240457D01*
X172070260Y-99302537D01*
X172068367Y-99307107D01*
X172068365Y-99307111D01*
X172026835Y-99407375D01*
X171979395Y-99521906D01*
X171923965Y-99752789D01*
X171905335Y-99989500D01*
X138643045Y-99989500D01*
X138631852Y-99853361D01*
X138577431Y-99636702D01*
X138488354Y-99431840D01*
X138448906Y-99370862D01*
X138369822Y-99248617D01*
X138369820Y-99248614D01*
X138367014Y-99244277D01*
X138216670Y-99079051D01*
X138212619Y-99075852D01*
X138212615Y-99075848D01*
X138045414Y-98943800D01*
X138045410Y-98943798D01*
X138041359Y-98940598D01*
X137999569Y-98917529D01*
X137949598Y-98867097D01*
X137934826Y-98797654D01*
X137959942Y-98731248D01*
X137987294Y-98704641D01*
X138162328Y-98579792D01*
X138170200Y-98573139D01*
X138321052Y-98422812D01*
X138327730Y-98414965D01*
X138452003Y-98242020D01*
X138457313Y-98233183D01*
X138551670Y-98042267D01*
X138555469Y-98032672D01*
X138617377Y-97828910D01*
X138619555Y-97818837D01*
X138620986Y-97807962D01*
X138618775Y-97793778D01*
X138605617Y-97790000D01*
X135970225Y-97790000D01*
X135956694Y-97793973D01*
X135955257Y-97803966D01*
X135985565Y-97938446D01*
X135988645Y-97948275D01*
X136068770Y-98145603D01*
X136073413Y-98154794D01*
X136184694Y-98336388D01*
X136190777Y-98344699D01*
X136330213Y-98505667D01*
X136337580Y-98512883D01*
X136501434Y-98648916D01*
X136509881Y-98654831D01*
X136578969Y-98695203D01*
X136627693Y-98746842D01*
X136640764Y-98816625D01*
X136614033Y-98882396D01*
X136573584Y-98915752D01*
X136560607Y-98922507D01*
X136556474Y-98925610D01*
X136556471Y-98925612D01*
X136532247Y-98943800D01*
X136381965Y-99056635D01*
X136227629Y-99218138D01*
X136101743Y-99402680D01*
X136007688Y-99605305D01*
X135947989Y-99820570D01*
X135924251Y-100042695D01*
X135924548Y-100047848D01*
X135924548Y-100047851D01*
X135930011Y-100142590D01*
X135937110Y-100265715D01*
X135938247Y-100270761D01*
X135938248Y-100270767D01*
X135956985Y-100353908D01*
X135986222Y-100483639D01*
X136024461Y-100577811D01*
X136066233Y-100680683D01*
X136070266Y-100690616D01*
X136072965Y-100695020D01*
X136183074Y-100874702D01*
X136186987Y-100881088D01*
X136333250Y-101049938D01*
X136505126Y-101192632D01*
X136568766Y-101229820D01*
X136578445Y-101235476D01*
X136627169Y-101287114D01*
X136640240Y-101356897D01*
X136613509Y-101422669D01*
X136573055Y-101456027D01*
X136560607Y-101462507D01*
X136556474Y-101465610D01*
X136556471Y-101465612D01*
X136507638Y-101502277D01*
X136381965Y-101596635D01*
X136227629Y-101758138D01*
X136101743Y-101942680D01*
X136007688Y-102145305D01*
X135947989Y-102360570D01*
X135924251Y-102582695D01*
X118745000Y-102582695D01*
X118745000Y-100042695D01*
X120684251Y-100042695D01*
X120684548Y-100047848D01*
X120684548Y-100047851D01*
X120690011Y-100142590D01*
X120697110Y-100265715D01*
X120698247Y-100270761D01*
X120698248Y-100270767D01*
X120716985Y-100353908D01*
X120746222Y-100483639D01*
X120784461Y-100577811D01*
X120826233Y-100680683D01*
X120830266Y-100690616D01*
X120832965Y-100695020D01*
X120943074Y-100874702D01*
X120946987Y-100881088D01*
X121093250Y-101049938D01*
X121265126Y-101192632D01*
X121458000Y-101305338D01*
X121666692Y-101385030D01*
X121671760Y-101386061D01*
X121671763Y-101386062D01*
X121776466Y-101407364D01*
X121885597Y-101429567D01*
X121890772Y-101429757D01*
X121890774Y-101429757D01*
X122103673Y-101437564D01*
X122103677Y-101437564D01*
X122108837Y-101437753D01*
X122113957Y-101437097D01*
X122113959Y-101437097D01*
X122325288Y-101410025D01*
X122325289Y-101410025D01*
X122330416Y-101409368D01*
X122337096Y-101407364D01*
X122539429Y-101346661D01*
X122539434Y-101346659D01*
X122544384Y-101345174D01*
X122744994Y-101246896D01*
X122926860Y-101117173D01*
X123085096Y-100959489D01*
X123144594Y-100876689D01*
X123212435Y-100782277D01*
X123215453Y-100778077D01*
X123265674Y-100676463D01*
X123312136Y-100582453D01*
X123312137Y-100582451D01*
X123314430Y-100577811D01*
X123379370Y-100364069D01*
X123408529Y-100142590D01*
X123410156Y-100076000D01*
X123391852Y-99853361D01*
X123337431Y-99636702D01*
X123248354Y-99431840D01*
X123208906Y-99370862D01*
X123129822Y-99248617D01*
X123129820Y-99248614D01*
X123127014Y-99244277D01*
X122976670Y-99079051D01*
X122972619Y-99075852D01*
X122972615Y-99075848D01*
X122805414Y-98943800D01*
X122805410Y-98943798D01*
X122801359Y-98940598D01*
X122760053Y-98917796D01*
X122710084Y-98867364D01*
X122695312Y-98797921D01*
X122720428Y-98731516D01*
X122747780Y-98704909D01*
X122791603Y-98673650D01*
X122926860Y-98577173D01*
X122951353Y-98552766D01*
X123081435Y-98423137D01*
X123085096Y-98419489D01*
X123144594Y-98336689D01*
X123212435Y-98242277D01*
X123215453Y-98238077D01*
X123314430Y-98037811D01*
X123379370Y-97824069D01*
X123408529Y-97602590D01*
X123410156Y-97536000D01*
X123391852Y-97313361D01*
X123337431Y-97096702D01*
X123248354Y-96891840D01*
X123127014Y-96704277D01*
X122976670Y-96539051D01*
X122972619Y-96535852D01*
X122972615Y-96535848D01*
X122805414Y-96403800D01*
X122805410Y-96403798D01*
X122801359Y-96400598D01*
X122760053Y-96377796D01*
X122710084Y-96327364D01*
X122695312Y-96257921D01*
X122720428Y-96191516D01*
X122747780Y-96164909D01*
X122791603Y-96133650D01*
X122926860Y-96037173D01*
X123085096Y-95879489D01*
X123140874Y-95801866D01*
X123212435Y-95702277D01*
X123215453Y-95698077D01*
X123225431Y-95677889D01*
X123312136Y-95502453D01*
X123312137Y-95502451D01*
X123314430Y-95497811D01*
X123379370Y-95284069D01*
X123408529Y-95062590D01*
X123410156Y-94996000D01*
X123407418Y-94962695D01*
X135924251Y-94962695D01*
X135924548Y-94967848D01*
X135924548Y-94967851D01*
X135930011Y-95062590D01*
X135937110Y-95185715D01*
X135938247Y-95190761D01*
X135938248Y-95190767D01*
X135956832Y-95273226D01*
X135986222Y-95403639D01*
X136070266Y-95610616D01*
X136072965Y-95615020D01*
X136159702Y-95756562D01*
X136186987Y-95801088D01*
X136333250Y-95969938D01*
X136505126Y-96112632D01*
X136578445Y-96155476D01*
X136578955Y-96155774D01*
X136627679Y-96207412D01*
X136640750Y-96277195D01*
X136614019Y-96342967D01*
X136573562Y-96376327D01*
X136565457Y-96380546D01*
X136556738Y-96386036D01*
X136386433Y-96513905D01*
X136378726Y-96520748D01*
X136231590Y-96674717D01*
X136225104Y-96682727D01*
X136105098Y-96858649D01*
X136100000Y-96867623D01*
X136010338Y-97060783D01*
X136006775Y-97070470D01*
X135951389Y-97270183D01*
X135952912Y-97278607D01*
X135965292Y-97282000D01*
X138605344Y-97282000D01*
X138618875Y-97278027D01*
X138620180Y-97268947D01*
X138578214Y-97101875D01*
X138574894Y-97092124D01*
X138489972Y-96896814D01*
X138485105Y-96887739D01*
X138369426Y-96708926D01*
X138363136Y-96700757D01*
X138219806Y-96543240D01*
X138212273Y-96536215D01*
X138045139Y-96404222D01*
X138036556Y-96398520D01*
X137999602Y-96378120D01*
X137949631Y-96327687D01*
X137934859Y-96258245D01*
X137959975Y-96191839D01*
X137987327Y-96165232D01*
X138010797Y-96148491D01*
X138166860Y-96037173D01*
X138325096Y-95879489D01*
X138380874Y-95801866D01*
X138452435Y-95702277D01*
X138455453Y-95698077D01*
X138465431Y-95677889D01*
X138552136Y-95502453D01*
X138552137Y-95502451D01*
X138554430Y-95497811D01*
X138619370Y-95284069D01*
X138640576Y-95123000D01*
X155931496Y-95123000D01*
X155932186Y-95129565D01*
X155948946Y-95289023D01*
X155951458Y-95312928D01*
X156010473Y-95494556D01*
X156105960Y-95659944D01*
X156110378Y-95664851D01*
X156110379Y-95664852D01*
X156229325Y-95796955D01*
X156233747Y-95801866D01*
X156388248Y-95914118D01*
X156394276Y-95916802D01*
X156394278Y-95916803D01*
X156556681Y-95989109D01*
X156562712Y-95991794D01*
X156656112Y-96011647D01*
X156743056Y-96030128D01*
X156743061Y-96030128D01*
X156749513Y-96031500D01*
X156940487Y-96031500D01*
X156946939Y-96030128D01*
X156946944Y-96030128D01*
X157033887Y-96011647D01*
X157127288Y-95991794D01*
X157133319Y-95989109D01*
X157295722Y-95916803D01*
X157295724Y-95916802D01*
X157301752Y-95914118D01*
X157456253Y-95801866D01*
X157460668Y-95796963D01*
X157465580Y-95792540D01*
X157466705Y-95793789D01*
X157520014Y-95760949D01*
X157553200Y-95756500D01*
X170482233Y-95756500D01*
X170493416Y-95757027D01*
X170500909Y-95758702D01*
X170508835Y-95758453D01*
X170508836Y-95758453D01*
X170568986Y-95756562D01*
X170572945Y-95756500D01*
X170600856Y-95756500D01*
X170604791Y-95756003D01*
X170604856Y-95755995D01*
X170616693Y-95755062D01*
X170648951Y-95754048D01*
X170652970Y-95753922D01*
X170660889Y-95753673D01*
X170680343Y-95748021D01*
X170699700Y-95744013D01*
X170711930Y-95742468D01*
X170711931Y-95742468D01*
X170719797Y-95741474D01*
X170727168Y-95738555D01*
X170727170Y-95738555D01*
X170760912Y-95725196D01*
X170772142Y-95721351D01*
X170806983Y-95711229D01*
X170806984Y-95711229D01*
X170814593Y-95709018D01*
X170821412Y-95704985D01*
X170821417Y-95704983D01*
X170832028Y-95698707D01*
X170849776Y-95690012D01*
X170868617Y-95682552D01*
X170875033Y-95677891D01*
X170875036Y-95677889D01*
X170879612Y-95674564D01*
X170953673Y-95650500D01*
X171037487Y-95650500D01*
X171043939Y-95649128D01*
X171043944Y-95649128D01*
X171130887Y-95630647D01*
X171224288Y-95610794D01*
X171235440Y-95605829D01*
X171392722Y-95535803D01*
X171392724Y-95535802D01*
X171398752Y-95533118D01*
X171553253Y-95420866D01*
X171671965Y-95289023D01*
X171676621Y-95283852D01*
X171676622Y-95283851D01*
X171681040Y-95278944D01*
X171767284Y-95129565D01*
X171773223Y-95119279D01*
X171773224Y-95119278D01*
X171776527Y-95113556D01*
X171835542Y-94931928D01*
X171855504Y-94742000D01*
X171854814Y-94735435D01*
X171836232Y-94558635D01*
X171836232Y-94558633D01*
X171835542Y-94552072D01*
X171776527Y-94370444D01*
X171768529Y-94356590D01*
X171684341Y-94210774D01*
X171681040Y-94205056D01*
X171655064Y-94176206D01*
X171557675Y-94068045D01*
X171557674Y-94068044D01*
X171553253Y-94063134D01*
X171429924Y-93973530D01*
X171404094Y-93954763D01*
X171404093Y-93954762D01*
X171398752Y-93950882D01*
X171392724Y-93948198D01*
X171392722Y-93948197D01*
X171230319Y-93875891D01*
X171230318Y-93875891D01*
X171224288Y-93873206D01*
X171130888Y-93853353D01*
X171043944Y-93834872D01*
X171043939Y-93834872D01*
X171037487Y-93833500D01*
X170964254Y-93833500D01*
X170896133Y-93813498D01*
X170849640Y-93759842D01*
X170838944Y-93720671D01*
X170820232Y-93542634D01*
X170820231Y-93542631D01*
X170819542Y-93536072D01*
X170760527Y-93354444D01*
X170665040Y-93189056D01*
X170637147Y-93158077D01*
X170541675Y-93052045D01*
X170541674Y-93052044D01*
X170537253Y-93047134D01*
X170414311Y-92957811D01*
X170388094Y-92938763D01*
X170388093Y-92938762D01*
X170382752Y-92934882D01*
X170376724Y-92932198D01*
X170376722Y-92932197D01*
X170214319Y-92859891D01*
X170214318Y-92859891D01*
X170208288Y-92857206D01*
X170114888Y-92837353D01*
X170027944Y-92818872D01*
X170027939Y-92818872D01*
X170021487Y-92817500D01*
X169830513Y-92817500D01*
X169824061Y-92818872D01*
X169824056Y-92818872D01*
X169737112Y-92837353D01*
X169643712Y-92857206D01*
X169637682Y-92859891D01*
X169637681Y-92859891D01*
X169475278Y-92932197D01*
X169475276Y-92932198D01*
X169469248Y-92934882D01*
X169463907Y-92938762D01*
X169463906Y-92938763D01*
X169437689Y-92957811D01*
X169314747Y-93047134D01*
X169310326Y-93052044D01*
X169310325Y-93052045D01*
X169214854Y-93158077D01*
X169186960Y-93189056D01*
X169183659Y-93194774D01*
X169132432Y-93283501D01*
X169081049Y-93332494D01*
X169023313Y-93346500D01*
X157553200Y-93346500D01*
X157485079Y-93326498D01*
X157465853Y-93310157D01*
X157465580Y-93310460D01*
X157460668Y-93306037D01*
X157456253Y-93301134D01*
X157309862Y-93194774D01*
X157307094Y-93192763D01*
X157307093Y-93192762D01*
X157301752Y-93188882D01*
X157295724Y-93186198D01*
X157295722Y-93186197D01*
X157133319Y-93113891D01*
X157133318Y-93113891D01*
X157127288Y-93111206D01*
X157033887Y-93091353D01*
X156946944Y-93072872D01*
X156946939Y-93072872D01*
X156940487Y-93071500D01*
X156749513Y-93071500D01*
X156743061Y-93072872D01*
X156743056Y-93072872D01*
X156656113Y-93091353D01*
X156562712Y-93111206D01*
X156556682Y-93113891D01*
X156556681Y-93113891D01*
X156394278Y-93186197D01*
X156394276Y-93186198D01*
X156388248Y-93188882D01*
X156382907Y-93192762D01*
X156382906Y-93192763D01*
X156380138Y-93194774D01*
X156233747Y-93301134D01*
X156229326Y-93306044D01*
X156229325Y-93306045D01*
X156185747Y-93354444D01*
X156105960Y-93443056D01*
X156010473Y-93608444D01*
X155951458Y-93790072D01*
X155950768Y-93796633D01*
X155950768Y-93796635D01*
X155942720Y-93873206D01*
X155931496Y-93980000D01*
X155932186Y-93986565D01*
X155950463Y-94160457D01*
X155951458Y-94169928D01*
X156010473Y-94351556D01*
X156013776Y-94357278D01*
X156013777Y-94357279D01*
X156089538Y-94488500D01*
X156106276Y-94557495D01*
X156089538Y-94614500D01*
X156015926Y-94742000D01*
X156010473Y-94751444D01*
X155951458Y-94933072D01*
X155950768Y-94939633D01*
X155950768Y-94939635D01*
X155933149Y-95107271D01*
X155931496Y-95123000D01*
X138640576Y-95123000D01*
X138648529Y-95062590D01*
X138650156Y-94996000D01*
X138631852Y-94773361D01*
X138577431Y-94556702D01*
X138488354Y-94351840D01*
X138390220Y-94200148D01*
X138369822Y-94168617D01*
X138369820Y-94168614D01*
X138367014Y-94164277D01*
X138216670Y-93999051D01*
X138212619Y-93995852D01*
X138212615Y-93995848D01*
X138045414Y-93863800D01*
X138045410Y-93863798D01*
X138041359Y-93860598D01*
X138000053Y-93837796D01*
X137950084Y-93787364D01*
X137935312Y-93717921D01*
X137960428Y-93651516D01*
X137987780Y-93624909D01*
X138031603Y-93593650D01*
X138166860Y-93497173D01*
X138215429Y-93448774D01*
X138255884Y-93408460D01*
X138325096Y-93339489D01*
X138330123Y-93332494D01*
X138452435Y-93162277D01*
X138455453Y-93158077D01*
X138554430Y-92957811D01*
X138619370Y-92744069D01*
X138648529Y-92522590D01*
X138648644Y-92517883D01*
X138650074Y-92459365D01*
X138650074Y-92459361D01*
X138650156Y-92456000D01*
X138631852Y-92233361D01*
X138577431Y-92016702D01*
X138488354Y-91811840D01*
X138367014Y-91624277D01*
X138357334Y-91613639D01*
X138219798Y-91462488D01*
X138188746Y-91398642D01*
X138197141Y-91328143D01*
X138242317Y-91273375D01*
X138268761Y-91259706D01*
X138375297Y-91219767D01*
X138383705Y-91216615D01*
X138442307Y-91172695D01*
X170620251Y-91172695D01*
X170620548Y-91177848D01*
X170620548Y-91177851D01*
X170626011Y-91272590D01*
X170633110Y-91395715D01*
X170634247Y-91400761D01*
X170634248Y-91400767D01*
X170653972Y-91488285D01*
X170682222Y-91613639D01*
X170766266Y-91820616D01*
X170882987Y-92011088D01*
X171029250Y-92179938D01*
X171201126Y-92322632D01*
X171394000Y-92435338D01*
X171602692Y-92515030D01*
X171607760Y-92516061D01*
X171607763Y-92516062D01*
X171715017Y-92537883D01*
X171821597Y-92559567D01*
X171826772Y-92559757D01*
X171826774Y-92559757D01*
X172039673Y-92567564D01*
X172039677Y-92567564D01*
X172044837Y-92567753D01*
X172049957Y-92567097D01*
X172049959Y-92567097D01*
X172261288Y-92540025D01*
X172261289Y-92540025D01*
X172266416Y-92539368D01*
X172271366Y-92537883D01*
X172475429Y-92476661D01*
X172475434Y-92476659D01*
X172480384Y-92475174D01*
X172680994Y-92376896D01*
X172862860Y-92247173D01*
X172871542Y-92238522D01*
X173017435Y-92093137D01*
X173021096Y-92089489D01*
X173035468Y-92069489D01*
X173148435Y-91912277D01*
X173151453Y-91908077D01*
X173163631Y-91883438D01*
X173248136Y-91712453D01*
X173248137Y-91712451D01*
X173250430Y-91707811D01*
X173297019Y-91554469D01*
X173313865Y-91499023D01*
X173313865Y-91499021D01*
X173315370Y-91494069D01*
X173344529Y-91272590D01*
X173344611Y-91269240D01*
X173346074Y-91209365D01*
X173346074Y-91209361D01*
X173346156Y-91206000D01*
X173341774Y-91152695D01*
X176564251Y-91152695D01*
X176564548Y-91157848D01*
X176564548Y-91157851D01*
X176573932Y-91320598D01*
X176577110Y-91375715D01*
X176578247Y-91380761D01*
X176578248Y-91380767D01*
X176598119Y-91468939D01*
X176626222Y-91593639D01*
X176710266Y-91800616D01*
X176826987Y-91991088D01*
X176973250Y-92159938D01*
X177145126Y-92302632D01*
X177338000Y-92415338D01*
X177342825Y-92417180D01*
X177342826Y-92417181D01*
X177390375Y-92435338D01*
X177546692Y-92495030D01*
X177551760Y-92496061D01*
X177551763Y-92496062D01*
X177650067Y-92516062D01*
X177765597Y-92539567D01*
X177770772Y-92539757D01*
X177770774Y-92539757D01*
X177983673Y-92547564D01*
X177983677Y-92547564D01*
X177988837Y-92547753D01*
X177993957Y-92547097D01*
X177993959Y-92547097D01*
X178205288Y-92520025D01*
X178205289Y-92520025D01*
X178210416Y-92519368D01*
X178215366Y-92517883D01*
X178419429Y-92456661D01*
X178419434Y-92456659D01*
X178424384Y-92455174D01*
X178624994Y-92356896D01*
X178806860Y-92227173D01*
X178965096Y-92069489D01*
X179024594Y-91986689D01*
X179092435Y-91892277D01*
X179095453Y-91888077D01*
X179133132Y-91811840D01*
X179192136Y-91692453D01*
X179192137Y-91692451D01*
X179194430Y-91687811D01*
X179259370Y-91474069D01*
X179288529Y-91252590D01*
X179289585Y-91209365D01*
X179290074Y-91189365D01*
X179290074Y-91189361D01*
X179290156Y-91186000D01*
X179271852Y-90963361D01*
X179217431Y-90746702D01*
X179128354Y-90541840D01*
X179088906Y-90480862D01*
X179009822Y-90358617D01*
X179009820Y-90358614D01*
X179007014Y-90354277D01*
X178856670Y-90189051D01*
X178852619Y-90185852D01*
X178852615Y-90185848D01*
X178685414Y-90053800D01*
X178685410Y-90053798D01*
X178681359Y-90050598D01*
X178640053Y-90027796D01*
X178590084Y-89977364D01*
X178575312Y-89907921D01*
X178600428Y-89841516D01*
X178627780Y-89814909D01*
X178690893Y-89769891D01*
X178806860Y-89687173D01*
X178965096Y-89529489D01*
X179024594Y-89446689D01*
X179092435Y-89352277D01*
X179095453Y-89348077D01*
X179128605Y-89281000D01*
X179192136Y-89152453D01*
X179192137Y-89152451D01*
X179194430Y-89147811D01*
X179259370Y-88934069D01*
X179288529Y-88712590D01*
X179290156Y-88646000D01*
X179271852Y-88423361D01*
X179217431Y-88206702D01*
X179128354Y-88001840D01*
X179007014Y-87814277D01*
X178856670Y-87649051D01*
X178852619Y-87645852D01*
X178852615Y-87645848D01*
X178685414Y-87513800D01*
X178685410Y-87513798D01*
X178681359Y-87510598D01*
X178640053Y-87487796D01*
X178590084Y-87437364D01*
X178575312Y-87367921D01*
X178600428Y-87301516D01*
X178627780Y-87274909D01*
X178671603Y-87243650D01*
X178806860Y-87147173D01*
X178965096Y-86989489D01*
X178974581Y-86976290D01*
X179092435Y-86812277D01*
X179095453Y-86808077D01*
X179150809Y-86696073D01*
X179192136Y-86612453D01*
X179192137Y-86612451D01*
X179194430Y-86607811D01*
X179259370Y-86394069D01*
X179288529Y-86172590D01*
X179290156Y-86106000D01*
X179271852Y-85883361D01*
X179217431Y-85666702D01*
X179128354Y-85461840D01*
X179007014Y-85274277D01*
X179003532Y-85270450D01*
X178859798Y-85112488D01*
X178828746Y-85048642D01*
X178837141Y-84978143D01*
X178882317Y-84923375D01*
X178908761Y-84909706D01*
X179015297Y-84869767D01*
X179023705Y-84866615D01*
X179140261Y-84779261D01*
X179227615Y-84662705D01*
X179278745Y-84526316D01*
X179285500Y-84464134D01*
X179285500Y-82667866D01*
X179278745Y-82605684D01*
X179227615Y-82469295D01*
X179140261Y-82352739D01*
X179023705Y-82265385D01*
X178887316Y-82214255D01*
X178825134Y-82207500D01*
X177028866Y-82207500D01*
X176966684Y-82214255D01*
X176830295Y-82265385D01*
X176713739Y-82352739D01*
X176626385Y-82469295D01*
X176575255Y-82605684D01*
X176568500Y-82667866D01*
X176568500Y-84464134D01*
X176575255Y-84526316D01*
X176626385Y-84662705D01*
X176713739Y-84779261D01*
X176830295Y-84866615D01*
X176838704Y-84869767D01*
X176838705Y-84869768D01*
X176947451Y-84910535D01*
X177004216Y-84953176D01*
X177028916Y-85019738D01*
X177013709Y-85089087D01*
X176994316Y-85115568D01*
X176867629Y-85248138D01*
X176741743Y-85432680D01*
X176647688Y-85635305D01*
X176587989Y-85850570D01*
X176564251Y-86072695D01*
X176564548Y-86077848D01*
X176564548Y-86077851D01*
X176570011Y-86172590D01*
X176577110Y-86295715D01*
X176578247Y-86300761D01*
X176578248Y-86300767D01*
X176598119Y-86388939D01*
X176626222Y-86513639D01*
X176664461Y-86607811D01*
X176696271Y-86686149D01*
X176710266Y-86720616D01*
X176712965Y-86725020D01*
X176792213Y-86854341D01*
X176826987Y-86911088D01*
X176973250Y-87079938D01*
X177145126Y-87222632D01*
X177206543Y-87258521D01*
X177218445Y-87265476D01*
X177267169Y-87317114D01*
X177280240Y-87386897D01*
X177253509Y-87452669D01*
X177213055Y-87486027D01*
X177200607Y-87492507D01*
X177196474Y-87495610D01*
X177196471Y-87495612D01*
X177087136Y-87577703D01*
X177021965Y-87626635D01*
X176867629Y-87788138D01*
X176741743Y-87972680D01*
X176647688Y-88175305D01*
X176587989Y-88390570D01*
X176564251Y-88612695D01*
X176564548Y-88617848D01*
X176564548Y-88617851D01*
X176575454Y-88807001D01*
X176577110Y-88835715D01*
X176578247Y-88840761D01*
X176578248Y-88840767D01*
X176592436Y-88903721D01*
X176626222Y-89053639D01*
X176710266Y-89260616D01*
X176826987Y-89451088D01*
X176973250Y-89619938D01*
X177145126Y-89762632D01*
X177215595Y-89803811D01*
X177218445Y-89805476D01*
X177267169Y-89857114D01*
X177280240Y-89926897D01*
X177253509Y-89992669D01*
X177213055Y-90026027D01*
X177200607Y-90032507D01*
X177196474Y-90035610D01*
X177196471Y-90035612D01*
X177026100Y-90163530D01*
X177021965Y-90166635D01*
X176867629Y-90328138D01*
X176864715Y-90332410D01*
X176864714Y-90332411D01*
X176779556Y-90457249D01*
X176741743Y-90512680D01*
X176647688Y-90715305D01*
X176587989Y-90930570D01*
X176564251Y-91152695D01*
X173341774Y-91152695D01*
X173327852Y-90983361D01*
X173273431Y-90766702D01*
X173184354Y-90561840D01*
X173063014Y-90374277D01*
X173048765Y-90358617D01*
X172915798Y-90212488D01*
X172884746Y-90148642D01*
X172893141Y-90078143D01*
X172938317Y-90023375D01*
X172964761Y-90009706D01*
X173071297Y-89969767D01*
X173079705Y-89966615D01*
X173196261Y-89879261D01*
X173283615Y-89762705D01*
X173334745Y-89626316D01*
X173341500Y-89564134D01*
X173341500Y-87767866D01*
X173334745Y-87705684D01*
X173283615Y-87569295D01*
X173196261Y-87452739D01*
X173079705Y-87365385D01*
X172943316Y-87314255D01*
X172881134Y-87307500D01*
X171084866Y-87307500D01*
X171022684Y-87314255D01*
X170886295Y-87365385D01*
X170769739Y-87452739D01*
X170682385Y-87569295D01*
X170631255Y-87705684D01*
X170624500Y-87767866D01*
X170624500Y-89564134D01*
X170631255Y-89626316D01*
X170682385Y-89762705D01*
X170769739Y-89879261D01*
X170886295Y-89966615D01*
X170894704Y-89969767D01*
X170894705Y-89969768D01*
X171003451Y-90010535D01*
X171060216Y-90053176D01*
X171084916Y-90119738D01*
X171069709Y-90189087D01*
X171050316Y-90215568D01*
X170946313Y-90324401D01*
X170923629Y-90348138D01*
X170797743Y-90532680D01*
X170782003Y-90566590D01*
X170712972Y-90715305D01*
X170703688Y-90735305D01*
X170643989Y-90950570D01*
X170620251Y-91172695D01*
X138442307Y-91172695D01*
X138500261Y-91129261D01*
X138587615Y-91012705D01*
X138638745Y-90876316D01*
X138645500Y-90814134D01*
X138645500Y-89017866D01*
X138638745Y-88955684D01*
X138587615Y-88819295D01*
X138500261Y-88702739D01*
X138383705Y-88615385D01*
X138247316Y-88564255D01*
X138185134Y-88557500D01*
X136388866Y-88557500D01*
X136326684Y-88564255D01*
X136190295Y-88615385D01*
X136073739Y-88702739D01*
X135986385Y-88819295D01*
X135935255Y-88955684D01*
X135928500Y-89017866D01*
X135928500Y-90814134D01*
X135935255Y-90876316D01*
X135986385Y-91012705D01*
X136073739Y-91129261D01*
X136190295Y-91216615D01*
X136198704Y-91219767D01*
X136198705Y-91219768D01*
X136307451Y-91260535D01*
X136364216Y-91303176D01*
X136388916Y-91369738D01*
X136373709Y-91439087D01*
X136354316Y-91465568D01*
X136236748Y-91588596D01*
X136227629Y-91598138D01*
X136101743Y-91782680D01*
X136007688Y-91985305D01*
X135947989Y-92200570D01*
X135924251Y-92422695D01*
X135924548Y-92427848D01*
X135924548Y-92427851D01*
X135931016Y-92540025D01*
X135937110Y-92645715D01*
X135938247Y-92650761D01*
X135938248Y-92650767D01*
X135958119Y-92738939D01*
X135986222Y-92863639D01*
X136070266Y-93070616D01*
X136072965Y-93075020D01*
X136145118Y-93192763D01*
X136186987Y-93261088D01*
X136333250Y-93429938D01*
X136505126Y-93572632D01*
X136566411Y-93608444D01*
X136578445Y-93615476D01*
X136627169Y-93667114D01*
X136640240Y-93736897D01*
X136613509Y-93802669D01*
X136573055Y-93836027D01*
X136560607Y-93842507D01*
X136556474Y-93845610D01*
X136556471Y-93845612D01*
X136386227Y-93973435D01*
X136381965Y-93976635D01*
X136227629Y-94138138D01*
X136101743Y-94322680D01*
X136007688Y-94525305D01*
X135947989Y-94740570D01*
X135924251Y-94962695D01*
X123407418Y-94962695D01*
X123391852Y-94773361D01*
X123337431Y-94556702D01*
X123248354Y-94351840D01*
X123150220Y-94200148D01*
X123129822Y-94168617D01*
X123129820Y-94168614D01*
X123127014Y-94164277D01*
X123123532Y-94160450D01*
X122979798Y-94002488D01*
X122948746Y-93938642D01*
X122957141Y-93868143D01*
X123002317Y-93813375D01*
X123028761Y-93799706D01*
X123135297Y-93759767D01*
X123143705Y-93756615D01*
X123260261Y-93669261D01*
X123347615Y-93552705D01*
X123398745Y-93416316D01*
X123405500Y-93354134D01*
X123405500Y-91557866D01*
X123398745Y-91495684D01*
X123347615Y-91359295D01*
X123260261Y-91242739D01*
X123143705Y-91155385D01*
X123007316Y-91104255D01*
X122945134Y-91097500D01*
X121148866Y-91097500D01*
X121086684Y-91104255D01*
X120950295Y-91155385D01*
X120833739Y-91242739D01*
X120746385Y-91359295D01*
X120695255Y-91495684D01*
X120688500Y-91557866D01*
X120688500Y-93354134D01*
X120695255Y-93416316D01*
X120746385Y-93552705D01*
X120833739Y-93669261D01*
X120950295Y-93756615D01*
X120958704Y-93759767D01*
X120958705Y-93759768D01*
X121067451Y-93800535D01*
X121124216Y-93843176D01*
X121148916Y-93909738D01*
X121133709Y-93979087D01*
X121114316Y-94005568D01*
X120987629Y-94138138D01*
X120861743Y-94322680D01*
X120767688Y-94525305D01*
X120707989Y-94740570D01*
X120684251Y-94962695D01*
X120684548Y-94967848D01*
X120684548Y-94967851D01*
X120690011Y-95062590D01*
X120697110Y-95185715D01*
X120698247Y-95190761D01*
X120698248Y-95190767D01*
X120716832Y-95273226D01*
X120746222Y-95403639D01*
X120830266Y-95610616D01*
X120832965Y-95615020D01*
X120919702Y-95756562D01*
X120946987Y-95801088D01*
X121093250Y-95969938D01*
X121265126Y-96112632D01*
X121335595Y-96153811D01*
X121338445Y-96155476D01*
X121387169Y-96207114D01*
X121400240Y-96276897D01*
X121373509Y-96342669D01*
X121333055Y-96376027D01*
X121320607Y-96382507D01*
X121316474Y-96385610D01*
X121316471Y-96385612D01*
X121292247Y-96403800D01*
X121141965Y-96516635D01*
X120987629Y-96678138D01*
X120984715Y-96682410D01*
X120984714Y-96682411D01*
X120972404Y-96700457D01*
X120861743Y-96862680D01*
X120767688Y-97065305D01*
X120707989Y-97280570D01*
X120684251Y-97502695D01*
X120684548Y-97507848D01*
X120684548Y-97507851D01*
X120690011Y-97602590D01*
X120697110Y-97725715D01*
X120698247Y-97730761D01*
X120698248Y-97730767D01*
X120711597Y-97790000D01*
X120746222Y-97943639D01*
X120830266Y-98150616D01*
X120946987Y-98341088D01*
X121093250Y-98509938D01*
X121265126Y-98652632D01*
X121335595Y-98693811D01*
X121338445Y-98695476D01*
X121387169Y-98747114D01*
X121400240Y-98816897D01*
X121373509Y-98882669D01*
X121333055Y-98916027D01*
X121320607Y-98922507D01*
X121316474Y-98925610D01*
X121316471Y-98925612D01*
X121292247Y-98943800D01*
X121141965Y-99056635D01*
X120987629Y-99218138D01*
X120861743Y-99402680D01*
X120767688Y-99605305D01*
X120707989Y-99820570D01*
X120684251Y-100042695D01*
X118745000Y-100042695D01*
X118745000Y-89281000D01*
X127864496Y-89281000D01*
X127884458Y-89470928D01*
X127943473Y-89652556D01*
X128038960Y-89817944D01*
X128043378Y-89822851D01*
X128043379Y-89822852D01*
X128151235Y-89942638D01*
X128166747Y-89959866D01*
X128235346Y-90009706D01*
X128296036Y-90053800D01*
X128321248Y-90072118D01*
X128327276Y-90074802D01*
X128327278Y-90074803D01*
X128489681Y-90147109D01*
X128495712Y-90149794D01*
X128589113Y-90169647D01*
X128676056Y-90188128D01*
X128676061Y-90188128D01*
X128682513Y-90189500D01*
X128873487Y-90189500D01*
X128879939Y-90188128D01*
X128879944Y-90188128D01*
X128966887Y-90169647D01*
X129060288Y-90149794D01*
X129066319Y-90147109D01*
X129228722Y-90074803D01*
X129228724Y-90074802D01*
X129234752Y-90072118D01*
X129259965Y-90053800D01*
X129320654Y-90009706D01*
X129389253Y-89959866D01*
X129404765Y-89942638D01*
X129512621Y-89822852D01*
X129512622Y-89822851D01*
X129517040Y-89817944D01*
X129612527Y-89652556D01*
X129671542Y-89470928D01*
X129691504Y-89281000D01*
X129677993Y-89152453D01*
X129672232Y-89097635D01*
X129672232Y-89097633D01*
X129671542Y-89091072D01*
X129612527Y-88909444D01*
X129553381Y-88807000D01*
X129536500Y-88744001D01*
X129536500Y-87615371D01*
X129556502Y-87547250D01*
X129573405Y-87526276D01*
X135665331Y-81434350D01*
X135728228Y-81400199D01*
X135784824Y-81388169D01*
X135784833Y-81388166D01*
X135791288Y-81386794D01*
X135797319Y-81384109D01*
X135959722Y-81311803D01*
X135959724Y-81311802D01*
X135965752Y-81309118D01*
X136003530Y-81281671D01*
X136021157Y-81268864D01*
X136120253Y-81196866D01*
X136124675Y-81191955D01*
X136243621Y-81059852D01*
X136243622Y-81059851D01*
X136248040Y-81054944D01*
X136264751Y-81026000D01*
X141097000Y-81026000D01*
X146051000Y-81026000D01*
X146119121Y-81046002D01*
X146165614Y-81099658D01*
X146177000Y-81152000D01*
X146177000Y-83185000D01*
X149987000Y-83185000D01*
X149987000Y-81152000D01*
X150007002Y-81083879D01*
X150060658Y-81037386D01*
X150113000Y-81026000D01*
X155956000Y-81026000D01*
X155956000Y-73372695D01*
X176564251Y-73372695D01*
X176564548Y-73377848D01*
X176564548Y-73377851D01*
X176570011Y-73472590D01*
X176577110Y-73595715D01*
X176578247Y-73600761D01*
X176578248Y-73600767D01*
X176598119Y-73688939D01*
X176626222Y-73813639D01*
X176710266Y-74020616D01*
X176826987Y-74211088D01*
X176973250Y-74379938D01*
X176977230Y-74383242D01*
X176981981Y-74387187D01*
X177021616Y-74446090D01*
X177023113Y-74517071D01*
X176985997Y-74577593D01*
X176945725Y-74602112D01*
X176857095Y-74635338D01*
X176830295Y-74645385D01*
X176713739Y-74732739D01*
X176626385Y-74849295D01*
X176575255Y-74985684D01*
X176568500Y-75047866D01*
X176568500Y-76844134D01*
X176575255Y-76906316D01*
X176626385Y-77042705D01*
X176713739Y-77159261D01*
X176830295Y-77246615D01*
X176966684Y-77297745D01*
X177028866Y-77304500D01*
X178825134Y-77304500D01*
X178887316Y-77297745D01*
X179023705Y-77246615D01*
X179140261Y-77159261D01*
X179227615Y-77042705D01*
X179278745Y-76906316D01*
X179285500Y-76844134D01*
X179285500Y-75047866D01*
X179278745Y-74985684D01*
X179227615Y-74849295D01*
X179140261Y-74732739D01*
X179023705Y-74645385D01*
X178996905Y-74635338D01*
X178905203Y-74600960D01*
X178848439Y-74558318D01*
X178823739Y-74491756D01*
X178838947Y-74422408D01*
X178860493Y-74393727D01*
X178961435Y-74293137D01*
X178965096Y-74289489D01*
X179024594Y-74206689D01*
X179092435Y-74112277D01*
X179095453Y-74108077D01*
X179194430Y-73907811D01*
X179259370Y-73694069D01*
X179288529Y-73472590D01*
X179290156Y-73406000D01*
X179271852Y-73183361D01*
X179217431Y-72966702D01*
X179128354Y-72761840D01*
X179007014Y-72574277D01*
X178856670Y-72409051D01*
X178852619Y-72405852D01*
X178852615Y-72405848D01*
X178685414Y-72273800D01*
X178685410Y-72273798D01*
X178681359Y-72270598D01*
X178639569Y-72247529D01*
X178589598Y-72197097D01*
X178574826Y-72127654D01*
X178599942Y-72061248D01*
X178627294Y-72034641D01*
X178802328Y-71909792D01*
X178810200Y-71903139D01*
X178961052Y-71752812D01*
X178967730Y-71744965D01*
X179092003Y-71572020D01*
X179097313Y-71563183D01*
X179191670Y-71372267D01*
X179195469Y-71362672D01*
X179257377Y-71158910D01*
X179259555Y-71148837D01*
X179260986Y-71137962D01*
X179258775Y-71123778D01*
X179245617Y-71120000D01*
X176610225Y-71120000D01*
X176596694Y-71123973D01*
X176595257Y-71133966D01*
X176625565Y-71268446D01*
X176628645Y-71278275D01*
X176708770Y-71475603D01*
X176713413Y-71484794D01*
X176824694Y-71666388D01*
X176830777Y-71674699D01*
X176970213Y-71835667D01*
X176977580Y-71842883D01*
X177141434Y-71978916D01*
X177149881Y-71984831D01*
X177218969Y-72025203D01*
X177267693Y-72076842D01*
X177280764Y-72146625D01*
X177254033Y-72212396D01*
X177213584Y-72245752D01*
X177200607Y-72252507D01*
X177196474Y-72255610D01*
X177196471Y-72255612D01*
X177172247Y-72273800D01*
X177021965Y-72386635D01*
X176867629Y-72548138D01*
X176741743Y-72732680D01*
X176647688Y-72935305D01*
X176587989Y-73150570D01*
X176564251Y-73372695D01*
X155956000Y-73372695D01*
X155956000Y-71755000D01*
X141097000Y-71755000D01*
X141097000Y-81026000D01*
X136264751Y-81026000D01*
X136343527Y-80889556D01*
X136402542Y-80707928D01*
X136422504Y-80518000D01*
X136402542Y-80328072D01*
X136343527Y-80146444D01*
X136334802Y-80131331D01*
X136251341Y-79986774D01*
X136248040Y-79981056D01*
X136120253Y-79839134D01*
X136021157Y-79767136D01*
X135971094Y-79730763D01*
X135971093Y-79730762D01*
X135965752Y-79726882D01*
X135959724Y-79724198D01*
X135959722Y-79724197D01*
X135797319Y-79651891D01*
X135797318Y-79651891D01*
X135791288Y-79649206D01*
X135697887Y-79629353D01*
X135610944Y-79610872D01*
X135610939Y-79610872D01*
X135604487Y-79609500D01*
X135413513Y-79609500D01*
X135407061Y-79610872D01*
X135407056Y-79610872D01*
X135320113Y-79629353D01*
X135226712Y-79649206D01*
X135220682Y-79651891D01*
X135220681Y-79651891D01*
X135058278Y-79724197D01*
X135058276Y-79724198D01*
X135052248Y-79726882D01*
X135046907Y-79730762D01*
X135046906Y-79730763D01*
X134996843Y-79767136D01*
X134897747Y-79839134D01*
X134769960Y-79981056D01*
X134766659Y-79986774D01*
X134683199Y-80131331D01*
X134674473Y-80146444D01*
X134672431Y-80152729D01*
X134619613Y-80315285D01*
X134588875Y-80365444D01*
X128289089Y-86665230D01*
X128274677Y-86677616D01*
X128263082Y-86686149D01*
X128263077Y-86686154D01*
X128257182Y-86690492D01*
X128252443Y-86696070D01*
X128252440Y-86696073D01*
X128222965Y-86730768D01*
X128216035Y-86738284D01*
X128210340Y-86743979D01*
X128208060Y-86746861D01*
X128192719Y-86766251D01*
X128189928Y-86769655D01*
X128157286Y-86808077D01*
X128142667Y-86825285D01*
X128139339Y-86831801D01*
X128135972Y-86836850D01*
X128132805Y-86841979D01*
X128128266Y-86847716D01*
X128097345Y-86913875D01*
X128095442Y-86917769D01*
X128062231Y-86982808D01*
X128060492Y-86989916D01*
X128058393Y-86995559D01*
X128056476Y-87001322D01*
X128053378Y-87007950D01*
X128051888Y-87015112D01*
X128051888Y-87015113D01*
X128038514Y-87079412D01*
X128037544Y-87083696D01*
X128020192Y-87154610D01*
X128019500Y-87165764D01*
X128019464Y-87165762D01*
X128019225Y-87169755D01*
X128018851Y-87173947D01*
X128017360Y-87181115D01*
X128017558Y-87188432D01*
X128019454Y-87258521D01*
X128019500Y-87261928D01*
X128019500Y-88744001D01*
X128002619Y-88807000D01*
X127943473Y-88909444D01*
X127884458Y-89091072D01*
X127883768Y-89097633D01*
X127883768Y-89097635D01*
X127878007Y-89152453D01*
X127864496Y-89281000D01*
X118745000Y-89281000D01*
X118745000Y-81920669D01*
X120689001Y-81920669D01*
X120689371Y-81927490D01*
X120694895Y-81978352D01*
X120698521Y-81993604D01*
X120743676Y-82114054D01*
X120752214Y-82129649D01*
X120828715Y-82231724D01*
X120841276Y-82244285D01*
X120943351Y-82320786D01*
X120958946Y-82329324D01*
X121079394Y-82374478D01*
X121094649Y-82378105D01*
X121145514Y-82383631D01*
X121152328Y-82384000D01*
X121774885Y-82384000D01*
X121790124Y-82379525D01*
X121791329Y-82378135D01*
X121793000Y-82370452D01*
X121793000Y-82365884D01*
X122301000Y-82365884D01*
X122305475Y-82381123D01*
X122306865Y-82382328D01*
X122314548Y-82383999D01*
X122941669Y-82383999D01*
X122948490Y-82383629D01*
X122999352Y-82378105D01*
X123014604Y-82374479D01*
X123135054Y-82329324D01*
X123150649Y-82320786D01*
X123252724Y-82244285D01*
X123265285Y-82231724D01*
X123341786Y-82129649D01*
X123350324Y-82114054D01*
X123395478Y-81993606D01*
X123399105Y-81978351D01*
X123404631Y-81927486D01*
X123405000Y-81920672D01*
X123405000Y-81298115D01*
X123400525Y-81282876D01*
X123399135Y-81281671D01*
X123391452Y-81280000D01*
X122319115Y-81280000D01*
X122303876Y-81284475D01*
X122302671Y-81285865D01*
X122301000Y-81293548D01*
X122301000Y-82365884D01*
X121793000Y-82365884D01*
X121793000Y-81298115D01*
X121788525Y-81282876D01*
X121787135Y-81281671D01*
X121779452Y-81280000D01*
X120707116Y-81280000D01*
X120691877Y-81284475D01*
X120690672Y-81285865D01*
X120689001Y-81293548D01*
X120689001Y-81920669D01*
X118745000Y-81920669D01*
X118745000Y-78452695D01*
X120684251Y-78452695D01*
X120684548Y-78457848D01*
X120684548Y-78457851D01*
X120690011Y-78552590D01*
X120697110Y-78675715D01*
X120698247Y-78680761D01*
X120698248Y-78680767D01*
X120718119Y-78768939D01*
X120746222Y-78893639D01*
X120830266Y-79100616D01*
X120946987Y-79291088D01*
X121093250Y-79459938D01*
X121097225Y-79463238D01*
X121097231Y-79463244D01*
X121102425Y-79467556D01*
X121142059Y-79526460D01*
X121143555Y-79597441D01*
X121106439Y-79657962D01*
X121066168Y-79682480D01*
X120958946Y-79722676D01*
X120943351Y-79731214D01*
X120841276Y-79807715D01*
X120828715Y-79820276D01*
X120752214Y-79922351D01*
X120743676Y-79937946D01*
X120698522Y-80058394D01*
X120694895Y-80073649D01*
X120689369Y-80124514D01*
X120689000Y-80131328D01*
X120689000Y-80753885D01*
X120693475Y-80769124D01*
X120694865Y-80770329D01*
X120702548Y-80772000D01*
X123386884Y-80772000D01*
X123402123Y-80767525D01*
X123403328Y-80766135D01*
X123404999Y-80758452D01*
X123404999Y-80131331D01*
X123404629Y-80124510D01*
X123399105Y-80073648D01*
X123395479Y-80058396D01*
X123350324Y-79937946D01*
X123341786Y-79922351D01*
X123265285Y-79820276D01*
X123252724Y-79807715D01*
X123150649Y-79731214D01*
X123135054Y-79722676D01*
X123024813Y-79681348D01*
X122968049Y-79638706D01*
X122943349Y-79572145D01*
X122958557Y-79502796D01*
X122980104Y-79474115D01*
X123081430Y-79373144D01*
X123081440Y-79373132D01*
X123085096Y-79369489D01*
X123144594Y-79286689D01*
X123212435Y-79192277D01*
X123215453Y-79188077D01*
X123314430Y-78987811D01*
X123379370Y-78774069D01*
X123408529Y-78552590D01*
X123410156Y-78486000D01*
X123391852Y-78263361D01*
X123337431Y-78046702D01*
X123248354Y-77841840D01*
X123127014Y-77654277D01*
X122976670Y-77489051D01*
X122972619Y-77485852D01*
X122972615Y-77485848D01*
X122805414Y-77353800D01*
X122805410Y-77353798D01*
X122801359Y-77350598D01*
X122760053Y-77327796D01*
X122710084Y-77277364D01*
X122695312Y-77207921D01*
X122720428Y-77141516D01*
X122747780Y-77114909D01*
X122791603Y-77083650D01*
X122926860Y-76987173D01*
X123085096Y-76829489D01*
X123144594Y-76746689D01*
X123212435Y-76652277D01*
X123215453Y-76648077D01*
X123314430Y-76447811D01*
X123379370Y-76234069D01*
X123408529Y-76012590D01*
X123410156Y-75946000D01*
X123391852Y-75723361D01*
X123337431Y-75506702D01*
X123248354Y-75301840D01*
X123127014Y-75114277D01*
X122976670Y-74949051D01*
X122972619Y-74945852D01*
X122972615Y-74945848D01*
X122805414Y-74813800D01*
X122805410Y-74813798D01*
X122801359Y-74810598D01*
X122760053Y-74787796D01*
X122710084Y-74737364D01*
X122695312Y-74667921D01*
X122720428Y-74601516D01*
X122747780Y-74574909D01*
X122791603Y-74543650D01*
X122926860Y-74447173D01*
X123085096Y-74289489D01*
X123144594Y-74206689D01*
X123212435Y-74112277D01*
X123215453Y-74108077D01*
X123314430Y-73907811D01*
X123379370Y-73694069D01*
X123408529Y-73472590D01*
X123410156Y-73406000D01*
X123391852Y-73183361D01*
X123337431Y-72966702D01*
X123248354Y-72761840D01*
X123127014Y-72574277D01*
X122976670Y-72409051D01*
X122972619Y-72405852D01*
X122972615Y-72405848D01*
X122805414Y-72273800D01*
X122805410Y-72273798D01*
X122801359Y-72270598D01*
X122760053Y-72247796D01*
X122710084Y-72197364D01*
X122695312Y-72127921D01*
X122720428Y-72061516D01*
X122747780Y-72034909D01*
X122791603Y-72003650D01*
X122926860Y-71907173D01*
X123085096Y-71749489D01*
X123144594Y-71666689D01*
X123212435Y-71572277D01*
X123215453Y-71568077D01*
X123314430Y-71367811D01*
X123379370Y-71154069D01*
X123408529Y-70932590D01*
X123410156Y-70866000D01*
X123391852Y-70643361D01*
X123337431Y-70426702D01*
X123248354Y-70221840D01*
X123127014Y-70034277D01*
X122976670Y-69869051D01*
X122972619Y-69865852D01*
X122972615Y-69865848D01*
X122805414Y-69733800D01*
X122805410Y-69733798D01*
X122801359Y-69730598D01*
X122760053Y-69707796D01*
X122710084Y-69657364D01*
X122695312Y-69587921D01*
X122720428Y-69521516D01*
X122747780Y-69494909D01*
X122791603Y-69463650D01*
X122926860Y-69367173D01*
X123085096Y-69209489D01*
X123144594Y-69126689D01*
X123212435Y-69032277D01*
X123215453Y-69028077D01*
X123314430Y-68827811D01*
X123379370Y-68614069D01*
X123408529Y-68392590D01*
X123410156Y-68326000D01*
X123407418Y-68292695D01*
X176564251Y-68292695D01*
X176564548Y-68297848D01*
X176564548Y-68297851D01*
X176570011Y-68392590D01*
X176577110Y-68515715D01*
X176578247Y-68520761D01*
X176578248Y-68520767D01*
X176598119Y-68608939D01*
X176626222Y-68733639D01*
X176710266Y-68940616D01*
X176826987Y-69131088D01*
X176973250Y-69299938D01*
X177145126Y-69442632D01*
X177218445Y-69485476D01*
X177218955Y-69485774D01*
X177267679Y-69537412D01*
X177280750Y-69607195D01*
X177254019Y-69672967D01*
X177213562Y-69706327D01*
X177205457Y-69710546D01*
X177196738Y-69716036D01*
X177026433Y-69843905D01*
X177018726Y-69850748D01*
X176871590Y-70004717D01*
X176865104Y-70012727D01*
X176745098Y-70188649D01*
X176740000Y-70197623D01*
X176650338Y-70390783D01*
X176646775Y-70400470D01*
X176591389Y-70600183D01*
X176592912Y-70608607D01*
X176605292Y-70612000D01*
X179245344Y-70612000D01*
X179258875Y-70608027D01*
X179260180Y-70598947D01*
X179218214Y-70431875D01*
X179214894Y-70422124D01*
X179129972Y-70226814D01*
X179125105Y-70217739D01*
X179009426Y-70038926D01*
X179003136Y-70030757D01*
X178859806Y-69873240D01*
X178852273Y-69866215D01*
X178685139Y-69734222D01*
X178676556Y-69728520D01*
X178639602Y-69708120D01*
X178589631Y-69657687D01*
X178574859Y-69588245D01*
X178599975Y-69521839D01*
X178627327Y-69495232D01*
X178650797Y-69478491D01*
X178806860Y-69367173D01*
X178965096Y-69209489D01*
X179024594Y-69126689D01*
X179092435Y-69032277D01*
X179095453Y-69028077D01*
X179194430Y-68827811D01*
X179259370Y-68614069D01*
X179288529Y-68392590D01*
X179290156Y-68326000D01*
X179271852Y-68103361D01*
X179217431Y-67886702D01*
X179128354Y-67681840D01*
X179007014Y-67494277D01*
X178856670Y-67329051D01*
X178852619Y-67325852D01*
X178852615Y-67325848D01*
X178685414Y-67193800D01*
X178685410Y-67193798D01*
X178681359Y-67190598D01*
X178485789Y-67082638D01*
X178480920Y-67080914D01*
X178480916Y-67080912D01*
X178280087Y-67009795D01*
X178280083Y-67009794D01*
X178275212Y-67008069D01*
X178270119Y-67007162D01*
X178270116Y-67007161D01*
X178060373Y-66969800D01*
X178060367Y-66969799D01*
X178055284Y-66968894D01*
X177981452Y-66967992D01*
X177837081Y-66966228D01*
X177837079Y-66966228D01*
X177831911Y-66966165D01*
X177611091Y-66999955D01*
X177398756Y-67069357D01*
X177200607Y-67172507D01*
X177196474Y-67175610D01*
X177196471Y-67175612D01*
X177172247Y-67193800D01*
X177021965Y-67306635D01*
X176867629Y-67468138D01*
X176741743Y-67652680D01*
X176647688Y-67855305D01*
X176587989Y-68070570D01*
X176564251Y-68292695D01*
X123407418Y-68292695D01*
X123391852Y-68103361D01*
X123337431Y-67886702D01*
X123248354Y-67681840D01*
X123127014Y-67494277D01*
X122976670Y-67329051D01*
X122972619Y-67325852D01*
X122972615Y-67325848D01*
X122805414Y-67193800D01*
X122805410Y-67193798D01*
X122801359Y-67190598D01*
X122605789Y-67082638D01*
X122600920Y-67080914D01*
X122600916Y-67080912D01*
X122400087Y-67009795D01*
X122400083Y-67009794D01*
X122395212Y-67008069D01*
X122390119Y-67007162D01*
X122390116Y-67007161D01*
X122180373Y-66969800D01*
X122180367Y-66969799D01*
X122175284Y-66968894D01*
X122101452Y-66967992D01*
X121957081Y-66966228D01*
X121957079Y-66966228D01*
X121951911Y-66966165D01*
X121731091Y-66999955D01*
X121518756Y-67069357D01*
X121320607Y-67172507D01*
X121316474Y-67175610D01*
X121316471Y-67175612D01*
X121292247Y-67193800D01*
X121141965Y-67306635D01*
X120987629Y-67468138D01*
X120861743Y-67652680D01*
X120767688Y-67855305D01*
X120707989Y-68070570D01*
X120684251Y-68292695D01*
X120684548Y-68297848D01*
X120684548Y-68297851D01*
X120690011Y-68392590D01*
X120697110Y-68515715D01*
X120698247Y-68520761D01*
X120698248Y-68520767D01*
X120718119Y-68608939D01*
X120746222Y-68733639D01*
X120830266Y-68940616D01*
X120946987Y-69131088D01*
X121093250Y-69299938D01*
X121265126Y-69442632D01*
X121335595Y-69483811D01*
X121338445Y-69485476D01*
X121387169Y-69537114D01*
X121400240Y-69606897D01*
X121373509Y-69672669D01*
X121333055Y-69706027D01*
X121320607Y-69712507D01*
X121316474Y-69715610D01*
X121316471Y-69715612D01*
X121292247Y-69733800D01*
X121141965Y-69846635D01*
X120987629Y-70008138D01*
X120984715Y-70012410D01*
X120984714Y-70012411D01*
X120972404Y-70030457D01*
X120861743Y-70192680D01*
X120767688Y-70395305D01*
X120707989Y-70610570D01*
X120684251Y-70832695D01*
X120684548Y-70837848D01*
X120684548Y-70837851D01*
X120690011Y-70932590D01*
X120697110Y-71055715D01*
X120698247Y-71060761D01*
X120698248Y-71060767D01*
X120711597Y-71120000D01*
X120746222Y-71273639D01*
X120830266Y-71480616D01*
X120946987Y-71671088D01*
X121093250Y-71839938D01*
X121265126Y-71982632D01*
X121335595Y-72023811D01*
X121338445Y-72025476D01*
X121387169Y-72077114D01*
X121400240Y-72146897D01*
X121373509Y-72212669D01*
X121333055Y-72246027D01*
X121320607Y-72252507D01*
X121316474Y-72255610D01*
X121316471Y-72255612D01*
X121292247Y-72273800D01*
X121141965Y-72386635D01*
X120987629Y-72548138D01*
X120861743Y-72732680D01*
X120767688Y-72935305D01*
X120707989Y-73150570D01*
X120684251Y-73372695D01*
X120684548Y-73377848D01*
X120684548Y-73377851D01*
X120690011Y-73472590D01*
X120697110Y-73595715D01*
X120698247Y-73600761D01*
X120698248Y-73600767D01*
X120718119Y-73688939D01*
X120746222Y-73813639D01*
X120830266Y-74020616D01*
X120946987Y-74211088D01*
X121093250Y-74379938D01*
X121265126Y-74522632D01*
X121326196Y-74558318D01*
X121338445Y-74565476D01*
X121387169Y-74617114D01*
X121400240Y-74686897D01*
X121373509Y-74752669D01*
X121333055Y-74786027D01*
X121320607Y-74792507D01*
X121316474Y-74795610D01*
X121316471Y-74795612D01*
X121146100Y-74923530D01*
X121141965Y-74926635D01*
X120987629Y-75088138D01*
X120861743Y-75272680D01*
X120767688Y-75475305D01*
X120707989Y-75690570D01*
X120684251Y-75912695D01*
X120684548Y-75917848D01*
X120684548Y-75917851D01*
X120690011Y-76012590D01*
X120697110Y-76135715D01*
X120698247Y-76140761D01*
X120698248Y-76140767D01*
X120718119Y-76228939D01*
X120746222Y-76353639D01*
X120830266Y-76560616D01*
X120946987Y-76751088D01*
X121093250Y-76919938D01*
X121265126Y-77062632D01*
X121335595Y-77103811D01*
X121338445Y-77105476D01*
X121387169Y-77157114D01*
X121400240Y-77226897D01*
X121373509Y-77292669D01*
X121333055Y-77326027D01*
X121320607Y-77332507D01*
X121316474Y-77335610D01*
X121316471Y-77335612D01*
X121292247Y-77353800D01*
X121141965Y-77466635D01*
X120987629Y-77628138D01*
X120861743Y-77812680D01*
X120767688Y-78015305D01*
X120707989Y-78230570D01*
X120684251Y-78452695D01*
X118745000Y-78452695D01*
X118745000Y-61881341D01*
X121574888Y-61881341D01*
X121574983Y-61884971D01*
X121574983Y-61884972D01*
X121577367Y-61976000D01*
X121583970Y-62228171D01*
X121632856Y-62571660D01*
X121720897Y-62907253D01*
X121846927Y-63230503D01*
X121848624Y-63233708D01*
X121982113Y-63485825D01*
X122009275Y-63537126D01*
X122011325Y-63540109D01*
X122011327Y-63540112D01*
X122203733Y-63820064D01*
X122203739Y-63820071D01*
X122205790Y-63823056D01*
X122433866Y-64084505D01*
X122436551Y-64086948D01*
X122646268Y-64277775D01*
X122690481Y-64318006D01*
X122972233Y-64520466D01*
X123275388Y-64689200D01*
X123595928Y-64821972D01*
X123599422Y-64822967D01*
X123599424Y-64822968D01*
X123926103Y-64916025D01*
X123926108Y-64916026D01*
X123929604Y-64917022D01*
X124126304Y-64949233D01*
X124268412Y-64972504D01*
X124268419Y-64972505D01*
X124271993Y-64973090D01*
X124445275Y-64981262D01*
X124614931Y-64989263D01*
X124614932Y-64989263D01*
X124618558Y-64989434D01*
X124627415Y-64988830D01*
X124961073Y-64966084D01*
X124961081Y-64966083D01*
X124964704Y-64965836D01*
X124968279Y-64965173D01*
X124968282Y-64965173D01*
X125302279Y-64903270D01*
X125302283Y-64903269D01*
X125305844Y-64902609D01*
X125637456Y-64800592D01*
X125955145Y-64661136D01*
X126199511Y-64518341D01*
X126251560Y-64487926D01*
X126251562Y-64487925D01*
X126254700Y-64486091D01*
X126257609Y-64483907D01*
X126529244Y-64279958D01*
X126529248Y-64279955D01*
X126532151Y-64277775D01*
X126783819Y-64038950D01*
X127006370Y-63772783D01*
X127196853Y-63482799D01*
X127325446Y-63227121D01*
X127351117Y-63176080D01*
X127351120Y-63176072D01*
X127352744Y-63172844D01*
X127471977Y-62847026D01*
X127472822Y-62843504D01*
X127472825Y-62843496D01*
X127552124Y-62513191D01*
X127552125Y-62513187D01*
X127552971Y-62509662D01*
X127587035Y-62228171D01*
X127594316Y-62168004D01*
X127594316Y-62167997D01*
X127594652Y-62165225D01*
X127600599Y-61976000D01*
X127600438Y-61973204D01*
X127595141Y-61881341D01*
X172374888Y-61881341D01*
X172374983Y-61884971D01*
X172374983Y-61884972D01*
X172377367Y-61976000D01*
X172383970Y-62228171D01*
X172432856Y-62571660D01*
X172520897Y-62907253D01*
X172646927Y-63230503D01*
X172648624Y-63233708D01*
X172782113Y-63485825D01*
X172809275Y-63537126D01*
X172811325Y-63540109D01*
X172811327Y-63540112D01*
X173003733Y-63820064D01*
X173003739Y-63820071D01*
X173005790Y-63823056D01*
X173233866Y-64084505D01*
X173236551Y-64086948D01*
X173446268Y-64277775D01*
X173490481Y-64318006D01*
X173772233Y-64520466D01*
X174075388Y-64689200D01*
X174395928Y-64821972D01*
X174399422Y-64822967D01*
X174399424Y-64822968D01*
X174726103Y-64916025D01*
X174726108Y-64916026D01*
X174729604Y-64917022D01*
X174926304Y-64949233D01*
X175068412Y-64972504D01*
X175068419Y-64972505D01*
X175071993Y-64973090D01*
X175245275Y-64981262D01*
X175414931Y-64989263D01*
X175414932Y-64989263D01*
X175418558Y-64989434D01*
X175427415Y-64988830D01*
X175761073Y-64966084D01*
X175761081Y-64966083D01*
X175764704Y-64965836D01*
X175768279Y-64965173D01*
X175768282Y-64965173D01*
X176102279Y-64903270D01*
X176102283Y-64903269D01*
X176105844Y-64902609D01*
X176437456Y-64800592D01*
X176755145Y-64661136D01*
X176999511Y-64518341D01*
X177051560Y-64487926D01*
X177051562Y-64487925D01*
X177054700Y-64486091D01*
X177057609Y-64483907D01*
X177329244Y-64279958D01*
X177329248Y-64279955D01*
X177332151Y-64277775D01*
X177583819Y-64038950D01*
X177806370Y-63772783D01*
X177996853Y-63482799D01*
X178125446Y-63227121D01*
X178151117Y-63176080D01*
X178151120Y-63176072D01*
X178152744Y-63172844D01*
X178271977Y-62847026D01*
X178272822Y-62843504D01*
X178272825Y-62843496D01*
X178352124Y-62513191D01*
X178352125Y-62513187D01*
X178352971Y-62509662D01*
X178387035Y-62228171D01*
X178394316Y-62168004D01*
X178394316Y-62167997D01*
X178394652Y-62165225D01*
X178400599Y-61976000D01*
X178400438Y-61973204D01*
X178380836Y-61633246D01*
X178380835Y-61633241D01*
X178380627Y-61629626D01*
X178320976Y-61287842D01*
X178222437Y-60955180D01*
X178183263Y-60863337D01*
X178087740Y-60639386D01*
X178087738Y-60639383D01*
X178086316Y-60636048D01*
X178070740Y-60608739D01*
X177916208Y-60337816D01*
X177914417Y-60334676D01*
X177709018Y-60055060D01*
X177472842Y-59800904D01*
X177209019Y-59575578D01*
X176921047Y-59382069D01*
X176612741Y-59222940D01*
X176288189Y-59100302D01*
X176284668Y-59099418D01*
X176284663Y-59099416D01*
X176123378Y-59058904D01*
X175951692Y-59015780D01*
X175929476Y-59012855D01*
X175611315Y-58970968D01*
X175611307Y-58970967D01*
X175607711Y-58970494D01*
X175463045Y-58968221D01*
X175264446Y-58965101D01*
X175264442Y-58965101D01*
X175260804Y-58965044D01*
X175257190Y-58965405D01*
X175257184Y-58965405D01*
X175013843Y-58989694D01*
X174915569Y-58999503D01*
X174576583Y-59073414D01*
X174573156Y-59074587D01*
X174573150Y-59074589D01*
X174297554Y-59168947D01*
X174248339Y-59185797D01*
X173935188Y-59335163D01*
X173641279Y-59519532D01*
X173638443Y-59521804D01*
X173638436Y-59521809D01*
X173428499Y-59690000D01*
X173370509Y-59736459D01*
X173126466Y-59983071D01*
X173124225Y-59985929D01*
X173067732Y-60057978D01*
X172912386Y-60256098D01*
X172910493Y-60259187D01*
X172910491Y-60259190D01*
X172865025Y-60333384D01*
X172731105Y-60551921D01*
X172729580Y-60555206D01*
X172729578Y-60555210D01*
X172618675Y-60794131D01*
X172585027Y-60866620D01*
X172476087Y-61196023D01*
X172405730Y-61535764D01*
X172374888Y-61881341D01*
X127595141Y-61881341D01*
X127580836Y-61633246D01*
X127580835Y-61633241D01*
X127580627Y-61629626D01*
X127520976Y-61287842D01*
X127422437Y-60955180D01*
X127383263Y-60863337D01*
X127287740Y-60639386D01*
X127287738Y-60639383D01*
X127286316Y-60636048D01*
X127270740Y-60608739D01*
X127116208Y-60337816D01*
X127114417Y-60334676D01*
X127114019Y-60334134D01*
X142278500Y-60334134D01*
X142285255Y-60396316D01*
X142336385Y-60532705D01*
X142423739Y-60649261D01*
X142540295Y-60736615D01*
X142676684Y-60787745D01*
X142738866Y-60794500D01*
X144535134Y-60794500D01*
X144597316Y-60787745D01*
X144733705Y-60736615D01*
X144850261Y-60649261D01*
X144937615Y-60532705D01*
X144981798Y-60414848D01*
X145024440Y-60358084D01*
X145091001Y-60333384D01*
X145160350Y-60348592D01*
X145195017Y-60376580D01*
X145220218Y-60405673D01*
X145227580Y-60412883D01*
X145391434Y-60548916D01*
X145399881Y-60554831D01*
X145583756Y-60662279D01*
X145593042Y-60666729D01*
X145792001Y-60742703D01*
X145801899Y-60745579D01*
X145905250Y-60766606D01*
X145919299Y-60765410D01*
X145923000Y-60755065D01*
X145923000Y-60754517D01*
X146431000Y-60754517D01*
X146435064Y-60768359D01*
X146448478Y-60770393D01*
X146455184Y-60769534D01*
X146465262Y-60767392D01*
X146669255Y-60706191D01*
X146678842Y-60702433D01*
X146870095Y-60608739D01*
X146878945Y-60603464D01*
X147052328Y-60479792D01*
X147060200Y-60473139D01*
X147199690Y-60334134D01*
X154978500Y-60334134D01*
X154985255Y-60396316D01*
X155036385Y-60532705D01*
X155123739Y-60649261D01*
X155240295Y-60736615D01*
X155376684Y-60787745D01*
X155438866Y-60794500D01*
X157235134Y-60794500D01*
X157297316Y-60787745D01*
X157433705Y-60736615D01*
X157550261Y-60649261D01*
X157637615Y-60532705D01*
X157681798Y-60414848D01*
X157724440Y-60358084D01*
X157791001Y-60333384D01*
X157860350Y-60348592D01*
X157895017Y-60376580D01*
X157920218Y-60405673D01*
X157927580Y-60412883D01*
X158091434Y-60548916D01*
X158099881Y-60554831D01*
X158283756Y-60662279D01*
X158293042Y-60666729D01*
X158492001Y-60742703D01*
X158501899Y-60745579D01*
X158605250Y-60766606D01*
X158619299Y-60765410D01*
X158623000Y-60755065D01*
X158623000Y-60754517D01*
X159131000Y-60754517D01*
X159135064Y-60768359D01*
X159148478Y-60770393D01*
X159155184Y-60769534D01*
X159165262Y-60767392D01*
X159369255Y-60706191D01*
X159378842Y-60702433D01*
X159570095Y-60608739D01*
X159578945Y-60603464D01*
X159752328Y-60479792D01*
X159760200Y-60473139D01*
X159911052Y-60322812D01*
X159917730Y-60314965D01*
X160042003Y-60142020D01*
X160047313Y-60133183D01*
X160141670Y-59942267D01*
X160145469Y-59932672D01*
X160207377Y-59728910D01*
X160209555Y-59718837D01*
X160210986Y-59707962D01*
X160208775Y-59693778D01*
X160195617Y-59690000D01*
X159149115Y-59690000D01*
X159133876Y-59694475D01*
X159132671Y-59695865D01*
X159131000Y-59703548D01*
X159131000Y-60754517D01*
X158623000Y-60754517D01*
X158623000Y-59163885D01*
X159131000Y-59163885D01*
X159135475Y-59179124D01*
X159136865Y-59180329D01*
X159144548Y-59182000D01*
X160195344Y-59182000D01*
X160208875Y-59178027D01*
X160210180Y-59168947D01*
X160168214Y-59001875D01*
X160164894Y-58992124D01*
X160079972Y-58796814D01*
X160075105Y-58787739D01*
X159959426Y-58608926D01*
X159953136Y-58600757D01*
X159809806Y-58443240D01*
X159802273Y-58436215D01*
X159635139Y-58304222D01*
X159626552Y-58298517D01*
X159440117Y-58195599D01*
X159430705Y-58191369D01*
X159229959Y-58120280D01*
X159219988Y-58117646D01*
X159148837Y-58104972D01*
X159135540Y-58106432D01*
X159131000Y-58120989D01*
X159131000Y-59163885D01*
X158623000Y-59163885D01*
X158623000Y-58119102D01*
X158619082Y-58105758D01*
X158604806Y-58103771D01*
X158566324Y-58109660D01*
X158556288Y-58112051D01*
X158353868Y-58178212D01*
X158344359Y-58182209D01*
X158155463Y-58280542D01*
X158146738Y-58286036D01*
X157976433Y-58413905D01*
X157968726Y-58420748D01*
X157891478Y-58501584D01*
X157829954Y-58537014D01*
X157759042Y-58533557D01*
X157701255Y-58492311D01*
X157682402Y-58458763D01*
X157640767Y-58347703D01*
X157637615Y-58339295D01*
X157550261Y-58222739D01*
X157433705Y-58135385D01*
X157297316Y-58084255D01*
X157235134Y-58077500D01*
X155438866Y-58077500D01*
X155376684Y-58084255D01*
X155240295Y-58135385D01*
X155123739Y-58222739D01*
X155036385Y-58339295D01*
X154985255Y-58475684D01*
X154978500Y-58537866D01*
X154978500Y-60334134D01*
X147199690Y-60334134D01*
X147211052Y-60322812D01*
X147217730Y-60314965D01*
X147342003Y-60142020D01*
X147347313Y-60133183D01*
X147441670Y-59942267D01*
X147445469Y-59932672D01*
X147507377Y-59728910D01*
X147509555Y-59718837D01*
X147510986Y-59707962D01*
X147508775Y-59693778D01*
X147495617Y-59690000D01*
X146449115Y-59690000D01*
X146433876Y-59694475D01*
X146432671Y-59695865D01*
X146431000Y-59703548D01*
X146431000Y-60754517D01*
X145923000Y-60754517D01*
X145923000Y-59163885D01*
X146431000Y-59163885D01*
X146435475Y-59179124D01*
X146436865Y-59180329D01*
X146444548Y-59182000D01*
X147495344Y-59182000D01*
X147508875Y-59178027D01*
X147510180Y-59168947D01*
X147468214Y-59001875D01*
X147464894Y-58992124D01*
X147379972Y-58796814D01*
X147375105Y-58787739D01*
X147259426Y-58608926D01*
X147253136Y-58600757D01*
X147109806Y-58443240D01*
X147102273Y-58436215D01*
X146935139Y-58304222D01*
X146926552Y-58298517D01*
X146740117Y-58195599D01*
X146730705Y-58191369D01*
X146529959Y-58120280D01*
X146519988Y-58117646D01*
X146448837Y-58104972D01*
X146435540Y-58106432D01*
X146431000Y-58120989D01*
X146431000Y-59163885D01*
X145923000Y-59163885D01*
X145923000Y-58119102D01*
X145919082Y-58105758D01*
X145904806Y-58103771D01*
X145866324Y-58109660D01*
X145856288Y-58112051D01*
X145653868Y-58178212D01*
X145644359Y-58182209D01*
X145455463Y-58280542D01*
X145446738Y-58286036D01*
X145276433Y-58413905D01*
X145268726Y-58420748D01*
X145191478Y-58501584D01*
X145129954Y-58537014D01*
X145059042Y-58533557D01*
X145001255Y-58492311D01*
X144982402Y-58458763D01*
X144940767Y-58347703D01*
X144937615Y-58339295D01*
X144850261Y-58222739D01*
X144733705Y-58135385D01*
X144597316Y-58084255D01*
X144535134Y-58077500D01*
X142738866Y-58077500D01*
X142676684Y-58084255D01*
X142540295Y-58135385D01*
X142423739Y-58222739D01*
X142336385Y-58339295D01*
X142285255Y-58475684D01*
X142278500Y-58537866D01*
X142278500Y-60334134D01*
X127114019Y-60334134D01*
X126909018Y-60055060D01*
X126672842Y-59800904D01*
X126409019Y-59575578D01*
X126121047Y-59382069D01*
X125812741Y-59222940D01*
X125488189Y-59100302D01*
X125484668Y-59099418D01*
X125484663Y-59099416D01*
X125323378Y-59058904D01*
X125151692Y-59015780D01*
X125129476Y-59012855D01*
X124811315Y-58970968D01*
X124811307Y-58970967D01*
X124807711Y-58970494D01*
X124663045Y-58968221D01*
X124464446Y-58965101D01*
X124464442Y-58965101D01*
X124460804Y-58965044D01*
X124457190Y-58965405D01*
X124457184Y-58965405D01*
X124213843Y-58989694D01*
X124115569Y-58999503D01*
X123776583Y-59073414D01*
X123773156Y-59074587D01*
X123773150Y-59074589D01*
X123497554Y-59168947D01*
X123448339Y-59185797D01*
X123135188Y-59335163D01*
X122841279Y-59519532D01*
X122838443Y-59521804D01*
X122838436Y-59521809D01*
X122628499Y-59690000D01*
X122570509Y-59736459D01*
X122326466Y-59983071D01*
X122324225Y-59985929D01*
X122267732Y-60057978D01*
X122112386Y-60256098D01*
X122110493Y-60259187D01*
X122110491Y-60259190D01*
X122065025Y-60333384D01*
X121931105Y-60551921D01*
X121929580Y-60555206D01*
X121929578Y-60555210D01*
X121818675Y-60794131D01*
X121785027Y-60866620D01*
X121676087Y-61196023D01*
X121605730Y-61535764D01*
X121574888Y-61881341D01*
X118745000Y-61881341D01*
X118745000Y-56260000D01*
X118765002Y-56191879D01*
X118818658Y-56145386D01*
X118871000Y-56134000D01*
X181103000Y-56134000D01*
X181171121Y-56154002D01*
G37*
G04 #@! TD.AperFunction*
G04 #@! TA.AperFunction,Conductor*
G36*
X146192931Y-72156002D02*
G01*
X146213905Y-72172905D01*
X146648095Y-72607095D01*
X146682121Y-72669407D01*
X146685000Y-72696190D01*
X146685000Y-78867000D01*
X147664095Y-79846095D01*
X147698121Y-79908407D01*
X147701000Y-79935190D01*
X147701000Y-82551000D01*
X147680998Y-82619121D01*
X147627342Y-82665614D01*
X147575000Y-82677000D01*
X146811000Y-82677000D01*
X146742879Y-82656998D01*
X146696386Y-82603342D01*
X146685000Y-82551000D01*
X146685000Y-81026000D01*
X146177000Y-80518000D01*
X142038190Y-80518000D01*
X141970069Y-80497998D01*
X141949095Y-80481095D01*
X141641905Y-80173905D01*
X141607879Y-80111593D01*
X141605000Y-80084810D01*
X141605000Y-72569190D01*
X141625002Y-72501069D01*
X141641905Y-72480095D01*
X141949095Y-72172905D01*
X142011407Y-72138879D01*
X142038190Y-72136000D01*
X146124810Y-72136000D01*
X146192931Y-72156002D01*
G37*
G04 #@! TD.AperFunction*
G04 #@! TA.AperFunction,Conductor*
G36*
X153177931Y-72283002D02*
G01*
X153198905Y-72299905D01*
X155411095Y-74512095D01*
X155445121Y-74574407D01*
X155448000Y-74601190D01*
X155448000Y-77925810D01*
X155427998Y-77993931D01*
X155411095Y-78014905D01*
X153071905Y-80354095D01*
X153009593Y-80388121D01*
X152982810Y-80391000D01*
X149860000Y-80391000D01*
X149225000Y-81026000D01*
X149225000Y-82551000D01*
X149204998Y-82619121D01*
X149151342Y-82665614D01*
X149099000Y-82677000D01*
X148335000Y-82677000D01*
X148266879Y-82656998D01*
X148220386Y-82603342D01*
X148209000Y-82551000D01*
X148209000Y-73839190D01*
X148229002Y-73771069D01*
X148245905Y-73750095D01*
X149696095Y-72299905D01*
X149758407Y-72265879D01*
X149785190Y-72263000D01*
X153109810Y-72263000D01*
X153177931Y-72283002D01*
G37*
G04 #@! TD.AperFunction*
M02*
