G04 #@! TF.GenerationSoftware,KiCad,Pcbnew,(5.1.8)-1*
G04 #@! TF.CreationDate,2021-07-24T22:41:55-07:00*
G04 #@! TF.ProjectId,MSP430 Breakout,4d535034-3330-4204-9272-65616b6f7574,rev?*
G04 #@! TF.SameCoordinates,Original*
G04 #@! TF.FileFunction,Soldermask,Bot*
G04 #@! TF.FilePolarity,Negative*
%FSLAX46Y46*%
G04 Gerber Fmt 4.6, Leading zero omitted, Abs format (unit mm)*
G04 Created by KiCad (PCBNEW (5.1.8)-1) date 2021-07-24 22:41:55*
%MOMM*%
%LPD*%
G01*
G04 APERTURE LIST*
%ADD10O,1.700000X1.700000*%
%ADD11R,1.700000X1.700000*%
%ADD12C,2.000000*%
%ADD13C,0.800000*%
%ADD14C,5.000000*%
G04 APERTURE END LIST*
D10*
X122047000Y-68326000D03*
X122047000Y-70866000D03*
X122047000Y-73406000D03*
X122047000Y-75946000D03*
X122047000Y-78486000D03*
D11*
X122047000Y-81026000D03*
X137287000Y-89916000D03*
D10*
X137287000Y-92456000D03*
X137287000Y-94996000D03*
X137287000Y-97536000D03*
X137287000Y-100076000D03*
X137287000Y-102616000D03*
D11*
X122047000Y-92456000D03*
D10*
X122047000Y-94996000D03*
X122047000Y-97536000D03*
X122047000Y-100076000D03*
D11*
X133477000Y-115316000D03*
D10*
X136017000Y-115316000D03*
X138557000Y-115316000D03*
D11*
X148717000Y-113728500D03*
D10*
X148717000Y-111188500D03*
X151257000Y-113728500D03*
X151257000Y-111188500D03*
X153797000Y-113728500D03*
X153797000Y-111188500D03*
X156337000Y-113728500D03*
X156337000Y-111188500D03*
X158877000Y-113728500D03*
X158877000Y-111188500D03*
X161417000Y-113728500D03*
X161417000Y-111188500D03*
X163957000Y-113728500D03*
X163957000Y-111188500D03*
D11*
X143637000Y-59436000D03*
D10*
X146177000Y-59436000D03*
D12*
X177918500Y-106489500D03*
X173418500Y-106489500D03*
X177918500Y-99989500D03*
X173418500Y-99989500D03*
D11*
X156337000Y-59436000D03*
D10*
X158877000Y-59436000D03*
D13*
X125912825Y-60650175D03*
X124587000Y-60101000D03*
X123261175Y-60650175D03*
X122712000Y-61976000D03*
X123261175Y-63301825D03*
X124587000Y-63851000D03*
X125912825Y-63301825D03*
X126462000Y-61976000D03*
D14*
X124587000Y-61976000D03*
X124587000Y-112776000D03*
D13*
X126462000Y-112776000D03*
X125912825Y-114101825D03*
X124587000Y-114651000D03*
X123261175Y-114101825D03*
X122712000Y-112776000D03*
X123261175Y-111450175D03*
X124587000Y-110901000D03*
X125912825Y-111450175D03*
X176712825Y-60650175D03*
X175387000Y-60101000D03*
X174061175Y-60650175D03*
X173512000Y-61976000D03*
X174061175Y-63301825D03*
X175387000Y-63851000D03*
X176712825Y-63301825D03*
X177262000Y-61976000D03*
D14*
X175387000Y-61976000D03*
X175387000Y-112776000D03*
D13*
X177262000Y-112776000D03*
X176712825Y-114101825D03*
X175387000Y-114651000D03*
X174061175Y-114101825D03*
X173512000Y-112776000D03*
X174061175Y-111450175D03*
X175387000Y-110901000D03*
X176712825Y-111450175D03*
D10*
X177927000Y-68326000D03*
X177927000Y-70866000D03*
X177927000Y-73406000D03*
D11*
X177927000Y-75946000D03*
X177927000Y-83566000D03*
D10*
X177927000Y-86106000D03*
X177927000Y-88646000D03*
X177927000Y-91186000D03*
M02*
