M48
; DRILL file {KiCad (5.1.8)-1} date 07/24/21 22:43:09
; FORMAT={-:-/ absolute / metric / decimal}
; #@! TF.CreationDate,2021-07-24T22:43:09-07:00
; #@! TF.GenerationSoftware,Kicad,Pcbnew,(5.1.8)-1
; #@! TF.FileFunction,Plated,1,2,PTH
FMAT,2
METRIC
T1C0.400
T2C0.500
T3C1.000
T4C1.100
T5C2.500
%
G90
G05
T1
X128.778Y-89.281
X135.509Y-80.518
X142.367Y-76.2
X142.621Y-99.314
X148.336Y-66.421
X153.797Y-73.787
X156.591Y-69.215
X160.274Y-79.756
X160.401Y-81.915
X174.18Y-80.01
T2
X173.512Y-61.976
X174.061Y-60.65
X174.061Y-63.302
X175.387Y-60.101
X175.387Y-63.851
X176.713Y-60.65
X176.713Y-63.302
X177.262Y-61.976
X122.712Y-61.976
X123.261Y-60.65
X123.261Y-63.302
X124.587Y-60.101
X124.587Y-63.851
X125.913Y-60.65
X125.913Y-63.302
X126.462Y-61.976
X173.512Y-112.776
X174.061Y-111.45
X174.061Y-114.102
X175.387Y-110.901
X175.387Y-114.651
X176.713Y-111.45
X176.713Y-114.102
X177.262Y-112.776
X122.712Y-112.776
X123.261Y-111.45
X123.261Y-114.102
X124.587Y-110.901
X124.587Y-114.651
X125.913Y-111.45
X125.913Y-114.102
X126.462Y-112.776
T3
X137.287Y-89.916
X137.287Y-92.456
X137.287Y-94.996
X137.287Y-97.536
X137.287Y-100.076
X137.287Y-102.616
X156.337Y-59.436
X158.877Y-59.436
X122.047Y-68.326
X122.047Y-70.866
X122.047Y-73.406
X122.047Y-75.946
X122.047Y-78.486
X122.047Y-81.026
X177.927Y-83.566
X177.927Y-86.106
X177.927Y-88.646
X177.927Y-91.186
X133.477Y-115.316
X136.017Y-115.316
X138.557Y-115.316
X143.637Y-59.436
X146.177Y-59.436
X177.927Y-68.326
X177.927Y-70.866
X177.927Y-73.406
X177.927Y-75.946
X122.047Y-92.456
X122.047Y-94.996
X122.047Y-97.536
X122.047Y-100.076
X148.717Y-111.188
X148.717Y-113.728
X151.257Y-111.188
X151.257Y-113.728
X153.797Y-111.188
X153.797Y-113.728
X156.337Y-111.188
X156.337Y-113.728
X158.877Y-111.188
X158.877Y-113.728
X161.417Y-111.188
X161.417Y-113.728
X163.957Y-111.188
X163.957Y-113.728
T4
X173.418Y-99.989
X173.418Y-106.489
X177.918Y-99.989
X177.918Y-106.489
T5
X124.587Y-112.776
X175.387Y-61.976
X124.587Y-61.976
X175.387Y-112.776
T0
M30
