G04 #@! TF.GenerationSoftware,KiCad,Pcbnew,(5.1.8)-1*
G04 #@! TF.CreationDate,2021-07-24T22:41:55-07:00*
G04 #@! TF.ProjectId,MSP430 Breakout,4d535034-3330-4204-9272-65616b6f7574,rev?*
G04 #@! TF.SameCoordinates,Original*
G04 #@! TF.FileFunction,Legend,Bot*
G04 #@! TF.FilePolarity,Positive*
%FSLAX46Y46*%
G04 Gerber Fmt 4.6, Leading zero omitted, Abs format (unit mm)*
G04 Created by KiCad (PCBNEW (5.1.8)-1) date 2021-07-24 22:41:55*
%MOMM*%
%LPD*%
G01*
G04 APERTURE LIST*
%ADD10C,0.150000*%
%ADD11O,1.700000X1.700000*%
%ADD12R,1.700000X1.700000*%
%ADD13C,2.000000*%
%ADD14C,0.800000*%
%ADD15C,5.000000*%
G04 APERTURE END LIST*
D10*
X166671047Y-99782380D02*
X166671047Y-100496666D01*
X166718666Y-100639523D01*
X166813904Y-100734761D01*
X166956761Y-100782380D01*
X167052000Y-100782380D01*
X165718666Y-100782380D02*
X166194857Y-100782380D01*
X166194857Y-99782380D01*
X164813904Y-100687142D02*
X164861523Y-100734761D01*
X165004380Y-100782380D01*
X165099619Y-100782380D01*
X165242476Y-100734761D01*
X165337714Y-100639523D01*
X165385333Y-100544285D01*
X165432952Y-100353809D01*
X165432952Y-100210952D01*
X165385333Y-100020476D01*
X165337714Y-99925238D01*
X165242476Y-99830000D01*
X165099619Y-99782380D01*
X165004380Y-99782380D01*
X164861523Y-99830000D01*
X164813904Y-99877619D01*
X164099619Y-99782380D02*
X164099619Y-100496666D01*
X164147238Y-100639523D01*
X164242476Y-100734761D01*
X164385333Y-100782380D01*
X164480571Y-100782380D01*
X163147238Y-100782380D02*
X163623428Y-100782380D01*
X163623428Y-99782380D01*
X162242476Y-100687142D02*
X162290095Y-100734761D01*
X162432952Y-100782380D01*
X162528190Y-100782380D01*
X162671047Y-100734761D01*
X162766285Y-100639523D01*
X162813904Y-100544285D01*
X162861523Y-100353809D01*
X162861523Y-100210952D01*
X162813904Y-100020476D01*
X162766285Y-99925238D01*
X162671047Y-99830000D01*
X162528190Y-99782380D01*
X162432952Y-99782380D01*
X162290095Y-99830000D01*
X162242476Y-99877619D01*
X161528190Y-99782380D02*
X161528190Y-100496666D01*
X161575809Y-100639523D01*
X161671047Y-100734761D01*
X161813904Y-100782380D01*
X161909142Y-100782380D01*
X160575809Y-100782380D02*
X161052000Y-100782380D01*
X161052000Y-99782380D01*
X159671047Y-100687142D02*
X159718666Y-100734761D01*
X159861523Y-100782380D01*
X159956761Y-100782380D01*
X160099619Y-100734761D01*
X160194857Y-100639523D01*
X160242476Y-100544285D01*
X160290095Y-100353809D01*
X160290095Y-100210952D01*
X160242476Y-100020476D01*
X160194857Y-99925238D01*
X160099619Y-99830000D01*
X159956761Y-99782380D01*
X159861523Y-99782380D01*
X159718666Y-99830000D01*
X159671047Y-99877619D01*
X158956761Y-99782380D02*
X158956761Y-100496666D01*
X159004380Y-100639523D01*
X159099619Y-100734761D01*
X159242476Y-100782380D01*
X159337714Y-100782380D01*
X158004380Y-100782380D02*
X158480571Y-100782380D01*
X158480571Y-99782380D01*
X157099619Y-100687142D02*
X157147238Y-100734761D01*
X157290095Y-100782380D01*
X157385333Y-100782380D01*
X157528190Y-100734761D01*
X157623428Y-100639523D01*
X157671047Y-100544285D01*
X157718666Y-100353809D01*
X157718666Y-100210952D01*
X157671047Y-100020476D01*
X157623428Y-99925238D01*
X157528190Y-99830000D01*
X157385333Y-99782380D01*
X157290095Y-99782380D01*
X157147238Y-99830000D01*
X157099619Y-99877619D01*
X173845214Y-91464261D02*
X173702357Y-91511880D01*
X173464261Y-91511880D01*
X173369023Y-91464261D01*
X173321404Y-91416642D01*
X173273785Y-91321404D01*
X173273785Y-91226166D01*
X173321404Y-91130928D01*
X173369023Y-91083309D01*
X173464261Y-91035690D01*
X173654738Y-90988071D01*
X173749976Y-90940452D01*
X173797595Y-90892833D01*
X173845214Y-90797595D01*
X173845214Y-90702357D01*
X173797595Y-90607119D01*
X173749976Y-90559500D01*
X173654738Y-90511880D01*
X173416642Y-90511880D01*
X173273785Y-90559500D01*
X172845214Y-91511880D02*
X172845214Y-90845214D01*
X172845214Y-90511880D02*
X172892833Y-90559500D01*
X172845214Y-90607119D01*
X172797595Y-90559500D01*
X172845214Y-90511880D01*
X172845214Y-90607119D01*
X172369023Y-90845214D02*
X172369023Y-91511880D01*
X172369023Y-90940452D02*
X172321404Y-90892833D01*
X172226166Y-90845214D01*
X172083309Y-90845214D01*
X171988071Y-90892833D01*
X171940452Y-90988071D01*
X171940452Y-91511880D01*
X171035690Y-90845214D02*
X171035690Y-91654738D01*
X171083309Y-91749976D01*
X171130928Y-91797595D01*
X171226166Y-91845214D01*
X171369023Y-91845214D01*
X171464261Y-91797595D01*
X171035690Y-91464261D02*
X171130928Y-91511880D01*
X171321404Y-91511880D01*
X171416642Y-91464261D01*
X171464261Y-91416642D01*
X171511880Y-91321404D01*
X171511880Y-91035690D01*
X171464261Y-90940452D01*
X171416642Y-90892833D01*
X171321404Y-90845214D01*
X171130928Y-90845214D01*
X171035690Y-90892833D01*
X170416642Y-91511880D02*
X170511880Y-91464261D01*
X170559500Y-91369023D01*
X170559500Y-90511880D01*
X169654738Y-91464261D02*
X169749976Y-91511880D01*
X169940452Y-91511880D01*
X170035690Y-91464261D01*
X170083309Y-91369023D01*
X170083309Y-90988071D01*
X170035690Y-90892833D01*
X169940452Y-90845214D01*
X169749976Y-90845214D01*
X169654738Y-90892833D01*
X169607119Y-90988071D01*
X169607119Y-91083309D01*
X170083309Y-91178547D01*
X167845214Y-91511880D02*
X168178547Y-91035690D01*
X168416642Y-91511880D02*
X168416642Y-90511880D01*
X168035690Y-90511880D01*
X167940452Y-90559500D01*
X167892833Y-90607119D01*
X167845214Y-90702357D01*
X167845214Y-90845214D01*
X167892833Y-90940452D01*
X167940452Y-90988071D01*
X168035690Y-91035690D01*
X168416642Y-91035690D01*
X167035690Y-91464261D02*
X167130928Y-91511880D01*
X167321404Y-91511880D01*
X167416642Y-91464261D01*
X167464261Y-91369023D01*
X167464261Y-90988071D01*
X167416642Y-90892833D01*
X167321404Y-90845214D01*
X167130928Y-90845214D01*
X167035690Y-90892833D01*
X166988071Y-90988071D01*
X166988071Y-91083309D01*
X167464261Y-91178547D01*
X166130928Y-91511880D02*
X166130928Y-90988071D01*
X166178547Y-90892833D01*
X166273785Y-90845214D01*
X166464261Y-90845214D01*
X166559500Y-90892833D01*
X166130928Y-91464261D02*
X166226166Y-91511880D01*
X166464261Y-91511880D01*
X166559500Y-91464261D01*
X166607119Y-91369023D01*
X166607119Y-91273785D01*
X166559500Y-91178547D01*
X166464261Y-91130928D01*
X166226166Y-91130928D01*
X166130928Y-91083309D01*
X165226166Y-91464261D02*
X165321404Y-91511880D01*
X165511880Y-91511880D01*
X165607119Y-91464261D01*
X165654738Y-91416642D01*
X165702357Y-91321404D01*
X165702357Y-91035690D01*
X165654738Y-90940452D01*
X165607119Y-90892833D01*
X165511880Y-90845214D01*
X165321404Y-90845214D01*
X165226166Y-90892833D01*
X164940452Y-90845214D02*
X164559500Y-90845214D01*
X164797595Y-90511880D02*
X164797595Y-91369023D01*
X164749976Y-91464261D01*
X164654738Y-91511880D01*
X164559500Y-91511880D01*
X164226166Y-91511880D02*
X164226166Y-90845214D01*
X164226166Y-90511880D02*
X164273785Y-90559500D01*
X164226166Y-90607119D01*
X164178547Y-90559500D01*
X164226166Y-90511880D01*
X164226166Y-90607119D01*
X163607119Y-91511880D02*
X163702357Y-91464261D01*
X163749976Y-91416642D01*
X163797595Y-91321404D01*
X163797595Y-91035690D01*
X163749976Y-90940452D01*
X163702357Y-90892833D01*
X163607119Y-90845214D01*
X163464261Y-90845214D01*
X163369023Y-90892833D01*
X163321404Y-90940452D01*
X163273785Y-91035690D01*
X163273785Y-91321404D01*
X163321404Y-91416642D01*
X163369023Y-91464261D01*
X163464261Y-91511880D01*
X163607119Y-91511880D01*
X162845214Y-90845214D02*
X162845214Y-91511880D01*
X162845214Y-90940452D02*
X162797595Y-90892833D01*
X162702357Y-90845214D01*
X162559500Y-90845214D01*
X162464261Y-90892833D01*
X162416642Y-90988071D01*
X162416642Y-91511880D01*
X161273785Y-90511880D02*
X161035690Y-91511880D01*
X160845214Y-90797595D01*
X160654738Y-91511880D01*
X160416642Y-90511880D01*
X160035690Y-91511880D02*
X160035690Y-90511880D01*
X159607119Y-91511880D02*
X159607119Y-90988071D01*
X159654738Y-90892833D01*
X159749976Y-90845214D01*
X159892833Y-90845214D01*
X159988071Y-90892833D01*
X160035690Y-90940452D01*
X158749976Y-91464261D02*
X158845214Y-91511880D01*
X159035690Y-91511880D01*
X159130928Y-91464261D01*
X159178547Y-91369023D01*
X159178547Y-90988071D01*
X159130928Y-90892833D01*
X159035690Y-90845214D01*
X158845214Y-90845214D01*
X158749976Y-90892833D01*
X158702357Y-90988071D01*
X158702357Y-91083309D01*
X159178547Y-91178547D01*
X157892833Y-91464261D02*
X157988071Y-91511880D01*
X158178547Y-91511880D01*
X158273785Y-91464261D01*
X158321404Y-91369023D01*
X158321404Y-90988071D01*
X158273785Y-90892833D01*
X158178547Y-90845214D01*
X157988071Y-90845214D01*
X157892833Y-90892833D01*
X157845214Y-90988071D01*
X157845214Y-91083309D01*
X158321404Y-91178547D01*
X157273785Y-91511880D02*
X157369023Y-91464261D01*
X157416642Y-91369023D01*
X157416642Y-90511880D01*
X156130928Y-91511880D02*
X156130928Y-90511880D01*
X155797595Y-91226166D01*
X155464261Y-90511880D01*
X155464261Y-91511880D01*
X155035690Y-91464261D02*
X154892833Y-91511880D01*
X154654738Y-91511880D01*
X154559500Y-91464261D01*
X154511880Y-91416642D01*
X154464261Y-91321404D01*
X154464261Y-91226166D01*
X154511880Y-91130928D01*
X154559500Y-91083309D01*
X154654738Y-91035690D01*
X154845214Y-90988071D01*
X154940452Y-90940452D01*
X154988071Y-90892833D01*
X155035690Y-90797595D01*
X155035690Y-90702357D01*
X154988071Y-90607119D01*
X154940452Y-90559500D01*
X154845214Y-90511880D01*
X154607119Y-90511880D01*
X154464261Y-90559500D01*
X154035690Y-91511880D02*
X154035690Y-90511880D01*
X153654738Y-90511880D01*
X153559500Y-90559500D01*
X153511880Y-90607119D01*
X153464261Y-90702357D01*
X153464261Y-90845214D01*
X153511880Y-90940452D01*
X153559500Y-90988071D01*
X153654738Y-91035690D01*
X154035690Y-91035690D01*
X152607119Y-90845214D02*
X152607119Y-91511880D01*
X152845214Y-90464261D02*
X153083309Y-91178547D01*
X152464261Y-91178547D01*
X152178547Y-90511880D02*
X151559500Y-90511880D01*
X151892833Y-90892833D01*
X151749976Y-90892833D01*
X151654738Y-90940452D01*
X151607119Y-90988071D01*
X151559500Y-91083309D01*
X151559500Y-91321404D01*
X151607119Y-91416642D01*
X151654738Y-91464261D01*
X151749976Y-91511880D01*
X152035690Y-91511880D01*
X152130928Y-91464261D01*
X152178547Y-91416642D01*
X150940452Y-90511880D02*
X150845214Y-90511880D01*
X150749976Y-90559500D01*
X150702357Y-90607119D01*
X150654738Y-90702357D01*
X150607119Y-90892833D01*
X150607119Y-91130928D01*
X150654738Y-91321404D01*
X150702357Y-91416642D01*
X150749976Y-91464261D01*
X150845214Y-91511880D01*
X150940452Y-91511880D01*
X151035690Y-91464261D01*
X151083309Y-91416642D01*
X151130928Y-91321404D01*
X151178547Y-91130928D01*
X151178547Y-90892833D01*
X151130928Y-90702357D01*
X151083309Y-90607119D01*
X151035690Y-90559500D01*
X150940452Y-90511880D01*
X149083309Y-90988071D02*
X148940452Y-91035690D01*
X148892833Y-91083309D01*
X148845214Y-91178547D01*
X148845214Y-91321404D01*
X148892833Y-91416642D01*
X148940452Y-91464261D01*
X149035690Y-91511880D01*
X149416642Y-91511880D01*
X149416642Y-90511880D01*
X149083309Y-90511880D01*
X148988071Y-90559500D01*
X148940452Y-90607119D01*
X148892833Y-90702357D01*
X148892833Y-90797595D01*
X148940452Y-90892833D01*
X148988071Y-90940452D01*
X149083309Y-90988071D01*
X149416642Y-90988071D01*
X148416642Y-91511880D02*
X148416642Y-90845214D01*
X148416642Y-91035690D02*
X148369023Y-90940452D01*
X148321404Y-90892833D01*
X148226166Y-90845214D01*
X148130928Y-90845214D01*
X147416642Y-91464261D02*
X147511880Y-91511880D01*
X147702357Y-91511880D01*
X147797595Y-91464261D01*
X147845214Y-91369023D01*
X147845214Y-90988071D01*
X147797595Y-90892833D01*
X147702357Y-90845214D01*
X147511880Y-90845214D01*
X147416642Y-90892833D01*
X147369023Y-90988071D01*
X147369023Y-91083309D01*
X147845214Y-91178547D01*
X146511880Y-91511880D02*
X146511880Y-90988071D01*
X146559500Y-90892833D01*
X146654738Y-90845214D01*
X146845214Y-90845214D01*
X146940452Y-90892833D01*
X146511880Y-91464261D02*
X146607119Y-91511880D01*
X146845214Y-91511880D01*
X146940452Y-91464261D01*
X146988071Y-91369023D01*
X146988071Y-91273785D01*
X146940452Y-91178547D01*
X146845214Y-91130928D01*
X146607119Y-91130928D01*
X146511880Y-91083309D01*
X146035690Y-91511880D02*
X146035690Y-90511880D01*
X145940452Y-91130928D02*
X145654738Y-91511880D01*
X145654738Y-90845214D02*
X146035690Y-91226166D01*
X145083309Y-91511880D02*
X145178547Y-91464261D01*
X145226166Y-91416642D01*
X145273785Y-91321404D01*
X145273785Y-91035690D01*
X145226166Y-90940452D01*
X145178547Y-90892833D01*
X145083309Y-90845214D01*
X144940452Y-90845214D01*
X144845214Y-90892833D01*
X144797595Y-90940452D01*
X144749976Y-91035690D01*
X144749976Y-91321404D01*
X144797595Y-91416642D01*
X144845214Y-91464261D01*
X144940452Y-91511880D01*
X145083309Y-91511880D01*
X143892833Y-90845214D02*
X143892833Y-91511880D01*
X144321404Y-90845214D02*
X144321404Y-91369023D01*
X144273785Y-91464261D01*
X144178547Y-91511880D01*
X144035690Y-91511880D01*
X143940452Y-91464261D01*
X143892833Y-91416642D01*
X143559500Y-90845214D02*
X143178547Y-90845214D01*
X143416642Y-90511880D02*
X143416642Y-91369023D01*
X143369023Y-91464261D01*
X143273785Y-91511880D01*
X143178547Y-91511880D01*
X174035690Y-93161880D02*
X174035690Y-92161880D01*
X173797595Y-92161880D01*
X173654738Y-92209500D01*
X173559500Y-92304738D01*
X173511880Y-92399976D01*
X173464261Y-92590452D01*
X173464261Y-92733309D01*
X173511880Y-92923785D01*
X173559500Y-93019023D01*
X173654738Y-93114261D01*
X173797595Y-93161880D01*
X174035690Y-93161880D01*
X172654738Y-93114261D02*
X172749976Y-93161880D01*
X172940452Y-93161880D01*
X173035690Y-93114261D01*
X173083309Y-93019023D01*
X173083309Y-92638071D01*
X173035690Y-92542833D01*
X172940452Y-92495214D01*
X172749976Y-92495214D01*
X172654738Y-92542833D01*
X172607119Y-92638071D01*
X172607119Y-92733309D01*
X173083309Y-92828547D01*
X172226166Y-93114261D02*
X172130928Y-93161880D01*
X171940452Y-93161880D01*
X171845214Y-93114261D01*
X171797595Y-93019023D01*
X171797595Y-92971404D01*
X171845214Y-92876166D01*
X171940452Y-92828547D01*
X172083309Y-92828547D01*
X172178547Y-92780928D01*
X172226166Y-92685690D01*
X172226166Y-92638071D01*
X172178547Y-92542833D01*
X172083309Y-92495214D01*
X171940452Y-92495214D01*
X171845214Y-92542833D01*
X171369023Y-93161880D02*
X171369023Y-92495214D01*
X171369023Y-92161880D02*
X171416642Y-92209500D01*
X171369023Y-92257119D01*
X171321404Y-92209500D01*
X171369023Y-92161880D01*
X171369023Y-92257119D01*
X170464261Y-92495214D02*
X170464261Y-93304738D01*
X170511880Y-93399976D01*
X170559500Y-93447595D01*
X170654738Y-93495214D01*
X170797595Y-93495214D01*
X170892833Y-93447595D01*
X170464261Y-93114261D02*
X170559500Y-93161880D01*
X170749976Y-93161880D01*
X170845214Y-93114261D01*
X170892833Y-93066642D01*
X170940452Y-92971404D01*
X170940452Y-92685690D01*
X170892833Y-92590452D01*
X170845214Y-92542833D01*
X170749976Y-92495214D01*
X170559500Y-92495214D01*
X170464261Y-92542833D01*
X169988071Y-92495214D02*
X169988071Y-93161880D01*
X169988071Y-92590452D02*
X169940452Y-92542833D01*
X169845214Y-92495214D01*
X169702357Y-92495214D01*
X169607119Y-92542833D01*
X169559500Y-92638071D01*
X169559500Y-93161880D01*
X168702357Y-93114261D02*
X168797595Y-93161880D01*
X168988071Y-93161880D01*
X169083309Y-93114261D01*
X169130928Y-93019023D01*
X169130928Y-92638071D01*
X169083309Y-92542833D01*
X168988071Y-92495214D01*
X168797595Y-92495214D01*
X168702357Y-92542833D01*
X168654738Y-92638071D01*
X168654738Y-92733309D01*
X169130928Y-92828547D01*
X167797595Y-93161880D02*
X167797595Y-92161880D01*
X167797595Y-93114261D02*
X167892833Y-93161880D01*
X168083309Y-93161880D01*
X168178547Y-93114261D01*
X168226166Y-93066642D01*
X168273785Y-92971404D01*
X168273785Y-92685690D01*
X168226166Y-92590452D01*
X168178547Y-92542833D01*
X168083309Y-92495214D01*
X167892833Y-92495214D01*
X167797595Y-92542833D01*
X166559500Y-93161880D02*
X166559500Y-92161880D01*
X166559500Y-92542833D02*
X166464261Y-92495214D01*
X166273785Y-92495214D01*
X166178547Y-92542833D01*
X166130928Y-92590452D01*
X166083309Y-92685690D01*
X166083309Y-92971404D01*
X166130928Y-93066642D01*
X166178547Y-93114261D01*
X166273785Y-93161880D01*
X166464261Y-93161880D01*
X166559500Y-93114261D01*
X165749976Y-92495214D02*
X165511880Y-93161880D01*
X165273785Y-92495214D02*
X165511880Y-93161880D01*
X165607119Y-93399976D01*
X165654738Y-93447595D01*
X165749976Y-93495214D01*
X164178547Y-92876166D02*
X163702357Y-92876166D01*
X164273785Y-93161880D02*
X163940452Y-92161880D01*
X163607119Y-93161880D01*
X163273785Y-92495214D02*
X163273785Y-93161880D01*
X163273785Y-92590452D02*
X163226166Y-92542833D01*
X163130928Y-92495214D01*
X162988071Y-92495214D01*
X162892833Y-92542833D01*
X162845214Y-92638071D01*
X162845214Y-93161880D01*
X161940452Y-93161880D02*
X161940452Y-92161880D01*
X161940452Y-93114261D02*
X162035690Y-93161880D01*
X162226166Y-93161880D01*
X162321404Y-93114261D01*
X162369023Y-93066642D01*
X162416642Y-92971404D01*
X162416642Y-92685690D01*
X162369023Y-92590452D01*
X162321404Y-92542833D01*
X162226166Y-92495214D01*
X162035690Y-92495214D01*
X161940452Y-92542833D01*
X161464261Y-93161880D02*
X161464261Y-92495214D01*
X161464261Y-92685690D02*
X161416642Y-92590452D01*
X161369023Y-92542833D01*
X161273785Y-92495214D01*
X161178547Y-92495214D01*
X160464261Y-93114261D02*
X160559500Y-93161880D01*
X160749976Y-93161880D01*
X160845214Y-93114261D01*
X160892833Y-93019023D01*
X160892833Y-92638071D01*
X160845214Y-92542833D01*
X160749976Y-92495214D01*
X160559500Y-92495214D01*
X160464261Y-92542833D01*
X160416642Y-92638071D01*
X160416642Y-92733309D01*
X160892833Y-92828547D01*
X160083309Y-92495214D02*
X159892833Y-93161880D01*
X159702357Y-92685690D01*
X159511880Y-93161880D01*
X159321404Y-92495214D01*
X157845214Y-92638071D02*
X157702357Y-92685690D01*
X157654738Y-92733309D01*
X157607119Y-92828547D01*
X157607119Y-92971404D01*
X157654738Y-93066642D01*
X157702357Y-93114261D01*
X157797595Y-93161880D01*
X158178547Y-93161880D01*
X158178547Y-92161880D01*
X157845214Y-92161880D01*
X157749976Y-92209500D01*
X157702357Y-92257119D01*
X157654738Y-92352357D01*
X157654738Y-92447595D01*
X157702357Y-92542833D01*
X157749976Y-92590452D01*
X157845214Y-92638071D01*
X158178547Y-92638071D01*
X156749976Y-92495214D02*
X156749976Y-93161880D01*
X157178547Y-92495214D02*
X157178547Y-93019023D01*
X157130928Y-93114261D01*
X157035690Y-93161880D01*
X156892833Y-93161880D01*
X156797595Y-93114261D01*
X156749976Y-93066642D01*
X155845214Y-93114261D02*
X155940452Y-93161880D01*
X156130928Y-93161880D01*
X156226166Y-93114261D01*
X156273785Y-93066642D01*
X156321404Y-92971404D01*
X156321404Y-92685690D01*
X156273785Y-92590452D01*
X156226166Y-92542833D01*
X156130928Y-92495214D01*
X155940452Y-92495214D01*
X155845214Y-92542833D01*
X155416642Y-93161880D02*
X155416642Y-92161880D01*
X155321404Y-92780928D02*
X155035690Y-93161880D01*
X155035690Y-92495214D02*
X155416642Y-92876166D01*
X154607119Y-93161880D02*
X154607119Y-92495214D01*
X154607119Y-92161880D02*
X154654738Y-92209500D01*
X154607119Y-92257119D01*
X154559500Y-92209500D01*
X154607119Y-92161880D01*
X154607119Y-92257119D01*
X154130928Y-92495214D02*
X154130928Y-93161880D01*
X154130928Y-92590452D02*
X154083309Y-92542833D01*
X153988071Y-92495214D01*
X153845214Y-92495214D01*
X153749976Y-92542833D01*
X153702357Y-92638071D01*
X153702357Y-93161880D01*
X152797595Y-92495214D02*
X152797595Y-93304738D01*
X152845214Y-93399976D01*
X152892833Y-93447595D01*
X152988071Y-93495214D01*
X153130928Y-93495214D01*
X153226166Y-93447595D01*
X152797595Y-93114261D02*
X152892833Y-93161880D01*
X153083309Y-93161880D01*
X153178547Y-93114261D01*
X153226166Y-93066642D01*
X153273785Y-92971404D01*
X153273785Y-92685690D01*
X153226166Y-92590452D01*
X153178547Y-92542833D01*
X153083309Y-92495214D01*
X152892833Y-92495214D01*
X152797595Y-92542833D01*
X152321404Y-93161880D02*
X152321404Y-92161880D01*
X151892833Y-93161880D02*
X151892833Y-92638071D01*
X151940452Y-92542833D01*
X152035690Y-92495214D01*
X152178547Y-92495214D01*
X152273785Y-92542833D01*
X152321404Y-92590452D01*
X150988071Y-93161880D02*
X150988071Y-92638071D01*
X151035690Y-92542833D01*
X151130928Y-92495214D01*
X151321404Y-92495214D01*
X151416642Y-92542833D01*
X150988071Y-93114261D02*
X151083309Y-93161880D01*
X151321404Y-93161880D01*
X151416642Y-93114261D01*
X151464261Y-93019023D01*
X151464261Y-92923785D01*
X151416642Y-92828547D01*
X151321404Y-92780928D01*
X151083309Y-92780928D01*
X150988071Y-92733309D01*
X150511880Y-93161880D02*
X150511880Y-92495214D01*
X150511880Y-92590452D02*
X150464261Y-92542833D01*
X150369023Y-92495214D01*
X150226166Y-92495214D01*
X150130928Y-92542833D01*
X150083309Y-92638071D01*
X150083309Y-93161880D01*
X150083309Y-92638071D02*
X150035690Y-92542833D01*
X149940452Y-92495214D01*
X149797595Y-92495214D01*
X149702357Y-92542833D01*
X149654738Y-92638071D01*
X149654738Y-93161880D01*
X148416642Y-92780928D02*
X147654738Y-92780928D01*
X146464261Y-92257119D02*
X146416642Y-92209500D01*
X146321404Y-92161880D01*
X146083309Y-92161880D01*
X145988071Y-92209500D01*
X145940452Y-92257119D01*
X145892833Y-92352357D01*
X145892833Y-92447595D01*
X145940452Y-92590452D01*
X146511880Y-93161880D01*
X145892833Y-93161880D01*
X145273785Y-92161880D02*
X145178547Y-92161880D01*
X145083309Y-92209500D01*
X145035690Y-92257119D01*
X144988071Y-92352357D01*
X144940452Y-92542833D01*
X144940452Y-92780928D01*
X144988071Y-92971404D01*
X145035690Y-93066642D01*
X145083309Y-93114261D01*
X145178547Y-93161880D01*
X145273785Y-93161880D01*
X145369023Y-93114261D01*
X145416642Y-93066642D01*
X145464261Y-92971404D01*
X145511880Y-92780928D01*
X145511880Y-92542833D01*
X145464261Y-92352357D01*
X145416642Y-92257119D01*
X145369023Y-92209500D01*
X145273785Y-92161880D01*
X144559500Y-92257119D02*
X144511880Y-92209500D01*
X144416642Y-92161880D01*
X144178547Y-92161880D01*
X144083309Y-92209500D01*
X144035690Y-92257119D01*
X143988071Y-92352357D01*
X143988071Y-92447595D01*
X144035690Y-92590452D01*
X144607119Y-93161880D01*
X143988071Y-93161880D01*
X143035690Y-93161880D02*
X143607119Y-93161880D01*
X143321404Y-93161880D02*
X143321404Y-92161880D01*
X143416642Y-92304738D01*
X143511880Y-92399976D01*
X143607119Y-92447595D01*
%LPC*%
D11*
X122047000Y-68326000D03*
X122047000Y-70866000D03*
X122047000Y-73406000D03*
X122047000Y-75946000D03*
X122047000Y-78486000D03*
D12*
X122047000Y-81026000D03*
X137287000Y-89916000D03*
D11*
X137287000Y-92456000D03*
X137287000Y-94996000D03*
X137287000Y-97536000D03*
X137287000Y-100076000D03*
X137287000Y-102616000D03*
D12*
X122047000Y-92456000D03*
D11*
X122047000Y-94996000D03*
X122047000Y-97536000D03*
X122047000Y-100076000D03*
D12*
X133477000Y-115316000D03*
D11*
X136017000Y-115316000D03*
X138557000Y-115316000D03*
D12*
X148717000Y-113728500D03*
D11*
X148717000Y-111188500D03*
X151257000Y-113728500D03*
X151257000Y-111188500D03*
X153797000Y-113728500D03*
X153797000Y-111188500D03*
X156337000Y-113728500D03*
X156337000Y-111188500D03*
X158877000Y-113728500D03*
X158877000Y-111188500D03*
X161417000Y-113728500D03*
X161417000Y-111188500D03*
X163957000Y-113728500D03*
X163957000Y-111188500D03*
D12*
X143637000Y-59436000D03*
D11*
X146177000Y-59436000D03*
D13*
X177918500Y-106489500D03*
X173418500Y-106489500D03*
X177918500Y-99989500D03*
X173418500Y-99989500D03*
D12*
X156337000Y-59436000D03*
D11*
X158877000Y-59436000D03*
D14*
X125912825Y-60650175D03*
X124587000Y-60101000D03*
X123261175Y-60650175D03*
X122712000Y-61976000D03*
X123261175Y-63301825D03*
X124587000Y-63851000D03*
X125912825Y-63301825D03*
X126462000Y-61976000D03*
D15*
X124587000Y-61976000D03*
X124587000Y-112776000D03*
D14*
X126462000Y-112776000D03*
X125912825Y-114101825D03*
X124587000Y-114651000D03*
X123261175Y-114101825D03*
X122712000Y-112776000D03*
X123261175Y-111450175D03*
X124587000Y-110901000D03*
X125912825Y-111450175D03*
X176712825Y-60650175D03*
X175387000Y-60101000D03*
X174061175Y-60650175D03*
X173512000Y-61976000D03*
X174061175Y-63301825D03*
X175387000Y-63851000D03*
X176712825Y-63301825D03*
X177262000Y-61976000D03*
D15*
X175387000Y-61976000D03*
X175387000Y-112776000D03*
D14*
X177262000Y-112776000D03*
X176712825Y-114101825D03*
X175387000Y-114651000D03*
X174061175Y-114101825D03*
X173512000Y-112776000D03*
X174061175Y-111450175D03*
X175387000Y-110901000D03*
X176712825Y-111450175D03*
D11*
X177927000Y-68326000D03*
X177927000Y-70866000D03*
X177927000Y-73406000D03*
D12*
X177927000Y-75946000D03*
X177927000Y-83566000D03*
D11*
X177927000Y-86106000D03*
X177927000Y-88646000D03*
X177927000Y-91186000D03*
M02*
