%FSLAX45Y45*%
G04 Gerber Fmt 4.5, Leading zero omitted, Abs format (unit mm)*
G04 Created by KiCad (PCBNEW (5.1.8)-1) date 2021-07-24 22:43:36*
%MOMM*%
%LPD*%
G01*
G04 APERTURE LIST*
%TA.AperFunction,Profile*%
%ADD10C,0.050000*%
%TD*%
%ADD11C,0.200000*%
%ADD12C,0.300000*%
G04 APERTURE END LIST*
D10*
X11823700Y-11912600D02*
X11823700Y-5562600D01*
X18173700Y-11912600D02*
X11823700Y-11912600D01*
X18173700Y-5562600D02*
X18173700Y-11912600D01*
X11823700Y-5562600D02*
X18173700Y-5562600D01*
D11*
D12*
X12107628Y-12380814D02*
X12107628Y-12080814D01*
X12179057Y-12080814D01*
X12221914Y-12095100D01*
X12250486Y-12123671D01*
X12264771Y-12152243D01*
X12279057Y-12209386D01*
X12279057Y-12252243D01*
X12264771Y-12309386D01*
X12250486Y-12337957D01*
X12221914Y-12366529D01*
X12179057Y-12380814D01*
X12107628Y-12380814D01*
X12407628Y-12380814D02*
X12407628Y-12180814D01*
X12407628Y-12237957D02*
X12421914Y-12209386D01*
X12436200Y-12195100D01*
X12464771Y-12180814D01*
X12493343Y-12180814D01*
X12593343Y-12380814D02*
X12593343Y-12180814D01*
X12593343Y-12080814D02*
X12579057Y-12095100D01*
X12593343Y-12109386D01*
X12607628Y-12095100D01*
X12593343Y-12080814D01*
X12593343Y-12109386D01*
X12779057Y-12380814D02*
X12750486Y-12366529D01*
X12736200Y-12337957D01*
X12736200Y-12080814D01*
X12936200Y-12380814D02*
X12907628Y-12366529D01*
X12893343Y-12337957D01*
X12893343Y-12080814D01*
X13279057Y-12380814D02*
X13279057Y-12080814D01*
X13379057Y-12295100D01*
X13479057Y-12080814D01*
X13479057Y-12380814D01*
X13750486Y-12380814D02*
X13750486Y-12223671D01*
X13736200Y-12195100D01*
X13707628Y-12180814D01*
X13650486Y-12180814D01*
X13621914Y-12195100D01*
X13750486Y-12366529D02*
X13721914Y-12380814D01*
X13650486Y-12380814D01*
X13621914Y-12366529D01*
X13607628Y-12337957D01*
X13607628Y-12309386D01*
X13621914Y-12280814D01*
X13650486Y-12266529D01*
X13721914Y-12266529D01*
X13750486Y-12252243D01*
X13893343Y-12180814D02*
X13893343Y-12480814D01*
X13893343Y-12195100D02*
X13921914Y-12180814D01*
X13979057Y-12180814D01*
X14007628Y-12195100D01*
X14021914Y-12209386D01*
X14036200Y-12237957D01*
X14036200Y-12323671D01*
X14021914Y-12352243D01*
X14007628Y-12366529D01*
X13979057Y-12380814D01*
X13921914Y-12380814D01*
X13893343Y-12366529D01*
X14164771Y-12352243D02*
X14179057Y-12366529D01*
X14164771Y-12380814D01*
X14150486Y-12366529D01*
X14164771Y-12352243D01*
X14164771Y-12380814D01*
X14164771Y-12195100D02*
X14179057Y-12209386D01*
X14164771Y-12223671D01*
X14150486Y-12209386D01*
X14164771Y-12195100D01*
X14164771Y-12223671D01*
M02*
