G04 #@! TF.GenerationSoftware,KiCad,Pcbnew,(5.1.8)-1*
G04 #@! TF.CreationDate,2021-07-24T22:41:55-07:00*
G04 #@! TF.ProjectId,MSP430 Breakout,4d535034-3330-4204-9272-65616b6f7574,rev?*
G04 #@! TF.SameCoordinates,Original*
G04 #@! TF.FileFunction,Soldermask,Top*
G04 #@! TF.FilePolarity,Negative*
%FSLAX46Y46*%
G04 Gerber Fmt 4.6, Leading zero omitted, Abs format (unit mm)*
G04 Created by KiCad (PCBNEW (5.1.8)-1) date 2021-07-24 22:41:55*
%MOMM*%
%LPD*%
G01*
G04 APERTURE LIST*
%ADD10O,0.299999X1.450000*%
%ADD11O,1.450000X0.299999*%
%ADD12O,1.700000X1.700000*%
%ADD13R,1.700000X1.700000*%
%ADD14C,2.000000*%
%ADD15R,1.060000X0.650000*%
%ADD16R,1.800000X2.100000*%
%ADD17C,0.800000*%
%ADD18C,5.000000*%
%ADD19R,1.100000X0.600000*%
G04 APERTURE END LIST*
G36*
G01*
X155034000Y-76004000D02*
X154084000Y-76004000D01*
G75*
G02*
X153834000Y-75754000I0J250000D01*
G01*
X153834000Y-75079000D01*
G75*
G02*
X154084000Y-74829000I250000J0D01*
G01*
X155034000Y-74829000D01*
G75*
G02*
X155284000Y-75079000I0J-250000D01*
G01*
X155284000Y-75754000D01*
G75*
G02*
X155034000Y-76004000I-250000J0D01*
G01*
G37*
G36*
G01*
X155034000Y-78079000D02*
X154084000Y-78079000D01*
G75*
G02*
X153834000Y-77829000I0J250000D01*
G01*
X153834000Y-77154000D01*
G75*
G02*
X154084000Y-76904000I250000J0D01*
G01*
X155034000Y-76904000D01*
G75*
G02*
X155284000Y-77154000I0J-250000D01*
G01*
X155284000Y-77829000D01*
G75*
G02*
X155034000Y-78079000I-250000J0D01*
G01*
G37*
D10*
X145983000Y-81778000D03*
X146482999Y-81778000D03*
X146983000Y-81778000D03*
X147482999Y-81778000D03*
X147983001Y-81778000D03*
X148483000Y-81778000D03*
X148982999Y-81778000D03*
X149483000Y-81778000D03*
X149983000Y-81778000D03*
X150483001Y-81778000D03*
X150983000Y-81778000D03*
X151482999Y-81778000D03*
X151983001Y-81778000D03*
X152483000Y-81778000D03*
X152983001Y-81778000D03*
X153483000Y-81778000D03*
D11*
X155458000Y-83753000D03*
X155458000Y-84252999D03*
X155458000Y-84753000D03*
X155458000Y-85252999D03*
X155458000Y-85753001D03*
X155458000Y-86253000D03*
X155458000Y-86752999D03*
X155458000Y-87253000D03*
X155458000Y-87753000D03*
X155458000Y-88253001D03*
X155458000Y-88753000D03*
X155458000Y-89252999D03*
X155458000Y-89753001D03*
X155458000Y-90253000D03*
X155458000Y-90753001D03*
X155458000Y-91253000D03*
D10*
X153483000Y-93228000D03*
X152983001Y-93228000D03*
X152483000Y-93228000D03*
X151983001Y-93228000D03*
X151482999Y-93228000D03*
X150983000Y-93228000D03*
X150483001Y-93228000D03*
X149983000Y-93228000D03*
X149483000Y-93228000D03*
X148982999Y-93228000D03*
X148483000Y-93228000D03*
X147983001Y-93228000D03*
X147482999Y-93228000D03*
X146983000Y-93228000D03*
X146482999Y-93228000D03*
X145983000Y-93228000D03*
D11*
X144008000Y-91253000D03*
X144008000Y-90753001D03*
X144008000Y-90253000D03*
X144008000Y-89753001D03*
X144008000Y-89252999D03*
X144008000Y-88753000D03*
X144008000Y-88253001D03*
X144008000Y-87753000D03*
X144008000Y-87253000D03*
X144008000Y-86752999D03*
X144008000Y-86253000D03*
X144008000Y-85753001D03*
X144008000Y-85252999D03*
X144008000Y-84753000D03*
X144008000Y-84252999D03*
X144008000Y-83753000D03*
G36*
G01*
X142012000Y-73754000D02*
X142012000Y-72804000D01*
G75*
G02*
X142262000Y-72554000I250000J0D01*
G01*
X142937000Y-72554000D01*
G75*
G02*
X143187000Y-72804000I0J-250000D01*
G01*
X143187000Y-73754000D01*
G75*
G02*
X142937000Y-74004000I-250000J0D01*
G01*
X142262000Y-74004000D01*
G75*
G02*
X142012000Y-73754000I0J250000D01*
G01*
G37*
G36*
G01*
X144087000Y-73754000D02*
X144087000Y-72804000D01*
G75*
G02*
X144337000Y-72554000I250000J0D01*
G01*
X145012000Y-72554000D01*
G75*
G02*
X145262000Y-72804000I0J-250000D01*
G01*
X145262000Y-73754000D01*
G75*
G02*
X145012000Y-74004000I-250000J0D01*
G01*
X144337000Y-74004000D01*
G75*
G02*
X144087000Y-73754000I0J250000D01*
G01*
G37*
G36*
G01*
X144214000Y-79723000D02*
X144214000Y-78773000D01*
G75*
G02*
X144464000Y-78523000I250000J0D01*
G01*
X145139000Y-78523000D01*
G75*
G02*
X145389000Y-78773000I0J-250000D01*
G01*
X145389000Y-79723000D01*
G75*
G02*
X145139000Y-79973000I-250000J0D01*
G01*
X144464000Y-79973000D01*
G75*
G02*
X144214000Y-79723000I0J250000D01*
G01*
G37*
G36*
G01*
X142139000Y-79723000D02*
X142139000Y-78773000D01*
G75*
G02*
X142389000Y-78523000I250000J0D01*
G01*
X143064000Y-78523000D01*
G75*
G02*
X143314000Y-78773000I0J-250000D01*
G01*
X143314000Y-79723000D01*
G75*
G02*
X143064000Y-79973000I-250000J0D01*
G01*
X142389000Y-79973000D01*
G75*
G02*
X142139000Y-79723000I0J250000D01*
G01*
G37*
G36*
G01*
X138016000Y-80576000D02*
X137066000Y-80576000D01*
G75*
G02*
X136816000Y-80326000I0J250000D01*
G01*
X136816000Y-79651000D01*
G75*
G02*
X137066000Y-79401000I250000J0D01*
G01*
X138016000Y-79401000D01*
G75*
G02*
X138266000Y-79651000I0J-250000D01*
G01*
X138266000Y-80326000D01*
G75*
G02*
X138016000Y-80576000I-250000J0D01*
G01*
G37*
G36*
G01*
X138016000Y-82651000D02*
X137066000Y-82651000D01*
G75*
G02*
X136816000Y-82401000I0J250000D01*
G01*
X136816000Y-81726000D01*
G75*
G02*
X137066000Y-81476000I250000J0D01*
G01*
X138016000Y-81476000D01*
G75*
G02*
X138266000Y-81726000I0J-250000D01*
G01*
X138266000Y-82401000D01*
G75*
G02*
X138016000Y-82651000I-250000J0D01*
G01*
G37*
G36*
G01*
X157157000Y-79281000D02*
X157157000Y-80231000D01*
G75*
G02*
X156907000Y-80481000I-250000J0D01*
G01*
X156232000Y-80481000D01*
G75*
G02*
X155982000Y-80231000I0J250000D01*
G01*
X155982000Y-79281000D01*
G75*
G02*
X156232000Y-79031000I250000J0D01*
G01*
X156907000Y-79031000D01*
G75*
G02*
X157157000Y-79281000I0J-250000D01*
G01*
G37*
G36*
G01*
X159232000Y-79281000D02*
X159232000Y-80231000D01*
G75*
G02*
X158982000Y-80481000I-250000J0D01*
G01*
X158307000Y-80481000D01*
G75*
G02*
X158057000Y-80231000I0J250000D01*
G01*
X158057000Y-79281000D01*
G75*
G02*
X158307000Y-79031000I250000J0D01*
G01*
X158982000Y-79031000D01*
G75*
G02*
X159232000Y-79281000I0J-250000D01*
G01*
G37*
G36*
G01*
X144214000Y-98011000D02*
X144214000Y-97061000D01*
G75*
G02*
X144464000Y-96811000I250000J0D01*
G01*
X145139000Y-96811000D01*
G75*
G02*
X145389000Y-97061000I0J-250000D01*
G01*
X145389000Y-98011000D01*
G75*
G02*
X145139000Y-98261000I-250000J0D01*
G01*
X144464000Y-98261000D01*
G75*
G02*
X144214000Y-98011000I0J250000D01*
G01*
G37*
G36*
G01*
X142139000Y-98011000D02*
X142139000Y-97061000D01*
G75*
G02*
X142389000Y-96811000I250000J0D01*
G01*
X143064000Y-96811000D01*
G75*
G02*
X143314000Y-97061000I0J-250000D01*
G01*
X143314000Y-98011000D01*
G75*
G02*
X143064000Y-98261000I-250000J0D01*
G01*
X142389000Y-98261000D01*
G75*
G02*
X142139000Y-98011000I0J250000D01*
G01*
G37*
G36*
G01*
X149632000Y-73627000D02*
X149632000Y-72677000D01*
G75*
G02*
X149882000Y-72427000I250000J0D01*
G01*
X150557000Y-72427000D01*
G75*
G02*
X150807000Y-72677000I0J-250000D01*
G01*
X150807000Y-73627000D01*
G75*
G02*
X150557000Y-73877000I-250000J0D01*
G01*
X149882000Y-73877000D01*
G75*
G02*
X149632000Y-73627000I0J250000D01*
G01*
G37*
G36*
G01*
X151707000Y-73627000D02*
X151707000Y-72677000D01*
G75*
G02*
X151957000Y-72427000I250000J0D01*
G01*
X152632000Y-72427000D01*
G75*
G02*
X152882000Y-72677000I0J-250000D01*
G01*
X152882000Y-73627000D01*
G75*
G02*
X152632000Y-73877000I-250000J0D01*
G01*
X151957000Y-73877000D01*
G75*
G02*
X151707000Y-73627000I0J250000D01*
G01*
G37*
G36*
G01*
X140429000Y-82651000D02*
X139479000Y-82651000D01*
G75*
G02*
X139229000Y-82401000I0J250000D01*
G01*
X139229000Y-81726000D01*
G75*
G02*
X139479000Y-81476000I250000J0D01*
G01*
X140429000Y-81476000D01*
G75*
G02*
X140679000Y-81726000I0J-250000D01*
G01*
X140679000Y-82401000D01*
G75*
G02*
X140429000Y-82651000I-250000J0D01*
G01*
G37*
G36*
G01*
X140429000Y-80576000D02*
X139479000Y-80576000D01*
G75*
G02*
X139229000Y-80326000I0J250000D01*
G01*
X139229000Y-79651000D01*
G75*
G02*
X139479000Y-79401000I250000J0D01*
G01*
X140429000Y-79401000D01*
G75*
G02*
X140679000Y-79651000I0J-250000D01*
G01*
X140679000Y-80326000D01*
G75*
G02*
X140429000Y-80576000I-250000J0D01*
G01*
G37*
G36*
G01*
X159253500Y-81440000D02*
X159253500Y-82390000D01*
G75*
G02*
X159003500Y-82640000I-250000J0D01*
G01*
X158328500Y-82640000D01*
G75*
G02*
X158078500Y-82390000I0J250000D01*
G01*
X158078500Y-81440000D01*
G75*
G02*
X158328500Y-81190000I250000J0D01*
G01*
X159003500Y-81190000D01*
G75*
G02*
X159253500Y-81440000I0J-250000D01*
G01*
G37*
G36*
G01*
X157178500Y-81440000D02*
X157178500Y-82390000D01*
G75*
G02*
X156928500Y-82640000I-250000J0D01*
G01*
X156253500Y-82640000D01*
G75*
G02*
X156003500Y-82390000I0J250000D01*
G01*
X156003500Y-81440000D01*
G75*
G02*
X156253500Y-81190000I250000J0D01*
G01*
X156928500Y-81190000D01*
G75*
G02*
X157178500Y-81440000I0J-250000D01*
G01*
G37*
G36*
G01*
X142139000Y-95852000D02*
X142139000Y-94902000D01*
G75*
G02*
X142389000Y-94652000I250000J0D01*
G01*
X143064000Y-94652000D01*
G75*
G02*
X143314000Y-94902000I0J-250000D01*
G01*
X143314000Y-95852000D01*
G75*
G02*
X143064000Y-96102000I-250000J0D01*
G01*
X142389000Y-96102000D01*
G75*
G02*
X142139000Y-95852000I0J250000D01*
G01*
G37*
G36*
G01*
X144214000Y-95852000D02*
X144214000Y-94902000D01*
G75*
G02*
X144464000Y-94652000I250000J0D01*
G01*
X145139000Y-94652000D01*
G75*
G02*
X145389000Y-94902000I0J-250000D01*
G01*
X145389000Y-95852000D01*
G75*
G02*
X145139000Y-96102000I-250000J0D01*
G01*
X144464000Y-96102000D01*
G75*
G02*
X144214000Y-95852000I0J250000D01*
G01*
G37*
G36*
G01*
X145611000Y-62959000D02*
X145611000Y-62009000D01*
G75*
G02*
X145861000Y-61759000I250000J0D01*
G01*
X146536000Y-61759000D01*
G75*
G02*
X146786000Y-62009000I0J-250000D01*
G01*
X146786000Y-62959000D01*
G75*
G02*
X146536000Y-63209000I-250000J0D01*
G01*
X145861000Y-63209000D01*
G75*
G02*
X145611000Y-62959000I0J250000D01*
G01*
G37*
G36*
G01*
X143536000Y-62959000D02*
X143536000Y-62009000D01*
G75*
G02*
X143786000Y-61759000I250000J0D01*
G01*
X144461000Y-61759000D01*
G75*
G02*
X144711000Y-62009000I0J-250000D01*
G01*
X144711000Y-62959000D01*
G75*
G02*
X144461000Y-63209000I-250000J0D01*
G01*
X143786000Y-63209000D01*
G75*
G02*
X143536000Y-62959000I0J250000D01*
G01*
G37*
G36*
G01*
X172746000Y-97439500D02*
X172746000Y-96489500D01*
G75*
G02*
X172996000Y-96239500I250000J0D01*
G01*
X173671000Y-96239500D01*
G75*
G02*
X173921000Y-96489500I0J-250000D01*
G01*
X173921000Y-97439500D01*
G75*
G02*
X173671000Y-97689500I-250000J0D01*
G01*
X172996000Y-97689500D01*
G75*
G02*
X172746000Y-97439500I0J250000D01*
G01*
G37*
G36*
G01*
X174821000Y-97439500D02*
X174821000Y-96489500D01*
G75*
G02*
X175071000Y-96239500I250000J0D01*
G01*
X175746000Y-96239500D01*
G75*
G02*
X175996000Y-96489500I0J-250000D01*
G01*
X175996000Y-97439500D01*
G75*
G02*
X175746000Y-97689500I-250000J0D01*
G01*
X175071000Y-97689500D01*
G75*
G02*
X174821000Y-97439500I0J250000D01*
G01*
G37*
G36*
G01*
X156109000Y-62959000D02*
X156109000Y-62009000D01*
G75*
G02*
X156359000Y-61759000I250000J0D01*
G01*
X157034000Y-61759000D01*
G75*
G02*
X157284000Y-62009000I0J-250000D01*
G01*
X157284000Y-62959000D01*
G75*
G02*
X157034000Y-63209000I-250000J0D01*
G01*
X156359000Y-63209000D01*
G75*
G02*
X156109000Y-62959000I0J250000D01*
G01*
G37*
G36*
G01*
X158184000Y-62959000D02*
X158184000Y-62009000D01*
G75*
G02*
X158434000Y-61759000I250000J0D01*
G01*
X159109000Y-61759000D01*
G75*
G02*
X159359000Y-62009000I0J-250000D01*
G01*
X159359000Y-62959000D01*
G75*
G02*
X159109000Y-63209000I-250000J0D01*
G01*
X158434000Y-63209000D01*
G75*
G02*
X158184000Y-62959000I0J250000D01*
G01*
G37*
G36*
G01*
X156025000Y-67912000D02*
X156025000Y-66962000D01*
G75*
G02*
X156275000Y-66712000I250000J0D01*
G01*
X156950000Y-66712000D01*
G75*
G02*
X157200000Y-66962000I0J-250000D01*
G01*
X157200000Y-67912000D01*
G75*
G02*
X156950000Y-68162000I-250000J0D01*
G01*
X156275000Y-68162000D01*
G75*
G02*
X156025000Y-67912000I0J250000D01*
G01*
G37*
G36*
G01*
X153950000Y-67912000D02*
X153950000Y-66962000D01*
G75*
G02*
X154200000Y-66712000I250000J0D01*
G01*
X154875000Y-66712000D01*
G75*
G02*
X155125000Y-66962000I0J-250000D01*
G01*
X155125000Y-67912000D01*
G75*
G02*
X154875000Y-68162000I-250000J0D01*
G01*
X154200000Y-68162000D01*
G75*
G02*
X153950000Y-67912000I0J250000D01*
G01*
G37*
D12*
X122047000Y-68326000D03*
X122047000Y-70866000D03*
X122047000Y-73406000D03*
X122047000Y-75946000D03*
X122047000Y-78486000D03*
D13*
X122047000Y-81026000D03*
X137287000Y-89916000D03*
D12*
X137287000Y-92456000D03*
X137287000Y-94996000D03*
X137287000Y-97536000D03*
X137287000Y-100076000D03*
X137287000Y-102616000D03*
D13*
X122047000Y-92456000D03*
D12*
X122047000Y-94996000D03*
X122047000Y-97536000D03*
X122047000Y-100076000D03*
D13*
X133477000Y-115316000D03*
D12*
X136017000Y-115316000D03*
X138557000Y-115316000D03*
D13*
X148717000Y-113728500D03*
D12*
X148717000Y-111188500D03*
X151257000Y-113728500D03*
X151257000Y-111188500D03*
X153797000Y-113728500D03*
X153797000Y-111188500D03*
X156337000Y-113728500D03*
X156337000Y-111188500D03*
X158877000Y-113728500D03*
X158877000Y-111188500D03*
X161417000Y-113728500D03*
X161417000Y-111188500D03*
X163957000Y-113728500D03*
X163957000Y-111188500D03*
D13*
X143637000Y-59436000D03*
D12*
X146177000Y-59436000D03*
G36*
G01*
X169469000Y-73856001D02*
X169469000Y-72955999D01*
G75*
G02*
X169718999Y-72706000I249999J0D01*
G01*
X170419001Y-72706000D01*
G75*
G02*
X170669000Y-72955999I0J-249999D01*
G01*
X170669000Y-73856001D01*
G75*
G02*
X170419001Y-74106000I-249999J0D01*
G01*
X169718999Y-74106000D01*
G75*
G02*
X169469000Y-73856001I0J249999D01*
G01*
G37*
G36*
G01*
X171469000Y-73856001D02*
X171469000Y-72955999D01*
G75*
G02*
X171718999Y-72706000I249999J0D01*
G01*
X172419001Y-72706000D01*
G75*
G02*
X172669000Y-72955999I0J-249999D01*
G01*
X172669000Y-73856001D01*
G75*
G02*
X172419001Y-74106000I-249999J0D01*
G01*
X171718999Y-74106000D01*
G75*
G02*
X171469000Y-73856001I0J249999D01*
G01*
G37*
G36*
G01*
X171469000Y-71443001D02*
X171469000Y-70542999D01*
G75*
G02*
X171718999Y-70293000I249999J0D01*
G01*
X172419001Y-70293000D01*
G75*
G02*
X172669000Y-70542999I0J-249999D01*
G01*
X172669000Y-71443001D01*
G75*
G02*
X172419001Y-71693000I-249999J0D01*
G01*
X171718999Y-71693000D01*
G75*
G02*
X171469000Y-71443001I0J249999D01*
G01*
G37*
G36*
G01*
X169469000Y-71443001D02*
X169469000Y-70542999D01*
G75*
G02*
X169718999Y-70293000I249999J0D01*
G01*
X170419001Y-70293000D01*
G75*
G02*
X170669000Y-70542999I0J-249999D01*
G01*
X170669000Y-71443001D01*
G75*
G02*
X170419001Y-71693000I-249999J0D01*
G01*
X169718999Y-71693000D01*
G75*
G02*
X169469000Y-71443001I0J249999D01*
G01*
G37*
G36*
G01*
X130194000Y-93160001D02*
X130194000Y-92259999D01*
G75*
G02*
X130443999Y-92010000I249999J0D01*
G01*
X131144001Y-92010000D01*
G75*
G02*
X131394000Y-92259999I0J-249999D01*
G01*
X131394000Y-93160001D01*
G75*
G02*
X131144001Y-93410000I-249999J0D01*
G01*
X130443999Y-93410000D01*
G75*
G02*
X130194000Y-93160001I0J249999D01*
G01*
G37*
G36*
G01*
X128194000Y-93160001D02*
X128194000Y-92259999D01*
G75*
G02*
X128443999Y-92010000I249999J0D01*
G01*
X129144001Y-92010000D01*
G75*
G02*
X129394000Y-92259999I0J-249999D01*
G01*
X129394000Y-93160001D01*
G75*
G02*
X129144001Y-93410000I-249999J0D01*
G01*
X128443999Y-93410000D01*
G75*
G02*
X128194000Y-93160001I0J249999D01*
G01*
G37*
G36*
G01*
X128194000Y-95319001D02*
X128194000Y-94418999D01*
G75*
G02*
X128443999Y-94169000I249999J0D01*
G01*
X129144001Y-94169000D01*
G75*
G02*
X129394000Y-94418999I0J-249999D01*
G01*
X129394000Y-95319001D01*
G75*
G02*
X129144001Y-95569000I-249999J0D01*
G01*
X128443999Y-95569000D01*
G75*
G02*
X128194000Y-95319001I0J249999D01*
G01*
G37*
G36*
G01*
X130194000Y-95319001D02*
X130194000Y-94418999D01*
G75*
G02*
X130443999Y-94169000I249999J0D01*
G01*
X131144001Y-94169000D01*
G75*
G02*
X131394000Y-94418999I0J-249999D01*
G01*
X131394000Y-95319001D01*
G75*
G02*
X131144001Y-95569000I-249999J0D01*
G01*
X130443999Y-95569000D01*
G75*
G02*
X130194000Y-95319001I0J249999D01*
G01*
G37*
G36*
G01*
X175907500Y-94037999D02*
X175907500Y-94938001D01*
G75*
G02*
X175657501Y-95188000I-249999J0D01*
G01*
X174957499Y-95188000D01*
G75*
G02*
X174707500Y-94938001I0J249999D01*
G01*
X174707500Y-94037999D01*
G75*
G02*
X174957499Y-93788000I249999J0D01*
G01*
X175657501Y-93788000D01*
G75*
G02*
X175907500Y-94037999I0J-249999D01*
G01*
G37*
G36*
G01*
X173907500Y-94037999D02*
X173907500Y-94938001D01*
G75*
G02*
X173657501Y-95188000I-249999J0D01*
G01*
X172957499Y-95188000D01*
G75*
G02*
X172707500Y-94938001I0J249999D01*
G01*
X172707500Y-94037999D01*
G75*
G02*
X172957499Y-93788000I249999J0D01*
G01*
X173657501Y-93788000D01*
G75*
G02*
X173907500Y-94037999I0J-249999D01*
G01*
G37*
G36*
G01*
X172358000Y-81984001D02*
X172358000Y-81083999D01*
G75*
G02*
X172607999Y-80834000I249999J0D01*
G01*
X173308001Y-80834000D01*
G75*
G02*
X173558000Y-81083999I0J-249999D01*
G01*
X173558000Y-81984001D01*
G75*
G02*
X173308001Y-82234000I-249999J0D01*
G01*
X172607999Y-82234000D01*
G75*
G02*
X172358000Y-81984001I0J249999D01*
G01*
G37*
G36*
G01*
X170358000Y-81984001D02*
X170358000Y-81083999D01*
G75*
G02*
X170607999Y-80834000I249999J0D01*
G01*
X171308001Y-80834000D01*
G75*
G02*
X171558000Y-81083999I0J-249999D01*
G01*
X171558000Y-81984001D01*
G75*
G02*
X171308001Y-82234000I-249999J0D01*
G01*
X170607999Y-82234000D01*
G75*
G02*
X170358000Y-81984001I0J249999D01*
G01*
G37*
D14*
X177918500Y-106489500D03*
X173418500Y-106489500D03*
X177918500Y-99989500D03*
X173418500Y-99989500D03*
D15*
X149903000Y-65471000D03*
X149903000Y-66421000D03*
X149903000Y-67371000D03*
X152103000Y-67371000D03*
X152103000Y-65471000D03*
D16*
X152026000Y-78793000D03*
X152026000Y-75893000D03*
X149726000Y-75893000D03*
X149726000Y-78793000D03*
G36*
G01*
X168986000Y-81083999D02*
X168986000Y-81984001D01*
G75*
G02*
X168736001Y-82234000I-249999J0D01*
G01*
X168085999Y-82234000D01*
G75*
G02*
X167836000Y-81984001I0J249999D01*
G01*
X167836000Y-81083999D01*
G75*
G02*
X168085999Y-80834000I249999J0D01*
G01*
X168736001Y-80834000D01*
G75*
G02*
X168986000Y-81083999I0J-249999D01*
G01*
G37*
G36*
G01*
X166936000Y-81083999D02*
X166936000Y-81984001D01*
G75*
G02*
X166686001Y-82234000I-249999J0D01*
G01*
X166035999Y-82234000D01*
G75*
G02*
X165786000Y-81984001I0J249999D01*
G01*
X165786000Y-81083999D01*
G75*
G02*
X166035999Y-80834000I249999J0D01*
G01*
X166686001Y-80834000D01*
G75*
G02*
X166936000Y-81083999I0J-249999D01*
G01*
G37*
D13*
X156337000Y-59436000D03*
D12*
X158877000Y-59436000D03*
D17*
X125912825Y-60650175D03*
X124587000Y-60101000D03*
X123261175Y-60650175D03*
X122712000Y-61976000D03*
X123261175Y-63301825D03*
X124587000Y-63851000D03*
X125912825Y-63301825D03*
X126462000Y-61976000D03*
D18*
X124587000Y-61976000D03*
X124587000Y-112776000D03*
D17*
X126462000Y-112776000D03*
X125912825Y-114101825D03*
X124587000Y-114651000D03*
X123261175Y-114101825D03*
X122712000Y-112776000D03*
X123261175Y-111450175D03*
X124587000Y-110901000D03*
X125912825Y-111450175D03*
X176712825Y-60650175D03*
X175387000Y-60101000D03*
X174061175Y-60650175D03*
X173512000Y-61976000D03*
X174061175Y-63301825D03*
X175387000Y-63851000D03*
X176712825Y-63301825D03*
X177262000Y-61976000D03*
D18*
X175387000Y-61976000D03*
X175387000Y-112776000D03*
D17*
X177262000Y-112776000D03*
X176712825Y-114101825D03*
X175387000Y-114651000D03*
X174061175Y-114101825D03*
X173512000Y-112776000D03*
X174061175Y-111450175D03*
X175387000Y-110901000D03*
X176712825Y-111450175D03*
D12*
X177927000Y-68326000D03*
X177927000Y-70866000D03*
X177927000Y-73406000D03*
D13*
X177927000Y-75946000D03*
X177927000Y-83566000D03*
D12*
X177927000Y-86106000D03*
X177927000Y-88646000D03*
X177927000Y-91186000D03*
D19*
X144843500Y-76900000D03*
X144843500Y-75500000D03*
M02*
